<svg width="103" height="114" viewBox="0 0 103 114" fill="none" xmlns="http://www.w3.org/2000/svg">
<g clip-path="url(#clip0_1063_9418)">
<path d="M79.6436 43.2811C79.6246 37.1314 79.4821 30.977 79.4061 24.8272C79.3634 21.4698 79.7101 17.7515 79.0357 14.4843C77.6966 7.97371 72.3494 2.40335 65.872 0.864732C63.5641 0.318618 60.919 0.119168 58.6016 0.480078C58.6206 3.34361 58.6396 6.20715 58.6633 9.07068C53.6913 9.12292 48.7241 9.17516 43.752 9.22265L44.094 55.3526C45.8035 55.2861 47.2519 55.3954 48.3537 55.5378C49.4934 55.6803 59.6368 57.1287 66.2852 65.7573C67.2587 67.0205 67.9235 68.1364 68.3224 68.8488C71.9268 68.8583 75.5264 68.8678 79.1307 68.8773C79.3349 68.8345 79.5344 68.787 79.7386 68.7443C79.7148 62.3571 79.6578 47.3034 79.6436 43.2811ZM55.5861 49.9912C55.5861 50.1954 55.4199 50.3616 55.2204 50.3616H48.876C48.6718 50.3616 48.5104 50.1954 48.5104 49.9912V47.2369C48.5104 47.0327 48.6718 46.8665 48.876 46.8665H55.2204C55.4199 46.8665 55.5861 47.0327 55.5861 47.2369V49.9912ZM55.5861 40.1279C55.5861 40.3321 55.4199 40.4936 55.2204 40.4936H48.876C48.6718 40.4936 48.5104 40.3321 48.5104 40.1279V37.3689C48.5104 37.1694 48.6718 37.0032 48.876 37.0032H55.2204C55.4199 37.0032 55.5861 37.1694 55.5861 37.3689V40.1279ZM55.5861 30.1412C55.5861 30.3406 55.4199 30.5068 55.2204 30.5068H48.876C48.6718 30.5068 48.5104 30.3406 48.5104 30.1412V27.3821C48.5104 27.1779 48.6718 27.0165 48.876 27.0165H55.2204C55.4199 27.0165 55.5861 27.1779 55.5861 27.3821V30.1412ZM55.5861 20.2731C55.5861 20.4773 55.4199 20.6435 55.2204 20.6435H48.876C48.6718 20.6435 48.5104 20.4773 48.5104 20.2731V17.5188C48.5104 17.3146 48.6718 17.1484 48.876 17.1484H55.2204C55.4199 17.1484 55.5861 17.3146 55.5861 17.5188V20.2731ZM64.8368 49.9912C64.8368 50.1954 64.6753 50.3616 64.4711 50.3616H58.1267C57.9273 50.3616 57.7611 50.1954 57.7611 49.9912V47.2369C57.7611 47.0327 57.9273 46.8665 58.1267 46.8665H64.4711C64.6753 46.8665 64.8368 47.0327 64.8368 47.2369V49.9912ZM64.8368 40.1279C64.8368 40.3321 64.6753 40.4936 64.4711 40.4936H58.1267C57.9273 40.4936 57.7611 40.3321 57.7611 40.1279V37.3689C57.7611 37.1694 57.9273 37.0032 58.1267 37.0032H64.4711C64.6753 37.0032 64.8368 37.1694 64.8368 37.3689V40.1279ZM64.8368 30.1412C64.8368 30.3406 64.6753 30.5068 64.4711 30.5068H58.1267C57.9273 30.5068 57.7611 30.3406 57.7611 30.1412V27.3821C57.7611 27.1779 57.9273 27.0165 58.1267 27.0165H64.4711C64.6753 27.0165 64.8368 27.1779 64.8368 27.3821V30.1412ZM64.8368 20.2731C64.8368 20.4773 64.6753 20.6435 64.4711 20.6435H58.1267C57.9273 20.6435 57.7611 20.4773 57.7611 20.2731V17.5188C57.7611 17.3146 57.9273 17.1484 58.1267 17.1484H64.4711C64.6753 17.1484 64.8368 17.3146 64.8368 17.5188V20.2731ZM74.154 49.9912C74.154 50.1954 73.9878 50.3616 73.7836 50.3616H67.4439C67.2397 50.3616 67.0735 50.1954 67.0735 49.9912V47.2369C67.0735 47.0327 67.2397 46.8665 67.4439 46.8665H73.7836C73.9878 46.8665 74.154 47.0327 74.154 47.2369V49.9912ZM74.154 40.1279C74.154 40.3321 73.9878 40.4936 73.7836 40.4936H67.4439C67.2397 40.4936 67.0735 40.3321 67.0735 40.1279V37.3689C67.0735 37.1694 67.2397 37.0032 67.4439 37.0032H73.7836C73.9878 37.0032 74.154 37.1694 74.154 37.3689V40.1279ZM74.154 30.1412C74.154 30.3406 73.9878 30.5068 73.7836 30.5068H67.4439C67.2397 30.5068 67.0735 30.3406 67.0735 30.1412V27.3821C67.0735 27.1779 67.2397 27.0165 67.4439 27.0165H73.7836C73.9878 27.0165 74.154 27.1779 74.154 27.3821V30.1412ZM74.154 20.2731C74.154 20.4773 73.9878 20.6435 73.7836 20.6435H67.4439C67.2397 20.6435 67.0735 20.4773 67.0735 20.2731V17.5188C67.0735 17.3146 67.2397 17.1484 67.4439 17.1484H73.7836C73.9878 17.1484 74.154 17.3146 74.154 17.5188V20.2731Z" fill="white"/>
<path d="M27.041 55.082C27.06 46.8001 27.079 38.5181 27.098 30.2362C28.3469 30.1555 29.6528 30.108 30.9018 30.2505C36.4436 30.8868 40.6273 35.4457 40.8885 41.0065L40.974 55.7991L40.746 56.1457C34.1594 57.5324 28.722 61.7351 25.1794 67.3577C24.961 67.7044 24.2962 69.2145 23.959 69.2145H18.7733L18.7163 41.8613C20.5873 41.8518 22.4584 41.8423 24.3294 41.8376C24.3579 46.254 24.3864 50.6704 24.4149 55.082H27.041Z" fill="white"/>
<path d="M46.1075 70.7198C49.6976 70.5251 50.1962 76.1429 46.5301 76.5086C42.6503 76.898 42.2799 70.9287 46.1075 70.7198Z" fill="white"/>
<path d="M53.6533 84.0881V85.8547C53.4444 85.9069 53.2497 85.9592 53.0312 85.9734C48.762 86.3106 44.0037 85.8357 39.6871 86.0874C39.2692 86.0494 38.9985 86.0446 38.9462 85.5745C38.6233 82.8107 40.3709 80.1039 43.2249 79.8142C45.039 79.6337 49.1562 79.4628 50.7518 80.1514C52.091 80.7355 53.6533 82.5875 53.6533 84.0881Z" fill="white"/>
<path d="M45.4236 64.575C33.0245 65.3159 26.3666 79.3676 33.7273 89.4256C40.3376 98.4483 54.019 97.5888 59.6701 88.0532C65.9717 77.4301 57.7563 63.839 45.4236 64.575ZM56.2224 88.9365L36.3819 89.0504L35.9877 88.8747C36.1444 87.0749 35.7788 84.9332 35.9877 83.1762C36.2252 81.1769 38.1009 78.8595 39.7868 77.8575C40.0195 77.715 41.1687 77.2449 41.2114 77.1784C41.3491 76.96 40.5703 75.4118 40.4659 74.937C39.3736 69.9127 44.6638 66.0044 49.1704 68.5118C51.5069 69.813 52.6561 72.8807 51.8345 75.4308C51.7253 75.7775 51.1554 76.6655 51.1839 76.9125C51.1982 77.0644 53.3399 78.1519 53.7673 78.5033C56.93 81.0914 56.5596 83.8315 56.6118 87.5118C56.6118 87.9867 56.987 88.8462 56.2224 88.9365Z" fill="white"/>
<path d="M45.4236 58.5346C35.3419 58.9287 26.6326 66.3891 24.9657 76.3711C21.8505 95.0292 41.7101 108.345 57.8608 98.4389C58.2502 98.2014 59.6036 97.1282 59.8648 97.1282C60.2542 97.1282 62.4291 98.928 62.961 99.2794C63.1225 99.3886 63.3884 99.6356 63.5783 99.5928C63.7493 99.5596 65.7913 97.5508 65.834 97.3989C65.8958 97.1662 65.8055 97.057 65.7153 96.8718C65.4161 96.2449 63.3314 93.9512 63.3647 93.5666C65.2547 90.8075 66.7031 88.0247 67.3869 84.7148C70.2409 70.9052 59.5798 57.9837 45.4236 58.5346ZM64.0532 85.5981C59.6416 100.609 39.2834 103.487 30.6976 90.4039C23.0805 78.7978 30.6168 62.6993 44.5119 61.6118C57.818 60.5718 67.838 72.7335 64.0532 85.5981Z" fill="white"/>
<path d="M97.6463 80.1557L70.977 80.3837C70.9295 78.7691 70.7538 76.9218 70.3502 74.913C70.1365 73.8541 69.8895 72.8663 69.6188 71.9593C69.6711 71.9593 69.7233 71.9545 69.7755 71.9498C78.9455 71.8786 88.0822 71.6506 97.2522 71.7171C97.3709 71.6933 97.6463 71.7978 97.6463 71.8928V80.1557Z" fill="white"/>
<path d="M1.01746 80.8255C0.91299 78.0664 0.799019 75.2788 0.936734 72.515L1.07445 72.4248L22.7623 72.4818C22.3539 73.441 21.9075 74.7422 21.6558 76.3236C21.3804 78.0569 21.4374 79.548 21.5561 80.645L1.01746 80.8302V80.8255Z" fill="white"/>
<path d="M69.4669 98.1872C69.6616 98.1397 69.8563 98.1302 70.013 98.2727L79.7338 107.932C79.8145 108.212 79.7148 108.497 79.5249 108.706L75.0847 113.046C74.7428 113.174 74.4151 113.065 74.1634 112.814L64.6088 103.33C64.5376 103.06 65.0315 102.494 65.2167 102.271C66.0287 101.293 67.8855 99.4267 68.8638 98.6241C69.0157 98.5007 69.2912 98.2395 69.4669 98.1967V98.1872Z" fill="white"/>
</g>
<defs>
<clipPath id="clip0_1063_9418">
<rect width="101.25" height="113.4" fill="white" transform="translate(0.875 0.299805)"/>
</clipPath>
</defs>
</svg>
