<svg width="48" height="48" viewBox="0 0 48 48" fill="none" xmlns="http://www.w3.org/2000/svg">
<path d="M5.64281 6.29406C9.225 2.73678 15.0544 1.00697 23.9859 0.85144H24.0141C32.9466 1.00697 38.7759 2.73678 42.3572 6.29406C46.0453 9.74917 47.8388 15.3717 48 23.9864V24.0136C47.8388 32.6292 46.0453 38.2517 42.3572 41.7059C38.7759 45.2641 32.9466 46.993 24.0141 47.1486H23.9859C15.0544 46.993 9.225 45.2641 5.64281 41.7068C1.95469 38.2517 0.161251 32.6292 0 24.0136V23.9864C0.161251 15.3717 1.95469 9.74917 5.64281 6.29406ZM12.9975 24.009C12.9956 24.2026 13.0706 24.397 13.2234 24.5444L20.0203 31.1001C20.1712 31.2457 20.3681 31.318 20.5659 31.318C20.7628 31.318 20.9606 31.2457 21.1116 31.1001C21.4125 30.8098 21.4125 30.3387 21.1116 30.0485L15.6122 24.7442H34.2319C34.6575 24.7442 35.0034 24.4114 35.0034 24C35.0034 23.5895 34.6575 23.2567 34.2319 23.2567H15.6497L21.1491 17.9524C21.45 17.6613 21.45 17.1902 21.1491 16.8999C20.8481 16.6096 20.3597 16.6096 20.0588 16.8999L13.3331 23.386C13.1306 23.5198 12.9975 23.745 12.9975 24V24.009Z" fill="#474747"/>
</svg>
