<svg width="48" height="48" viewBox="0 0 48 48" fill="none" xmlns="http://www.w3.org/2000/svg">
<path d="M42.3572 6.29406C38.775 2.73678 32.9456 1.00697 24.0141 0.85144H23.9859C15.0534 1.00697 9.22406 2.73678 5.64281 6.29406C1.95469 9.74917 0.16125 15.3717 0 23.9864V24.0136C0.16125 32.6292 1.95469 38.2517 5.64281 41.7059C9.22406 45.2641 15.0534 46.993 23.9859 47.1486H24.0141C32.9456 46.993 38.775 45.2641 42.3572 41.7068C46.0453 38.2517 47.8387 32.6292 48 24.0136V23.9864C47.8387 15.3717 46.0453 9.74917 42.3572 6.29406ZM35.0025 24.009C35.0044 24.2026 34.9294 24.397 34.7766 24.5444L27.9797 31.1001C27.8288 31.2457 27.6319 31.318 27.4341 31.318C27.2372 31.318 27.0394 31.2457 26.8884 31.1001C26.5875 30.8098 26.5875 30.3387 26.8884 30.0485L32.3878 24.7442H13.7681C13.3425 24.7442 12.9966 24.4114 12.9966 24C12.9966 23.5895 13.3425 23.2567 13.7681 23.2567H32.3503L26.8509 17.9524C26.55 17.6613 26.55 17.1902 26.8509 16.8999C27.1519 16.6096 27.6403 16.6096 27.9412 16.8999L34.6669 23.386C34.8694 23.5198 35.0025 23.745 35.0025 24V24.009Z" fill="#474747"/>
</svg>
