<svg width="20" height="20" viewBox="0 0 20 20" fill="none" xmlns="http://www.w3.org/2000/svg">
<path d="M13.3333 8.3335L15.1244 8.87084C16.2687 9.21414 16.8409 9.38579 17.1704 9.82866C17.4999 10.2715 17.4999 10.8689 17.4999 12.0636V18.3335" stroke="#FA541C" stroke-width="1.5" stroke-linejoin="round"/>
<path d="M6.66663 7.5L9.16663 7.5M6.66663 10.8333L9.16663 10.8333" stroke="#141414" stroke-width="1.5" stroke-linecap="round" stroke-linejoin="round"/>
<path d="M9.99992 18.3337V15.8337C9.99992 15.048 9.99992 14.6551 9.75584 14.4111C9.51176 14.167 9.11893 14.167 8.33325 14.167H7.49992C6.71424 14.167 6.32141 14.167 6.07733 14.4111C5.83325 14.6551 5.83325 15.048 5.83325 15.8337L5.83325 18.3337" stroke="#141414" stroke-width="1.5" stroke-linejoin="round"/>
<path d="M1.66663 18.3335L18.3333 18.3335" stroke="#141414" stroke-width="1.5" stroke-linecap="round"/>
<path d="M2.5 18.3337L2.5 5.59803C2.5 3.50573 2.5 2.45959 3.15932 1.94053C3.81864 1.42147 4.78951 1.70328 6.73127 2.2669L10.8979 3.47634C12.0697 3.81646 12.6556 3.98652 12.9945 4.45004C13.3333 4.91355 13.3333 5.54485 13.3333 6.80746L13.3333 18.3337" stroke="#141414" stroke-width="1.5" stroke-linecap="round" stroke-linejoin="round"/>
</svg>
