<svg width="20" height="20" viewBox="0 0 20 20" fill="none" xmlns="http://www.w3.org/2000/svg">
<path d="M10 1.66699L5 1.66699C2.93167 1.66699 2.5 2.09866 2.5 4.16699L2.5 18.3337H12.5L12.5 4.16699C12.5 2.09866 12.0683 1.66699 10 1.66699Z" stroke="#141414" stroke-width="1.5" stroke-linejoin="round"/>
<path d="M15 6.66699H12.5L12.5 18.3337H17.5V9.16699C17.5 7.09866 17.0683 6.66699 15 6.66699Z" stroke="#FA541C" stroke-width="1.5" stroke-linejoin="round"/>
<path d="M6.66669 5L8.33335 5M6.66669 7.5L8.33335 7.5M6.66669 10L8.33335 10" stroke="#434343" stroke-width="1.5" stroke-linecap="round" stroke-linejoin="round"/>
<path d="M9.58335 18.3335V15.0002C9.58335 14.2145 9.58335 13.8217 9.33928 13.5776C9.0952 13.3335 8.70236 13.3335 7.91669 13.3335H7.08335C6.29768 13.3335 5.90484 13.3335 5.66076 13.5776C5.41669 13.8217 5.41669 14.2145 5.41669 15.0002L5.41669 18.3335" stroke="#434343" stroke-width="1.5" stroke-linejoin="round"/>
</svg>
