<svg width="49" height="48" viewBox="0 0 49 48" fill="none" xmlns="http://www.w3.org/2000/svg">
<path d="M44.5 26V24C44.5 16.4575 44.5 12.6863 42.1568 10.3431C39.8138 8 36.0424 8 28.5 8H20.5C12.9575 8 9.1863 8 6.84314 10.3431C4.5 12.6863 4.5 16.4575 4.5 24C4.5 31.5424 4.5 35.3138 6.84314 37.6568C9.1863 40 12.9575 40 20.5 40H26.5" stroke="#141414" stroke-width="2.5" stroke-linecap="round"/>
<path d="M20.5 32H12.5" stroke="#FA541C" stroke-width="2.5" stroke-linecap="round"/>
<path d="M4.5 20H44.5" stroke="#141414" stroke-width="2.5" stroke-linecap="round"/>
<path d="M36.5 40C39.8137 40 42.5 37.3137 42.5 34C42.5 30.6863 39.8137 28 36.5 28C33.1863 28 30.5 30.6863 30.5 34C30.5 37.3137 33.1863 40 36.5 40Z" stroke="#FA541C" stroke-width="2.5"/>
<path d="M41.5 39L43.5 41" stroke="#FA541C" stroke-width="2.5" stroke-linecap="round"/>
</svg>
