<svg width="15" height="16" viewBox="0 0 15 16" fill="none" xmlns="http://www.w3.org/2000/svg">
<path d="M8.88245 2.59046C9.37924 2.05222 9.62764 1.78309 9.89159 1.62611C10.5285 1.24734 11.3127 1.23556 11.9602 1.59504C12.2286 1.74403 12.4846 2.00558 12.9967 2.52867C13.5087 3.05176 13.7648 3.31331 13.9106 3.58745C14.2625 4.24891 14.251 5.05002 13.8802 5.70063C13.7265 5.97027 13.4631 6.22401 12.9362 6.7315L6.66706 12.7697C5.66856 13.7314 5.16931 14.2123 4.54535 14.456C3.92139 14.6997 3.23545 14.6818 1.86356 14.6459L1.6769 14.641C1.25925 14.6301 1.05043 14.6246 0.929037 14.4869C0.807648 14.3491 0.824221 14.1364 0.857366 13.7109L0.875364 13.4799C0.968652 12.2825 1.0153 11.6838 1.24912 11.1456C1.48294 10.6075 1.88627 10.1705 2.69293 9.2965L8.88245 2.59046Z" stroke="#FA541C" stroke-width="1.5" stroke-linejoin="round"/>
<path d="M8.16663 2.66699L12.8333 7.33366" stroke="#141414" stroke-width="1.5" stroke-linejoin="round"/>
<path d="M8.83331 14.667L14.1666 14.667" stroke="#141414" stroke-width="1.5" stroke-linecap="round" stroke-linejoin="round"/>
</svg>
