<svg width="32" height="32" viewBox="0 0 32 32" fill="none" xmlns="http://www.w3.org/2000/svg">
<g clip-path="url(#clip0_3189_3173)">
<path d="M15.9963 31.9999C13.9892 31.9999 11.9822 31.9999 9.9677 31.9999C9.26375 31.9999 8.97168 31.7003 8.96419 31.0038C8.96419 30.5919 8.98666 30.1875 9.07653 29.7906C9.12895 29.566 9.0915 29.3787 8.97168 29.1915C8.17037 27.9109 7.00959 27.2219 5.50433 27.2819C3.75193 27.3567 2.56869 28.2854 1.93962 29.9179C1.82729 30.2025 1.90967 30.2849 2.20922 30.2774C3.63211 30.2699 5.055 30.2774 6.48537 30.2774C6.85233 30.2774 7.12193 30.4497 7.25673 30.7792C7.39153 31.1012 7.36906 31.4232 7.14439 31.7003C6.97215 31.91 6.74748 32.0073 6.4704 32.0073C4.60566 32.0073 2.73344 32.0073 0.868711 32.0073C0.329511 32.0073 0 31.6703 0 31.1237C0 29.1241 0.891177 27.5889 2.50129 26.4431C2.88322 26.1735 2.89071 26.181 2.60613 25.829C0.778844 23.5449 1.90218 20.2348 4.74795 19.5384C6.99462 18.9842 9.30119 20.6392 9.51088 22.9308C9.61573 24.0916 9.28622 25.0951 8.52984 25.9638C8.38006 26.1361 8.34262 26.2184 8.57477 26.3457C9.01662 26.5929 9.40604 26.9149 9.74304 27.2893C9.87784 27.4391 9.97519 27.4915 10.11 27.2819C10.769 26.2933 11.6153 25.4995 12.6637 24.9453C12.9782 24.7806 12.8135 24.6682 12.6637 24.5185C11.0761 22.9308 10.7166 20.6542 11.795 18.7296C12.791 16.9622 14.6108 16.0261 16.6553 16.3106C18.7522 16.6027 20.3623 18.1679 20.7068 20.1749C20.9913 21.8449 20.542 23.2903 19.3438 24.496C19.0517 24.7881 19.0517 24.7881 19.3887 24.9753C20.3847 25.5295 21.2085 26.2858 21.8376 27.2294C21.9949 27.4691 22.0922 27.4616 22.2719 27.2594C22.594 26.8999 22.9609 26.5929 23.3878 26.3607C23.605 26.2409 23.6349 26.1585 23.4552 25.9563C22.7887 25.2299 22.4367 24.3537 22.4442 23.3727C22.4442 21.6727 23.4102 20.3247 24.8856 19.7256C27.1697 18.797 29.6784 20.13 30.1877 22.5489C30.4498 23.792 30.1428 24.9154 29.3265 25.8814C29.1243 26.1211 29.1243 26.2109 29.4014 26.3982C31.0639 27.514 31.97 29.0717 31.985 31.0937C31.985 31.6778 31.663 32.0073 31.0789 32.0073C29.2366 32.0073 27.3868 32.0073 25.5446 32.0073C24.9979 32.0073 24.6534 31.6629 24.6534 31.1461C24.6534 30.6219 24.9904 30.2849 25.5446 30.2849C26.945 30.2849 28.3454 30.2849 29.7458 30.2849C30.1428 30.2849 30.1652 30.2624 30.0229 29.888C29.4837 28.4576 28.4727 27.5515 26.96 27.3268C25.275 27.0797 23.9569 27.7387 23.0208 29.1691C22.8111 29.4911 22.916 29.7981 22.9609 30.1127C23.0058 30.4122 23.0208 30.7193 23.0208 31.0188C23.0208 31.7153 22.7213 32.0073 22.0098 32.0073C20.0028 32.0073 17.9958 32.0073 15.9813 32.0073L15.9963 31.9999ZM15.9813 30.2699C17.6064 30.2699 19.224 30.2624 20.8491 30.2699C21.1711 30.2699 21.216 30.1651 21.1486 29.8805C20.5345 27.4316 18.2205 25.6343 15.5619 25.874C13.3077 26.0761 11.3906 27.7012 10.8664 29.903C10.799 30.1726 10.8514 30.2699 11.1584 30.2699C12.7685 30.2549 14.3787 30.2699 15.9888 30.2699H15.9813ZM12.9633 20.9912C12.9707 22.5788 14.1091 24.0167 15.9438 24.0766C17.4865 24.129 18.9768 22.9683 19.0367 21.111C19.0892 19.5234 17.8984 18.0481 16.0487 18.0106C14.4461 17.9807 13.0606 19.1639 12.9633 20.9912ZM5.62415 21.2009C4.44091 21.2009 3.48233 22.167 3.48233 23.3352C3.48233 24.5035 4.4484 25.477 5.62415 25.4845C6.79242 25.4995 7.78844 24.5035 7.78095 23.3128C7.78095 22.1445 6.8074 21.1934 5.62415 21.1934V21.2009ZM24.219 23.3277C24.219 24.511 25.2151 25.5145 26.3833 25.492C27.5591 25.4696 28.5177 24.5035 28.5177 23.3352C28.5177 22.167 27.5516 21.2084 26.3684 21.2084C25.1851 21.2084 24.219 22.1595 24.219 23.3352V23.3277Z" fill="#141414"/>
<path d="M22.4217 9.89282C22.4217 7.32413 22.4217 4.75544 22.4217 2.18675C22.4217 1.88221 22.2669 1.72993 21.9574 1.72993C17.9958 1.72993 14.0417 1.72993 10.08 1.72993C9.74553 1.72993 9.57828 1.89469 9.57828 2.2242C9.57828 7.33911 9.57828 12.454 9.57828 17.5689C9.57828 18.1905 9.27124 18.5425 8.73204 18.55C8.20782 18.5575 7.85584 18.2205 7.84835 17.6813C7.84835 16.7901 7.84835 15.9064 7.84835 15.0152C7.84835 13.4351 7.84835 11.8624 7.84835 10.2822C7.84835 10.0351 7.81839 9.95273 7.54131 10.0501C5.69904 10.6941 3.85678 11.3307 2.01451 11.9448C1.74491 12.0346 1.72993 12.1919 1.72993 12.4166C1.72993 14.7157 1.72993 17.0147 1.72993 19.3213C1.72993 19.8755 1.40042 20.22 0.876199 20.22C0.351978 20.22 0.00748888 19.883 0 19.3438C0 18.3253 0 17.3143 0 16.2958C0 14.7157 0 13.143 0 11.5628C0 10.9487 0.172244 10.7091 0.763866 10.5069C1.69998 10.1849 2.63609 9.84788 3.57969 9.54084C3.84929 9.45097 3.93915 9.31617 3.93166 9.03159C3.91669 8.01311 3.93166 7.00211 3.92418 5.98362C3.92418 5.51182 4.12638 5.21226 4.54575 5.04002C5.54926 4.62064 6.5378 4.1788 7.54131 3.76691C7.76597 3.66955 7.85584 3.54224 7.85584 3.29511C7.84086 2.51626 7.85584 1.72993 7.85584 0.951088C7.84835 0.322022 8.16288 0 8.78446 0C13.5923 0 18.4077 0 23.2155 0C23.8296 0 24.1442 0.314533 24.1442 0.928622C24.1442 1.72244 24.1591 2.51626 24.1442 3.31009C24.1442 3.56471 24.2415 3.68453 24.4587 3.78189C25.4397 4.19378 26.4058 4.62813 27.3943 5.02504C27.8811 5.22724 28.0908 5.54177 28.0833 6.07348C28.0608 7.07699 28.0833 8.08051 28.0683 9.08402C28.0683 9.33864 28.1507 9.45846 28.3904 9.54084C29.3414 9.85537 30.2925 10.1924 31.2361 10.5144C31.8203 10.7166 31.9925 10.9562 31.9925 11.5778C31.9925 14.1615 31.9925 16.7377 31.9925 19.3213C31.9925 19.9729 31.4683 20.3698 30.8692 20.205C30.4872 20.1002 30.2626 19.7707 30.2626 19.2914C30.2626 17.0522 30.2476 14.8055 30.2701 12.5663C30.2701 12.1694 30.1502 12.0047 29.7758 11.8774C28.0009 11.2932 26.241 10.6791 24.4812 10.0576C24.1591 9.94524 24.1367 10.0576 24.1367 10.3197C24.1367 12.7611 24.1367 15.2024 24.1367 17.6438C24.1367 18.3178 23.545 18.7297 22.9459 18.4975C22.5865 18.3553 22.4142 18.0632 22.4142 17.6064C22.4142 15.0976 22.4142 12.5813 22.4142 10.0725C22.4142 10.0126 22.4142 9.95273 22.4142 9.9003L22.4217 9.89282ZM7.84835 6.86731C7.84835 6.53031 7.84835 6.19331 7.84835 5.84882C7.84835 5.63164 7.78095 5.57922 7.57875 5.66909C7.00959 5.91622 6.44793 6.16335 5.87128 6.39551C5.70653 6.46291 5.63913 6.56775 5.64662 6.74C5.64662 7.34659 5.64662 7.95319 5.64662 8.55979C5.64662 8.76199 5.71402 8.79944 5.90124 8.73953C6.46291 8.54482 7.02457 8.35011 7.58624 8.16288C7.76597 8.10297 7.85584 8.00562 7.84835 7.81091C7.83337 7.49637 7.84835 7.18184 7.84835 6.86731ZM24.1516 6.82237C24.1516 7.15188 24.1516 7.47391 24.1516 7.80342C24.1516 7.99813 24.2191 8.10297 24.3988 8.17037C24.9605 8.35759 25.5221 8.55231 26.0838 8.74702C26.286 8.82191 26.3534 8.76199 26.3534 8.54482C26.3459 7.95319 26.3534 7.35408 26.3534 6.76246C26.3534 6.59022 26.301 6.47788 26.1362 6.41048C25.5596 6.17084 24.9754 5.92371 24.3988 5.66909C24.2041 5.58671 24.1516 5.65411 24.1516 5.84133C24.1516 6.17084 24.1516 6.49286 24.1516 6.82237Z" fill="#FA541C"/>
<path d="M12.9408 4.50808C12.9408 4.80764 12.9483 5.11468 12.9408 5.41424C12.9183 5.89353 12.5589 6.21555 12.0646 6.20806C11.5928 6.20806 11.2333 5.87855 11.2258 5.41424C11.2109 4.80764 11.2109 4.20104 11.2258 3.60193C11.2333 3.13762 11.5928 2.80811 12.0646 2.80811C12.5589 2.80811 12.9258 3.12264 12.9408 3.60193C12.9558 3.90148 12.9408 4.20853 12.9408 4.50808Z" fill="#FA541C"/>
<path d="M16.865 4.531C16.865 4.82306 16.8725 5.11513 16.865 5.4072C16.85 5.89397 16.4905 6.22349 16.0037 6.22349C15.517 6.22349 15.1575 5.89397 15.1425 5.4072C15.1275 4.81557 15.1275 4.21646 15.1425 3.62484C15.15 3.13807 15.517 2.80855 16.0037 2.81604C16.498 2.81604 16.85 3.14555 16.865 3.63233C16.8725 3.93189 16.865 4.23893 16.865 4.53849V4.531Z" fill="#FA541C"/>
<path d="M20.7892 4.50808C20.7892 4.80764 20.7967 5.11468 20.7892 5.41424C20.7667 5.89353 20.4072 6.21555 19.913 6.20806C19.4412 6.20806 19.0817 5.87855 19.0742 5.41424C19.0592 4.80764 19.0592 4.20104 19.0742 3.60193C19.0817 3.13762 19.4412 2.80811 19.913 2.80811C20.4072 2.80811 20.7742 3.12264 20.7892 3.60193C20.8042 3.90148 20.7892 4.20853 20.7892 4.50808Z" fill="#FA541C"/>
<path d="M11.2108 8.97162C11.2108 8.67955 11.2034 8.38749 11.2108 8.09542C11.2258 7.60864 11.5853 7.28662 12.0796 7.28662C12.5663 7.28662 12.9258 7.61613 12.9333 8.1104C12.9483 8.70202 12.9483 9.30113 12.9333 9.89275C12.9258 10.3795 12.5588 10.7016 12.0646 10.7016C11.5778 10.7016 11.2258 10.3646 11.2108 9.87777C11.2034 9.57822 11.2108 9.27118 11.2108 8.97162Z" fill="#FA541C"/>
<path d="M15.135 8.9866C15.135 8.68704 15.1276 8.38 15.135 8.08044C15.1575 7.61613 15.5095 7.29411 15.9813 7.28662C16.4756 7.28662 16.8425 7.60115 16.8575 8.08793C16.8725 8.69453 16.8725 9.30113 16.8575 9.90024C16.8425 10.3795 16.4756 10.7016 15.9813 10.6941C15.5095 10.6941 15.1575 10.3571 15.1425 9.89275C15.1276 9.5932 15.1425 9.28615 15.1425 8.9866H15.135Z" fill="#FA541C"/>
<path d="M19.0592 8.96426C19.0592 8.67219 19.0517 8.38012 19.0592 8.08806C19.0817 7.60877 19.4411 7.27926 19.9354 7.28675C20.4072 7.28675 20.7667 7.60877 20.7817 8.08057C20.7966 8.68717 20.7966 9.29377 20.7817 9.89288C20.7742 10.3722 20.3997 10.7017 19.9055 10.6942C19.4337 10.6942 19.0742 10.3647 19.0592 9.90037C19.0442 9.58583 19.0592 9.2713 19.0592 8.95677V8.96426Z" fill="#FA541C"/>
<path d="M12.9408 13.4949C12.9408 13.7869 12.9483 14.079 12.9408 14.3711C12.9258 14.8578 12.5663 15.1874 12.0795 15.1874C11.5928 15.1874 11.2333 14.8578 11.2183 14.3711C11.2033 13.7794 11.2033 13.1803 11.2183 12.5887C11.2258 12.1019 11.5928 11.7724 12.0795 11.7799C12.5738 11.7799 12.9258 12.1094 12.9408 12.5962C12.9483 12.8958 12.9408 13.2028 12.9408 13.5024V13.4949Z" fill="#FA541C"/>
<path d="M15.135 13.4724C15.135 13.1804 15.1275 12.8883 15.135 12.5962C15.15 12.1095 15.4945 11.7725 15.9887 11.7725C16.483 11.7725 16.85 12.0945 16.8575 12.5738C16.8724 13.1804 16.8724 13.787 16.8575 14.3861C16.8425 14.8654 16.468 15.1874 15.9738 15.1799C15.502 15.1724 15.1575 14.8429 15.135 14.3786C15.12 14.079 15.135 13.772 15.135 13.4724Z" fill="#FA541C"/>
<path d="M19.0592 13.4501C19.0592 13.1581 19.0517 12.866 19.0592 12.5739C19.0742 12.0872 19.4337 11.7651 19.9279 11.7651C20.4147 11.7651 20.7742 12.0946 20.7817 12.5889C20.7967 13.1805 20.7967 13.7796 20.7817 14.3713C20.7742 14.858 20.4072 15.1801 19.913 15.1801C19.4262 15.1801 19.0742 14.8431 19.0592 14.3563C19.0517 14.0567 19.0592 13.7497 19.0592 13.4501Z" fill="#FA541C"/>
<path d="M3.92417 14.5807C3.92417 14.2886 3.91668 13.9965 3.92417 13.7045C3.93914 13.2177 4.29112 12.8882 4.78539 12.8882C5.27965 12.8882 5.63912 13.2102 5.64661 13.697C5.66159 14.2886 5.66159 14.8877 5.64661 15.4793C5.63912 15.9661 5.27965 16.2956 4.78539 16.2956C4.29861 16.2956 3.93914 15.9661 3.92417 15.4868C3.91668 15.1873 3.92417 14.8802 3.92417 14.5807Z" fill="#FA541C"/>
<path d="M26.3534 14.5658C26.3534 14.2738 26.3459 13.9817 26.3534 13.6896C26.3758 13.2103 26.7353 12.8808 27.2296 12.8883C27.7014 12.8883 28.0683 13.2103 28.0758 13.6821C28.0908 14.2887 28.0908 14.8953 28.0758 15.4944C28.0683 15.9737 27.6939 16.3032 27.2071 16.2958C26.7353 16.2958 26.3758 15.9662 26.3609 15.5019C26.3459 15.1874 26.3609 14.8729 26.3609 14.5583L26.3534 14.5658Z" fill="#FA541C"/>
</g>
<defs>
<clipPath id="clip0_3189_3173">
<rect width="32" height="32" fill="white"/>
</clipPath>
</defs>
</svg>
