<svg width="28" height="32" viewBox="0 0 28 32" fill="none" xmlns="http://www.w3.org/2000/svg">
<g clip-path="url(#clip0_3189_5897)">
<path d="M0.0043919 28.0597C0.0175923 21.8907 3.97552 16.5226 9.8013 14.6921C17.5257 12.2654 25.7716 17.0484 27.5163 24.9752C27.8551 26.5131 27.9827 28.0663 27.7209 29.6328C27.6725 29.9188 27.5955 30.1938 27.4855 30.4622C27.019 31.6128 26.0158 32.165 24.7904 31.9538C23.5187 31.736 22.3703 31.175 21.2043 30.669C19.6796 30.009 18.1462 29.3732 16.5225 28.9837C14.0958 28.4029 11.7484 28.7197 9.43389 29.5426C7.82564 30.1146 6.29439 30.8736 4.70154 31.4852C4.03712 31.7404 3.3617 31.9604 2.64227 31.978C1.57524 32.0022 0.814017 31.5072 0.402604 30.5238C0.297001 30.2708 0.208998 30.0024 0.156197 29.734C0.0417931 29.1553 -0.0132086 28.5701 0.00659197 28.0619L0.0043919 28.0597ZM11.854 15.8559C11.4734 15.9417 11.1367 16.0011 10.8067 16.0935C10.3909 16.2101 9.9751 16.3333 9.57469 16.4895C4.76314 18.3618 1.70285 22.7575 1.61704 27.9167C1.60604 28.5261 1.63464 29.1377 1.81065 29.7296C1.97565 30.2818 2.27046 30.4512 2.84028 30.3588C3.18129 30.3038 3.5157 30.2246 3.83251 30.0948C5.34836 29.4744 6.85761 28.8341 8.38005 28.2247C11.5482 26.9553 14.7691 26.6671 18.067 27.7231C19.7478 28.2621 21.3517 28.9859 22.9709 29.6768C23.6529 29.9672 24.3394 30.2532 25.0808 30.3676C25.5736 30.4446 25.831 30.2928 26.0048 29.822C26.0576 29.6768 26.1016 29.5272 26.128 29.3754C26.2996 28.4161 26.2644 27.4547 26.139 26.4911C25.7056 23.1668 24.17 20.4541 21.5673 18.353C20.0052 17.0902 18.221 16.2849 16.2431 15.9065C16.0473 15.8691 15.9857 15.8779 16.0275 16.0979C16.0781 16.3685 16.0891 16.648 16.1199 16.9252C16.3113 18.7226 16.4983 20.5201 16.6985 22.3153C16.7447 22.7245 16.6215 23.037 16.2673 23.246C15.6381 23.6178 15.0045 23.9852 14.373 24.3548C14.0804 24.5264 13.7856 24.533 13.4908 24.3614C12.8484 23.9874 12.206 23.6156 11.568 23.235C11.2643 23.0546 11.1125 22.7817 11.1455 22.4275C11.1851 21.9853 11.2379 21.5453 11.2863 21.1053C11.4734 19.376 11.6604 17.6468 11.854 15.8559ZM13.9418 15.7217C13.7878 15.7899 13.4952 15.5677 13.4556 15.9615C13.2554 17.946 13.0398 19.9305 12.8242 21.9127C12.8088 22.0513 12.8286 22.1283 12.9562 22.2075C13.5722 22.5977 14.1904 22.5991 14.8109 22.2119C14.8307 22.2009 14.8483 22.1877 14.8681 22.1789C15.0265 22.1107 15.0463 22.0007 15.0265 21.8313C14.8131 19.9261 14.6019 18.0208 14.4126 16.1111C14.3796 15.7855 14.34 15.5831 13.9418 15.7195V15.7217Z" fill="#141414"/>
<path d="M13.9286 -0.000148332C17.8338 0.0394529 20.8369 3.11515 20.7863 7.02027C20.7401 10.723 17.5786 13.7657 13.8252 13.7173C10.0433 13.6689 7.02483 10.5404 7.06883 6.71666C7.11284 3.01615 10.2303 -0.0375495 13.9286 -0.000148332ZM14.1399 12.098C17.0593 11.966 19.2792 9.55695 19.1692 6.67266C19.0526 3.62117 16.5379 1.4695 13.68 1.6125C10.6351 1.76431 8.54508 4.30759 8.68809 7.06647C8.84209 10.0256 11.3172 12.2762 14.1399 12.0958V12.098Z" fill="#FA541C"/>
</g>
<defs>
<clipPath id="clip0_3189_5897">
<rect width="27.8595" height="32" fill="white"/>
</clipPath>
</defs>
</svg>
