<svg width="32" height="32" viewBox="0 0 32 32" fill="none" xmlns="http://www.w3.org/2000/svg">
<g clip-path="url(#clip0_3189_4841)">
<path d="M25.3686 24.5225C25.0308 24.1847 24.9498 23.6685 25.1661 23.2426C25.4043 22.7736 25.6059 22.2869 25.7691 21.7868C25.8238 21.6191 25.9181 21.4671 26.0438 21.3434C26.1696 21.2198 26.3232 21.1281 26.4917 21.0762H21.6171C20.6636 23.2306 18.5075 24.734 16 24.734C13.4925 24.734 11.3363 23.2306 10.3829 21.0762H5.50818C5.67673 21.1281 5.83034 21.2198 5.9561 21.3434C6.08186 21.4671 6.17609 21.6191 6.23087 21.7868C6.39406 22.2869 6.59566 22.7736 6.83387 23.2426C7.05012 23.6685 6.96912 24.1847 6.63137 24.5225L6.0663 25.0875C5.63562 25.5182 5.63562 26.2165 6.0663 26.6472L7.94674 28.5277C8.37743 28.9584 9.07574 28.9584 9.50649 28.5277L10.0716 27.9627C10.4093 27.6249 10.9256 27.5439 11.3514 27.7602C11.8204 27.9984 12.3072 28.2 12.8072 28.3632C13.0283 28.4353 13.2208 28.5754 13.3574 28.7636C13.4939 28.9518 13.5674 29.1783 13.5674 29.4108V30.2098C13.5674 30.8189 14.0612 31.3127 14.6702 31.3127H17.3296C17.9387 31.3127 18.4325 30.8189 18.4325 30.2098V29.4108C18.4325 29.1783 18.506 28.9518 18.6425 28.7636C18.7791 28.5755 18.9716 28.4353 19.1926 28.3632C19.6927 28.2 20.1794 27.9984 20.6484 27.7602C21.0743 27.5439 21.5906 27.6249 21.9283 27.9627L22.4934 28.5277C22.9241 28.9584 23.6224 28.9584 24.0531 28.5277L25.9336 26.6472C26.3642 26.2165 26.3642 25.5182 25.9336 25.0875L25.3686 24.5225Z" stroke="#FA541C" stroke-width="1.375" stroke-miterlimit="10" stroke-linecap="round" stroke-linejoin="round"/>
<path d="M2.74274 21.076H29.2572M18.6562 6.44222V4.65535C18.6562 4.44697 18.7177 4.24323 18.8329 4.06964C18.9482 3.89606 19.1122 3.76036 19.3042 3.67954L24.8649 1.33985C25.5626 1.04622 26.3341 1.5586 26.3341 2.31566V20.6467" stroke="#141414" stroke-width="1.5" stroke-miterlimit="10" stroke-linecap="round" stroke-linejoin="round"/>
<path d="M15.6792 6.44231H20.8051C21.3898 6.44231 21.8638 6.91631 21.8638 7.501V20.6468M15.4316 21.0761H5.66577V1.7505C5.66577 1.16344 6.14171 0.6875 6.72877 0.6875H14.3686C14.9556 0.6875 15.4316 1.16344 15.4316 1.7505V21.0761Z" stroke="#141414" stroke-width="1.5" stroke-miterlimit="10" stroke-linecap="round" stroke-linejoin="round"/>
<path d="M25.3686 24.5225C25.0308 24.1847 24.9498 23.6685 25.1661 23.2426C25.4043 22.7736 25.6059 22.2869 25.7691 21.7868C25.8238 21.6191 25.9181 21.4671 26.0438 21.3434C26.1696 21.2198 26.3232 21.1281 26.4917 21.0762H21.6171C20.6636 23.2306 18.5075 24.734 16 24.734C13.4925 24.734 11.3363 23.2306 10.3829 21.0762H5.50818C5.67673 21.1281 5.83034 21.2198 5.9561 21.3434C6.08186 21.4671 6.17609 21.6191 6.23087 21.7868C6.39406 22.2869 6.59566 22.7736 6.83387 23.2426C7.05012 23.6685 6.96912 24.1847 6.63137 24.5225L6.0663 25.0875C5.63562 25.5182 5.63562 26.2165 6.0663 26.6472L7.94674 28.5277C8.37743 28.9584 9.07574 28.9584 9.50649 28.5277L10.0716 27.9627C10.4093 27.6249 10.9256 27.5439 11.3514 27.7602C11.8204 27.9984 12.3072 28.2 12.8072 28.3632C13.0283 28.4353 13.2208 28.5754 13.3574 28.7636C13.4939 28.9518 13.5674 29.1783 13.5674 29.4108V30.2098C13.5674 30.8189 14.0612 31.3127 14.6702 31.3127H17.3296C17.9387 31.3127 18.4325 30.8189 18.4325 30.2098V29.4108C18.4325 29.1783 18.506 28.9518 18.6425 28.7636C18.7791 28.5755 18.9716 28.4353 19.1926 28.3632C19.6927 28.2 20.1794 27.9984 20.6484 27.7602C21.0743 27.5439 21.5906 27.6249 21.9283 27.9627L22.4934 28.5277C22.9241 28.9584 23.6224 28.9584 24.0531 28.5277L25.9336 26.6472C26.3642 26.2165 26.3642 25.5182 25.9336 25.0875L25.3686 24.5225Z" stroke="#FA541C" stroke-width="1.5" stroke-miterlimit="10" stroke-linecap="round" stroke-linejoin="round"/>
<path d="M2.74274 21.0761H29.2572M8.99442 4.13184V17.4851M12.1029 4.13184V17.4851M15.4316 14.9991H21.8639" stroke="#141414" stroke-width="1.5" stroke-miterlimit="10" stroke-linecap="round" stroke-linejoin="round"/>
</g>
<defs>
<clipPath id="clip0_3189_4841">
<rect width="32" height="32" fill="white"/>
</clipPath>
</defs>
</svg>
