<svg width="36" height="36" viewBox="0 0 36 36" fill="none" xmlns="http://www.w3.org/2000/svg">
<path d="M2 17.5395C2.09664 17.4692 2.07468 17.3506 2.10763 17.2561C2.43709 16.2787 3.32885 15.6198 4.34361 15.611C5.35836 15.6022 6.27867 16.2457 6.59935 17.221C6.67184 17.4406 6.76628 17.5263 6.99032 17.5021C7.14407 17.4867 7.30222 17.4999 7.45816 17.4999C7.85938 17.4999 8.08049 17.3037 8.12149 16.9113C8.33455 14.8664 9.13185 13.0719 10.4673 11.5168C10.6232 11.3367 10.6035 11.251 10.4453 11.0973C9.73807 10.4076 9.03741 9.70913 8.34772 9.00187C8.19617 8.84592 8.10172 8.83494 7.91063 8.94916C6.39948 9.8475 4.44904 9.25886 3.68687 7.6884C2.9291 6.12233 3.66051 4.24437 5.2749 3.60301C5.35177 3.57226 5.42865 3.53932 5.50992 3.51955C5.81522 3.44048 6.05024 3.55469 6.1381 3.82046C6.22376 4.07525 6.09637 4.31905 5.79326 4.42229C5.10358 4.65511 4.63793 5.10538 4.42268 5.79946C4.12177 6.77029 4.5962 7.81579 5.52749 8.2441C6.46317 8.6746 7.58116 8.33635 8.12369 7.46216C8.65962 6.59896 8.47292 5.45242 7.69318 4.81325C7.62949 4.76054 7.5592 4.71441 7.4977 4.65731C7.29123 4.46402 7.26048 4.22461 7.41204 4.01594C7.56799 3.80069 7.83156 3.75237 8.07537 3.9193C8.72112 4.36079 9.13625 4.967 9.30537 5.72917C9.47889 6.5133 9.35809 7.2579 8.93198 7.94319C8.83973 8.09254 8.83533 8.17601 8.96932 8.3056C9.69854 9.01725 10.419 9.73988 11.1372 10.4647C11.258 10.5877 11.3305 10.6272 11.4864 10.4933C12.9668 9.20395 14.6889 8.4308 16.6305 8.14306C16.8567 8.11012 17.0852 8.08156 17.3136 8.07497C17.4827 8.07058 17.5333 7.9981 17.5179 7.84654C17.5135 7.79602 17.5135 7.74111 17.5179 7.6906C17.5794 7.09316 17.5223 6.67584 16.8172 6.36834C15.7497 5.90049 15.372 4.59361 15.7959 3.51296C16.2132 2.45208 17.351 1.8195 18.4338 2.04573C19.6199 2.29393 20.4194 3.30649 20.3667 4.48818C20.3249 5.43924 19.6748 6.30244 18.7391 6.60335C18.5239 6.67364 18.4645 6.76809 18.4777 6.97455C18.4931 7.2535 18.4909 7.53684 18.4777 7.81579C18.4689 7.9981 18.5217 8.06179 18.7171 8.07717C20.2107 8.19138 21.6121 8.60871 22.9167 9.3533C23.4878 9.68057 24.0259 10.054 24.5158 10.4911C24.6431 10.6053 24.7178 10.6141 24.843 10.4867C25.5744 9.74647 26.3081 9.00846 27.0548 8.28364C27.213 8.12988 27.1185 8.03983 27.0483 7.91683C26.475 6.90207 26.4508 5.87194 27.0439 4.86816C27.6369 3.86659 28.555 3.37239 29.7213 3.39215C31.3291 3.41851 32.6404 4.80227 32.6206 6.42325C32.6031 8.02885 31.2676 9.3533 29.6664 9.36868C29.0756 9.37527 28.533 9.2303 28.0388 8.91621C27.8939 8.82396 27.817 8.83934 27.7006 8.95575C26.978 9.68936 26.2465 10.4164 25.5129 11.139C25.3965 11.2554 25.3724 11.3257 25.4932 11.4641C26.9318 13.1158 27.7313 15.0399 27.9137 17.2166C27.9334 17.456 28.0125 17.5109 28.2321 17.4977C28.5221 17.4801 28.8142 17.4889 29.1063 17.4955C29.2337 17.4977 29.3128 17.4692 29.3655 17.3352C29.8487 16.1403 30.6504 15.5648 31.7508 15.6088C32.8051 15.6527 33.5695 16.3051 33.9583 17.4933C33.9649 17.5109 33.9868 17.5219 34 17.5373V18.4114C33.9824 18.4356 33.9517 18.4576 33.9473 18.4839C33.7782 19.3867 32.9413 20.2894 31.7201 20.3377C30.6416 20.3795 29.7784 19.7535 29.3743 18.6443C29.3216 18.5015 29.2513 18.4532 29.1041 18.4576C28.812 18.4664 28.5199 18.4729 28.2299 18.4576C28.0103 18.4444 27.9334 18.5015 27.9137 18.7387C27.7313 20.9154 26.9296 22.8373 25.491 24.489C25.368 24.6318 25.4009 24.6999 25.5151 24.8141C26.2334 25.5235 26.9516 26.233 27.6545 26.9556C27.8104 27.1159 27.9093 27.1159 28.0938 27.0061C28.9108 26.5185 29.7784 26.4504 30.6702 26.7755C30.9601 26.8809 31.0765 27.1379 30.9799 27.3971C30.8898 27.6321 30.6416 27.7397 30.3605 27.6607C30.321 27.6497 30.2792 27.6387 30.2397 27.6277C29.3875 27.3707 28.5023 27.6497 27.9817 28.3394C27.4634 29.0247 27.4216 29.9208 27.8719 30.6478C28.3288 31.3836 29.192 31.7505 30.0552 31.5747C31.1754 31.3463 31.8782 30.1976 31.5993 29.051C31.496 28.6315 31.5927 28.4009 31.9002 28.324C32.2011 28.2493 32.4054 28.414 32.5152 28.8226C33.0094 30.65 31.6234 32.5236 29.7235 32.5653C28.5594 32.5895 27.6413 32.0953 27.0439 31.0959C26.4486 30.0943 26.464 29.0598 27.0439 28.0516C27.1537 27.8605 27.1427 27.7639 26.9868 27.6145C26.2773 26.9249 25.5788 26.2264 24.8891 25.5213C24.7332 25.3632 24.6497 25.3478 24.4696 25.5016C22.9102 26.8304 21.1135 27.6277 19.0664 27.8408C18.4799 27.9023 18.4799 27.9001 18.4799 28.5063C18.4799 28.6622 18.4931 28.8204 18.4777 28.9741C18.4536 29.1982 18.537 29.2904 18.7589 29.3629C19.7451 29.688 20.3864 30.6171 20.3689 31.6472C20.3513 32.6532 19.6704 33.5427 18.6908 33.8546C18.6051 33.881 18.4975 33.859 18.4382 33.9513H17.564C17.3268 33.8524 17.0764 33.78 16.8567 33.6504C15.9957 33.1496 15.563 32.383 15.6465 31.3968C15.7322 30.3974 16.2923 29.7056 17.2411 29.3629C17.4586 29.2838 17.5376 29.196 17.5223 28.9741C17.5047 28.7062 17.5091 28.4338 17.5223 28.1637C17.5311 27.9748 17.4871 27.8979 17.2741 27.8803C15.082 27.7024 13.1448 26.9029 11.4799 25.462C11.3437 25.3434 11.2712 25.361 11.1548 25.4796C10.4541 26.1891 9.74906 26.8985 9.03082 27.5926C8.8551 27.7617 8.84632 27.8671 8.96932 28.078C10.1093 30.0196 8.7365 32.4994 6.49393 32.5697C5.22218 32.6093 4.04709 31.8361 3.58583 30.6544C3.11799 29.453 3.46722 28.1197 4.4732 27.2719C5.42206 26.4702 6.82339 26.3538 7.91063 27.0083C8.09953 27.1225 8.19617 27.1138 8.34772 26.9578C9.03082 26.2571 9.7227 25.5653 10.4234 24.8866C10.5991 24.7174 10.6254 24.6252 10.4497 24.4209C9.12527 22.8724 8.33455 21.0867 8.12149 19.0528C8.08049 18.6618 7.85938 18.4664 7.45816 18.4664C7.30222 18.4664 7.14407 18.4795 6.99032 18.4642C6.77068 18.4422 6.67184 18.5169 6.59716 18.7409C6.26989 19.7271 5.34079 20.3663 4.31066 20.3487C3.30249 20.3311 2.41513 19.6568 2.09664 18.675C2.06809 18.5894 2.09225 18.4817 2 18.4202V17.546L2 17.5395ZM27.0021 17.9765C27.0021 13.0389 22.9519 8.99309 18.0033 8.99089C13.0569 8.99089 9.00226 13.0345 9.00007 17.9722C9.00007 22.9076 13.0525 26.9556 17.9989 26.9578C22.9453 26.9578 27.0021 22.9142 27.0021 17.9765ZM29.6313 8.43299C30.7493 8.42421 31.6762 7.48852 31.6696 6.37493C31.663 5.25474 30.7361 4.33223 29.6159 4.33223C28.4847 4.33223 27.5468 5.2767 27.56 6.40348C27.5732 7.51708 28.5155 8.44178 29.6291 8.43299H29.6313ZM8.43778 29.5672C8.43778 28.4536 7.50429 27.5223 6.3885 27.5179C5.25952 27.5135 4.31505 28.4624 4.33043 29.5848C4.3458 30.7071 5.2771 31.6253 6.39289 31.6165C7.51308 31.6077 8.43997 30.6786 8.43778 29.565V29.5672ZM18.0428 30.1778C17.2499 30.1558 16.5998 30.7686 16.5778 31.5572C16.5558 32.3127 17.1862 32.9739 17.9572 33.0068C18.7237 33.0376 19.398 32.3962 19.4244 31.6143C19.4486 30.8543 18.8204 30.1998 18.045 30.1778H18.0428ZM17.9725 5.7731C18.7633 5.78847 19.4134 5.16029 19.4222 4.37616C19.4332 3.61619 18.7962 2.96165 18.0275 2.94408C17.2565 2.92431 16.5888 3.57226 16.5778 4.352C16.5668 5.11636 17.1972 5.75992 17.9725 5.7753V5.7731ZM5.77349 18.0183C5.79546 17.2254 5.18265 16.5774 4.38973 16.5554C3.63196 16.5335 2.96863 17.1639 2.93788 17.9326C2.90713 18.6992 3.5463 19.3691 4.33262 19.3954C5.09259 19.4218 5.75153 18.7914 5.7713 18.0183H5.77349ZM33.0621 17.9787C33.0621 17.2056 32.3988 16.5467 31.6256 16.5554C30.8503 16.5642 30.2287 17.1946 30.2265 17.9722C30.2265 18.7497 30.8415 19.3801 31.6191 19.3954C32.3878 19.4108 33.0599 18.7519 33.0621 17.9787Z" fill="#141414" stroke="#141414" stroke-width="0.5"/>
<path d="M16.2803 17.516C15.0689 16.1861 15.4195 14.5281 16.2894 13.6935C17.2276 12.7959 18.6759 12.7675 19.6384 13.6209C20.5007 14.3845 21.0123 16.0804 19.7492 17.494C19.9587 17.5192 20.1667 17.5255 20.3656 17.5728C21.3448 17.8063 21.9702 18.6251 21.993 19.7121C22.0051 20.3321 21.9991 20.9521 21.993 21.5705C21.9915 21.8892 21.8837 21.9965 21.5694 21.998C20.6631 22.0012 19.7553 21.9996 18.849 21.998C18.5727 21.998 18.433 21.8781 18.433 21.6573C18.433 21.438 18.5803 21.3181 18.8505 21.3149C19.0084 21.3133 19.1678 21.3039 19.3257 21.3181C19.4851 21.3323 19.5261 21.2644 19.5124 21.113C19.5018 20.9868 19.5048 20.859 19.5124 20.7328C19.5245 20.5403 19.6369 20.4362 19.8175 20.4188C19.9876 20.4015 20.1333 20.5403 20.1561 20.7249C20.1606 20.7691 20.1576 20.8148 20.1591 20.859C20.1611 21.164 20.3129 21.3165 20.6145 21.3165C20.8089 21.3165 21.0032 21.3118 21.1975 21.3165C21.2992 21.3197 21.3372 21.2849 21.3356 21.1761C21.3311 20.6239 21.3493 20.0702 21.325 19.5196C21.2962 18.8381 20.6965 18.2228 20.0377 18.2149C18.6774 18.1992 17.3172 18.1992 15.957 18.2149C15.2935 18.2228 14.6939 18.8602 14.6742 19.548C14.659 20.0844 14.6711 20.6224 14.6666 21.1603C14.6666 21.2723 14.6939 21.3197 14.8108 21.3165C15.1129 21.3086 15.415 21.3118 15.7171 21.3165C15.8082 21.3165 15.8461 21.2865 15.8431 21.1887C15.837 21.0467 15.837 20.9047 15.8431 20.7628C15.8522 20.5577 15.9873 20.4173 16.1665 20.4173C16.3456 20.4173 16.4792 20.5577 16.4883 20.7628C16.4944 20.8969 16.4959 21.0325 16.4883 21.1651C16.4807 21.2849 16.5278 21.3212 16.6386 21.3165C16.8253 21.3102 17.0136 21.3102 17.2003 21.3165C17.431 21.3244 17.5707 21.4601 17.5677 21.6652C17.5646 21.8639 17.4371 21.9949 17.2109 21.9965C16.2606 22.0012 15.3102 22.0012 14.3599 21.9965C14.1276 21.9965 14.0123 21.875 14.0123 21.632C14.0123 20.8858 13.9743 20.138 14.032 19.3934C14.1094 18.3822 14.9884 17.5744 16.0496 17.5176C16.1133 17.5145 16.1771 17.5176 16.2818 17.5176L16.2803 17.516ZM18.0049 17.5113C19.0281 17.5097 19.8616 16.6484 19.8585 15.5914C19.8555 14.5344 19.0236 13.6777 17.9973 13.6809C16.9726 13.6825 16.1407 14.5423 16.1437 15.5993C16.1452 16.6563 16.9802 17.5129 18.0049 17.5113Z" fill="#FA541C" stroke="#FA541C" stroke-width="0.5"/>
</svg>
