<svg width="20" height="20" viewBox="0 0 20 20" fill="none" xmlns="http://www.w3.org/2000/svg">
<g clip-path="url(#clip0_2422_139739)">
<path d="M9.89646 7.362C8.28723 7.362 6.98269 8.66654 6.98269 10.2758C6.98269 10.5983 7.0351 10.9086 7.13187 11.1987M13.4484 5.05156C9.6376 3.76654 5.31017 4.66387 2.2737 7.70034L0.213356 9.76068C-0.0711187 10.0452 -0.0711185 10.5064 0.213356 10.7909L2.2737 12.8512C2.86693 13.4444 3.31854 14.0717 4 14.5M15.5 5.98206C15.6688 6.08051 15.8355 6.18387 16 6.29214C16.6104 6.69397 17.1893 7.16337 17.7263 7.70034L19.7866 9.76068C20.0711 10.0452 20.0711 10.5064 19.7866 10.7909L17.7263 12.8512C14.707 15.8705 10.3604 16.7534 6.5648 15.5C6.37508 15.4373 6.18673 15.3694 6 15.296M12.5 8.96607C12.5853 9.13526 12.6546 9.3139 12.7058 9.5C12.7739 9.747 12.8102 10.0071 12.8102 10.2758C12.8102 11.885 11.5057 13.1895 9.89646 13.1895C9.58368 13.1895 9.28242 13.1403 9 13.049C8.83743 12.9965 8.68111 12.9301 8.53243 12.8512M15.5 3L2 16.5" stroke="#949494" stroke-width="1.5" stroke-linecap="round" stroke-linejoin="round"/>
</g>
<defs>
<clipPath id="clip0_2422_139739">
<rect width="20" height="20" fill="white"/>
</clipPath>
</defs>
</svg>
