<svg width="72" height="72" viewBox="0 0 72 72" fill="none" xmlns="http://www.w3.org/2000/svg">
<path d="M0 8C0 3.58172 3.58172 0 8 0H64C68.4183 0 72 3.58172 72 8V64C72 68.4183 68.4183 72 64 72H8C3.58172 72 0 68.4183 0 64V8Z" fill="#ADADAD"/>
<g clip-path="url(#clip0_2422_137366)">
<path d="M49.8148 29.9347C49.8055 27.1531 49.742 24.3728 49.7062 21.5912C49.6863 20.0726 49.8439 18.3921 49.538 16.9143C48.9287 13.9707 46.4984 11.4525 43.5527 10.7571C42.5038 10.5109 41.3012 10.42 40.2469 10.5833C40.2562 11.878 40.2654 13.1726 40.2747 14.466C38.0152 14.4897 35.7556 14.512 33.4961 14.5358L33.6511 35.3925C34.4285 35.3622 35.0868 35.4123 35.5874 35.4768C36.1053 35.5413 40.7171 36.1959 43.7408 40.097C44.1832 40.6686 44.4852 41.173 44.6666 41.4944C46.305 41.4983 47.942 41.5036 49.5804 41.5076C49.6731 41.4878 49.7645 41.468 49.8572 41.447C49.8453 38.5587 49.8201 31.7522 49.8135 29.9347H49.8148ZM38.8774 32.9691C38.8774 33.0613 38.8019 33.1364 38.7105 33.1364H35.8258C35.7331 33.1364 35.6589 33.0613 35.6589 32.9691V31.7232C35.6589 31.631 35.7318 31.556 35.8258 31.556H38.7105C38.8006 31.556 38.8774 31.631 38.8774 31.7232V32.9691ZM38.8774 28.5096C38.8774 28.6018 38.8019 28.6756 38.7105 28.6756H35.8258C35.7331 28.6756 35.6589 28.6031 35.6589 28.5096V27.2624C35.6589 27.1728 35.7318 27.0964 35.8258 27.0964H38.7105C38.8006 27.0964 38.8774 27.1715 38.8774 27.2624V28.5096ZM38.8774 23.9935C38.8774 24.083 38.8019 24.1594 38.7105 24.1594H35.8258C35.7331 24.1594 35.6589 24.0843 35.6589 23.9935V22.7462C35.6589 22.654 35.7318 22.5803 35.8258 22.5803H38.7105C38.8006 22.5803 38.8774 22.6527 38.8774 22.7462V23.9935ZM38.8774 19.5326C38.8774 19.6248 38.8019 19.6999 38.7105 19.6999H35.8258C35.7331 19.6999 35.6589 19.6248 35.6589 19.5326V18.2867C35.6589 18.1945 35.7318 18.1194 35.8258 18.1194H38.7105C38.8006 18.1194 38.8774 18.1945 38.8774 18.2867V19.5326ZM43.0826 32.9691C43.0826 33.0613 43.0097 33.1364 42.9157 33.1364H40.031C39.9409 33.1364 39.8641 33.0613 39.8641 32.9691V31.7232C39.8641 31.631 39.9396 31.556 40.031 31.556H42.9157C43.0084 31.556 43.0826 31.631 43.0826 31.7232V32.9691ZM43.0826 28.5096C43.0826 28.6018 43.0097 28.6756 42.9157 28.6756H40.031C39.9409 28.6756 39.8641 28.6031 39.8641 28.5096V27.2624C39.8641 27.1728 39.9396 27.0964 40.031 27.0964H42.9157C43.0084 27.0964 43.0826 27.1715 43.0826 27.2624V28.5096ZM43.0826 23.9935C43.0826 24.083 43.0097 24.1594 42.9157 24.1594H40.031C39.9409 24.1594 39.8641 24.0843 39.8641 23.9935V22.7462C39.8641 22.654 39.9396 22.5803 40.031 22.5803H42.9157C43.0084 22.5803 43.0826 22.6527 43.0826 22.7462V23.9935ZM43.0826 19.5326C43.0826 19.6248 43.0097 19.6999 42.9157 19.6999H40.031C39.9409 19.6999 39.8641 19.6248 39.8641 19.5326V18.2867C39.8641 18.1945 39.9396 18.1194 40.031 18.1194H42.9157C43.0084 18.1194 43.0826 18.1945 43.0826 18.2867V19.5326ZM47.3195 32.9691C47.3195 33.0613 47.244 33.1364 47.1513 33.1364H44.2693C44.1766 33.1364 44.1011 33.0613 44.1011 32.9691V31.7232C44.1011 31.631 44.1766 31.556 44.2693 31.556H47.1513C47.244 31.556 47.3195 31.631 47.3195 31.7232V32.9691ZM47.3195 28.5096C47.3195 28.6018 47.244 28.6756 47.1513 28.6756H44.2693C44.1766 28.6756 44.1011 28.6031 44.1011 28.5096V27.2624C44.1011 27.1728 44.1766 27.0964 44.2693 27.0964H47.1513C47.244 27.0964 47.3195 27.1715 47.3195 27.2624V28.5096ZM47.3195 23.9935C47.3195 24.083 47.244 24.1594 47.1513 24.1594H44.2693C44.1766 24.1594 44.1011 24.0843 44.1011 23.9935V22.7462C44.1011 22.654 44.1766 22.5803 44.2693 22.5803H47.1513C47.244 22.5803 47.3195 22.6527 47.3195 22.7462V23.9935ZM47.3195 19.5326C47.3195 19.6248 47.244 19.6999 47.1513 19.6999H44.2693C44.1766 19.6999 44.1011 19.6248 44.1011 19.5326V18.2867C44.1011 18.1945 44.1766 18.1194 44.2693 18.1194H47.1513C47.244 18.1194 47.3195 18.1945 47.3195 18.2867V19.5326Z" fill="white"/>
<path d="M25.8979 35.27C25.9058 31.5256 25.9151 27.7812 25.9231 24.0369C26.4899 24 27.0846 23.9789 27.6528 24.0435C30.1733 24.3319 32.0752 26.3931 32.1931 28.9073L32.2328 35.5953L32.1295 35.7507C29.1349 36.3776 26.6621 38.2781 25.0529 40.82C24.9536 40.9767 24.6503 41.6603 24.4993 41.6603H22.1417L22.1152 29.2932C22.9655 29.2893 23.8158 29.2853 24.6662 29.2814C24.6794 31.278 24.6926 33.2746 24.7059 35.27H25.8979Z" fill="white"/>
<path d="M34.5673 42.3392C36.1991 42.2509 36.4269 44.7915 34.7594 44.9561C32.9952 45.1326 32.827 42.434 34.5673 42.3392Z" fill="white"/>
<path d="M37.998 48.3837V49.1818C37.9026 49.2055 37.8139 49.2292 37.7145 49.2358C35.7729 49.3886 33.61 49.1739 31.6472 49.2872C31.4578 49.2701 31.3346 49.2674 31.3108 49.0554C31.1637 47.8055 31.9584 46.582 33.2564 46.4516C34.0815 46.3699 35.953 46.2922 36.6788 46.6044C37.2881 46.8691 37.998 47.7054 37.998 48.3837Z" fill="white"/>
<path d="M34.2563 39.5617C28.6194 39.8963 25.5917 46.2497 28.9386 50.7974C31.9438 54.8763 38.1648 54.4878 40.7343 50.1771C43.5991 45.3738 39.8641 39.2298 34.2563 39.5617ZM39.1661 50.5762L30.1452 50.6275L29.9664 50.5485C30.0379 49.7346 29.871 48.7666 29.9664 47.9724C30.075 47.0689 30.9266 46.0205 31.6935 45.5675C31.7994 45.5029 32.3213 45.2909 32.3411 45.2606C32.4034 45.1618 32.0497 44.4624 32.0021 44.2478C31.5054 41.9759 33.9106 40.2097 35.9596 41.3424C37.0218 41.9311 37.5449 43.3179 37.1714 44.4704C37.1224 44.6271 36.8628 45.0288 36.8761 45.1407C36.8827 45.2092 37.8562 45.7005 38.0509 45.8598C39.4893 47.0294 39.3211 48.2687 39.3436 49.9321C39.3462 50.1468 39.5144 50.5354 39.1661 50.5762Z" fill="white"/>
<path d="M34.2563 36.8299C29.6723 37.0077 25.7122 40.3807 24.9546 44.8942C23.5388 53.3299 32.5676 59.3501 39.9104 54.8722C40.0879 54.7642 40.7025 54.2795 40.8217 54.2795C40.9992 54.2795 41.9872 55.0934 42.2296 55.2515C42.3024 55.3002 42.4243 55.4122 42.5104 55.3937C42.5885 55.3792 43.517 54.4705 43.5355 54.402C43.5633 54.2966 43.5223 54.2479 43.4812 54.1636C43.3448 53.8804 42.3978 52.8426 42.4124 52.6687C43.2719 51.4215 43.9302 50.1637 44.2414 48.6662C45.5394 42.4221 40.6919 36.581 34.255 36.8299H34.2563ZM42.7263 49.0666C40.721 55.8534 31.4643 57.1546 27.5598 51.2398C24.0964 45.9926 27.5227 38.7133 33.8404 38.2221C39.8906 37.7519 44.4467 43.2505 42.7249 49.0666H42.7263Z" fill="white"/>
<path d="M57.9998 46.6064L45.8744 46.7092C45.8519 45.9795 45.7724 45.1445 45.5896 44.2344C45.4929 43.755 45.379 43.3099 45.2559 42.899C45.2797 42.8976 45.3035 42.8963 45.3274 42.895C49.4955 42.8634 53.6503 42.7594 57.8197 42.7896C57.8727 42.7778 57.9985 42.8265 57.9985 42.87V46.6064H57.9998Z" fill="white"/>
<path d="M14.0647 46.9087C14.017 45.6615 13.9666 44.4011 14.0276 43.1512L14.0898 43.1104L23.9505 43.1367C23.7637 43.57 23.5611 44.1574 23.4472 44.8726C23.3227 45.6562 23.3465 46.3305 23.4021 46.8257C20.2896 46.8534 17.1758 46.8811 14.0633 46.9087H14.0647Z" fill="white"/>
<path d="M45.1883 54.759C45.2758 54.7366 45.3658 54.7326 45.4373 54.7972L49.8558 59.1658C49.8928 59.2922 49.8465 59.42 49.7604 59.5148L47.7419 61.4759C47.5856 61.5338 47.4373 61.4851 47.3234 61.3705L42.9791 57.0822C42.9474 56.9597 43.1712 56.7056 43.256 56.6028C43.6255 56.1616 44.4705 55.3174 44.9142 54.9539C44.9831 54.8972 45.1089 54.7787 45.1883 54.7603V54.759Z" fill="white"/>
</g>
<defs>
<clipPath id="clip0_2422_137366">
<rect width="44" height="51" fill="white" transform="translate(14 10.5)"/>
</clipPath>
</defs>
</svg>
