<svg width="34" height="34" viewBox="0 0 34 34" fill="none" xmlns="http://www.w3.org/2000/svg">
<path d="M0.368164 16.7362C0.368164 7.6446 7.73835 0.274414 16.8299 0.274414C25.9215 0.274414 33.2917 7.6446 33.2917 16.7362C33.2917 25.8278 25.9215 33.198 16.8299 33.198C7.73835 33.198 0.368164 25.8278 0.368164 16.7362Z" fill="#EBEBEB"/>
<g clip-path="url(#clip0_3189_3000)">
<path d="M13.3171 18.4118C14.0998 18.5293 15.0552 18.3493 16.0987 18.2868C16.2935 18.3309 16.4882 18.3603 16.6903 18.3603C16.8961 18.3603 17.0982 18.3309 17.3003 18.2832C20.0158 18.4154 22.1323 19.1834 22.1323 13.657C22.1323 9.90529 19.6961 6.85913 16.6903 6.85913C13.6846 6.85913 11.2484 9.90529 11.2484 13.657C11.2484 16.6737 11.8253 17.8459 12.7623 18.2538C12.935 18.3346 13.1224 18.3824 13.3171 18.4118ZM12.45 11.5368C13.0195 12.3268 14.4967 12.1578 15.7717 11.1583C16.0951 10.9048 16.378 10.6145 16.6058 10.3205C16.6352 10.3242 16.6646 10.3279 16.694 10.3352C16.8189 10.3573 16.9328 10.4014 17.0615 10.4418C17.1754 10.4969 17.3003 10.541 17.4105 10.6108C17.5245 10.6696 17.6273 10.7504 17.7302 10.8202C17.8221 10.9011 17.925 10.9782 18.0021 11.0664C18.0829 11.1473 18.1601 11.2355 18.2189 11.32C18.285 11.4008 18.3328 11.4853 18.3806 11.5588C18.4283 11.6323 18.4687 11.6985 18.4908 11.7572C18.5459 11.8712 18.579 11.9373 18.579 11.9373C18.579 11.9373 18.5679 11.8675 18.5459 11.7389C18.5386 11.6727 18.5202 11.5992 18.4981 11.5111C18.4761 11.4229 18.4503 11.32 18.4063 11.2171C18.3695 11.1105 18.3181 11.0003 18.2593 10.8827C18.2042 10.7651 18.1234 10.6512 18.0461 10.5263C17.9543 10.4124 17.8698 10.2874 17.7595 10.1772C17.6567 10.0596 17.5317 9.96041 17.4105 9.85385C17.2965 9.77301 17.1753 9.68482 17.0467 9.61501C17.1018 9.5011 17.1459 9.38351 17.1826 9.27328C17.6383 9.47905 18.105 9.73994 18.4761 10.1111C19.8393 11.4743 19.3028 13.058 20.3538 12.0108C20.5191 11.8454 20.655 11.6727 20.7616 11.5C20.7984 11.5 20.8351 11.4964 20.8645 11.5037C21.0078 11.5404 21.0997 11.6507 21.1511 11.7389C21.2944 11.9777 21.3276 12.3231 21.2393 12.6685C21.107 13.1829 20.769 13.4879 20.4971 13.521L20.2766 13.5504L20.2179 13.7672C19.6961 15.6596 18.2887 17.6732 16.6977 17.6732C15.1066 17.6732 13.703 15.6596 13.1775 13.7672L13.1187 13.5504L12.8982 13.521C12.63 13.4843 12.2883 13.1793 12.156 12.6685C12.0678 12.3231 12.1009 11.9777 12.2442 11.7389C12.2773 11.6727 12.3507 11.5882 12.45 11.5368ZM20.7801 18.9078C20.3538 19.6353 19.8578 20.249 19.2037 20.587C17.8515 21.2778 16.8447 21.8437 16.8447 21.8437L16.841 21.84V21.829L16.83 21.8363L16.8189 21.829V21.84L16.8153 21.8437C16.8153 21.8437 15.8121 21.2852 14.4562 20.587C13.8022 20.249 13.3098 19.6353 12.8799 18.9078C10.8773 19.7235 9.48096 21.5902 9.48096 23.2253V26.6132H24.179V23.2253C24.179 21.5939 22.779 19.7236 20.7801 18.9078Z" fill="#949494"/>
</g>
<defs>
<clipPath id="clip0_3189_3000">
<rect width="19.7541" height="19.7541" fill="white" transform="translate(6.95288 6.85913)"/>
</clipPath>
</defs>
</svg>
