<svg width="44" height="45" viewBox="0 0 44 45" fill="none" xmlns="http://www.w3.org/2000/svg">
<g filter="url(#filter0_dd_3189_7069)">
<path d="M5.70801 19.3301C5.70801 10.3112 13.0193 3 22.0381 3C31.057 3 38.3682 10.3112 38.3682 19.3301V20.1422C38.3682 29.161 31.057 36.4723 22.0381 36.4723C13.0193 36.4723 5.70801 29.161 5.70801 20.1422V19.3301Z" fill="#FCFCFC"/>
<path d="M25.272 22.5049H24.6094C24.2952 22.4925 24.0525 22.2405 24.0525 21.9263V21.2947L24.8023 20.5481C25.2782 20.0659 25.5955 19.7455 25.6018 18.9615C25.7262 18.9553 25.8506 18.9087 25.9688 18.8247C26.2706 18.61 26.5039 18.1807 26.5879 17.6767C26.6781 17.1728 26.6066 16.6937 26.395 16.392C26.3048 16.2613 26.1897 16.1711 26.0746 16.1275V16.1182C26.4728 15.0231 26.8648 13.449 26.2893 12.5407C26.0466 12.158 25.6671 11.9371 25.16 11.878C24.6902 10.6555 23.6636 9.9244 22.3197 9.86215C20.4688 9.79061 18.6178 10.9945 17.8089 12.8331C17.5009 13.7445 17.473 14.8925 17.7218 16.339C17.4854 16.6252 17.3952 17.1261 17.4854 17.6767C17.6191 18.414 18.0267 18.9304 18.4715 18.9615C18.4777 19.7486 18.7982 20.0721 19.2804 20.5543L20.0239 21.2978V21.9262C20.0239 22.2404 19.7781 22.4924 19.4453 22.5048H18.8013C16.1197 22.5048 13.939 24.6855 13.939 27.3672V28.4467C13.939 29.0906 14.4616 29.6133 15.1056 29.6133H28.9708C29.6148 29.6133 30.1374 29.0906 30.1374 28.4467V27.3672C30.1374 24.6856 27.9536 22.5049 25.272 22.5049ZM19.6102 20.2277C19.1497 19.7642 18.9382 19.5526 18.9382 18.9398V18.6754C18.9382 18.5012 18.7515 18.3861 18.5929 18.4701C18.3035 18.6287 18.0111 17.963 17.9458 17.599C17.8929 17.2879 17.9147 17.0235 17.9769 16.8399C18.0703 16.9084 18.1853 16.9488 18.3067 16.9488H18.3782C18.6769 16.9488 18.9257 16.7124 18.9444 16.42L19.0159 15.7511C19.0346 15.4401 19.2804 15.188 19.5821 15.1601C21.0785 15.0263 22.609 14.8117 23.6543 14.1459C23.7974 14.0557 23.9716 14.0308 24.1427 14.0775C24.2338 14.1036 24.3183 14.1487 24.3906 14.2099C24.463 14.271 24.5216 14.3467 24.5626 14.4321C24.8613 15.0419 24.9266 15.5303 24.8084 16.2738C24.7991 16.3173 24.7991 16.3547 24.7991 16.3795C24.7991 16.6937 25.051 16.9488 25.3652 16.9488C25.5986 16.9488 25.8039 16.8089 25.891 16.5942C25.8941 16.5849 25.8972 16.5755 25.9003 16.5693C25.9408 16.5818 25.9781 16.6098 26.0154 16.6626C26.1523 16.8555 26.1959 17.2226 26.1274 17.599C26.0496 18.0532 25.8475 18.3363 25.6981 18.4421C25.6577 18.4732 25.5955 18.5043 25.5426 18.4949C25.5239 18.4918 25.5084 18.4856 25.4804 18.4701C25.4057 18.4296 25.3186 18.4327 25.2502 18.4763C25.1786 18.5167 25.1351 18.5945 25.1351 18.6754V18.9398C25.1351 19.5464 24.9266 19.758 24.4693 20.2184L23.6574 21.0335C23.6543 21.0335 23.6543 21.0335 23.6543 21.0366L23.2312 21.4565C23.029 21.6587 22.7552 21.7707 22.4659 21.7707H21.6073C21.3242 21.7707 21.0505 21.6587 20.842 21.4565L20.4221 21.0397C20.4221 21.0366 20.4221 21.0366 20.4189 21.0366L19.6102 20.2277ZM22.3509 27.2303C22.3509 27.4014 22.2109 27.5414 22.0398 27.5414C21.9989 27.5415 21.9584 27.5336 21.9206 27.518C21.8828 27.5024 21.8484 27.4795 21.8195 27.4506C21.7906 27.4217 21.7677 27.3873 21.7521 27.3495C21.7365 27.3117 21.7286 27.2712 21.7287 27.2303V26.7668C21.7286 26.7259 21.7365 26.6854 21.7521 26.6476C21.7677 26.6098 21.7906 26.5754 21.8195 26.5465C21.8484 26.5176 21.8828 26.4947 21.9206 26.4791C21.9584 26.4635 21.9989 26.4556 22.0398 26.4557C22.2109 26.4557 22.3509 26.5957 22.3509 26.7668V27.2303ZM22.0366 24.7758C20.9229 24.7758 19.9741 23.995 19.7439 22.9248C20.1763 22.7973 20.4905 22.4022 20.4905 21.9262V21.7645L20.5154 21.7893C20.814 22.0787 21.2029 22.2373 21.6073 22.2373H22.4659C22.8828 22.2373 23.2716 22.0787 23.5609 21.7862L23.5858 21.7614V21.9262C23.5858 22.3991 23.8969 22.7942 24.3324 22.9248C24.1054 23.995 23.1534 24.7758 22.0366 24.7758Z" fill="#FA541C"/>
</g>
<defs>
<filter id="filter0_dd_3189_7069" x="0.220751" y="0.256372" width="43.6347" height="44.4467" filterUnits="userSpaceOnUse" color-interpolation-filters="sRGB">
<feFlood flood-opacity="0" result="BackgroundImageFix"/>
<feColorMatrix in="SourceAlpha" type="matrix" values="0 0 0 0 0 0 0 0 0 0 0 0 0 0 0 0 0 0 127 0" result="hardAlpha"/>
<feOffset dy="2.74363"/>
<feGaussianBlur stdDeviation="2.74363"/>
<feColorMatrix type="matrix" values="0 0 0 0 0 0 0 0 0 0 0 0 0 0 0 0 0 0 0.04 0"/>
<feBlend mode="normal" in2="BackgroundImageFix" result="effect1_dropShadow_3189_7069"/>
<feColorMatrix in="SourceAlpha" type="matrix" values="0 0 0 0 0 0 0 0 0 0 0 0 0 0 0 0 0 0 127 0" result="hardAlpha"/>
<feOffset dy="1.37181"/>
<feGaussianBlur stdDeviation="0.685907"/>
<feColorMatrix type="matrix" values="0 0 0 0 0 0 0 0 0 0 0 0 0 0 0 0 0 0 0.02 0"/>
<feBlend mode="normal" in2="effect1_dropShadow_3189_7069" result="effect2_dropShadow_3189_7069"/>
<feBlend mode="normal" in="SourceGraphic" in2="effect2_dropShadow_3189_7069" result="shape"/>
</filter>
</defs>
</svg>
