<svg width="21" height="20" viewBox="0 0 21 20" fill="none" xmlns="http://www.w3.org/2000/svg">
<g clip-path="url(#clip0_2422_139824)">
<g clip-path="url(#clip1_2422_139824)">
<path d="M19.426 9.7183C19.426 8.96048 19.3658 8.40747 19.2355 7.83398H10.765V11.2544H15.737C15.6368 12.1044 15.0955 13.3846 13.8926 14.2448L13.8757 14.3593L16.5539 16.4789L16.7395 16.4978C18.4436 14.89 19.426 12.5243 19.426 9.7183Z" fill="#4285F4"/>
<path d="M10.765 18.7304C13.2009 18.7304 15.2458 17.9111 16.7395 16.4979L13.8926 14.2448C13.1307 14.7876 12.1082 15.1665 10.765 15.1665C8.37928 15.1665 6.35441 13.5587 5.63259 11.3364L5.52679 11.3456L2.74195 13.5474L2.70554 13.6508C4.18911 16.6616 7.23648 18.7304 10.765 18.7304Z" fill="#34A853"/>
<path d="M5.63258 11.3364C5.44213 10.7629 5.3319 10.1484 5.3319 9.5135C5.3319 8.87853 5.44213 8.2641 5.62256 7.69061L5.61752 7.56847L2.79778 5.3313L2.70553 5.37613C2.09408 6.62554 1.74323 8.02857 1.74323 9.5135C1.74323 10.9984 2.09408 12.4014 2.70553 13.6508L5.63258 11.3364Z" fill="#FBBC05"/>
<path d="M10.765 3.86045C12.4591 3.86045 13.6018 4.60803 14.2534 5.23277L16.7996 2.69301C15.2359 1.20808 13.2009 0.296631 10.765 0.296631C7.23648 0.296631 4.18911 2.36528 2.70554 5.37609L5.62257 7.69057C6.35441 5.4683 8.37928 3.86045 10.765 3.86045Z" fill="#EB4335"/>
</g>
</g>
<defs>
<clipPath id="clip0_2422_139824">
<rect width="19.4595" height="19.4595" fill="white" transform="translate(0.770264 0.270264)"/>
</clipPath>
<clipPath id="clip1_2422_139824">
<rect x="1.74323" y="0.270264" width="17.6827" height="18.4865" rx="8.84136" fill="white"/>
</clipPath>
</defs>
</svg>
