<svg width="17" height="16" viewBox="0 0 17 16" fill="none" xmlns="http://www.w3.org/2000/svg">
<path d="M9.88245 2.59046C10.3792 2.05222 10.6276 1.78309 10.8916 1.62611C11.5285 1.24734 12.3127 1.23556 12.9602 1.59504C13.2286 1.74403 13.4846 2.00558 13.9967 2.52867C14.5087 3.05176 14.7648 3.31331 14.9106 3.58745C15.2625 4.24891 15.251 5.05002 14.8802 5.70063C14.7265 5.97027 14.4631 6.22401 13.9362 6.7315L7.66706 12.7697C6.66856 13.7314 6.16931 14.2123 5.54535 14.456C4.92139 14.6997 4.23545 14.6818 2.86356 14.6459L2.6769 14.641C2.25925 14.6301 2.05043 14.6246 1.92904 14.4869C1.80765 14.3491 1.82422 14.1364 1.85737 13.7109L1.87536 13.4799C1.96865 12.2825 2.0153 11.6838 2.24912 11.1456C2.48294 10.6075 2.88627 10.1705 3.69293 9.2965L9.88245 2.59046Z" stroke="#FA541C" stroke-width="1.5" stroke-linejoin="round"/>
<path d="M9.16663 2.66699L13.8333 7.33366" stroke="#141414" stroke-width="1.5" stroke-linejoin="round"/>
<path d="M9.83331 14.667L15.1666 14.667" stroke="#141414" stroke-width="1.5" stroke-linecap="round" stroke-linejoin="round"/>
</svg>
