<svg width="20" height="20" viewBox="0 0 20 20" fill="none" xmlns="http://www.w3.org/2000/svg">
<path d="M10 16.9219H10.0001C11.8352 16.9198 13.5946 16.1899 14.8922 14.8922C16.1899 13.5946 16.9198 11.8352 16.9219 10.0001V10C16.9219 8.63098 16.5159 7.29271 15.7553 6.15441C14.9947 5.01612 13.9137 4.12892 12.6489 3.60502C11.3841 3.08112 9.99232 2.94404 8.64961 3.21113C7.3069 3.47821 6.07354 4.13745 5.1055 5.1055C4.13746 6.07354 3.47821 7.3069 3.21113 8.64961C2.94405 9.99232 3.08112 11.3841 3.60502 12.6489C4.12893 13.9137 5.01612 14.9947 6.15442 15.7553C7.29271 16.5159 8.63099 16.9219 10 16.9219ZM5.51204 3.28328C6.84047 2.39565 8.40229 1.92188 9.99998 1.92187C12.1417 1.92414 14.1951 2.77596 15.7096 4.29042C17.224 5.80488 18.0759 7.85828 18.0781 10C18.0781 11.5977 17.6043 13.1595 16.7167 14.488C15.8291 15.8164 14.5675 16.8518 13.0914 17.4632C11.6153 18.0746 9.99104 18.2346 8.42404 17.9229C6.85704 17.6112 5.41765 16.8418 4.28791 15.7121C3.15816 14.5824 2.38879 13.143 2.0771 11.576C1.7654 10.009 1.92538 8.38472 2.53679 6.90864C3.1482 5.43255 4.1836 4.17092 5.51204 3.28328ZM9.42188 10.625V6.25C9.42188 6.09667 9.48279 5.94962 9.59121 5.8412C9.69963 5.73278 9.84668 5.67187 10 5.67187C10.1533 5.67187 10.3004 5.73278 10.4088 5.8412C10.5172 5.94962 10.5781 6.09667 10.5781 6.25L10.5781 10.625C10.5781 10.7783 10.5172 10.9254 10.4088 11.0338C10.3004 11.1422 10.1533 11.2031 10 11.2031C9.84668 11.2031 9.69963 11.1422 9.59121 11.0338C9.48279 10.9254 9.42188 10.7783 9.42188 10.625ZM10.8906 13.4375C10.8906 13.6136 10.8384 13.7858 10.7405 13.9323C10.6427 14.0788 10.5036 14.1929 10.3408 14.2603C10.1781 14.3277 9.99901 14.3454 9.82625 14.311C9.65349 14.2766 9.49479 14.1918 9.37024 14.0673C9.24568 13.9427 9.16086 13.784 9.12649 13.6113C9.09213 13.4385 9.10976 13.2594 9.17717 13.0967C9.24458 12.9339 9.35874 12.7948 9.5052 12.697C9.65166 12.5991 9.82385 12.5469 10 12.5469C10.2362 12.5469 10.4627 12.6407 10.6298 12.8077C10.7968 12.9748 10.8906 13.2013 10.8906 13.4375Z" fill="#949494" stroke="#141414" stroke-width="0.09375"/>
</svg>
