<svg width="48" height="48" viewBox="0 0 48 48" fill="none" xmlns="http://www.w3.org/2000/svg">
<path d="M44 21V24C44 33.428 44 38.1422 41.071 41.071C38.1422 44 33.428 44 24 44C14.5719 44 9.85786 44 6.92894 41.071C4 38.1422 4 33.428 4 24C4 14.5719 4 9.85786 6.92894 6.92894C9.85786 4 14.5719 4 24 4H27" stroke="#141414" stroke-width="2.5" stroke-linecap="round"/>
<path d="M33.304 6.91012L34.6018 5.61248C36.7518 3.46251 40.2376 3.46251 42.3876 5.61248C44.5374 7.76248 44.5374 11.2483 42.3876 13.3983L41.0898 14.6959M33.304 6.91012C33.304 6.91012 33.4662 9.66758 35.8994 12.1006C38.3324 14.5337 41.0898 14.6959 41.0898 14.6959M33.304 6.91012L21.3744 18.8399C20.5664 19.6479 20.1624 20.0518 19.8149 20.4974C19.405 21.0228 19.0536 21.5914 18.7669 22.193C18.5238 22.703 18.3431 23.245 17.9818 24.3292L16.8248 27.8M41.0898 14.6959L29.1602 26.6256C28.3522 27.4336 27.9482 27.8376 27.5026 28.1852C26.9772 28.595 26.4086 28.9464 25.807 29.2332C25.297 29.4762 24.755 29.6568 23.6708 30.0182L20.2 31.1752M16.8248 27.8L16.0762 30.0458C15.8984 30.5794 16.0372 31.1674 16.4349 31.5652C16.8325 31.9628 17.4207 32.1016 17.9542 31.9238L20.2 31.1752M16.8248 27.8L20.2 31.1752" stroke="#FA541C" stroke-width="2.5"/>
</svg>
