<svg width="20" height="20" viewBox="0 0 20 20" fill="none" xmlns="http://www.w3.org/2000/svg">
<g clip-path="url(#clip0_4922_4985)">
<path d="M0 6.66797L20 6.66797V13.332L0 13.332L0 6.66797Z" fill="white"/>
<path d="M0 0L20 0V6.66797L0 6.66797L0 0Z" fill="#CE1126"/>
<path d="M0 13.332L20 13.332V20L0 20L0 13.332Z" fill="#000001"/>
<path d="M12.9543 8.77497C12.9163 8.75673 12.8817 8.73203 12.8521 8.70198C12.8302 8.66548 12.8448 8.66548 12.9397 8.68738C13.1076 8.73848 13.2171 8.71658 13.3266 8.62899L13.4214 8.5487L13.5309 8.59979C13.5966 8.63629 13.6623 8.65818 13.6769 8.65089C13.728 8.63629 13.8302 8.5049 13.8229 8.46111C13.8229 8.41001 13.8667 8.42461 13.8959 8.483C13.9397 8.59979 13.874 8.73848 13.7499 8.76767C13.6988 8.78227 13.6477 8.77497 13.5601 8.74578C13.4579 8.70928 13.436 8.70928 13.3849 8.74578C13.3238 8.792 13.2505 8.81938 13.174 8.82456C13.0975 8.82975 13.0211 8.81252 12.9543 8.77497ZM13.3776 8.38811C13.3282 8.29884 13.3031 8.19817 13.3047 8.09614C13.312 8.05235 13.3266 8.03775 13.363 8.05235C13.436 8.07425 13.4506 8.12534 13.436 8.27133C13.436 8.40271 13.4141 8.43921 13.3776 8.38811ZM8.44338 8.24943C8.43608 8.34432 8.61856 8.58519 8.69885 8.62899C8.64045 8.65089 8.57476 8.64359 8.52366 8.66548C8.2317 8.95745 7.18061 9.97934 6.99083 10.2275C7.56017 10.2421 8.1879 10.2202 8.72074 10.1983C8.72074 9.81146 9.0857 9.78956 9.33388 9.65088C9.45796 9.84796 9.77183 9.83336 9.81563 10.1326V11.4173H4.96165C4.94329 11.5147 4.90468 11.6072 4.84832 11.6887C4.79196 11.7702 4.71911 11.839 4.63448 11.8907C4.54985 11.9423 4.45532 11.9755 4.35703 11.9883C4.25873 12.001 4.15884 11.993 4.06384 11.9647C4.20983 11.8187 4.458 11.7604 4.54559 11.5487C4.61858 11.0815 4.39961 10.7969 4.25362 10.5268C4.43724 10.4679 4.60988 10.3791 4.76457 10.264C4.59669 10.775 5.21712 10.7239 5.66967 10.7093C5.68427 10.5341 5.67697 10.3297 5.54558 10.3005C5.71347 10.2348 5.74266 10.2129 6.02733 9.97934V10.6801L9.39227 10.6728C9.39227 10.4538 9.45067 10.0961 9.27549 10.0961C9.1149 10.0961 9.27548 10.5487 9.1441 10.5487H6.53828V10.1107C6.64777 9.99394 6.63317 10.0012 7.38499 9.24942C7.45798 9.17643 7.99082 8.69468 8.45067 8.24943H8.44338ZM14.947 8.22753C15.1295 8.32972 15.2754 8.46111 15.4944 8.5195C15.4725 8.61439 15.3849 8.65089 15.363 8.74578V10.7166C15.6112 10.7677 15.6696 10.6217 15.7864 10.5487C15.8156 10.8625 16.02 11.1691 16.0054 11.4246H14.947V8.22753ZM13.5309 9.28592C13.5309 9.28592 13.9178 8.95745 13.9178 8.94285V10.6582H14.1952L14.1879 8.73848C14.2973 8.62169 14.5236 8.46111 14.5747 8.34432V11.41L12.1368 11.41C12.1003 10.775 12.093 10.118 12.8375 10.2567V10.0012C12.8156 9.95745 12.7718 10.0085 12.7645 9.95015C12.8813 9.83336 12.9178 9.80416 13.239 9.52679L13.2463 10.6582H13.5309V9.28592ZM12.6112 10.6436C12.6623 10.7166 12.8448 10.7166 12.8302 10.5852C12.8083 10.4757 12.5747 10.5122 12.6112 10.6436Z" fill="#007A3D"/>
<path d="M5.54558 11.9287C5.62621 11.9287 5.69157 11.8633 5.69157 11.7827C5.69157 11.7021 5.62621 11.6367 5.54558 11.6367C5.46496 11.6367 5.3996 11.7021 5.3996 11.7827C5.3996 11.8633 5.46496 11.9287 5.54558 11.9287Z" fill="#007A3D"/>
<path d="M10.1441 8.23438C10.3266 8.32926 10.4726 8.46795 10.6988 8.52634C10.6696 8.61393 10.5894 8.65043 10.5675 8.74532V10.7161C10.8156 10.7672 10.8667 10.6285 10.9835 10.5482C11.02 10.8621 11.2171 11.176 11.2098 11.4241H10.1441V8.23438Z" fill="#007A3D"/>
</g>
<defs>
<clipPath id="clip0_4922_4985">
<rect width="20" height="20" rx="10" fill="white"/>
</clipPath>
</defs>
</svg>
