<svg width="20" height="20" viewBox="0 0 20 20" fill="none" xmlns="http://www.w3.org/2000/svg">
<path d="M12.0834 7.50008C12.0834 8.65067 11.1507 9.58341 10.0001 9.58341C8.84949 9.58341 7.91675 8.65067 7.91675 7.50008C7.91675 6.34949 8.84949 5.41675 10.0001 5.41675C11.1507 5.41675 12.0834 6.34949 12.0834 7.50008Z" stroke="#FA541C" stroke-width="1.5"/>
<path d="M11.0479 14.5781C10.7668 14.8488 10.3912 15.0001 10.0002 15.0001C9.60924 15.0001 9.23357 14.8488 8.9525 14.5781C6.37867 12.0841 2.92941 9.29803 4.61151 5.25319C5.521 3.06619 7.7042 1.66675 10.0002 1.66675C12.2962 1.66675 14.4794 3.06619 15.3889 5.25319C17.0689 9.29293 13.6281 12.0927 11.0479 14.5781Z" stroke="#141414" stroke-width="1.5"/>
<path d="M15 16.6667C15 17.5872 12.7614 18.3334 10 18.3334C7.23858 18.3334 5 17.5872 5 16.6667" stroke="#141414" stroke-width="1.5" stroke-linecap="round"/>
</svg>
