<svg width="20" height="20" viewBox="0 0 20 20" fill="none" xmlns="http://www.w3.org/2000/svg">
<path d="M1.66669 5L7.42754 8.26414C9.55135 9.46751 10.4487 9.46751 12.5725 8.26414L18.3334 5" stroke="#FA541C" stroke-width="1.5" stroke-linejoin="round"/>
<path d="M1.67983 11.2298C1.7343 13.7844 1.76154 15.0617 2.70415 16.0079C3.64676 16.9541 4.95863 16.987 7.58238 17.0529C9.19945 17.0936 10.8006 17.0936 12.4177 17.0529C15.0414 16.987 16.3533 16.9541 17.2959 16.0079C18.2385 15.0617 18.2657 13.7844 18.3202 11.2298C18.3377 10.4084 18.3377 9.59181 18.3202 8.77041C18.2657 6.2158 18.2385 4.93849 17.2959 3.9923C16.3533 3.04611 15.0414 3.01315 12.4177 2.94722C10.8006 2.90659 9.19944 2.90659 7.58237 2.94722C4.95863 3.01313 3.64676 3.04609 2.70415 3.99229C1.76154 4.93848 1.7343 6.21579 1.67982 8.7704C1.66231 9.5918 1.66231 10.4084 1.67983 11.2298Z" stroke="#141414" stroke-width="1.5" stroke-linejoin="round"/>
</svg>
