<svg width="34" height="34" viewBox="0 0 34 34" fill="none" xmlns="http://www.w3.org/2000/svg">
<path d="M0.708008 16.3301C0.708008 7.31123 8.01925 0 17.0381 0V0C26.057 0 33.3682 7.31124 33.3682 16.3301V17.1422C33.3682 26.161 26.057 33.4723 17.0381 33.4723V33.4723C8.01925 33.4723 0.708008 26.161 0.708008 17.1422V16.3301Z" fill="#EBEBEB"/>
<path d="M20.272 19.5049H19.6094C19.2952 19.4925 19.0525 19.2405 19.0525 18.9263V18.2947L19.8023 17.5481C20.2782 17.0659 20.5955 16.7455 20.6018 15.9615C20.7262 15.9553 20.8506 15.9087 20.9688 15.8247C21.2706 15.61 21.5039 15.1807 21.5879 14.6767C21.6781 14.1728 21.6066 13.6937 21.395 13.392C21.3048 13.2613 21.1897 13.1711 21.0746 13.1275V13.1182C21.4728 12.0231 21.8648 10.449 21.2893 9.54065C21.0466 9.158 20.6671 8.93713 20.16 8.87805C19.6902 7.65546 18.6636 6.9244 17.3197 6.86215C15.4688 6.79061 13.6178 7.99454 12.8089 9.83306C12.5009 10.7445 12.473 11.8925 12.7218 13.339C12.4854 13.6252 12.3952 14.1261 12.4854 14.6767C12.6191 15.414 13.0267 15.9304 13.4715 15.9615C13.4777 16.7486 13.7982 17.0721 14.2804 17.5543L15.0239 18.2978V18.9262C15.0239 19.2404 14.7781 19.4924 14.4453 19.5048H13.8013C11.1197 19.5048 8.93896 21.6855 8.93896 24.3672V25.4467C8.93896 26.0906 9.46158 26.6133 10.1056 26.6133H23.9708C24.6148 26.6133 25.1374 26.0906 25.1374 25.4467V24.3672C25.1374 21.6856 22.9536 19.5049 20.272 19.5049ZM14.6102 17.2277C14.1497 16.7642 13.9382 16.5526 13.9382 15.9398V15.6754C13.9382 15.5012 13.7515 15.3861 13.5929 15.4701C13.3035 15.6287 13.0111 14.963 12.9458 14.599C12.8929 14.2879 12.9147 14.0235 12.9769 13.8399C13.0703 13.9084 13.1853 13.9488 13.3067 13.9488H13.3782C13.6769 13.9488 13.9257 13.7124 13.9444 13.42L14.0159 12.7511C14.0346 12.4401 14.2804 12.188 14.5821 12.1601C16.0785 12.0263 17.609 11.8117 18.6543 11.1459C18.7974 11.0557 18.9716 11.0308 19.1427 11.0775C19.2338 11.1036 19.3183 11.1487 19.3906 11.2099C19.463 11.271 19.5216 11.3467 19.5626 11.4321C19.8613 12.0419 19.9266 12.5303 19.8084 13.2738C19.7991 13.3173 19.7991 13.3547 19.7991 13.3795C19.7991 13.6937 20.051 13.9488 20.3652 13.9488C20.5986 13.9488 20.8039 13.8089 20.891 13.5942C20.8941 13.5849 20.8972 13.5755 20.9003 13.5693C20.9408 13.5818 20.9781 13.6098 21.0154 13.6626C21.1523 13.8555 21.1959 14.2226 21.1274 14.599C21.0496 15.0532 20.8475 15.3363 20.6981 15.4421C20.6577 15.4732 20.5955 15.5043 20.5426 15.4949C20.5239 15.4918 20.5084 15.4856 20.4804 15.4701C20.4057 15.4296 20.3186 15.4327 20.2502 15.4763C20.1786 15.5167 20.1351 15.5945 20.1351 15.6754V15.9398C20.1351 16.5464 19.9266 16.758 19.4694 17.2184L18.6574 18.0335C18.6543 18.0335 18.6543 18.0335 18.6543 18.0366L18.2312 18.4565C18.029 18.6587 17.7552 18.7707 17.4659 18.7707H16.6073C16.3242 18.7707 16.0505 18.6587 15.842 18.4565L15.4221 18.0397C15.4221 18.0366 15.4221 18.0366 15.4189 18.0366L14.6102 17.2277ZM17.3509 24.2303C17.3509 24.4014 17.2109 24.5414 17.0398 24.5414C16.9989 24.5415 16.9584 24.5336 16.9206 24.518C16.8828 24.5024 16.8484 24.4795 16.8195 24.4506C16.7906 24.4217 16.7677 24.3873 16.7521 24.3495C16.7365 24.3117 16.7286 24.2712 16.7287 24.2303V23.7668C16.7286 23.7259 16.7365 23.6854 16.7521 23.6476C16.7677 23.6098 16.7906 23.5754 16.8195 23.5465C16.8484 23.5176 16.8828 23.4947 16.9206 23.4791C16.9584 23.4635 16.9989 23.4556 17.0398 23.4557C17.2109 23.4557 17.3509 23.5957 17.3509 23.7668V24.2303ZM17.0366 21.7758C15.9229 21.7758 14.9741 20.995 14.7439 19.9248C15.1763 19.7973 15.4905 19.4022 15.4905 18.9262V18.7645L15.5154 18.7893C15.814 19.0787 16.2029 19.2373 16.6073 19.2373H17.4659C17.8828 19.2373 18.2716 19.0787 18.5609 18.7862L18.5858 18.7614V18.9262C18.5858 19.3991 18.8969 19.7942 19.3324 19.9248C19.1054 20.995 18.1534 21.7758 17.0366 21.7758Z" fill="#949494"/>
</svg>
