<svg width="65" height="64" viewBox="0 0 65 64" fill="none" xmlns="http://www.w3.org/2000/svg">
<path d="M59.1666 33.3341C59.1666 32.0238 59.1526 29.3799 59.1246 28.0657C58.9503 19.8909 58.8631 15.8036 55.8468 12.7758C52.8304 9.74793 48.6324 9.64246 40.2365 9.4315C35.0618 9.30148 29.9381 9.30148 24.7635 9.43148C16.3675 9.64242 12.1695 9.74789 9.15319 12.7757C6.13684 15.8035 6.04968 19.8909 5.87535 28.0657C5.8193 30.6942 5.8193 33.3071 5.87536 35.9356C6.04969 44.1104 6.13686 48.1978 9.1532 51.2256C12.1695 54.2534 16.3675 54.3589 24.7635 54.5698C26.9042 54.6236 29.0362 54.6551 31.1666 54.6644" stroke="#141414" stroke-width="4" stroke-linecap="round" stroke-linejoin="round"/>
<path d="M5.83331 16.001L24.268 26.4666C31.0031 30.2902 33.9969 30.2902 40.7319 26.4666L59.1666 16.001" stroke="#141414" stroke-width="4" stroke-linejoin="round"/>
<path d="M59.1666 46.6676L37.8333 46.6676M59.1666 46.6676C59.1666 44.8004 53.8485 41.3117 52.5 40.001M59.1666 46.6676C59.1666 48.5349 53.8485 52.0236 52.5 53.3343" stroke="#FA541C" stroke-width="4" stroke-linecap="round" stroke-linejoin="round"/>
</svg>
