<svg width="343" height="20" viewBox="0 0 343 20" fill="none" xmlns="http://www.w3.org/2000/svg">
<line x1="-4.37114e-08" y1="9.5" x2="150" y2="9.49999" stroke="#ADADAD"/>
<path d="M168.636 15.1299C167.938 15.1299 167.335 14.9772 166.824 14.6719C166.318 14.362 165.926 13.9222 165.648 13.3525C165.375 12.7829 165.238 12.1061 165.238 11.3223V11.3086C165.238 10.5202 165.375 9.84115 165.648 9.27148C165.926 8.70182 166.318 8.26432 166.824 7.95898C167.335 7.65365 167.938 7.50098 168.636 7.50098C169.338 7.50098 169.941 7.65365 170.447 7.95898C170.953 8.26432 171.343 8.70182 171.616 9.27148C171.894 9.84115 172.033 10.5202 172.033 11.3086V11.3223C172.033 12.1061 171.894 12.7829 171.616 13.3525C171.343 13.9222 170.953 14.362 170.447 14.6719C169.941 14.9772 169.338 15.1299 168.636 15.1299ZM168.636 14.0771C169.101 14.0771 169.495 13.9678 169.818 13.749C170.142 13.5303 170.388 13.2158 170.557 12.8057C170.73 12.3955 170.816 11.901 170.816 11.3223V11.3086C170.816 10.7253 170.73 10.2285 170.557 9.81836C170.388 9.4082 170.142 9.09603 169.818 8.88184C169.495 8.66309 169.101 8.55371 168.636 8.55371C168.171 8.55371 167.777 8.66309 167.453 8.88184C167.13 9.09603 166.881 9.4082 166.708 9.81836C166.539 10.2285 166.455 10.7253 166.455 11.3086V11.3223C166.455 11.901 166.539 12.3955 166.708 12.8057C166.881 13.2158 167.13 13.5303 167.453 13.749C167.777 13.9678 168.171 14.0771 168.636 14.0771ZM173.879 15V7.63086H175.068V8.72461H175.178C175.319 8.33724 175.558 8.03646 175.896 7.82227C176.233 7.60807 176.65 7.50098 177.146 7.50098C177.26 7.50098 177.372 7.50781 177.481 7.52148C177.595 7.5306 177.682 7.53971 177.741 7.54883V8.7041C177.618 8.68132 177.497 8.66536 177.379 8.65625C177.265 8.64258 177.142 8.63574 177.01 8.63574C176.632 8.63574 176.297 8.71094 176.005 8.86133C175.713 9.01172 175.483 9.22135 175.314 9.49023C175.15 9.75911 175.068 10.0736 175.068 10.4336V15H173.879Z" fill="#474747"/>
<line x1="193" y1="9.5" x2="343" y2="9.49999" stroke="#ADADAD"/>
</svg>
