<svg width="65" height="64" viewBox="0 0 65 64" fill="none" xmlns="http://www.w3.org/2000/svg">
<path d="M45.8333 16.0007C45.6018 12.2155 44.9663 9.80506 43.2227 8.06765C40.4793 5.33398 36.0639 5.33398 27.2331 5.33398C18.4022 5.33398 13.9868 5.33398 11.2434 8.06765C8.5 10.8013 8.5 15.2011 8.5 24.0007V40.0007C8.5 48.8002 8.5 53.2 11.2434 55.9337C13.9868 58.6673 18.4022 58.6673 27.2331 58.6673C36.0639 58.6673 40.4793 58.6673 43.2227 55.9337C44.9663 54.1962 45.6018 51.7858 45.8333 48.0007" stroke="#141414" stroke-width="4" stroke-linecap="round"/>
<path d="M27.1667 50.667H27.1906" stroke="#141414" stroke-width="5.33333" stroke-linecap="round" stroke-linejoin="round"/>
<path d="M48.2944 38.5911C47.5157 39.3745 47.5195 40.6408 48.3029 41.4195C49.0863 42.1981 50.3527 42.1943 51.1313 41.4109L48.2944 38.5911ZM53.6887 36.001L52.2702 34.5911V34.5911L53.6887 36.001ZM53.6886 28.001L52.2701 29.4109V29.4109L53.6886 28.001ZM51.1312 22.5911C50.3526 21.8076 49.0862 21.8038 48.3028 22.5825C47.5194 23.3612 47.5156 24.6275 48.2943 25.4109L51.1312 22.5911ZM29.8333 30.001C28.7288 30.001 27.8333 30.8965 27.8333 32.001C27.8333 33.1056 28.7288 34.001 29.8333 34.001L29.8333 30.001ZM51.1313 41.4109L55.1072 37.4109L52.2702 34.5911L48.2944 38.5911L51.1313 41.4109ZM55.1071 26.5911L51.1312 22.5911L48.2943 25.4109L52.2701 29.4109L55.1071 26.5911ZM55.1072 37.4109C56.0045 36.5081 56.8222 35.6915 57.3908 34.9418C57.9947 34.1453 58.5 33.1962 58.5 32.001L54.5 32.001C54.5 32.0111 54.5012 32.0303 54.4767 32.0893C54.4458 32.164 54.3735 32.3007 54.2036 32.5247C53.8351 33.0107 53.2471 33.6083 52.2702 34.5911L55.1072 37.4109ZM52.2701 29.4109C53.247 30.3938 53.8351 30.9914 54.2036 31.4773C54.3735 31.7014 54.4457 31.838 54.4767 31.9128C54.5012 31.9717 54.5 31.9909 54.5 32.001L58.5 32.001C58.5 30.8058 57.9947 29.8567 57.3907 29.0603C56.8221 28.3105 56.0045 27.4939 55.1071 26.5911L52.2701 29.4109ZM56.5 30.001L29.8333 30.001L29.8333 34.001L56.5 34.001L56.5 30.001Z" fill="#FA541C"/>
</svg>
