<svg width="20" height="20" viewBox="0 0 20 20" fill="none" xmlns="http://www.w3.org/2000/svg">
<path d="M4.16666 7.50008C4.16666 4.75022 4.16666 3.37529 5.02093 2.52102C5.8752 1.66675 7.25013 1.66675 9.99999 1.66675C12.7498 1.66675 14.1248 1.66675 14.9791 2.52102C15.8333 3.37529 15.8333 4.75022 15.8333 7.50008L15.8333 12.5001C15.8333 15.2499 15.8333 16.6249 14.9791 17.4791C14.1248 18.3334 12.7498 18.3334 9.99999 18.3334C7.25013 18.3334 5.8752 18.3334 5.02093 17.4791C4.16666 16.6249 4.16666 15.2499 4.16666 12.5001V7.50008Z" stroke="#141414" stroke-width="1.5" stroke-linecap="round"/>
<path d="M9.16666 15.8335H10.8333" stroke="#FA541C" stroke-width="1.5" stroke-linecap="round" stroke-linejoin="round"/>
<path d="M7.5 1.66675L7.57417 2.11176C7.7349 3.07616 7.81527 3.55836 8.14599 3.85178C8.49098 4.15787 8.98012 4.16675 10 4.16675C11.0199 4.16675 11.509 4.15787 11.854 3.85178C12.1847 3.55836 12.2651 3.07616 12.4258 2.11176L12.5 1.66675" stroke="#FA541C" stroke-width="1.5" stroke-linejoin="round"/>
</svg>
