<svg width="20" height="20" viewBox="0 0 20 20" fill="none" xmlns="http://www.w3.org/2000/svg">
<path d="M10 13.7502V12.0835" stroke="#FA541C" stroke-width="1.5" stroke-linecap="round"/>
<path d="M3.55649 15.704C3.74389 17.0958 4.89675 18.1863 6.29969 18.2508C7.48021 18.305 8.6794 18.3333 9.99998 18.3333C11.3206 18.3333 12.5198 18.305 13.7003 18.2508C15.1032 18.1863 16.2561 17.0958 16.4435 15.704C16.5658 14.7956 16.6666 13.8647 16.6666 12.9167C16.6666 11.9686 16.5658 11.0378 16.4435 10.1294C16.2561 8.73752 15.1032 7.64707 13.7003 7.58258C12.5198 7.52831 11.3206 7.5 9.99998 7.5C8.6794 7.5 7.48021 7.52831 6.29969 7.58258C4.89675 7.64707 3.74389 8.73752 3.55649 10.1294C3.43418 11.0378 3.33331 11.9686 3.33331 12.9167C3.33331 13.8647 3.43418 14.7956 3.55649 15.704Z" stroke="#141414" stroke-width="1.5"/>
<path d="M6.25 7.50008V5.41675C6.25 3.34568 7.92893 1.66675 10 1.66675C12.0711 1.66675 13.75 3.34568 13.75 5.41675V7.50008" stroke="#FA541C" stroke-width="1.5" stroke-linecap="round" stroke-linejoin="round"/>
</svg>
