<svg width="20" height="20" viewBox="0 0 20 20" fill="none" xmlns="http://www.w3.org/2000/svg">
<path d="M5.48131 12.9014C4.30234 13.6034 1.21114 15.0368 3.09388 16.8306C4.01359 17.7068 5.03791 18.3334 6.32572 18.3334H13.6743C14.9621 18.3334 15.9864 17.7068 16.9061 16.8306C18.7889 15.0368 15.6977 13.6034 14.5187 12.9014C11.754 11.2552 8.24599 11.2552 5.48131 12.9014Z" stroke="#141414" stroke-width="1.5" stroke-linecap="round" stroke-linejoin="round"/>
<path d="M13.75 5.41675C13.75 7.48782 12.0711 9.16675 10 9.16675C7.92893 9.16675 6.25 7.48782 6.25 5.41675C6.25 3.34568 7.92893 1.66675 10 1.66675C12.0711 1.66675 13.75 3.34568 13.75 5.41675Z" stroke="#FA541C" stroke-width="1.5"/>
</svg>
