<svg width="46" height="45" viewBox="0 0 46 45" fill="none" xmlns="http://www.w3.org/2000/svg">
<rect x="0.333008" width="45" height="45" rx="22.5" fill="#FFF3EE"/>
<path d="M22.8324 19.659C23.0024 19.659 23.1401 19.5212 23.1401 19.3513V18.9646C23.8398 18.8183 24.2488 18.2374 24.3401 17.6944C24.4585 16.9904 24.0901 16.3784 23.4017 16.135C23.3157 16.1046 23.2279 16.0728 23.1401 16.0399V14.4704C23.3968 14.5582 23.5876 14.7025 23.5941 14.7075C23.7278 14.8117 23.9207 14.7881 24.0253 14.6546C24.1301 14.5209 24.1067 14.3275 23.973 14.2227C23.9517 14.2061 23.6057 13.9398 23.1401 13.8331V13.5508C23.1401 13.3809 23.0024 13.2432 22.8324 13.2432C22.6625 13.2432 22.5248 13.3809 22.5248 13.5508V13.8102C22.4803 13.8179 22.4355 13.8276 22.3906 13.8402C21.8702 13.9862 21.5157 14.353 21.4177 14.8468C21.3263 15.308 21.4921 15.7962 21.8306 16.0617C22.0042 16.1978 22.2218 16.3221 22.5248 16.4546V18.3802C22.2533 18.3656 22.0776 18.3086 21.7798 18.1138C21.6376 18.0207 21.447 18.0606 21.3539 18.2028C21.2609 18.345 21.3008 18.5356 21.443 18.6286C21.8639 18.904 22.1471 18.979 22.5248 18.9956V19.3513C22.5248 19.5212 22.6625 19.659 22.8324 19.659ZM22.2103 15.5776C22.0522 15.4536 21.9744 15.2023 22.0212 14.9665C22.0505 14.819 22.1556 14.5592 22.5248 14.4428V15.7739C22.4053 15.7116 22.2979 15.6462 22.2103 15.5776ZM23.1967 16.7151C23.7959 16.9269 23.759 17.4401 23.7334 17.5924C23.6841 17.8852 23.4825 18.1962 23.1401 18.3241V16.6948C23.159 16.7016 23.1773 16.7082 23.1967 16.7151Z" fill="black"/>
<path d="M16.3607 28.6579C16.5591 28.3974 16.6772 28.0725 16.6772 27.7205C16.6772 26.8655 15.9816 26.1699 15.1266 26.1699C14.2716 26.1699 13.576 26.8655 13.576 27.7205C13.576 28.0726 13.6941 28.3974 13.8925 28.6579C13.026 28.6969 12.333 29.4136 12.333 30.2893V32.6924C12.333 32.8623 12.4707 33 12.6406 33H14.4088C14.5787 33 14.7164 32.8623 14.7164 32.6924C14.7164 32.5225 14.5787 32.3848 14.4088 32.3848H12.9482V30.2893C12.9482 29.7279 13.4051 29.2713 13.9667 29.2713H16.2865C16.848 29.2713 17.3049 29.7279 17.3049 30.2893V32.3848H15.8444C15.6744 32.3848 15.5367 32.5225 15.5367 32.6924C15.5367 32.8623 15.6744 33 15.8444 33H17.6125C17.7824 33 17.9201 32.8623 17.9201 32.6924V30.2893C17.9202 29.4136 17.2271 28.6969 16.3607 28.6579ZM15.1265 26.7852C15.6423 26.7852 16.0619 27.2047 16.0619 27.7205C16.0619 28.2363 15.6424 28.6559 15.1265 28.6559C14.6108 28.6559 14.1912 28.2363 14.1912 27.7205C14.1912 27.2047 14.6108 26.7852 15.1265 26.7852Z" fill="black"/>
<path d="M24.0668 28.6578C24.2651 28.3972 24.3832 28.0725 24.3832 27.7205C24.3832 26.8655 23.6876 26.1699 22.8326 26.1699C21.9776 26.1699 21.282 26.8655 21.282 27.7205C21.282 28.0725 21.4 28.3972 21.5984 28.6578C20.732 28.6967 20.0391 29.4135 20.0391 30.2893V32.6924C20.0391 32.8623 20.1768 33 20.3467 33H25.3186C25.4885 33 25.6262 32.8623 25.6262 32.6924V30.2894C25.6261 29.4135 24.9332 28.6967 24.0668 28.6578ZM22.8326 26.7852C23.3483 26.7852 23.768 27.2048 23.768 27.7206C23.768 28.2363 23.3484 28.6559 22.8326 28.6559C22.3168 28.6559 21.8972 28.2363 21.8972 27.7206C21.8972 27.2048 22.3169 26.7852 22.8326 26.7852ZM25.0109 32.3848H20.6543V30.2894C20.6543 29.7279 21.1111 29.2712 21.6725 29.2712H23.9927C24.5541 29.2712 25.0109 29.7279 25.0109 30.2894V32.3848Z" fill="black"/>
<path d="M31.7737 28.6579C31.9721 28.3974 32.0903 28.0725 32.0903 27.7205C32.0903 26.8655 31.3947 26.1699 30.5397 26.1699C29.6847 26.1699 28.989 26.8655 28.989 27.7205C28.989 28.0726 29.1072 28.3974 29.3056 28.6579C28.4391 28.6969 27.7461 29.4136 27.7461 30.2893V32.6924C27.7461 32.8623 27.8838 33 28.0537 33H29.8219C29.9918 33 30.1295 32.8623 30.1295 32.6924C30.1295 32.5225 29.9918 32.3848 29.8219 32.3848H28.3613V30.2893C28.3613 29.7279 28.8182 29.2713 29.3797 29.2713H31.6996C32.2611 29.2713 32.718 29.7279 32.718 30.2893V32.3848H31.2574C31.0875 32.3848 30.9498 32.5225 30.9498 32.6924C30.9498 32.8623 31.0875 33 31.2574 33H33.0256C33.1956 33 33.3332 32.8623 33.3332 32.6924V30.2893C33.3332 29.4136 32.6402 28.6969 31.7737 28.6579ZM30.5397 26.7852C31.0554 26.7852 31.4751 27.2047 31.4751 27.7205C31.4751 28.2363 31.0555 28.6559 30.5397 28.6559C30.0239 28.6559 29.6043 28.2363 29.6043 27.7205C29.6043 27.2047 30.0239 26.7852 30.5397 26.7852Z" fill="black"/>
<path d="M14.9087 25.3692C14.9664 25.4269 15.0446 25.4593 15.1262 25.4593C15.2078 25.4593 15.286 25.4269 15.3438 25.3692L16.3381 24.3748C16.4583 24.2547 16.4583 24.0599 16.3381 23.9398C16.218 23.8197 16.0232 23.8197 15.9031 23.9398L15.4339 24.409V22.8076H22.525V24.409L22.0558 23.9398C21.9356 23.8196 21.7409 23.8196 21.6207 23.9398C21.5006 24.0599 21.5006 24.2547 21.6207 24.3748L22.6151 25.3692C22.6752 25.4292 22.754 25.4593 22.8327 25.4593C22.9114 25.4593 22.9901 25.4293 23.0502 25.3692L24.0446 24.3748C24.1647 24.2546 24.1647 24.0599 24.0446 23.9398C23.9244 23.8196 23.7297 23.8196 23.6095 23.9398L23.1403 24.409V22.8076H30.2316V24.409L29.7623 23.9398C29.6422 23.8196 29.4474 23.8196 29.3273 23.9398C29.2072 24.0599 29.2072 24.2547 29.3273 24.3748L30.3217 25.3692C30.3794 25.4269 30.4576 25.4593 30.5392 25.4593C30.6208 25.4593 30.699 25.4269 30.7568 25.3692L31.7511 24.3748C31.8712 24.2546 31.8712 24.0599 31.7511 23.9398C31.631 23.8196 31.4362 23.8196 31.3161 23.9398L30.8469 24.409V22.5C30.8469 22.3301 30.7092 22.1924 30.5393 22.1924H23.1402V20.8908C25.4516 20.7322 27.2836 18.8017 27.2836 16.451C27.2836 15.5599 27.0209 14.6996 26.524 13.9632C26.4289 13.8223 26.2377 13.7852 26.0969 13.8803C25.9561 13.9753 25.9189 14.1665 26.014 14.3074C26.4421 14.9417 26.6685 15.683 26.6685 16.451C26.6685 18.5659 24.9477 20.2864 22.8327 20.2864C20.7176 20.2864 18.9969 18.5659 18.9969 16.451C18.9968 14.336 20.7176 12.6152 22.8326 12.6152C23.6536 12.6152 24.436 12.8707 25.0953 13.3539C25.2322 13.4543 25.4248 13.4247 25.5252 13.2876C25.6257 13.1506 25.596 12.9581 25.459 12.8576C24.6935 12.2966 23.7853 12 22.8326 12C20.3783 12 18.3816 13.9967 18.3816 16.451C18.3816 18.8017 20.2137 20.7322 22.525 20.8908V22.1924H15.1262C14.9562 22.1924 14.8185 22.3301 14.8185 22.5V24.409L14.3494 23.9398C14.2292 23.8196 14.0344 23.8196 13.9144 23.9398C13.7942 24.0599 13.7942 24.2546 13.9143 24.3748L14.9087 25.3692Z" fill="black"/>
</svg>
