<svg width="45" height="45" viewBox="0 0 45 45" fill="none" xmlns="http://www.w3.org/2000/svg">
<g filter="url(#filter0_b_769_12417)">
<rect width="45" height="45" rx="22.5" fill="#FFF3EE"/>
<path d="M26.0631 21.1157C26.319 21.2563 26.5677 21.3458 26.8055 21.3851V21.5666C26.8055 21.7377 26.9446 21.8768 27.1158 21.8768C27.2869 21.8768 27.426 21.7377 27.426 21.5666V21.366C27.7223 21.292 27.9782 21.1245 28.1437 20.8882C28.3407 20.6064 28.3831 20.2621 28.2626 19.9187C28.1096 19.4808 27.7616 19.2952 27.426 19.1747V18.3128C27.4948 18.3407 27.5651 18.3722 27.639 18.4058C27.6773 18.4234 27.7156 18.4405 27.7543 18.4575C27.911 18.5268 28.094 18.456 28.1633 18.2993C28.2326 18.1427 28.1618 17.9596 28.0051 17.8903C27.9684 17.8738 27.9317 17.8572 27.895 17.8407C27.7507 17.775 27.5956 17.7052 27.426 17.6556V17.4312C27.426 17.26 27.2869 17.121 27.1158 17.121C26.9446 17.121 26.8055 17.26 26.8055 17.4312V17.6028C26.395 17.6654 26.0967 17.942 26.0077 18.3557C25.9048 18.8371 26.1334 19.3381 26.5398 19.5216C26.6282 19.5614 26.7176 19.5945 26.8055 19.6245V20.7522C26.6654 20.7171 26.5155 20.6566 26.3614 20.5723C26.2109 20.4901 26.0227 20.5449 25.94 20.6953C25.8578 20.8448 25.9126 21.033 26.0631 21.1157ZM27.6768 20.124C27.7311 20.2786 27.7171 20.4161 27.6354 20.533C27.5853 20.6049 27.5124 20.6638 27.426 20.7078V19.8489C27.5496 19.9151 27.6323 19.9968 27.6768 20.124ZM26.7947 18.956C26.6535 18.8924 26.5724 18.6814 26.6142 18.4855C26.6401 18.3645 26.7047 18.2838 26.805 18.2424V18.9606C26.8019 18.9586 26.7983 18.9575 26.7947 18.956ZM34.7935 24.2485C34.6906 24.1953 34.5665 24.2035 34.4719 24.2702L33.217 25.1539L31.9983 24.2723C31.8933 24.1963 31.7522 24.1937 31.6446 24.2656L30.215 25.2165V14.3108C30.215 14.195 30.1504 14.0884 30.0475 14.0352C29.9446 13.9819 29.8205 13.9907 29.7259 14.0574L28.4565 14.9566L27.1985 14.0584C27.0884 13.9799 26.9395 13.9814 26.8314 14.0631L25.5812 15.0072L24.3371 14.0636C24.2296 13.9819 24.0817 13.9793 23.9716 14.0569L22.6893 14.9566L21.4504 14.0595C21.3418 13.9809 21.1945 13.9809 21.0859 14.06L19.831 14.9731L18.5772 14.06C18.4825 13.9912 18.3579 13.9814 18.254 14.0341C18.1501 14.0869 18.0844 14.1939 18.0844 14.3108V14.7777H16.1331C15.9619 14.7777 15.8228 14.9168 15.8228 15.0879C15.8228 15.259 15.9619 15.3981 16.1331 15.3981H18.0844V17.1323H13.9211C13.75 17.1323 13.6109 17.2714 13.6109 17.4426C13.6109 17.6137 13.75 17.7528 13.9211 17.7528H18.0849V20.4968H14.3508C14.1796 20.4968 14.0405 20.6359 14.0405 20.807C14.0405 20.9782 14.1796 21.1173 14.3508 21.1173H18.0844V23.8835H14.3508C14.1796 23.8835 14.0405 24.0226 14.0405 24.1937C14.0405 24.3649 14.1796 24.504 14.3508 24.504H18.0844V27.248H13.9211C13.75 27.248 13.6109 27.387 13.6109 27.5582C13.6109 27.7293 13.75 27.8684 13.9211 27.8684H18.0849C18.0854 28.5096 18.2799 29.1057 18.6118 29.6026H16.8259C16.6548 29.6026 16.5157 29.7417 16.5157 29.9129C16.5157 30.084 16.6548 30.2231 16.8259 30.2231H19.1568C19.7085 30.7065 20.4298 31.0002 21.2193 31.0002H32.278C33.7573 31.0002 34.961 29.7965 34.961 28.3172V24.5246C34.961 24.4078 34.8964 24.3018 34.7935 24.2485ZM21.2193 30.3787C19.8331 30.3787 18.7054 29.251 18.7054 27.8648V14.9204L19.649 15.6075C19.7576 15.6866 19.9055 15.6872 20.0141 15.6075L21.2695 14.6939L22.5047 15.5884C22.6117 15.666 22.7565 15.667 22.8646 15.591L24.1427 14.6944L25.3935 15.6432C25.5041 15.727 25.6572 15.7275 25.7678 15.6437L27.0232 14.6955L28.275 15.5894C28.3826 15.666 28.5268 15.6665 28.6349 15.59L29.5945 14.91V25.7945V28.3157C29.5945 29.144 29.972 29.8854 30.564 30.3782H21.2193V30.3787ZM34.3406 28.3162C34.3406 29.4537 33.4156 30.3787 32.278 30.3787C31.1405 30.3787 30.2155 29.4537 30.2155 28.3162V25.9615L31.8096 24.9016L33.0335 25.7868C33.141 25.8643 33.2858 25.8654 33.3938 25.7888L34.3411 25.1218V28.3162H34.3406ZM19.8171 17.4312C19.8171 17.26 19.9561 17.121 20.1273 17.121H24.3263C24.4974 17.121 24.6365 17.26 24.6365 17.4312C24.6365 17.6023 24.4974 17.7414 24.3263 17.7414H20.1273C19.9561 17.7414 19.8171 17.6023 19.8171 17.4312ZM19.8171 19.4989C19.8171 19.3277 19.9561 19.1887 20.1273 19.1887H24.3263C24.4974 19.1887 24.6365 19.3277 24.6365 19.4989C24.6365 19.67 24.4974 19.8091 24.3263 19.8091H20.1273C19.9561 19.8091 19.8171 19.6705 19.8171 19.4989ZM19.8171 21.5671C19.8171 21.396 19.9561 21.2569 20.1273 21.2569H24.3263C24.4974 21.2569 24.6365 21.396 24.6365 21.5671C24.6365 21.7382 24.4974 21.8773 24.3263 21.8773H20.1273C19.9561 21.8773 19.8171 21.7382 19.8171 21.5671ZM28.4927 23.6348C28.4927 23.8059 28.3536 23.945 28.1825 23.945H20.1273C19.9561 23.945 19.8171 23.8059 19.8171 23.6348C19.8171 23.4636 19.9561 23.3246 20.1273 23.3246H28.1825C28.3536 23.3246 28.4927 23.4631 28.4927 23.6348ZM28.4927 25.7025C28.4927 25.8736 28.3536 26.0127 28.1825 26.0127H20.1273C19.9561 26.0127 19.8171 25.8736 19.8171 25.7025C19.8171 25.5313 19.9561 25.3923 20.1273 25.3923H28.1825C28.3536 25.3923 28.4927 25.5313 28.4927 25.7025ZM28.4927 27.7707C28.4927 27.9418 28.3536 28.0809 28.1825 28.0809H20.1273C19.9561 28.0809 19.8171 27.9418 19.8171 27.7707C19.8171 27.5996 19.9561 27.4605 20.1273 27.4605H28.1825C28.3536 27.4605 28.4927 27.599 28.4927 27.7707ZM11.6761 15.0879C11.6761 14.9168 11.8151 14.7777 11.9863 14.7777H14.9335C15.1046 14.7777 15.2437 14.9168 15.2437 15.0879C15.2437 15.259 15.1046 15.3981 14.9335 15.3981H11.9863C11.8146 15.3981 11.6761 15.259 11.6761 15.0879ZM11.4672 17.442C11.4672 17.2709 11.6063 17.1318 11.7774 17.1318H12.4863C12.6574 17.1318 12.7965 17.2709 12.7965 17.442C12.7965 17.6132 12.6574 17.7523 12.4863 17.7523H11.7774C11.6063 17.7523 11.4672 17.6137 11.4672 17.442ZM12.8089 22.8225H10.3493C10.1781 22.8225 10.0391 22.6834 10.0391 22.5123C10.0391 22.3411 10.1781 22.202 10.3493 22.202H12.8089C12.9801 22.202 13.1191 22.3411 13.1191 22.5123C13.1191 22.6834 12.9801 22.8225 12.8089 22.8225ZM15.7354 29.9118C15.7354 30.083 15.5963 30.222 15.4252 30.222H11.9863C11.8151 30.222 11.6761 30.083 11.6761 29.9118C11.6761 29.7407 11.8151 29.6016 11.9863 29.6016H15.4252C15.5963 29.6016 15.7354 29.7407 15.7354 29.9118ZM11.7774 27.8679C11.6063 27.8679 11.4672 27.7288 11.4672 27.5577C11.4672 27.3865 11.6063 27.2474 11.7774 27.2474H12.4863C12.6574 27.2474 12.7965 27.3865 12.7965 27.5577C12.7965 27.7288 12.6574 27.8679 12.4863 27.8679H11.7774Z" fill="black"/>
</g>
<defs>
<filter id="filter0_b_769_12417" x="-11" y="-11" width="67" height="67" filterUnits="userSpaceOnUse" color-interpolation-filters="sRGB">
<feFlood flood-opacity="0" result="BackgroundImageFix"/>
<feGaussianBlur in="BackgroundImageFix" stdDeviation="5.5"/>
<feComposite in2="SourceAlpha" operator="in" result="effect1_backgroundBlur_769_12417"/>
<feBlend mode="normal" in="SourceGraphic" in2="effect1_backgroundBlur_769_12417" result="shape"/>
</filter>
</defs>
</svg>
