<svg width="46" height="45" viewBox="0 0 46 45" fill="none" xmlns="http://www.w3.org/2000/svg">
<g filter="url(#filter0_b_769_12422)">
<rect x="0.666016" width="45" height="45" rx="22.5" fill="#FFF3EE"/>
<path fill-rule="evenodd" clip-rule="evenodd" d="M27.9383 27.927C27.9383 28.3015 27.6344 28.6054 27.2599 28.6054H19.0719C18.6975 28.6054 18.3936 28.3015 18.3936 27.927C18.3936 27.927 18.3936 27.6672 18.3936 27.2975C18.3936 25.531 19.8256 24.0996 21.5914 24.0996H24.7404C26.5062 24.0996 27.9383 25.531 27.9383 27.2975V27.927ZM26.5809 27.2486C26.5551 26.2541 25.741 25.4564 24.7404 25.4564C23.7398 25.4564 22.592 25.4564 21.5914 25.4564C20.5908 25.4564 19.7768 26.2541 19.751 27.2486H26.5809Z" fill="black"/>
<path fill-rule="evenodd" clip-rule="evenodd" d="M23.1663 18.4106C21.7492 18.4106 20.5986 19.5612 20.5986 20.9783C20.5986 22.3954 21.7492 23.5459 23.1663 23.5459C24.5834 23.5459 25.7339 22.3954 25.7339 20.9783C25.7339 19.5612 24.5834 18.4106 23.1663 18.4106ZM23.1663 19.7674C23.8345 19.7674 24.3772 20.3101 24.3772 20.9783C24.3772 21.6465 23.8345 22.1892 23.1663 22.1892C22.4981 22.1892 21.9554 21.6465 21.9554 20.9783C21.9554 20.3101 22.4981 19.7674 23.1663 19.7674Z" fill="black"/>
<path fill-rule="evenodd" clip-rule="evenodd" d="M21.1295 17.0535H25.2025C25.577 17.0535 25.8809 16.7496 25.8809 16.3752C25.8809 16.0007 25.577 15.6968 25.2025 15.6968H21.1295C20.7551 15.6968 20.4512 16.0007 20.4512 16.3752C20.4512 16.7496 20.7551 17.0535 21.1295 17.0535Z" fill="black"/>
<path fill-rule="evenodd" clip-rule="evenodd" d="M30.6284 15.7135C30.6284 14.215 29.4134 13 27.9149 13C25.3533 13 20.9791 13 18.4176 13C16.9191 13 15.7041 14.215 15.7041 15.7135V29.2864C15.7041 30.785 16.9191 31.9999 18.4176 31.9999H27.9149C29.4134 31.9999 30.6284 30.785 30.6284 29.2864V15.7135ZM29.2716 15.7135C29.2716 14.9639 28.6645 14.3568 27.9149 14.3568C25.3533 14.3568 20.9791 14.3568 18.4176 14.3568C17.668 14.3568 17.0609 14.9639 17.0609 15.7135V29.2864C17.0609 30.036 17.668 30.6432 18.4176 30.6432H27.9149C28.6645 30.6432 29.2716 30.036 29.2716 29.2864V15.7135Z" fill="black"/>
</g>
<defs>
<filter id="filter0_b_769_12422" x="-10.334" y="-11" width="67" height="67" filterUnits="userSpaceOnUse" color-interpolation-filters="sRGB">
<feFlood flood-opacity="0" result="BackgroundImageFix"/>
<feGaussianBlur in="BackgroundImageFix" stdDeviation="5.5"/>
<feComposite in2="SourceAlpha" operator="in" result="effect1_backgroundBlur_769_12422"/>
<feBlend mode="normal" in="SourceGraphic" in2="effect1_backgroundBlur_769_12422" result="shape"/>
</filter>
</defs>
</svg>
