<svg width="45" height="45" viewBox="0 0 45 45" fill="none" xmlns="http://www.w3.org/2000/svg">
<g filter="url(#filter0_b_769_12431)">
<rect width="45" height="45" rx="22.5" fill="#FFF3EE"/>
<path d="M22.5 22.5C24.9162 22.5 26.875 20.5412 26.875 18.125C26.875 15.7088 24.9162 13.75 22.5 13.75C20.0838 13.75 18.125 15.7088 18.125 18.125C18.125 20.5412 20.0838 22.5 22.5 22.5Z" stroke="#1C1C1C" stroke-width="1.3125" stroke-linecap="round" stroke-linejoin="round"/>
<path d="M14.9844 31.25C14.9844 27.8638 18.3531 25.125 22.5006 25.125C23.3406 25.125 24.1544 25.2387 24.9156 25.4487" stroke="#1C1C1C" stroke-width="1.3125" stroke-linecap="round" stroke-linejoin="round"/>
<path d="M31.25 27.75C31.25 28.03 31.215 28.3012 31.145 28.5637C31.0663 28.9137 30.9263 29.255 30.7425 29.5525C30.1388 30.5675 29.0275 31.25 27.75 31.25C26.8488 31.25 26.035 30.9087 25.4225 30.3487C25.16 30.1212 24.9325 29.85 24.7575 29.5525C24.4337 29.0275 24.25 28.4062 24.25 27.75C24.25 26.805 24.6263 25.9388 25.2388 25.3088C25.8775 24.6525 26.77 24.25 27.75 24.25C28.7825 24.25 29.7188 24.6963 30.3488 25.4138C30.9088 26.035 31.25 26.8575 31.25 27.75Z" stroke="#1C1C1C" stroke-width="1.3125" stroke-miterlimit="10" stroke-linecap="round" stroke-linejoin="round"/>
<path d="M29.0528 27.7324H26.4453" stroke="#1C1C1C" stroke-width="1.3125" stroke-miterlimit="10" stroke-linecap="round" stroke-linejoin="round"/>
<path d="M27.749 26.4551V29.0713" stroke="#1C1C1C" stroke-width="1.3125" stroke-miterlimit="10" stroke-linecap="round" stroke-linejoin="round"/>
</g>
<defs>
<filter id="filter0_b_769_12431" x="-11" y="-11" width="67" height="67" filterUnits="userSpaceOnUse" color-interpolation-filters="sRGB">
<feFlood flood-opacity="0" result="BackgroundImageFix"/>
<feGaussianBlur in="BackgroundImageFix" stdDeviation="5.5"/>
<feComposite in2="SourceAlpha" operator="in" result="effect1_backgroundBlur_769_12431"/>
<feBlend mode="normal" in="SourceGraphic" in2="effect1_backgroundBlur_769_12431" result="shape"/>
</filter>
</defs>
</svg>
