<svg width="50" height="50" viewBox="0 0 50 50" fill="none" xmlns="http://www.w3.org/2000/svg">
<rect width="50" height="50" rx="25" fill="#FFF3EE"/>
<path d="M25.0002 29.5689C25.4317 29.5689 25.7814 29.2192 25.7814 28.7877V23.1324L27.3599 24.751C27.513 24.908 27.7161 24.9868 27.9193 24.9868C28.116 24.9868 28.3128 24.913 28.4647 24.7649C28.7736 24.4636 28.7798 23.969 28.4785 23.6601L25.5594 20.6668C25.4124 20.5161 25.2107 20.431 25.0001 20.431C24.7896 20.431 24.5878 20.5161 24.4408 20.6668L21.5217 23.6601C21.2205 23.969 21.2267 24.4636 21.5356 24.7649C21.8445 25.0661 22.3391 25.0599 22.6403 24.751L24.2189 23.1324V28.7877C24.2189 29.2192 24.5687 29.5689 25.0002 29.5689Z" fill="#FF7F50"/>
<path d="M32.0711 17.9289C30.1823 16.0402 27.6711 15 25 15C22.3289 15 19.8177 16.0402 17.9289 17.9289C16.0402 19.8177 15 22.3289 15 25C15 27.6711 16.0402 30.1823 17.9289 32.0711C19.8177 33.9598 22.3289 35 25 35C26.9763 35 28.8875 34.4242 30.5272 33.3349C30.8866 33.0961 30.9844 32.6112 30.7456 32.2518C30.5068 31.8925 30.022 31.7946 29.6625 32.0334C28.28 32.952 26.6677 33.4375 25 33.4375C20.3475 33.4375 16.5625 29.6525 16.5625 25C16.5625 20.3475 20.3475 16.5625 25 16.5625C29.6525 16.5625 33.4375 20.3475 33.4375 25C33.4375 26.5867 32.9949 28.1324 32.1575 29.4702C31.9286 29.8359 32.0395 30.318 32.4052 30.5469C32.7707 30.7757 33.2529 30.6649 33.4819 30.2992C34.4751 28.7126 35 26.8802 35 25C35 22.3289 33.9598 19.8177 32.0711 17.9289Z" fill="#FF7F50"/>
</svg>
