<svg width="37" height="36" viewBox="0 0 37 36" fill="none" xmlns="http://www.w3.org/2000/svg">
<path d="M21.4688 9.88379H23.8699V22.0634H21.4688V9.88379Z" fill="#FF7F50"/>
<path d="M16.5843 19.2273H12.0257L10.9469 22.0634H8.44141L13.2088 9.88379H14.2876C15.0416 9.88379 15.552 10.2318 15.8188 10.9278L20.1512 22.0634H17.6457L16.5843 19.2273ZM12.6695 17.2089H15.9406L14.3224 12.8243H14.305L12.6695 17.2089Z" fill="#FF7F50"/>
<path fill-rule="evenodd" clip-rule="evenodd" d="M0.789062 7.60638C0.789062 3.74039 3.92307 0.606384 7.78906 0.606384H24.5234C28.3894 0.606384 31.5234 3.74039 31.5234 7.60638V17.3222H29.5234V7.60638C29.5234 4.84496 27.2849 2.60638 24.5234 2.60638H7.78906C5.02764 2.60638 2.78906 4.84496 2.78906 7.60638V24.3408C2.78906 27.1022 5.02764 29.3408 7.78906 29.3408H18.5944V31.3408H7.78906C3.92307 31.3408 0.789062 28.2068 0.789062 24.3408V7.60638Z" fill="#FF7F50"/>
<path d="M29.1582 20.1844L30.784 26.1973L36.7969 27.8231L30.784 29.4489L29.1582 35.4618L27.5324 29.4489L21.5195 27.8231L27.5324 26.1973L29.1582 20.1844Z" fill="#FF7F50"/>
</svg>
