<svg width="21" height="24" viewBox="0 0 21 24" fill="none" xmlns="http://www.w3.org/2000/svg">
<path d="M15.1172 0C15.1731 0 15.229 0 15.288 0C15.425 1.69253 14.779 2.95719 13.9938 3.87301C13.2234 4.78251 12.1685 5.6646 10.4623 5.53076C10.3484 3.86247 10.9955 2.69161 11.7796 1.77789C12.5068 0.92636 13.8399 0.168621 15.1172 0Z" fill="black"/>
<path d="M20.2831 17.6164C20.2831 17.6332 20.2831 17.648 20.2831 17.6638C19.8036 19.1161 19.1196 20.3607 18.285 21.5157C17.523 22.5643 16.5893 23.9755 14.922 23.9755C13.4814 23.9755 12.5245 23.0491 11.048 23.0238C9.48613 22.9985 8.62722 23.7984 7.19921 23.9997C7.03586 23.9997 6.87251 23.9997 6.71232 23.9997C5.66371 23.848 4.81744 23.0175 4.20092 22.2693C2.38298 20.0582 0.978159 17.2022 0.716797 13.5474C0.716797 13.189 0.716797 12.8318 0.716797 12.4735C0.827454 9.85772 2.09843 7.73099 3.7878 6.7003C4.67938 6.15228 5.90505 5.68541 7.26982 5.89408C7.85472 5.98471 8.45227 6.18495 8.97605 6.38308C9.47243 6.57383 10.0932 6.91213 10.6812 6.89421C11.0796 6.88262 11.4759 6.67501 11.8774 6.52852C13.0535 6.1038 14.2065 5.61691 15.7262 5.8456C17.5525 6.12172 18.8488 6.93321 19.6497 8.18521C18.1048 9.16848 16.8833 10.6502 17.092 13.1806C17.2775 15.4791 18.6138 16.8239 20.2831 17.6164Z" fill="black"/>
</svg>
