<svg width="27" height="24" viewBox="0 0 27 24" fill="none" xmlns="http://www.w3.org/2000/svg">
<path d="M16.3265 2.66667L18.7665 5.33333H24.1665V21.3333H2.83317V5.33333H8.23317L10.6732 2.66667H16.3265ZM17.4998 0H9.49984L7.05984 2.66667H2.83317C1.3665 2.66667 0.166504 3.86667 0.166504 5.33333V21.3333C0.166504 22.8 1.3665 24 2.83317 24H24.1665C25.6332 24 26.8332 22.8 26.8332 21.3333V5.33333C26.8332 3.86667 25.6332 2.66667 24.1665 2.66667H19.9398L17.4998 0ZM13.4998 9.33333C15.6998 9.33333 17.4998 11.1333 17.4998 13.3333C17.4998 15.5333 15.6998 17.3333 13.4998 17.3333C11.2998 17.3333 9.49984 15.5333 9.49984 13.3333C9.49984 11.1333 11.2998 9.33333 13.4998 9.33333ZM13.4998 6.66667C9.81984 6.66667 6.83317 9.65333 6.83317 13.3333C6.83317 17.0133 9.81984 20 13.4998 20C17.1798 20 20.1665 17.0133 20.1665 13.3333C20.1665 9.65333 17.1798 6.66667 13.4998 6.66667Z" fill="#FF7F50"/>
</svg>
