<svg width="8" height="13" viewBox="0 0 8 13" fill="none" xmlns="http://www.w3.org/2000/svg">
<path d="M0 6.50001C0 7.2793 0.634173 7.91347 1.41346 7.91347C2.19275 7.91347 2.82692 7.2793 2.82692 6.50001C2.82692 5.72072 2.19275 5.08655 1.41346 5.08655C0.634173 5.08655 0 5.72072 0 6.50001Z" fill="#BFBFBF"/>
<path d="M0 11.2115C0 11.9908 0.634173 12.625 1.41346 12.625C2.19275 12.625 2.82692 11.9908 2.82692 11.2115C2.82692 10.4322 2.19275 9.79807 1.41346 9.79807C0.634173 9.79807 0 10.4322 0 11.2115Z" fill="#BFBFBF"/>
<path d="M0 1.78846C0 2.56775 0.634173 3.20192 1.41346 3.20192C2.19275 3.20192 2.82692 2.56775 2.82692 1.78846C2.82692 1.00917 2.19275 0.375 1.41346 0.375C0.634173 0.375 0 1.00917 0 1.78846Z" fill="#BFBFBF"/>
<path d="M4.82715 6.49998C4.82715 7.27927 5.46132 7.91344 6.24061 7.91344C7.0199 7.91344 7.65407 7.27927 7.65407 6.49998C7.65407 5.72069 7.0199 5.08652 6.24061 5.08652C5.46132 5.08652 4.82715 5.72069 4.82715 6.49998Z" fill="#BFBFBF"/>
<path d="M4.82715 11.2116C4.82715 11.9908 5.46132 12.625 6.24061 12.625C7.0199 12.625 7.65407 11.9908 7.65407 11.2116C7.65407 10.4323 7.0199 9.7981 6.24061 9.7981C5.46132 9.7981 4.82715 10.4323 4.82715 11.2116Z" fill="#BFBFBF"/>
<path d="M4.82715 1.78846C4.82715 2.56775 5.46132 3.20192 6.24061 3.20192C7.0199 3.20192 7.65407 2.56775 7.65407 1.78846C7.65407 1.00917 7.0199 0.375 6.24061 0.375C5.46132 0.375 4.82715 1.00917 4.82715 1.78846Z" fill="#BFBFBF"/>
</svg>
