<svg width="50" height="50" viewBox="0 0 50 50" fill="none" xmlns="http://www.w3.org/2000/svg">
<rect width="50" height="50" rx="25" fill="#FFF3EE"/>
<path fill-rule="evenodd" clip-rule="evenodd" d="M25 21.5625C23.1015 21.5625 21.5625 23.1016 21.5625 25C21.5625 26.8985 23.1015 28.4375 25 28.4375C26.8984 28.4375 28.4375 26.8985 28.4375 25C28.4375 23.1016 26.8984 21.5625 25 21.5625ZM22.9375 25C22.9375 23.861 23.8609 22.9375 25 22.9375C26.139 22.9375 27.0625 23.861 27.0625 25C27.0625 26.1391 26.139 27.0625 25 27.0625C23.8609 27.0625 22.9375 26.1391 22.9375 25Z" fill="#FF7F50"/>
<path fill-rule="evenodd" clip-rule="evenodd" d="M24.9768 15.1459C24.5694 15.1459 24.2293 15.1459 23.95 15.1649C23.6594 15.1847 23.3848 15.2275 23.1186 15.3378C22.5009 15.5936 22.0102 16.0844 21.7543 16.702C21.6211 17.0236 21.5851 17.3625 21.5713 17.7308C21.5602 18.0269 21.4108 18.274 21.1902 18.4013C20.9697 18.5287 20.681 18.5345 20.4191 18.3961C20.0932 18.2238 19.7816 18.0856 19.4366 18.0402C18.7737 17.9529 18.1033 18.1325 17.5729 18.5395C17.3444 18.7149 17.17 18.9313 17.0075 19.1732C16.8514 19.4055 16.6814 19.7 16.4777 20.0529L16.4545 20.0929C16.2508 20.4458 16.0807 20.7403 15.9576 20.9917C15.8294 21.2533 15.7292 21.5125 15.6916 21.7981C15.6043 22.461 15.7839 23.1313 16.1909 23.6618C16.4028 23.9379 16.6782 24.1385 16.9903 24.3346C17.2412 24.4923 17.3805 24.7453 17.3805 25C17.3805 25.2547 17.2412 25.5077 16.9903 25.6654C16.6782 25.8615 16.4027 26.0621 16.1909 26.3383C15.7839 26.8687 15.6042 27.539 15.6915 28.2019C15.7291 28.4875 15.8294 28.7467 15.9575 29.0084C16.0806 29.2597 16.2507 29.5542 16.4544 29.9071L16.4776 29.9472C16.6813 30.3 16.8513 30.5946 17.0074 30.8269C17.17 31.0687 17.3443 31.2851 17.5728 31.4605C18.1033 31.8675 18.7736 32.0471 19.4365 31.9598C19.7815 31.9144 20.093 31.7762 20.4189 31.604C20.6809 31.4655 20.9696 31.4714 21.1902 31.5987C21.4108 31.7261 21.5602 31.9731 21.5713 32.2693C21.5851 32.6376 21.6211 32.9765 21.7543 33.2981C22.0102 33.9157 22.5009 34.4065 23.1186 34.6623C23.3848 34.7726 23.6594 34.8153 23.95 34.8352C24.2293 34.8542 24.5694 34.8542 24.9768 34.8542H25.0231C25.4305 34.8542 25.7706 34.8542 26.0499 34.8352C26.3405 34.8153 26.6151 34.7726 26.8813 34.6623C27.499 34.4065 27.9897 33.9157 28.2456 33.2981C28.3788 32.9765 28.4148 32.6376 28.4286 32.2692C28.4397 31.9731 28.5891 31.726 28.8096 31.5987C29.0302 31.4713 29.3189 31.4654 29.5809 31.6039C29.9068 31.7762 30.2183 31.9143 30.5633 31.9598C31.2262 32.047 31.8966 31.8674 32.427 31.4604C32.6556 31.285 32.8299 31.0686 32.9924 30.8268C33.1485 30.5945 33.3185 30.3 33.5222 29.9472L33.5454 29.907C33.7491 29.5542 33.9192 29.2596 34.0423 29.0083C34.1705 28.7466 34.2707 28.4875 34.3083 28.2018C34.3956 27.539 34.216 26.8686 33.809 26.3382C33.5971 26.0621 33.3217 25.8614 33.0096 25.6653C32.7586 25.5077 32.6194 25.2547 32.6194 25C32.6194 24.7453 32.7587 24.4924 33.0096 24.3348C33.3217 24.1386 33.5972 23.938 33.8091 23.6618C34.216 23.1314 34.3957 22.461 34.3084 21.7982C34.2708 21.5125 34.1705 21.2534 34.0424 20.9917C33.9193 20.7404 33.7492 20.4459 33.5455 20.0931L33.5224 20.053C33.3187 19.7001 33.1486 19.4055 32.9925 19.1732C32.83 18.9314 32.6556 18.715 32.4271 18.5396C31.8967 18.1326 31.2263 17.953 30.5634 18.0403C30.2184 18.0857 29.9069 18.2239 29.581 18.3961C29.319 18.5346 29.0303 18.5287 28.8097 18.4014C28.5891 18.274 28.4397 18.0269 28.4286 17.7308C28.4148 17.3625 28.3788 17.0236 28.2456 16.702C27.9897 16.0844 27.499 15.5936 26.8813 15.3378C26.6151 15.2275 26.3405 15.1847 26.0499 15.1649C25.7706 15.1459 25.4305 15.1459 25.0231 15.1459H24.9768ZM23.6448 16.6081C23.7155 16.5788 23.823 16.5518 24.0436 16.5367C24.2705 16.5212 24.5634 16.5209 25 16.5209C25.4365 16.5209 25.7294 16.5212 25.9563 16.5367C26.1769 16.5518 26.2844 16.5788 26.3551 16.6081C26.6359 16.7244 26.8589 16.9475 26.9752 17.2282C27.0119 17.3168 27.0423 17.4548 27.0546 17.7822C27.0817 18.5085 27.4566 19.2079 28.1222 19.5921C28.7878 19.9764 29.5809 19.9514 30.2235 19.6118C30.5131 19.4587 30.6479 19.416 30.7429 19.4035C31.0442 19.3638 31.3489 19.4455 31.59 19.6305C31.6507 19.6771 31.7279 19.7566 31.8512 19.9402C31.9781 20.1289 32.1249 20.3824 32.3431 20.7605C32.5614 21.1385 32.7075 21.3924 32.8076 21.5966C32.9049 21.7952 32.9352 21.9018 32.9452 21.9777C32.9848 22.279 32.9032 22.5837 32.7182 22.8248C32.6598 22.9008 32.5555 22.9962 32.278 23.1705C31.6626 23.5572 31.2444 24.2315 31.2444 24.9999C31.2444 25.7685 31.6626 26.4429 32.278 26.8296C32.5554 27.0038 32.6597 27.0992 32.7181 27.1753C32.9031 27.4163 32.9847 27.7211 32.9451 28.0224C32.9351 28.0982 32.9048 28.2048 32.8075 28.4034C32.7075 28.6076 32.5613 28.8615 32.343 29.2396C32.1248 29.6176 31.978 29.8711 31.8512 30.0598C31.7278 30.2434 31.6507 30.323 31.5899 30.3696C31.3488 30.5546 31.0441 30.6362 30.7428 30.5965C30.6478 30.584 30.513 30.5413 30.2234 30.3883C29.5808 30.0486 28.7876 30.0236 28.1221 30.408C27.4566 30.7922 27.0817 31.4915 27.0546 32.2178C27.0423 32.5452 27.0119 32.6833 26.9752 32.7719C26.8589 33.0526 26.6359 33.2757 26.3551 33.392C26.2844 33.4213 26.1769 33.4483 25.9563 33.4634C25.7294 33.4788 25.4365 33.4792 25 33.4792C24.5634 33.4792 24.2705 33.4788 24.0436 33.4634C23.823 33.4483 23.7155 33.4213 23.6448 33.392C23.364 33.2757 23.141 33.0526 23.0247 32.7719C22.988 32.6833 22.9576 32.5452 22.9453 32.2179C22.9182 31.4916 22.5433 30.7922 21.8777 30.4079C21.2121 30.0237 20.419 30.0487 19.7764 30.3883C19.4868 30.5414 19.352 30.5841 19.257 30.5966C18.9557 30.6363 18.651 30.5546 18.4099 30.3696C18.3492 30.323 18.272 30.2435 18.1487 30.0599C18.0218 29.8712 17.875 29.6177 17.6568 29.2396C17.4385 28.8616 17.2924 28.6077 17.1923 28.4035C17.095 28.2049 17.0647 28.0983 17.0547 28.0224C17.0151 27.7211 17.0967 27.4164 17.2817 27.1753C17.3401 27.0993 17.4444 27.0039 17.7218 26.8296C18.3372 26.4429 18.7555 25.7686 18.7555 25.0001C18.7555 24.2315 18.3373 23.5571 17.7218 23.1704C17.4445 22.9961 17.3402 22.9008 17.2818 22.8247C17.0968 22.5836 17.0152 22.2789 17.0548 21.9776C17.0648 21.9017 17.0951 21.7951 17.1924 21.5965C17.2925 21.3923 17.4386 21.1384 17.6569 20.7604C17.8751 20.3824 18.0219 20.1288 18.1488 19.9401C18.2721 19.7565 18.3493 19.677 18.41 19.6304C18.6511 19.4454 18.9558 19.3638 19.2571 19.4034C19.3521 19.4159 19.4869 19.4586 19.7765 19.6117C20.4191 19.9514 21.2122 19.9764 21.8777 19.5921C22.5433 19.2079 22.9182 18.5085 22.9453 17.7822C22.9576 17.4549 22.988 17.3168 23.0247 17.2282C23.141 16.9475 23.364 16.7244 23.6448 16.6081Z" fill="#FF7F50"/>
</svg>
