<svg width="290" height="238" viewBox="0 0 290 238" fill="none" xmlns="http://www.w3.org/2000/svg">
<path fill-rule="evenodd" clip-rule="evenodd" d="M106.354 18.9286C99.425 9.6104 95.9607 4.95131 94.5277 3.74781C91.5873 1.27838 91.6659 1.31788 87.9298 0.431823C86.109 0 83.31 0 77.7121 0H30C20.6812 0 16.0218 0 12.3463 1.52241C7.44577 3.55229 3.55229 7.44577 1.52241 12.3463C0 16.0218 0 20.6812 0 30V208C0 217.319 0 221.978 1.52241 225.654C3.55229 230.554 7.44577 234.448 12.3463 236.478C16.0218 238 20.6812 238 30 238H260C269.319 238 273.978 238 277.654 236.478C282.554 234.448 286.448 230.554 288.478 225.654C290 221.978 290 217.319 290 208V30C290 20.6812 290 16.0218 288.478 12.3463C286.448 7.44577 282.554 3.55229 277.654 1.52241C273.978 0 269.319 0 260 0H213.288C207.69 0 204.891 0 203.07 0.431823C199.334 1.31788 199.413 1.27838 196.472 3.74781C195.039 4.9513 191.575 9.6104 184.646 18.9286C176.081 30.4484 161.742 38 145.5 38C129.258 38 114.919 30.4484 106.354 18.9286Z" fill="white"/>
</svg>
