<svg width="24" height="24" viewBox="0 0 24 24" fill="none" xmlns="http://www.w3.org/2000/svg">
<path d="M22 9.99951V14.9995C22 19.9995 20 21.9995 15 21.9995H9C4 21.9995 2 19.9995 2 14.9995V8.99951C2 3.99951 4 1.99951 9 1.99951H14" fill="#FF7F50"/>
<path d="M22 9.99951V14.9995C22 19.9995 20 21.9995 15 21.9995H9C4 21.9995 2 19.9995 2 14.9995V8.99951C2 3.99951 4 1.99951 9 1.99951H14" stroke="#1C1C1C" stroke-width="1.5" stroke-linecap="round" stroke-linejoin="round"/>
<path d="M22 9.99951H18C15 9.99951 14 8.99951 14 5.99951V1.99951L22 9.99951Z" stroke="#1C1C1C" stroke-width="1.5" stroke-linecap="round" stroke-linejoin="round"/>
</svg>
