<svg width="18" height="18" viewBox="0 0 18 18" fill="none" xmlns="http://www.w3.org/2000/svg">
<path d="M8.65625 1.4375H7.21875C3.625 1.4375 2.1875 2.875 2.1875 6.46875V10.7813C2.1875 14.375 3.625 15.8125 7.21875 15.8125H11.5313C15.125 15.8125 16.5625 14.375 16.5625 10.7813V9.34375" stroke="#1C1C1C" stroke-width="1.07813" stroke-linecap="round" stroke-linejoin="round"/>
<path d="M12.2787 2.17053L6.61497 7.83428C6.39935 8.04991 6.18372 8.47397 6.1406 8.78303L5.83154 10.9465C5.71654 11.7299 6.26997 12.2762 7.05341 12.1683L9.21685 11.8593C9.51872 11.8162 9.94279 11.6005 10.1656 11.3849L15.8293 5.72116C16.8068 4.74366 17.2668 3.60803 15.8293 2.17053C14.3918 0.733032 13.2562 1.19303 12.2787 2.17053Z" stroke="#1C1C1C" stroke-width="1.07813" stroke-miterlimit="10" stroke-linecap="round" stroke-linejoin="round"/>
<path d="M11.4668 2.98291C11.9484 4.70072 13.2924 6.04479 15.0174 6.53354" stroke="#12454F" stroke-width="1.07813" stroke-miterlimit="10" stroke-linecap="round" stroke-linejoin="round"/>
</svg>
