<svg width="17" height="17" viewBox="0 0 17 17" fill="none" xmlns="http://www.w3.org/2000/svg">
<path d="M12.4829 1.78125C13.3579 0.90625 14.7642 0.90625 15.6392 1.78125L16.0454 2.1875C16.9204 3.0625 16.9204 4.46875 16.0454 5.34375L9.85791 11.5312C9.60791 11.7812 9.26416 12 8.88916 12.0938L5.76416 13C5.51416 13.0625 5.23291 13 5.04541 12.7812C4.82666 12.5938 4.76416 12.3125 4.82666 12.0625L5.73291 8.9375C5.82666 8.5625 6.04541 8.21875 6.29541 7.96875L12.4829 1.78125ZM14.5767 2.84375C14.2954 2.5625 13.8267 2.5625 13.5454 2.84375L12.6079 3.75L14.0767 5.21875L14.9829 4.28125C15.2642 4 15.2642 3.53125 14.9829 3.25L14.5767 2.84375ZM7.17041 9.34375L6.63916 11.1875L8.48291 10.6562C8.60791 10.625 8.70166 10.5625 8.79541 10.4688L13.0142 6.25L11.5767 4.8125L7.35791 9.03125C7.26416 9.125 7.20166 9.21875 7.17041 9.34375ZM7.07666 3C7.48291 3 7.82666 3.34375 7.82666 3.75C7.82666 4.1875 7.48291 4.5 7.07666 4.5H3.57666C2.85791 4.5 2.32666 5.0625 2.32666 5.75V14.25C2.32666 14.9688 2.85791 15.5 3.57666 15.5H12.0767C12.7642 15.5 13.3267 14.9688 13.3267 14.25V10.75C13.3267 10.3438 13.6392 10 14.0767 10C14.4829 10 14.8267 10.3438 14.8267 10.75V14.25C14.8267 15.7812 13.5767 17 12.0767 17H3.57666C2.04541 17 0.82666 15.7812 0.82666 14.25V5.75C0.82666 4.25 2.04541 3 3.57666 3H7.07666Z" fill="#FF7F50"/>
</svg>
