<svg width="18" height="18" viewBox="0 0 18 18" fill="none" xmlns="http://www.w3.org/2000/svg">
<path d="M9.86865 2.52277L11.1336 5.05277C11.3061 5.40496 11.7661 5.74277 12.1543 5.80746L14.4471 6.1884C15.9133 6.43277 16.2583 7.49652 15.2018 8.5459L13.4193 10.3284C13.1174 10.6303 12.9521 11.2125 13.0455 11.6293L13.5558 13.8359C13.9583 15.5825 13.0311 16.2581 11.4858 15.3453L9.33677 14.0731C8.94865 13.8431 8.30896 13.8431 7.91365 14.0731L5.76459 15.3453C4.22646 16.2581 3.29208 15.5753 3.69458 13.8359L4.2049 11.6293C4.29833 11.2125 4.13302 10.6303 3.83115 10.3284L2.04865 8.5459C0.999272 7.49652 1.33708 6.43277 2.80333 6.1884L5.09615 5.80746C5.47708 5.74277 5.93708 5.40496 6.10958 5.05277L7.37459 2.52277C8.06459 1.14996 9.18583 1.14996 9.86865 2.52277Z" fill="#FF7F50" stroke="#FF7F50" stroke-width="1.07813" stroke-linecap="round" stroke-linejoin="round"/>
</svg>
