<svg width="50" height="50" viewBox="0 0 50 50" fill="none" xmlns="http://www.w3.org/2000/svg">
<rect width="50" height="50" rx="25" fill="#FFF3EE"/>
<path d="M32.8167 18.9266C34.1796 20.6778 34.9 22.7786 34.9 25.0028C34.9 26.2399 34.6745 27.4468 34.23 28.5897C34.1684 28.748 34.0174 28.845 33.857 28.845C33.8091 28.845 33.7602 28.8362 33.7123 28.8176C33.5063 28.7374 33.4044 28.5057 33.4844 28.2998C33.8929 27.2493 34.1 26.14 34.1 25.0028C34.1 22.9588 33.4378 21.0272 32.1853 19.418C32.0496 19.2435 32.081 18.9924 32.2554 18.8567L32.2554 18.8567C32.4298 18.7209 32.681 18.7523 32.8167 18.9266ZM32.8167 18.9266L32.8956 18.8652M32.8167 18.9266L32.8956 18.8652M32.8956 18.8652C34.2722 20.634 35 22.7564 35 25.0028C35 26.2522 34.7722 27.4714 34.3232 28.626C34.2462 28.824 34.0572 28.945 33.857 28.945C33.7968 28.945 33.7356 28.934 33.676 28.9108C33.4186 28.8106 33.2912 28.521 33.3912 28.2636C33.7952 27.2248 34 26.1278 34 25.0028C34 22.981 33.3452 21.071 32.1064 19.4794C31.9368 19.2614 31.976 18.9474 32.194 18.7778C32.412 18.608 32.726 18.6474 32.8956 18.8652Z" fill="#FF7F50" stroke="#FF7F50" stroke-width="0.2"/>
<path d="M30.0465 17.4291L30.0464 17.429C28.5509 16.4306 26.8055 15.9028 24.9999 15.9028C23.2057 15.9028 21.4699 16.4243 19.9808 17.4108C19.7965 17.5329 19.5483 17.4824 19.4264 17.2984C19.3043 17.114 19.3548 16.8659 19.5389 16.744L19.5389 16.744C21.1594 15.6703 23.0478 15.1028 24.9999 15.1028C26.9646 15.1028 28.863 15.6772 30.4905 16.7638L30.4906 16.7638C30.6742 16.8863 30.7238 17.1348 30.6011 17.3185L30.6011 17.3185C30.5242 17.4337 30.3975 17.4964 30.2681 17.4964C30.1915 17.4964 30.1146 17.4747 30.0465 17.4291Z" fill="#FF7F50" stroke="#FF7F50" stroke-width="0.2"/>
<path d="M18.7316 18.5446C18.9298 18.3522 18.9344 18.0356 18.7422 17.8376C18.5498 17.6392 18.2332 17.6348 18.0352 17.827C16.0778 19.7272 15 22.2756 15 25.0028C15 25.279 15.2238 25.5028 15.5 25.5028C15.7762 25.5028 16 25.279 16 25.0028C16 22.5484 16.9702 20.2548 18.7316 18.5446Z" fill="#FF7F50"/>
<path d="M32.259 28.2858C31.9894 28.2334 31.7256 28.4098 31.6724 28.681C31.3548 30.3094 30.8312 31.57 30.116 32.428C29.939 32.6402 29.9678 32.9554 30.1798 33.1322C30.2732 33.2102 30.3868 33.2482 30.4998 33.2482C30.643 33.2482 30.7852 33.187 30.884 33.0684C31.7082 32.0798 32.3038 30.668 32.6542 28.8726C32.7068 28.6012 32.53 28.3388 32.259 28.2858Z" fill="#FF7F50"/>
<path d="M28.3409 17.7318C28.0895 17.6164 27.7931 17.7262 27.6777 17.977C27.5623 18.2278 27.6721 18.5248 27.9231 18.6402C30.3999 19.7798 32.0003 22.2774 32.0003 25.014C32.0003 25.214 32.0003 25.6304 31.9713 26.1816C31.9567 26.4574 32.1683 26.6928 32.4441 26.7072C32.4531 26.7078 32.4621 26.708 32.4709 26.708C32.7349 26.708 32.9559 26.5012 32.9697 26.2344C33.0003 25.6568 33.0003 25.2226 33.0003 25.0028C33.0003 21.8882 31.1713 19.0342 28.3409 17.7318Z" fill="#FF7F50"/>
<path d="M18.0004 25.0028C18.0004 21.143 21.1406 18.0028 25.0004 18.0028C25.2766 18.0028 25.5004 17.779 25.5004 17.5028C25.5004 17.2266 25.2766 17.0028 25.0004 17.0028C20.5892 17.0028 17.0004 20.5916 17.0004 25.0028C17.0004 26.0524 16.9008 27.3228 16.1254 27.8336C15.8948 27.9856 15.831 28.2958 15.983 28.5262C16.0792 28.672 16.2386 28.7512 16.401 28.7512C16.4954 28.7512 16.5908 28.7246 16.6756 28.6688C17.8498 27.8952 18.0004 26.3032 18.0004 25.0028Z" fill="#FF7F50"/>
<path d="M25.0004 19.0028C23.932 19.0028 22.883 19.2872 21.9666 19.8254C21.7284 19.9652 21.6488 20.2716 21.7886 20.5096C21.9284 20.7476 22.2348 20.8274 22.4728 20.6876C23.236 20.2396 24.11 20.0028 25.0004 20.0028C27.7574 20.0028 30.0004 22.2458 30.0004 25.0028C30.0004 27.1668 29.6334 31.1744 27.1754 33.7016C26.9828 33.8996 26.9874 34.216 27.1852 34.4086C27.2824 34.5032 27.4082 34.5502 27.5338 34.5502C27.664 34.5502 27.7942 34.4996 27.8922 34.3988C30.5966 31.6182 31.0004 27.3184 31.0004 25.0028C31.0004 21.6944 28.3088 19.0028 25.0004 19.0028Z" fill="#FF7F50"/>
<path d="M20.3716 21.1844C19.4872 22.2554 19 23.6114 19 25.0028C19 25.279 19.2238 25.5028 19.5 25.5028C19.7762 25.5028 20 25.279 20 25.0028C20 23.8434 20.4058 22.7134 21.1428 21.821C21.3186 21.6082 21.2886 21.293 21.0756 21.117C20.8628 20.9412 20.5476 20.9714 20.3716 21.1844Z" fill="#FF7F50"/>
<path d="M19.831 26.864C19.8792 26.5922 19.6978 26.3326 19.426 26.2844C19.1538 26.2372 18.8946 26.4176 18.8464 26.6894C18.6996 27.5176 18.2244 29.4806 16.9846 29.822C16.7182 29.8952 16.562 30.1706 16.6352 30.4368C16.6962 30.6584 16.8976 30.8042 17.117 30.8042C17.161 30.8042 17.2056 30.7984 17.25 30.786C18.5286 30.434 19.4452 29.041 19.831 26.864Z" fill="#FF7F50"/>
<path d="M28.4808 26.1542C28.2054 26.1348 27.9644 26.3368 27.9418 26.612C27.7498 28.9658 26.976 32.1746 24.3794 34.0952C24.1574 34.2594 24.1106 34.5726 24.2748 34.7944C24.3728 34.927 24.524 34.9972 24.6772 34.9972C24.7806 34.9972 24.8848 34.9654 24.9742 34.8992C27.8724 32.7556 28.7296 29.2536 28.9386 26.6934C28.961 26.418 28.756 26.1766 28.4808 26.1542Z" fill="#FF7F50"/>
<path d="M21.9995 25.0028C21.9995 23.3486 23.3453 22.0028 24.9995 22.0028C26.1517 22.0028 27.2159 22.6756 27.7109 23.7168C27.8293 23.9662 28.1273 24.0722 28.3771 23.9538C28.6265 23.8352 28.7325 23.537 28.6141 23.2876C27.9541 21.8996 26.5355 21.0028 24.9995 21.0028C22.7939 21.0028 20.9995 22.7972 20.9995 25.0028C20.9995 25.9762 20.8691 30.8556 18.2935 31.3288C18.0219 31.3788 17.8421 31.6394 17.8921 31.911C17.9365 32.152 18.1467 32.3206 18.3833 32.3206C18.4133 32.3206 18.4437 32.318 18.4743 32.3124C21.7453 31.7114 21.9995 26.5656 21.9995 25.0028Z" fill="#FF7F50"/>
<path d="M24.9171 31.0917C24.6751 30.9591 24.3711 31.0475 24.2383 31.2897C23.6547 32.3537 22.8501 33.0935 21.7785 33.5505C21.5245 33.6589 21.4065 33.9526 21.5149 34.2066C21.5959 34.3964 21.7807 34.5107 21.9749 34.5107C22.0403 34.5107 22.1069 34.4976 22.1709 34.4704C23.4565 33.922 24.4195 33.0388 25.1151 31.7706C25.2479 31.5284 25.1593 31.2245 24.9171 31.0917Z" fill="#FF7F50"/>
<path d="M25.2262 30.333C25.2934 30.3634 25.3638 30.3782 25.433 30.3782C25.623 30.3782 25.8044 30.2694 25.8884 30.0852C26.92 27.8208 27 25.6226 27 25.0028C27 23.9 26.1028 23.0028 25 23.0028C23.8972 23.0028 23 23.9 23 25.0028C23 25.279 23.2238 25.5028 23.5 25.5028C23.7762 25.5028 24 25.279 24 25.0028C24 24.4514 24.4486 24.0028 25 24.0028C25.5514 24.0028 26 24.4514 26 25.0028C26 25.5718 25.9264 27.5896 24.9784 29.6708C24.8638 29.9222 24.9748 30.2186 25.2262 30.333Z" fill="#FF7F50"/>
<path d="M23.7678 27.8337C23.8102 27.5609 23.6236 27.3051 23.3508 27.2627C23.0774 27.2211 22.8222 27.4071 22.7798 27.6799C22.4506 29.7945 21.6552 32.3347 19.7354 32.4285C19.4596 32.4419 19.247 32.6765 19.2604 32.9523C19.2734 33.2199 19.4944 33.4279 19.7594 33.4279C19.7676 33.4279 19.776 33.4277 19.7842 33.4273C21.8362 33.3271 23.2136 31.3929 23.7678 27.8337Z" fill="#FF7F50"/>
</svg>
