<svg width="58" height="58" viewBox="0 0 58 58" fill="none" xmlns="http://www.w3.org/2000/svg">
<g clip-path="url(#clip0_2337_4235)">
<path d="M56.2798 24.6102C56.8098 25.1602 57.1098 25.8802 57.1098 26.6502V38.9702C57.1098 39.7402 56.8098 40.4702 56.2798 41.0102C55.7498 41.5502 55.0098 41.8602 54.2398 41.8602H52.8698V23.7602H54.2398C55.0098 23.7702 55.7298 24.0702 56.2798 24.6102Z" fill="url(#paint0_linear_2337_4235)"/>
<path d="M42.3298 27.6102C42.5798 27.8602 42.7698 28.1302 42.8898 28.4402C43.0098 28.7502 43.0798 29.0802 43.0798 29.4202C43.0798 30.0102 42.8698 30.5802 42.5098 31.0302C42.1298 31.4902 41.6098 31.8102 41.0298 31.9202C40.4398 32.0302 39.8398 31.9502 39.3198 31.6702C38.7998 31.3802 38.3898 30.9302 38.1598 30.3802C37.9398 29.8302 37.9098 29.2302 38.0798 28.6602C38.2598 28.1002 38.6098 27.6102 39.1098 27.2802C39.6098 26.9502 40.1898 26.8002 40.7898 26.8602C41.3798 26.9302 41.9198 27.1902 42.3398 27.6002L42.3298 27.6102Z" fill="url(#paint1_linear_2337_4235)"/>
<path d="M29.8898 10.8302V14.6502H27.9898V10.8302C26.8998 10.6402 25.8698 10.1102 25.0898 9.31023C24.2298 8.45023 23.6798 7.33022 23.5298 6.11022C23.3798 4.89022 23.6398 3.68022 24.2798 2.62022C24.9098 1.58022 25.8798 0.770225 27.0098 0.350225C28.1598 -0.0897752 29.4198 -0.109775 30.5798 0.250225C31.7398 0.610225 32.7498 1.36022 33.4398 2.37022C34.1298 3.38022 34.4698 4.59022 34.3798 5.80022C34.2898 7.01022 33.8098 8.18023 32.9998 9.08022C32.1798 10.0002 31.0898 10.6002 29.8798 10.8202L29.8898 10.8302Z" fill="url(#paint2_linear_2337_4235)"/>
<path d="M19.1498 27.6102C19.3798 27.8602 19.5698 28.1302 19.7098 28.4402C19.8298 28.7502 19.8998 29.0802 19.8998 29.4202C19.8998 30.0102 19.6898 30.5802 19.3098 31.0302C18.9398 31.4902 18.4198 31.8102 17.8298 31.9202C17.2598 32.0302 16.6498 31.9502 16.1298 31.6702C15.5998 31.3802 15.1898 30.9302 14.9698 30.3802C14.7398 29.8302 14.7098 29.2302 14.8898 28.6602C15.0498 28.1002 15.4198 27.6102 15.9198 27.2802C16.4198 26.9502 16.9998 26.8002 17.5898 26.8602C18.1798 26.9302 18.7198 27.1902 19.1498 27.6002V27.6102Z" fill="url(#paint3_linear_2337_4235)"/>
<path d="M49.3098 18.2002C48.2598 17.1502 46.8198 16.5502 45.3198 16.5502H12.5598C11.0598 16.5502 9.61977 17.1502 8.56977 18.2002C7.51977 19.2702 6.91977 20.7002 6.91977 22.1902V43.4302C6.91977 44.9302 7.51977 46.3702 8.56977 47.4202C9.61977 48.4902 11.0598 49.0702 12.5598 49.0902H23.2398C23.3998 49.0902 23.5698 49.1302 23.7198 49.2102C23.8598 49.3102 23.9798 49.4202 24.0598 49.5702L25.0898 51.3502C25.0898 51.3502 25.1198 51.3902 25.1298 51.4002L28.9498 58.0002L33.7798 49.6302C33.8598 49.4702 33.9698 49.3302 34.1398 49.2302C34.2898 49.1302 34.4698 49.0802 34.6498 49.0802H45.3298C46.8298 49.0702 48.2698 48.4802 49.3198 47.4102C50.3898 46.3602 50.9698 44.9202 50.9898 43.4202V22.1902C50.9798 20.7002 50.3898 19.2602 49.3198 18.2002H49.3098ZM18.6398 33.6902C17.6598 33.9902 16.5998 33.9402 15.6498 33.5402C14.6898 33.1402 13.9098 32.4302 13.4198 31.5202C12.9398 30.6202 12.7798 29.5602 12.9798 28.5502C13.1898 27.5402 13.7298 26.6202 14.5298 25.9802C15.3198 25.3202 16.3198 24.9702 17.3598 24.9702C17.9498 24.9702 18.5198 25.0802 19.0698 25.3002C19.5998 25.5302 20.0998 25.8602 20.5098 26.2702C21.2498 26.9902 21.6998 27.9702 21.7998 28.9902C21.9098 30.0202 21.6498 31.0402 21.0798 31.9002C20.5098 32.7602 19.6598 33.3902 18.6598 33.6902H18.6398ZM36.2698 39.0102C35.5698 40.3502 34.5198 41.4702 33.2298 42.2502C31.9298 43.0302 30.4498 43.4502 28.9498 43.4502C27.4498 43.4502 25.9598 43.0302 24.6598 42.2502C23.3698 41.4702 22.3198 40.3502 21.6198 39.0102C21.5698 38.9002 21.5198 38.7802 21.5098 38.6502C21.4998 38.5302 21.5098 38.4002 21.5498 38.2802C21.5898 38.1602 21.6498 38.0502 21.7298 37.9502C21.8098 37.8502 21.9098 37.7702 22.0198 37.7202C22.1298 37.6702 22.2498 37.6202 22.3798 37.6202C22.4998 37.6102 22.6298 37.6202 22.7498 37.6602C22.8698 37.6902 22.9798 37.7602 23.0798 37.8402C23.1798 37.9102 23.2398 38.0202 23.3098 38.1302C23.8398 39.1602 24.6498 40.0202 25.6498 40.6302C26.6498 41.2302 27.7798 41.5502 28.9598 41.5502C30.1398 41.5502 31.2598 41.2402 32.2598 40.6302C33.2598 40.0102 34.0698 39.1502 34.5998 38.1302C34.7198 37.9002 34.9298 37.7302 35.1598 37.6702C35.4098 37.5902 35.6698 37.6202 35.8798 37.7202C36.0998 37.8402 36.2598 38.0502 36.3398 38.2802C36.4098 38.5302 36.3898 38.7902 36.2698 39.0002V39.0102ZM44.2398 31.9002C43.6798 32.7502 42.8198 33.3902 41.8298 33.6802C40.8498 33.9802 39.7798 33.9402 38.8398 33.5402C37.8798 33.1402 37.0898 32.4302 36.6098 31.5202C36.1198 30.6202 35.9698 29.5602 36.1698 28.5502C36.3598 27.5402 36.9098 26.6202 37.6998 25.9802C38.5098 25.3202 39.5098 24.9702 40.5298 24.9702C41.1198 24.9602 41.6898 25.0802 42.2398 25.3002C42.7898 25.5302 43.2798 25.8602 43.6898 26.2702C44.4098 26.9902 44.8698 27.9502 44.9798 28.9902C45.0798 30.0202 44.8198 31.0402 44.2398 31.9002Z" fill="url(#paint4_linear_2337_4235)"/>
<path d="M3.62977 23.7602H4.99977V41.8502H3.62977C2.87977 41.8502 2.13977 41.5502 1.60977 41.0002C1.05977 40.4702 0.759766 39.7302 0.759766 38.9602V26.6402C0.759766 25.8702 1.05977 25.1502 1.60977 24.6002C2.15977 24.0502 2.87977 23.7702 3.62977 23.7502V23.7602Z" fill="url(#paint5_linear_2337_4235)"/>
</g>
<defs>
<linearGradient id="paint0_linear_2337_4235" x1="-10.792" y1="28.9994" x2="67.6192" y2="52.7624" gradientUnits="userSpaceOnUse">
<stop stop-color="#FF7F50"/>
<stop offset="1" stop-color="#FFDB58"/>
</linearGradient>
<linearGradient id="paint1_linear_2337_4235" x1="-10.792" y1="28.9994" x2="67.6192" y2="52.7624" gradientUnits="userSpaceOnUse">
<stop stop-color="#FF7F50"/>
<stop offset="1" stop-color="#FFDB58"/>
</linearGradient>
<linearGradient id="paint2_linear_2337_4235" x1="-10.792" y1="28.9994" x2="67.6192" y2="52.7624" gradientUnits="userSpaceOnUse">
<stop stop-color="#FF7F50"/>
<stop offset="1" stop-color="#FFDB58"/>
</linearGradient>
<linearGradient id="paint3_linear_2337_4235" x1="-10.792" y1="28.9994" x2="67.6192" y2="52.7624" gradientUnits="userSpaceOnUse">
<stop stop-color="#FF7F50"/>
<stop offset="1" stop-color="#FFDB58"/>
</linearGradient>
<linearGradient id="paint4_linear_2337_4235" x1="-10.792" y1="28.9994" x2="67.6192" y2="52.7624" gradientUnits="userSpaceOnUse">
<stop stop-color="#FF7F50"/>
<stop offset="1" stop-color="#FFDB58"/>
</linearGradient>
<linearGradient id="paint5_linear_2337_4235" x1="-10.792" y1="28.9994" x2="67.6192" y2="52.7624" gradientUnits="userSpaceOnUse">
<stop stop-color="#FF7F50"/>
<stop offset="1" stop-color="#FFDB58"/>
</linearGradient>
<clipPath id="clip0_2337_4235">
<rect width="56.35" height="58" fill="white" transform="translate(0.759766)"/>
</clipPath>
</defs>
</svg>
