<svg width="24" height="25" viewBox="0 0 24 25" fill="none" xmlns="http://www.w3.org/2000/svg">
<path d="M23.7933 4.91275L19.0876 0.206776C18.9552 0.0743529 18.7756 0 18.5884 0H7.76471C6.59704 0 5.64706 0.949977 5.64706 2.11765V11.4277C2.47501 11.78 0 14.4768 0 17.7412C0 21.2442 2.84993 24.0941 6.35294 24.0941H21.8824C23.05 24.0941 24 23.1441 24 21.9765V5.41191C24 5.22466 23.9256 5.04518 23.7933 4.91275ZM19.2941 2.41002L21.5899 4.70588H19.2941V2.41002ZM1.41176 17.7412C1.41176 15.0166 3.62838 12.8 6.35294 12.8C9.07751 12.8 11.2941 15.0166 11.2941 17.7412C11.2941 20.4657 9.07751 22.6824 6.35294 22.6824C3.62838 22.6824 1.41176 20.4657 1.41176 17.7412ZM21.8824 22.6824H10.3411C11.61 21.6562 12.4771 20.1525 12.6665 18.4471H20C20.3898 18.4471 20.7059 18.131 20.7059 17.7412C20.7059 17.3513 20.3898 17.0353 20 17.0353H12.6664C12.5513 15.9991 12.1863 15.0372 11.6327 14.2118H20C20.3898 14.2118 20.7059 13.8957 20.7059 13.5059C20.7059 13.116 20.3898 12.8 20 12.8H10.3411C9.42249 12.0571 8.29355 11.5648 7.05882 11.4277V2.11765C7.05882 1.72842 7.37548 1.41176 7.76471 1.41176H17.8824V5.41176C17.8824 5.8016 18.1984 6.11765 18.5882 6.11765H22.5882V21.9765C22.5882 22.3657 22.2716 22.6824 21.8824 22.6824Z" fill="#FF7F50"/>
<path d="M20.0002 8.5647H9.64729C9.25745 8.5647 8.94141 8.88075 8.94141 9.27059C8.94141 9.66042 9.25745 9.97647 9.64729 9.97647H20.0002C20.3901 9.97647 20.7061 9.66042 20.7061 9.27059C20.7061 8.88075 20.3901 8.5647 20.0002 8.5647Z" fill="#FF7F50"/>
<path d="M8.23521 18.4471C8.62504 18.4471 8.94109 18.131 8.94109 17.7412C8.94109 17.3513 8.62504 17.0353 8.23521 17.0353H7.05874V14.9176C7.05874 14.5278 6.74269 14.2118 6.35286 14.2118C5.96302 14.2118 5.64697 14.5278 5.64697 14.9176V17.7412C5.64697 18.131 5.96302 18.4471 6.35286 18.4471H8.23521Z" fill="#FF7F50"/>
</svg>
