<svg width="23" height="22" viewBox="0 0 23 22" fill="none" xmlns="http://www.w3.org/2000/svg">
<path d="M2.49363 17.3371C2.87882 16.9626 3.2329 16.6026 3.60613 16.2628C3.77599 16.1085 3.76523 16.0128 3.60732 15.8609C3.2018 15.4697 2.81183 15.0642 2.39554 14.6443C2.84054 14.2161 3.28554 13.789 3.74968 13.3428C3.26042 12.8811 2.81063 12.4552 2.32257 11.9935C2.71493 11.6131 3.05347 11.2925 3.38124 10.9611C3.44105 10.9001 3.48172 10.8008 3.49129 10.7147C3.51521 10.5066 3.44224 10.3678 3.22094 10.2733C2.12758 9.80077 1.29141 9.03398 0.738748 7.97531C0.215992 6.97646 0.0233982 5.91659 0.207619 4.79691C0.456436 3.28128 1.22681 2.10059 2.51277 1.26921C3.53794 0.606493 4.66719 0.358872 5.88137 0.510794C7.38743 0.698603 8.58128 1.41635 9.45334 2.65206C10.1806 3.68321 10.4821 4.83758 10.3457 6.09483C10.1603 7.81382 9.30859 9.11174 7.83602 10.0053C7.62788 10.1321 7.40657 10.2446 7.1769 10.3259C6.99028 10.3917 6.92569 10.4838 6.92688 10.6812C6.93286 12.8009 6.93047 14.9195 6.93047 17.0392C6.93047 17.9053 6.92688 18.7702 6.93406 19.6362C6.93526 19.8133 6.88621 19.9413 6.75582 20.0669C6.28331 20.5274 5.82395 20.9999 5.35862 21.4677C5.33349 21.4928 5.2988 21.5095 5.27249 21.5275C4.50091 20.7511 3.73532 19.9808 2.93504 19.1745C3.11926 18.9998 3.32142 18.8048 3.52957 18.6146C3.63484 18.5189 3.64082 18.4532 3.52598 18.3467C3.18386 18.0297 2.85728 17.6971 2.49004 17.3371H2.49363ZM3.18146 4.5134C3.16591 5.62351 4.06788 6.49916 5.16482 6.49557C6.30723 6.49078 7.15776 5.53499 7.13144 4.49666C7.10273 3.39731 6.25938 2.53124 5.15884 2.53243C4.04754 2.53243 3.18027 3.4033 3.18146 4.5134Z" fill="#FF7F50"/>
<path d="M17.3054 8.33657V9.1536C17.2193 9.15838 17.1392 9.16676 17.059 9.16796C14.822 9.16796 12.5839 9.16676 10.3469 9.17274C10.1495 9.17274 10.0921 9.11771 10.0957 8.91914C10.1089 8.33657 10.1005 8.33657 10.6747 8.33657C12.7932 8.33657 14.9106 8.33657 17.0291 8.33657H17.3054Z" fill="#FF7F50"/>
<path d="M17.309 12.8655V13.6838C17.2181 13.6838 17.1392 13.6838 17.059 13.6838C14.828 13.6838 12.597 13.6814 10.3661 13.6885C10.1579 13.6885 10.0969 13.6299 10.0981 13.4266C10.1005 12.8655 10.0933 12.8655 10.6508 12.8655C12.7777 12.8655 14.9034 12.8655 17.0303 12.8655C17.1188 12.8655 17.2073 12.8655 17.309 12.8655Z" fill="#FF7F50"/>
<path d="M10.1005 15.1204H17.3066V15.9088C17.2301 15.9135 17.1511 15.9231 17.0722 15.9231C14.8268 15.9231 12.5815 15.9231 10.3362 15.9279C10.1519 15.9279 10.0814 15.8765 10.0981 15.6875C10.1137 15.5104 10.1017 15.331 10.1017 15.1192L10.1005 15.1204Z" fill="#FF7F50"/>
<path d="M17.0698 10.6047C14.9369 10.6047 12.804 10.6047 10.6723 10.6047C10.0778 10.6047 10.0838 10.6082 10.0981 11.204C10.1017 11.3714 10.1627 11.4181 10.3242 11.4169C11.0001 11.4121 11.6759 11.4229 12.3518 11.4229C13.9249 11.4229 15.4991 11.4181 17.0722 11.4133C17.1511 11.4133 17.2289 11.4049 17.3126 11.4002V10.6047C17.2169 10.6047 17.1439 10.6047 17.0698 10.6047ZM11.2489 11.2614C11.2549 11.2698 11.2632 11.2793 11.2716 11.2901C11.2632 11.2793 11.2561 11.2698 11.2489 11.2614ZM11.3075 11.3367C11.3135 11.3451 11.3195 11.3523 11.3266 11.3607C11.3207 11.3523 11.3135 11.3451 11.3075 11.3367ZM11.3302 11.3655C11.3625 11.326 11.3912 11.2853 11.4247 11.247C11.3924 11.2853 11.3625 11.326 11.3302 11.3655Z" fill="#FF7F50"/>
<path d="M22.1478 5.40819C22.1478 5.29215 22.0808 5.1498 21.9983 5.06367C20.424 3.42842 18.8426 1.80034 17.266 0.167473C17.1475 0.0442608 17.0255 0 16.8556 0C13.938 0.00478495 11.0192 0.00358871 8.10158 0.00358871C8.01904 0.00358871 7.9353 0.00358871 7.8085 0.00358871C7.87788 0.0645968 7.90061 0.0968952 7.93291 0.11125C8.52744 0.3816 9.04421 0.764396 9.50835 1.21777C9.63874 1.34457 9.76315 1.39362 9.939 1.39362C11.9989 1.39003 14.0588 1.39362 16.1188 1.38644C16.3281 1.38644 16.3999 1.43548 16.3975 1.65679C16.3867 2.97743 16.3927 4.29928 16.3927 5.61992V5.90582H16.687C17.9107 5.90582 19.1345 5.90463 20.3582 5.90582C20.7829 5.90582 20.7721 5.83644 20.7721 6.31015C20.7721 8.81029 20.7721 11.3092 20.7721 13.8094V16.2557C20.7637 16.2617 20.7554 16.2664 20.747 16.2724C20.7554 16.2868 20.7637 16.3011 20.7721 16.3143V17.1182C20.7721 17.1397 20.7709 17.1624 20.7709 17.1851C20.7733 18.245 20.7673 19.3049 20.7757 20.3647C20.7769 20.5681 20.7147 20.6363 20.5078 20.6351C19.0603 20.6303 17.6129 20.6399 16.1642 20.6387C13.3662 20.6387 10.567 20.6315 7.76902 20.6363C7.6506 20.6363 7.50585 20.6985 7.41972 20.7798C7.05607 21.122 6.70796 21.4808 6.35627 21.8361C6.3132 21.8792 6.27971 21.933 6.22707 22H22.1394C22.1454 21.945 22.1538 21.9019 22.1538 21.8588C22.1538 20.8217 22.1538 19.7846 22.1538 18.7474V15.2556V15.0331C22.1538 11.8236 22.155 8.6153 22.1478 5.4058V5.40819ZM19.5125 5.10913C18.8199 5.10793 18.126 5.09597 17.4334 5.09597C17.2827 5.09597 17.2169 5.05051 17.2181 4.89261C17.2217 4.05046 17.2181 3.20711 17.2205 2.36496C17.2205 2.31711 17.2384 2.26926 17.2612 2.1616C18.211 3.14371 19.1201 4.08395 20.0771 5.07324C19.8438 5.08879 19.6788 5.11033 19.5137 5.10913H19.5125Z" fill="#FF7F50"/>
</svg>
