<svg width="26" height="22" viewBox="0 0 26 22" fill="none" xmlns="http://www.w3.org/2000/svg">
<path d="M3.16285 17.3371C3.54804 16.9626 3.90212 16.6026 4.27535 16.2628C4.44521 16.1085 4.43445 16.0128 4.27654 15.8609C3.87102 15.4697 3.48105 15.0642 3.06476 14.6443C3.50976 14.2161 3.95476 13.789 4.4189 13.3428C3.92964 12.8811 3.47985 12.4552 2.99179 11.9935C3.38415 11.6131 3.72269 11.2925 4.05046 10.9611C4.11027 10.9001 4.15094 10.8008 4.16051 10.7147C4.18443 10.5066 4.11146 10.3678 3.89016 10.2733C2.7968 9.80077 1.96063 9.03398 1.40797 7.97531C0.885212 6.97646 0.692618 5.91659 0.876839 4.79691C1.12566 3.28128 1.89603 2.10059 3.18199 1.26921C4.20716 0.606493 5.33641 0.358872 6.55059 0.510794C8.05665 0.698603 9.2505 1.41635 10.1226 2.65206C10.8499 3.68321 11.1513 4.83758 11.0149 6.09483C10.8295 7.81382 9.97781 9.11174 8.50524 10.0053C8.2971 10.1321 8.07579 10.2446 7.84612 10.3259C7.6595 10.3917 7.59491 10.4838 7.5961 10.6812C7.60208 12.8009 7.59969 14.9195 7.59969 17.0392C7.59969 17.9053 7.5961 18.7702 7.60328 19.6362C7.60448 19.8133 7.55543 19.9413 7.42504 20.0669C6.95253 20.5274 6.49317 20.9999 6.02784 21.4677C6.00271 21.4928 5.96802 21.5095 5.94171 21.5275C5.17013 20.7511 4.40454 19.9808 3.60426 19.1745C3.78848 18.9998 3.99064 18.8048 4.19879 18.6146C4.30406 18.5189 4.31004 18.4532 4.1952 18.3467C3.85308 18.0297 3.5265 17.6971 3.15926 17.3371H3.16285ZM3.85068 4.5134C3.83513 5.62351 4.7371 6.49916 5.83404 6.49557C6.97645 6.49078 7.82698 5.53499 7.80066 4.49666C7.77195 3.39731 6.9286 2.53124 5.82806 2.53243C4.71676 2.53243 3.84949 3.4033 3.85068 4.5134Z" fill="#FF7F50"/>
<path d="M17.9746 8.33658V9.15361C17.8885 9.15839 17.8084 9.16677 17.7282 9.16796C15.4913 9.16796 13.2531 9.16677 11.0161 9.17275C10.8188 9.17275 10.7613 9.11772 10.7649 8.91915C10.7781 8.33658 10.7697 8.33658 11.3439 8.33658C13.4624 8.33658 15.5798 8.33658 17.6983 8.33658H17.9746Z" fill="#FF7F50"/>
<path d="M17.9783 12.8655V13.6838C17.8874 13.6838 17.8084 13.6838 17.7283 13.6838C15.4973 13.6838 13.2663 13.6814 11.0353 13.6886C10.8272 13.6886 10.7662 13.6299 10.7674 13.4266C10.7697 12.8655 10.7626 12.8655 11.32 12.8655C13.4469 12.8655 15.5726 12.8655 17.6995 12.8655C17.7881 12.8655 17.8766 12.8655 17.9783 12.8655Z" fill="#FF7F50"/>
<path d="M10.7697 15.1204H17.9759V15.9088C17.8993 15.9135 17.8204 15.9231 17.7414 15.9231C15.4961 15.9231 13.2507 15.9231 11.0054 15.9279C10.8212 15.9279 10.7506 15.8765 10.7673 15.6875C10.7829 15.5104 10.7709 15.331 10.7709 15.1192L10.7697 15.1204Z" fill="#FF7F50"/>
<path d="M17.739 10.6046C15.6061 10.6046 13.4732 10.6046 11.3415 10.6046C10.747 10.6046 10.753 10.6082 10.7673 11.204C10.7709 11.3714 10.8319 11.4181 10.9934 11.4169C11.6693 11.4121 12.3452 11.4229 13.0211 11.4229C14.5941 11.4229 16.1684 11.4181 17.7414 11.4133C17.8204 11.4133 17.8981 11.4049 17.9818 11.4001V10.6046C17.8861 10.6046 17.8132 10.6046 17.739 10.6046ZM11.9181 11.2614C11.9241 11.2698 11.9325 11.2793 11.9408 11.2901C11.9325 11.2793 11.9253 11.2698 11.9181 11.2614ZM11.9767 11.3367C11.9827 11.3451 11.9887 11.3523 11.9959 11.3607C11.9899 11.3523 11.9827 11.3451 11.9767 11.3367ZM11.9995 11.3655C12.0318 11.326 12.0605 11.2853 12.094 11.247C12.0617 11.2853 12.0318 11.326 11.9995 11.3655Z" fill="#FF7F50"/>
<path d="M22.817 5.40819C22.817 5.29215 22.75 5.1498 22.6675 5.06367C21.0932 3.42842 19.5118 1.80034 17.9352 0.167473C17.8168 0.0442608 17.6947 0 17.5249 0C14.6072 0.00478495 11.6884 0.00358871 8.7708 0.00358871C8.68826 0.00358871 8.60453 0.00358871 8.47773 0.00358871C8.54711 0.0645968 8.56984 0.0968952 8.60214 0.11125C9.19667 0.3816 9.71344 0.764396 10.1776 1.21777C10.308 1.34457 10.4324 1.39362 10.6082 1.39362C12.6681 1.39003 14.7281 1.39362 16.788 1.38644C16.9973 1.38644 17.0691 1.43548 17.0667 1.65679C17.0559 2.97743 17.0619 4.29928 17.0619 5.61992V5.90582H17.3562C18.58 5.90582 19.8037 5.90463 21.0275 5.90582C21.4521 5.90582 21.4413 5.83644 21.4413 6.31015C21.4413 8.81029 21.4413 11.3092 21.4413 13.8094V16.2557C21.433 16.2617 21.4246 16.2664 21.4162 16.2724C21.4246 16.2868 21.433 16.3011 21.4413 16.3143V17.1182C21.4413 17.1397 21.4402 17.1624 21.4402 17.1851C21.4425 18.245 21.4366 19.3049 21.4449 20.3647C21.4461 20.5681 21.3839 20.6363 21.177 20.6351C19.7295 20.6303 18.2821 20.6399 16.8334 20.6387C14.0354 20.6387 11.2362 20.6315 8.43825 20.6363C8.31982 20.6363 8.17508 20.6985 8.08895 20.7798C7.72529 21.122 7.37719 21.4808 7.0255 21.8361C6.98243 21.8792 6.94894 21.933 6.8963 22H22.8087C22.8146 21.945 22.823 21.9019 22.823 21.8588C22.823 20.8217 22.823 19.7846 22.823 18.7474V15.2556V15.0331C22.823 11.8236 22.8242 8.6153 22.817 5.4058V5.40819ZM20.1817 5.10913C19.4891 5.10793 18.7953 5.09597 18.1027 5.09597C17.9519 5.09597 17.8861 5.05051 17.8873 4.89261C17.8909 4.05046 17.8873 3.20711 17.8897 2.36496C17.8897 2.31711 17.9077 2.26926 17.9304 2.1616C18.8802 3.14371 19.7893 4.08395 20.7463 5.07324C20.5131 5.08879 20.348 5.11033 20.1829 5.10913H20.1817Z" fill="#FF7F50"/>
<rect x="19.2417" y="13.8875" width="5.91211" height="5.91211" rx="2.95605" fill="#FF7F50"/>
<path d="M23.8671 16.8355C23.8671 16.9479 23.7788 17.0282 23.6745 17.0282H22.3904V18.3123C22.3904 18.4246 22.3021 18.5129 22.1978 18.5129C22.0854 18.5129 22.0052 18.4246 22.0052 18.3123V17.0282H20.7211C20.6087 17.0282 20.5284 16.9479 20.5284 16.8436C20.5284 16.7312 20.6087 16.6429 20.7211 16.6429H22.0052V15.3588C22.0052 15.2545 22.0854 15.1742 22.1978 15.1742C22.3021 15.1742 22.3904 15.2545 22.3904 15.3588V16.6429H23.6745C23.7788 16.6429 23.8671 16.7312 23.8671 16.8355Z" fill="white"/>
</svg>
