<svg width="315" height="496" viewBox="0 0 315 496" fill="none" xmlns="http://www.w3.org/2000/svg">
<mask id="path-1-inside-1_143_2262" fill="white">
<path fill-rule="evenodd" clip-rule="evenodd" d="M120.469 80.2804C113.54 70.9622 110.076 66.3031 108.643 65.0996C105.703 62.6302 105.781 62.6697 102.045 61.7836C100.224 61.3518 97.4255 61.3518 91.8275 61.3518H30.6155C21.2966 61.3518 16.6372 61.3518 12.9618 62.8742C8.06125 64.9041 4.16777 68.7976 2.13789 73.6981C0.615479 77.3736 0.615479 82.033 0.615479 91.3518V465.352C0.615479 474.671 0.615479 479.33 2.13789 483.005C4.16777 487.906 8.06125 491.799 12.9618 493.829C16.6372 495.352 21.2966 495.352 30.6155 495.352H284.615C293.934 495.352 298.594 495.352 302.269 493.829C307.17 491.799 311.063 487.906 313.093 483.005C314.615 479.33 314.615 474.671 314.615 465.352V91.3518C314.615 82.033 314.615 77.3736 313.093 73.6981C311.063 68.7976 307.17 64.9041 302.269 62.8742C298.594 61.3518 293.934 61.3518 284.615 61.3518H227.403C221.805 61.3518 219.006 61.3518 217.186 61.7836C213.45 62.6697 213.528 62.6302 210.588 65.0996C209.155 66.3031 205.69 70.9622 198.762 80.2804C190.196 91.8002 175.858 99.3518 159.615 99.3518C143.373 99.3518 129.035 91.8002 120.469 80.2804Z"/>
</mask>
<path fill-rule="evenodd" clip-rule="evenodd" d="M120.469 80.2804C113.54 70.9622 110.076 66.3031 108.643 65.0996C105.703 62.6302 105.781 62.6697 102.045 61.7836C100.224 61.3518 97.4255 61.3518 91.8275 61.3518H30.6155C21.2966 61.3518 16.6372 61.3518 12.9618 62.8742C8.06125 64.9041 4.16777 68.7976 2.13789 73.6981C0.615479 77.3736 0.615479 82.033 0.615479 91.3518V465.352C0.615479 474.671 0.615479 479.33 2.13789 483.005C4.16777 487.906 8.06125 491.799 12.9618 493.829C16.6372 495.352 21.2966 495.352 30.6155 495.352H284.615C293.934 495.352 298.594 495.352 302.269 493.829C307.17 491.799 311.063 487.906 313.093 483.005C314.615 479.33 314.615 474.671 314.615 465.352V91.3518C314.615 82.033 314.615 77.3736 313.093 73.6981C311.063 68.7976 307.17 64.9041 302.269 62.8742C298.594 61.3518 293.934 61.3518 284.615 61.3518H227.403C221.805 61.3518 219.006 61.3518 217.186 61.7836C213.45 62.6697 213.528 62.6302 210.588 65.0996C209.155 66.3031 205.69 70.9622 198.762 80.2804C190.196 91.8002 175.858 99.3518 159.615 99.3518C143.373 99.3518 129.035 91.8002 120.469 80.2804Z" fill="white"/>
<path d="M12.9618 62.8742L12.5791 61.9503V61.9503L12.9618 62.8742ZM2.13789 73.6981L1.21401 73.3155H1.21401L2.13789 73.6981ZM2.13789 483.005L3.06177 482.623H3.06177L2.13789 483.005ZM12.9618 493.829L13.3445 492.905H13.3445L12.9618 493.829ZM302.269 493.829L301.886 492.905L302.269 493.829ZM313.093 483.005L314.017 483.388L313.093 483.005ZM313.093 73.6981L314.017 73.3155V73.3155L313.093 73.6981ZM302.269 62.8742L302.652 61.9503V61.9503L302.269 62.8742ZM217.186 61.7836L216.955 60.8106L217.186 61.7836ZM198.762 80.2804L197.959 79.6837L198.762 80.2804ZM210.588 65.0996L211.231 65.8654L210.588 65.0996ZM102.045 61.7836L101.815 62.7566L102.045 61.7836ZM30.6155 62.3518H91.8275V60.3518H30.6155V62.3518ZM13.3445 63.7981C15.04 63.0958 17.0022 62.7266 19.7404 62.5398C22.4876 62.3523 25.9424 62.3518 30.6155 62.3518V60.3518C25.9697 60.3518 22.4354 60.3513 19.6043 60.5444C16.7642 60.7382 14.559 61.1302 12.5791 61.9503L13.3445 63.7981ZM3.06177 74.0808C4.99015 69.4253 8.68896 65.7265 13.3445 63.7981L12.5791 61.9503C7.43354 64.0817 3.34538 68.1699 1.21401 73.3155L3.06177 74.0808ZM1.61548 91.3518C1.61548 86.6787 1.61602 83.224 1.80346 80.4768C1.99029 77.7385 2.35945 75.7764 3.06177 74.0808L1.21401 73.3155C0.39392 75.2953 0.00187433 77.5006 -0.191901 80.3406C-0.385063 83.1717 -0.384521 86.7061 -0.384521 91.3518H1.61548ZM1.61548 465.352V91.3518H-0.384521V465.352H1.61548ZM3.06177 482.623C2.35945 480.927 1.99029 478.965 1.80346 476.227C1.61602 473.48 1.61548 470.025 1.61548 465.352H-0.384521C-0.384521 469.998 -0.385063 473.532 -0.191901 476.363C0.00187427 479.203 0.39392 481.408 1.21401 483.388L3.06177 482.623ZM13.3445 492.905C8.68896 490.977 4.99015 487.278 3.06177 482.623L1.21401 483.388C3.34538 488.534 7.43354 492.622 12.5791 494.753L13.3445 492.905ZM30.6155 494.352C25.9424 494.352 22.4876 494.351 19.7404 494.164C17.0022 493.977 15.0401 493.608 13.3445 492.905L12.5791 494.753C14.559 495.573 16.7642 495.965 19.6043 496.159C22.4354 496.352 25.9697 496.352 30.6155 496.352V494.352ZM284.615 494.352H30.6155V496.352H284.615V494.352ZM301.886 492.905C300.191 493.608 298.229 493.977 295.491 494.164C292.743 494.351 289.289 494.352 284.615 494.352V496.352C289.261 496.352 292.796 496.352 295.627 496.159C298.467 495.965 300.672 495.573 302.652 494.753L301.886 492.905ZM312.169 482.623C310.241 487.278 306.542 490.977 301.886 492.905L302.652 494.753C307.797 492.622 311.886 488.534 314.017 483.388L312.169 482.623ZM313.615 465.352C313.615 470.025 313.615 473.48 313.427 476.227C313.241 478.965 312.872 480.927 312.169 482.623L314.017 483.388C314.837 481.408 315.229 479.203 315.423 476.363C315.616 473.532 315.615 469.998 315.615 465.352H313.615ZM313.615 91.3518V465.352H315.615V91.3518H313.615ZM312.169 74.0808C312.872 75.7764 313.241 77.7385 313.427 80.4768C313.615 83.224 313.615 86.6787 313.615 91.3518H315.615C315.615 86.7061 315.616 83.1717 315.423 80.3406C315.229 77.5006 314.837 75.2953 314.017 73.3155L312.169 74.0808ZM301.886 63.7981C306.542 65.7265 310.241 69.4253 312.169 74.0808L314.017 73.3155C311.886 68.1699 307.797 64.0817 302.652 61.9503L301.886 63.7981ZM284.615 62.3518C289.289 62.3518 292.743 62.3523 295.491 62.5398C298.229 62.7266 300.191 63.0958 301.886 63.7981L302.652 61.9503C300.672 61.1302 298.467 60.7382 295.627 60.5444C292.796 60.3513 289.261 60.3518 284.615 60.3518V62.3518ZM227.403 62.3518H284.615V60.3518H227.403V62.3518ZM197.959 79.6837C189.586 90.9451 175.547 98.3518 159.615 98.3518V100.352C176.168 100.352 190.807 92.6552 199.564 80.8771L197.959 79.6837ZM159.615 98.3518C143.684 98.3518 129.645 90.9451 121.272 79.6837L119.667 80.8771C128.424 92.6552 143.063 100.352 159.615 100.352V98.3518ZM227.403 60.3518C224.611 60.3518 222.493 60.3517 220.845 60.4063C219.203 60.4608 217.966 60.5708 216.955 60.8106L217.416 62.7566C218.226 62.5647 219.299 62.4587 220.911 62.4052C222.518 62.3519 224.597 62.3518 227.403 62.3518V60.3518ZM199.564 80.8771C203.031 76.2147 205.623 72.7289 207.528 70.2574C209.462 67.7476 210.615 66.3823 211.231 65.8654L209.945 64.3339C209.127 65.0205 207.832 66.5864 205.944 69.0366C204.026 71.5251 201.421 75.0279 197.959 79.6837L199.564 80.8771ZM216.955 60.8106C215.138 61.2416 214.084 61.4795 213.139 61.9544C212.194 62.4292 211.375 63.1328 209.945 64.3339L211.231 65.8654C212.741 64.597 213.352 64.0856 214.037 63.7414C214.722 63.3971 215.497 63.2117 217.416 62.7566L216.955 60.8106ZM91.8275 62.3518C94.6335 62.3518 96.7131 62.3519 98.3197 62.4052C99.9319 62.4587 101.005 62.5647 101.815 62.7566L102.276 60.8106C101.265 60.5708 100.028 60.4608 98.386 60.4063C96.7384 60.3517 94.6195 60.3518 91.8275 60.3518V62.3518ZM121.272 79.6837C117.81 75.0279 115.205 71.5251 113.287 69.0366C111.399 66.5864 110.104 65.0205 109.286 64.3339L108 65.8654C108.615 66.3823 109.769 67.7476 111.703 70.2574C113.608 72.7289 116.2 76.2147 119.667 80.8771L121.272 79.6837ZM101.815 62.7566C103.733 63.2117 104.509 63.3971 105.194 63.7414C105.879 64.0856 106.49 64.597 108 65.8654L109.286 64.3339C107.856 63.1328 107.037 62.4292 106.092 61.9544C105.147 61.4795 104.093 61.2416 102.276 60.8106L101.815 62.7566Z" fill="#D9D9D9" mask="url(#path-1-inside-1_143_2262)"/>
<circle opacity="0.4" cx="160.115" cy="45.8518" r="45.5" fill="#FF7F50"/>
<circle cx="160.115" cy="45.8518" r="30.3333" fill="url(#paint0_linear_143_2262)"/>
<path d="M171.323 37.4122C170.958 37.4231 170.612 37.5756 170.357 37.8374L155.903 52.292L151.278 47.6676C151.149 47.5328 150.994 47.4252 150.822 47.3511C150.651 47.277 150.466 47.2378 150.279 47.2359C150.093 47.234 149.907 47.2694 149.734 47.34C149.561 47.4107 149.404 47.5151 149.272 47.6472C149.14 47.7793 149.035 47.9365 148.965 48.1095C148.894 48.2824 148.859 48.4678 148.861 48.6546C148.863 48.8414 148.902 49.026 148.976 49.1975C149.05 49.369 149.158 49.524 149.292 49.6534L154.91 55.2707C155.173 55.534 155.53 55.6818 155.903 55.6818C156.275 55.6818 156.632 55.534 156.895 55.2707L172.343 39.8232C172.546 39.6259 172.685 39.372 172.741 39.0946C172.797 38.8172 172.768 38.5293 172.657 38.2687C172.547 38.0081 172.361 37.7869 172.123 37.634C171.884 37.4812 171.606 37.4039 171.323 37.4122Z" fill="white"/>
<defs>
<linearGradient id="paint0_linear_143_2262" x1="117.345" y1="45.8518" x2="201.343" y2="72.054" gradientUnits="userSpaceOnUse">
<stop stop-color="#FF7F50"/>
<stop offset="1" stop-color="#FFDB58"/>
</linearGradient>
</defs>
</svg>
