<svg width="315" height="496" viewBox="0 0 315 496" fill="none" xmlns="http://www.w3.org/2000/svg">
<mask id="path-1-inside-1_2585_4262" fill="white">
<path fill-rule="evenodd" clip-rule="evenodd" d="M120.75 80.2606C113.821 70.9424 110.357 66.2833 108.924 65.0798C105.984 62.6104 106.062 62.6499 102.326 61.7639C100.505 61.332 97.7065 61.332 92.1085 61.332H30.8965C21.5777 61.332 16.9182 61.332 13.2428 62.8544C8.34225 64.8843 4.44877 68.7778 2.41889 73.6784C0.896484 77.3538 0.896484 82.0132 0.896484 91.332V465.332C0.896484 474.651 0.896484 479.31 2.41889 482.986C4.44877 487.886 8.34225 491.78 13.2428 493.81C16.9182 495.332 21.5777 495.332 30.8965 495.332H284.896C294.215 495.332 298.875 495.332 302.55 493.81C307.451 491.78 311.344 487.886 313.374 482.986C314.896 479.31 314.896 474.651 314.896 465.332V91.332C314.896 82.0132 314.896 77.3538 313.374 73.6784C311.344 68.7778 307.451 64.8843 302.55 62.8544C298.875 61.332 294.215 61.332 284.896 61.332H227.684C222.086 61.332 219.287 61.332 217.467 61.7639C213.731 62.6499 213.809 62.6104 210.869 65.0798C209.436 66.2833 205.971 70.9424 199.043 80.2606C190.477 91.7804 176.139 99.332 159.896 99.332C143.654 99.332 129.316 91.7804 120.75 80.2606Z"/>
</mask>
<path fill-rule="evenodd" clip-rule="evenodd" d="M120.75 80.2606C113.821 70.9424 110.357 66.2833 108.924 65.0798C105.984 62.6104 106.062 62.6499 102.326 61.7639C100.505 61.332 97.7065 61.332 92.1085 61.332H30.8965C21.5777 61.332 16.9182 61.332 13.2428 62.8544C8.34225 64.8843 4.44877 68.7778 2.41889 73.6784C0.896484 77.3538 0.896484 82.0132 0.896484 91.332V465.332C0.896484 474.651 0.896484 479.31 2.41889 482.986C4.44877 487.886 8.34225 491.78 13.2428 493.81C16.9182 495.332 21.5777 495.332 30.8965 495.332H284.896C294.215 495.332 298.875 495.332 302.55 493.81C307.451 491.78 311.344 487.886 313.374 482.986C314.896 479.31 314.896 474.651 314.896 465.332V91.332C314.896 82.0132 314.896 77.3538 313.374 73.6784C311.344 68.7778 307.451 64.8843 302.55 62.8544C298.875 61.332 294.215 61.332 284.896 61.332H227.684C222.086 61.332 219.287 61.332 217.467 61.7639C213.731 62.6499 213.809 62.6104 210.869 65.0798C209.436 66.2833 205.971 70.9424 199.043 80.2606C190.477 91.7804 176.139 99.332 159.896 99.332C143.654 99.332 129.316 91.7804 120.75 80.2606Z" fill="#555555"/>
<path d="M13.2428 62.8544L12.8601 61.9306V61.9306L13.2428 62.8544ZM2.41889 73.6784L1.49501 73.2957H1.49501L2.41889 73.6784ZM2.41889 482.986L3.34277 482.603H3.34277L2.41889 482.986ZM13.2428 493.81L13.6255 492.886H13.6255L13.2428 493.81ZM302.55 493.81L302.167 492.886L302.55 493.81ZM313.374 482.986L314.298 483.368L313.374 482.986ZM313.374 73.6784L314.298 73.2957V73.2957L313.374 73.6784ZM302.55 62.8544L302.933 61.9306V61.9306L302.55 62.8544ZM217.467 61.7639L217.236 60.7908L217.467 61.7639ZM199.043 80.2606L198.24 79.6639L199.043 80.2606ZM210.869 65.0798L211.512 65.8456L210.869 65.0798ZM102.326 61.7639L102.096 62.7369L102.326 61.7639ZM30.8965 62.332H92.1085V60.332H30.8965V62.332ZM13.6255 63.7783C15.3211 63.076 17.2832 62.7068 20.0214 62.52C22.7686 62.3326 26.2234 62.332 30.8965 62.332V60.332C26.2508 60.332 22.7164 60.3315 19.8853 60.5247C17.0452 60.7184 14.84 61.1105 12.8601 61.9306L13.6255 63.7783ZM3.34277 74.061C5.27116 69.4055 8.96997 65.7067 13.6255 63.7783L12.8601 61.9306C7.71454 64.0619 3.62639 68.1501 1.49501 73.2957L3.34277 74.061ZM1.89648 91.332C1.89648 86.6589 1.89703 83.2042 2.08447 80.457C2.27129 77.7188 2.64045 75.7566 3.34277 74.061L1.49501 73.2957C0.674926 75.2755 0.28288 77.4808 0.0891051 80.3208C-0.104057 83.1519 -0.103516 86.6863 -0.103516 91.332H1.89648ZM1.89648 465.332V91.332H-0.103516V465.332H1.89648ZM3.34277 482.603C2.64045 480.907 2.27129 478.945 2.08447 476.207C1.89703 473.46 1.89648 470.005 1.89648 465.332H-0.103516C-0.103516 469.978 -0.104057 473.512 0.0891051 476.343C0.28288 479.183 0.674926 481.389 1.49501 483.368L3.34277 482.603ZM13.6255 492.886C8.96996 490.957 5.27116 487.259 3.34277 482.603L1.49501 483.368C3.62639 488.514 7.71454 492.602 12.8601 494.733L13.6255 492.886ZM30.8965 494.332C26.2234 494.332 22.7686 494.331 20.0214 494.144C17.2832 493.957 15.3211 493.588 13.6255 492.886L12.8601 494.733C14.84 495.554 17.0452 495.946 19.8853 496.139C22.7164 496.333 26.2508 496.332 30.8965 496.332V494.332ZM284.896 494.332H30.8965V496.332H284.896V494.332ZM302.167 492.886C300.472 493.588 298.51 493.957 295.772 494.144C293.024 494.331 289.57 494.332 284.896 494.332V496.332C289.542 496.332 293.077 496.333 295.908 496.139C298.748 495.946 300.953 495.554 302.933 494.733L302.167 492.886ZM312.45 482.603C310.522 487.259 306.823 490.957 302.167 492.886L302.933 494.733C308.078 492.602 312.167 488.514 314.298 483.368L312.45 482.603ZM313.896 465.332C313.896 470.005 313.896 473.46 313.708 476.207C313.522 478.945 313.153 480.907 312.45 482.603L314.298 483.368C315.118 481.389 315.51 479.183 315.704 476.343C315.897 473.512 315.896 469.978 315.896 465.332H313.896ZM313.896 91.332V465.332H315.896V91.332H313.896ZM312.45 74.061C313.153 75.7566 313.522 77.7188 313.708 80.457C313.896 83.2042 313.896 86.6589 313.896 91.332H315.896C315.896 86.6863 315.897 83.1519 315.704 80.3208C315.51 77.4808 315.118 75.2755 314.298 73.2957L312.45 74.061ZM302.167 63.7783C306.823 65.7067 310.522 69.4055 312.45 74.061L314.298 73.2957C312.167 68.1501 308.078 64.0619 302.933 61.9306L302.167 63.7783ZM284.896 62.332C289.57 62.332 293.024 62.3326 295.772 62.52C298.51 62.7068 300.472 63.076 302.167 63.7783L302.933 61.9306C300.953 61.1105 298.748 60.7184 295.908 60.5247C293.077 60.3315 289.542 60.332 284.896 60.332V62.332ZM227.684 62.332H284.896V60.332H227.684V62.332ZM198.24 79.6639C189.867 90.9254 175.828 98.332 159.896 98.332V100.332C176.449 100.332 191.088 92.6354 199.845 80.8573L198.24 79.6639ZM159.896 98.332C143.965 98.332 129.926 90.9254 121.553 79.6639L119.948 80.8573C128.705 92.6354 143.344 100.332 159.896 100.332V98.332ZM227.684 60.332C224.892 60.332 222.774 60.3319 221.126 60.3866C219.484 60.441 218.247 60.551 217.236 60.7908L217.697 62.7369C218.507 62.5449 219.58 62.4389 221.192 62.3855C222.799 62.3322 224.878 62.332 227.684 62.332V60.332ZM199.845 80.8573C203.312 76.195 205.904 72.7091 207.809 70.2377C209.743 67.7278 210.896 66.3625 211.512 65.8456L210.226 64.3141C209.408 65.0007 208.113 66.5666 206.225 69.0168C204.307 71.5053 201.702 75.0081 198.24 79.6639L199.845 80.8573ZM217.236 60.7908C215.419 61.2218 214.365 61.4597 213.42 61.9346C212.475 62.4094 211.656 63.113 210.226 64.3141L211.512 65.8456C213.022 64.5773 213.633 64.0659 214.318 63.7216C215.003 63.3773 215.779 63.192 217.697 62.7369L217.236 60.7908ZM92.1085 62.332C94.9145 62.332 96.9941 62.3322 98.6007 62.3855C100.213 62.4389 101.286 62.5449 102.096 62.7369L102.557 60.7908C101.546 60.551 100.309 60.441 98.667 60.3866C97.0194 60.3319 94.9005 60.332 92.1085 60.332V62.332ZM121.553 79.6639C118.091 75.0081 115.486 71.5053 113.568 69.0168C111.68 66.5666 110.385 65.0007 109.567 64.3141L108.281 65.8456C108.896 66.3625 110.05 67.7278 111.984 70.2377C113.889 72.7091 116.481 76.195 119.948 80.8573L121.553 79.6639ZM102.096 62.7369C104.014 63.192 104.79 63.3773 105.475 63.7216C106.16 64.0659 106.771 64.5773 108.281 65.8456L109.567 64.3141C108.137 63.113 107.318 62.4094 106.373 61.9346C105.428 61.4597 104.374 61.2218 102.557 60.7908L102.096 62.7369Z" fill="#FF7F50" mask="url(#path-1-inside-1_2585_4262)"/>
<g filter="url(#filter0_d_2585_4262)">
<circle opacity="0.4" cx="160.396" cy="45.832" r="45.5" fill="#FF7F50"/>
<circle cx="160.397" cy="45.8324" r="30.3333" fill="url(#paint0_linear_2585_4262)"/>
<path d="M171.604 37.3922C171.239 37.4031 170.893 37.5556 170.638 37.8173L156.184 52.272L151.559 47.6476C151.43 47.5128 151.275 47.4052 151.103 47.3311C150.932 47.257 150.747 47.2178 150.56 47.2159C150.374 47.214 150.188 47.2494 150.015 47.32C149.842 47.3906 149.685 47.4951 149.553 47.6272C149.421 47.7593 149.316 47.9165 149.246 48.0894C149.175 48.2624 149.14 48.4477 149.142 48.6346C149.144 48.8214 149.183 49.006 149.257 49.1775C149.331 49.349 149.439 49.504 149.573 49.6334L155.191 55.2507C155.454 55.5139 155.811 55.6618 156.184 55.6618C156.556 55.6618 156.913 55.5139 157.176 55.2507L172.624 39.8031C172.827 39.6059 172.966 39.3519 173.022 39.0746C173.078 38.7972 173.049 38.5093 172.938 38.2487C172.828 37.9881 172.642 37.7668 172.404 37.614C172.165 37.4612 171.887 37.3839 171.604 37.3922Z" fill="white"/>
</g>
<defs>
<filter id="filter0_d_2585_4262" x="110.896" y="0.332031" width="99" height="99" filterUnits="userSpaceOnUse" color-interpolation-filters="sRGB">
<feFlood flood-opacity="0" result="BackgroundImageFix"/>
<feColorMatrix in="SourceAlpha" type="matrix" values="0 0 0 0 0 0 0 0 0 0 0 0 0 0 0 0 0 0 127 0" result="hardAlpha"/>
<feOffset dy="4"/>
<feGaussianBlur stdDeviation="2"/>
<feComposite in2="hardAlpha" operator="out"/>
<feColorMatrix type="matrix" values="0 0 0 0 0 0 0 0 0 0 0 0 0 0 0 0 0 0 0.25 0"/>
<feBlend mode="normal" in2="BackgroundImageFix" result="effect1_dropShadow_2585_4262"/>
<feBlend mode="normal" in="SourceGraphic" in2="effect1_dropShadow_2585_4262" result="shape"/>
</filter>
<linearGradient id="paint0_linear_2585_4262" x1="117.627" y1="45.8324" x2="201.624" y2="72.0346" gradientUnits="userSpaceOnUse">
<stop stop-color="#FF7F50"/>
<stop offset="1" stop-color="#FFDB58"/>
</linearGradient>
</defs>
</svg>
