<svg width="39" height="38" viewBox="0 0 39 38" fill="none" xmlns="http://www.w3.org/2000/svg">
<path d="M18.613 37.762C2.11177 26.9675 0.144428 8.0271 0 6.30759C8.7924 0.531507 16.7321 0.237915 18.24 0.237915C18.4715 0.237915 18.5954 0.244274 18.5989 0.244274C18.6235 0.244274 18.7545 0.237915 19 0.237915C20.59 0.237915 28.9638 0.532086 38.2349 6.31068C38.0789 8.05569 35.9919 26.9799 18.613 37.762Z" fill="#FF7F50"/>
<path d="M18.6507 35.5408C5.14105 26.2823 2.51982 11.2635 2.0625 7.43189C9.95852 2.46661 16.9281 2.20935 18.2743 2.20935C18.4429 2.20935 18.5413 2.21329 18.5632 2.2142C18.5802 2.21502 18.6793 2.21449 18.692 2.21393C18.7409 2.21233 18.8445 2.20935 19.0043 2.20935C20.4308 2.20935 27.8129 2.4681 36.1655 7.45183C35.6712 11.3238 32.8773 26.311 18.6507 35.5408Z" fill="#FFF3EE"/>
<path d="M18.5 36C6.5 26 4.27271 17.0203 3.28613 13.5386C7.77271 12.5203 8.27271 11.0203 9.77271 10.5203C12.7727 11.0203 13.7521 10.5193 13.7727 10.5203L18.7727 9.52026C20.7727 10.0203 24.7727 10.5203 27.2727 10.5203C28.655 10.5203 29.7727 10.5203 34.9401 13.5616C33.7727 17.0203 31 27 18.5 36Z" fill="url(#paint0_linear_716_9278)"/>
<path d="M14 20L18 24L26.0141 16" stroke="white" stroke-width="2.12014" stroke-linecap="round" stroke-linejoin="round"/>
<defs>
<linearGradient id="paint0_linear_716_9278" x1="-3.20294" y1="22.7601" x2="39.0182" y2="38.5042" gradientUnits="userSpaceOnUse">
<stop stop-color="#FF7F50"/>
<stop offset="1" stop-color="#FFDB58"/>
</linearGradient>
</defs>
</svg>
