<svg width="66" height="50" viewBox="0 0 66 50" fill="none" xmlns="http://www.w3.org/2000/svg">
<path d="M56.5175 0C51.5165 0 47.4582 4.0527 47.4526 9.05367C47.4526 10.6793 47.8872 12.2766 48.7169 13.6764L47.5033 17.018C47.3453 17.4469 47.5654 17.9211 47.9944 18.0735C48.0847 18.1073 48.1807 18.1243 48.2766 18.1243C48.3726 18.1243 48.4685 18.1073 48.5589 18.0735L51.9004 16.8599C56.2071 19.4112 61.7668 17.9888 64.3181 13.6821C66.8694 9.3754 65.447 3.81564 61.1403 1.26435C59.7405 0.434624 58.1431 0 56.5175 0Z" fill="url(#paint0_linear_840_12652)"/>
<path d="M55.9389 3.85645H51.3096V8.48581H55.9389V3.85645ZM55.2436 7.79052H52.0049V4.55173H55.2436V7.79052Z" fill="black"/>
<path d="M54.5528 5.24707H52.7002V7.0997H54.5528V5.24707Z" fill="black"/>
<path d="M55.9389 9.25879H51.3096V13.8881H55.9389V9.25879ZM55.2436 13.1929H52.0049V9.95407H55.2436V13.1929Z" fill="black"/>
<path d="M54.5528 10.6494H52.7002V12.502H54.5528V10.6494Z" fill="black"/>
<path d="M61.7241 3.85645H57.0947V8.48581H61.7241V3.85645ZM61.0288 7.79052H57.79V4.55173H61.0288V7.79052Z" fill="black"/>
<path d="M60.336 5.24707H58.4834V7.0997H60.336V5.24707Z" fill="black"/>
<path d="M61.7241 9.25879H57.0947V13.8881H61.7241V9.25879ZM61.0288 13.1929H57.79V9.95407H61.0288V13.1929Z" fill="black"/>
<path d="M60.336 10.6494H58.4834V12.502H60.336V10.6494Z" fill="black"/>
<path fill-rule="evenodd" clip-rule="evenodd" d="M24.1013 49.6526L30.6418 36.1979L30.6407 36.1956L35.1213 26.9759L46.1419 49.6526L50.1415 41.4251C51.6976 38.2238 51.6976 34.1719 50.1415 30.9707L41.6609 13.5197L41.6616 13.5182L36.6646 3.23861L35.1215 0.0634766L35.1213 0.0639317L35.1211 0.0634766L24.1005 22.7354L15.3726 4.77263C13.9502 1.84197 11.4337 0.0634766 8.72875 0.0634766H0L22.606 46.576L24.1007 49.6526L24.101 49.652L24.1013 49.6526Z" fill="url(#paint1_linear_840_12652)"/>
<defs>
<linearGradient id="paint0_linear_840_12652" x1="43.7349" y1="9.06354" x2="68.8401" y2="16.8975" gradientUnits="userSpaceOnUse">
<stop stop-color="#FF7F50"/>
<stop offset="1" stop-color="#FFDB58"/>
</linearGradient>
<linearGradient id="paint1_linear_840_12652" x1="-10.5183" y1="24.858" x2="60.0808" y2="47.6444" gradientUnits="userSpaceOnUse">
<stop stop-color="#FF7F50"/>
<stop offset="1" stop-color="#FFDB58"/>
</linearGradient>
</defs>
</svg>
