<svg width="191" height="29" viewBox="0 0 191 29" fill="none" xmlns="http://www.w3.org/2000/svg">
<path d="M32.0219 0.0229492C29.1885 0.0229492 26.8892 2.31911 26.886 5.15252C26.886 6.07354 27.1322 6.97857 27.6023 7.77167L26.9148 9.66488C26.8252 9.90793 26.9499 10.1766 27.193 10.2629C27.2441 10.2821 27.2985 10.2917 27.3529 10.2917C27.4072 10.2917 27.4616 10.2821 27.5128 10.2629L29.406 9.57533C31.846 11.0208 34.9961 10.2149 36.4416 7.77487C37.887 5.33481 37.0812 2.18479 34.6411 0.7393C33.848 0.269196 32.943 0.0229492 32.0219 0.0229492Z" fill="url(#paint0_linear_769_11218)"/>
<path d="M31.6932 2.2085H29.0703V4.83137H31.6932V2.2085ZM31.2993 4.43744H29.4642V2.60243H31.2993V4.43744Z" fill="white"/>
<path d="M30.908 2.99609H29.8584V4.04574H30.908V2.99609Z" fill="white"/>
<path d="M31.6932 5.26855H29.0703V7.89143H31.6932V5.26855ZM31.2993 7.4975H29.4642V5.66249H31.2993V7.4975Z" fill="white"/>
<path d="M30.908 6.05664H29.8584V7.10629H30.908V6.05664Z" fill="white"/>
<path d="M34.9725 2.2085H32.3496V4.83137H34.9725V2.2085ZM34.5786 4.43744H32.7435V2.60243H34.5786V4.43744Z" fill="white"/>
<path d="M34.1864 2.99658H33.1367V4.04623H34.1864V2.99658Z" fill="white"/>
<path d="M34.9725 5.26855H32.3496V7.89143H34.9725V5.26855ZM34.5786 7.4975H32.7435V5.66249H34.5786V7.4975Z" fill="white"/>
<path d="M34.1864 6.05664H33.1367V7.10629H34.1864V6.05664Z" fill="white"/>
<path fill-rule="evenodd" clip-rule="evenodd" d="M13.6552 28.1535L17.3609 20.5304L17.3603 20.5292L19.899 15.3054L26.1431 28.1536L28.4092 23.4921C29.2908 21.6783 29.2908 19.3826 28.4092 17.5689L23.6041 7.6814L23.6045 7.68074L21.3684 3.08092L19.8992 0.0576509L19.899 0.0580844L19.8988 0.0576509L13.6548 12.903L8.7097 2.7257C7.90382 1.06527 6.47803 0.0576172 4.94548 0.0576172H0L12.9947 26.7946L13.6549 28.1536L13.6551 28.1533L13.6552 28.1535Z" fill="url(#paint1_linear_769_11218)"/>
<path d="M56.1109 28.7324L54.3221 24.3117H44.2095L46.6622 18.1652H51.8661L48.1855 8.9255L40.2933 28.728H33.8945L44.9032 2.11964C45.5006 0.703597 46.3635 0 47.4886 0H48.8161C49.9445 0 50.8041 0.708022 51.4015 2.11964L62.4101 28.7324H56.1109Z" fill="#FFD198"/>
<path d="M65.6895 28.7324V0H81.2715C85.9145 0 87.7698 3.27018 87.7698 7.55814C87.7698 10.5186 86.8737 12.7754 85.3503 13.5719C87.0396 14.2799 88.3008 16.6651 88.3008 20.2893C88.3008 25.4622 85.7486 28.7324 81.1387 28.7324H65.6895ZM73.4157 17.1961V11.2708H80.5446C81.5403 11.2708 82.1344 10.5186 82.1344 9.19101C82.1344 7.86347 81.537 7.15545 80.5446 7.15545H71.4941V21.5283H80.8433C81.9386 21.5283 82.5658 20.776 82.5658 19.4485C82.5658 18.0324 81.9684 17.1961 80.8765 17.1961H73.4157Z" fill="#FFD198"/>
<path d="M91.5791 28.7324V0H97.3805V28.7324H91.5791Z" fill="#FFD198"/>
<path d="M100.925 28.7324V21.307H117.038C117.867 21.307 118.465 20.599 118.465 19.36C118.465 18.1209 117.867 17.3687 117.038 17.3687H107.556C103.543 17.3687 100.659 13.833 100.659 8.70425C100.659 3.57551 103.543 0 107.556 0H123.934V7.38113H107.821C106.992 7.38113 106.427 8.0449 106.427 9.27952C106.427 10.5141 106.992 11.2266 107.821 11.2266H117.303C121.349 11.2266 124.233 14.8065 124.233 19.9352C124.233 25.064 121.349 28.7324 117.303 28.7324H100.925Z" fill="#FFD198"/>
<path d="M149.727 28.7324L147.938 24.3117H137.826L140.278 18.1652H145.482L141.802 8.9255L133.909 28.728H127.511L138.523 2.11964C139.12 0.703597 139.983 0 141.108 0H142.436C143.564 0 144.424 0.708022 145.021 2.11964L156.03 28.7324H149.73H149.727Z" fill="#FFD198"/>
<path d="M159.309 28.7324V0H174.891C179.534 0 181.389 3.27018 181.389 7.55814C181.389 10.5186 180.493 12.7754 178.969 13.5719C180.662 14.2799 181.92 16.6651 181.92 20.2893C181.92 25.4622 179.368 28.7324 174.758 28.7324H159.309ZM167.035 17.1961V11.2708H174.164C175.159 11.2708 175.757 10.5186 175.757 9.19101C175.757 7.86347 175.159 7.15545 174.164 7.15545H165.113V21.5283H174.462C175.558 21.5283 176.185 20.776 176.185 19.4485C176.185 18.0324 175.588 17.1961 174.496 17.1961H167.035Z" fill="#FFD198"/>
<path d="M185.198 28.7324V0H191V28.7324H185.198Z" fill="#FFD198"/>
<defs>
<linearGradient id="paint0_linear_769_11218" x1="24.7796" y1="5.15812" x2="39.0036" y2="9.59662" gradientUnits="userSpaceOnUse">
<stop stop-color="#FF7F50"/>
<stop offset="1" stop-color="#FFDB58"/>
</linearGradient>
<linearGradient id="paint1_linear_769_11218" x1="-5.9594" y1="14.1056" x2="34.0402" y2="27.0158" gradientUnits="userSpaceOnUse">
<stop stop-color="#FF7F50"/>
<stop offset="1" stop-color="#FFDB58"/>
</linearGradient>
</defs>
</svg>
