<svg width="147" height="24" viewBox="0 0 147 24" fill="none" xmlns="http://www.w3.org/2000/svg">
<path d="M24.6444 0.961426C22.4637 0.961426 20.694 2.72863 20.6916 4.90932C20.6916 5.61816 20.8811 6.3147 21.2429 6.9251L20.7137 8.38218C20.6448 8.56924 20.7408 8.77598 20.9279 8.84244C20.9672 8.8572 21.0091 8.86459 21.0509 8.86459C21.0928 8.86459 21.1346 8.8572 21.174 8.84244L22.6311 8.31326C24.509 9.42576 26.9334 8.80552 28.0459 6.92756C29.1584 5.04961 28.5381 2.62525 26.6602 1.51275C26.0498 1.15095 25.3532 0.961426 24.6444 0.961426Z" fill="white"/>
<path d="M24.3927 2.64355H22.374V4.66221H24.3927V2.64355ZM24.0895 4.35903H22.6772V2.94674H24.0895V4.35903Z" fill="black"/>
<path d="M23.7883 3.25H22.9805V4.05785H23.7883V3.25Z" fill="black"/>
<path d="M24.3927 4.99902H22.374V7.01768H24.3927V4.99902ZM24.0895 6.71449H22.6772V5.30221H24.0895V6.71449Z" fill="black"/>
<path d="M23.7883 5.60547H22.9805V6.41331H23.7883V5.60547Z" fill="black"/>
<path d="M26.9151 2.64355H24.8965V4.66221H26.9151V2.64355ZM26.612 4.35903H25.1997V2.94674H26.612V4.35903Z" fill="black"/>
<path d="M26.3098 3.25H25.502V4.05785H26.3098V3.25Z" fill="black"/>
<path d="M26.9151 4.99902H24.8965V7.01768H26.9151V4.99902ZM26.612 6.71449H25.1997V5.30221H26.612V6.71449Z" fill="black"/>
<path d="M26.3098 5.60547H25.502V6.41331H26.3098V5.60547Z" fill="black"/>
<path fill-rule="evenodd" clip-rule="evenodd" d="M10.5095 22.6113L13.3615 16.7444L13.3611 16.7435L15.315 12.723L20.1206 22.6114L21.8647 19.0238C22.5432 17.6279 22.5432 15.861 21.8647 14.4651L18.1666 6.85537L18.1668 6.85486L16.4456 3.31402L15.3151 0.987875L15.315 0.988208L15.3148 0.987875L10.5092 10.8741L6.70328 3.04124C6.08304 1.76331 4.98571 0.987793 3.80621 0.987793H0L9.99581 21.5544L10.5093 22.6114L10.5094 22.6112L10.5095 22.6113Z" fill="white"/>
<path d="M43.1844 23.0568L41.8077 19.6545H34.0247L35.9123 14.9239H39.9175L37.0848 7.81273L31.0106 23.0534H26.0859L34.5586 2.57471C35.0183 1.48487 35.6824 0.943359 36.5484 0.943359H37.5701C38.4385 0.943359 39.1001 1.48828 39.5599 2.57471L48.0325 23.0568H43.1844Z" fill="#FFE8CB"/>
<path d="M50.5566 23.0568V0.943359H62.5491C66.1225 0.943359 67.5504 3.4602 67.5504 6.76035C67.5504 9.03879 66.8607 10.7757 65.6883 11.3887C66.9885 11.9337 67.9591 13.7694 67.9591 16.5587C67.9591 20.54 65.9948 23.0568 62.4469 23.0568H50.5566ZM56.5031 14.178V9.61776H61.9897C62.756 9.61776 63.2132 9.03879 63.2132 8.01707C63.2132 6.99535 62.7534 6.45043 61.9897 6.45043H55.0241V17.5123H62.2196C63.0625 17.5123 63.5453 16.9333 63.5453 15.9116C63.5453 14.8217 63.0855 14.178 62.2451 14.178H56.5031Z" fill="#FFE8CB"/>
<path d="M70.4824 23.0568V0.943359H74.9473V23.0568H70.4824Z" fill="#FFE8CB"/>
<path d="M77.675 23.0568V17.342H90.0762C90.7147 17.342 91.1745 16.7971 91.1745 15.8434C91.1745 14.8898 90.7147 14.3109 90.0762 14.3109H82.7785C79.6904 14.3109 77.4707 11.5897 77.4707 7.64244C77.4707 3.69519 79.6904 0.943359 82.7785 0.943359H95.384V6.62412H82.9829C82.3443 6.62412 81.9101 7.13498 81.9101 8.08518C81.9101 9.03538 82.3443 9.58371 82.9829 9.58371H90.2805C93.3942 9.58371 95.6139 12.3389 95.6139 16.2862C95.6139 20.2334 93.3942 23.0568 90.2805 23.0568H77.675Z" fill="#FFE8CB"/>
<path d="M115.235 23.0568L113.858 19.6545H106.075L107.963 14.9239H111.968L109.136 7.81273L103.061 23.0534H98.1367L106.612 2.57471C107.072 1.48487 107.736 0.943359 108.602 0.943359H109.623C110.492 0.943359 111.153 1.48828 111.613 2.57471L120.086 23.0568H115.238H115.235Z" fill="#FFE8CB"/>
<path d="M122.609 23.0568V0.943359H134.602C138.175 0.943359 139.603 3.4602 139.603 6.76035C139.603 9.03879 138.913 10.7757 137.741 11.3887C139.044 11.9337 140.012 13.7694 140.012 16.5587C140.012 20.54 138.048 23.0568 134.5 23.0568H122.609ZM128.556 14.178V9.61776H134.042C134.809 9.61776 135.268 9.03879 135.268 8.01707C135.268 6.99535 134.809 6.45043 134.042 6.45043H127.077V17.5123H134.272C135.115 17.5123 135.598 16.9333 135.598 15.9116C135.598 14.8217 135.138 14.178 134.298 14.178H128.556Z" fill="#FFE8CB"/>
<path d="M142.535 23.0568V0.943359H147V23.0568H142.535Z" fill="#FFE8CB"/>
</svg>
