<svg width="5" height="22" viewBox="0 0 5 22" fill="none" xmlns="http://www.w3.org/2000/svg">
<path d="M0.15387 11C0.15387 12.3359 1.24102 13.4231 2.57695 13.4231C3.91287 13.4231 5.00002 12.3359 5.00002 11C5.00002 9.66407 3.91287 8.57692 2.57695 8.57692C1.24102 8.57692 0.15387 9.66407 0.15387 11Z" fill="#12454F"/>
<path d="M0.15387 19.0769C0.15387 20.4128 1.24102 21.5 2.57695 21.5C3.91287 21.5 5.00002 20.4128 5.00002 19.0769C5.00002 17.741 3.91287 16.6538 2.57695 16.6538C1.24102 16.6538 0.15387 17.741 0.15387 19.0769Z" fill="#12454F"/>
<path d="M0.153854 2.92308C0.153854 4.259 1.24101 5.34615 2.57693 5.34615C3.91285 5.34615 5.00001 4.259 5.00001 2.92308C5.00001 1.58715 3.91285 0.5 2.57693 0.5C1.24101 0.5 0.153854 1.58715 0.153854 2.92308Z" fill="#12454F"/>
</svg>
