<svg width="21" height="21" viewBox="0 0 21 21" fill="none" xmlns="http://www.w3.org/2000/svg">
<path d="M4.375 8.75C3.4125 8.75 2.625 9.5375 2.625 10.5C2.625 11.4625 3.4125 12.25 4.375 12.25C5.3375 12.25 6.125 11.4625 6.125 10.5C6.125 9.5375 5.3375 8.75 4.375 8.75Z" stroke="#1C1C1C" stroke-width="1.3125"/>
<path d="M16.625 8.75C15.6625 8.75 14.875 9.5375 14.875 10.5C14.875 11.4625 15.6625 12.25 16.625 12.25C17.5875 12.25 18.375 11.4625 18.375 10.5C18.375 9.5375 17.5875 8.75 16.625 8.75Z" stroke="#1C1C1C" stroke-width="1.3125"/>
<path d="M10.5 8.75C9.5375 8.75 8.75 9.5375 8.75 10.5C8.75 11.4625 9.5375 12.25 10.5 12.25C11.4625 12.25 12.25 11.4625 12.25 10.5C12.25 9.5375 11.4625 8.75 10.5 8.75Z" stroke="#1C1C1C" stroke-width="1.3125"/>
</svg>
