<svg width="50" height="50" viewBox="0 0 50 50" fill="none" xmlns="http://www.w3.org/2000/svg">
<rect width="50" height="50" rx="25" fill="#FFF3EE"/>
<path d="M26.4421 17.925L27.9087 20.8583C28.1087 21.2667 28.6421 21.6583 29.0921 21.7333L31.7504 22.175C33.4504 22.4583 33.8504 23.6917 32.6254 24.9083L30.5587 26.975C30.2087 27.325 30.0171 28 30.1254 28.4833L30.7171 31.0417C31.1837 33.0667 30.1087 33.85 28.3171 32.7917L25.8254 31.3167C25.3754 31.05 24.6337 31.05 24.1754 31.3167L21.6837 32.7917C19.9004 33.85 18.8171 33.0583 19.2837 31.0417L19.8754 28.4833C19.9837 28 19.7921 27.325 19.4421 26.975L17.3754 24.9083C16.1587 23.6917 16.5504 22.4583 18.2504 22.175L20.9087 21.7333C21.3504 21.6583 21.8837 21.2667 22.0837 20.8583L23.5504 17.925C24.3504 16.3333 25.6504 16.3333 26.4421 17.925Z" stroke="#FF7F50" stroke-width="1.25" stroke-linecap="round" stroke-linejoin="round"/>
</svg>
