<svg width="50" height="50" viewBox="0 0 50 50" fill="none" xmlns="http://www.w3.org/2000/svg">
<rect width="50" height="50" rx="25" fill="#FFF3EE"/>
<path d="M33.3337 25V29.1667C33.3337 31.6667 31.667 33.3334 29.167 33.3334H20.8337C18.3337 33.3334 16.667 31.6667 16.667 29.1667V25C16.667 22.7334 18.0337 21.15 20.1587 20.8834C20.3753 20.85 20.6003 20.8334 20.8337 20.8334H29.167C29.3837 20.8334 29.592 20.8417 29.792 20.875C31.942 21.125 33.3337 22.7167 33.3337 25Z" stroke="#FF7F50" stroke-width="1.25" stroke-linecap="round" stroke-linejoin="round"/>
<path d="M29.7925 20.875C29.5925 20.8416 29.3842 20.8333 29.1675 20.8333H20.8342C20.6008 20.8333 20.3758 20.85 20.1592 20.8833C20.2758 20.65 20.4425 20.4333 20.6425 20.2333L23.3508 17.5166C24.4925 16.3833 26.3425 16.3833 27.4842 17.5166L28.9425 18.9916C29.4758 19.5166 29.7592 20.1833 29.7925 20.875Z" stroke="#FF7F50" stroke-width="1.25" stroke-linecap="round" stroke-linejoin="round"/>
<path d="M33.3337 25.4166H30.8337C29.917 25.4166 29.167 26.1666 29.167 27.0833C29.167 28 29.917 28.75 30.8337 28.75H33.3337" stroke="#FF7F50" stroke-width="1.25" stroke-linecap="round" stroke-linejoin="round"/>
</svg>
