<svg width="50" height="50" viewBox="0 0 50 50" fill="none" xmlns="http://www.w3.org/2000/svg">
<rect width="50" height="50" rx="25" fill="#FFF3EE"/>
<path d="M25.0165 17.4249C22.2582 17.4249 20.0165 19.6666 20.0165 22.4249V24.8333C20.0165 25.3416 19.7998 26.1166 19.5415 26.5499L18.5832 28.1416C17.9915 29.1249 18.3998 30.2166 19.4832 30.5833C23.0748 31.7833 26.9498 31.7833 30.5415 30.5833C31.5498 30.2499 31.9915 29.0583 31.4415 28.1416L30.4832 26.5499C30.2332 26.1166 30.0165 25.3416 30.0165 24.8333V22.4249C30.0165 19.6749 27.7665 17.4249 25.0165 17.4249Z" stroke="#FF7F50" stroke-width="1.25" stroke-miterlimit="10" stroke-linecap="round"/>
<path d="M26.5579 17.6667C26.2996 17.5917 26.0329 17.5334 25.7579 17.5C24.9579 17.4 24.1913 17.4584 23.4746 17.6667C23.7163 17.05 24.3163 16.6167 25.0163 16.6167C25.7163 16.6167 26.3163 17.05 26.5579 17.6667Z" stroke="#FF7F50" stroke-width="1.25" stroke-miterlimit="10" stroke-linecap="round" stroke-linejoin="round"/>
<path d="M27.5166 30.8833C27.5166 32.2583 26.3916 33.3833 25.0166 33.3833C24.3333 33.3833 23.6999 33.1 23.2499 32.65C22.7999 32.2 22.5166 31.5666 22.5166 30.8833" stroke="#FF7F50" stroke-width="1.25" stroke-miterlimit="10"/>
</svg>
