<svg width="346" height="22" viewBox="0 0 346 22" fill="none" xmlns="http://www.w3.org/2000/svg">
<path d="M170.388 16.098C169.482 16.098 168.656 15.888 167.91 15.468C167.163 15.0387 166.57 14.446 166.132 13.69C165.702 12.9247 165.488 12.066 165.488 11.114C165.488 10.162 165.702 9.308 166.132 8.552C166.57 7.78667 167.163 7.194 167.91 6.774C168.656 6.34467 169.482 6.13 170.388 6.13C171.302 6.13 172.133 6.34467 172.88 6.774C173.626 7.194 174.214 7.782 174.644 8.538C175.073 9.294 175.288 10.1527 175.288 11.114C175.288 12.0753 175.073 12.934 174.644 13.69C174.214 14.446 173.626 15.0387 172.88 15.468C172.133 15.888 171.302 16.098 170.388 16.098ZM170.388 14.992C171.069 14.992 171.68 14.8333 172.222 14.516C172.772 14.1987 173.202 13.746 173.51 13.158C173.827 12.57 173.986 11.8887 173.986 11.114C173.986 10.33 173.827 9.64867 173.51 9.07C173.202 8.482 172.777 8.02933 172.236 7.712C171.694 7.39467 171.078 7.236 170.388 7.236C169.697 7.236 169.081 7.39467 168.54 7.712C167.998 8.02933 167.569 8.482 167.252 9.07C166.944 9.64867 166.79 10.33 166.79 11.114C166.79 11.8887 166.944 12.57 167.252 13.158C167.569 13.746 167.998 14.1987 168.54 14.516C169.09 14.8333 169.706 14.992 170.388 14.992ZM178.244 9.574C178.468 9.13533 178.785 8.79467 179.196 8.552C179.616 8.30933 180.124 8.188 180.722 8.188V9.504H180.386C178.958 9.504 178.244 10.2787 178.244 11.828V16H176.97V8.328H178.244V9.574Z" fill="#262626"/>
<line x1="192.5" y1="13.5" x2="345.5" y2="13.5" stroke="#E0E5EC"/>
<line x1="0.5" y1="13.5" x2="153.5" y2="13.5" stroke="#E0E5EC"/>
</svg>
