<svg width="16" height="19" viewBox="0 0 16 19" fill="none" xmlns="http://www.w3.org/2000/svg">
<path fill-rule="evenodd" clip-rule="evenodd" d="M12.9383 14.927C12.9383 15.3015 12.6344 15.6054 12.2599 15.6054H4.07193C3.69747 15.6054 3.39355 15.3015 3.39355 14.927C3.39355 14.927 3.39355 14.6672 3.39355 14.2975C3.39355 12.531 4.82561 11.0996 6.59142 11.0996H9.74044C11.5062 11.0996 12.9383 12.531 12.9383 14.2975V14.927ZM11.5809 14.2486C11.5551 13.2541 10.741 12.4564 9.74044 12.4564C8.73983 12.4564 7.59202 12.4564 6.59142 12.4564C5.59081 12.4564 4.77676 13.2541 4.75098 14.2486H11.5809Z" fill="black"/>
<path fill-rule="evenodd" clip-rule="evenodd" d="M8.16628 5.41064C6.74916 5.41064 5.59863 6.56117 5.59863 7.9783C5.59863 9.39542 6.74916 10.5459 8.16628 10.5459C9.58341 10.5459 10.7339 9.39542 10.7339 7.9783C10.7339 6.56117 9.58341 5.41064 8.16628 5.41064ZM8.16628 6.7674C8.83448 6.7674 9.37718 7.3101 9.37718 7.9783C9.37718 8.6465 8.83448 9.1892 8.16628 9.1892C7.49808 9.1892 6.95538 8.6465 6.95538 7.9783C6.95538 7.3101 7.49808 6.7674 8.16628 6.7674Z" fill="black"/>
<path fill-rule="evenodd" clip-rule="evenodd" d="M6.12955 4.05353H10.2025C10.577 4.05353 10.8809 3.74962 10.8809 3.37515C10.8809 3.00069 10.577 2.69678 10.2025 2.69678H6.12955C5.75508 2.69678 5.45117 3.00069 5.45117 3.37515C5.45117 3.74962 5.75508 4.05353 6.12955 4.05353Z" fill="black"/>
<path fill-rule="evenodd" clip-rule="evenodd" d="M15.6284 2.7135C15.6284 1.21497 14.4134 0 12.9149 0C10.3533 0 5.97915 0 3.4176 0C1.91907 0 0.704102 1.21497 0.704102 2.7135V16.2864C0.704102 17.785 1.91907 18.9999 3.4176 18.9999H12.9149C14.4134 18.9999 15.6284 17.785 15.6284 16.2864V2.7135ZM14.2716 2.7135C14.2716 1.9639 13.6645 1.35675 12.9149 1.35675C10.3533 1.35675 5.97915 1.35675 3.4176 1.35675C2.668 1.35675 2.06085 1.9639 2.06085 2.7135V16.2864C2.06085 17.036 2.668 17.6432 3.4176 17.6432H12.9149C13.6645 17.6432 14.2716 17.036 14.2716 16.2864V2.7135Z" fill="black"/>
</svg>
