<svg width="50" height="50" viewBox="0 0 50 50" fill="none" xmlns="http://www.w3.org/2000/svg">
<rect width="50" height="50" rx="25" fill="#FFF3EE"/>
<path d="M15.4767 22.8571L15.4761 22.8571C15.4277 22.8571 15.3804 22.8424 15.3406 22.8148C15.3008 22.7873 15.2703 22.7482 15.2533 22.7029C15.2363 22.6575 15.2335 22.6081 15.2453 22.5611C15.2571 22.5141 15.283 22.4719 15.3195 22.44L15.3197 22.4399L19.1292 19.1066L19.1295 19.1063C19.1687 19.0719 19.2182 19.0513 19.2703 19.0479C19.3224 19.0445 19.3742 19.0584 19.4176 19.0874L19.4179 19.0876L21.9504 20.7759L22.1128 20.8842L22.2509 20.7461L27.6874 15.3094C27.6876 15.3092 27.6878 15.309 27.688 15.3088C27.7327 15.2652 27.7928 15.2409 27.8552 15.2412C27.918 15.2415 27.9781 15.2665 28.0225 15.3109L28.1901 15.1432L28.0225 15.3109C28.0668 15.3553 28.0919 15.4154 28.0922 15.4782C28.0925 15.5406 28.0682 15.6007 28.0246 15.6454C28.0244 15.6456 28.0242 15.6458 28.024 15.646L22.3113 21.3588C22.2723 21.3977 22.2211 21.4219 22.1664 21.4273L22.1898 21.6643L22.1664 21.4273C22.1116 21.4328 22.0566 21.419 22.0108 21.3885L19.4569 19.6861L19.3053 19.585L19.1681 19.705L15.633 22.7981L15.6326 22.7985C15.5895 22.8364 15.5341 22.8572 15.4767 22.8571Z" fill="#FF7F50" stroke="#FF7F50" stroke-width="0.476188"/>
<path d="M27.619 17.8572V17.8572V15.9524V15.7143H27.3809H25.4762C25.413 15.7143 25.3525 15.6893 25.3078 15.6446C25.2632 15.6 25.2381 15.5394 25.2381 15.4762C25.2381 15.4131 25.2632 15.3525 25.3078 15.3079C25.3525 15.2632 25.413 15.2382 25.4762 15.2382L27.8571 15.2382L27.8572 15.2382C27.8884 15.2381 27.9194 15.2443 27.9483 15.2563L28.0394 15.0363L27.9483 15.2563C27.9772 15.2682 28.0034 15.2857 28.0255 15.3079L28.1934 15.14L28.0255 15.3079C28.0476 15.33 28.0652 15.3562 28.0771 15.3851C28.0891 15.414 28.0952 15.4449 28.0952 15.4762V15.4762V17.8572V17.8572C28.0952 17.8885 28.0891 17.9195 28.0771 17.9483L28.2971 18.0394L28.0771 17.9483C28.0652 17.9772 28.0476 18.0035 28.0255 18.0256C28.0034 18.0477 27.9772 18.0652 27.9483 18.0772C27.9194 18.0891 27.8884 18.0953 27.8572 18.0953H27.8571C27.8258 18.0953 27.7948 18.0891 27.766 18.0772C27.7371 18.0652 27.7108 18.0477 27.6887 18.0256C27.6666 18.0035 27.6491 17.9772 27.6371 17.9483L27.4172 18.0394L27.6371 17.9483C27.6252 17.9195 27.619 17.8885 27.619 17.8572Z" fill="#FF7F50" stroke="#FF7F50" stroke-width="0.476188"/>
<path d="M29.7613 28.3333C29.6988 28.3333 29.6369 28.321 29.5791 28.2971C29.5213 28.2732 29.4688 28.2381 29.4246 28.1939C29.3804 28.1497 29.3453 28.0972 29.3214 28.0394C29.2974 27.9816 29.2851 27.9197 29.2852 27.8571V22.1429C29.2852 22.0166 29.3353 21.8955 29.4246 21.8062C29.5139 21.7169 29.6351 21.6667 29.7613 21.6667C29.8876 21.6667 30.0088 21.7169 30.0981 21.8062C30.1874 21.8955 30.2375 22.0166 30.2375 22.1429V27.8571C30.2375 27.9197 30.2252 27.9816 30.2013 28.0394C30.1774 28.0972 30.1423 28.1497 30.0981 28.1939C30.0539 28.2381 30.0014 28.2732 29.9436 28.2971C29.8858 28.321 29.8239 28.3333 29.7613 28.3333Z" fill="#FF7F50"/>
<path d="M29.762 25.4762C29.3237 25.5022 28.8928 25.3543 28.5629 25.0645C28.233 24.7748 28.0307 24.3666 28 23.9286C28.0307 23.4906 28.233 23.0824 28.5629 22.7926C28.8928 22.5029 29.3237 22.355 29.762 22.381C30.2003 22.355 30.6312 22.5029 30.9611 22.7926C31.291 23.0824 31.4932 23.4906 31.524 23.9286C31.524 24.0549 31.4738 24.176 31.3845 24.2653C31.2952 24.3546 31.1741 24.4048 31.0478 24.4048C30.9215 24.4048 30.8004 24.3546 30.7111 24.2653C30.6218 24.176 30.5716 24.0549 30.5716 23.9286C30.5716 23.6059 30.201 23.3334 29.762 23.3334C29.323 23.3334 28.9524 23.6059 28.9524 23.9286C28.9524 24.2513 29.323 24.5238 29.762 24.5238C29.8883 24.5238 30.0094 24.574 30.0987 24.6633C30.188 24.7526 30.2382 24.8737 30.2382 25C30.2382 25.1263 30.188 25.2474 30.0987 25.3367C30.0094 25.426 29.8883 25.4762 29.762 25.4762Z" fill="#FF7F50"/>
<path d="M29.762 27.6191C29.3237 27.6451 28.8928 27.4972 28.5629 27.2074C28.233 26.9177 28.0307 26.5095 28 26.0715C28 25.9452 28.0502 25.8241 28.1395 25.7348C28.2288 25.6455 28.3499 25.5953 28.4762 25.5953C28.6025 25.5953 28.7236 25.6455 28.8129 25.7348C28.9022 25.8241 28.9524 25.9452 28.9524 26.0715C28.9524 26.3942 29.323 26.6667 29.762 26.6667C30.201 26.6667 30.5716 26.3942 30.5716 26.0715C30.5716 25.7488 30.201 25.4762 29.762 25.4762C29.6357 25.4762 29.5146 25.4261 29.4253 25.3368C29.336 25.2475 29.2858 25.1263 29.2858 25.0001C29.2858 24.8738 29.336 24.7526 29.4253 24.6633C29.5146 24.574 29.6357 24.5239 29.762 24.5239C30.2003 24.4978 30.6312 24.6458 30.9611 24.9355C31.291 25.2253 31.4932 25.6335 31.524 26.0715C31.4932 26.5095 31.291 26.9177 30.9611 27.2074C30.6312 27.4972 30.2003 27.6451 29.762 27.6191Z" fill="#FF7F50"/>
<path d="M29.7615 30.2381C28.7255 30.2381 27.7128 29.9309 26.8514 29.3553C25.99 28.7798 25.3186 27.9617 24.9222 27.0046C24.5257 26.0474 24.422 24.9942 24.6241 23.9781C24.8262 22.962 25.3251 22.0287 26.0576 21.2962C26.7902 20.5636 27.7235 20.0647 28.7396 19.8626C29.7557 19.6605 30.8089 19.7642 31.766 20.1607C32.7232 20.5571 33.5412 21.2285 34.1168 22.0899C34.6924 22.9513 34.9996 23.964 34.9996 25C34.998 26.3888 34.4456 27.7202 33.4636 28.7022C32.4817 29.6842 31.1502 30.2365 29.7615 30.2381ZM29.7615 20.7143C28.9139 20.7143 28.0853 20.9657 27.3805 21.4366C26.6757 21.9075 26.1264 22.5769 25.802 23.36C25.4777 24.1431 25.3928 25.0048 25.5582 25.8361C25.7235 26.6675 26.1317 27.4311 26.7311 28.0305C27.3304 28.6298 28.0941 29.038 28.9254 29.2034C29.7567 29.3687 30.6185 29.2839 31.4016 28.9595C32.1847 28.6351 32.854 28.0858 33.3249 27.381C33.7958 26.6763 34.0472 25.8477 34.0472 25C34.0459 23.8638 33.594 22.7744 32.7905 21.971C31.9871 21.1676 30.8977 20.7156 29.7615 20.7143Z" fill="#FF7F50"/>
<path d="M33.096 34.9999H25.0008C24.6221 34.9995 24.259 34.8489 23.9911 34.5811C23.7233 34.3132 23.5727 33.9501 23.5723 33.5714V33.0952C23.5727 32.7164 23.7233 32.3533 23.9911 32.0855C24.259 31.8177 24.6221 31.667 25.0008 31.6666H33.096C33.4748 31.667 33.8379 31.8177 34.1057 32.0855C34.3735 32.3533 34.5242 32.7164 34.5246 33.0952V33.5714C34.5242 33.9501 34.3735 34.3132 34.1057 34.5811C33.8379 34.8489 33.4748 34.9995 33.096 34.9999ZM25.0008 32.619C24.8746 32.6191 24.7535 32.6693 24.6643 32.7586C24.575 32.8479 24.5248 32.9689 24.5246 33.0952V33.5714C24.5248 33.6976 24.575 33.8187 24.6643 33.908C24.7535 33.9972 24.8746 34.0474 25.0008 34.0476H33.096C33.2223 34.0474 33.3433 33.9972 33.4326 33.908C33.5219 33.8187 33.5721 33.6976 33.5722 33.5714V33.0952C33.5721 32.9689 33.5219 32.8479 33.4326 32.7586C33.3433 32.6693 33.2223 32.6191 33.096 32.619H25.0008Z" fill="#FF7F50"/>
<path d="M33.571 32.619H25.952C25.5732 32.6186 25.2101 32.468 24.9423 32.2001C24.6745 31.9323 24.5239 31.5692 24.5234 31.1905V30.7143C24.5239 30.3355 24.6745 29.9724 24.9423 29.7046C25.2101 29.4368 25.5732 29.2861 25.952 29.2857H33.571C33.9498 29.2861 34.3129 29.4368 34.5807 29.7046C34.8485 29.9724 34.9992 30.3355 34.9996 30.7143V31.1905C34.9992 31.5692 34.8485 31.9323 34.5807 32.2001C34.3129 32.468 33.9498 32.6186 33.571 32.619ZM25.952 30.2381C25.8257 30.2382 25.7047 30.2884 25.6154 30.3777C25.5261 30.467 25.4759 30.588 25.4758 30.7143V31.1905C25.4759 31.3167 25.5261 31.4378 25.6154 31.527C25.7047 31.6163 25.8257 31.6665 25.952 31.6666H33.571C33.6973 31.6665 33.8183 31.6163 33.9076 31.527C33.9969 31.4378 34.0471 31.3167 34.0472 31.1905V30.7143C34.0471 30.588 33.9969 30.467 33.9076 30.3777C33.8183 30.2884 33.6973 30.2382 33.571 30.2381H25.952Z" fill="#FF7F50"/>
<path d="M19.7619 26.9048C17.4684 26.9048 15 26.3086 15 25C15 23.6915 17.4684 23.0953 19.7619 23.0953C22.0554 23.0953 24.5238 23.6915 24.5238 25C24.5238 26.3086 22.0554 26.9048 19.7619 26.9048ZM19.7619 24.0477C17.2624 24.0477 15.9524 24.7552 15.9524 25C15.9524 25.2449 17.2624 25.9524 19.7619 25.9524C22.2614 25.9524 23.5714 25.2449 23.5714 25C23.5714 24.7552 22.2614 24.0477 19.7619 24.0477Z" fill="#FF7F50"/>
<path d="M19.7619 35C18.2118 34.9995 16.6807 34.6595 15.2762 34.0037C15.1938 33.9654 15.124 33.9044 15.075 33.8279C15.0261 33.7513 15 33.6623 15 33.5714V30.7143C15 30.6343 15.0201 30.5557 15.0585 30.4856C15.0969 30.4155 15.1524 30.3561 15.2198 30.3131C15.2871 30.2701 15.3642 30.2447 15.444 30.2393C15.5238 30.2339 15.6036 30.2487 15.6761 30.2823C16.9559 30.8779 18.3503 31.1866 19.7619 31.1865C21.1735 31.1865 22.5679 30.8778 23.8476 30.282C23.9202 30.2485 24 30.2338 24.0798 30.2392C24.1595 30.2446 24.2366 30.27 24.304 30.3131C24.3713 30.3562 24.4268 30.4155 24.4652 30.4856C24.5036 30.5557 24.5237 30.6343 24.5238 30.7143V33.5714C24.5237 33.6623 24.4977 33.7512 24.4488 33.8278C24.3998 33.9043 24.33 33.9653 24.2475 34.0034C22.8431 34.6595 21.312 34.9997 19.7619 35ZM15.9524 33.2622C17.1562 33.7781 18.4522 34.0441 19.7619 34.0441C21.0716 34.0441 22.3676 33.7781 23.5714 33.2622V31.4328C21.1193 32.3761 18.4044 32.3761 15.9524 31.4328V33.2622Z" fill="#FF7F50"/>
<path d="M19.7619 32.1428C18.2118 32.1424 16.6807 31.8023 15.2762 31.1465C15.1938 31.1083 15.124 31.0473 15.075 30.9707C15.0261 30.8941 15 30.8051 15 30.7142V28.3333C15 28.2534 15.0201 28.1747 15.0585 28.1046C15.0969 28.0345 15.1524 27.9752 15.2198 27.9321C15.2871 27.8891 15.3642 27.8637 15.444 27.8583C15.5238 27.8529 15.6036 27.8677 15.6761 27.9013C16.9559 28.497 18.3503 28.8056 19.7619 28.8055C21.1735 28.8055 22.5679 28.4968 23.8476 27.9011C23.9202 27.8675 24 27.8528 24.0798 27.8582C24.1595 27.8636 24.2366 27.8891 24.304 27.9321C24.3713 27.9752 24.4268 28.0345 24.4652 28.1046C24.5036 28.1747 24.5237 28.2534 24.5238 28.3333V30.7142C24.5237 30.8051 24.4977 30.8941 24.4488 30.9706C24.3998 31.0472 24.33 31.1081 24.2475 31.1463C22.8431 31.8023 21.312 32.1425 19.7619 32.1428ZM15.9524 30.405C17.1562 30.9209 18.4522 31.1869 19.7619 31.1869C21.0716 31.1869 22.3676 30.9209 23.5714 30.405V29.0518C21.1193 29.995 18.4045 29.995 15.9524 29.0518V30.405Z" fill="#FF7F50"/>
<path d="M19.7619 29.7619C18.2118 29.7614 16.6807 29.4213 15.2762 28.7655C15.1938 28.7273 15.124 28.6663 15.075 28.5898C15.0261 28.5132 15 28.4242 15 28.3333V25C15 24.8737 15.0502 24.7526 15.1395 24.6633C15.2288 24.574 15.3499 24.5238 15.4762 24.5238C15.6025 24.5238 15.7236 24.574 15.8129 24.6633C15.9022 24.7526 15.9524 24.8737 15.9524 25V28.0241C17.1562 28.54 18.4522 28.806 19.7619 28.806C21.0716 28.806 22.3676 28.54 23.5714 28.0241V25C23.5714 24.8737 23.6215 24.7526 23.7108 24.6633C23.8002 24.574 23.9213 24.5238 24.0476 24.5238C24.1739 24.5238 24.295 24.574 24.3843 24.6633C24.4736 24.7526 24.5238 24.8737 24.5238 25V28.3333C24.5237 28.4242 24.4977 28.5131 24.4488 28.5897C24.3998 28.6662 24.33 28.7272 24.2475 28.7653C22.8431 29.4214 21.312 29.7616 19.7619 29.7619Z" fill="#FF7F50"/>
</svg>
