<svg width="50" height="50" viewBox="0 0 50 50" fill="none" xmlns="http://www.w3.org/2000/svg">
<rect width="50" height="50" rx="25" fill="#FFF3EE"/>
<path d="M33.7719 23.6936C33.6938 21.4673 32.7922 19.3855 31.2091 17.8024C29.5499 16.1428 27.3446 15.2291 25 15.2291C20.2645 15.2291 16.3952 18.9983 16.2284 23.6936C15.5058 24.0147 15 24.738 15 25.5787V27.8946C15 29.0318 15.9252 29.9573 17.0627 29.9573C17.7987 29.9573 18.3973 29.3587 18.3973 28.6226V24.8503C18.3973 24.1592 17.8673 23.5957 17.1934 23.5287C17.4422 19.4381 20.8475 16.1859 25 16.1859C27.0895 16.1859 29.0543 17.0003 30.5331 18.4791C31.891 19.837 32.6857 21.607 32.8053 23.529C32.1321 23.5966 31.603 24.1598 31.603 24.8503V28.6223C31.603 29.3191 32.1413 29.8861 32.8231 29.9451V30.8984C32.8231 31.9718 31.9496 32.845 30.8762 32.845H29.4344C29.3636 32.6428 29.2526 32.4559 29.097 32.3009C28.8243 32.027 28.4608 31.8761 28.0736 31.8761H26.5875C26.3742 31.8761 26.1694 31.9214 25.9819 32.0088C25.4704 32.2438 25.14 32.7598 25.14 33.3233C25.14 33.7105 25.2908 34.074 25.5641 34.3461C25.8375 34.62 26.201 34.7709 26.5875 34.7709H28.0736C28.6898 34.7709 29.2329 34.3725 29.4354 33.8017H30.8762C32.4774 33.8017 33.7799 32.4993 33.7799 30.8984V29.7748C34.498 29.4518 35 28.7311 35 27.8939V25.578C35 24.738 34.4942 24.0147 33.7719 23.6936ZM17.4403 24.8503V28.6223C17.4403 28.8306 17.2709 29.0002 17.0624 29.0002C16.4526 29.0002 15.9564 28.504 15.9564 27.8942V25.5783C15.9564 24.9683 16.4526 24.4724 17.0624 24.4724C17.2709 24.4724 17.4403 24.642 17.4403 24.8503ZM28.5536 33.426C28.5061 33.6512 28.3039 33.8148 28.0733 33.8148H26.5872C26.4565 33.8148 26.3337 33.7637 26.2399 33.67C26.1474 33.5778 26.0964 33.4547 26.0964 33.324C26.0964 33.1329 26.2083 32.9585 26.3837 32.8778C26.4462 32.8485 26.5148 32.8335 26.5872 32.8335H28.0733C28.2041 32.8335 28.3268 32.8842 28.4203 32.978C28.5128 33.0701 28.5638 33.1932 28.5638 33.324C28.5641 33.3591 28.5603 33.3941 28.5536 33.426ZM34.0433 27.8942C34.0433 28.504 33.5471 29.0002 32.9373 29.0002C32.7291 29.0002 32.5594 28.8309 32.5594 28.6223V24.8503C32.5594 24.642 32.7287 24.4724 32.9373 24.4724C33.5471 24.4724 34.0433 24.9686 34.0433 25.5783V27.8942Z" fill="#FF7F50"/>
<path d="M28.0971 28.0591C29.2149 28.0591 30.1241 27.1496 30.1241 26.0322V21.902C30.1241 21.3617 29.913 20.8528 29.5296 20.4694C29.1463 20.0861 28.6376 19.875 28.0971 19.875H21.902C20.7842 19.875 19.875 20.7842 19.875 21.902V26.0322C19.875 27.1499 20.7842 28.0591 21.902 28.0591H21.9399V29.1294C21.9399 29.5376 22.1833 29.8999 22.5596 30.0526C22.6811 30.1014 22.8074 30.1257 22.9324 30.1257C23.1929 30.1257 23.4468 30.0223 23.6327 29.83L25.4132 28.0591H28.0971ZM24.879 27.2415L22.9521 29.1578C22.9435 29.1667 22.9372 29.1734 22.919 29.1654C22.897 29.1565 22.897 29.1421 22.897 29.1294V27.5808C22.897 27.3167 22.683 27.1024 22.4186 27.1024H21.9023C21.312 27.1024 20.832 26.6221 20.832 26.0322V21.902C20.832 21.3117 21.312 20.8317 21.9023 20.8317H28.0974C28.3825 20.8317 28.6507 20.9433 28.8535 21.1458C29.0564 21.3487 29.1677 21.6172 29.1677 21.902V26.0322C29.1677 26.6225 28.6874 27.1024 28.0974 27.1024H25.2164C25.0898 27.1024 24.9686 27.1525 24.879 27.2415Z" fill="#FF7F50"/>
<path d="M22.6764 23.3376C22.2874 23.3376 21.9707 23.6546 21.9707 24.0434C21.9707 24.4321 22.2877 24.7491 22.6764 24.7491C23.0658 24.7491 23.3828 24.4321 23.3828 24.0434C23.3828 23.6546 23.0662 23.3376 22.6764 23.3376Z" fill="#FF7F50"/>
<path d="M24.9997 23.3376C24.6106 23.3376 24.2939 23.6546 24.2939 24.0434C24.2939 24.4321 24.6109 24.7491 24.9997 24.7491C25.3894 24.7491 25.7061 24.4321 25.7061 24.0434C25.7061 23.6546 25.3894 23.3376 24.9997 23.3376Z" fill="#FF7F50"/>
<path d="M27.3239 23.3376C26.9348 23.3376 26.6182 23.6546 26.6182 24.0434C26.6182 24.4321 26.9352 24.7491 27.3239 24.7491C27.7133 24.7491 28.0303 24.4321 28.0303 24.0434C28.0303 23.6546 27.7133 23.3376 27.3239 23.3376Z" fill="#FF7F50"/>
</svg>
