<svg width="25" height="17" viewBox="0 0 25 17" fill="none" xmlns="http://www.w3.org/2000/svg">
<path d="M16.0631 7.11571C16.319 7.25635 16.5677 7.3458 16.8055 7.38509V7.56658C16.8055 7.73772 16.9446 7.87681 17.1158 7.87681C17.2869 7.87681 17.426 7.73772 17.426 7.56658V7.36596C17.7223 7.29202 17.9782 7.1245 18.1437 6.8882C18.3407 6.60641 18.3831 6.26205 18.2626 5.91873C18.1096 5.48079 17.7616 5.29516 17.426 5.17469V4.31276C17.4948 4.34068 17.5651 4.37222 17.639 4.40583C17.6773 4.42341 17.7156 4.44048 17.7543 4.45754C17.911 4.52682 18.094 4.45599 18.1633 4.29932C18.2326 4.14265 18.1618 3.95962 18.0051 3.89033C17.9684 3.87379 17.9317 3.85724 17.895 3.84069C17.7507 3.77503 17.5956 3.70523 17.426 3.65559V3.43119C17.426 3.26004 17.2869 3.12096 17.1158 3.12096C16.9446 3.12096 16.8055 3.26004 16.8055 3.43119V3.60285C16.395 3.66541 16.0967 3.94204 16.0077 4.35568C15.9048 4.83706 16.1334 5.33808 16.5398 5.52163C16.6282 5.56145 16.7176 5.59454 16.8055 5.62453V6.75222C16.6654 6.71706 16.5155 6.65657 16.3614 6.57229C16.2109 6.49007 16.0227 6.54488 15.94 6.69534C15.8578 6.84477 15.9126 7.03298 16.0631 7.11571ZM17.6768 6.124C17.7311 6.2786 17.7171 6.41614 17.6354 6.53299C17.5853 6.60486 17.5124 6.6638 17.426 6.70775V5.84893C17.5496 5.91511 17.6323 5.99681 17.6768 6.124ZM16.7947 4.95598C16.6535 4.89238 16.5724 4.68142 16.6142 4.48546C16.6401 4.36447 16.7047 4.28381 16.805 4.24244V4.96063C16.8019 4.95856 16.7983 4.95753 16.7947 4.95598ZM24.7935 10.2485C24.6906 10.1953 24.5665 10.2035 24.4719 10.2702L23.217 11.1539L21.9983 10.2723C21.8933 10.1963 21.7522 10.1937 21.6446 10.2656L20.215 11.2165V0.310771C20.215 0.194952 20.1504 0.0884385 20.0475 0.035182C19.9446 -0.0180745 19.8205 -0.00928456 19.7259 0.0574153L18.4565 0.956571L17.1985 0.0584492C17.0884 -0.0201429 16.9395 -0.0185915 16.8314 0.0631029L15.5812 1.00724L14.3371 0.0636197C14.2296 -0.0180747 14.0817 -0.0206598 13.9716 0.0568981L12.6893 0.956571L11.4504 0.0594836C11.3418 -0.0191085 11.1945 -0.0191088 11.0859 0.0600003L9.83102 0.973117L8.57716 0.0600003C8.48254 -0.00876775 8.35793 -0.0185918 8.254 0.0341477C8.15008 0.0868871 8.08441 0.193917 8.08441 0.310771V0.77767H6.13305C5.96191 0.77767 5.82282 0.916758 5.82282 1.0879C5.82282 1.25905 5.96191 1.39813 6.13305 1.39813H8.08441V3.13233H3.9211C3.74995 3.13233 3.61087 3.27142 3.61087 3.44256C3.61087 3.61371 3.74995 3.75279 3.9211 3.75279H8.08493V6.4968H4.35077C4.17962 6.4968 4.04054 6.63588 4.04054 6.80703C4.04054 6.97817 4.17962 7.11726 4.35077 7.11726H8.08441V9.88349H4.35077C4.17962 9.88349 4.04054 10.0226 4.04054 10.1937C4.04054 10.3649 4.17962 10.504 4.35077 10.504H8.08441V13.248H3.9211C3.74995 13.248 3.61087 13.387 3.61087 13.5582C3.61087 13.7293 3.74995 13.8684 3.9211 13.8684H8.08493C8.08544 14.5096 8.27986 15.1057 8.6118 15.6026H6.8259C6.65476 15.6026 6.51567 15.7417 6.51567 15.9129C6.51567 16.084 6.65476 16.2231 6.8259 16.2231H9.15678C9.70847 16.7065 10.4298 17.0002 11.2193 17.0002H22.278C23.7573 17.0002 24.961 15.7965 24.961 14.3172V10.5246C24.961 10.4078 24.8964 10.3018 24.7935 10.2485ZM11.2193 16.3787C9.83308 16.3787 8.70539 15.251 8.70539 13.8648V0.920377L9.64901 1.60754C9.75759 1.68665 9.90547 1.68717 10.0141 1.60754L11.2695 0.693908L12.5047 1.58841C12.6117 1.66597 12.7565 1.667 12.8646 1.59099L14.1427 0.694425L15.3935 1.64322C15.5041 1.72698 15.6572 1.7275 15.7678 1.64373L17.0232 0.695459L18.275 1.58944C18.3826 1.66597 18.5268 1.66648 18.6349 1.58996L19.5945 0.910036V11.7945V14.3157C19.5945 15.144 19.972 15.8854 20.564 16.3782H11.2193V16.3787ZM24.3406 14.3162C24.3406 15.4537 23.4156 16.3787 22.278 16.3787C21.1405 16.3787 20.2155 15.4537 20.2155 14.3162V11.9615L21.8096 10.9016L23.0335 11.7868C23.141 11.8643 23.2858 11.8654 23.3938 11.7888L24.3411 11.1218V14.3162H24.3406ZM9.81705 3.43119C9.81705 3.26004 9.95614 3.12096 10.1273 3.12096H14.3263C14.4974 3.12096 14.6365 3.26004 14.6365 3.43119C14.6365 3.60233 14.4974 3.74142 14.3263 3.74142H10.1273C9.95614 3.74142 9.81705 3.60233 9.81705 3.43119ZM9.81705 5.49888C9.81705 5.32774 9.95614 5.18865 10.1273 5.18865H14.3263C14.4974 5.18865 14.6365 5.32774 14.6365 5.49888C14.6365 5.67003 14.4974 5.80912 14.3263 5.80912H10.1273C9.95614 5.80912 9.81705 5.67055 9.81705 5.49888ZM9.81705 7.5671C9.81705 7.39595 9.95614 7.25686 10.1273 7.25686H14.3263C14.4974 7.25686 14.6365 7.39595 14.6365 7.5671C14.6365 7.73824 14.4974 7.87733 14.3263 7.87733H10.1273C9.95614 7.87733 9.81705 7.73824 9.81705 7.5671ZM18.4927 9.63479C18.4927 9.80594 18.3536 9.94502 18.1825 9.94502H10.1273C9.95614 9.94502 9.81705 9.80594 9.81705 9.63479C9.81705 9.46365 9.95614 9.32456 10.1273 9.32456H18.1825C18.3536 9.32456 18.4927 9.46313 18.4927 9.63479ZM18.4927 11.7025C18.4927 11.8736 18.3536 12.0127 18.1825 12.0127H10.1273C9.95614 12.0127 9.81705 11.8736 9.81705 11.7025C9.81705 11.5313 9.95614 11.3923 10.1273 11.3923H18.1825C18.3536 11.3923 18.4927 11.5313 18.4927 11.7025ZM18.4927 13.7707C18.4927 13.9418 18.3536 14.0809 18.1825 14.0809H10.1273C9.95614 14.0809 9.81705 13.9418 9.81705 13.7707C9.81705 13.5996 9.95614 13.4605 10.1273 13.4605H18.1825C18.3536 13.4605 18.4927 13.599 18.4927 13.7707ZM1.67605 1.0879C1.67605 0.916758 1.81514 0.77767 1.98628 0.77767H4.93349C5.10463 0.77767 5.24372 0.916758 5.24372 1.0879C5.24372 1.25905 5.10463 1.39813 4.93349 1.39813H1.98628C1.81462 1.39813 1.67605 1.25905 1.67605 1.0879ZM1.46716 3.44205C1.46716 3.2709 1.60625 3.13181 1.7774 3.13181H2.48628C2.65742 3.13181 2.79651 3.2709 2.79651 3.44205C2.79651 3.61319 2.65742 3.75228 2.48628 3.75228H1.7774C1.60625 3.75228 1.46716 3.61371 1.46716 3.44205ZM2.80892 8.8225H0.349294C0.17815 8.8225 0.0390625 8.68341 0.0390625 8.51227C0.0390625 8.34112 0.17815 8.20204 0.349294 8.20204H2.80892C2.98006 8.20204 3.11915 8.34112 3.11915 8.51227C3.11915 8.68341 2.98006 8.8225 2.80892 8.8225ZM5.73544 15.9118C5.73544 16.083 5.59635 16.222 5.42521 16.222H1.98628C1.81514 16.222 1.67605 16.083 1.67605 15.9118C1.67605 15.7407 1.81514 15.6016 1.98628 15.6016H5.42521C5.59635 15.6016 5.73544 15.7407 5.73544 15.9118ZM1.7774 13.8679C1.60625 13.8679 1.46716 13.7288 1.46716 13.5577C1.46716 13.3865 1.60625 13.2474 1.7774 13.2474H2.48628C2.65742 13.2474 2.79651 13.3865 2.79651 13.5577C2.79651 13.7288 2.65742 13.8679 2.48628 13.8679H1.7774Z" fill="black"/>
</svg>
