<svg width="68" height="68" viewBox="0 0 68 68" fill="none" xmlns="http://www.w3.org/2000/svg">
<path fill-rule="evenodd" clip-rule="evenodd" d="M33.9338 0C52.6737 0 67.8675 15.1889 67.8675 33.9289C67.8675 52.6688 52.6738 67.8636 33.9338 67.8636C15.1937 67.8636 0 52.6689 0 33.9289C0 15.1888 15.1928 0 33.9338 0ZM31.1151 19.5282C31.6922 20.1071 32.4337 20.4938 33.2387 20.6358V23.4219H34.6294V20.6358C35.5087 20.4807 36.3106 20.0349 36.9065 19.37C37.5025 18.7051 37.8581 17.8594 37.9164 16.9684C37.9748 16.0773 37.7324 15.1925 37.2282 14.4556C36.724 13.7186 35.9871 13.1722 35.1355 12.9037C34.2839 12.6353 33.3668 12.6603 32.5311 12.9749C31.6954 13.2894 30.9895 13.8753 30.5263 14.6387C30.0631 15.4021 29.8694 16.2988 29.9763 17.1853C30.0832 18.0718 30.4844 18.8968 31.1158 19.5282H31.1151ZM51.4348 30.0992V43.3281H52.4356C52.9939 43.3261 53.5287 43.1034 53.9234 42.7085C54.3181 42.3137 54.5406 41.7788 54.5424 41.2205V32.2069C54.5406 31.6486 54.318 31.1137 53.9234 30.7189C53.5287 30.324 52.9939 30.1013 52.4356 30.0992H51.4348ZM16.4322 43.3281V30.0992H15.4316C14.8735 30.1015 14.3388 30.3243 13.9442 30.7191C13.5496 31.1139 13.327 31.6487 13.325 32.2069V41.2205C13.327 41.7787 13.5495 42.3135 13.9441 42.7083C14.3388 43.1031 14.8734 43.3259 15.4316 43.3281H16.4322ZM45.9097 24.8129H21.9573C20.8619 24.8163 19.8124 25.253 19.038 26.0275C18.2635 26.8021 17.8269 27.8516 17.8236 28.947V44.4797C17.8273 45.575 18.264 46.6244 19.0384 47.399C19.8128 48.1735 20.862 48.6105 21.9573 48.6145H29.7673V48.6169C29.8891 48.6169 30.0088 48.649 30.1141 48.7101C30.2195 48.7712 30.3068 48.8591 30.3673 48.9648L31.1219 50.2706C31.1293 50.2822 31.1368 50.2937 31.1434 50.3061L33.9344 55.1402L37.4679 49.0204C37.5233 48.8993 37.6123 48.7966 37.7244 48.7247C37.8364 48.6527 37.9668 48.6145 38.0999 48.6145H45.9097C47.0051 48.6105 48.0544 48.1736 48.8288 47.399C49.6032 46.6243 50.0399 45.5749 50.0436 44.4796V28.947C50.0402 27.8516 49.6037 26.802 48.8291 26.0275C48.0546 25.2529 47.0051 24.8163 45.9097 24.8129ZM28.5777 41.2445C29.0884 42.2236 29.8577 43.0439 30.802 43.6163C31.7463 44.1888 32.8294 44.4915 33.9337 44.4915C35.038 44.4915 36.1211 44.1888 37.0654 43.6163C38.0097 43.0439 38.779 42.2236 39.2897 41.2445C39.3748 41.0818 39.3917 40.892 39.3367 40.7168C39.2818 40.5416 39.1595 40.3954 38.9968 40.3104C38.8341 40.2254 38.6442 40.2085 38.4691 40.2634C38.2939 40.3183 38.1477 40.4406 38.0627 40.6033C37.6688 41.358 37.0757 41.9903 36.3478 42.4315C35.6198 42.8727 34.7849 43.106 33.9336 43.106C33.0824 43.106 32.2475 42.8727 31.5195 42.4315C30.7915 41.9903 30.1984 41.358 29.8046 40.6033C29.7627 40.5224 29.7053 40.4505 29.6356 40.3918C29.5659 40.333 29.4852 40.2887 29.3983 40.2612C29.3114 40.2337 29.2199 40.2237 29.1291 40.2317C29.0383 40.2397 28.95 40.2656 28.8692 40.3078C28.7884 40.35 28.7168 40.4078 28.6584 40.4778C28.6 40.5478 28.556 40.6286 28.5289 40.7156C28.5019 40.8027 28.4923 40.8942 28.5007 40.985C28.5091 41.0757 28.5353 41.1639 28.5779 41.2445H28.5777ZM42.4103 30.9716C41.6561 30.9718 40.9254 31.2335 40.3425 31.7121C39.7597 32.1907 39.3608 32.8566 39.2138 33.5964C39.0669 34.3361 39.181 35.1039 39.5367 35.7689C39.8924 36.4339 40.4676 36.9551 41.1645 37.2435C41.8613 37.532 42.6366 37.5699 43.3583 37.3508C44.0799 37.1317 44.7033 36.6692 45.1222 36.042C45.541 35.4149 45.7295 34.6619 45.6554 33.9113C45.5813 33.1608 45.2493 32.4592 44.716 31.926C44.4136 31.6227 44.0542 31.3823 43.6585 31.2185C43.2628 31.0547 42.8386 30.9708 42.4103 30.9716ZM43.7328 32.9093C43.4269 32.6031 43.0242 32.4125 42.5935 32.37C42.1628 32.3274 41.7307 32.4356 41.3708 32.6759C41.0109 32.9163 40.7454 33.274 40.6197 33.6882C40.494 34.1023 40.5158 34.5472 40.6813 34.9471C40.8469 35.347 41.146 35.6771 41.5277 35.8812C41.9094 36.0852 42.35 36.1506 42.7745 36.0662C43.199 35.9818 43.5811 35.7528 43.8556 35.4183C44.1302 35.0837 44.2803 34.6643 44.2803 34.2315C44.2805 33.9859 44.2323 33.7427 44.1384 33.5158C44.0444 33.2889 43.9066 33.0828 43.7328 32.9093ZM25.4567 30.9716C24.7022 30.9714 23.971 31.2329 23.3878 31.7115C22.8045 32.1901 22.4052 32.8561 22.2579 33.596C22.1107 34.336 22.2246 35.1041 22.5803 35.7695C22.9359 36.4349 23.5113 36.9564 24.2084 37.2451C24.9054 37.5338 25.681 37.5718 26.403 37.3527C27.125 37.1336 27.7486 36.6709 28.1677 36.0435C28.5867 35.4162 28.7752 34.6628 28.7011 33.912C28.627 33.1612 28.2948 32.4593 27.7611 31.926C27.4588 31.6229 27.0996 31.3826 26.7041 31.2188C26.3087 31.0551 25.8847 30.971 25.4567 30.9716ZM26.7788 32.9093C26.4728 32.6031 26.0702 32.4125 25.6395 32.37C25.2088 32.3274 24.7767 32.4356 24.4168 32.6759C24.0568 32.9163 23.7914 33.274 23.6657 33.6882C23.54 34.1023 23.5617 34.5472 23.7273 34.9471C23.8929 35.347 24.192 35.6771 24.5737 35.8812C24.9553 36.0852 25.396 36.1506 25.8204 36.0662C26.2449 35.9818 26.627 35.7528 26.9016 35.4183C27.1762 35.0837 27.3262 34.6643 27.3262 34.2315C27.3264 33.986 27.2781 33.7428 27.1842 33.5159C27.0903 33.2891 26.9526 33.083 26.7789 32.9094L26.7788 32.9093Z" fill="url(#paint0_linear_769_12534)"/>
<defs>
<linearGradient id="paint0_linear_769_12534" x1="-13.9128" y1="33.9318" x2="80.0539" y2="63.2455" gradientUnits="userSpaceOnUse">
<stop stop-color="#FF7F50"/>
<stop offset="1" stop-color="#FFDB58"/>
</linearGradient>
</defs>
</svg>
