<svg width="58" height="58" viewBox="0 0 58 58" fill="none" xmlns="http://www.w3.org/2000/svg">
<g clip-path="url(#clip0_2337_4235)">
<path d="M56.2801 24.6098C56.8101 25.1598 57.1101 25.8798 57.1101 26.6498V38.9698C57.1101 39.7398 56.8101 40.4698 56.2801 41.0098C55.7501 41.5498 55.0101 41.8598 54.2401 41.8598H52.8701V23.7598H54.2401C55.0101 23.7698 55.7301 24.0698 56.2801 24.6098Z" fill="#FCFCFC"/>
<path d="M42.3299 27.6101C42.5799 27.8601 42.7699 28.1301 42.8899 28.4401C43.0099 28.7501 43.0799 29.0801 43.0799 29.4201C43.0799 30.0101 42.8699 30.5801 42.5099 31.0301C42.1299 31.4901 41.6099 31.8101 41.0299 31.9201C40.4399 32.0301 39.8399 31.9501 39.3199 31.6701C38.7999 31.3801 38.3899 30.9301 38.1599 30.3801C37.9399 29.8301 37.9099 29.2301 38.0799 28.6601C38.2599 28.1001 38.6099 27.6101 39.1099 27.2801C39.6099 26.9501 40.1899 26.8001 40.7899 26.8601C41.3799 26.9301 41.9199 27.1901 42.3399 27.6001L42.3299 27.6101Z" fill="#FCFCFC"/>
<path d="M29.8896 10.8302V14.6502H27.9896V10.8302C26.8996 10.6402 25.8696 10.1102 25.0896 9.31023C24.2296 8.45023 23.6796 7.33022 23.5296 6.11022C23.3796 4.89022 23.6396 3.68022 24.2796 2.62022C24.9096 1.58022 25.8796 0.770225 27.0096 0.350225C28.1596 -0.0897752 29.4196 -0.109775 30.5796 0.250225C31.7396 0.610225 32.7496 1.36022 33.4396 2.37022C34.1296 3.38022 34.4696 4.59022 34.3796 5.80022C34.2896 7.01022 33.8096 8.18023 32.9996 9.08022C32.1796 10.0002 31.0896 10.6002 29.8796 10.8202L29.8896 10.8302Z" fill="#FCFCFC"/>
<path d="M19.15 27.6101C19.38 27.8601 19.57 28.1301 19.71 28.4401C19.83 28.7501 19.9 29.0801 19.9 29.4201C19.9 30.0101 19.69 30.5801 19.31 31.0301C18.94 31.4901 18.42 31.8101 17.83 31.9201C17.26 32.0301 16.65 31.9501 16.13 31.6701C15.6 31.3801 15.19 30.9301 14.97 30.3801C14.74 29.8301 14.71 29.2301 14.89 28.6601C15.05 28.1001 15.42 27.6101 15.92 27.2801C16.42 26.9501 17 26.8001 17.59 26.8601C18.18 26.9301 18.72 27.1901 19.15 27.6001V27.6101Z" fill="#FCFCFC"/>
<path d="M49.3099 18.1998C48.2599 17.1498 46.8199 16.5498 45.3199 16.5498H12.5599C11.0599 16.5498 9.61992 17.1498 8.56992 18.1998C7.51992 19.2698 6.91992 20.6998 6.91992 22.1898V43.4298C6.91992 44.9298 7.51992 46.3698 8.56992 47.4198C9.61992 48.4898 11.0599 49.0698 12.5599 49.0898H23.2399C23.3999 49.0898 23.5699 49.1298 23.7199 49.2098C23.8599 49.3098 23.9799 49.4198 24.0599 49.5698L25.0899 51.3498C25.0899 51.3498 25.1199 51.3898 25.1299 51.3998L28.9499 57.9998L33.7799 49.6298C33.8599 49.4698 33.9699 49.3298 34.1399 49.2298C34.2899 49.1298 34.4699 49.0798 34.6499 49.0798H45.3299C46.8299 49.0698 48.2699 48.4798 49.3199 47.4098C50.3899 46.3598 50.9699 44.9198 50.9899 43.4198V22.1898C50.9799 20.6998 50.3899 19.2598 49.3199 18.1998H49.3099ZM18.6399 33.6898C17.6599 33.9898 16.5999 33.9398 15.6499 33.5398C14.6899 33.1398 13.9099 32.4298 13.4199 31.5198C12.9399 30.6198 12.7799 29.5598 12.9799 28.5498C13.1899 27.5398 13.7299 26.6198 14.5299 25.9798C15.3199 25.3198 16.3199 24.9698 17.3599 24.9698C17.9499 24.9698 18.5199 25.0798 19.0699 25.2998C19.5999 25.5298 20.0999 25.8598 20.5099 26.2698C21.2499 26.9898 21.6999 27.9698 21.7999 28.9898C21.9099 30.0198 21.6499 31.0398 21.0799 31.8998C20.5099 32.7598 19.6599 33.3898 18.6599 33.6898H18.6399ZM36.2699 39.0098C35.5699 40.3498 34.5199 41.4698 33.2299 42.2498C31.9299 43.0298 30.4499 43.4498 28.9499 43.4498C27.4499 43.4498 25.9599 43.0298 24.6599 42.2498C23.3699 41.4698 22.3199 40.3498 21.6199 39.0098C21.5699 38.8998 21.5199 38.7798 21.5099 38.6498C21.4999 38.5298 21.5099 38.3998 21.5499 38.2798C21.5899 38.1598 21.6499 38.0498 21.7299 37.9498C21.8099 37.8498 21.9099 37.7698 22.0199 37.7198C22.1299 37.6698 22.2499 37.6198 22.3799 37.6198C22.4999 37.6098 22.6299 37.6198 22.7499 37.6598C22.8699 37.6898 22.9799 37.7598 23.0799 37.8398C23.1799 37.9098 23.2399 38.0198 23.3099 38.1298C23.8399 39.1598 24.6499 40.0198 25.6499 40.6298C26.6499 41.2298 27.7799 41.5498 28.9599 41.5498C30.1399 41.5498 31.2599 41.2398 32.2599 40.6298C33.2599 40.0098 34.0699 39.1498 34.5999 38.1298C34.7199 37.8998 34.9299 37.7298 35.1599 37.6698C35.4099 37.5898 35.6699 37.6198 35.8799 37.7198C36.0999 37.8398 36.2599 38.0498 36.3399 38.2798C36.4099 38.5298 36.3899 38.7898 36.2699 38.9998V39.0098ZM44.2399 31.8998C43.6799 32.7498 42.8199 33.3898 41.8299 33.6798C40.8499 33.9798 39.7799 33.9398 38.8399 33.5398C37.8799 33.1398 37.0899 32.4298 36.6099 31.5198C36.1199 30.6198 35.9699 29.5598 36.1699 28.5498C36.3599 27.5398 36.9099 26.6198 37.6999 25.9798C38.5099 25.3198 39.5099 24.9698 40.5299 24.9698C41.1199 24.9598 41.6899 25.0798 42.2399 25.2998C42.7899 25.5298 43.2799 25.8598 43.6899 26.2698C44.4099 26.9898 44.8699 27.9498 44.9799 28.9898C45.0799 30.0198 44.8199 31.0398 44.2399 31.8998Z" fill="#FCFCFC"/>
<path d="M3.62977 23.76H4.99977V41.85H3.62977C2.87977 41.85 2.13977 41.55 1.60977 41C1.05977 40.47 0.759766 39.73 0.759766 38.96V26.64C0.759766 25.87 1.05977 25.15 1.60977 24.6C2.15977 24.05 2.87977 23.77 3.62977 23.75V23.76Z" fill="#FCFCFC"/>
</g>
<defs>
<clipPath id="clip0_2337_4235">
<rect width="56.35" height="58" fill="white" transform="translate(0.759766)"/>
</clipPath>
</defs>
</svg>
