<svg width="267" height="240" viewBox="0 0 267 240" fill="none" xmlns="http://www.w3.org/2000/svg">
<rect x="0.5" y="1.23242" width="266" height="238" rx="14.5" fill="#FFF3EE" stroke="url(#paint0_linear_1169_4262)"/>
<path d="M119.75 37.7324H51V106.483H119.75V37.7324ZM64.75 51.4825H106V92.7326H64.75V51.4825ZM92.2501 161.483H78.5001V175.233H92.2501V161.483Z" fill="black"/>
<path d="M119.75 133.982H51V202.732H119.75V133.982ZM64.75 147.732H106V188.982H64.75V147.732ZM174.75 65.2319H188.5V78.982H174.75V65.2319Z" fill="black"/>
<path d="M147.243 37.7324H215.993V106.483H147.243V37.7324ZM160.993 51.4825V92.7326H202.243V51.4825H160.993ZM133.493 120.233V147.733H147.243V161.483H133.493V175.233H160.993V147.733H174.743V175.233H188.493V161.483H215.993V147.733H174.743V120.233H133.493ZM160.993 147.733H147.243V133.983H160.993V147.733ZM215.993 175.233H202.243V188.983H174.743V202.733H215.993V175.233ZM160.993 202.733V188.983H133.493V202.733H160.993Z" fill="black"/>
<path d="M188.502 133.983H216.002V120.233H188.502V133.983Z" fill="black"/>
<circle cx="85.2296" cy="71.9533" r="7.94447" fill="black"/>
<g filter="url(#filter0_d_1169_4262)">
<rect x="116" y="102.732" width="34" height="34" rx="17" fill="#FFF3EE" shape-rendering="crispEdges"/>
<path d="M141.447 110.892C139.667 110.892 138.221 112.335 138.219 114.116C138.219 114.695 138.374 115.264 138.67 115.762L138.237 116.952C138.181 117.105 138.26 117.274 138.412 117.328C138.444 117.34 138.479 117.346 138.513 117.346C138.547 117.346 138.581 117.34 138.613 117.328L139.803 116.896C141.337 117.804 143.317 117.298 144.225 115.764C145.134 114.231 144.627 112.251 143.093 111.342C142.595 111.047 142.026 110.892 141.447 110.892Z" fill="url(#paint1_linear_1169_4262)"/>
<path d="M141.243 112.265H139.595V113.914H141.243V112.265ZM140.996 113.666H139.842V112.513H140.996V113.666Z" fill="white"/>
<path d="M140.749 112.76H140.089V113.42H140.749V112.76Z" fill="white"/>
<path d="M141.243 114.189H139.595V115.837H141.243V114.189ZM140.996 115.59H139.842V114.437H140.996V115.59Z" fill="white"/>
<path d="M140.749 114.684H140.089V115.344H140.749V114.684Z" fill="white"/>
<path d="M143.304 112.265H141.656V113.914H143.304V112.265ZM143.057 113.666H141.903V112.513H143.057V113.666Z" fill="white"/>
<path d="M142.811 112.76H142.151V113.42H142.811V112.76Z" fill="white"/>
<path d="M143.304 114.189H141.656V115.837H143.304V114.189ZM143.057 115.59H141.903V114.437H143.057V115.59Z" fill="white"/>
<path d="M142.811 114.684H142.151V115.344H142.811V114.684Z" fill="white"/>
<path fill-rule="evenodd" clip-rule="evenodd" d="M129.906 128.573L132.235 123.782L132.235 123.781L133.831 120.497L137.755 128.573L139.179 125.643C139.734 124.503 139.734 123.06 139.179 121.92L136.159 115.706L136.159 115.706L135.952 115.279L133.831 110.915L133.831 110.915L133.83 110.915L129.906 118.988L126.798 112.591C126.291 111.548 125.395 110.915 124.432 110.915H121.324L129.783 128.32L129.906 128.573L129.906 128.573L129.906 128.573Z" fill="url(#paint2_linear_1169_4262)"/>
</g>
<defs>
<filter id="filter0_d_1169_4262" x="101" y="91.7324" width="64" height="64" filterUnits="userSpaceOnUse" color-interpolation-filters="sRGB">
<feFlood flood-opacity="0" result="BackgroundImageFix"/>
<feColorMatrix in="SourceAlpha" type="matrix" values="0 0 0 0 0 0 0 0 0 0 0 0 0 0 0 0 0 0 127 0" result="hardAlpha"/>
<feOffset dy="4"/>
<feGaussianBlur stdDeviation="7.5"/>
<feComposite in2="hardAlpha" operator="out"/>
<feColorMatrix type="matrix" values="0 0 0 0 0 0 0 0 0 0 0 0 0 0 0 0 0 0 0.18 0"/>
<feBlend mode="normal" in2="BackgroundImageFix" result="effect1_dropShadow_1169_4262"/>
<feBlend mode="normal" in="SourceGraphic" in2="effect1_dropShadow_1169_4262" result="shape"/>
</filter>
<linearGradient id="paint0_linear_1169_4262" x1="-54.735" y1="120.232" x2="306.99" y2="246.288" gradientUnits="userSpaceOnUse">
<stop stop-color="#FF7F50"/>
<stop offset="1" stop-color="#FFDB58"/>
</linearGradient>
<linearGradient id="paint1_linear_1169_4262" x1="136.896" y1="114.12" x2="145.835" y2="116.909" gradientUnits="userSpaceOnUse">
<stop stop-color="#FF7F50"/>
<stop offset="1" stop-color="#FFDB58"/>
</linearGradient>
<linearGradient id="paint2_linear_1169_4262" x1="117.578" y1="119.744" x2="142.719" y2="127.858" gradientUnits="userSpaceOnUse">
<stop stop-color="#FF7F50"/>
<stop offset="1" stop-color="#FFDB58"/>
</linearGradient>
</defs>
</svg>
