<svg width="50" height="50" viewBox="0 0 50 50" fill="none" xmlns="http://www.w3.org/2000/svg">
<rect width="50" height="50" rx="25" fill="#FFF3EE"/>
<path d="M17.5 22.5916V27.4C17.5 29.1666 17.5 29.1666 19.1667 30.2916L23.75 32.9416C24.4417 33.3416 25.5667 33.3416 26.25 32.9416L30.8333 30.2916C32.5 29.1666 32.5 29.1666 32.5 27.4083V22.5916C32.5 20.8333 32.5 20.8333 30.8333 19.7083L26.25 17.0583C25.5667 16.6583 24.4417 16.6583 23.75 17.0583L19.1667 19.7083C17.5 20.8333 17.5 20.8333 17.5 22.5916Z" stroke="#FF7F50" stroke-width="1.25" stroke-linecap="round" stroke-linejoin="round"/>
<path d="M25 27.5C26.3807 27.5 27.5 26.3807 27.5 25C27.5 23.6193 26.3807 22.5 25 22.5C23.6193 22.5 22.5 23.6193 22.5 25C22.5 26.3807 23.6193 27.5 25 27.5Z" stroke="#FF7F50" stroke-width="1.25" stroke-linecap="round" stroke-linejoin="round"/>
</svg>
