<svg width="25" height="24" viewBox="0 0 25 24" fill="none" xmlns="http://www.w3.org/2000/svg">
<path d="M3.5 9.10986V14.8799C3.5 16.9999 3.5 16.9999 5.5 18.3499L11 21.5299C11.83 22.0099 13.18 22.0099 14 21.5299L19.5 18.3499C21.5 16.9999 21.5 16.9999 21.5 14.8899V9.10986C21.5 6.99986 21.5 6.99986 19.5 5.64986L14 2.46986C13.18 1.98986 11.83 1.98986 11 2.46986L5.5 5.64986C3.5 6.99986 3.5 6.99986 3.5 9.10986Z" stroke="#1C1C1C" stroke-width="1.5" stroke-linecap="round" stroke-linejoin="round"/>
<path d="M12.5 15C14.1569 15 15.5 13.6569 15.5 12C15.5 10.3431 14.1569 9 12.5 9C10.8431 9 9.5 10.3431 9.5 12C9.5 13.6569 10.8431 15 12.5 15Z" stroke="#1C1C1C" stroke-width="1.5" stroke-linecap="round" stroke-linejoin="round"/>
</svg>
