<svg width="418" height="468" viewBox="0 0 418 468" fill="none" xmlns="http://www.w3.org/2000/svg">
<g filter="url(#filter0_d_143_2273)">
<path fill-rule="evenodd" clip-rule="evenodd" d="M286.846 115.611C286.697 115.284 286.563 114.958 286.444 114.627C286.266 114.131 286.155 113.613 286.004 113.11C285.94 112.897 285.764 112.343 285.753 112.259C285.659 111.531 286.197 111.271 286.358 111.208C286.435 111.175 287.235 110.862 287.658 111.728C288.176 112.788 288.547 113.895 288.766 115.018C289.197 115.907 289.755 116.758 290.388 117.494C292.908 120.422 296.081 119.922 299.415 118.996C299.927 118.85 300.462 119.139 300.626 119.643C300.79 120.151 300.527 120.699 300.028 120.882C298.208 121.563 295.295 123.95 294.567 125.817C294.414 126.208 294.486 127.033 294.508 127.854C294.538 128.995 294.516 130.137 294.292 130.675C294.26 130.758 293.823 131.633 293.664 131.786C293.281 132.152 292.884 132.107 292.645 132.031C292.406 131.955 292.106 131.759 291.9 131.357C291.684 130.938 291.52 130.001 291.453 129.809C291.208 129.113 290.692 127.757 290.081 126.636C289.751 126.032 289.425 125.481 289.07 125.26C287.755 124.438 286.166 125.037 284.839 125.586C284.687 125.648 284.535 125.713 284.382 125.774C283.867 126.09 283.306 126.372 282.697 126.613C281.778 126.979 281.389 126.148 281.365 126.093C281.313 125.971 281.072 125.335 281.717 124.883C281.788 124.835 282.33 124.554 282.538 124.445C282.828 124.293 283.126 124.155 283.426 124.021C286.395 122.147 287.396 118.848 286.846 115.611ZM288.893 118.805C290.793 121.005 292.976 121.73 295.323 121.694L295.323 121.694C294.142 122.78 293.134 124.014 292.714 125.094C292.554 125.504 292.508 126.253 292.507 127.081C292.202 126.393 291.845 125.669 291.469 125.07C291.041 124.386 290.567 123.85 290.125 123.573C289.272 123.04 288.333 122.867 287.386 122.911C288.203 121.675 288.698 120.274 288.893 118.805Z" fill="#FF7F50"/>
<path fill-rule="evenodd" clip-rule="evenodd" d="M262.779 69.9757C262.705 69.8136 262.639 69.6516 262.58 69.4874C262.491 69.2413 262.436 68.9841 262.361 68.7343C262.329 68.6283 262.242 68.3533 262.236 68.3118C262.19 67.9502 262.457 67.8213 262.537 67.7897C262.575 67.7733 262.972 67.6179 263.182 68.0482C263.439 68.5742 263.624 69.1238 263.732 69.6815C263.946 70.123 264.224 70.5455 264.538 70.911C265.789 72.3647 267.364 72.1164 269.02 71.6565C269.274 71.5843 269.539 71.7278 269.621 71.9779C269.703 72.2299 269.572 72.5021 269.324 72.5931C268.42 72.9313 266.974 74.1162 266.612 75.0431C266.537 75.2371 266.572 75.6467 266.584 76.0547C266.598 76.6211 266.587 77.1883 266.476 77.4552C266.46 77.4964 266.243 77.9306 266.164 78.007C265.974 78.1887 265.777 78.1659 265.658 78.1282C265.54 78.0905 265.391 77.9934 265.288 77.794C265.181 77.5855 265.1 77.1207 265.066 77.0254C264.945 76.6798 264.689 76.0063 264.385 75.4497C264.222 75.1501 264.06 74.8766 263.883 74.7664C263.231 74.3586 262.442 74.656 261.783 74.9286C261.707 74.9591 261.632 74.9916 261.556 75.0221C261.3 75.1785 261.021 75.3186 260.719 75.4385C260.263 75.62 260.07 75.2077 260.058 75.1802C260.032 75.1196 259.913 74.8041 260.233 74.5793C260.268 74.5556 260.537 74.416 260.64 74.3617C260.784 74.2863 260.932 74.2181 261.081 74.1516C262.555 73.221 263.052 71.5831 262.779 69.9757ZM263.796 71.5618C264.739 72.6543 265.823 73.014 266.988 72.9961L266.988 72.9962C266.402 73.5356 265.901 74.1481 265.693 74.6844C265.613 74.8876 265.59 75.2597 265.59 75.6708C265.438 75.329 265.261 74.9697 265.075 74.6721C264.862 74.3325 264.627 74.0663 264.407 73.9289C263.983 73.6643 263.518 73.5785 263.047 73.6002C263.453 72.9866 263.699 72.291 263.796 71.5618Z" fill="#AB92F0"/>
<path fill-rule="evenodd" clip-rule="evenodd" d="M148.175 128.337C148.11 128.196 148.052 128.055 148.001 127.912C147.924 127.698 147.876 127.474 147.811 127.256C147.783 127.164 147.707 126.925 147.702 126.889C147.661 126.574 147.894 126.462 147.964 126.434C147.997 126.42 148.343 126.284 148.526 126.659C148.75 127.117 148.91 127.596 149.004 128.081C149.191 128.466 149.432 128.833 149.706 129.152C150.795 130.417 152.167 130.201 153.608 129.801C153.829 129.738 154.06 129.863 154.131 130.08C154.202 130.3 154.089 130.537 153.873 130.616C153.086 130.91 151.827 131.942 151.512 132.749C151.446 132.918 151.477 133.275 151.487 133.63C151.5 134.123 151.49 134.617 151.394 134.849C151.379 134.885 151.191 135.263 151.122 135.329C150.956 135.488 150.785 135.468 150.681 135.435C150.578 135.402 150.448 135.318 150.359 135.144C150.266 134.963 150.195 134.558 150.166 134.475C150.06 134.174 149.837 133.588 149.573 133.103C149.431 132.842 149.29 132.604 149.136 132.508C148.568 132.153 147.881 132.412 147.307 132.649C147.241 132.676 147.176 132.704 147.11 132.731C146.887 132.867 146.644 132.989 146.381 133.093C145.984 133.251 145.816 132.892 145.805 132.868C145.783 132.816 145.679 132.541 145.958 132.345C145.988 132.325 146.222 132.203 146.312 132.156C146.438 132.09 146.567 132.031 146.697 131.973C147.98 131.163 148.412 129.737 148.175 128.337ZM149.06 129.718C149.881 130.669 150.824 130.983 151.839 130.967L151.839 130.967C151.329 131.437 150.893 131.97 150.711 132.437C150.642 132.614 150.622 132.938 150.622 133.296C150.49 132.998 150.336 132.685 150.173 132.426C149.988 132.13 149.783 131.899 149.592 131.779C149.223 131.549 148.818 131.474 148.408 131.493C148.761 130.959 148.975 130.353 149.06 129.718Z" fill="black"/>
<path fill-rule="evenodd" clip-rule="evenodd" d="M123.175 94.3373C123.11 94.1962 123.052 94.0551 123.001 93.9122C122.924 93.6979 122.876 93.4739 122.811 93.2565C122.783 93.1642 122.707 92.9247 122.702 92.8887C122.661 92.5739 122.894 92.4616 122.964 92.4341C122.997 92.4198 123.343 92.2845 123.526 92.6591C123.75 93.1171 123.91 93.5956 124.004 94.0812C124.191 94.4655 124.432 94.8334 124.706 95.1516C125.795 96.4172 127.167 96.201 128.608 95.8006C128.829 95.7377 129.06 95.8627 129.131 96.0804C129.202 96.2999 129.089 96.5368 128.873 96.616C128.086 96.9105 126.827 97.9421 126.512 98.7491C126.446 98.918 126.477 99.2746 126.487 99.6298C126.5 100.123 126.49 100.617 126.394 100.849C126.379 100.885 126.191 101.263 126.122 101.329C125.956 101.488 125.785 101.468 125.681 101.435C125.578 101.402 125.448 101.318 125.359 101.144C125.266 100.963 125.195 100.558 125.166 100.475C125.06 100.174 124.837 99.5876 124.573 99.1031C124.431 98.8422 124.29 98.6041 124.136 98.5082C123.568 98.1532 122.881 98.412 122.307 98.6493C122.241 98.6759 122.176 98.7042 122.11 98.7307C121.887 98.867 121.644 98.989 121.381 99.0933C120.984 99.2513 120.816 98.8924 120.805 98.8685C120.783 98.8157 120.679 98.541 120.958 98.3453C120.988 98.3246 121.222 98.2031 121.312 98.1559C121.438 98.0902 121.567 98.0308 121.697 97.9729C122.98 97.1627 123.412 95.7367 123.175 94.3373ZM124.06 95.7181C124.881 96.6693 125.824 96.9825 126.839 96.9669L126.839 96.967C126.329 97.4366 125.893 97.9699 125.711 98.4368C125.642 98.6137 125.622 98.9376 125.622 99.2955C125.49 98.998 125.336 98.6851 125.173 98.4261C124.988 98.1304 124.783 97.8987 124.592 97.779C124.223 97.5486 123.818 97.4739 123.408 97.4929C123.761 96.9586 123.975 96.3531 124.06 95.7181Z" fill="#4ADE80"/>
<path fill-rule="evenodd" clip-rule="evenodd" d="M84.1748 143.337C84.1102 143.196 84.0523 143.055 84.001 142.912C83.924 142.698 83.8761 142.474 83.8109 142.256C83.7832 142.164 83.7071 141.925 83.7022 141.889C83.6615 141.574 83.8943 141.462 83.9638 141.434C83.9972 141.42 84.3429 141.284 84.5257 141.659C84.7495 142.117 84.9101 142.596 85.0045 143.081C85.1909 143.466 85.4322 143.833 85.706 144.152C86.7952 145.417 88.1666 145.201 89.6078 144.801C89.8291 144.738 90.0603 144.863 90.1312 145.08C90.2024 145.3 90.0886 145.537 89.8728 145.616C89.0861 145.91 87.8268 146.942 87.512 147.749C87.4462 147.918 87.4772 148.275 87.4869 148.63C87.4998 149.123 87.4902 149.617 87.3936 149.849C87.3793 149.885 87.1907 150.263 87.122 150.329C86.9565 150.488 86.7847 150.468 86.6814 150.435C86.5781 150.402 86.4485 150.318 86.3592 150.144C86.2659 149.963 86.1952 149.558 86.1661 149.475C86.0602 149.174 85.8372 148.588 85.573 148.103C85.4306 147.842 85.2896 147.604 85.1361 147.508C84.5678 147.153 83.8807 147.412 83.3073 147.649C83.2412 147.676 83.1757 147.704 83.1098 147.731C82.887 147.867 82.6443 147.989 82.3812 148.093C81.9841 148.251 81.8157 147.892 81.8053 147.868C81.783 147.816 81.679 147.541 81.9578 147.345C81.9884 147.325 82.2225 147.203 82.3125 147.156C82.438 147.09 82.5668 147.031 82.6965 146.973C83.9797 146.163 84.4125 144.737 84.1748 143.337ZM85.0597 144.718C85.8809 145.669 86.8244 145.983 87.839 145.967L87.8389 145.967C87.3286 146.437 86.8928 146.97 86.7112 147.437C86.6422 147.614 86.6222 147.938 86.6218 148.296C86.49 147.998 86.3356 147.685 86.1731 147.426C85.988 147.13 85.7833 146.899 85.5921 146.779C85.2232 146.549 84.8176 146.474 84.4082 146.493C84.7613 145.959 84.9753 145.353 85.0597 144.718Z" fill="#FC1111"/>
<path fill-rule="evenodd" clip-rule="evenodd" d="M331.674 136.937C331.617 136.813 331.566 136.689 331.521 136.563C331.453 136.374 331.411 136.177 331.354 135.986C331.329 135.905 331.262 135.694 331.258 135.662C331.222 135.385 331.427 135.286 331.488 135.262C331.518 135.25 331.822 135.131 331.983 135.46C332.18 135.863 332.321 136.284 332.404 136.712C332.568 137.05 332.78 137.374 333.021 137.654C333.98 138.767 335.187 138.577 336.455 138.225C336.65 138.169 336.853 138.279 336.915 138.471C336.978 138.664 336.878 138.873 336.688 138.942C335.996 139.201 334.888 140.109 334.611 140.819C334.553 140.968 334.58 141.282 334.588 141.594C334.6 142.028 334.591 142.463 334.506 142.667C334.494 142.699 334.328 143.032 334.267 143.09C334.122 143.229 333.971 143.212 333.88 143.183C333.789 143.154 333.675 143.08 333.596 142.927C333.514 142.767 333.452 142.411 333.426 142.338C333.333 142.073 333.137 141.557 332.904 141.131C332.779 140.901 332.655 140.692 332.52 140.607C332.02 140.295 331.415 140.523 330.91 140.732C330.852 140.755 330.795 140.78 330.737 140.803C330.541 140.923 330.327 141.03 330.096 141.122C329.746 141.261 329.598 140.945 329.589 140.924C329.569 140.878 329.478 140.636 329.723 140.464C329.75 140.446 329.956 140.339 330.035 140.297C330.145 140.24 330.259 140.187 330.373 140.136C331.502 139.423 331.883 138.168 331.674 136.937ZM332.453 138.152C333.175 138.989 334.005 139.265 334.898 139.251L334.898 139.251C334.449 139.664 334.066 140.134 333.906 140.545C333.845 140.7 333.828 140.985 333.827 141.3C333.711 141.038 333.575 140.763 333.432 140.535C333.269 140.275 333.089 140.071 332.921 139.966C332.596 139.763 332.24 139.697 331.879 139.714C332.19 139.244 332.378 138.711 332.453 138.152Z" fill="white"/>
<circle cx="180" cy="96" r="2.5" stroke="#FFDB58"/>
<circle opacity="0.5" cx="199" cy="62" r="1.5" stroke="white"/>
<g filter="url(#filter1_d_143_2273)">
<circle opacity="0.4" cx="209" cy="146.5" r="45.5" fill="#FF7F50"/>
<circle cx="209" cy="146.5" r="30.3333" fill="url(#paint0_linear_143_2273)"/>
<path d="M220.207 138.06C219.842 138.071 219.496 138.224 219.242 138.486L204.787 152.94L200.163 148.316C200.033 148.181 199.878 148.073 199.707 147.999C199.535 147.925 199.351 147.886 199.164 147.884C198.977 147.882 198.792 147.918 198.619 147.988C198.446 148.059 198.288 148.163 198.156 148.295C198.024 148.428 197.92 148.585 197.849 148.758C197.779 148.931 197.743 149.116 197.745 149.303C197.747 149.49 197.786 149.674 197.86 149.846C197.934 150.017 198.042 150.172 198.177 150.302L203.794 155.919C204.057 156.182 204.415 156.33 204.787 156.33C205.159 156.33 205.516 156.182 205.78 155.919L221.227 140.471C221.43 140.274 221.569 140.02 221.625 139.743C221.681 139.465 221.652 139.178 221.542 138.917C221.432 138.656 221.245 138.435 221.007 138.282C220.769 138.129 220.49 138.052 220.207 138.06Z" fill="white"/>
</g>
<path fill-rule="evenodd" clip-rule="evenodd" d="M170.354 180.929C163.425 171.61 159.961 166.951 158.528 165.748C155.587 163.278 155.666 163.318 151.93 162.432C150.109 162 147.31 162 141.712 162H94C84.6812 162 80.0218 162 76.3463 163.522C71.4458 165.552 67.5523 169.446 65.5224 174.346C64 178.022 64 182.681 64 192V370C64 379.319 64 383.978 65.5224 387.654C67.5523 392.554 71.4458 396.448 76.3463 398.478C80.0218 400 84.6812 400 94 400H324C333.319 400 337.978 400 341.654 398.478C346.554 396.448 350.448 392.554 352.478 387.654C354 383.978 354 379.319 354 370V192C354 182.681 354 178.022 352.478 174.346C350.448 169.446 346.554 165.552 341.654 163.522C337.978 162 333.319 162 324 162H277.288C271.69 162 268.891 162 267.07 162.432C263.334 163.318 263.413 163.278 260.472 165.748C259.039 166.951 255.575 171.61 248.646 180.929C240.081 192.448 225.742 200 209.5 200C193.258 200 178.919 192.448 170.354 180.929Z" fill="white"/>
</g>
<defs>
<filter id="filter0_d_143_2273" x="0" y="0" width="418" height="468" filterUnits="userSpaceOnUse" color-interpolation-filters="sRGB">
<feFlood flood-opacity="0" result="BackgroundImageFix"/>
<feColorMatrix in="SourceAlpha" type="matrix" values="0 0 0 0 0 0 0 0 0 0 0 0 0 0 0 0 0 0 127 0" result="hardAlpha"/>
<feOffset dy="4"/>
<feGaussianBlur stdDeviation="32"/>
<feComposite in2="hardAlpha" operator="out"/>
<feColorMatrix type="matrix" values="0 0 0 0 0 0 0 0 0 0 0 0 0 0 0 0 0 0 0.25 0"/>
<feBlend mode="normal" in2="BackgroundImageFix" result="effect1_dropShadow_143_2273"/>
<feBlend mode="normal" in="SourceGraphic" in2="effect1_dropShadow_143_2273" result="shape"/>
</filter>
<filter id="filter1_d_143_2273" x="159.5" y="101" width="99" height="99" filterUnits="userSpaceOnUse" color-interpolation-filters="sRGB">
<feFlood flood-opacity="0" result="BackgroundImageFix"/>
<feColorMatrix in="SourceAlpha" type="matrix" values="0 0 0 0 0 0 0 0 0 0 0 0 0 0 0 0 0 0 127 0" result="hardAlpha"/>
<feOffset dy="4"/>
<feGaussianBlur stdDeviation="2"/>
<feComposite in2="hardAlpha" operator="out"/>
<feColorMatrix type="matrix" values="0 0 0 0 0 0 0 0 0 0 0 0 0 0 0 0 0 0 0.25 0"/>
<feBlend mode="normal" in2="BackgroundImageFix" result="effect1_dropShadow_143_2273"/>
<feBlend mode="normal" in="SourceGraphic" in2="effect1_dropShadow_143_2273" result="shape"/>
</filter>
<linearGradient id="paint0_linear_143_2273" x1="166.23" y1="146.5" x2="250.227" y2="172.702" gradientUnits="userSpaceOnUse">
<stop stop-color="#FF7F50"/>
<stop offset="1" stop-color="#FFDB58"/>
</linearGradient>
</defs>
</svg>
