<svg width="25" height="24" viewBox="0 0 25 24" fill="none" xmlns="http://www.w3.org/2000/svg">
<g clip-path="url(#clip0_2658_6804)">
<path d="M13.4033 3.28174H18.9033C19.4338 3.28174 19.9425 3.49245 20.3175 3.86752C20.6926 4.2426 20.9033 4.75131 20.9033 5.28174V14.8571M6.90332 19.2817C6.90332 19.8122 7.11403 20.3209 7.48911 20.696C7.86418 21.071 8.37289 21.2817 8.90332 21.2817H18.9033C19.4338 21.2817 19.9425 21.071 20.3175 20.696" stroke="#1C1C1C" stroke-width="1.3" stroke-linecap="round" stroke-linejoin="round"/>
<path d="M17.9033 7.28174H12.9033" stroke="#1C1C1C" stroke-width="1.2" stroke-linecap="round" stroke-linejoin="round"/>
<path d="M17.9033 11.2817H12.9033" stroke="#1C1C1C" stroke-width="1.3" stroke-linecap="round" stroke-linejoin="round"/>
<path d="M17.9033 15.2817H14.9033" stroke="#1C1C1C" stroke-width="1.3" stroke-linecap="round" stroke-linejoin="round"/>
<path d="M5.1023 1.92557L8.70434 1.92557C8.97152 1.92555 9.23609 1.97816 9.48294 2.0804C9.72979 2.18264 9.95408 2.3325 10.143 2.52143C10.3319 2.71035 10.4818 2.93465 10.584 3.18149C10.6863 3.42834 10.7389 3.69291 10.7389 3.9601V6.60312C10.7389 6.87031 10.6863 7.13488 10.584 7.38173C10.4818 7.62857 10.3319 7.85287 10.143 8.04179C9.95408 8.23072 9.72979 8.38058 9.48294 8.48282C9.23609 8.58506 8.97152 8.63767 8.70434 8.63765H8.40334L8.40334 15.1957C8.40331 15.528 8.2863 15.8496 8.07283 16.1042L7.98933 16.1957L7.40333 16.7817C7.28084 16.9042 7.11768 16.9774 6.94478 16.9876C6.77188 16.9977 6.60127 16.944 6.46532 16.8367L6.40332 16.7817L5.81731 16.1957C5.58259 15.9609 5.43798 15.651 5.4088 15.3202L5.4033 15.1957L5.4033 14.7817L6.40332 13.7817L5.4033 12.7817L6.40332 11.7817L5.4033 10.7817V8.63765H5.1023C4.83512 8.63767 4.57055 8.58506 4.3237 8.48282C4.07685 8.38058 3.85256 8.23072 3.66363 8.04179C3.47471 7.85287 3.32484 7.62857 3.22261 7.38173C3.12037 7.13488 3.06776 6.87031 3.06778 6.60312L3.06778 3.9601C3.06776 3.69291 3.12037 3.42834 3.22261 3.18149C3.32484 2.93464 3.47471 2.71035 3.66363 2.52143C3.85256 2.3325 4.07685 2.18264 4.3237 2.0804C4.57055 1.97816 4.83512 1.92555 5.1023 1.92557Z" stroke="black" stroke-width="1.3" stroke-linecap="round" stroke-linejoin="round"/>
<path d="M20.9025 19.7414C21.9961 19.7414 22.874 18.8635 22.874 17.7699C22.874 16.684 21.9961 15.7983 20.9025 15.7983C19.8166 15.7983 18.9309 16.684 18.9309 17.7699C18.9309 18.8635 19.8166 19.7414 20.9025 19.7414ZM21.0873 18.4476C21.0873 18.5554 21.0103 18.6324 20.9025 18.6324C20.8024 18.6324 20.7177 18.5554 20.7177 18.4476V17.9547H20.2248C20.1246 17.9547 20.0399 17.8777 20.0399 17.7699C20.0399 17.6698 20.1246 17.585 20.2248 17.585H20.7177V17.0922C20.7177 16.992 20.8024 16.9073 20.9025 16.9073C21.0103 16.9073 21.0873 16.992 21.0873 17.0922V17.585H21.5802C21.688 17.585 21.765 17.6698 21.765 17.7699C21.765 17.8777 21.688 17.9547 21.5802 17.9547H21.0873V18.4476Z" fill="black"/>
<circle cx="0.898438" cy="0.898438" r="0.898438" transform="matrix(-1 0 0 1 7.75586 4.38037)" fill="black"/>
</g>
<defs>
<clipPath id="clip0_2658_6804">
<rect width="24" height="24" fill="white" transform="matrix(-1 0 0 1 24.5 0)"/>
</clipPath>
</defs>
</svg>
