<svg width="45" height="45" viewBox="0 0 45 45" fill="none" xmlns="http://www.w3.org/2000/svg">
<rect width="45" height="45" rx="22.5" fill="#FFF3EE"/>
<g clip-path="url(#clip0_2638_7024)">
<path d="M23.291 14.8716H28.1035C28.5676 14.8716 29.0128 15.056 29.341 15.3841C29.6691 15.7123 29.8535 16.1575 29.8535 16.6216V25M17.6035 28.8716C17.6035 29.3357 17.7879 29.7808 18.1161 30.109C18.4443 30.4372 18.8894 30.6216 19.3535 30.6216H28.1035C28.5676 30.6216 29.0128 30.4372 29.341 30.109" stroke="#1C1C1C" stroke-width="1.1375" stroke-linecap="round" stroke-linejoin="round"/>
<path d="M27.2285 18.3716H22.8535" stroke="#1C1C1C" stroke-width="1.05" stroke-linecap="round" stroke-linejoin="round"/>
<path d="M27.2285 21.8716H22.8535" stroke="#1C1C1C" stroke-width="1.1375" stroke-linecap="round" stroke-linejoin="round"/>
<path d="M27.2285 25.3716H24.6035" stroke="#1C1C1C" stroke-width="1.1375" stroke-linecap="round" stroke-linejoin="round"/>
<path d="M16.0276 13.6849L19.1794 13.6849C19.4132 13.6849 19.6447 13.731 19.8607 13.8204C20.0767 13.9099 20.2729 14.041 20.4382 14.2063C20.6036 14.3716 20.7347 14.5679 20.8241 14.7839C20.9136 14.9999 20.9596 15.2314 20.9596 15.4651V17.7778C20.9596 18.0116 20.9136 18.2431 20.8241 18.4591C20.7347 18.6751 20.6036 18.8713 20.4382 19.0366C20.2729 19.2019 20.0767 19.3331 19.8607 19.4225C19.6447 19.512 19.4132 19.558 19.1794 19.558H18.916L18.916 25.2963C18.916 25.587 18.8136 25.8685 18.6268 26.0913L18.5538 26.1713L18.041 26.6841C17.9338 26.7912 17.7911 26.8553 17.6398 26.8642C17.4885 26.8731 17.3392 26.8261 17.2203 26.7322L17.166 26.6841L16.6533 26.1713C16.4479 25.9658 16.3213 25.6947 16.2958 25.4053L16.291 25.2963L16.291 24.9341L17.166 24.059L16.291 23.184L17.166 22.309L16.291 21.434V19.558H16.0276C15.7938 19.558 15.5623 19.512 15.3463 19.4225C15.1304 19.3331 14.9341 19.2019 14.7688 19.0366C14.6035 18.8713 14.4723 18.6751 14.3829 18.4591C14.2934 18.2431 14.2474 18.0116 14.2474 17.7778L14.2474 15.4651C14.2474 15.2314 14.2934 14.9999 14.3829 14.7839C14.4723 14.5679 14.6035 14.3716 14.7688 14.2063C14.9341 14.041 15.1304 13.9099 15.3463 13.8204C15.5623 13.731 15.7938 13.6849 16.0276 13.6849Z" stroke="black" stroke-width="1.1375" stroke-linecap="round" stroke-linejoin="round"/>
<path d="M29.8532 30.2135C31.3311 30.2135 32.5176 29.027 32.5176 27.5491C32.5176 26.0817 31.3311 24.8848 29.8532 24.8848C28.3857 24.8848 27.1888 26.0817 27.1888 27.5491C27.1888 29.027 28.3857 30.2135 29.8532 30.2135ZM30.103 28.465C30.103 28.6107 29.9989 28.7148 29.8532 28.7148C29.7179 28.7148 29.6034 28.6107 29.6034 28.465V27.7989H28.9373C28.802 27.7989 28.6875 27.6948 28.6875 27.5491C28.6875 27.4138 28.802 27.2994 28.9373 27.2994H29.6034V26.6333C29.6034 26.498 29.7179 26.3835 29.8532 26.3835C29.9989 26.3835 30.103 26.498 30.103 26.6333V27.2994H30.7691C30.9148 27.2994 31.0189 27.4138 31.0189 27.5491C31.0189 27.6948 30.9148 27.7989 30.7691 27.7989H30.103V28.465Z" fill="black"/>
<circle cx="0.786133" cy="0.786133" r="0.786133" transform="matrix(-1 0 0 1 18.3486 15.833)" fill="black"/>
</g>
<defs>
<clipPath id="clip0_2638_7024">
<rect width="21" height="21" fill="white" transform="matrix(-1 0 0 1 33 12)"/>
</clipPath>
</defs>
</svg>
