<svg width="290" height="340" viewBox="0 0 290 340" fill="none" xmlns="http://www.w3.org/2000/svg">
<path fill-rule="evenodd" clip-rule="evenodd" d="M222.846 55.6106C222.697 55.2841 222.563 54.9577 222.444 54.6271C222.266 54.1313 222.155 53.6133 222.004 53.1102C221.94 52.8968 221.764 52.3428 221.753 52.2594C221.659 51.5311 222.197 51.2715 222.358 51.2078C222.435 51.1747 223.235 50.8617 223.658 51.7284C224.176 52.7879 224.547 53.8948 224.765 55.0181C225.197 55.9072 225.755 56.7582 226.388 57.4944C228.908 60.4222 232.081 59.9222 235.415 58.9959C235.927 58.8504 236.462 59.1394 236.625 59.6432C236.79 60.1508 236.527 60.699 236.028 60.8822C234.208 61.5634 231.294 63.9499 230.566 65.8168C230.414 66.2076 230.486 67.0326 230.508 67.8542C230.538 68.995 230.516 70.1374 230.292 70.675C230.259 70.758 229.823 71.6326 229.664 71.7863C229.281 72.1525 228.884 72.1065 228.645 72.0306C228.406 71.9546 228.106 71.7591 227.9 71.3573C227.684 70.9375 227.52 70.0013 227.453 69.8094C227.208 69.1133 226.692 67.7568 226.081 66.6358C225.751 66.0323 225.425 65.4815 225.07 65.2596C223.755 64.4383 222.166 65.0371 220.839 65.5861C220.686 65.6476 220.535 65.713 220.382 65.7744C219.867 66.0896 219.305 66.3718 218.697 66.6131C217.778 66.9787 217.388 66.1484 217.365 66.093C217.313 65.971 217.072 65.3355 217.717 64.8826C217.788 64.8348 218.33 64.5538 218.538 64.4445C218.828 64.2926 219.126 64.1551 219.426 64.0212C222.395 62.1469 223.396 58.848 222.846 55.6106ZM224.893 58.8051C226.793 61.0055 228.976 61.7301 231.323 61.694L231.323 61.6942C230.142 62.7805 229.134 64.0142 228.714 65.0944C228.554 65.5036 228.508 66.2531 228.507 67.081C228.202 66.3927 227.845 65.6689 227.469 65.0696C227.041 64.3856 226.567 63.8495 226.125 63.5728C225.271 63.0397 224.333 62.8669 223.386 62.9108C224.203 61.6748 224.698 60.2739 224.893 58.8051Z" fill="#FF7F50"/>
<path fill-rule="evenodd" clip-rule="evenodd" d="M198.779 9.97572C198.705 9.81362 198.638 9.65155 198.58 9.48743C198.491 9.24126 198.436 8.98407 198.361 8.73428C198.329 8.62833 198.242 8.35326 198.236 8.31182C198.19 7.95023 198.457 7.82133 198.537 7.78971C198.575 7.7733 198.972 7.61786 199.182 8.04818C199.439 8.57423 199.624 9.12381 199.732 9.68153C199.946 10.123 200.223 10.5455 200.538 10.911C201.789 12.3647 203.364 12.1164 205.02 11.6565C205.274 11.5843 205.539 11.7278 205.621 11.9779C205.702 12.2299 205.572 12.5021 205.324 12.5931C204.42 12.9313 202.974 14.1162 202.612 15.0431C202.537 15.2371 202.572 15.6467 202.583 16.0547C202.598 16.6211 202.587 17.1883 202.476 17.4552C202.46 17.4964 202.243 17.9306 202.164 18.007C201.974 18.1887 201.777 18.1659 201.658 18.1282C201.54 18.0905 201.391 17.9934 201.288 17.794C201.181 17.5855 201.1 17.1207 201.066 17.0254C200.945 16.6798 200.689 16.0063 200.385 15.4497C200.222 15.1501 200.06 14.8766 199.883 14.7664C199.231 14.3586 198.441 14.656 197.783 14.9286C197.707 14.9591 197.632 14.9916 197.556 15.0221C197.3 15.1785 197.021 15.3186 196.719 15.4385C196.263 15.62 196.069 15.2077 196.058 15.1802C196.032 15.1196 195.912 14.8041 196.233 14.5793C196.268 14.5556 196.537 14.416 196.64 14.3617C196.784 14.2863 196.932 14.2181 197.081 14.1516C198.555 13.221 199.052 11.5831 198.779 9.97572ZM199.796 11.5618C200.739 12.6543 201.822 13.014 202.988 12.9961L202.988 12.9962C202.402 13.5356 201.901 14.1481 201.693 14.6844C201.613 14.8876 201.59 15.2597 201.59 15.6708C201.438 15.329 201.261 14.9697 201.074 14.6721C200.862 14.3325 200.627 14.0663 200.407 13.9289C199.983 13.6643 199.518 13.5785 199.047 13.6002C199.453 12.9866 199.699 12.291 199.796 11.5618Z" fill="#AB92F0"/>
<path fill-rule="evenodd" clip-rule="evenodd" d="M84.1748 68.3373C84.1102 68.1962 84.0523 68.0551 84.001 67.9122C83.924 67.6979 83.8761 67.4739 83.8109 67.2565C83.7832 67.1642 83.7071 66.9247 83.7022 66.8887C83.6615 66.5739 83.8943 66.4616 83.9638 66.4341C83.9972 66.4198 84.3429 66.2845 84.5257 66.6591C84.7495 67.1171 84.9101 67.5956 85.0045 68.0812C85.1909 68.4655 85.4322 68.8334 85.706 69.1516C86.7952 70.4172 88.1666 70.201 89.6078 69.8006C89.8291 69.7377 90.0603 69.8627 90.1312 70.0804C90.2024 70.2999 90.0886 70.5368 89.8728 70.616C89.0861 70.9105 87.8268 71.9421 87.512 72.7491C87.4462 72.918 87.4772 73.2746 87.4869 73.6298C87.4998 74.1229 87.4902 74.6167 87.3936 74.8491C87.3793 74.8849 87.1907 75.263 87.122 75.3295C86.9565 75.4877 86.7847 75.4679 86.6814 75.435C86.5781 75.4022 86.4485 75.3177 86.3592 75.144C86.2659 74.9626 86.1952 74.5579 86.1661 74.4749C86.0602 74.174 85.8372 73.5876 85.573 73.1031C85.4306 72.8422 85.2896 72.6041 85.1361 72.5082C84.5678 72.1532 83.8807 72.412 83.3073 72.6493C83.2412 72.6759 83.1757 72.7042 83.1098 72.7307C82.887 72.867 82.6443 72.989 82.3812 73.0933C81.9841 73.2513 81.8157 72.8924 81.8053 72.8685C81.783 72.8157 81.679 72.541 81.9578 72.3453C81.9884 72.3246 82.2225 72.2031 82.3125 72.1559C82.438 72.0902 82.5668 72.0308 82.6965 71.9729C83.9797 71.1627 84.4125 69.7367 84.1748 68.3373ZM85.0597 69.7181C85.8809 70.6693 86.8244 70.9825 87.839 70.9669L87.8389 70.967C87.3286 71.4366 86.8928 71.9699 86.7112 72.4368C86.6422 72.6137 86.6222 72.9376 86.6218 73.2955C86.49 72.998 86.3356 72.6851 86.1731 72.4261C85.988 72.1304 85.7833 71.8987 85.5921 71.779C85.2232 71.5486 84.8176 71.4739 84.4082 71.4929C84.7613 70.9586 84.9753 70.3531 85.0597 69.7181Z" fill="black"/>
<path fill-rule="evenodd" clip-rule="evenodd" d="M59.1748 34.3373C59.1102 34.1962 59.0523 34.0551 59.001 33.9122C58.924 33.6979 58.8761 33.4739 58.8109 33.2565C58.7832 33.1642 58.7071 32.9247 58.7022 32.8887C58.6615 32.5739 58.8943 32.4616 58.9638 32.4341C58.9972 32.4198 59.3429 32.2845 59.5257 32.6591C59.7495 33.1171 59.9101 33.5956 60.0045 34.0812C60.1909 34.4655 60.4322 34.8334 60.706 35.1516C61.7952 36.4172 63.1666 36.201 64.6078 35.8006C64.8291 35.7377 65.0603 35.8627 65.1312 36.0804C65.2024 36.2999 65.0886 36.5368 64.8728 36.616C64.0861 36.9105 62.8268 37.9421 62.512 38.7491C62.4462 38.918 62.4772 39.2746 62.4869 39.6298C62.4998 40.1229 62.4902 40.6167 62.3936 40.8491C62.3793 40.8849 62.1907 41.263 62.122 41.3295C61.9565 41.4877 61.7847 41.4679 61.6814 41.435C61.5781 41.4022 61.4485 41.3177 61.3592 41.144C61.2659 40.9626 61.1952 40.5579 61.1661 40.4749C61.0602 40.174 60.8372 39.5876 60.573 39.1031C60.4306 38.8422 60.2896 38.6041 60.1361 38.5082C59.5678 38.1532 58.8807 38.412 58.3073 38.6493C58.2412 38.6759 58.1757 38.7042 58.1098 38.7307C57.887 38.867 57.6443 38.989 57.3812 39.0933C56.9841 39.2513 56.8157 38.8924 56.8053 38.8685C56.783 38.8157 56.679 38.541 56.9578 38.3453C56.9884 38.3246 57.2225 38.2031 57.3125 38.1559C57.438 38.0902 57.5668 38.0308 57.6965 37.9729C58.9797 37.1627 59.4125 35.7367 59.1748 34.3373ZM60.0597 35.7181C60.8809 36.6693 61.8244 36.9825 62.839 36.9669L62.8389 36.967C62.3286 37.4366 61.8928 37.9699 61.7112 38.4368C61.6422 38.6137 61.6222 38.9376 61.6218 39.2955C61.49 38.998 61.3356 38.6851 61.1731 38.4261C60.988 38.1304 60.7833 37.8987 60.5921 37.779C60.2232 37.5486 59.8176 37.4739 59.4082 37.4929C59.7613 36.9586 59.9753 36.3531 60.0597 35.7181Z" fill="#4ADE80"/>
<path fill-rule="evenodd" clip-rule="evenodd" d="M20.1748 83.3373C20.1102 83.1962 20.0523 83.0551 20.001 82.9122C19.924 82.6979 19.8761 82.4739 19.8109 82.2565C19.7832 82.1642 19.7071 81.9247 19.7022 81.8887C19.6615 81.5739 19.8943 81.4616 19.9638 81.4341C19.9972 81.4198 20.3429 81.2845 20.5257 81.6591C20.7495 82.1171 20.9101 82.5956 21.0045 83.0812C21.1909 83.4655 21.4322 83.8334 21.706 84.1516C22.7952 85.4172 24.1666 85.201 25.6078 84.8006C25.8291 84.7377 26.0603 84.8627 26.1312 85.0804C26.2024 85.2999 26.0886 85.5368 25.8728 85.616C25.0861 85.9105 23.8268 86.9421 23.512 87.7491C23.4462 87.918 23.4772 88.2746 23.4869 88.6298C23.4998 89.1229 23.4902 89.6167 23.3936 89.8491C23.3793 89.8849 23.1907 90.263 23.122 90.3295C22.9565 90.4877 22.7847 90.4679 22.6814 90.435C22.5781 90.4022 22.4485 90.3177 22.3592 90.144C22.2659 89.9626 22.1952 89.5579 22.1661 89.4749C22.0602 89.174 21.8372 88.5876 21.573 88.1031C21.4306 87.8422 21.2896 87.6041 21.1361 87.5082C20.5678 87.1532 19.8807 87.412 19.3073 87.6493C19.2412 87.6759 19.1757 87.7042 19.1098 87.7307C18.887 87.867 18.6443 87.989 18.3812 88.0933C17.9841 88.2513 17.8157 87.8924 17.8053 87.8685C17.783 87.8157 17.679 87.541 17.9578 87.3453C17.9884 87.3246 18.2225 87.2031 18.3125 87.1559C18.438 87.0902 18.5668 87.0308 18.6965 86.9729C19.9797 86.1627 20.4125 84.7367 20.1748 83.3373ZM21.0597 84.7181C21.8809 85.6693 22.8244 85.9825 23.839 85.9669L23.8389 85.967C23.3286 86.4366 22.8928 86.9699 22.7112 87.4368C22.6422 87.6137 22.6222 87.9376 22.6218 88.2955C22.49 87.998 22.3356 87.6851 22.1731 87.4261C21.988 87.1304 21.7833 86.8987 21.5921 86.779C21.2232 86.5486 20.8176 86.4739 20.4082 86.4929C20.7613 85.9586 20.9753 85.3531 21.0597 84.7181Z" fill="#FC1111"/>
<path fill-rule="evenodd" clip-rule="evenodd" d="M267.674 76.937C267.617 76.8128 267.566 76.6887 267.521 76.5629C267.453 76.3743 267.411 76.1773 267.354 75.9859C267.329 75.9047 267.262 75.694 267.258 75.6622C267.222 75.3852 267.427 75.2864 267.488 75.2622C267.518 75.2497 267.822 75.1306 267.983 75.4602C268.18 75.8633 268.321 76.2843 268.404 76.7116C268.568 77.0498 268.78 77.3736 269.021 77.6536C269.98 78.7673 271.187 78.5771 272.455 78.2247C272.65 78.1694 272.853 78.2793 272.915 78.471C272.978 78.6641 272.878 78.8726 272.688 78.9423C271.996 79.2014 270.888 80.1092 270.611 80.8193C270.553 80.968 270.58 81.2818 270.588 81.5943C270.6 82.0283 270.591 82.4629 270.506 82.6674C270.494 82.6989 270.328 83.0316 270.267 83.0901C270.122 83.2294 269.971 83.2119 269.88 83.183C269.789 83.1541 269.675 83.0797 269.596 82.9269C269.514 82.7672 269.452 82.4111 269.426 82.3381C269.333 82.0733 269.137 81.5573 268.904 81.1309C268.779 80.9013 268.655 80.6918 268.52 80.6074C268.02 80.295 267.415 80.5228 266.91 80.7316C266.852 80.755 266.795 80.7799 266.737 80.8032C266.541 80.9231 266.327 81.0305 266.096 81.1222C265.746 81.2613 265.598 80.9455 265.589 80.9244C265.569 80.878 265.478 80.6362 265.723 80.464C265.75 80.4458 265.956 80.3389 266.035 80.2973C266.145 80.2395 266.259 80.1873 266.373 80.1363C267.502 79.4234 267.883 78.1685 267.674 76.937ZM268.453 78.1522C269.175 78.9892 270.005 79.2648 270.898 79.2511L270.898 79.2511C270.449 79.6644 270.066 80.1336 269.906 80.5445C269.845 80.7002 269.828 80.9853 269.827 81.3002C269.711 81.0384 269.575 80.7631 269.432 80.5351C269.269 80.2749 269.089 80.071 268.921 79.9657C268.596 79.763 268.24 79.6972 267.879 79.7139C268.19 79.2438 268.378 78.7109 268.453 78.1522Z" fill="white"/>
<circle cx="116" cy="36" r="2.5" stroke="#FFDB58"/>
<circle opacity="0.5" cx="135" cy="2" r="1.5" stroke="white"/>
<g filter="url(#filter0_d_143_2210)">
<circle opacity="0.4" cx="145" cy="86.5" r="45.5" fill="#FF7F50"/>
<circle cx="145" cy="86.5" r="30.3333" fill="url(#paint0_linear_143_2210)"/>
<path d="M156.207 78.0604C155.842 78.0713 155.496 78.2238 155.242 78.4856L140.787 92.9402L136.163 88.3158C136.033 88.181 135.878 88.0734 135.707 87.9993C135.535 87.9252 135.351 87.886 135.164 87.8841C134.977 87.8822 134.792 87.9176 134.619 87.9882C134.446 88.0589 134.289 88.1633 134.156 88.2954C134.024 88.4275 133.92 88.5847 133.849 88.7576C133.779 88.9306 133.743 89.116 133.745 89.3028C133.747 89.4896 133.786 89.6742 133.86 89.8457C133.935 90.0172 134.042 90.1722 134.177 90.3016L139.794 95.9189C140.058 96.1822 140.415 96.33 140.787 96.33C141.159 96.33 141.517 96.1822 141.78 95.9189L157.227 80.4714C157.43 80.2741 157.569 80.0201 157.625 79.7428C157.681 79.4654 157.652 79.1775 157.542 78.9169C157.432 78.6563 157.245 78.4351 157.007 78.2822C156.769 78.1294 156.49 78.0521 156.207 78.0604Z" fill="white"/>
</g>
<path fill-rule="evenodd" clip-rule="evenodd" d="M106.354 120.929C99.425 111.61 95.9607 106.951 94.5277 105.748C91.5873 103.278 91.6659 103.318 87.9298 102.432C86.109 102 83.31 102 77.7121 102L30 102C20.6812 102 16.0218 102 12.3463 103.522C7.44577 105.552 3.55229 109.446 1.52241 114.346C0 118.022 0 122.681 0 132V310C0 319.319 0 323.978 1.52241 327.654C3.55229 332.554 7.44577 336.448 12.3463 338.478C16.0218 340 20.6812 340 30 340H260C269.319 340 273.978 340 277.654 338.478C282.554 336.448 286.448 332.554 288.478 327.654C290 323.978 290 319.319 290 310V132C290 122.681 290 118.022 288.478 114.346C286.448 109.446 282.554 105.552 277.654 103.522C273.978 102 269.319 102 260 102H213.288C207.69 102 204.891 102 203.07 102.432C199.334 103.318 199.413 103.278 196.472 105.748C195.039 106.951 191.575 111.61 184.646 120.929C176.081 132.448 161.742 140 145.5 140C129.258 140 114.919 132.448 106.354 120.929Z" fill="white"/>
<defs>
<filter id="filter0_d_143_2210" x="95.5" y="41" width="99" height="99" filterUnits="userSpaceOnUse" color-interpolation-filters="sRGB">
<feFlood flood-opacity="0" result="BackgroundImageFix"/>
<feColorMatrix in="SourceAlpha" type="matrix" values="0 0 0 0 0 0 0 0 0 0 0 0 0 0 0 0 0 0 127 0" result="hardAlpha"/>
<feOffset dy="4"/>
<feGaussianBlur stdDeviation="2"/>
<feComposite in2="hardAlpha" operator="out"/>
<feColorMatrix type="matrix" values="0 0 0 0 0 0 0 0 0 0 0 0 0 0 0 0 0 0 0.25 0"/>
<feBlend mode="normal" in2="BackgroundImageFix" result="effect1_dropShadow_143_2210"/>
<feBlend mode="normal" in="SourceGraphic" in2="effect1_dropShadow_143_2210" result="shape"/>
</filter>
<linearGradient id="paint0_linear_143_2210" x1="102.23" y1="86.5" x2="186.227" y2="112.702" gradientUnits="userSpaceOnUse">
<stop stop-color="#FF7F50"/>
<stop offset="1" stop-color="#FFDB58"/>
</linearGradient>
</defs>
</svg>
