<svg width="25" height="24" viewBox="0 0 25 24" fill="none" xmlns="http://www.w3.org/2000/svg">
<g clip-path="url(#clip0_2638_7013)">
<path d="M11.5967 3.28223H6.09668C5.56625 3.28223 5.05754 3.49294 4.68247 3.86801C4.30739 4.24309 4.09668 4.75179 4.09668 5.28223V19.2822C4.09668 19.8127 4.30739 20.3214 4.68247 20.6964C5.05754 21.0715 5.56625 21.2822 6.09668 21.2822H16.0967C16.6271 21.2822 17.1358 21.0715 17.5109 20.6964C17.886 20.3214 18.0967 19.8127 18.0967 19.2822" stroke="#1C1C1C" stroke-width="1.3" stroke-linecap="round" stroke-linejoin="round"/>
<path d="M7.09668 7.28223H12.0967" stroke="#1C1C1C" stroke-width="1.2" stroke-linecap="round" stroke-linejoin="round"/>
<path d="M7.09668 11.2822H12.0967" stroke="#1C1C1C" stroke-width="1.3" stroke-linecap="round" stroke-linejoin="round"/>
<path d="M7.09668 15.2822H10.0967" stroke="#1C1C1C" stroke-width="1.3" stroke-linecap="round" stroke-linejoin="round"/>
<path d="M16.2957 1.92606L19.8977 1.92606C20.1649 1.92604 20.4295 1.97865 20.6763 2.08089C20.9231 2.18313 21.1474 2.33299 21.3364 2.52191C21.5253 2.71084 21.6752 2.93513 21.7774 3.18198C21.8796 3.42883 21.9322 3.6934 21.9322 3.96058V6.60361C21.9322 6.87079 21.8796 7.13537 21.7774 7.38221C21.6752 7.62906 21.5253 7.85335 21.3364 8.04228C21.1474 8.23121 20.9231 8.38107 20.6763 8.48331C20.4295 8.58554 20.1649 8.63815 19.8977 8.63813H19.5967L19.5967 15.1962C19.5967 15.5285 19.4797 15.8501 19.2662 16.1047L19.1827 16.1962L18.5967 16.7822C18.4742 16.9047 18.311 16.9779 18.1381 16.9881C17.9652 16.9982 17.7946 16.9445 17.6587 16.8372L17.5967 16.7822L17.0107 16.1962C16.7759 15.9614 16.6313 15.6514 16.6022 15.3207L16.5967 15.1962L16.5967 14.7822L17.5967 13.7822L16.5967 12.7822L17.5967 11.7822L16.5967 10.7822V8.63813H16.2957C16.0285 8.63815 15.7639 8.58554 15.5171 8.48331C15.2702 8.38107 15.0459 8.23121 14.857 8.04228C14.6681 7.85335 14.5182 7.62906 14.416 7.38221C14.3137 7.13537 14.2611 6.87079 14.2611 6.60361L14.2611 3.96058C14.2611 3.6934 14.3137 3.42883 14.416 3.18198C14.5182 2.93513 14.6681 2.71084 14.857 2.52191C15.0459 2.33299 15.2702 2.18313 15.5171 2.08089C15.7639 1.97865 16.0285 1.92604 16.2957 1.92606Z" stroke="black" stroke-width="1.3" stroke-linecap="round" stroke-linejoin="round"/>
<path d="M18.0967 7.21826C17.1065 7.21826 16.3115 6.42331 16.3115 5.43311C16.3115 4.44987 17.1065 3.64795 18.0967 3.64795C19.0799 3.64795 19.8818 4.44987 19.8818 5.43311C19.8818 6.42331 19.0799 7.21826 18.0967 7.21826ZM17.9293 6.04675C17.9293 6.14438 17.9991 6.21411 18.0967 6.21411C18.1873 6.21411 18.264 6.14438 18.264 6.04675V5.60046H18.7103C18.801 5.60046 18.8777 5.53073 18.8777 5.43311C18.8777 5.34245 18.801 5.26575 18.7103 5.26575H18.264V4.81946C18.264 4.72881 18.1873 4.6521 18.0967 4.6521C17.9991 4.6521 17.9293 4.72881 17.9293 4.81946V5.26575H17.483C17.3854 5.26575 17.3157 5.34245 17.3157 5.43311C17.3157 5.53073 17.3854 5.60046 17.483 5.60046H17.9293V6.04675Z" fill="black"/>
</g>
<defs>
<clipPath id="clip0_2638_7013">
<rect width="24" height="24" fill="white" transform="translate(0.5)"/>
</clipPath>
</defs>
</svg>
