<svg width="45" height="45" viewBox="0 0 45 45" fill="none" xmlns="http://www.w3.org/2000/svg">
<rect width="45" height="45" rx="22.5" fill="#FFF3EE"/>
<g clip-path="url(#clip0_2638_7024)">
<path d="M21.709 14.8716H16.8965C16.4324 14.8716 15.9872 15.056 15.659 15.3841C15.3309 15.7123 15.1465 16.1575 15.1465 16.6216V28.8716C15.1465 29.3357 15.3309 29.7808 15.659 30.109C15.9872 30.4372 16.4324 30.6216 16.8965 30.6216H25.6465C26.1106 30.6216 26.5557 30.4372 26.8839 30.109C27.2121 29.7808 27.3965 29.3357 27.3965 28.8716" stroke="#1C1C1C" stroke-width="1.1375" stroke-linecap="round" stroke-linejoin="round"/>
<path d="M17.7715 18.3716H22.1465" stroke="#1C1C1C" stroke-width="1.05" stroke-linecap="round" stroke-linejoin="round"/>
<path d="M17.7715 21.8716H22.1465" stroke="#1C1C1C" stroke-width="1.1375" stroke-linecap="round" stroke-linejoin="round"/>
<path d="M17.7715 25.3716H20.3965" stroke="#1C1C1C" stroke-width="1.1375" stroke-linecap="round" stroke-linejoin="round"/>
<path d="M25.8206 13.6849L28.9724 13.6849C29.2062 13.6849 29.4377 13.731 29.6537 13.8204C29.8696 13.9099 30.0659 14.041 30.2312 14.2063C30.3965 14.3716 30.5277 14.5679 30.6171 14.7839C30.7066 14.9999 30.7526 15.2314 30.7526 15.4651V17.7778C30.7526 18.0116 30.7066 18.2431 30.6171 18.4591C30.5277 18.6751 30.3965 18.8713 30.2312 19.0366C30.0659 19.2019 29.8696 19.3331 29.6537 19.4225C29.4377 19.512 29.2062 19.558 28.9724 19.558H28.709L28.709 25.2963C28.709 25.587 28.6066 25.8685 28.4198 26.0913L28.3467 26.1713L27.834 26.6841C27.7268 26.7912 27.584 26.8553 27.4328 26.8642C27.2815 26.8731 27.1322 26.8261 27.0132 26.7322L26.959 26.6841L26.4462 26.1713C26.2408 25.9658 26.1143 25.6947 26.0888 25.4053L26.084 25.2963L26.084 24.9341L26.959 24.059L26.084 23.184L26.959 22.309L26.084 21.434V19.558H25.8206C25.5868 19.558 25.3553 19.512 25.1393 19.4225C24.9233 19.3331 24.7271 19.2019 24.5618 19.0366C24.3964 18.8713 24.2653 18.6751 24.1759 18.4591C24.0864 18.2431 24.0404 18.0116 24.0404 17.7778L24.0404 15.4651C24.0404 15.2314 24.0864 14.9999 24.1759 14.7839C24.2653 14.5679 24.3964 14.3716 24.5618 14.2063C24.7271 14.041 24.9233 13.9099 25.1393 13.8204C25.3553 13.731 25.5868 13.6849 25.8206 13.6849Z" stroke="black" stroke-width="1.1375" stroke-linecap="round" stroke-linejoin="round"/>
<path d="M27.396 18.3154C26.5296 18.3154 25.834 17.6198 25.834 16.7534C25.834 15.8931 26.5296 15.1914 27.396 15.1914C28.2563 15.1914 28.958 15.8931 28.958 16.7534C28.958 17.6198 28.2563 18.3154 27.396 18.3154ZM27.2496 17.2904C27.2496 17.3758 27.3106 17.4368 27.396 17.4368C27.4753 17.4368 27.5424 17.3758 27.5424 17.2904V16.8999H27.9329C28.0123 16.8999 28.0794 16.8388 28.0794 16.7534C28.0794 16.6741 28.0123 16.607 27.9329 16.607H27.5424V16.2165C27.5424 16.1372 27.4753 16.07 27.396 16.07C27.3106 16.07 27.2496 16.1372 27.2496 16.2165V16.607H26.8591C26.7736 16.607 26.7126 16.6741 26.7126 16.7534C26.7126 16.8388 26.7736 16.8999 26.8591 16.8999H27.2496V17.2904Z" fill="black"/>
</g>
<defs>
<clipPath id="clip0_2638_7024">
<rect width="21" height="21" fill="white" transform="translate(12 12)"/>
</clipPath>
</defs>
</svg>
