<svg width="50" height="50" viewBox="0 0 50 50" fill="none" xmlns="http://www.w3.org/2000/svg">
<rect width="50" height="50" rx="25" fill="#FFF3EE"/>
<path d="M34.8277 19.0548L30.9063 15.1331C30.796 15.0228 30.6464 14.9608 30.4904 14.9608H21.4706C20.4975 14.9608 19.7059 15.7525 19.7059 16.7255V24.4839C17.0625 24.7774 15 27.0248 15 29.7451C15 32.6643 17.3749 35.0392 20.2941 35.0392H33.2353C34.2084 35.0392 35 34.2476 35 33.2745V19.4707C35 19.3147 34.938 19.1651 34.8277 19.0548ZM31.0784 16.9692L32.9916 18.8824H31.0784V16.9692ZM16.1765 29.7451C16.1765 27.4747 18.0236 25.6275 20.2941 25.6275C22.5646 25.6275 24.4118 27.4747 24.4118 29.7451C24.4118 32.0156 22.5646 33.8628 20.2941 33.8628C18.0236 33.8628 16.1765 32.0156 16.1765 29.7451ZM33.2353 33.8628H23.6176C24.675 33.0077 25.3976 31.7546 25.5554 30.3334H31.6667C31.9915 30.3334 32.2549 30.07 32.2549 29.7451C32.2549 29.4203 31.9915 29.1569 31.6667 29.1569H25.5554C25.4595 28.2934 25.1552 27.4918 24.6939 26.804H31.6667C31.9915 26.804 32.2549 26.5406 32.2549 26.2157C32.2549 25.8909 31.9915 25.6275 31.6667 25.6275H23.6176C22.8521 25.0084 21.9113 24.5981 20.8824 24.4839V16.7255C20.8824 16.4012 21.1462 16.1373 21.4706 16.1373H29.902V19.4706C29.902 19.7955 30.1653 20.0589 30.4902 20.0589H33.8235V33.2745C33.8235 33.5989 33.5596 33.8628 33.2353 33.8628Z" fill="#FF7F50"/>
<path d="M31.6669 22.098H23.0394C22.7145 22.098 22.4512 22.3614 22.4512 22.6863C22.4512 23.0111 22.7145 23.2745 23.0394 23.2745H31.6669C31.9917 23.2745 32.2551 23.0111 32.2551 22.6863C32.2551 22.3614 31.9917 22.098 31.6669 22.098Z" fill="#FF7F50"/>
<path d="M21.8629 30.3334C22.1878 30.3334 22.4512 30.07 22.4512 29.7451C22.4512 29.4203 22.1878 29.1569 21.8629 29.1569H20.8825V27.3922C20.8825 27.0673 20.6192 26.804 20.2943 26.804C19.9694 26.804 19.7061 27.0673 19.7061 27.3922V29.7451C19.7061 30.07 19.9694 30.3334 20.2943 30.3334H21.8629Z" fill="#FF7F50"/>
</svg>
