<svg width="50" height="50" viewBox="0 0 50 50" fill="none" xmlns="http://www.w3.org/2000/svg">
<rect width="50" height="50" rx="25" fill="#FFF3EE"/>
<path d="M25.0005 16.1539H25C23.2504 16.1539 21.5401 16.6727 20.0853 17.6447C18.6306 18.6167 17.4968 19.9983 16.8272 21.6147C16.1577 23.2311 15.9825 25.0098 16.3238 26.7258C16.6652 28.4418 17.5077 30.018 18.7448 31.2552C19.982 32.4923 21.5582 33.3348 23.2742 33.6762C24.9902 34.0175 26.7689 33.8423 28.3853 33.1728C30.0017 32.5032 31.3833 31.3694 32.3553 29.9147C33.3273 28.4599 33.8462 26.7496 33.8462 25V24.9995C33.8434 22.6544 32.9105 20.406 31.2523 18.7478C29.594 17.0895 27.3456 16.1566 25.0005 16.1539ZM24.9996 34.6154C23.098 34.6153 21.2391 34.0514 19.658 32.9949C18.0767 31.9383 16.8443 30.4366 16.1165 28.6796C15.3888 26.9227 15.1984 24.9893 15.5694 23.1241C15.9404 21.2589 16.8562 19.5456 18.2009 18.2009C19.5456 16.8562 21.2589 15.9404 23.1241 15.5694C24.9893 15.1984 26.9227 15.3888 28.6796 16.1165C30.4366 16.8443 31.9383 18.0767 32.9949 19.658C34.0514 21.2391 34.6153 23.098 34.6154 24.9996C34.6124 27.5489 33.5984 29.9931 31.7957 31.7957C29.9931 33.5984 27.5489 34.6124 24.9996 34.6154Z" fill="#FF7F50" stroke="#FF7F50" stroke-width="0.769231"/>
<path d="M25.8434 25.1463L25.8637 25.1308L25.8817 25.1128L25.8932 25.1013C26.1236 24.8709 26.3716 24.6229 26.5603 24.3726C26.7493 24.1218 26.9229 23.813 26.9229 23.4616C26.9229 22.9515 26.7202 22.4624 26.3596 22.1017L26.1058 22.3556L26.3596 22.1017C25.9989 21.7411 25.5098 21.5385 24.9998 21.5385C24.4897 21.5385 24.0006 21.7411 23.64 22.1017C23.2793 22.4624 23.0767 22.9515 23.0767 23.4616C23.0767 23.5636 23.0362 23.6614 22.964 23.7335C22.8919 23.8057 22.7941 23.8462 22.6921 23.8462C22.5901 23.8462 22.4922 23.8057 22.4201 23.7335C22.348 23.6614 22.3075 23.5636 22.3075 23.4616C22.3075 22.7475 22.5911 22.0627 23.096 21.5578C23.6009 21.0529 24.2857 20.7693 24.9998 20.7693C25.7138 20.7693 26.3986 21.0529 26.9035 21.5578C27.4038 22.0581 27.6869 22.7351 27.692 23.4421C27.646 23.8665 27.515 24.2773 27.3066 24.65C27.095 25.0285 26.8082 25.3596 26.4638 25.623L26.4435 25.6385L26.4255 25.6565L26.4141 25.668C26.1837 25.8983 25.9356 26.1463 25.747 26.3967C25.558 26.6474 25.3844 26.9563 25.3844 27.3077C25.3844 27.4097 25.3439 27.5076 25.2717 27.5797C25.1996 27.6518 25.1018 27.6923 24.9998 27.6923C24.8978 27.6923 24.7999 27.6518 24.7278 27.5797C24.6596 27.5115 24.6197 27.4204 24.6155 27.3245C24.6618 26.9011 24.7927 26.4912 25.0006 26.1192C25.2122 25.7408 25.499 25.4097 25.8434 25.1463Z" fill="#FF7F50" stroke="#FF7F50" stroke-width="0.769231"/>
<path d="M24.9997 30.3847C25.4245 30.3847 25.7689 30.0403 25.7689 29.6154C25.7689 29.1906 25.4245 28.8462 24.9997 28.8462C24.5749 28.8462 24.2305 29.1906 24.2305 29.6154C24.2305 30.0403 24.5749 30.3847 24.9997 30.3847Z" fill="#FF7F50"/>
</svg>
