<svg width="50" height="50" viewBox="0 0 50 50" fill="none" xmlns="http://www.w3.org/2000/svg">
<rect width="50" height="50" rx="25" fill="#FFF3EE"/>
<path d="M34.8277 19.0547L30.9063 15.1331C30.796 15.0227 30.6464 14.9608 30.4904 14.9608H21.4706C20.4975 14.9608 19.7059 15.7524 19.7059 16.7255V24.4838C17.0625 24.7774 15 27.0247 15 29.7451C15 32.6642 17.3749 35.0392 20.2941 35.0392H33.2353C34.2084 35.0392 35 34.2475 35 33.2745V19.4707C35 19.3146 34.938 19.1651 34.8277 19.0547ZM31.0784 16.9691L32.9916 18.8823H31.0784V16.9691ZM16.1765 29.7451C16.1765 27.4746 18.0236 25.6274 20.2941 25.6274C22.5646 25.6274 24.4118 27.4746 24.4118 29.7451C24.4118 32.0155 22.5646 33.8627 20.2941 33.8627C18.0236 33.8627 16.1765 32.0155 16.1765 29.7451ZM33.2353 33.8627H23.6176C24.675 33.0076 25.3976 31.7545 25.5554 30.3333H31.6667C31.9915 30.3333 32.2549 30.0699 32.2549 29.7451C32.2549 29.4202 31.9915 29.1568 31.6667 29.1568H25.5554C25.4595 28.2933 25.1552 27.4918 24.6939 26.8039H31.6667C31.9915 26.8039 32.2549 26.5405 32.2549 26.2157C32.2549 25.8908 31.9915 25.6274 31.6667 25.6274H23.6176C22.8521 25.0084 21.9113 24.5981 20.8824 24.4838V16.7255C20.8824 16.4011 21.1462 16.1372 21.4706 16.1372H29.902V19.4706C29.902 19.7954 30.1653 20.0588 30.4902 20.0588H33.8235V33.2745C33.8235 33.5988 33.5596 33.8627 33.2353 33.8627Z" fill="#FF7F50"/>
<path d="M31.6669 22.098H23.0394C22.7145 22.098 22.4512 22.3614 22.4512 22.6863C22.4512 23.0111 22.7145 23.2745 23.0394 23.2745H31.6669C31.9917 23.2745 32.2551 23.0111 32.2551 22.6863C32.2551 22.3614 31.9917 22.098 31.6669 22.098Z" fill="#FF7F50"/>
<path d="M21.8629 30.3333C22.1878 30.3333 22.4512 30.0699 22.4512 29.7451C22.4512 29.4202 22.1878 29.1568 21.8629 29.1568H20.8825V27.3921C20.8825 27.0673 20.6192 26.8039 20.2943 26.8039C19.9694 26.8039 19.7061 27.0673 19.7061 27.3921V29.7451C19.7061 30.0699 19.9694 30.3333 20.2943 30.3333H21.8629Z" fill="#FF7F50"/>
</svg>
