<svg width="19" height="18" viewBox="0 0 19 18" fill="none" xmlns="http://www.w3.org/2000/svg">
<path d="M15.9688 4.29834C13.5753 4.06115 11.1675 3.93896 8.76688 3.93896C7.34375 3.93896 5.92063 4.01084 4.4975 4.15459L3.03125 4.29834" stroke="#1C1C1C" stroke-width="1.07813" stroke-linecap="round" stroke-linejoin="round"/>
<path d="M6.98438 3.57219L7.1425 2.63063C7.2575 1.94781 7.34375 1.4375 8.55844 1.4375H10.4416C11.6563 1.4375 11.7497 1.97656 11.8575 2.63781L12.0156 3.57219" stroke="#1C1C1C" stroke-width="1.07813" stroke-linecap="round" stroke-linejoin="round"/>
<path d="M14.424 6.56934L13.9568 13.8071C13.8778 14.9356 13.8131 15.8125 11.8078 15.8125H7.1934C5.18809 15.8125 5.1234 14.9356 5.04434 13.8071L4.57715 6.56934" stroke="#12454F" stroke-width="1.07813" stroke-linecap="round" stroke-linejoin="round"/>
<path d="M8.2998 11.8594H10.6932" stroke="#12454F" stroke-width="1.07813" stroke-linecap="round" stroke-linejoin="round"/>
<path d="M7.70312 8.98438H11.2969" stroke="#12454F" stroke-width="1.07813" stroke-linecap="round" stroke-linejoin="round"/>
</svg>
