<svg width="27" height="28" viewBox="0 0 27 28" fill="none" xmlns="http://www.w3.org/2000/svg">
<path fill-rule="evenodd" clip-rule="evenodd" d="M0.5 20.6667C0.5 24.1645 3.33553 27 6.83333 27L20.1667 27C23.6645 27 26.5 24.1645 26.5 20.6667L26.5 15.3333C26.5 11.8355 23.6645 9 20.1667 9L19.5 9C18.9477 9 18.5 9.44772 18.5 10C18.5 10.5523 18.9477 11 19.5 11L20.1667 11C22.5599 11 24.5 12.9401 24.5 15.3333L24.5 20.6667C24.5 23.0599 22.5599 25 20.1667 25L6.83333 25C4.4401 25 2.5 23.0599 2.5 20.6667L2.5 15.3333C2.5 12.9401 4.4401 11 6.83333 11L7.5 11C8.05228 11 8.5 10.5523 8.5 10C8.5 9.44772 8.05228 9 7.5 9L6.83333 9C3.33553 9 0.499999 11.8355 0.499999 15.3333L0.5 20.6667ZM8.79289 5.2929C8.40237 5.68342 8.40237 6.31659 8.79289 6.70711C9.18342 7.09763 9.81658 7.09763 10.2071 6.70711L12.5 4.41422L12.5 18C12.5 18.5523 12.9477 19 13.5 19C14.0523 19 14.5 18.5523 14.5 18L14.5 4.41422L16.7929 6.70711C17.1834 7.09763 17.8166 7.09763 18.2071 6.70711C18.5976 6.31659 18.5976 5.68342 18.2071 5.2929L14.2071 1.2929C13.8166 0.902374 13.1834 0.902374 12.7929 1.2929L8.79289 5.2929Z" fill="#FF7F50"/>
<path d="M8.79289 6.70711L9.14645 6.35356L9.14644 6.35356L8.79289 6.70711ZM8.79289 5.2929L9.14644 5.64645L9.14645 5.64645L8.79289 5.2929ZM10.2071 6.70711L9.85355 6.35356L10.2071 6.70711ZM12.5 4.41422L13 4.41422C13 4.21199 12.8782 4.02967 12.6913 3.95228C12.5045 3.87489 12.2894 3.91766 12.1464 4.06066L12.5 4.41422ZM14.5 4.41422L14.8536 4.06066C14.7106 3.91766 14.4955 3.87489 14.3087 3.95228C14.1218 4.02967 14 4.21199 14 4.41422L14.5 4.41422ZM16.7929 6.70711L17.1464 6.35356L17.1464 6.35355L16.7929 6.70711ZM18.2071 6.70711L17.8536 6.35355L17.8536 6.35356L18.2071 6.70711ZM18.2071 5.2929L17.8536 5.64645L17.8536 5.64645L18.2071 5.2929ZM14.2071 1.2929L14.5607 0.939344L14.2071 1.2929ZM12.7929 1.2929L12.4393 0.939344L12.4393 0.939344L12.7929 1.2929ZM6.83333 26.5C3.61167 26.5 1 23.8883 1 20.6667L-2.76839e-07 20.6667C-1.11874e-07 24.4406 3.05939 27.5 6.83333 27.5L6.83333 26.5ZM20.1667 26.5L6.83333 26.5L6.83333 27.5L20.1667 27.5L20.1667 26.5ZM26 20.6667C26 23.8883 23.3883 26.5 20.1667 26.5L20.1667 27.5C23.9406 27.5 27 24.4406 27 20.6667L26 20.6667ZM26 15.3333L26 20.6667L27 20.6667L27 15.3333L26 15.3333ZM20.1667 9.5C23.3883 9.5 26 12.1117 26 15.3333L27 15.3333C27 11.5594 23.9406 8.5 20.1667 8.5L20.1667 9.5ZM19.5 9.5L20.1667 9.5L20.1667 8.5L19.5 8.5L19.5 9.5ZM19 10C19 9.72386 19.2239 9.5 19.5 9.5L19.5 8.5C18.6716 8.5 18 9.17157 18 10L19 10ZM19.5 10.5C19.2239 10.5 19 10.2761 19 10L18 10C18 10.8284 18.6716 11.5 19.5 11.5L19.5 10.5ZM20.1667 10.5L19.5 10.5L19.5 11.5L20.1667 11.5L20.1667 10.5ZM25 15.3333C25 12.664 22.836 10.5 20.1667 10.5L20.1667 11.5C22.2838 11.5 24 13.2162 24 15.3333L25 15.3333ZM25 20.6667L25 15.3333L24 15.3333L24 20.6667L25 20.6667ZM20.1667 25.5C22.836 25.5 25 23.336 25 20.6667L24 20.6667C24 22.7838 22.2838 24.5 20.1667 24.5L20.1667 25.5ZM6.83333 25.5L20.1667 25.5L20.1667 24.5L6.83333 24.5L6.83333 25.5ZM2 20.6667C2 23.336 4.16396 25.5 6.83333 25.5L6.83333 24.5C4.71624 24.5 3 22.7838 3 20.6667L2 20.6667ZM2 15.3333L2 20.6667L3 20.6667L3 15.3333L2 15.3333ZM6.83333 10.5C4.16396 10.5 2 12.664 2 15.3333L3 15.3333C3 13.2162 4.71624 11.5 6.83333 11.5L6.83333 10.5ZM7.5 10.5L6.83333 10.5L6.83333 11.5L7.5 11.5L7.5 10.5ZM8 10C8 10.2761 7.77614 10.5 7.5 10.5L7.5 11.5C8.32843 11.5 9 10.8284 9 10L8 10ZM7.5 9.5C7.77614 9.5 8 9.72386 8 10L9 10C9 9.17158 8.32843 8.5 7.5 8.5L7.5 9.5ZM6.83333 9.5L7.5 9.5L7.5 8.5L6.83333 8.5L6.83333 9.5ZM0.999999 15.3333C0.999999 12.1117 3.61167 9.5 6.83333 9.5L6.83333 8.5C3.05939 8.5 -6.7493e-07 11.5594 -5.09966e-07 15.3333L0.999999 15.3333ZM1 20.6667L0.999999 15.3333L-5.09966e-07 15.3333L-2.76839e-07 20.6667L1 20.6667ZM9.14644 6.35356C8.95118 6.15829 8.95118 5.84171 9.14644 5.64645L8.43934 4.93934C7.85355 5.52513 7.85355 6.47488 8.43934 7.06066L9.14644 6.35356ZM9.85355 6.35356C9.65829 6.54882 9.34171 6.54882 9.14645 6.35356L8.43934 7.06066C9.02512 7.64645 9.97487 7.64645 10.5607 7.06066L9.85355 6.35356ZM12.1464 4.06066L9.85355 6.35356L10.5607 7.06066L12.8536 4.76777L12.1464 4.06066ZM13 18L13 4.41422L12 4.41422L12 18L13 18ZM13.5 18.5C13.2239 18.5 13 18.2761 13 18L12 18C12 18.8284 12.6716 19.5 13.5 19.5L13.5 18.5ZM14 18C14 18.2761 13.7761 18.5 13.5 18.5L13.5 19.5C14.3284 19.5 15 18.8284 15 18L14 18ZM14 4.41422L14 18L15 18L15 4.41422L14 4.41422ZM17.1464 6.35355L14.8536 4.06066L14.1464 4.76777L16.4393 7.06066L17.1464 6.35355ZM17.8536 6.35356C17.6583 6.54882 17.3417 6.54882 17.1464 6.35356L16.4393 7.06066C17.0251 7.64645 17.9749 7.64645 18.5607 7.06066L17.8536 6.35356ZM17.8536 5.64645C18.0488 5.84171 18.0488 6.15829 17.8536 6.35355L18.5607 7.06066C19.1464 6.47488 19.1464 5.52513 18.5607 4.93934L17.8536 5.64645ZM13.8536 1.64645L17.8536 5.64645L18.5607 4.93934L14.5607 0.939344L13.8536 1.64645ZM13.1464 1.64645C13.3417 1.45119 13.6583 1.45119 13.8536 1.64645L14.5607 0.939344C13.9749 0.353557 13.0251 0.353559 12.4393 0.939344L13.1464 1.64645ZM9.14645 5.64645L13.1464 1.64645L12.4393 0.939344L8.43934 4.93934L9.14645 5.64645Z" fill="#FF7F50"/>
</svg>
