<svg width="21" height="20" viewBox="0 0 21 20" fill="none" xmlns="http://www.w3.org/2000/svg">
<path d="M10.4997 9.99984C12.8009 9.99984 14.6663 8.13436 14.6663 5.83317C14.6663 3.53198 12.8009 1.6665 10.4997 1.6665C8.19849 1.6665 6.33301 3.53198 6.33301 5.83317C6.33301 8.13436 8.19849 9.99984 10.4997 9.99984Z" stroke="white" stroke-width="1.25" stroke-linecap="round" stroke-linejoin="round"/>
<path d="M3.3418 18.3333C3.3418 15.1083 6.55013 12.5 10.5001 12.5C11.3001 12.5 12.0751 12.6083 12.8001 12.8083" stroke="white" stroke-width="1.25" stroke-linecap="round" stroke-linejoin="round"/>
<path d="M18.8337 14.9998C18.8337 15.2665 18.8003 15.5248 18.7337 15.7748C18.6587 16.1082 18.5253 16.4332 18.3503 16.7165C17.7753 17.6832 16.717 18.3332 15.5003 18.3332C14.642 18.3332 13.867 18.0081 13.2837 17.4748C13.0337 17.2581 12.817 16.9998 12.6503 16.7165C12.342 16.2165 12.167 15.6248 12.167 14.9998C12.167 14.0998 12.5253 13.2749 13.1087 12.6749C13.717 12.0499 14.567 11.6665 15.5003 11.6665C16.4837 11.6665 17.3753 12.0915 17.9753 12.7749C18.5087 13.3665 18.8337 14.1498 18.8337 14.9998Z" stroke="white" stroke-width="1.25" stroke-miterlimit="10" stroke-linecap="round" stroke-linejoin="round"/>
<path d="M16.7421 14.9834H14.2588" stroke="white" stroke-width="1.25" stroke-miterlimit="10" stroke-linecap="round" stroke-linejoin="round"/>
<path d="M15.501 13.7666V16.2583" stroke="white" stroke-width="1.25" stroke-miterlimit="10" stroke-linecap="round" stroke-linejoin="round"/>
</svg>
