<svg width="21" height="21" viewBox="0 0 21 21" fill="none" xmlns="http://www.w3.org/2000/svg">
<path d="M10.5 10.5C12.9162 10.5 14.875 8.54125 14.875 6.125C14.875 3.70875 12.9162 1.75 10.5 1.75C8.08375 1.75 6.125 3.70875 6.125 6.125C6.125 8.54125 8.08375 10.5 10.5 10.5Z" stroke="#1C1C1C" stroke-width="1.3125" stroke-linecap="round" stroke-linejoin="round"/>
<path d="M2.98438 19.25C2.98438 15.8638 6.35312 13.125 10.5006 13.125C11.3406 13.125 12.1544 13.2387 12.9156 13.4487" stroke="#1C1C1C" stroke-width="1.3125" stroke-linecap="round" stroke-linejoin="round"/>
<path d="M19.25 15.75C19.25 16.03 19.215 16.3012 19.145 16.5637C19.0663 16.9137 18.9263 17.255 18.7425 17.5525C18.1388 18.5675 17.0275 19.25 15.75 19.25C14.8488 19.25 14.035 18.9087 13.4225 18.3487C13.16 18.1212 12.9325 17.85 12.7575 17.5525C12.4337 17.0275 12.25 16.4062 12.25 15.75C12.25 14.805 12.6263 13.9388 13.2388 13.3088C13.8775 12.6525 14.77 12.25 15.75 12.25C16.7825 12.25 17.7188 12.6963 18.3488 13.4138C18.9088 14.035 19.25 14.8575 19.25 15.75Z" stroke="#1C1C1C" stroke-width="1.3125" stroke-miterlimit="10" stroke-linecap="round" stroke-linejoin="round"/>
<path d="M17.0528 15.7324H14.4453" stroke="#1C1C1C" stroke-width="1.3125" stroke-miterlimit="10" stroke-linecap="round" stroke-linejoin="round"/>
<path d="M15.749 14.4551V17.0713" stroke="#1C1C1C" stroke-width="1.3125" stroke-miterlimit="10" stroke-linecap="round" stroke-linejoin="round"/>
</svg>
