<svg width="22" height="21" viewBox="0 0 22 21" fill="none" xmlns="http://www.w3.org/2000/svg">
<path d="M10.8324 7.65895C11.0024 7.65895 11.1401 7.52122 11.1401 7.35133V6.96464C11.8398 6.81834 12.2488 6.23743 12.3401 5.69439C12.4585 4.99043 12.0901 4.37836 11.4017 4.13501C11.3157 4.10462 11.2279 4.07283 11.1401 4.03986V2.47043C11.3968 2.55825 11.5876 2.70254 11.5941 2.70755C11.7278 2.81168 11.9207 2.7881 12.0253 2.65459C12.1301 2.52088 12.1067 2.32754 11.973 2.22274C11.9517 2.20609 11.6057 1.93977 11.1401 1.83309V1.55078C11.1401 1.38089 11.0024 1.24316 10.8324 1.24316C10.6625 1.24316 10.5248 1.38089 10.5248 1.55078V1.81021C10.4803 1.81792 10.4355 1.82764 10.3906 1.84023C9.87025 1.9862 9.51567 2.35305 9.41772 2.84675C9.32626 3.30797 9.49213 3.79618 9.83059 4.06168C10.0042 4.19785 10.2218 4.32212 10.5248 4.45461V6.38021C10.2533 6.36561 10.0776 6.30859 9.77977 6.11377C9.63757 6.02075 9.44697 6.06061 9.35394 6.20281C9.26092 6.34497 9.30079 6.53562 9.44299 6.62864C9.86389 6.90398 10.1471 6.97899 10.5248 6.99565V7.35133C10.5248 7.52122 10.6625 7.65895 10.8324 7.65895ZM10.2103 3.57757C10.0522 3.45358 9.97443 3.20228 10.0212 2.96648C10.0505 2.81903 10.1556 2.55923 10.5248 2.44279V3.77387C10.4053 3.71165 10.2979 3.64623 10.2103 3.57757ZM11.1967 4.7151C11.7959 4.9269 11.759 5.44013 11.7334 5.59238C11.6841 5.88523 11.4825 6.19617 11.1401 6.3241V4.69483C11.159 4.7016 11.1773 4.70825 11.1967 4.7151Z" fill="black"/>
<path d="M4.36066 16.6579C4.55909 16.3974 4.67722 16.0725 4.67722 15.7205C4.67722 14.8655 3.98159 14.1699 3.12658 14.1699C2.27157 14.1699 1.57599 14.8655 1.57599 15.7205C1.57599 16.0726 1.69411 16.3974 1.8925 16.6579C1.02601 16.6969 0.333008 17.4136 0.333008 18.2893V20.6924C0.333008 20.8623 0.470697 21 0.640625 21H2.40881C2.57874 21 2.71643 20.8623 2.71643 20.6924C2.71643 20.5225 2.57874 20.3848 2.40881 20.3848H0.948242V18.2893C0.948242 17.7279 1.40512 17.2713 1.96666 17.2713H4.2865C4.84805 17.2713 5.30492 17.7279 5.30492 18.2893V20.3848H3.84436C3.67443 20.3848 3.53674 20.5225 3.53674 20.6924C3.53674 20.8623 3.67443 21 3.84436 21H5.6125C5.78243 21 5.92011 20.8623 5.92011 20.6924V18.2893C5.92016 17.4136 5.22712 16.6969 4.36066 16.6579ZM3.12654 14.7852C3.64231 14.7852 4.06194 15.2047 4.06194 15.7205C4.06194 16.2363 3.64235 16.6559 3.12654 16.6559C2.61081 16.6559 2.19118 16.2363 2.19118 15.7205C2.19118 15.2047 2.61081 14.7852 3.12654 14.7852Z" fill="black"/>
<path d="M12.0668 16.6578C12.2651 16.3972 12.3832 16.0725 12.3832 15.7205C12.3832 14.8655 11.6876 14.1699 10.8326 14.1699C9.97758 14.1699 9.282 14.8655 9.282 15.7205C9.282 16.0725 9.40004 16.3972 9.59839 16.6578C8.73198 16.6967 8.03906 17.4135 8.03906 18.2893V20.6924C8.03906 20.8623 8.17675 21 8.34668 21H13.3186C13.4885 21 13.6262 20.8623 13.6262 20.6924V18.2894C13.6261 17.4135 12.9332 16.6967 12.0668 16.6578ZM10.8326 14.7852C11.3483 14.7852 11.768 15.2048 11.768 15.7206C11.768 16.2363 11.3484 16.6559 10.8326 16.6559C10.3168 16.6559 9.89723 16.2363 9.89723 15.7206C9.89723 15.2048 10.3169 14.7852 10.8326 14.7852ZM13.0109 20.3848H8.6543V18.2894C8.6543 17.7279 9.11109 17.2712 9.67251 17.2712H11.9927C12.5541 17.2712 13.0109 17.7279 13.0109 18.2894V20.3848Z" fill="black"/>
<path d="M19.7737 16.6579C19.9721 16.3974 20.0903 16.0725 20.0903 15.7205C20.0903 14.8655 19.3947 14.1699 18.5397 14.1699C17.6847 14.1699 16.989 14.8655 16.989 15.7205C16.989 16.0726 17.1072 16.3974 17.3056 16.6579C16.4391 16.6969 15.7461 17.4136 15.7461 18.2893V20.6924C15.7461 20.8623 15.8838 21 16.0537 21H17.8219C17.9918 21 18.1295 20.8623 18.1295 20.6924C18.1295 20.5225 17.9918 20.3848 17.8219 20.3848H16.3613V18.2893C16.3613 17.7279 16.8182 17.2713 17.3797 17.2713H19.6996C20.2611 17.2713 20.718 17.7279 20.718 18.2893V20.3848H19.2574C19.0875 20.3848 18.9498 20.5225 18.9498 20.6924C18.9498 20.8623 19.0875 21 19.2574 21H21.0256C21.1956 21 21.3332 20.8623 21.3332 20.6924V18.2893C21.3332 17.4136 20.6402 16.6969 19.7737 16.6579ZM18.5397 14.7852C19.0554 14.7852 19.4751 15.2047 19.4751 15.7205C19.4751 16.2363 19.0555 16.6559 18.5397 16.6559C18.0239 16.6559 17.6043 16.2363 17.6043 15.7205C17.6043 15.2047 18.0239 14.7852 18.5397 14.7852Z" fill="black"/>
<path d="M2.90866 13.3692C2.96637 13.4269 3.04458 13.4593 3.1262 13.4593C3.20782 13.4593 3.286 13.4269 3.34375 13.3692L4.33813 12.3748C4.45827 12.2547 4.45827 12.0599 4.33813 11.9398C4.21796 11.8197 4.02322 11.8197 3.90308 11.9398L3.43386 12.409V10.8076H10.525V12.409L10.0558 11.9398C9.93562 11.8196 9.74088 11.8196 9.62074 11.9398C9.50061 12.0599 9.50061 12.2547 9.62074 12.3748L10.6151 13.3692C10.6752 13.4292 10.754 13.4593 10.8327 13.4593C10.9114 13.4593 10.9901 13.4293 11.0502 13.3692L12.0446 12.3748C12.1647 12.2546 12.1647 12.0599 12.0446 11.9398C11.9244 11.8196 11.7297 11.8196 11.6095 11.9398L11.1403 12.409V10.8076H18.2316V12.409L17.7623 11.9398C17.6422 11.8196 17.4474 11.8196 17.3273 11.9398C17.2072 12.0599 17.2072 12.2547 17.3273 12.3748L18.3217 13.3692C18.3794 13.4269 18.4576 13.4593 18.5392 13.4593C18.6208 13.4593 18.699 13.4269 18.7568 13.3692L19.7511 12.3748C19.8712 12.2546 19.8712 12.0599 19.7511 11.9398C19.631 11.8196 19.4362 11.8196 19.3161 11.9398L18.8469 12.409V10.5C18.8469 10.3301 18.7092 10.1924 18.5393 10.1924H11.1402V8.89079C13.4516 8.73223 15.2836 6.80166 15.2836 4.45102C15.2836 3.55987 15.0209 2.69957 14.524 1.96317C14.4289 1.82232 14.2377 1.78525 14.0969 1.88028C13.9561 1.97531 13.9189 2.16653 14.014 2.30737C14.4421 2.94172 14.6685 3.683 14.6685 4.45102C14.6685 6.56586 12.9477 8.28639 10.8327 8.28639C8.71762 8.28639 6.99689 6.56586 6.99689 4.45102C6.99685 2.33596 8.71762 0.615234 10.8326 0.615234C11.6536 0.615234 12.436 0.87068 13.0953 1.35388C13.2322 1.45429 13.4248 1.42468 13.5252 1.2876C13.6257 1.15057 13.596 0.958084 13.459 0.857637C12.6935 0.296584 11.7853 0 10.8326 0C8.37834 0 6.38161 1.99672 6.38161 4.45102C6.38161 6.80166 8.21366 8.73223 10.525 8.89079V10.1924H3.12616C2.95623 10.1924 2.81855 10.3301 2.81855 10.5V12.409L2.34937 11.9398C2.22923 11.8196 2.03445 11.8196 1.91436 11.9398C1.79418 12.0599 1.79418 12.2546 1.91431 12.3748L2.90866 13.3692Z" fill="black"/>
</svg>
