<svg width="13" height="12" viewBox="0 0 13 12" fill="none" xmlns="http://www.w3.org/2000/svg">
<path d="M11.4795 0.78125C11.7842 0.78125 12.042 1.03906 12.042 1.34375C12.042 1.67188 11.7842 1.90625 11.4795 1.90625H2.85449C2.31543 1.90625 1.91699 2.32812 1.91699 2.84375V9.21875C1.91699 9.75781 2.31543 10.1562 2.85449 10.1562H10.7295C11.2451 10.1562 11.667 9.75781 11.667 9.21875V5.09375C11.667 4.57812 11.2451 4.15625 10.7295 4.15625H3.60449C3.27637 4.15625 3.04199 3.92188 3.04199 3.59375C3.04199 3.28906 3.27637 3.03125 3.60449 3.03125H10.7295C11.8545 3.03125 12.792 3.96875 12.792 5.09375V9.21875C12.792 10.3672 11.8545 11.2812 10.7295 11.2812H2.85449C1.70605 11.2812 0.791992 10.3672 0.791992 9.21875V2.84375C0.791992 1.71875 1.70605 0.78125 2.85449 0.78125H11.4795ZM9.04199 7.15625C9.04199 6.75781 9.37012 6.40625 9.79199 6.40625C10.1904 6.40625 10.542 6.75781 10.542 7.15625C10.542 7.57812 10.1904 7.90625 9.79199 7.90625C9.37012 7.90625 9.04199 7.57812 9.04199 7.15625Z" fill="white"/>
</svg>
