<svg width="34" height="34" viewBox="0 0 34 34" fill="none" xmlns="http://www.w3.org/2000/svg">
<rect width="34" height="34" rx="6" fill="#01615F" fill-opacity="0.1"/>
<path d="M17.12 17.7805C17.05 17.7705 16.96 17.7705 16.88 17.7805C15.12 17.7205 13.72 16.2805 13.72 14.5105C13.72 12.7005 15.18 11.2305 17 11.2305C18.81 11.2305 20.28 12.7005 20.28 14.5105C20.27 16.2805 18.88 17.7205 17.12 17.7805Z" stroke="#01615F" stroke-width="1.5" stroke-linecap="round" stroke-linejoin="round"/>
<path d="M23.74 24.3796C21.96 26.0096 19.6 26.9996 17 26.9996C14.4 26.9996 12.04 26.0096 10.26 24.3796C10.36 23.4396 10.96 22.5196 12.03 21.7996C14.77 19.9796 19.25 19.9796 21.97 21.7996C23.04 22.5196 23.64 23.4396 23.74 24.3796Z" stroke="#01615F" stroke-width="1.5" stroke-linecap="round" stroke-linejoin="round"/>
<path d="M17 27C22.5228 27 27 22.5228 27 17C27 11.4772 22.5228 7 17 7C11.4772 7 7 11.4772 7 17C7 22.5228 11.4772 27 17 27Z" stroke="#01615F" stroke-width="1.5" stroke-linecap="round" stroke-linejoin="round"/>
</svg>
