<svg width="25" height="24" viewBox="0 0 25 24" fill="none" xmlns="http://www.w3.org/2000/svg">
<path d="M6.18074 19.1037C6.16901 19.0934 6.1546 19.0808 6.13851 19.0672L6.64511 18.4424C6.90091 18.1269 7.20477 17.8404 7.57527 17.5962L7.57528 17.5962L7.57856 17.594C8.79537 16.7828 10.4349 16.355 12.11 16.355C13.7854 16.355 15.4187 16.7829 16.6244 17.5926L16.6244 17.5926L16.6298 17.5962C17.0067 17.8446 17.3154 18.1305 17.5522 18.4327L18.0503 19.0681L18.0475 19.0706C18.0195 19.0926 17.9958 19.1127 17.9773 19.1286C17.9539 19.1489 17.9417 19.1597 17.9325 19.1678C17.9225 19.1768 17.916 19.1825 17.9024 19.1938C17.7449 19.3251 17.5736 19.4517 17.3824 19.5856L17.3824 19.5855L17.3766 19.5897C17.3527 19.6068 17.3308 19.6231 17.3134 19.636C17.2943 19.6502 17.2825 19.6591 17.27 19.6682C17.2473 19.6848 17.2404 19.6888 17.2404 19.6888L17.2218 19.6995L17.2038 19.7112C17.0846 19.7886 16.9777 19.8509 16.8553 19.9222C16.7875 19.9617 16.7148 20.004 16.6328 20.0532C16.6072 20.068 16.5839 20.0822 16.5649 20.094L16.5354 20.1124L16.5108 20.1278C16.4793 20.1473 16.4654 20.155 16.4571 20.1592L16.4508 20.1623L16.4445 20.1656C16.2511 20.267 16.0586 20.3586 15.8671 20.4406L15.8468 20.4493L15.8271 20.4592C15.74 20.5027 15.6958 20.524 15.6592 20.5378L15.643 20.5438L15.6271 20.5506C15.5108 20.6005 15.4055 20.6365 15.2765 20.6805C15.2061 20.7046 15.1287 20.731 15.0386 20.7635C14.9322 20.7928 14.8349 20.8293 14.7702 20.8536L14.7681 20.8544C14.6399 20.8984 14.5148 20.928 14.3552 20.9658C14.2941 20.9802 14.228 20.9958 14.1547 21.0139C14.0823 21.0263 14.023 21.0427 13.993 21.051L13.9893 21.052L13.9834 21.0536C13.972 21.0568 13.9657 21.0585 13.9613 21.0597L13.9508 21.0612L13.9254 21.0666C13.6789 21.1195 13.4268 21.1559 13.1554 21.184L13.1023 21.1895L13.0506 21.2024L13.0497 21.2026L13.0446 21.2031C12.7303 21.2317 12.4139 21.25 12.1025 21.25C11.8089 21.25 11.5103 21.2337 11.2036 21.2077C11.1576 21.1977 11.0909 21.1857 11.0165 21.1815C10.7539 21.1538 10.5092 21.118 10.2697 21.0666L10.2379 21.0598L10.2056 21.0558C10.191 21.054 10.1737 21.0503 10.0986 21.0289L10.0866 21.0254L10.0744 21.0224C9.8322 20.9618 9.60627 20.9053 9.38254 20.84L9.36857 20.8359L9.35444 20.8324C9.32315 20.8246 9.28366 20.8107 9.19589 20.7778L9.17807 20.7711L9.15994 20.7653C8.95962 20.7016 8.75848 20.6285 8.55651 20.5458L8.54626 20.5416L8.53589 20.5378C8.4993 20.524 8.45506 20.5027 8.36796 20.4592L8.34267 20.4465L8.31651 20.4358C8.124 20.3571 7.94178 20.2703 7.76952 20.1759C7.74398 20.1612 7.71499 20.1438 7.67841 20.1219L7.67542 20.1201C7.64001 20.0988 7.59667 20.0728 7.55465 20.0488L7.54272 20.042L7.53055 20.0356C7.34797 19.94 7.17518 19.8364 7.01185 19.725C6.97498 19.6987 6.941 19.6752 6.91115 19.6545L6.90945 19.6534C6.87805 19.6316 6.85102 19.6129 6.82271 19.5927C6.77243 19.5557 6.72462 19.5209 6.67884 19.4875C6.53494 19.3827 6.41098 19.2924 6.29268 19.1938L6.2619 19.1682L6.23276 19.1488C6.23069 19.1471 6.22596 19.1432 6.21776 19.1361C6.21055 19.1299 6.20432 19.1244 6.19562 19.1168C6.19138 19.113 6.18655 19.1088 6.18074 19.1037Z" fill="#01615F" stroke="#01615F" stroke-width="1.5"/>
<path d="M9.10254 10.6797C9.10254 9.0239 10.4468 7.67969 12.1025 7.67969C13.7577 7.67969 15.1015 9.0229 15.1025 10.6778C15.0936 12.3018 13.8283 13.6075 12.2189 13.6697H12.2188H12.2188H12.2187H12.2187H12.2186H12.2185H12.2185H12.2184H12.2184H12.2183H12.2183H12.2182H12.2182H12.2181H12.218H12.218H12.2179H12.2179H12.2178H12.2178H12.2177H12.2176H12.2176H12.2175H12.2175H12.2174H12.2174H12.2173H12.2172H12.2172H12.2171H12.2171H12.217H12.217H12.2169H12.2168H12.2168H12.2167H12.2167H12.2166H12.2166H12.2165H12.2164H12.2164H12.2163H12.2163H12.2162H12.2162H12.2161H12.216H12.216H12.2159H12.2159H12.2158H12.2157H12.2157H12.2156H12.2156H12.2155H12.2155H12.2154H12.2153H12.2153H12.2152H12.2152H12.2151H12.2151H12.215H12.2149H12.2149H12.2148H12.2148H12.2147H12.2146H12.2146H12.2145H12.2145H12.2144H12.2144H12.2143H12.2142H12.2142H12.2141H12.2141H12.214H12.2139H12.2139H12.2138H12.2138H12.2137H12.2137H12.2136H12.2135H12.2135H12.2134H12.2134H12.2133H12.2132H12.2132H12.2131H12.2131H12.213H12.2129H12.2129H12.2128H12.2128H12.2127H12.2127H12.2126H12.2125H12.2124H12.2123H12.2122H12.2121H12.2119H12.2118H12.2117H12.2116H12.2115H12.2114H12.2112H12.2111H12.211H12.2109H12.2108H12.2106H12.2105H12.2104H12.2103H12.2102H12.21H12.2099H12.2098H12.2097H12.2095H12.2094H12.2093H12.2092H12.209H12.2089H12.2088H12.2087H12.2086H12.2084H12.2083H12.2082H12.2081H12.2079H12.2078H12.2077H12.2076H12.2074H12.2073H12.2072H12.207H12.2069H12.2068H12.2067H12.2065H12.2064H12.2063H12.2062H12.206H12.2059H12.2058H12.2056H12.2055H12.2054H12.2053H12.2051H12.205H12.2049H12.2047H12.2046H12.2045H12.2043H12.2042H12.2041H12.204H12.2038H12.2037H12.2036H12.2034H12.2033H12.2032H12.203H12.2029H12.2028H12.2026H12.2025H12.2024H12.2022H12.2021H12.202H12.2018H12.2017H12.2016H12.2014H12.2013H12.2012H12.201H12.2009H12.2008H12.2006H12.2005H12.2004H12.2002H12.2001H12.2H12.1998H12.1997H12.1996H12.1994H12.1993H12.1991H12.199H12.1989H12.1987H12.1986H12.1985H12.1983H12.1982H12.1981H12.1979H12.1978H12.1976H12.1975H12.1974H12.1972H12.1971H12.1969H12.1968H12.1967H12.1965H12.1964H12.1963H12.1961H12.196H12.1958H12.1957H12.1956H12.1954H12.1953H12.1951H12.195H12.1949H12.1947H12.1946H12.1944H12.1943H12.1942H12.194H12.1939H12.1937H12.1936H12.1935H12.1933H12.1932H12.193H12.1929H12.1927H12.1926H12.1925H12.1923H12.1922H12.192H12.1919H12.1918H12.1916H12.1915H12.1913H12.1912H12.191H12.1909H12.1908H12.1906H12.1905H12.1903H12.1902H12.19H12.1899H12.1898H12.1896H12.1895H12.1893H12.1892H12.189H12.1889H12.1888H12.1886H12.1885H12.1883H12.1882H12.188H12.1879H12.1877H12.1876H12.1875H12.1873H12.1872H12.187H12.1869H12.1867H12.1866H12.1864H12.1863H12.1862H12.186H12.1859H12.1857H12.1856H12.1854H12.1853H12.1851H12.185H12.1848H12.1847H12.1846H12.1844H12.1843H12.1841H12.184H12.1838H12.1837H12.1835H12.1834H12.1832H12.1831H12.183H12.1828H12.1827H12.1825H12.1824H12.1822H12.1821H12.1819H12.1818H12.1816H12.1815H12.1813H12.1812H12.1811H12.1809H12.1808H12.1806H12.1805H12.1803H12.1802H12.18H12.1799H12.1797H12.1796H12.1794H12.1793H12.1792H12.179H12.1789H12.1787H12.1786H12.1784H12.1783H12.1781H12.178H12.1778H12.1777H12.1775H12.1774H12.1772H12.1771H12.177H12.1768H12.1767H12.1765H12.1764H12.1762H12.1761H12.1759H12.1758H12.1756H12.1755H12.1753H12.1752H12.175H12.1749H12.1748H12.1746H12.1745H12.1743H12.1742H12.174H12.1739H12.1737H12.1736H12.1734H12.1733H12.1731H12.173H12.1729H12.1727H12.1726H12.1724H12.1723H12.1721H12.172H12.1718H12.1717H12.1715H12.1714H12.1713H12.1711H12.171H12.1708H12.1707H12.1705H12.1704H12.1702H12.1701H12.1699H12.1698H12.1697H12.1695H12.1694H12.1692H12.1691H12.1689H12.1688H12.1686H12.1685H12.1683H12.1682H12.1681H12.1679H12.1678H12.1676H12.1675H12.1673H12.1672H12.167H12.1669H12.1668H12.1666H12.1665H12.1663H12.1662H12.166H12.1659H12.1658H12.1656H12.1655H12.1653H12.1652H12.165H12.1649H12.1647H12.1646H12.1645H12.1643H12.1642H12.164H12.1639H12.1638H12.1636H12.1635H12.1633H12.1632H12.163H12.1629H12.1628H12.1626H12.1625H12.1623H12.1622H12.162H12.1619H12.1618H12.1616H12.1615H12.1613H12.1612H12.1611H12.1609H12.1608H12.1606H12.1605H12.1604H12.1602H12.1601H12.1599H12.1598H12.1597H12.1595H12.1594H12.1592H12.1591H12.159H12.1588H12.1587H12.1585H12.1584H12.1583H12.1581H12.158H12.1579H12.1577H12.1576H12.1574H12.1573H12.1572H12.157H12.1569H12.1568H12.1566H12.1565H12.1563H12.1562H12.1561H12.1559H12.1558H12.1557H12.1555H12.1554H12.1553H12.1551H12.155H12.1548H12.1547H12.1546H12.1544H12.1543H12.1542H12.154H12.1539H12.1538H12.1536H12.1535H12.1534H12.1532H12.1531H12.153H12.1528H12.1527H12.1526H12.1524H12.1523H12.1522H12.152H12.1519H12.1518H12.1516H12.1515H12.1514H12.1513H12.1511H12.151H12.1509H12.1507H12.1506H12.1505H12.1503H12.1502H12.1501H12.15H12.1498H12.1497H12.1496H12.1494H12.1493H12.1492H12.149H12.1489H12.1488H12.1487H12.1485H12.1484H12.1483H12.1482H12.148H12.1479H12.1478H12.1477H12.1475H12.1474H12.1473H12.1471H12.147H12.1469H12.1468H12.1466H12.1465H12.1464H12.1463H12.1462H12.146H12.1459H12.1458H12.1457H12.1455H12.1454H12.1453H12.1452H12.145H12.1449H12.1448H12.1447H12.1446H12.1444H12.1443H12.1442H12.1441H12.144H12.1438H12.1437H12.1436H12.1435H12.1434H12.1432H12.1431H12.143H12.1429H12.1428H12.1427H12.1425H12.1424H12.1423H12.1422H12.1421H12.1419H12.1418H12.1417H12.1416H12.1415H12.1413H12.1412H12.1411H12.141H12.1409H12.1407H12.1406H12.1405H12.1404H12.1402H12.1401H12.14H12.1399H12.1397H12.1396H12.1395H12.1393H12.1392H12.1391H12.139H12.1388H12.1387H12.1386H12.1384H12.1383H12.1382H12.138H12.1379H12.1378H12.1376H12.1375H12.1374H12.1372H12.1371H12.137H12.1368H12.1367H12.1365H12.1364H12.1363H12.1361H12.136H12.1359H12.1357H12.1356H12.1354H12.1353H12.1352H12.135H12.1349H12.1347H12.1346H12.1344H12.1343H12.1342H12.134H12.1339H12.1337H12.1336H12.1334H12.1333H12.1331H12.133H12.1329H12.1327H12.1326H12.1324H12.1323H12.1321H12.132H12.1318H12.1317H12.1315H12.1314H12.1312H12.1311H12.1309H12.1308H12.1306H12.1305H12.1303H12.1301H12.13H12.1298H12.1297H12.1295H12.1294H12.1292H12.1291H12.1289H12.1288H12.1286H12.1284H12.1283H12.1281H12.128H12.1278H12.1277H12.1275H12.1273H12.1272H12.127H12.1269H12.1267H12.1265H12.1264H12.1262H12.1261H12.1259H12.1257H12.1256H12.1254H12.1252H12.1251H12.1249H12.1248H12.1246H12.1244H12.1243H12.1241H12.1239H12.1238H12.1236H12.1234H12.1233H12.1231H12.1229H12.1228H12.1226H12.1224H12.1223H12.1221H12.1219H12.1218H12.1216H12.1214H12.1212H12.1211H12.1209H12.1207H12.1206H12.1204H12.1202H12.1201H12.1199H12.1197H12.1195H12.1194H12.1192H12.119H12.1188H12.1187H12.1185H12.1183H12.1182H12.118H12.1178H12.1176H12.1175H12.1173H12.1171H12.1169H12.1167H12.1166H12.1164H12.1162H12.116H12.1159H12.1157H12.1155H12.1153H12.1152H12.115H12.1148H12.1146H12.1144H12.1143H12.1141H12.1139H12.1137H12.1135H12.1134H12.1132H12.113H12.1128H12.1126H12.1125H12.1123H12.1121H12.1119H12.1117H12.1116H12.1114H12.1112H12.111H12.1108H12.1106H12.1105H12.1103H12.1101H12.1099H12.1097H12.1095H12.1094H12.1092H12.109H12.1088H12.1086H12.1084H12.1082H12.1081H12.1079H12.1077H12.1075H12.1073H12.1071H12.1069H12.1068H12.1066H12.1064H12.1062H12.106H12.1058H12.1056H12.1054H12.1053H12.1051H12.1049H12.1047H12.1045H12.1043H12.1041H12.1039H12.1038H12.1036H12.1034H12.1032H12.103H12.1028H12.1026H12.1024H12.1022H12.102H12.1019H12.1017H12.1015H12.1013H12.1011H12.1009H12.1007H12.1005H12.1003H12.1001H12.1H12.0998H12.0996H12.0994H12.0992H12.099H12.0988H12.0986H12.0984H12.0982H12.098H12.0978H12.0977H12.0975H12.0973H12.0971H12.0969H12.0967H12.0965H12.0963H12.0961H12.0959H12.0957H12.0955H12.0953H12.0951H12.095H12.0948H12.0946H12.0944H12.0942H12.094H12.0938H12.0936H12.0934H12.0932H12.093H12.0928H12.0926H12.0924H12.0922H12.092H12.0918H12.0917H12.0915H12.0913H12.0911H12.0909H12.0907H12.0905H12.0903H12.0901H12.0899H12.0897H12.0895H12.0893H12.0891H12.0889H12.0887H12.0885H12.0883H12.0881H12.088H12.0878H12.0876H12.0874H12.0872H12.087H12.0868H12.0866H12.0864H12.0862H12.086H12.0858H12.0856H12.0854H12.0852H12.085H12.0848H12.0846H12.0844H12.0842H12.084H12.0838H12.0837H12.0835H12.0833H12.0831H12.0829H12.0827H12.0825H12.0823H12.0821H12.0819H12.0817H12.0815H12.0813H12.0811H12.0809H12.0807H12.0805H12.0803H12.0801H12.0799H12.0798H12.0796H12.0794H12.0792H12.079H12.0788H12.0786H12.0784H12.0782H12.078H12.0778H12.0776H12.0774H12.0772H12.077H12.0768H12.0766H12.0764H12.0763H12.0761H12.0759H12.0757H12.0755H12.0753H12.0751H12.0749H12.0747H12.0745H12.0743H12.0741H12.0739H12.0737H12.0735H12.0733H12.0732H12.073H12.0728H12.0726H12.0724H12.0722H12.072H12.0718H12.0716H12.0714H12.0712H12.071H12.0708H12.0707H12.0705H12.0703H12.0701H12.0699H12.0697H12.0695H12.0693H12.0691H12.0689H12.0687H12.0686H12.0684H12.0682H12.068H12.0678H12.0676H12.0674H12.0672H12.067H12.0668H12.0667H12.0665H12.0663H12.0661H12.0659H12.0657H12.0655H12.0653H12.0651H12.065H12.0648H12.0646H12.0644H12.0642H12.064H12.0638H12.0637C10.3579 13.6161 9.10254 12.2938 9.10254 10.6797Z" fill="#01615F" stroke="#01615F" stroke-width="1.5"/>
</svg>
