<svg width="25" height="24" viewBox="0 0 25 24" fill="none" xmlns="http://www.w3.org/2000/svg">
<path d="M12.6202 12.78C12.5502 12.77 12.4602 12.77 12.3802 12.78C10.6202 12.72 9.22021 11.28 9.22021 9.50998C9.22021 7.69998 10.6802 6.22998 12.5002 6.22998C14.3102 6.22998 15.7802 7.69998 15.7802 9.50998C15.7702 11.28 14.3802 12.72 12.6202 12.78Z" stroke="#B3B3B3" stroke-width="1.5" stroke-linecap="round" stroke-linejoin="round"/>
<path d="M19.2398 19.3801C17.4598 21.0101 15.0998 22.0001 12.4998 22.0001C9.89977 22.0001 7.53977 21.0101 5.75977 19.3801C5.85977 18.4401 6.45977 17.5201 7.52977 16.8001C10.2698 14.9801 14.7498 14.9801 17.4698 16.8001C18.5398 17.5201 19.1398 18.4401 19.2398 19.3801Z" stroke="#B3B3B3" stroke-width="1.5" stroke-linecap="round" stroke-linejoin="round"/>
<path d="M12.5 22C18.0228 22 22.5 17.5228 22.5 12C22.5 6.47715 18.0228 2 12.5 2C6.97715 2 2.5 6.47715 2.5 12C2.5 17.5228 6.97715 22 12.5 22Z" stroke="#B3B3B3" stroke-width="1.5" stroke-linecap="round" stroke-linejoin="round"/>
</svg>
