<svg width="24" height="24" viewBox="0 0 24 24" fill="none" xmlns="http://www.w3.org/2000/svg">
<path d="M13.6323 3.51063L15.3923 7.03063C15.6323 7.52063 16.2723 7.99063 16.8123 8.08063L20.0023 8.61062C22.0423 8.95062 22.5223 10.4306 21.0523 11.8906L18.5723 14.3706C18.1523 14.7906 17.9223 15.6006 18.0523 16.1806L18.7623 19.2506C19.3223 21.6806 18.0323 22.6206 15.8823 21.3506L12.8923 19.5806C12.3523 19.2606 11.4623 19.2606 10.9123 19.5806L7.92225 21.3506C5.78225 22.6206 4.48225 21.6706 5.04225 19.2506L5.75225 16.1806C5.88225 15.6006 5.65225 14.7906 5.23225 14.3706L2.75225 11.8906C1.29225 10.4306 1.76225 8.95062 3.80225 8.61062L6.99225 8.08063C7.52225 7.99063 8.16225 7.52063 8.40225 7.03063L10.1623 3.51063C11.1223 1.60063 12.6823 1.60063 13.6323 3.51063Z" stroke="#01615F" stroke-width="2.4" stroke-linecap="round" stroke-linejoin="round"/>
</svg>
