<svg width="14" height="18" viewBox="0 0 14 18" fill="none" xmlns="http://www.w3.org/2000/svg">
<path d="M10.0379 4.79679C10.1919 4.79679 10.4544 4.82129 10.8254 4.87029C11.1964 4.91929 11.6024 5.05929 12.0434 5.29029C12.4914 5.51429 12.8974 5.8888 13.2614 6.4138C13.2404 6.4348 13.1389 6.5118 12.9569 6.6448C12.7749 6.7708 12.5719 6.9598 12.3479 7.2118C12.1239 7.4568 11.9279 7.7718 11.7599 8.1568C11.5919 8.5348 11.5079 8.9863 11.5079 9.5113C11.5079 10.1133 11.6129 10.6243 11.8229 11.0443C12.0399 11.4643 12.2884 11.8038 12.5684 12.0628C12.8554 12.3148 13.1074 12.5003 13.3244 12.6193C13.5484 12.7383 13.6674 12.8013 13.6814 12.8083C13.6744 12.8363 13.5834 13.0848 13.4084 13.5538C13.2404 14.0228 12.9604 14.5443 12.5684 15.1183C12.2254 15.6153 11.8544 16.0738 11.4554 16.4938C11.0634 16.9138 10.5909 17.1238 10.0379 17.1238C9.66693 17.1238 9.36243 17.0713 9.12443 16.9663C8.88643 16.8543 8.64143 16.7458 8.38943 16.6408C8.13743 16.5288 7.79793 16.4728 7.37093 16.4728C6.95793 16.4728 6.61143 16.5288 6.33143 16.6408C6.05843 16.7528 5.79593 16.8648 5.54393 16.9768C5.29893 17.0888 5.00843 17.1448 4.67243 17.1448C4.16143 17.1448 3.71343 16.9418 3.32843 16.5358C2.94343 16.1298 2.54793 15.6433 2.14193 15.0763C1.67293 14.4043 1.27043 13.5853 0.934431 12.6193C0.605431 11.6463 0.440931 10.6663 0.440931 9.6793C0.440931 8.6223 0.640431 7.7368 1.03943 7.0228C1.43843 6.3018 1.94943 5.7593 2.57243 5.39529C3.20243 5.02429 3.85343 4.83879 4.52543 4.83879C4.88243 4.83879 5.21843 4.89829 5.53343 5.01729C5.84843 5.12929 6.14243 5.24479 6.41543 5.36379C6.69543 5.48279 6.94743 5.54229 7.17143 5.54229C7.38843 5.54229 7.64043 5.47929 7.92743 5.35329C8.21443 5.22729 8.53643 5.10479 8.89343 4.98579C9.25043 4.85979 9.63193 4.79679 10.0379 4.79679ZM9.46043 3.46329C9.18743 3.79229 8.84443 4.06879 8.43143 4.29279C8.01843 4.50979 7.62643 4.61829 7.25543 4.61829C7.17843 4.61829 7.10493 4.61129 7.03493 4.59729C7.02793 4.57629 7.02093 4.53779 7.01393 4.48179C7.00693 4.42579 7.00343 4.36629 7.00343 4.30329C7.00343 3.88329 7.09443 3.47729 7.27643 3.08529C7.45843 2.68629 7.66493 2.35729 7.89593 2.09829C8.18993 1.74829 8.56093 1.45779 9.00893 1.22679C9.45693 0.995794 9.88393 0.873294 10.2899 0.859294C10.3109 0.950294 10.3214 1.05879 10.3214 1.18479C10.3214 1.60479 10.2409 2.01429 10.0799 2.41329C9.91893 2.80529 9.71243 3.15529 9.46043 3.46329Z" fill="white"/>
</svg>
