<svg width="52" height="22" viewBox="0 0 52 22" fill="none" xmlns="http://www.w3.org/2000/svg">
<path d="M9.89141 3.05371C9.30743 3.76123 8.31915 4.28906 7.53301 4.28906C7.44317 4.28906 7.35332 4.27783 7.29717 4.2666C7.28594 4.22168 7.26348 4.08691 7.26348 3.95215C7.26348 3.05371 7.72393 2.15527 8.21807 1.59375C8.84698 0.852539 9.90264 0.302246 10.7786 0.268555C10.8011 0.369629 10.8123 0.493164 10.8123 0.616699C10.8123 1.51514 10.4305 2.40234 9.89141 3.05371ZM10.5091 4.47998C11.0032 4.47998 12.7889 4.5249 13.9568 6.20947C13.8558 6.28809 12.0814 7.2876 12.0814 9.52246C12.0814 12.1055 14.3387 13.0264 14.4061 13.0488C14.3948 13.105 14.0467 14.2954 13.2156 15.5195C12.4744 16.5864 11.6883 17.6646 10.5091 17.6646C9.31866 17.6646 9.01543 16.9683 7.65655 16.9683C6.32012 16.9683 5.84844 17.687 4.77032 17.687C3.68096 17.687 2.92852 16.6875 2.06377 15.4746C1.05303 14.0371 0.244438 11.8135 0.244438 9.70215C0.244438 6.32178 2.44561 4.5249 4.61309 4.5249C5.7586 4.5249 6.71319 5.27734 7.44317 5.27734C8.12823 5.27734 9.19512 4.47998 10.5091 4.47998ZM15.968 17.5635V1.35791H22.4368C25.7273 1.35791 27.9509 3.52539 27.9509 6.771V6.79346C27.9509 10.0278 25.7273 12.2065 22.4368 12.2065H18.8655V17.5635H15.968ZM21.7293 3.72754H18.8655V9.87061H21.7293C23.8069 9.87061 25.0198 8.74756 25.0198 6.80469V6.78223C25.0198 4.83936 23.8069 3.72754 21.7293 3.72754ZM32.5339 17.7656C30.198 17.7656 28.5022 16.3281 28.5022 14.0933V14.0708C28.5022 11.8809 30.1755 10.6006 33.1628 10.4209L36.3186 10.23V9.17432C36.3186 7.9502 35.5212 7.27637 34.0163 7.27637C32.7361 7.27637 31.905 7.73682 31.6242 8.54541L31.613 8.59033H28.9739L28.9851 8.48926C29.2546 6.42285 31.2312 5.05273 34.1511 5.05273C37.3069 5.05273 39.0813 6.58008 39.0813 9.17432V17.5635H36.3186V15.8789H36.1277C35.4538 17.0693 34.1511 17.7656 32.5339 17.7656ZM31.2649 13.9585C31.2649 15.0029 32.1521 15.6206 33.3874 15.6206C35.072 15.6206 36.3186 14.52 36.3186 13.0601V12.0718L33.5559 12.2515C31.9949 12.3525 31.2649 12.9253 31.2649 13.936V13.9585ZM42.1481 21.876C41.8112 21.876 41.4182 21.8647 41.0812 21.8311V19.686C41.3059 19.7085 41.6203 19.7197 41.9123 19.7197C43.0578 19.7197 43.7429 19.248 44.0461 18.1362L44.1921 17.5747L39.801 5.28857H42.8557L45.7194 14.8794H45.9328L48.7853 5.28857H51.7277L47.3254 17.8218C46.2697 20.8989 44.8659 21.876 42.1481 21.876Z" fill="white"/>
</svg>
