<svg width="47" height="32" viewBox="0 0 47 32" fill="none" xmlns="http://www.w3.org/2000/svg">
<rect x="0.994141" y="0.5" width="45" height="31" rx="5.5" fill="#F6F6F6"/>
<rect x="0.994141" y="0.5" width="45" height="31" rx="5.5" stroke="#E2E5E8"/>
<path fill-rule="evenodd" clip-rule="evenodd" d="M13.1904 11.1239C12.8036 11.5931 12.1848 11.9632 11.566 11.9103C11.4886 11.2759 11.7916 10.6018 12.1461 10.1855C12.5329 9.70308 13.2097 9.35944 13.7577 9.33301C13.8221 9.99385 13.5707 10.6415 13.1904 11.1239ZM13.7512 12.0358C13.206 12.0037 12.7085 12.2039 12.3067 12.3657C12.0482 12.4698 11.8292 12.5579 11.6626 12.5579C11.4757 12.5579 11.2477 12.465 10.9917 12.3608C10.6563 12.2242 10.2728 12.068 9.87065 12.0755C8.94886 12.0887 8.09154 12.624 7.62098 13.4765C6.65407 15.1814 7.36958 17.7058 8.30426 19.0936C8.76193 19.7809 9.30984 20.5342 10.0318 20.5078C10.3494 20.4955 10.5779 20.3961 10.8143 20.2933C11.0866 20.1748 11.3693 20.0518 11.8109 20.0518C12.2371 20.0518 12.5076 20.1716 12.7672 20.2867C13.014 20.396 13.251 20.501 13.6029 20.4946C14.3506 20.4814 14.8212 19.8073 15.2789 19.12C15.7728 18.3824 15.9898 17.6625 16.0227 17.5533L16.0266 17.5406C16.0258 17.5398 16.0197 17.537 16.009 17.5319L16.009 17.5319C15.8438 17.4544 14.5819 16.8622 14.5698 15.274C14.5577 13.9409 15.5707 13.2655 15.7302 13.1592L15.7303 13.1591C15.7399 13.1527 15.7465 13.1483 15.7494 13.1461C15.1048 12.168 14.0992 12.0623 13.7512 12.0358ZM18.9274 20.4219V10.1194H22.6983C24.645 10.1194 26.0051 11.4939 26.0051 13.5029C26.0051 15.5119 24.6192 16.8996 22.6467 16.8996H20.4873V20.4219H18.9274ZM20.4872 11.4675H22.2856C23.6393 11.4675 24.4128 12.2077 24.4128 13.5095C24.4128 14.8114 23.6393 15.5581 22.2792 15.5581H20.4872V11.4675ZM31.1556 19.1861C30.743 19.9924 29.8341 20.5012 28.8543 20.5012C27.404 20.5012 26.392 19.6157 26.392 18.2808C26.392 16.9591 27.3718 16.1991 29.1831 16.0868L31.1298 15.9678V15.3995C31.1298 14.5603 30.5948 14.1043 29.6408 14.1043C28.8543 14.1043 28.2807 14.5206 28.1646 15.155H26.7594C26.8045 13.8201 28.0293 12.8487 29.6859 12.8487C31.4714 12.8487 32.6317 13.8069 32.6317 15.2938V20.4219H31.1878V19.1861H31.1556ZM29.2732 19.2787C28.4417 19.2787 27.9131 18.8689 27.9131 18.2411C27.9131 17.5935 28.4224 17.2168 29.3957 17.1574L31.1297 17.045V17.6266C31.1297 18.5914 30.3304 19.2787 29.2732 19.2787ZM37.4211 20.825C36.7958 22.6291 36.0803 23.2239 34.559 23.2239C34.443 23.2239 34.0562 23.2107 33.966 23.1842V21.9485C34.0627 21.9617 34.3012 21.9749 34.4237 21.9749C35.1134 21.9749 35.5002 21.6775 35.7387 20.9043L35.8805 20.4483L33.2376 12.9478H34.8684L36.7056 19.0341H36.7378L38.5749 12.9478H40.1606L37.4211 20.825Z" fill="#252525"/>
</svg>
