<svg width="22" height="25" viewBox="0 0 22 25" fill="none" xmlns="http://www.w3.org/2000/svg">
<path d="M20.9764 13.5293C21.5287 13.5293 21.9764 13.0816 21.9764 12.5293C21.9764 11.977 21.5287 11.5293 20.9764 11.5293V13.5293ZM1.09416 11.8222C0.703638 12.2127 0.703638 12.8459 1.09416 13.2364L7.45812 19.6004C7.84865 19.9909 8.48181 19.9909 8.87234 19.6004C9.26286 19.2098 9.26286 18.5767 8.87234 18.1862L3.21548 12.5293L8.87234 6.87244C9.26286 6.48192 9.26286 5.84875 8.87234 5.45823C8.48181 5.0677 7.84865 5.0677 7.45812 5.45823L1.09416 11.8222ZM20.9764 11.5293H1.80127V13.5293H20.9764V11.5293Z" fill="#252525"/>
</svg>
