<svg width="41" height="40" viewBox="0 0 41 40" fill="none" xmlns="http://www.w3.org/2000/svg">
<rect x="0.347656" width="40" height="40" rx="20" fill="#01615F"/>
<path fill-rule="evenodd" clip-rule="evenodd" d="M23.0829 16.5748C22.7971 16.7253 22.5025 16.8589 22.2007 16.9752C22.0117 17.0365 21.8164 17.0774 21.6184 17.097C20.7362 17.184 19.9422 17.0274 19.1394 17.184C18.7265 17.2687 18.3341 17.4312 17.9837 17.6627C17.4866 17.994 17.0926 18.4549 16.8457 18.9942C16.6143 19.5171 16.5145 20.0873 16.5545 20.6564C16.5758 21.0602 16.6807 21.4554 16.8627 21.8176C17.0448 22.1799 17.3002 22.5014 17.6132 22.7625C17.5603 22.9366 17.4897 23.1106 17.4456 23.2934C17.4132 23.3696 17.4126 23.4553 17.444 23.5319C17.4754 23.6085 17.5362 23.6698 17.6132 23.7024C17.6917 23.7315 17.7786 23.7297 17.8558 23.6973C17.933 23.6649 17.9946 23.6044 18.0278 23.5284C18.1072 23.3804 18.2219 23.276 18.3101 23.1367C18.9211 23.2453 19.5432 23.2804 20.1628 23.2412C20.4615 23.2186 20.7571 23.1661 21.045 23.0845C21.6609 22.9238 22.2312 22.6261 22.7124 22.2142C23.1984 21.78 23.5552 21.2234 23.7446 20.6042C24.0622 19.5512 23.8505 16.1484 23.0829 16.5748ZM22.6242 20.2213C22.4254 20.735 22.1011 21.1924 21.6802 21.5528C21.3876 21.8002 21.0609 22.0053 20.7098 22.162C20.4269 22.2804 20.1307 22.3651 19.8275 22.4144C19.5062 22.4664 19.1823 22.5012 18.8571 22.5188C18.7928 22.5252 18.7317 22.5494 18.6807 22.5885C18.8395 22.3883 18.9806 22.162 19.1394 21.9706L19.6687 21.344C19.8452 21.1438 20.0216 20.9349 20.2069 20.7348C20.6421 20.2478 21.1139 19.7939 21.6184 19.3771C21.6971 19.3256 21.7522 19.2458 21.7719 19.1547C21.7917 19.0637 21.7746 18.9686 21.7243 18.8898C21.6704 18.8116 21.588 18.7571 21.4942 18.7376C21.4005 18.7181 21.3027 18.7352 21.2214 18.7853C20.5947 19.1037 20.0033 19.4858 19.457 19.9254C19.2186 20.1244 18.9946 20.3396 18.7865 20.5694C18.5817 20.8021 18.3986 21.0526 18.2396 21.3179C18.1226 21.5227 18.0194 21.7349 17.9308 21.9532C17.6851 21.5591 17.5652 21.1012 17.5867 20.639C17.6107 20.3211 17.6883 20.0094 17.8161 19.7165C17.992 19.2767 18.2998 18.9002 18.6983 18.6374C19.0041 18.4272 19.3538 18.2874 19.7217 18.2284C20.3922 18.1065 21.0891 18.1239 21.7949 17.976C22.0532 17.9182 22.3045 17.8336 22.5448 17.7236C22.6771 17.6627 22.8094 17.5757 22.9418 17.4973C23.0812 18.4171 22.9716 19.3568 22.6242 20.2213Z" fill="#F6F6F6"/>
<path fill-rule="evenodd" clip-rule="evenodd" d="M28.8269 15.339C29.3279 14.6603 29.6328 13.8602 29.7091 13.024C29.7223 12.856 29.7223 12.6873 29.7091 12.5193C29.6904 12.3487 29.658 12.18 29.6121 12.0145C29.5091 11.5827 29.2717 11.1936 28.9331 10.9017C28.5945 10.6098 28.1717 10.4298 27.7241 10.3871C27.1495 10.3734 26.579 10.4876 26.0552 10.7211C25.5313 10.9546 25.0675 11.3015 24.6981 11.736C24.6635 11.7643 24.6353 11.7996 24.6155 11.8395C24.5956 11.8793 24.5846 11.9229 24.5832 11.9673C24.5818 12.0117 24.5899 12.0559 24.6071 12.0969C24.6242 12.138 24.6501 12.1749 24.6828 12.2054C24.7156 12.2359 24.7545 12.2591 24.7971 12.2736C24.8397 12.288 24.8848 12.2934 24.9297 12.2894C24.9745 12.2853 25.0179 12.2719 25.0571 12.25C25.0963 12.2281 25.1303 12.1983 25.1569 12.1625C25.7171 11.6666 26.4341 11.3775 27.186 11.3444C27.4843 11.3209 27.7806 11.4091 28.0159 11.5913C28.2513 11.7735 28.4086 12.0364 28.4564 12.3278L28.5093 12.9544C28.4702 13.5959 28.2636 14.2165 27.9094 14.7559C27.6395 15.18 27.3387 15.5843 27.0096 15.9656C26.8066 15.0953 26.5773 14.225 26.3038 13.3547C26.2849 13.2741 26.2343 13.2041 26.1632 13.16C26.0922 13.116 26.0063 13.1015 25.9244 13.1198C25.8743 13.1317 25.8283 13.1565 25.7911 13.1916C25.7539 13.2268 25.7269 13.2711 25.7127 13.3199C25.3598 13.3199 25.0069 13.3199 24.654 13.259C24.3011 13.1981 23.7718 13.1546 23.3131 13.1024C23.3265 12.8966 23.3265 12.6902 23.3131 12.4845C23.2398 11.8258 22.9968 11.1967 22.6073 10.6569C22.1894 10.0887 21.629 9.63745 20.9809 9.34755C20.3328 9.05765 19.6194 8.93903 18.9108 9.00335C18.1977 9.09569 17.5276 9.39221 16.9836 9.85624C16.4395 10.3203 16.0452 10.9314 15.8495 11.6142C15.6939 12.1401 15.6137 12.685 15.6113 13.2329V13.3982L14.4027 13.5723C14.361 13.5745 14.3201 13.5848 14.2824 13.6027C14.2447 13.6205 14.211 13.6455 14.1831 13.6762C14.1553 13.707 14.1338 13.7428 14.12 13.7817C14.1062 13.8206 14.1004 13.8618 14.1027 13.903C14.1027 13.903 14.1027 13.903 14.1027 13.9726C14.1027 14.0422 14.0322 14.0335 14.0145 14.0771C13.891 14.5731 13.741 15.0953 13.5999 15.5913C13.2823 16.7575 13.0264 17.9411 12.7177 19.0724C12.5412 19.6903 12.3648 20.3082 12.2236 20.9348C12.1177 21.3526 12.0383 21.8051 11.9678 22.2141L11.6414 24.8772C11.5643 25.2679 11.5142 25.6633 11.4914 26.0608C11.499 26.2988 11.556 26.5328 11.659 26.7483C11.8481 27.1035 12.1616 27.3788 12.5412 27.5228C12.8615 27.641 13.1971 27.7143 13.5381 27.7404C12.9887 28.1439 12.3657 28.4394 11.7031 28.6107C11.5647 28.6479 11.4228 28.6712 11.2796 28.6803C11.1506 28.6933 11.0205 28.6933 10.8915 28.6803C10.1328 28.5933 9.75341 28.2103 9.70048 27.6882C9.67228 26.9843 9.91137 26.2953 10.371 25.7562C10.4014 25.7285 10.4258 25.6948 10.4424 25.6574C10.459 25.6199 10.4676 25.5795 10.4676 25.5386C10.4676 25.4977 10.459 25.4573 10.4424 25.4198C10.4258 25.3824 10.4014 25.3487 10.371 25.321C10.3103 25.2641 10.2297 25.2323 10.146 25.2323C10.0623 25.2323 9.98171 25.2641 9.92103 25.321C9.48903 25.688 9.16049 26.1589 8.96728 26.688C8.77406 27.2171 8.72273 27.7864 8.81826 28.3409C8.93564 28.747 9.17122 29.1103 9.49583 29.3856C9.82043 29.661 10.2198 29.8363 10.6444 29.89C10.822 29.9217 11.0022 29.9363 11.1826 29.9335C11.4382 29.9274 11.6924 29.8953 11.9413 29.8378C12.8898 29.5639 13.766 29.0886 14.5086 28.4453C14.7203 28.2713 14.9056 28.0624 15.0996 27.8709C15.8231 27.8709 16.5465 27.9144 17.2699 27.8709C18.6814 27.8709 20.093 27.7491 21.4781 27.6969C22.7043 27.6447 24.01 27.6969 25.2981 27.6273C26.169 27.5931 27.0346 27.4765 27.8829 27.2791C27.9765 27.2584 28.0579 27.2018 28.1092 27.1218C28.1605 27.0418 28.1775 26.945 28.1564 26.8527C28.131 26.7688 28.0783 26.6954 28.0065 26.6438C28.0065 25.1035 27.9623 23.5631 27.8741 22.0314C27.83 21.3526 27.7771 20.6738 27.7065 20.0036C27.6359 19.3335 27.5389 18.646 27.4242 17.9759C27.3624 17.6626 27.2919 17.3493 27.2213 17.036C27.8104 16.5224 28.3481 15.9541 28.8269 15.339ZM16.7935 11.9449C16.9672 11.4754 17.271 11.0635 17.6702 10.7558C18.0695 10.4481 18.5482 10.257 19.052 10.2043C19.5607 10.1457 20.0762 10.2129 20.5521 10.3997C21.028 10.5866 21.4493 10.8873 21.778 11.2748C22.1004 11.6586 22.3189 12.1167 22.4132 12.6063C22.4132 12.7281 22.4132 12.8587 22.4573 12.9892C22.2809 12.9892 22.1044 12.9892 21.9192 12.937C20.9046 12.937 19.8989 12.937 18.8932 12.9979C18.0815 13.0588 17.2787 13.1633 16.4759 13.2764C16.5177 12.82 16.6246 12.3718 16.7935 11.9449ZM25.2716 26.8005C23.9924 26.8005 22.6867 26.7135 21.4604 26.7135H17.2611H16.2377C16.6259 26.287 16.9964 25.8432 17.3493 25.4777C17.4151 25.4097 17.4518 25.3193 17.4518 25.2253C17.4518 25.1313 17.4151 25.0409 17.3493 24.9729C17.2794 24.9099 17.1881 24.875 17.0934 24.875C16.9988 24.875 16.9075 24.9099 16.8376 24.9729C16.2553 25.5038 15.6025 26.0956 14.932 26.7135H14.4997C14.107 26.7119 13.7149 26.6828 13.3264 26.6264C13.0794 26.5829 12.8235 26.5394 12.7265 26.3305C12.6819 26.2293 12.6637 26.1186 12.6735 26.0085C12.6735 25.7126 12.7706 25.4081 12.7971 25.1383L13.0176 22.4578C13.0176 22.0488 13.1235 21.6485 13.1941 21.2394C13.2999 20.6215 13.4323 20.0123 13.5734 19.4031C13.8381 18.2283 14.0322 17.0186 14.288 15.835C14.3939 15.339 14.5174 14.8429 14.6674 14.3555V14.2772H15.6643C15.6986 14.7412 15.7575 15.2031 15.8407 15.661C15.845 15.7019 15.8577 15.7416 15.878 15.7775C15.8982 15.8135 15.9257 15.8451 15.9587 15.8703C15.9917 15.8955 16.0295 15.9138 16.0699 15.9242C16.1102 15.9346 16.1523 15.9368 16.1936 15.9307C16.2764 15.9199 16.3516 15.8773 16.4028 15.8121C16.454 15.7469 16.4771 15.6645 16.4671 15.5826C16.4447 15.1478 16.4447 14.7121 16.4671 14.2772C20.5958 14.2772 19.9959 14.1815 21.9545 14.1554H22.5897V15.2171C22.6031 15.3011 22.6464 15.3776 22.7119 15.4328C22.7774 15.488 22.8608 15.5184 22.9469 15.5184C23.0331 15.5184 23.1165 15.488 23.182 15.4328C23.2475 15.3776 23.2908 15.3011 23.3042 15.2171C23.3042 14.869 23.366 14.4861 23.3836 14.1119H24.6717H25.8097C25.9244 14.8168 26.0303 15.5217 26.1097 16.2266C26.1097 16.5051 26.1626 16.7923 26.1979 17.0969L25.9156 17.4102C25.8498 17.4782 25.8131 17.5686 25.8131 17.6626C25.8131 17.7566 25.8498 17.847 25.9156 17.915C25.964 17.9547 26.0224 17.9805 26.0846 17.9897C26.1469 17.9989 26.2104 17.9911 26.2685 17.9672V18.3936C26.3479 19.0986 26.4185 19.8122 26.5067 20.5171C26.7625 22.5971 27.0448 24.677 27.2477 26.7744C26.5908 26.8344 25.93 26.8432 25.2716 26.8005Z" fill="#F6F6F6"/>
</svg>
