<svg width="65" height="65" viewBox="0 0 65 65" fill="none" xmlns="http://www.w3.org/2000/svg">
<rect x="0.240234" width="64.24" height="64.24" rx="32.12" fill="#01615F" fill-opacity="0.1"/>
<path d="M45.9222 32.2299C49.3143 36.7736 54.7445 48.3947 45.2731 50.2164C36.5555 51.8915 26.9934 43.4252 21.8285 37.4018C17.6337 32.4951 10.7169 22.1792 17.5151 16.6932C17.5081 16.4001 17.6547 16.1069 18.0246 15.9883C19.3507 15.5555 20.6699 15.5346 22.0518 15.7021C31.3557 16.8258 40.5549 25.0409 45.9222 32.2299ZM46.5574 48.0318C50.7102 45.212 49.412 40.4938 46.7877 36.2292C45.3359 37.004 43.7585 37.4158 42.3417 38.344C40.6735 39.4468 39.1171 40.6753 37.6932 42.0712C37.2814 42.469 36.381 42.3504 36.2833 41.6943C35.9064 39.1118 36.4578 36.5084 38.0911 34.4285C39.0263 33.221 41.1551 31.1062 42.9977 31.169C41.9927 30.0243 41.0365 29.0402 40.2896 28.3143C40.0314 28.0631 39.7592 27.8048 39.487 27.5466C39.4242 27.5884 39.3544 27.6303 39.2706 27.6582C34.8734 29.1519 31.4674 32.1322 28.2288 35.3568C27.6844 35.8942 26.9236 35.4545 26.8538 34.7844C26.3024 29.7661 30.4204 24.6989 35.4109 23.9311C34.322 23.0447 33.1704 22.1792 31.9839 21.3696C31.9211 21.4463 31.8373 21.5092 31.7326 21.5301C29.3874 22.0396 27.6007 22.7306 25.8557 24.4685C24.4249 25.8854 23.1895 27.4768 21.8634 28.9913C21.5074 29.4031 20.8164 29.1658 20.6768 28.6773C19.3786 24.0009 22.5613 20.2458 26.6165 18.4381C23.9014 17.3353 21.1096 16.8328 18.4085 17.3912C18.3247 17.4051 18.2549 17.3982 18.1851 17.3982C12.6084 24.2033 20.3209 33.898 25.2346 38.7349C28.5429 41.9874 32.284 44.9957 36.4997 46.9988C39.3265 48.3389 43.6189 50.028 46.5574 48.0318ZM45.8873 34.8542C45.2033 33.8701 44.4704 32.9279 43.7446 32.0554C43.2979 32.4602 42.7604 32.6068 42.1881 32.9418C41.3436 33.4374 40.5409 34.0167 39.9127 34.7705C38.7471 36.1664 37.9933 37.8415 37.8607 39.6213C39.0054 38.6232 40.2129 37.702 41.4901 36.8993C42.6697 36.1664 44.3588 34.9938 45.8873 34.8542ZM38.2237 26.367C37.5746 25.7737 36.8836 25.1735 36.1717 24.5662C32.3608 26.025 28.9268 28.7889 28.4661 32.872C31.3068 30.1569 34.4686 27.5466 38.2237 26.367ZM30.56 20.4622C29.4921 19.8061 28.3963 19.2198 27.2866 18.7243C24.1527 20.4203 21.4865 23.275 21.7866 26.8695C24.0899 24.0567 26.8468 20.6297 30.56 20.4622Z" fill="#01615F" stroke="#01615F" stroke-width="0.3"/>
</svg>
