<svg width="32" height="32" viewBox="0 0 32 32" fill="none" xmlns="http://www.w3.org/2000/svg">
<path d="M22.75 11.485C20.2525 11.2375 17.74 11.11 15.235 11.11C13.75 11.11 12.265 11.185 10.78 11.335L9.25 11.485" stroke="#F16055" stroke-width="1.5" stroke-linecap="round" stroke-linejoin="round"/>
<path d="M13.375 10.7275L13.54 9.745C13.66 9.0325 13.75 8.5 15.0175 8.5H16.9825C18.25 8.5 18.3475 9.0625 18.46 9.7525L18.625 10.7275" stroke="#F16055" stroke-width="1.5" stroke-linecap="round" stroke-linejoin="round"/>
<path d="M21.1375 13.855L20.65 21.4075C20.5675 22.585 20.5 23.5 18.4075 23.5H13.5925C11.5 23.5 11.4325 22.585 11.35 21.4075L10.8625 13.855" stroke="#F16055" stroke-width="1.5" stroke-linecap="round" stroke-linejoin="round"/>
<path d="M14.7475 19.375H17.245" stroke="#F16055" stroke-width="1.5" stroke-linecap="round" stroke-linejoin="round"/>
<path d="M14.125 16.375H17.875" stroke="#F16055" stroke-width="1.5" stroke-linecap="round" stroke-linejoin="round"/>
</svg>
