<svg width="16" height="18" viewBox="0 0 16 18" fill="none" xmlns="http://www.w3.org/2000/svg">
<path d="M14.75 4.48499C12.2525 4.23749 9.74 4.10999 7.235 4.10999C5.75 4.10999 4.265 4.18499 2.78 4.33499L1.25 4.48499" stroke="#F16055" stroke-width="1.5" stroke-linecap="round" stroke-linejoin="round"/>
<path d="M5.375 3.7275L5.54 2.745C5.66 2.0325 5.75 1.5 7.0175 1.5H8.9825C10.25 1.5 10.3475 2.0625 10.46 2.7525L10.625 3.7275" stroke="#F16055" stroke-width="1.5" stroke-linecap="round" stroke-linejoin="round"/>
<path d="M13.1375 6.85501L12.65 14.4075C12.5675 15.585 12.5 16.5 10.4075 16.5H5.59255C3.50005 16.5 3.43255 15.585 3.35005 14.4075L2.86255 6.85501" stroke="#F16055" stroke-width="1.5" stroke-linecap="round" stroke-linejoin="round"/>
<path d="M6.74756 12.375H9.24506" stroke="#F16055" stroke-width="1.5" stroke-linecap="round" stroke-linejoin="round"/>
<path d="M6.125 9.375H9.875" stroke="#F16055" stroke-width="1.5" stroke-linecap="round" stroke-linejoin="round"/>
</svg>
