<svg width="65" height="65" viewBox="0 0 65 65" fill="none" xmlns="http://www.w3.org/2000/svg">
<rect x="0.720215" width="64.24" height="64.24" rx="32.12" fill="#01615F" fill-opacity="0.1"/>
<path d="M50.7627 29.1933C51.2627 28.336 52.7845 28.8504 52.513 29.9577C51.8557 32.6796 50.6198 35.1015 48.9838 37.1804C49.0767 37.1947 49.1767 37.2233 49.2838 37.2733C54.6276 39.9095 53.9846 46.1034 49.7053 49.6112C44.19 54.1263 36.2601 52.4403 29.7089 51.9259C24.9938 51.5615 17.3996 51.7687 14.0991 47.6537C10.9914 43.7745 12.9345 38.7593 17.2924 37.4805C15.3564 35.0086 14.0776 31.9867 13.7919 28.4932C13.7704 28.2574 13.8633 28.086 14.0062 27.9574C14.0705 27.7216 14.2562 27.5216 14.542 27.5216C20.7502 27.5645 26.9727 28.0646 33.181 28.2789C38.7176 28.4646 44.4758 28.0717 49.9696 28.7147C50.3554 28.7575 50.6126 28.9504 50.7627 29.1933ZM50.2911 30.6007C50.1982 30.6364 50.0982 30.6793 49.9696 30.6936C44.1115 31.3651 37.8175 30.7079 31.9307 30.4221C26.4369 30.1506 20.8431 29.8077 15.4064 28.8289C17.5354 36.9447 23.6865 42.7314 32.4594 42.76C40.6109 42.7814 47.705 38.3092 50.2911 30.6007ZM45.276 49.947C49.9054 48.4467 53.9061 41.9384 48.2479 39.045C48.005 38.9164 47.855 38.745 47.7835 38.5521C47.2977 39.0593 46.7905 39.5523 46.2547 40.0024C48.4623 42.3028 46.169 45.139 43.7114 46.2249C39.8965 47.9109 35.2671 48.211 31.1449 48.361C27.1585 48.511 22.9649 47.3037 19.7286 44.9247C17.8211 43.5173 17.7997 40.5667 20.0501 40.2667C19.3714 39.7166 18.7356 39.1165 18.1426 38.4735C15.2207 39.638 12.5845 43.603 15.3707 46.382C16.7852 47.7966 18.6356 48.5539 20.5645 48.9897C24.0222 49.7755 27.5371 49.8684 31.052 50.1827C35.5742 50.5828 40.8752 51.3758 45.276 49.947ZM44.7616 43.16C45.2617 42.5099 44.9973 41.8455 44.6759 41.1954C41.0109 43.6959 36.4887 45.0033 31.8308 44.7104C27.8729 44.4675 24.1008 43.1743 21.036 41.0168C20.1572 42.3099 19.8215 42.8743 21.6504 43.9173C23.1507 44.7675 24.7581 45.4462 26.4298 45.8963C28.5302 46.4535 30.4519 46.4607 32.5952 46.3106C35.5243 46.0963 38.539 45.8105 41.3538 44.9247C42.4826 44.5675 43.99 44.1459 44.7616 43.16Z" fill="#01615F"/>
<path d="M48.7624 16.6053C49.4411 16.6124 49.6268 17.6912 48.9267 17.8126C47.6622 18.0341 46.3619 18.4842 46.2548 19.9487C46.1762 20.9846 46.2619 22.0277 46.1333 23.0564C45.8618 25.2282 43.6686 27.1071 41.4539 26.0784C40.8181 25.7855 40.8681 24.7781 41.4539 24.4709C42.3898 23.9709 43.7329 24.2923 44.0115 22.9921C44.2187 22.0634 44.1401 21.0989 44.283 20.1559C44.6616 17.6911 46.3334 16.5981 48.7624 16.6053Z" fill="#01615F"/>
<path d="M39.3676 14.3192C39.8891 14.2263 40.3249 14.9908 39.7605 15.2408C36.7028 16.6053 38.5603 18.8914 38.5889 21.399C38.6103 23.2065 36.76 25.907 34.7025 24.7068C34.3667 24.5139 34.2095 24.028 34.431 23.6923C35.0025 22.835 36.5313 22.8564 36.5385 21.6562C36.5456 20.6203 36.2527 19.613 36.1384 18.5842C35.8812 16.2838 37.1029 14.6978 39.3676 14.3192Z" fill="#01615F"/>
<path d="M32.8385 11.7401C33.4672 11.8901 33.5029 12.9117 32.8385 13.0403C31.3883 13.3189 29.9451 13.4332 30.2952 15.2478C30.5738 16.6552 31.0811 17.9983 31.3668 19.3986C31.7955 21.5561 31.1239 25.4282 27.9734 24.5924C27.3161 24.4209 26.9875 23.4564 27.5519 22.9849C28.8164 21.9062 29.6236 21.9633 29.2093 19.9987C28.9092 18.5984 28.4163 17.241 28.2091 15.8265C27.7591 12.7617 29.8451 11.0185 32.8385 11.7401Z" fill="#01615F"/>
<path d="M22.4578 19.213C23.3651 20.6704 23.4579 22.9923 21.7862 23.9496C21.2718 24.2496 20.5789 23.871 20.586 23.2637C20.6003 22.3279 21.3647 21.3777 20.8574 20.4633C20.4502 19.7274 19.8644 19.1345 19.3786 18.4558C18.2784 16.9126 18.2999 15.3123 19.3358 13.7478C19.643 13.2905 20.4645 13.5692 20.2645 14.1335C19.3929 16.6054 21.3147 17.3841 22.4578 19.213Z" fill="#01615F"/>
</svg>
