<svg width="51" height="50" viewBox="0 0 51 50" fill="none" xmlns="http://www.w3.org/2000/svg">
<rect x="1" y="0.5" width="49" height="49" rx="10.5" stroke="#E2E5E8"/>
<path d="M20.26 35H30.74C33.5 35 34.6 33.31 34.73 31.25L35.25 22.99C35.39 20.83 33.67 19 31.5 19C30.89 19 30.33 18.65 30.05 18.11L29.33 16.66C28.87 15.75 27.67 15 26.65 15H24.36C23.33 15 22.13 15.75 21.67 16.66L20.95 18.11C20.67 18.65 20.11 19 19.5 19C17.33 19 15.61 20.83 15.75 22.99L16.27 31.25C16.39 33.31 17.5 35 20.26 35Z" stroke="#252525" stroke-width="1.5" stroke-linecap="round" stroke-linejoin="round"/>
<path opacity="0.4" d="M24 21H27" stroke="#252525" stroke-width="1.5" stroke-linecap="round" stroke-linejoin="round"/>
<path opacity="0.4" d="M25.5 31C27.29 31 28.75 29.54 28.75 27.75C28.75 25.96 27.29 24.5 25.5 24.5C23.71 24.5 22.25 25.96 22.25 27.75C22.25 29.54 23.71 31 25.5 31Z" stroke="#252525" stroke-width="1.5" stroke-linecap="round" stroke-linejoin="round"/>
</svg>
