<svg width="94" height="94" viewBox="0 0 94 94" fill="none" xmlns="http://www.w3.org/2000/svg">
<circle cx="46.8282" cy="47.034" r="46.2" fill="#01615F"/>
<path d="M52.3427 55.4742H41.3197C41.3197 54.3062 41.2711 52.7975 41.1737 50.9482C41.0764 49.0502 40.9304 47.0062 40.7357 44.8162C40.5897 42.5775 40.4437 40.3875 40.2977 38.2462C40.1517 36.0562 40.0301 34.0365 39.9327 32.1872C39.8354 30.3378 39.7867 28.8535 39.7867 27.7342V22.6242H53.8757V27.7342C53.8757 28.8535 53.8271 30.3378 53.7297 32.1872C53.6324 34.0365 53.5107 36.0562 53.3647 38.2462C53.2187 40.4362 53.0484 42.6262 52.8537 44.8162C52.7077 47.0062 52.5861 49.0502 52.4887 50.9482C52.3914 52.7975 52.3427 54.3062 52.3427 55.4742ZM53.0727 71.5342H40.5897V59.6352H53.0727V71.5342Z" fill="#F6F6F6"/>
</svg>
