<svg width="65" height="65" viewBox="0 0 65 65" fill="none" xmlns="http://www.w3.org/2000/svg">
<rect width="64.24" height="64.24" rx="32.12" fill="#01615F" fill-opacity="0.1"/>
<path d="M54.0433 37.9106C54.3547 38.1631 54.4304 38.6849 53.9928 38.9458C53.8834 39.0132 53.7655 39.0721 53.6561 39.1394C50.1297 47.5052 37.1434 49.6934 29.2826 49.4494C21.8846 49.2221 9.94189 46.6552 10.1439 37.372C10.0176 37.2626 9.94189 37.1111 9.94189 36.9512C9.94189 36.7913 10.0176 36.6229 10.1944 36.5051C10.2196 36.2695 10.4805 36.1432 10.6573 36.2358C16.616 32.7178 26.3284 31.489 32.9016 33.2817C33.2719 33.3827 33.2719 33.9297 32.9016 34.0307C29.6697 34.8892 26.0928 34.3505 22.7599 34.6283C19.2167 34.9228 15.9511 35.5288 12.694 36.7155C12.7193 36.7997 12.7361 36.8838 12.7277 36.9764C12.7193 37.0522 12.7108 37.1363 12.694 37.2121C18.9557 40.5028 26.118 41.6475 33.154 41.4539C39.2474 41.294 44.6928 39.88 50.4074 38.5082C47.3271 37.0522 44.0868 36.219 40.7371 35.5288C40.6361 35.512 40.5688 35.4615 40.5183 35.3942C40.3836 35.5288 40.249 35.6719 40.1143 35.7981C38.4816 37.271 37.4969 37.6245 38.0187 40.1662C38.1113 40.587 37.7325 40.8311 37.4127 40.7638C37.3622 40.7974 37.2949 40.8311 37.2191 40.8479C34.4333 41.5128 31.1678 40.1157 28.6682 38.9711C28.6261 38.9458 28.6008 38.9122 28.5672 38.8869C28.2389 38.8869 27.9107 38.5419 28.0959 38.1463C29.0048 36.2105 31.0584 34.7461 33.2719 34.9313C34.0883 34.9986 34.063 36.0759 33.2719 36.1769C31.7906 36.3705 30.5029 36.8249 29.5435 37.8854C30.7049 38.2725 31.8748 38.6681 33.0699 38.9458C34.3155 39.2404 35.6032 39.3498 36.8404 39.6528C36.5963 38.7859 36.2849 37.5656 36.2849 37.4309C36.2849 37.4309 36.2933 37.4225 36.2933 37.4309C36.2933 37.4309 36.2933 37.4225 36.2849 37.4225C36.1082 37.0858 36.1166 36.5977 36.428 36.3368C39.8282 33.4668 44.1457 29.6963 44.9621 25.0421C45.6775 20.9013 40.1396 25.4461 39.0791 26.658C37.1013 28.9304 35.5864 31.5479 35.3002 34.603C35.2245 35.3605 34.0798 35.3942 34.0967 34.603C34.1892 28.6106 39.3148 21.8271 45.6018 21.5998C45.8963 21.5914 46.1909 21.8103 46.2498 22.0964C46.9988 25.3535 45.6607 28.7032 43.8091 31.3712C43.0264 32.4989 42.1931 33.6183 41.2589 34.6451C45.0715 34.9313 48.7747 35.8907 52.1328 37.7844C52.1749 37.8096 52.1917 37.8433 52.2338 37.877C52.3095 37.7507 52.3853 37.6245 52.4526 37.4898C52.865 36.7071 54.0517 37.1363 54.0433 37.9106ZM30.8564 47.379C37.5221 47.2527 45.3577 45.7462 50.0792 40.7806C44.1289 42.9352 36.6721 43.3055 30.9069 43.1456C24.4516 42.9688 17.323 42.0851 12.088 38.0032C12.0628 38.0116 12.046 38.0285 12.0123 38.0369C11.7851 38.079 11.743 38.079 11.8692 38.0453C11.6504 38.079 11.4484 38.0453 11.2633 37.978C14.0406 45.4264 23.6689 47.5136 30.8564 47.379Z" fill="#01615F"/>
<path d="M40.3915 37.4561C41.4351 37.4224 45.1383 37.1447 45.1046 38.87C45.0962 39.1394 44.9026 39.2909 44.6585 39.3245C44.2882 39.3666 44.1367 39.1814 43.8337 39.0215C43.4634 38.8364 43.0678 38.6933 42.6723 38.6091C41.9148 38.4492 41.1574 38.424 40.3915 38.3903C39.7855 38.3735 39.7855 37.4729 40.3915 37.4561Z" fill="#01615F"/>
<path d="M35.7548 18.5867C35.9652 22.4498 31.8159 23.7964 31.9758 27.4911C32.0011 28.1644 30.9575 28.2991 30.7976 27.6511C30.4441 26.1866 30.3683 24.7222 31.2605 23.4092C32.5986 21.4482 34.6943 19.6472 32.8343 17.1223C31.0837 14.7573 27.7677 12.8047 29.695 9.51393C30.1327 8.75646 31.2352 9.10995 31.2773 9.93475C31.4456 13.6211 35.5528 14.9172 35.7548 18.5867Z" fill="#01615F"/>
<path d="M28.6515 36.0757C29.0975 36.2272 29.0554 36.9678 28.5336 36.9426C26.2612 36.8416 24.2245 36.7322 21.9605 37.1109C20.0416 37.4392 18.1395 37.7842 16.1953 37.961C15.623 38.0115 15.4883 37.0352 16.0607 36.9594C20.0332 36.4124 24.6958 34.7123 28.6515 36.0757Z" fill="#01615F"/>
<path d="M26.91 29.3849C27.4991 29.6542 27.0615 30.5211 26.4892 30.3864C23.2068 29.6458 21.3384 28.0803 21.9949 24.5792C22.6009 21.3389 21.4983 18.9402 19.3101 16.4911C18.0729 15.1108 16.3981 13.882 15.8678 12.0557C15.649 11.3067 16.4654 10.8101 17.0966 11.1131C19.9413 12.4934 22.988 16.5837 24.0653 19.5041C24.6124 20.9938 24.7302 22.332 24.3683 23.889C23.7286 26.6411 24.0737 28.1308 26.91 29.3849Z" fill="#01615F"/>
<path d="M18.7294 28.8126C19.3522 29.0399 19.268 29.9572 18.5694 29.9825C14.6474 30.1087 14.5296 25.4545 11.6512 23.8807C10.3131 23.1485 11.4913 21.2716 12.8295 21.8692C14.395 22.5761 15.3123 23.9985 16.0025 25.505C16.6337 26.8853 17.206 28.2487 18.7294 28.8126Z" fill="#01615F"/>
<path d="M13.822 33.6099C13.8893 33.6099 13.8893 33.7024 13.822 33.7024C13.7631 33.7024 13.7631 33.6099 13.822 33.6099Z" fill="#01615F"/>
<path d="M10.9769 35.0491C11.019 35.0491 11.019 35.108 10.9769 35.108C10.9432 35.108 10.9432 35.0491 10.9769 35.0491Z" fill="#01615F"/>
</svg>
