<svg width="264" height="204" viewBox="0 0 264 204" fill="none" xmlns="http://www.w3.org/2000/svg">
<path opacity="0.1" fill-rule="evenodd" clip-rule="evenodd" d="M98.437 56.9191C111.574 50.5064 125.85 49.6482 139.778 45.2042C155.605 40.1538 169.362 26.9977 185.852 29.0259C203.45 31.1905 222.515 40.3722 230.241 56.3313C237.96 72.2753 228.711 90.9302 224.1 108.034C220.759 120.429 214.943 131.529 207.209 141.776C200.399 150.801 190.627 156.121 182.159 163.613C170.745 173.713 163.681 190.317 148.772 193.482C133.311 196.764 118.675 186.651 104.269 180.148C86.123 171.956 64.2638 167.508 53.7634 150.593C42.8254 132.973 39.3097 108.607 48.2369 89.8876C57.0326 71.4444 80.0746 65.8822 98.437 56.9191Z" fill="#01615F"/>
<g clip-path="url(#clip0_1_1583)">
<path d="M86.3631 79.9867C86.3631 79.9867 84.9631 77.8867 83.5631 77.1867L81.4631 80.6867C109.463 79.9867 137.463 78.5867 165.463 77.1867H189.263C189.263 77.1867 187.863 74.3867 187.163 73.6867C185.763 95.3867 184.363 116.387 182.963 138.087L185.063 135.987C157.063 134.587 129.063 133.887 101.063 135.987C93.3631 135.987 84.9631 136.687 77.2631 137.387L80.0631 140.187C81.4631 120.587 82.8631 100.287 83.5631 80.6867C82.1631 81.3867 81.4631 82.0867 80.0631 83.4867C101.763 91.1867 122.063 102.387 140.963 115.687C141.663 115.687 143.063 115.687 143.763 115.687C152.863 106.587 162.663 97.4867 173.163 90.4867C175.963 88.3867 178.763 86.9867 181.563 84.8867C183.663 83.4867 187.163 82.0867 188.563 79.9867C189.963 77.1867 188.563 73.6867 185.063 75.0867C182.963 75.0867 181.563 79.2867 184.363 80.6867C187.163 82.0867 189.263 77.8867 186.463 76.4867V78.5867C186.463 78.5867 184.363 76.4867 183.663 77.8867C183.663 77.8867 182.263 77.8867 182.263 78.5867C180.863 78.5867 180.163 79.9867 179.463 80.6867C177.363 82.0867 175.963 83.4867 173.863 84.1867C169.663 86.9867 166.163 89.7867 161.963 92.5867C154.263 98.8867 147.263 105.187 140.963 112.187H143.763C124.863 96.0867 103.863 84.8867 82.1631 76.4867C80.7631 76.4867 79.3631 77.1867 78.6631 79.2867C77.2631 98.8867 76.5631 119.187 75.1631 138.787C75.1631 140.187 76.5631 141.587 77.9631 141.587C105.963 139.487 133.963 138.787 161.963 139.487C169.663 139.487 178.063 139.487 185.763 140.187C187.163 140.187 187.863 138.787 187.863 138.087C189.263 116.387 190.663 95.3867 192.063 73.6867C192.063 72.2867 190.663 71.5867 189.963 71.5867C161.963 72.9867 133.963 73.6867 105.963 75.0867C98.2631 75.0867 89.8631 75.7867 82.1631 76.4867C80.0631 76.4867 79.3631 79.9867 82.1631 80.6867C83.5631 80.6867 84.9631 81.3867 86.3631 82.0867C87.0631 82.0867 87.7631 81.3867 87.0631 80.6867H86.3631V79.9867Z" fill="#01615F"/>
</g>
<defs>
<clipPath id="clip0_1_1583">
<rect width="117.6" height="70.7" fill="white" transform="translate(75.1631 70.8867)"/>
</clipPath>
</defs>
</svg>
