<svg width="16" height="17" viewBox="0 0 16 17" fill="none" xmlns="http://www.w3.org/2000/svg">
<path d="M8.00016 2.09729C4.32683 2.09729 1.3335 5.09062 1.3335 8.76396C1.3335 12.4373 4.32683 15.4306 8.00016 15.4306C11.6735 15.4306 14.6668 12.4373 14.6668 8.76396C14.6668 5.09062 11.6735 2.09729 8.00016 2.09729ZM10.9002 11.144C10.8068 11.304 10.6402 11.3906 10.4668 11.3906C10.3802 11.3906 10.2935 11.3706 10.2135 11.3173L8.14683 10.084C7.6335 9.77729 7.2535 9.10396 7.2535 8.51062V5.77729C7.2535 5.50396 7.48016 5.27729 7.7535 5.27729C8.02683 5.27729 8.2535 5.50396 8.2535 5.77729V8.51062C8.2535 8.75062 8.4535 9.10396 8.66016 9.22396L10.7268 10.4573C10.9668 10.5973 11.0468 10.904 10.9002 11.144Z" fill="#104D4D"/>
</svg>
