<svg width="40" height="36" viewBox="0 0 40 36" fill="none" xmlns="http://www.w3.org/2000/svg">
<path d="M39.0147 19.5307C38.9835 19.4076 38.976 19.2833 39.0126 19.159C39.019 19.1355 39.0244 19.1027 39.0147 19.084C38.9685 18.9925 38.9889 18.8963 38.9857 18.8014C38.9717 18.3312 38.9556 17.8621 38.9384 17.3931C38.9341 17.2746 38.9179 17.1574 38.9104 17.0401C38.8997 16.8818 38.8953 16.7224 38.8792 16.5641C38.8351 16.1384 38.7835 15.7128 38.7372 15.2871C38.705 14.9893 38.677 14.6914 38.6437 14.3936C38.6114 14.0957 38.5813 13.7979 38.5383 13.5024C38.4995 13.2327 38.4479 12.9642 38.3974 12.6968C38.3554 12.4799 38.3092 12.263 38.2597 12.0484C38.1564 11.6052 37.9822 11.1901 37.8198 10.7714C37.4832 9.9049 37.082 9.07353 36.6281 8.27147C36.3162 7.71918 35.9752 7.18917 35.6171 6.67206C35.4375 6.41291 35.2503 6.15729 35.0546 5.91222C34.8792 5.69294 34.7029 5.47249 34.5007 5.27784C34.3071 5.0914 34.1264 4.89089 33.9295 4.70913C33.4445 4.26238 32.9271 3.86018 32.3872 3.49667C32.0495 3.26919 31.7096 3.04522 31.3676 2.82595C31.0578 2.62778 30.7438 2.4343 30.4286 2.24669C30.1458 2.07901 29.8575 1.92071 29.5693 1.76241C29.3993 1.66977 29.2294 1.57479 29.053 1.49857C28.697 1.34496 28.3356 1.20191 27.9774 1.05533C27.487 0.85482 26.9772 0.72349 26.4706 0.586297C25.8876 0.427997 25.2918 0.336534 24.697 0.242727C24.1162 0.151265 23.5322 0.0820815 22.9449 0.0551119C22.5115 0.0351778 22.077 0.0175889 21.6435 0C21.6435 0.00703556 21.6435 0.0152437 21.6435 0.0222793C21.2735 0.0222793 20.9035 0.0117259 20.5336 0.0257971C20.1539 0.0398682 19.7742 0.0703556 19.3967 0.107879C18.9643 0.150092 18.532 0.200513 18.1017 0.262661C17.5704 0.338879 17.0413 0.436205 16.5164 0.555809C15.828 0.712937 15.1418 0.872409 14.4664 1.08582C14.3201 1.13273 14.1792 1.19839 14.034 1.24881C13.8103 1.3262 13.5855 1.39656 13.3618 1.4716C13.2058 1.5232 13.0488 1.57245 12.8961 1.63342C12.6154 1.74482 12.3379 1.8656 12.0593 1.98051C11.8399 2.0708 11.6172 2.15054 11.4011 2.24669C11.0967 2.38154 10.7934 2.52342 10.4933 2.67117C10.2212 2.80602 9.95445 2.95024 9.68664 3.09447C9.5651 3.16014 9.45217 3.24926 9.3274 3.30202C9.14886 3.37707 8.98753 3.48847 8.82189 3.58696C8.5487 3.75113 8.28519 3.93405 8.01415 4.1029C7.41722 4.47462 6.86654 4.92137 6.32877 5.38338C5.96953 5.69177 5.62643 6.02478 5.28656 6.3578C5.04241 6.59701 4.81117 6.85264 4.58208 7.10943C4.2949 7.42955 4.01203 7.75319 3.75282 8.10027C3.556 8.36411 3.36348 8.63263 3.17203 8.90116C3.07846 9.03249 2.98919 9.16733 2.90207 9.30453C2.7246 9.58478 2.53638 9.85799 2.3772 10.15C2.11046 10.6401 1.8534 11.1361 1.62108 11.6474C1.41673 12.0965 1.25432 12.5632 1.09729 13.0322C0.981132 13.3793 0.888638 13.7369 0.798292 14.0934C0.723003 14.3889 0.658471 14.6879 0.604694 14.9893C0.558445 15.2507 0.533703 15.5158 0.499286 15.7796C0.490681 15.8453 0.479925 15.9109 0.47132 15.9766C0.455187 16.1044 0.432602 16.2322 0.426149 16.3612C0.405713 16.7962 0.35624 17.2301 0.354089 17.6663C0.354089 17.8222 0.34118 17.9782 0.351936 18.133C0.385278 18.5903 0.351939 19.0488 0.388507 19.5073C0.428303 20.0138 0.405717 20.5262 0.476703 21.0328C0.481005 21.0621 0.476698 21.0914 0.477773 21.1219C0.477773 21.1852 0.477777 21.2474 0.48208 21.3107C0.505742 21.6719 0.529404 22.0342 0.556293 22.3954C0.575653 22.6533 0.598239 22.9113 0.622976 23.1693C0.679981 23.7403 0.798287 24.2997 0.928429 24.8555C1.04782 25.3655 1.18979 25.8662 1.36296 26.3576C1.5017 26.7504 1.62539 27.1502 1.74907 27.5501C1.85555 27.8972 1.94805 28.2501 2.05453 28.5972C2.20081 29.0745 2.37182 29.5411 2.5665 29.9985C2.73106 30.3831 2.93325 30.7395 3.1731 31.0714C3.28603 31.2285 3.4022 31.3833 3.52051 31.5357C3.67001 31.728 3.84747 31.8887 4.02064 32.0564C4.26909 32.2979 4.51862 32.5359 4.80256 32.7294C4.9811 32.8502 5.14674 32.9933 5.32528 33.114C5.59309 33.2946 5.86198 33.4752 6.147 33.6241C6.27822 33.6921 6.40621 33.7683 6.53527 33.8422C6.8418 34.0204 7.1634 34.16 7.48606 34.296C7.6603 34.3699 7.83239 34.4508 8.00878 34.5129C8.22496 34.5903 8.44653 34.6478 8.66379 34.7217C9.48121 34.9972 10.3158 35.2012 11.1515 35.3994C11.8044 35.5542 12.4669 35.6492 13.1284 35.75C13.4102 35.7922 13.6941 35.8192 13.9781 35.8497C14.133 35.8661 14.2911 35.8614 14.4449 35.8884C14.6632 35.9271 14.8826 35.9306 15.102 35.9458C15.1558 35.9494 15.2107 35.9388 15.2644 35.9412C15.4441 35.9458 15.6237 35.9517 15.8022 35.9587C15.8323 35.9599 15.8614 35.9705 15.8904 35.9752C15.9399 35.9845 15.9904 36.0021 16.0388 35.9998C16.126 35.9939 16.2109 35.967 16.298 35.9634C16.5927 35.9541 16.8874 35.9552 17.1821 35.947C17.4844 35.9388 17.7855 35.9259 18.0867 35.9118C18.1878 35.9072 18.2889 35.8872 18.39 35.879C18.6266 35.8591 18.8643 35.8438 19.1009 35.8204C19.3375 35.7969 19.5731 35.7664 19.8086 35.736C19.9033 35.7242 19.9969 35.7066 20.0904 35.6926C20.2346 35.6703 20.3776 35.6445 20.5217 35.6246C20.7067 35.5999 20.8939 35.5859 21.0778 35.5554C21.4865 35.4862 21.8952 35.4111 22.3028 35.3373C22.5911 35.2857 22.8793 35.2376 23.1654 35.1766C23.5989 35.0852 24.0291 34.982 24.4625 34.8893C24.7852 34.8202 25.11 34.7627 25.4338 34.6959C25.58 34.6654 25.7274 34.6325 25.8704 34.5868C26.2092 34.4789 26.5459 34.364 26.8825 34.2491C27.1256 34.1659 27.3676 34.0802 27.6075 33.9876C27.7731 33.9231 27.9333 33.841 28.0979 33.7695C28.1829 33.7332 28.2721 33.7074 28.356 33.6687C28.6593 33.5303 28.9626 33.3908 29.2649 33.2489C29.4854 33.1445 29.7069 33.0402 29.9242 32.9252C30.3598 32.6942 30.7922 32.4539 31.2278 32.2193C31.4439 32.1033 31.6623 31.993 31.8785 31.8758C32.0914 31.7609 32.3022 31.6436 32.512 31.5228C32.698 31.4161 32.883 31.3071 33.0648 31.1922C33.2444 31.0796 33.4262 30.9694 33.594 30.838C33.9661 30.5472 34.3081 30.2154 34.6405 29.8706C34.9631 29.5365 35.2514 29.1671 35.5654 28.8247C35.8935 28.4659 36.2129 28.0977 36.5356 27.7342C36.5593 27.7072 36.5808 27.6791 36.6023 27.6509C36.7055 27.509 36.8109 27.3683 36.911 27.2241C37.0508 27.0201 37.1874 26.8125 37.3229 26.605C37.3842 26.5112 37.4444 26.4174 37.4993 26.32C37.6897 25.987 37.8445 25.6317 37.994 25.2752C38.2457 24.6796 38.4232 24.0534 38.5695 23.4167C38.6749 22.957 38.7867 22.4997 38.8405 22.0283C38.8771 21.7094 38.9093 21.3893 38.9405 21.0703C38.9502 20.9671 38.9534 20.864 38.9577 20.7596C38.9706 20.4829 38.9814 20.2061 38.9954 19.9294C38.9975 19.8778 39.0051 19.8274 39.0147 19.777C39.0319 19.6961 39.0362 19.6175 39.0147 19.5354V19.5307ZM3.51406 26.3013C3.5076 26.6929 3.50438 27.0857 3.50115 27.4774C3.50115 27.5126 3.50115 27.5477 3.50115 27.5911C3.45167 27.577 3.44845 27.543 3.44092 27.5126C3.32584 27.0869 3.20968 26.6613 3.09782 26.2356C3.03759 26.0081 2.98488 25.7783 2.9311 25.5496C2.9225 25.5133 2.92465 25.4746 2.9225 25.4359C2.93003 25.4324 2.93863 25.4289 2.94616 25.4253C2.98166 25.4664 3.02145 25.5051 3.05264 25.5508C3.15482 25.7032 3.2527 25.858 3.3538 26.0105C3.38607 26.0585 3.42263 26.1019 3.46028 26.1441C3.50115 26.1887 3.51621 26.2379 3.51513 26.3024L3.51406 26.3013ZM5.07037 28.1235C5.06177 28.1411 5.04349 28.1587 5.02628 28.1633C4.98433 28.1751 4.94023 28.1833 4.89613 28.188C4.75094 28.2009 4.64015 28.2958 4.60573 28.4518C4.5853 28.5444 4.57347 28.6418 4.56917 28.7367C4.54551 29.2574 4.524 29.778 4.50356 30.2998C4.50141 30.3409 4.50786 30.3819 4.50356 30.4218C4.50034 30.4605 4.4885 30.498 4.48097 30.5355C4.47237 30.5355 4.46377 30.5355 4.45624 30.5367C4.44441 30.5203 4.42612 30.5062 4.42074 30.4874C4.32502 30.1872 4.20133 29.8976 4.15939 29.5798C4.12497 29.3172 4.10023 29.0522 4.10345 28.786C4.10668 28.5784 4.09378 28.3709 4.10561 28.1645C4.11529 27.9992 4.11314 27.835 4.13895 27.6685C4.16691 27.4844 4.15185 27.2921 4.15616 27.1033C4.15616 27.067 4.15616 27.0318 4.15616 26.9779C4.1895 26.999 4.21101 27.0072 4.22607 27.0224C4.27124 27.067 4.31964 27.1104 4.35728 27.162C4.45731 27.2991 4.57992 27.4094 4.70684 27.5149C4.83375 27.6204 4.95421 27.733 5.07683 27.8456C5.10694 27.8737 5.13061 27.9089 5.15535 27.9382C5.12416 28.0074 5.09941 28.0672 5.07037 28.1247V28.1235ZM6.26638 30.1708C6.26638 30.7888 6.26638 31.4056 6.26638 32.0235C6.26638 32.0599 6.26638 32.0951 6.26638 32.1607C5.94157 31.9731 5.67698 31.748 5.44144 31.4759C5.45542 31.4841 5.47048 31.4923 5.48339 31.5017C5.5006 31.5134 5.51673 31.5275 5.53286 31.5404C5.58664 31.585 5.64042 31.6307 5.69634 31.6729C5.72431 31.6929 5.7555 31.7104 5.78777 31.7198C5.86306 31.7433 5.88672 31.7222 5.8878 31.6354C5.8878 31.4325 5.88779 31.2285 5.88564 31.0256C5.88349 30.6082 5.88241 30.1896 5.87811 29.7721C5.87596 29.5505 5.86951 29.3289 5.86413 29.1073C5.86413 29.0815 5.86413 29.0533 5.85445 29.0311C5.82326 28.956 5.82541 28.8845 5.8523 28.8059C5.87274 28.745 5.88564 28.6781 5.83079 28.6207C5.81573 28.6042 5.8168 28.5702 5.8082 28.5292C5.88134 28.5421 5.93189 28.5644 5.97921 28.5996C6.04052 28.6453 6.10075 28.6957 6.16528 28.7344C6.2481 28.7836 6.27177 28.854 6.27069 28.9537C6.26639 29.3606 6.26854 29.7675 6.26746 30.1743L6.26638 30.1708ZM8.25078 30.0325C8.23034 30.0747 8.20452 30.1169 8.19485 30.1614C8.12816 30.4745 8.05933 30.7876 8.00017 31.1019C7.91198 31.5732 7.87003 32.0517 7.82163 32.5289C7.80657 32.6778 7.76463 32.815 7.69579 32.9686C7.5549 32.8948 7.42475 32.8256 7.29461 32.7564C7.27955 32.7482 7.26665 32.7329 7.25159 32.7271C7.14081 32.6884 7.12252 32.5993 7.12145 32.4844C7.10962 31.5263 7.09241 30.5695 7.07628 29.6115C7.0752 29.5388 7.0666 29.4661 7.06229 29.3946C7.07628 29.3911 7.08596 29.3852 7.08918 29.3875C7.24084 29.5071 7.42583 29.54 7.59362 29.6162C7.8098 29.7135 8.02491 29.812 8.24002 29.9117C8.25723 29.9199 8.27121 29.9375 8.29165 29.9562C8.27659 29.9832 8.26153 30.0067 8.2497 30.0313L8.25078 30.0325ZM9.76192 31.1488C9.69631 31.2953 9.65544 31.4501 9.62748 31.6119C9.50917 32.3155 9.521 33.0249 9.52745 33.7343C9.52745 33.7484 9.52423 33.7625 9.52315 33.7742C9.48443 33.8047 9.45539 33.7766 9.42527 33.7637C9.24243 33.6863 9.05959 33.6077 8.87567 33.5303C8.84771 33.5186 8.81652 33.5115 8.7907 33.4951C8.73585 33.4611 8.6939 33.4154 8.68853 33.3403C8.67885 33.1961 8.66271 33.0531 8.65948 32.9088C8.65411 32.6872 8.65949 32.4656 8.65626 32.2428C8.65196 31.9567 8.69391 31.6764 8.73155 31.395C8.77027 31.0983 8.82727 30.8064 8.91224 30.5203C8.923 30.4851 8.93483 30.4499 8.94666 30.4159C8.94989 30.4065 8.95849 30.3983 8.9714 30.3795C9.00581 30.3889 9.0456 30.3948 9.08217 30.41C9.29836 30.4968 9.51347 30.5859 9.72966 30.6739C9.7673 30.6891 9.80602 30.702 9.84474 30.7184C9.87486 30.7313 9.90497 30.7466 9.93724 30.763C9.87486 30.8978 9.81785 31.0233 9.76085 31.1476L9.76192 31.1488ZM11.7237 31.7597C11.6549 31.8992 11.585 32.0411 11.5602 32.1994C11.5463 32.2897 11.5398 32.3812 11.5377 32.4726C11.528 32.7681 11.5269 33.0636 11.4559 33.3532C11.4376 33.4271 11.4366 33.5069 11.4226 33.5831C11.3882 33.7601 11.3494 33.936 11.2688 34.0978C11.2387 34.16 11.1967 34.1952 11.1289 34.1811C10.9665 34.1483 10.7977 34.1682 10.6417 34.0908C10.5675 34.0533 10.5342 34.0052 10.5331 33.9137C10.5277 33.311 10.5159 32.7083 10.5137 32.1056C10.5137 31.9145 10.5342 31.7222 10.5438 31.531C10.5471 31.4642 10.5471 31.3974 10.546 31.3317C10.5439 31.2707 10.5686 31.2379 10.6213 31.2179C10.6718 31.198 10.717 31.164 10.7665 31.1429C10.8031 31.1277 10.845 31.1159 10.8827 31.1206C11.1494 31.1546 11.4107 31.2121 11.6646 31.3106C11.7119 31.3293 11.7625 31.3399 11.8109 31.3551C11.842 31.3657 11.8722 31.3786 11.913 31.395C11.8431 31.5299 11.7818 31.6436 11.7237 31.7609V31.7597ZM13.9856 31.9379C13.8619 32.1361 13.7372 32.3343 13.6124 32.5324C13.5575 32.6192 13.5231 32.7142 13.522 32.8221C13.522 32.9147 13.5188 33.0073 13.5177 33.0988C13.5177 33.1985 13.5124 33.2958 13.493 33.3955C13.4704 33.5139 13.4801 33.6382 13.4661 33.759C13.436 34.0298 13.4016 34.3019 13.365 34.5716C13.3489 34.69 13.336 34.6947 13.2316 34.6771C13.0746 34.6501 12.9154 34.6302 12.7595 34.5962C12.6508 34.5716 12.5454 34.5282 12.439 34.493C12.368 34.4684 12.3422 34.4121 12.3368 34.3335C12.3217 34.1166 12.3131 33.8973 12.2787 33.6827C12.2335 33.3931 12.2217 33.1023 12.2131 32.8103C12.2045 32.5524 12.2604 32.3038 12.3024 32.054C12.3239 31.9285 12.3615 31.8136 12.4314 31.7093C12.4648 31.66 12.4841 31.599 12.511 31.5416C12.5347 31.5416 12.5594 31.5381 12.582 31.5416C12.9853 31.6201 13.3887 31.6999 13.792 31.7796C13.8415 31.789 13.892 31.8019 13.9404 31.8171C13.9673 31.8254 13.9921 31.8441 14.0222 31.8617C14.006 31.8957 13.9974 31.9192 13.9845 31.9391L13.9856 31.9379ZM16.1754 32.2018C16.1722 32.2827 16.1367 32.3436 16.0819 32.3905C15.9861 32.4726 15.8893 32.5547 15.7904 32.6321C15.714 32.6919 15.7226 32.6872 15.7291 32.7916C15.742 32.9979 15.7452 33.2055 15.7463 33.4119C15.7463 33.5526 15.7355 33.6921 15.7334 33.8328C15.7269 34.1318 15.7226 34.432 15.7194 34.731C15.7172 34.8729 15.7108 34.8811 15.5774 34.8647C15.5226 34.88 15.4677 34.8964 15.4129 34.9104C15.3774 34.9198 15.3408 34.9316 15.3042 34.9316C15.1246 34.9339 14.945 34.9351 14.7643 34.9339C14.731 34.9339 14.6976 34.9257 14.6643 34.9198C14.618 34.9116 14.5729 34.8975 14.5266 34.8929C14.4556 34.8858 14.3986 34.8565 14.3782 34.7803C14.3352 34.622 14.2782 34.4684 14.2803 34.2972C14.2878 33.827 14.2889 33.3579 14.29 32.8877C14.29 32.781 14.2803 32.6731 14.2728 32.5664C14.2631 32.4281 14.304 32.3038 14.3664 32.1865C14.404 32.1162 14.4481 32.0505 14.4868 31.9813C14.5116 31.9391 14.5449 31.9227 14.5901 31.9285C14.7686 31.9508 14.9471 31.9731 15.1257 31.9954C15.1558 31.9989 15.1859 32.0012 15.216 32.0036C15.4387 32.0188 15.6624 32.0306 15.885 32.0505C15.9625 32.0575 16.0367 32.0868 16.1131 32.1044C16.1636 32.1162 16.1765 32.1502 16.1744 32.2018H16.1754ZM21.3295 32.2909C21.2714 32.4844 21.2133 32.6743 21.1068 32.8479C21.0143 33.0003 20.9907 33.1856 20.9627 33.3638C20.939 33.5162 20.9132 33.6687 20.8885 33.8223C20.8831 33.8551 20.8756 33.8891 20.8799 33.9208C20.8939 34.0521 20.8713 34.1787 20.8379 34.3042C20.8218 34.3617 20.8508 34.4426 20.7874 34.4754C20.7368 34.5012 20.6766 34.5071 20.6196 34.5165C20.2873 34.5704 19.956 34.629 19.6226 34.6748C19.4451 34.6994 19.2644 34.7064 19.0848 34.7146C18.9719 34.7193 18.9557 34.6994 18.9525 34.5739C18.9503 34.4813 18.9579 34.3898 18.9568 34.2972C18.9568 34.2128 18.9504 34.1272 18.9482 34.0427C18.945 33.861 18.946 33.6804 18.9396 33.4986C18.9364 33.4177 18.9245 33.3368 18.9095 33.2583C18.8966 33.1903 18.8557 33.1527 18.7858 33.1539C18.6363 33.1562 18.4868 33.1504 18.3384 33.1539C18.2136 33.1574 18.1695 33.2032 18.1534 33.338C18.1469 33.3919 18.1501 33.4482 18.1523 33.5045C18.1544 33.5901 18.1555 33.6745 18.162 33.759C18.1824 34.0228 18.1093 34.2796 18.1028 34.5411C18.1007 34.6079 18.0931 34.6736 18.0867 34.7404C18.0759 34.853 18.0684 34.8624 17.9619 34.8729C17.8576 34.8835 17.7522 34.8858 17.6468 34.894C17.5962 34.8987 17.5468 34.9093 17.4973 34.9187C17.4672 34.9245 17.4381 34.9362 17.408 34.9374C17.2015 34.9468 16.9939 34.9562 16.7874 34.962C16.6981 34.9644 16.6852 34.9538 16.6551 34.8589C16.6401 34.8096 16.6304 34.7592 16.6196 34.7088C16.5992 34.6079 16.5777 34.5071 16.5594 34.4062C16.5497 34.3523 16.54 34.2972 16.539 34.2421C16.5336 33.7941 16.5132 33.3462 16.5572 32.8994C16.5734 32.7341 16.6046 32.5711 16.6293 32.407C16.6401 32.3354 16.6519 32.2639 16.6627 32.1959C16.8068 32.1959 16.9412 32.1959 17.0767 32.1959C17.1241 32.1959 17.1714 32.2006 17.2187 32.2041C17.4381 32.2193 17.6575 32.2369 17.8769 32.2487C17.992 32.2545 18.1071 32.251 18.2233 32.2487C18.419 32.244 18.6159 32.2381 18.8116 32.2299C18.8804 32.2264 18.9471 32.2276 19.002 32.2956C19.0622 32.2064 19.1407 32.2135 19.2235 32.2158C19.3246 32.2193 19.4257 32.2088 19.5268 32.2029C19.6344 32.1971 19.742 32.1877 19.8506 32.183C19.9657 32.1783 20.0818 32.183 20.1969 32.1736C20.3045 32.1654 20.4109 32.1431 20.5185 32.1302C20.7917 32.0974 21.0649 32.0669 21.3381 32.0364C21.351 32.0352 21.3639 32.0388 21.3875 32.0411C21.366 32.1291 21.3499 32.2111 21.3262 32.2909H21.3295ZM24.4421 31.585C24.4023 31.9414 24.4023 32.2991 24.3883 32.6567C24.3808 32.8303 24.3883 33.0073 24.355 33.175C24.3216 33.3392 24.3152 33.5033 24.298 33.6687C24.2948 33.698 24.2937 33.7273 24.2948 33.7566C24.298 33.8586 24.2948 33.8704 24.2033 33.8938C23.9753 33.9524 23.7484 34.0134 23.5182 34.0627C23.0557 34.1612 22.5922 34.2526 22.1275 34.3453C21.9587 34.3793 21.9533 34.3781 21.9232 34.1975C21.8855 33.9653 21.8511 33.7308 21.8264 33.4963C21.779 33.0519 21.7199 32.6098 21.65 32.1689C21.6403 32.1079 21.6392 32.0458 21.6349 31.9895C21.6543 31.9766 21.6629 31.9672 21.6715 31.9661C22.6018 31.816 23.5161 31.5861 24.412 31.2719C24.4206 31.2695 24.4314 31.2754 24.4453 31.2789C24.4453 31.3821 24.455 31.4853 24.4432 31.585H24.4421ZM27.3127 32.8936C26.9987 33.066 26.6674 33.1844 26.3275 33.2747C26.2555 33.2934 26.1856 33.3228 26.1157 33.3521C25.8995 33.44 25.6801 33.5186 25.451 33.5596C25.3617 33.5749 25.3606 33.5772 25.338 33.4857C25.2036 32.9358 25.0713 32.3847 24.9369 31.8347C24.8842 31.6166 24.8304 31.3997 24.7734 31.164C25.3574 30.9483 25.9339 30.7313 26.5125 30.5226C26.775 30.4288 27.0245 30.2916 27.3106 30.2388C27.316 30.3186 27.3192 30.3913 27.3267 30.4628C27.3816 30.9823 27.3654 31.5041 27.373 32.0247C27.3773 32.2686 27.3816 32.5125 27.3902 32.7564C27.3923 32.8267 27.3687 32.8631 27.3127 32.8936ZM27.7914 30.4945C27.7828 30.464 27.7709 30.4393 27.7688 30.4136C27.7634 30.3326 27.7613 30.2517 27.7602 30.1697C27.758 30.0946 27.7785 30.0336 27.8591 29.9996C27.8677 30.4194 27.8656 30.43 27.7914 30.4945ZM30.0468 31.6284C29.8511 31.7304 29.6575 31.8371 29.4617 31.9403C29.2358 32.0587 29.01 32.1783 28.7809 32.2897C28.6454 32.3554 28.5045 32.4058 28.3646 32.4632C28.3184 32.3941 28.3066 32.3249 28.2969 32.2569C28.256 31.9684 28.2162 31.6811 28.1926 31.3892C28.156 30.9553 28.0936 30.5249 28.0366 30.0934C28.0043 29.8484 28.0033 29.8402 28.2119 29.7463C28.4507 29.6385 28.6744 29.5001 28.8981 29.3606C29.1692 29.1929 29.4466 29.0369 29.722 28.8775C29.7446 28.8646 29.7715 28.8587 29.8059 28.8458C29.8392 28.9771 29.8726 29.0932 29.8995 29.2105C30.0447 29.8448 30.1081 30.4909 30.1103 31.1441C30.1103 31.2625 30.1103 31.3809 30.1167 31.4994C30.121 31.565 30.0995 31.6014 30.0468 31.6295V31.6284ZM32.9325 28.8364C32.9217 29.1085 32.9293 29.3828 32.8852 29.6549C32.8508 29.8601 32.7572 30.0266 32.6486 30.1872C32.6195 30.2295 32.5733 30.2635 32.5292 30.2881C32.1119 30.5285 31.6902 30.7583 31.2525 30.9518C31.2374 30.9588 31.2202 30.96 31.1987 30.9658C31.1449 30.8744 31.0955 30.7817 31.0729 30.6774C30.9771 30.2306 30.9126 29.778 30.8847 29.3195C30.8782 29.2175 30.8535 29.1155 30.8406 29.0135C30.8072 28.7461 30.776 28.4788 30.7405 28.2114C30.733 28.1493 30.7696 28.1247 30.8051 28.0977C30.9244 28.0074 31.0481 27.9218 31.1664 27.828C31.5149 27.5524 31.8677 27.2816 32.1818 26.9579C32.3173 26.8184 32.4603 26.6871 32.598 26.5499C32.6733 26.4748 32.7432 26.3951 32.8163 26.3177C32.8422 26.2907 32.8712 26.2661 32.9164 26.2239C32.925 26.2919 32.9357 26.3364 32.9368 26.381C32.9411 26.7023 32.9465 27.0248 32.9465 27.3472C32.9465 27.8432 32.9529 28.3392 32.9336 28.8341L32.9325 28.8364ZM35.0492 25.7783C35.047 26.1219 35.0406 26.4654 35.0363 26.809C35.0363 26.8278 35.0395 26.85 35.0309 26.8629C34.9761 26.9462 34.9986 27.04 34.9965 27.1315C34.9954 27.1936 34.99 27.2569 34.9825 27.3191C34.9728 27.3988 34.9449 27.4762 34.9771 27.5583C34.9857 27.5806 34.976 27.6204 34.961 27.6415C34.919 27.7013 34.9094 27.7694 34.9061 27.8397C34.9018 27.9535 34.8577 28.0426 34.7814 28.12C34.5039 28.4037 34.2103 28.6664 33.8983 28.9033C33.8854 28.9126 33.8693 28.9185 33.8446 28.9302C33.8424 28.8974 33.8392 28.8728 33.8392 28.8493C33.8392 28.4717 33.837 28.0953 33.8413 27.7178C33.8413 27.6111 33.8596 27.5055 33.8682 27.4C33.8758 27.2968 33.8822 27.1936 33.8876 27.0904C33.9037 26.7844 33.9199 26.4783 33.9349 26.1723C33.9381 26.1137 33.9424 26.0539 33.9403 25.9952C33.9381 25.9319 33.9328 25.8709 33.9618 25.8111C33.9726 25.79 33.9715 25.7607 33.9715 25.7349C33.9715 25.5977 33.9736 25.4617 33.9715 25.3245C33.9715 25.2776 33.9629 25.2295 33.9478 25.185C33.9263 25.1228 33.9295 25.0747 33.9747 25.0243C34.2178 24.7464 34.4587 24.465 34.7018 24.1871C34.7534 24.1285 34.8115 24.078 34.876 24.0147C34.9223 24.268 34.9857 24.5002 34.99 24.7441C34.9922 24.8308 35.0212 24.9164 35.0298 25.0044C35.0363 25.0665 35.0266 25.1298 35.0277 25.192C35.0288 25.2577 35.0374 25.3245 35.0395 25.3902C35.0438 25.5191 35.0503 25.6481 35.0492 25.7771V25.7783ZM36.9669 25.0032C36.8776 25.2776 36.7378 25.5227 36.6023 25.7701C36.4571 26.0374 36.3043 26.2989 36.1247 26.5417C36.0935 26.5839 36.0677 26.6319 36.0301 26.6906C36.0236 26.6577 36.0172 26.6401 36.015 26.6214C36.0064 26.5006 36 26.3787 35.9914 26.2579C35.9817 26.1219 35.9656 25.987 35.9591 25.851C35.9483 25.6517 35.9462 25.4523 35.9354 25.2541C35.929 25.1369 35.9118 25.0196 35.8999 24.9035C35.8903 24.8086 35.8817 24.7124 35.8752 24.6174C35.8623 24.4263 35.8548 24.234 35.8408 24.0429C35.8171 23.7016 35.7913 23.3616 35.7666 23.0204C35.7655 23.0051 35.7666 22.9887 35.7623 22.977C35.7192 22.875 35.7569 22.794 35.8107 22.7131C35.9537 22.4927 36.0946 22.2722 36.2355 22.0506C36.2699 21.9967 36.3022 21.9392 36.3345 21.8829C36.4022 21.7645 36.4711 21.6472 36.5388 21.5288C36.5485 21.5312 36.5582 21.5335 36.5689 21.5358C36.5797 21.6332 36.5915 21.7305 36.6023 21.8278C36.6518 22.264 36.7045 22.7002 36.7518 23.1376C36.784 23.4355 36.8023 23.7345 36.8421 24.03C36.8765 24.2891 36.9303 24.5447 36.9809 24.8015C36.9949 24.8731 36.9906 24.934 36.968 25.0044L36.9669 25.0032ZM37.3197 13.9163C37.3175 14.2716 37.324 14.6281 37.3046 14.9822C37.2971 15.1288 37.281 15.2754 37.2767 15.4219C37.2648 15.83 37.2175 16.2334 37.1691 16.6368C37.1175 17.0741 37.0153 17.4998 36.9034 17.9231C36.7378 18.5516 36.498 19.1473 36.242 19.7359C35.9849 20.3257 35.6902 20.8909 35.3643 21.4374C35.1266 21.8384 34.8749 22.2289 34.5996 22.6006C34.3834 22.8902 34.1812 23.1927 33.9629 23.48C33.779 23.7216 33.5821 23.9526 33.3875 24.1836C33.2294 24.3712 33.0702 24.56 32.9035 24.7382C32.4614 25.2131 32.0258 25.6962 31.5569 26.1418C31.2235 26.4584 30.8847 26.7656 30.5276 27.0482C30.0715 27.4082 29.6026 27.7494 29.1197 28.066C28.7174 28.3299 28.2947 28.5491 27.8688 28.7625C27.402 28.9959 26.9234 29.1929 26.4448 29.3922C25.8575 29.6373 25.252 29.819 24.6551 30.0301C24.0044 30.2599 23.3397 30.4218 22.675 30.5894C22.006 30.7583 21.3295 30.8779 20.6486 30.9682C20.1937 31.028 19.7355 31.0479 19.2773 31.0667C18.9009 31.0819 18.5244 31.0995 18.1469 31.0995C17.764 31.0995 17.38 31.0761 16.9972 31.0632C16.7562 31.055 16.5153 31.0491 16.2744 31.0397C16.2012 31.0362 16.126 31.0421 16.0571 30.9998C16.0345 30.9858 16.0044 30.9846 15.9775 30.9834C15.8183 30.9752 15.6581 30.9764 15.5 30.96C15.2096 30.9295 14.9192 30.8978 14.6309 30.8498C14.1642 30.7735 13.6984 30.6915 13.2349 30.5965C12.8982 30.5273 12.5659 30.4347 12.2325 30.3502C12.0012 30.2916 11.7689 30.2341 11.5398 30.1673C11.1924 30.0653 10.845 29.9633 10.5084 29.8237C10.1276 29.6666 9.73934 29.5306 9.36074 29.3676C9.01442 29.2175 8.67239 29.0533 8.33682 28.8751C8.04104 28.718 7.75925 28.5315 7.46993 28.3615C6.91172 28.032 6.41159 27.6122 5.91253 27.1901C5.72539 27.0318 5.5533 26.8524 5.37046 26.6859C5.03596 26.3822 4.7262 26.0503 4.43795 25.695C4.13572 25.3233 3.86683 24.9235 3.59687 24.5236C3.2699 24.0405 2.96445 23.5422 2.68696 23.0239C2.56434 22.7952 2.46431 22.5501 2.36644 22.3062C2.19435 21.8759 2.02764 21.4409 1.91256 20.9871C1.78672 20.4946 1.68562 19.9962 1.62324 19.4897C1.59097 19.2294 1.54472 18.9714 1.51783 18.7111C1.4931 18.473 1.48664 18.2327 1.46943 17.9934C1.45222 17.7683 1.43072 17.5443 1.41136 17.3192C1.40921 17.2969 1.4049 17.2746 1.4049 17.2535C1.40705 16.876 1.41028 16.4996 1.4135 16.122C1.4135 16.0587 1.41243 15.9965 1.41566 15.9332C1.41996 15.8746 1.42964 15.8171 1.43825 15.7597C1.44255 15.7268 1.45545 15.694 1.4533 15.6623C1.44147 15.4454 1.47911 15.2332 1.52213 15.0256C1.6071 14.614 1.70068 14.2048 1.80071 13.7979C1.84803 13.6056 1.91686 13.4192 1.97709 13.2304C1.98569 13.2022 1.9986 13.1764 2.00721 13.1483C2.13627 12.7379 2.31912 12.3533 2.48691 11.9628C2.64824 11.5876 2.83216 11.2241 3.03759 10.8758C3.22258 10.5615 3.41618 10.2532 3.613 9.94828C3.81198 9.63989 4.00988 9.32915 4.22929 9.03835C4.4799 8.70416 4.72512 8.36294 5.00584 8.05572C5.22848 7.81299 5.43822 7.55385 5.66623 7.31698C5.88887 7.08481 6.12549 6.86788 6.35889 6.64626C6.49763 6.51493 6.63853 6.38829 6.78158 6.26399C7.23976 5.86883 7.70978 5.49008 8.20668 5.15472C8.57559 4.90496 8.95311 4.66927 9.32956 4.43475C9.63394 4.24596 9.9566 4.09939 10.2836 3.96337C10.304 3.95516 10.3277 3.95398 10.3503 3.95047C10.3556 3.95985 10.361 3.96923 10.3664 3.97861C10.3287 4.01261 10.2954 4.05248 10.2545 4.08063C10.0803 4.2014 9.90389 4.31983 9.7275 4.43827C9.66405 4.48165 9.60274 4.52387 9.56079 4.59657C9.53821 4.63409 9.49626 4.66106 9.45862 4.68568C9.22952 4.83226 9.01442 4.99877 8.81867 5.19576C8.80361 5.211 8.78748 5.22508 8.77027 5.2368C8.46589 5.4549 8.20668 5.73398 7.93241 5.99195C7.65599 6.25344 7.40539 6.54659 7.13973 6.82098C6.80416 7.16806 6.50193 7.54916 6.20615 7.93494C5.95878 8.25857 5.73507 8.60332 5.49845 8.93633C5.25322 9.28225 5.03595 9.64927 4.8273 10.021C4.52292 10.5615 4.26586 11.1279 4.02709 11.7048C3.90663 11.998 3.80768 12.3017 3.7055 12.6042C3.59795 12.9243 3.49469 13.2456 3.39789 13.5693C3.33336 13.7838 3.28173 14.0019 3.22796 14.22C3.15052 14.5343 3.06985 14.8485 3.00102 15.1651C2.94509 15.4243 2.90099 15.6858 2.8569 15.9484C2.81065 16.2205 2.75794 16.4925 2.73105 16.7681C2.70739 17.0132 2.6805 17.2617 2.71707 17.5092C2.7289 17.5889 2.75041 17.6675 2.77408 17.7449C2.82248 17.9032 2.93863 17.9676 3.07953 17.9782C3.22043 17.9888 3.33874 17.929 3.4151 17.7918C3.47103 17.6909 3.49039 17.5783 3.50545 17.4646C3.56138 17.0589 3.61946 16.6532 3.67108 16.2463C3.73239 15.7538 3.83994 15.2719 3.96686 14.7958C4.18412 13.9773 4.44225 13.1753 4.77997 12.406C4.9241 12.0789 5.0693 11.7517 5.23708 11.4398C5.45434 11.0341 5.64902 10.6155 5.905 10.2344C6.06526 9.99636 6.20508 9.74073 6.36426 9.50152C6.52237 9.26583 6.69231 9.03952 6.86117 8.81204C7.04078 8.57049 7.22148 8.33128 7.40647 8.09558C7.51618 7.95487 7.63449 7.82237 7.74957 7.68635C7.87864 7.53508 8.00663 7.3803 8.14 7.23373C8.50461 6.83505 8.88212 6.45278 9.28545 6.101C9.55327 5.86766 9.82108 5.63314 10.1169 5.44318C10.4879 5.20514 10.8472 4.94483 11.2548 4.77832C11.4387 4.70327 11.6172 4.61181 11.799 4.52973C11.8399 4.51097 11.8818 4.49455 11.9238 4.48282C12.1088 4.43006 12.2669 4.32335 12.4056 4.18264C12.5261 4.06069 12.6014 3.90825 12.6272 3.73119C12.6347 3.6796 12.6207 3.62097 12.6046 3.57055C12.5648 3.44156 12.5143 3.31492 12.4745 3.18594C12.4465 3.09213 12.4562 3.06399 12.5379 3.01474C12.6627 2.94086 12.7885 2.86465 12.9187 2.80484C13.2413 2.6571 13.5683 2.52342 13.9071 2.42492C13.9232 2.42023 13.9404 2.41437 13.9555 2.40733C14.1814 2.2889 14.4255 2.23965 14.6654 2.17164C14.9611 2.08722 15.2548 1.9981 15.5516 1.91954C16.1217 1.76827 16.6928 1.61701 17.266 1.47864C17.6995 1.37428 18.1394 1.29923 18.5825 1.25702C18.8632 1.23005 19.1407 1.17611 19.4214 1.14797C19.7151 1.11865 20.0108 1.10927 20.3055 1.08582C20.9294 1.0354 21.5532 1.03774 22.1781 1.0483C22.3706 1.05182 22.5642 1.05299 22.7567 1.08348C22.9471 1.11396 23.1418 1.11514 23.3343 1.13155C23.8624 1.17728 24.3894 1.23709 24.9111 1.33793C25.2853 1.41063 25.6596 1.47981 26.0285 1.57714C26.6093 1.72958 27.1794 1.92305 27.744 2.13764C28.3711 2.37567 28.9723 2.67469 29.5628 3.00301C29.9188 3.20118 30.2651 3.42163 30.6082 3.64559C30.9223 3.84962 31.2353 4.06069 31.5354 4.28817C31.9645 4.61298 32.3829 4.95421 32.8045 5.29074C32.8916 5.3611 32.9734 5.43966 33.0562 5.51705C33.4692 5.90635 33.8725 6.30738 34.2404 6.75062C34.5802 7.15986 34.9029 7.58551 35.1998 8.03109C35.4891 8.46495 35.7601 8.91288 35.9795 9.39599C36.0021 9.44524 36.0355 9.48862 36.0602 9.5367C36.1516 9.72197 36.2463 9.90607 36.3312 10.0949C36.5012 10.4701 36.6797 10.8406 36.8088 11.2358C36.9002 11.5149 36.9787 11.7986 37.0691 12.0765C37.1293 12.2595 37.1637 12.4447 37.1809 12.6382C37.2024 12.888 37.2369 13.1377 37.2627 13.3875C37.2702 13.4567 37.2723 13.5282 37.268 13.5986C37.2627 13.6853 37.2584 13.7674 37.3046 13.8448C37.3164 13.8647 37.3154 13.8952 37.3154 13.9199L37.3197 13.9163ZM37.8338 21.1759C37.8295 21.5675 37.7822 21.9568 37.7273 22.3438C37.6864 22.6322 37.6273 22.9172 37.5724 23.2033C37.5574 23.2842 37.5283 23.3616 37.5057 23.4413L37.4907 23.4378C37.4885 23.4179 37.4853 23.3968 37.4853 23.3768C37.4907 23.0286 37.4272 22.6862 37.3863 22.3438C37.3509 22.0424 37.3294 21.7411 37.3272 21.4385C37.3272 21.2873 37.3412 21.136 37.3476 20.9847C37.3509 20.9109 37.3476 20.8358 37.3562 20.7643C37.3821 20.5743 37.3993 20.382 37.4444 20.1979C37.538 19.8121 37.6477 19.431 37.752 19.0488C37.7628 19.0077 37.7811 18.9702 37.7961 18.9303C37.8047 18.9303 37.8123 18.9327 37.8209 18.9339C37.8284 19.0089 37.8424 19.084 37.8424 19.159C37.8424 19.8321 37.8424 20.5051 37.8349 21.177L37.8338 21.1759Z" fill="#01615F"/>
<path d="M27.8385 8.65727C27.8041 8.65727 27.7708 8.65259 27.7363 8.6561C27.5158 8.6819 27.3136 8.60568 27.1157 8.51539C26.8587 8.3993 26.6049 8.27618 26.3478 8.16244C26.0122 8.01469 25.6605 7.93613 25.3045 7.87633C25.1841 7.85639 25.0614 7.84819 24.941 7.82708C24.7205 7.78838 24.5011 7.73913 24.2795 7.70161C24.0547 7.66292 23.8299 7.6336 23.6051 7.60194C23.5492 7.59373 23.4922 7.59491 23.4202 7.59021C23.4642 7.4882 23.4997 7.39791 23.5406 7.30997C23.7966 6.74947 24.0773 6.20538 24.3957 5.68358C24.486 5.53583 24.5721 5.38574 24.6538 5.23096C24.7162 5.11253 24.7022 5.03631 24.6043 4.94719C24.5452 4.89325 24.4796 4.84517 24.4107 4.80531C24.3107 4.74668 24.2612 4.76075 24.172 4.84283C24.0612 4.94484 23.987 5.07735 23.902 5.20164C23.6815 5.52176 23.4761 5.85126 23.2879 6.19483C23.076 6.58179 22.8533 6.96405 22.649 7.3557C22.5855 7.47647 22.5199 7.514 22.3962 7.50931C22.1693 7.5011 21.9423 7.51751 21.7154 7.52455C21.6304 7.5269 21.5455 7.52455 21.4616 7.53276C21.3745 7.53979 21.2884 7.56559 21.2013 7.56676C20.9507 7.57263 20.7001 7.5867 20.4527 7.62891C20.4495 7.62891 20.4441 7.61953 20.4377 7.61132C20.4699 7.54097 20.5076 7.47061 20.5345 7.39674C20.5818 7.26658 20.6259 7.13408 20.6657 7.0004C20.7151 6.83389 20.7453 6.66387 20.742 6.48798C20.7377 6.28043 20.6162 6.11978 20.4312 6.0764C20.3172 6.04943 20.2021 6.05295 20.087 6.0764C19.9719 6.09985 19.888 6.16903 19.8353 6.28043C19.7923 6.37189 19.7525 6.46687 19.717 6.56302C19.5837 6.9148 19.4514 7.26775 19.3212 7.6207C19.2868 7.71451 19.2309 7.77431 19.1395 7.79425C19.1201 7.79894 19.1007 7.80714 19.0803 7.81301C18.7006 7.9162 18.335 8.0616 17.9746 8.22693C17.6735 8.3653 17.3809 8.51774 17.1034 8.70535C16.9098 8.83551 16.7098 8.95629 16.527 9.10286C16.328 9.26351 16.1473 9.44878 15.9591 9.62466C15.7224 9.84511 15.5224 10.1019 15.3492 10.381C15.1793 10.653 15.0352 10.9391 14.9362 11.2557C14.8545 11.5184 14.819 11.7893 14.7932 12.059C14.7717 12.2806 14.7781 12.5081 14.8319 12.7309C14.891 12.9806 14.9599 13.2234 15.1083 13.4286C15.1965 13.5505 15.2933 13.6654 15.3869 13.7815C15.4019 13.8003 15.4224 13.8167 15.4417 13.8308C15.5331 13.8941 15.6213 13.9644 15.7181 14.0184C15.8321 14.0829 15.9537 14.1309 16.0709 14.1884C16.1666 14.2353 16.2624 14.2822 16.357 14.3315C16.4054 14.3573 16.4129 14.3971 16.3914 14.4511C16.3581 14.532 16.3323 14.6164 16.3 14.6985C15.9569 15.5803 15.6106 16.4609 15.318 17.3661C15.1158 17.9911 14.9093 18.6138 14.705 19.2376C14.5576 19.6867 14.4103 20.1358 14.2629 20.5849C14.2522 20.6177 14.236 20.6494 14.2188 20.6904C13.7864 20.538 13.3638 20.3902 12.9432 20.2378C12.7593 20.171 12.5797 20.0924 12.3979 20.0209C12.1172 19.9095 11.8343 19.8039 11.5558 19.6867C11.2933 19.5765 11.0341 19.4545 10.7728 19.3408C10.6157 19.2728 10.4544 19.2118 10.2974 19.1438C10.0704 19.0453 9.84456 18.9421 9.6187 18.8412C9.47135 18.7756 9.31754 18.751 9.15944 18.7662C9.00563 18.7814 8.89162 18.8659 8.81741 19.0124C8.67759 19.288 8.74642 19.6034 8.99703 19.7781C9.13039 19.8708 9.27667 19.9458 9.42187 20.0162C9.94674 20.2706 10.4953 20.4547 11.032 20.6764C11.5106 20.8745 11.9946 21.0575 12.4764 21.2474C12.6485 21.3154 12.8185 21.394 12.9948 21.4456C13.3175 21.5406 13.623 21.6824 13.9274 21.8278C13.936 21.8314 13.9413 21.8431 13.9521 21.856C13.9456 21.8853 13.9392 21.917 13.9306 21.9486C13.8359 22.3004 13.7456 22.6533 13.6456 23.0028C13.467 23.6325 13.282 24.2586 13.1024 24.8883C13.0551 25.0536 13.0142 25.2225 12.9798 25.3925C12.9443 25.5743 13.0357 25.6986 13.2035 25.7091C13.2874 25.7138 13.3681 25.688 13.4315 25.6294C13.4971 25.5672 13.5617 25.4992 13.6122 25.4218C13.7832 25.1604 13.8854 24.859 13.9908 24.5635C14.136 24.1531 14.2608 23.7333 14.4017 23.3217C14.5404 22.916 14.6867 22.5138 14.8308 22.1104C14.8555 22.0413 14.8695 22.0354 14.9405 22.0518C14.9706 22.0588 14.9997 22.0694 15.0298 22.0741C15.2309 22.1057 15.4331 22.1351 15.6342 22.1667C15.7687 22.1878 15.9021 22.2113 16.0354 22.2324C16.0623 22.2371 16.0892 22.2336 16.1161 22.2359C16.2269 22.2429 16.3377 22.2512 16.4613 22.2594C16.4581 22.311 16.4592 22.3403 16.4538 22.3684C16.3818 22.7718 16.3065 23.174 16.1957 23.568C16.1709 23.6559 16.1537 23.7474 16.1451 23.8388C16.1236 24.0429 16.2193 24.1824 16.4011 24.2293C16.4506 24.2422 16.499 24.2598 16.5442 24.2833C16.5915 24.3067 16.6313 24.3032 16.6614 24.2586C16.7119 24.1848 16.7668 24.1132 16.8044 24.0323C16.9163 23.7955 17.0196 23.5539 17.1282 23.3159C17.2798 22.9852 17.4336 22.6569 17.5864 22.3262C17.6208 22.2523 17.638 22.2383 17.7122 22.2429C17.7456 22.2453 17.78 22.2512 17.8133 22.2476C18.036 22.2277 18.2597 22.216 18.4812 22.182C18.8609 22.1233 19.2395 22.06 19.6159 21.9815C19.8891 21.9252 20.1591 21.8489 20.4269 21.768C20.7281 21.6766 21.026 21.5757 21.3218 21.469C21.8724 21.272 22.4296 21.0915 22.9426 20.7866C22.9577 20.7772 22.9738 20.7713 22.9889 20.7631C23.2502 20.64 23.5127 20.5181 23.774 20.3938C24.1924 20.1956 24.5785 19.9329 24.97 19.682C25.0023 19.6621 25.0313 19.6351 25.0582 19.607C25.1765 19.4791 25.2959 19.3537 25.4088 19.2212C25.5583 19.0476 25.6487 18.8366 25.7154 18.6138C25.8251 18.2432 25.795 17.8692 25.7272 17.4939C25.6885 17.2805 25.6046 17.0859 25.5067 16.8994C25.4411 16.774 25.3777 16.645 25.2927 16.5359C25.1561 16.3612 25.0098 16.1959 24.856 16.0399C24.6474 15.83 24.4602 15.5908 24.2021 15.4431C24.1752 15.4278 24.1548 15.4009 24.13 15.3809C24.0666 15.3317 24.0053 15.2789 23.9386 15.2355C23.7633 15.123 23.5879 15.0092 23.4083 14.9049C23.2373 14.8052 23.0652 14.709 22.8878 14.6246C22.4113 14.3983 21.9176 14.2201 21.4164 14.0711C21.0669 13.9668 20.713 13.8765 20.3613 13.7792C20.3301 13.771 20.2989 13.7581 20.2623 13.7463C20.2763 13.7112 20.2849 13.6877 20.2957 13.6654C20.3753 13.4977 20.4602 13.3336 20.5345 13.1624C20.7775 12.596 21.0819 12.0637 21.3089 11.4879C21.3207 11.4574 21.339 11.4293 21.3519 11.4C21.5347 10.9989 21.7219 10.6014 21.8972 10.1969C22.0187 9.91547 22.1607 9.65398 22.3683 9.44057C22.578 9.22481 22.791 9.01374 23.005 8.8015C23.0233 8.78392 23.0534 8.76984 23.0771 8.76984C23.1857 8.77336 23.2932 8.78157 23.4008 8.79212C23.4449 8.79564 23.4868 8.81206 23.5309 8.8144C23.7235 8.82496 23.9171 8.82965 24.1096 8.84137C24.2343 8.84958 24.3602 8.86013 24.4839 8.8789C24.7517 8.92111 25.0206 8.96801 25.2873 9.01726C25.4476 9.04775 25.6089 9.07589 25.7649 9.12397C26.151 9.24357 26.5231 9.40187 26.8684 9.6317C27.0426 9.74779 27.2298 9.83573 27.4255 9.9014C27.546 9.94244 27.6707 9.94478 27.7858 9.89202C27.959 9.81228 28.1182 9.70675 28.2354 9.54024C28.2644 9.4992 28.2902 9.45464 28.3107 9.40891C28.3623 9.28579 28.3752 9.16032 28.3225 9.03368C28.2279 8.80502 28.0762 8.66666 27.8374 8.65962L27.8385 8.65727ZM16.0709 12.555C15.93 12.3861 15.8859 12.1891 15.9246 11.971C15.9849 11.6368 16.1182 11.3367 16.2903 11.0529C16.4065 10.8629 16.5506 10.7011 16.6947 10.5428C16.8518 10.3716 17.0174 10.2063 17.211 10.0773C17.353 9.98348 17.482 9.86622 17.6358 9.79469C17.9219 9.66102 18.2091 9.52734 18.4963 9.39484C18.5522 9.36904 18.6092 9.34911 18.6845 9.31862C18.6759 9.35145 18.6748 9.36552 18.6684 9.37725C18.5189 9.69619 18.3651 10.0128 18.2188 10.3341C18.0618 10.6777 17.909 11.0247 17.7563 11.3718C17.6047 11.7154 17.4595 12.0613 17.3057 12.4025C17.2175 12.5984 17.1174 12.7871 17.0239 12.9795C17.0034 13.0205 16.9765 13.0369 16.9324 13.0299C16.5969 12.9748 16.3032 12.8317 16.0698 12.5538L16.0709 12.555ZM17.7434 18.7662C17.6584 19.0347 17.5778 19.3068 17.4874 19.5729C17.3874 19.8673 17.2798 20.1592 17.1734 20.4512C17.1303 20.5685 17.0841 20.6834 17.0378 20.7983C17.0131 20.8593 16.9884 20.9203 16.9593 20.9789C16.9045 21.0868 16.8916 21.0797 16.7829 21.0516C16.6926 21.0281 16.5947 21.0293 16.5011 21.0317C16.3075 21.0363 16.115 21.0352 15.9236 21C15.8741 20.9906 15.8225 20.9941 15.7719 20.9871C15.7192 20.9789 15.6665 20.9648 15.6138 20.9554C15.5708 20.9484 15.5278 20.9437 15.4837 20.9402C15.3664 20.9308 15.3331 20.9027 15.3213 20.7737C15.3127 20.674 15.3094 20.5743 15.3127 20.4747C15.3266 20.0725 15.3944 19.682 15.5192 19.3033C15.6644 18.8612 15.801 18.4156 15.9494 17.9747C16.072 17.61 16.1989 17.2477 16.3377 16.8901C16.5334 16.3858 16.7378 15.8863 16.9453 15.388C17.0529 15.1288 17.1744 14.8767 17.2938 14.6234C17.3379 14.5308 17.3519 14.5343 17.4401 14.5496C17.624 14.5812 17.8079 14.6105 17.9929 14.634C18.2554 14.6668 18.5189 14.6938 18.7824 14.7243C18.7953 14.7254 18.806 14.7348 18.8276 14.7442C18.8125 14.8099 18.7931 14.872 18.7835 14.9365C18.7544 15.1265 18.7222 15.3153 18.7039 15.5064C18.6759 15.8077 18.5856 16.0903 18.4995 16.3753C18.407 16.6802 18.3113 16.985 18.2156 17.2887C18.0596 17.7812 17.9026 18.2737 17.7466 18.7662H17.7434ZM20.7184 15.0549C20.9249 15.1101 21.1249 15.1968 21.3282 15.2695C21.4186 15.3024 21.5089 15.334 21.5992 15.3657C21.9983 15.5076 22.3769 15.7022 22.7296 15.9438C23.1663 16.2428 23.5933 16.5606 23.9622 16.9581C24.1978 17.2113 24.3935 17.4998 24.5226 17.8363C24.5355 17.8703 24.5463 17.9055 24.557 17.9407C24.5807 18.0146 24.5678 18.0709 24.5269 18.1436C24.3354 18.4813 24.0612 18.7275 23.7858 18.9749C23.5783 19.1614 23.3438 19.3044 23.1169 19.4592C22.7877 19.6843 22.4371 19.8614 22.0832 20.0303C21.9251 20.1053 21.7584 20.1604 21.6003 20.2366C21.1981 20.4301 20.7689 20.5321 20.3484 20.6635C20.0913 20.7432 19.8246 20.7842 19.56 20.8347C19.2589 20.8921 18.9577 20.9449 18.6555 20.9941C18.5318 21.0141 18.4059 21.0199 18.264 21.034C18.2285 21.0399 18.1898 21.0176 18.1553 20.9742C18.0639 20.8581 18.0241 20.7373 18.0575 20.5767C18.1865 19.9634 18.3554 19.3619 18.5253 18.7615C18.6211 18.4226 18.7082 18.0802 18.8125 17.7437C18.9265 17.3755 19.0534 17.0132 19.1782 16.6497C19.3137 16.2545 19.4535 15.8617 19.5912 15.4677C19.6504 15.2988 19.7052 15.1276 19.7654 14.9588C19.7945 14.8767 19.8117 14.865 19.888 14.8802C20.1645 14.9353 20.443 14.9834 20.7162 15.0549H20.7184ZM21.8746 8.77102C21.7692 8.94339 21.7143 9.13804 21.6595 9.33269C21.5734 9.63874 21.4433 9.9225 21.3056 10.2039C21.1142 10.5956 20.9281 10.9896 20.7377 11.3824C20.685 11.4903 20.6237 11.5923 20.5667 11.6978C20.4334 11.9476 20.3043 12.1985 20.1677 12.4459C20.1139 12.5432 20.0472 12.6335 19.9859 12.7262C19.9418 12.7918 19.8902 12.8516 19.8493 12.9197C19.6988 13.1706 19.4858 13.3465 19.2535 13.4966C19.2287 13.513 19.1879 13.513 19.1588 13.5059C19.0889 13.4884 19.0212 13.4696 18.9491 13.4837C18.9201 13.4895 18.8878 13.4813 18.8577 13.4766C18.6135 13.4356 18.3694 13.3957 18.1252 13.35C18.022 13.3312 17.9209 13.2996 17.8047 13.2703C17.8155 13.2316 17.8219 13.2034 17.8316 13.1764C17.9919 12.7567 18.1532 12.3369 18.3124 11.9171C18.4457 11.5653 18.5673 11.2077 18.7125 10.8618C18.8695 10.4889 19.0093 10.1066 19.2008 9.75248C19.3159 9.53907 19.4213 9.31979 19.5277 9.10169C19.5503 9.05596 19.5783 9.0243 19.6235 9.01023C19.7117 8.98443 19.7988 8.9516 19.8891 8.93284C20.1591 8.87772 20.4312 8.84489 20.7055 8.81558C20.9507 8.78978 21.1959 8.75343 21.4422 8.73818C21.5842 8.7288 21.7262 8.73701 21.8735 8.73701C21.8735 8.74756 21.8789 8.76398 21.8735 8.77336L21.8746 8.77102Z" fill="#01615F"/>
</svg>
