<svg width="55" height="32" viewBox="0 0 55 32" fill="none" xmlns="http://www.w3.org/2000/svg">
<path d="M54.5929 17.3912C54.5492 17.2826 54.5387 17.1729 54.5899 17.0632C54.599 17.0425 54.6065 17.0136 54.5929 16.997C54.5281 16.9163 54.5568 16.8315 54.5522 16.7477C54.5326 16.3327 54.51 15.9189 54.4859 15.505C54.4799 15.4005 54.4572 15.297 54.4467 15.1935C54.4316 15.0538 54.4256 14.9131 54.403 14.7734C54.3411 14.3978 54.2688 14.0222 54.2039 13.6466C54.1587 13.3838 54.1195 13.121 54.0728 12.8582C54.0275 12.5954 53.9853 12.3326 53.925 12.0718C53.8707 11.8338 53.7983 11.5969 53.7275 11.361C53.6686 11.1696 53.6038 10.9781 53.5344 10.7888C53.3897 10.3977 53.1454 10.0314 52.9177 9.66201C52.4458 8.89736 51.8834 8.16376 51.2471 7.45602C50.8098 6.96868 50.3318 6.50099 49.8297 6.04469C49.5779 5.81602 49.3155 5.59045 49.0411 5.3742C48.7953 5.18071 48.548 4.98619 48.2646 4.81442C47.9932 4.64991 47.7398 4.47297 47.4639 4.31259C46.7839 3.91837 46.0586 3.56347 45.3017 3.24271C44.8282 3.04198 44.3517 2.84435 43.8722 2.65086C43.438 2.476 42.9977 2.30527 42.5559 2.13972C42.1593 1.99175 41.7552 1.85207 41.3511 1.71238C41.1129 1.63064 40.8747 1.54683 40.6274 1.47958C40.1283 1.34403 39.6217 1.2178 39.1195 1.08846C38.432 0.911525 37.7173 0.795638 37.0071 0.674578C36.1898 0.534893 35.3545 0.454186 34.5206 0.37141C33.7064 0.290703 32.8876 0.229656 32.0644 0.205858C31.4567 0.188268 30.8476 0.172747 30.2399 0.157227C30.2399 0.163435 30.2399 0.170678 30.2399 0.176886C29.7212 0.176886 29.2025 0.167574 28.6838 0.17999C28.1515 0.192406 27.6193 0.219309 27.09 0.252419C26.4839 0.289669 25.8777 0.334161 25.2746 0.389C24.5297 0.456256 23.7879 0.542136 23.052 0.647676C22.087 0.786326 21.125 0.927046 20.1781 1.11536C19.973 1.15675 19.7755 1.21469 19.572 1.25919C19.2583 1.32748 18.9432 1.38956 18.6296 1.45578C18.4109 1.50131 18.1908 1.54476 17.9767 1.59857C17.5831 1.69686 17.1941 1.80344 16.8036 1.90484C16.496 1.98451 16.1838 2.05487 15.8808 2.13972C15.454 2.25871 15.0288 2.38391 14.6082 2.51428C14.2267 2.63327 13.8527 2.76054 13.4773 2.88781C13.3069 2.94575 13.1486 3.02439 12.9737 3.07095C12.7234 3.13717 12.4972 3.23547 12.265 3.32238C11.882 3.46724 11.5126 3.62865 11.1326 3.77765C10.2957 4.10565 9.52373 4.49987 8.76981 4.90755C8.26619 5.17967 7.78519 5.47353 7.30872 5.76739C6.96644 5.97847 6.64226 6.20403 6.32109 6.43063C5.91849 6.7131 5.52193 6.99868 5.15854 7.30495C4.88261 7.53776 4.61271 7.77471 4.34432 8.01166C4.21313 8.12754 4.08798 8.24653 3.96585 8.36759C3.71706 8.61489 3.45318 8.85597 3.23002 9.11361C2.85608 9.54612 2.4957 9.9838 2.17001 10.4349C1.88352 10.8312 1.65584 11.243 1.43569 11.6569C1.27285 11.9632 1.14318 12.2788 1.01652 12.5933C0.910972 12.8541 0.820504 13.1179 0.745112 13.3838C0.680275 13.6146 0.645589 13.8484 0.597338 14.0812C0.585275 14.1392 0.570195 14.1971 0.558133 14.2551C0.535515 14.3678 0.503853 14.4806 0.494806 14.5944C0.466157 14.9783 0.396799 15.3612 0.393784 15.7461C0.393784 15.8837 0.375687 16.0213 0.390765 16.1579C0.437508 16.5614 0.390769 16.966 0.442036 17.3705C0.497825 17.8175 0.466162 18.2697 0.565679 18.7167C0.571711 18.7426 0.565671 18.7684 0.567179 18.7953C0.567179 18.8512 0.567185 18.906 0.573217 18.9619C0.606389 19.2806 0.639562 19.6003 0.677258 19.919C0.704399 20.1467 0.736062 20.3743 0.770743 20.6019C0.850658 21.1058 1.01651 21.5994 1.19896 22.0898C1.36633 22.5399 1.56537 22.9817 1.80813 23.4153C2.00265 23.7619 2.17604 24.1147 2.34944 24.4676C2.49872 24.7738 2.6284 25.0853 2.77767 25.3916C2.98274 25.8127 3.22249 26.2245 3.4954 26.628C3.7261 26.9674 4.00957 27.282 4.34582 27.5748C4.50414 27.7134 4.66699 27.85 4.83285 27.9845C5.04244 28.1542 5.29123 28.296 5.53399 28.4439C5.8823 28.6571 6.23212 28.8671 6.63019 29.0379C6.88049 29.1444 7.1127 29.2707 7.363 29.3772C7.73845 29.5366 8.11541 29.6959 8.51499 29.8273C8.69894 29.8873 8.87837 29.9546 9.05931 30.0198C9.48905 30.1771 9.93989 30.3002 10.3922 30.4202C10.6365 30.4854 10.8778 30.5568 11.1251 30.6116C11.4281 30.6799 11.7387 30.7306 12.0433 30.7958C13.1893 31.039 14.3594 31.219 15.531 31.3939C16.4462 31.5305 17.375 31.6143 18.3024 31.7032C18.6974 31.7405 19.0955 31.7643 19.4935 31.7912C19.7107 31.8057 19.9323 31.8015 20.1479 31.8253C20.454 31.8595 20.7616 31.8626 21.0692 31.876C21.1446 31.8791 21.2215 31.8698 21.2969 31.8719C21.5487 31.876 21.8005 31.8812 22.0508 31.8874C22.0931 31.8885 22.1338 31.8978 22.1745 31.9019C22.2438 31.9102 22.3147 31.9257 22.3826 31.9236C22.5047 31.9185 22.6238 31.8947 22.7459 31.8916C23.1591 31.8833 23.5722 31.8843 23.9854 31.8771C24.4091 31.8698 24.8313 31.8585 25.2535 31.846C25.3952 31.8419 25.537 31.8243 25.6787 31.8171C26.0104 31.7995 26.3436 31.786 26.6754 31.7653C27.0071 31.7446 27.3373 31.7177 27.6675 31.6908C27.8002 31.6805 27.9314 31.665 28.0626 31.6525C28.2646 31.6329 28.4652 31.6101 28.6672 31.5925C28.9266 31.5708 29.1889 31.5584 29.4468 31.5315C30.0197 31.4704 30.5927 31.4042 31.1642 31.339C31.5683 31.2935 31.9724 31.2511 32.3735 31.1973C32.9811 31.1166 33.5843 31.0255 34.1919 30.9438C34.6443 30.8827 35.0996 30.832 35.5535 30.773C35.7586 30.7461 35.9651 30.7172 36.1657 30.6768C36.6407 30.5816 37.1126 30.4802 37.5846 30.3788C37.9253 30.3054 38.2646 30.2298 38.6008 30.1481C38.8331 30.0912 39.0577 30.0188 39.2884 29.9556C39.4075 29.9236 39.5327 29.9008 39.6503 29.8667C40.0755 29.7446 40.5007 29.6214 40.9244 29.4962C41.2335 29.4041 41.5441 29.312 41.8487 29.2106C42.4594 29.0068 43.0655 28.7947 43.6762 28.5878C43.9793 28.4853 44.2854 28.3881 44.5885 28.2846C44.887 28.1832 45.1825 28.0797 45.4766 27.9731C45.7374 27.879 45.9968 27.7828 46.2516 27.6814C46.5034 27.582 46.7582 27.4848 46.9935 27.3689C47.5152 27.1123 47.9947 26.8195 48.4606 26.5152C48.9129 26.2204 49.317 25.8944 49.7573 25.5923C50.2172 25.2757 50.665 24.9508 51.1174 24.63C51.1506 24.6062 51.1807 24.5814 51.2109 24.5566C51.3556 24.4314 51.5034 24.3072 51.6436 24.1799C51.8396 23.9999 52.0311 23.8167 52.2211 23.6336C52.3071 23.5508 52.3915 23.468 52.4684 23.3822C52.7353 23.0883 52.9524 22.7748 53.162 22.4602C53.5148 21.9346 53.7636 21.3821 53.9687 20.8202C54.1165 20.4146 54.2733 20.0111 54.3487 19.5952C54.3999 19.3137 54.4452 19.0312 54.4889 18.7498C54.5025 18.6587 54.507 18.5677 54.513 18.4756C54.5311 18.2314 54.5462 17.9872 54.5658 17.743C54.5688 17.6975 54.5794 17.653 54.5929 17.6085C54.6171 17.5371 54.6231 17.4678 54.5929 17.3954V17.3912ZM4.82381 23.3656C4.81476 23.7112 4.81024 24.0578 4.80571 24.4034C4.80571 24.4345 4.80571 24.4655 4.80571 24.5038C4.73635 24.4914 4.73183 24.4614 4.72128 24.4345C4.55994 24.0589 4.39709 23.6833 4.24028 23.3077C4.15584 23.1069 4.08195 22.9041 4.00655 22.7024C3.99449 22.6703 3.99751 22.6361 3.9945 22.602C4.00505 22.5989 4.01711 22.5958 4.02767 22.5927C4.07742 22.6289 4.13321 22.663 4.17694 22.7034C4.32018 22.8379 4.4574 22.9745 4.59914 23.109C4.64438 23.1514 4.69564 23.1897 4.74842 23.227C4.80571 23.2663 4.82682 23.3097 4.82532 23.3666L4.82381 23.3656ZM7.00564 24.9735C6.99358 24.9891 6.96795 25.0046 6.94382 25.0087C6.88502 25.0191 6.82319 25.0263 6.76137 25.0304C6.55781 25.0418 6.40251 25.1256 6.35426 25.2633C6.32561 25.345 6.30902 25.4309 6.30299 25.5147C6.26982 25.9741 6.23967 26.4335 6.21102 26.8939C6.208 26.9302 6.21705 26.9664 6.21102 27.0016C6.20649 27.0357 6.1899 27.0688 6.17935 27.1019C6.16729 27.1019 6.15523 27.1019 6.14467 27.103C6.12809 27.0885 6.10245 27.0761 6.09491 27.0595C5.96071 26.7946 5.78731 26.539 5.72851 26.2586C5.68026 26.0269 5.64557 25.793 5.6501 25.5581C5.65462 25.375 5.63653 25.1919 5.65312 25.0098C5.66669 24.8639 5.66367 24.719 5.69986 24.5721C5.73906 24.4096 5.71795 24.2399 5.72398 24.0733C5.72398 24.0413 5.72398 24.0102 5.72398 23.9626C5.77072 23.9813 5.80088 23.9885 5.82199 24.002C5.88532 24.0413 5.95317 24.0796 6.00595 24.1251C6.14617 24.2461 6.31807 24.3434 6.49599 24.4365C6.67392 24.5297 6.84279 24.629 7.01469 24.7283C7.05691 24.7531 7.09009 24.7842 7.12477 24.8101C7.08104 24.8711 7.04635 24.9239 7.00564 24.9746V24.9735ZM8.68235 26.7801C8.68235 27.3254 8.68235 27.8697 8.68235 28.415C8.68235 28.447 8.68235 28.4781 8.68235 28.536C8.22699 28.3705 7.85606 28.1718 7.52585 27.9318C7.54545 27.939 7.56656 27.9462 7.58465 27.9545C7.60878 27.9649 7.63139 27.9773 7.65401 27.9887C7.7294 28.028 7.8048 28.0683 7.8832 28.1056C7.92241 28.1232 7.96614 28.1387 8.01137 28.147C8.11692 28.1677 8.15009 28.149 8.1516 28.0725C8.1516 27.8935 8.1516 27.7134 8.14858 27.5344C8.14557 27.1661 8.14406 26.7967 8.13803 26.4283C8.13501 26.2328 8.12596 26.0372 8.11842 25.8417C8.11842 25.8189 8.11843 25.7941 8.10486 25.7744C8.06113 25.7082 8.06415 25.6451 8.10184 25.5757C8.13049 25.5219 8.14858 25.463 8.07168 25.4123C8.05057 25.3978 8.05208 25.3678 8.04001 25.3315C8.14255 25.3429 8.21342 25.3626 8.27976 25.3936C8.36571 25.434 8.45015 25.4785 8.54062 25.5126C8.65672 25.5561 8.6899 25.6182 8.68839 25.7061C8.68236 26.0652 8.68537 26.4242 8.68386 26.7832L8.68235 26.7801ZM11.4643 26.658C11.4357 26.6953 11.3995 26.7325 11.3859 26.7719C11.2924 27.0481 11.1959 27.3244 11.113 27.6017C10.9893 28.0176 10.9305 28.4398 10.8627 28.8609C10.8416 28.9923 10.7828 29.1134 10.6863 29.2489C10.4887 29.1837 10.3063 29.1227 10.1238 29.0616C10.1027 29.0544 10.0846 29.041 10.0635 29.0358C9.90823 29.0016 9.88259 28.923 9.88109 28.8216C9.8645 27.9762 9.84038 27.1319 9.81776 26.2866C9.81625 26.2224 9.80419 26.1583 9.79816 26.0952C9.81776 26.0921 9.83133 26.0869 9.83585 26.089C10.0485 26.1945 10.3078 26.2235 10.543 26.2907C10.8461 26.3766 11.1477 26.4635 11.4492 26.5515C11.4734 26.5587 11.493 26.5742 11.5216 26.5908C11.5005 26.6146 11.4794 26.6353 11.4628 26.657L11.4643 26.658ZM13.5828 27.6431C13.4908 27.7724 13.4335 27.909 13.3943 28.0518C13.2285 28.6726 13.2451 29.2986 13.2541 29.9246C13.2541 29.937 13.2496 29.9494 13.2481 29.9598C13.1938 29.9867 13.1531 29.9618 13.1109 29.9505C12.8545 29.8822 12.5982 29.8128 12.3404 29.7446C12.3012 29.7342 12.2574 29.728 12.2213 29.7135C12.1444 29.6835 12.0855 29.6432 12.078 29.5769C12.0644 29.4497 12.0418 29.3234 12.0373 29.1962C12.0298 29.0006 12.0373 28.805 12.0328 28.6085C12.0267 28.356 12.0855 28.1087 12.1383 27.8604C12.1926 27.5986 12.2725 27.3409 12.3916 27.0885C12.4067 27.0574 12.4233 27.0264 12.4399 26.9964C12.4444 26.9881 12.4565 26.9809 12.4746 26.9643C12.5228 26.9726 12.5786 26.9778 12.6299 26.9912C12.9329 27.0678 13.2345 27.1464 13.5376 27.224C13.5904 27.2375 13.6446 27.2489 13.6989 27.2633C13.7411 27.2747 13.7834 27.2882 13.8286 27.3027C13.7411 27.4216 13.6612 27.5324 13.5813 27.642L13.5828 27.6431ZM16.3331 28.1822C16.2366 28.3053 16.1386 28.4305 16.1039 28.5702C16.0843 28.6498 16.0753 28.7305 16.0723 28.8113C16.0587 29.072 16.0572 29.3327 15.9577 29.5883C15.932 29.6535 15.9305 29.7239 15.9109 29.7911C15.8627 29.9474 15.8084 30.1026 15.6953 30.2453C15.6531 30.3002 15.5943 30.3312 15.4993 30.3188C15.2716 30.2898 15.0349 30.3074 14.8162 30.2391C14.7122 30.206 14.6655 30.1636 14.6639 30.0829C14.6564 29.5511 14.6398 29.0192 14.6368 28.4874C14.6368 28.3187 14.6655 28.149 14.679 27.9804C14.6835 27.9214 14.6835 27.8624 14.682 27.8045C14.679 27.7507 14.7137 27.7217 14.7876 27.7041C14.8584 27.6865 14.9218 27.6565 14.9911 27.6379C15.0424 27.6244 15.1012 27.6141 15.154 27.6182C15.5279 27.6482 15.8943 27.6989 16.2502 27.7859C16.3165 27.8024 16.3874 27.8117 16.4553 27.8252C16.499 27.8345 16.5412 27.8459 16.5985 27.8604C16.5005 27.9794 16.4145 28.0797 16.3331 28.1832V28.1822ZM19.5041 28.3394C19.3307 28.5143 19.1558 28.6892 18.9809 28.864C18.904 28.9406 18.8557 29.0244 18.8542 29.1196C18.8542 29.2013 18.8497 29.2831 18.8482 29.3638C18.8482 29.4517 18.8406 29.5376 18.8135 29.6256C18.7818 29.7301 18.7954 29.8397 18.7758 29.9463C18.7336 30.1853 18.6853 30.4254 18.6341 30.6634C18.6115 30.7679 18.5934 30.772 18.4471 30.7565C18.227 30.7327 18.0038 30.7151 17.7852 30.6851C17.6329 30.6634 17.4851 30.6251 17.3358 30.594C17.2363 30.5723 17.2001 30.5227 17.1926 30.4533C17.1715 30.2619 17.1594 30.0684 17.1112 29.8791C17.0478 29.6235 17.0312 29.3669 17.0192 29.1092C17.0071 28.8816 17.0855 28.6623 17.1443 28.4419C17.1745 28.3312 17.2273 28.2297 17.3253 28.1377C17.372 28.0942 17.3992 28.0404 17.4368 27.9897C17.47 27.9897 17.5047 27.9866 17.5364 27.9897C18.1018 28.059 18.6672 28.1294 19.2327 28.1997C19.302 28.208 19.3729 28.2194 19.4408 28.2329C19.4785 28.2401 19.5131 28.2567 19.5554 28.2722C19.5327 28.3022 19.5207 28.3229 19.5026 28.3405L19.5041 28.3394ZM22.5741 28.5722C22.5695 28.6436 22.5198 28.6974 22.4429 28.7388C22.3087 28.8113 22.173 28.8837 22.0343 28.952C21.9272 29.0047 21.9393 29.0006 21.9483 29.0927C21.9664 29.2748 21.9709 29.4579 21.9724 29.6401C21.9724 29.7642 21.9573 29.8873 21.9543 30.0115C21.9453 30.2754 21.9393 30.5402 21.9347 30.8041C21.9317 30.9293 21.9227 30.9365 21.7357 30.922C21.6588 30.9355 21.5819 30.95 21.505 30.9624C21.4552 30.9707 21.404 30.981 21.3527 30.981C21.1009 30.9831 20.8491 30.9841 20.5958 30.9831C20.549 30.9831 20.5023 30.9759 20.4555 30.9707C20.3907 30.9634 20.3274 30.951 20.2625 30.9469C20.163 30.9407 20.0831 30.9148 20.0545 30.8475C19.9941 30.7079 19.9142 30.5723 19.9172 30.4212C19.9278 30.0063 19.9293 29.5925 19.9308 29.1775C19.9308 29.0834 19.9172 28.9882 19.9067 28.894C19.8931 28.7719 19.9504 28.6623 20.0379 28.5588C20.0906 28.4967 20.1525 28.4388 20.2067 28.3777C20.2414 28.3405 20.2882 28.326 20.3515 28.3311C20.6018 28.3508 20.8521 28.3705 21.1024 28.3901C21.1446 28.3932 21.1868 28.3953 21.2291 28.3974C21.5412 28.4108 21.8548 28.4212 22.1669 28.4388C22.2755 28.445 22.3795 28.4708 22.4866 28.4864C22.5575 28.4967 22.5756 28.5267 22.5725 28.5722H22.5741ZM29.7996 28.6509C29.7182 28.8216 29.6368 28.9892 29.4875 29.1424C29.3578 29.2769 29.3246 29.4404 29.2854 29.5976C29.2523 29.7321 29.2161 29.8667 29.1814 30.0022C29.1739 30.0312 29.1633 30.0612 29.1693 30.0891C29.1889 30.205 29.1573 30.3167 29.1105 30.4275C29.0879 30.4782 29.1286 30.5496 29.0397 30.5785C28.9688 30.6013 28.8843 30.6065 28.8044 30.6147C28.3385 30.6623 27.8741 30.7141 27.4067 30.7544C27.1579 30.7762 26.9046 30.7824 26.6527 30.7896C26.4944 30.7937 26.4718 30.7762 26.4673 30.6654C26.4643 30.5837 26.4748 30.503 26.4733 30.4212C26.4733 30.3468 26.4643 30.2712 26.4613 30.1967C26.4567 30.0363 26.4582 29.877 26.4492 29.7166C26.4447 29.6452 26.4281 29.5738 26.407 29.5045C26.3889 29.4445 26.3316 29.4114 26.2336 29.4124C26.024 29.4145 25.8144 29.4093 25.6063 29.4124C25.4314 29.4155 25.3696 29.4559 25.347 29.5749C25.3379 29.6225 25.3424 29.6721 25.3455 29.7218C25.3485 29.7973 25.35 29.8718 25.359 29.9463C25.3877 30.1791 25.2851 30.4057 25.2761 30.6365C25.2731 30.6954 25.2625 30.7534 25.2535 30.8124C25.2384 30.9117 25.2278 30.92 25.0786 30.9293C24.9323 30.9386 24.7845 30.9407 24.6368 30.9479C24.5659 30.9521 24.4965 30.9614 24.4272 30.9696C24.385 30.9748 24.3443 30.9852 24.302 30.9862C24.0125 30.9945 23.7215 31.0028 23.432 31.0079C23.3069 31.01 23.2888 31.0007 23.2465 30.9169C23.2254 30.8734 23.2119 30.8289 23.1968 30.7844C23.1681 30.6954 23.138 30.6065 23.1123 30.5175C23.0988 30.4699 23.0852 30.4212 23.0837 30.3726C23.0762 29.9774 23.0475 29.5821 23.1093 29.1879C23.1319 29.042 23.1757 28.8982 23.2104 28.7533C23.2254 28.6902 23.242 28.6271 23.2571 28.5671C23.4592 28.5671 23.6476 28.5671 23.8376 28.5671C23.904 28.5671 23.9703 28.5712 24.0367 28.5743C24.3443 28.5878 24.6518 28.6033 24.9594 28.6136C25.1208 28.6188 25.2821 28.6157 25.445 28.6136C25.7194 28.6095 25.9953 28.6043 26.2698 28.5971C26.3663 28.594 26.4597 28.595 26.5366 28.655C26.6211 28.5764 26.7312 28.5826 26.8473 28.5847C26.989 28.5878 27.1307 28.5784 27.2725 28.5733C27.4233 28.5681 27.574 28.5598 27.7263 28.5557C27.8877 28.5515 28.0505 28.5557 28.2119 28.5474C28.3626 28.5402 28.5119 28.5205 28.6627 28.5091C29.0457 28.4801 29.4287 28.4532 29.8117 28.4263C29.8298 28.4253 29.8479 28.4284 29.881 28.4305C29.8509 28.5081 29.8283 28.5805 29.7951 28.6509H29.7996ZM34.1633 28.028C34.1075 28.3425 34.1075 28.6581 34.0879 28.9737C34.0773 29.1268 34.0879 29.2831 34.0411 29.431C33.9944 29.5759 33.9854 29.7208 33.9612 29.8667C33.9567 29.8925 33.9552 29.9184 33.9567 29.9443C33.9612 30.0343 33.9567 30.0446 33.8285 30.0653C33.5089 30.117 33.1907 30.1709 32.868 30.2143C32.2197 30.3012 31.5698 30.3819 30.9184 30.4637C30.6817 30.4937 30.6741 30.4926 30.6319 30.3333C30.5792 30.1284 30.5309 29.9215 30.4962 29.7146C30.4299 29.3224 30.3469 28.9323 30.2489 28.5433C30.2354 28.4895 30.2339 28.4346 30.2278 28.385C30.255 28.3736 30.267 28.3653 30.2791 28.3643C31.5834 28.2318 32.865 28.029 34.1211 27.7517C34.1331 27.7496 34.1482 27.7548 34.1678 27.7579C34.1678 27.849 34.1814 27.94 34.1648 28.028H34.1633ZM38.1877 29.1827C37.7474 29.3348 37.283 29.4393 36.8065 29.519C36.7055 29.5355 36.6075 29.5614 36.5095 29.5873C36.2064 29.6649 35.8988 29.7342 35.5776 29.7704C35.4525 29.7839 35.451 29.7859 35.4193 29.7052C35.2308 29.22 35.0454 28.7337 34.8569 28.2484C34.783 28.0559 34.7076 27.8645 34.6277 27.6565C35.4464 27.4661 36.2546 27.2747 37.0659 27.0905C37.4338 27.0078 37.7836 26.8867 38.1847 26.8401C38.1922 26.9105 38.1967 26.9747 38.2073 27.0378C38.2842 27.4961 38.2616 27.9566 38.2721 28.416C38.2782 28.6312 38.2842 28.8464 38.2963 29.0616C38.2993 29.1237 38.2661 29.1558 38.1877 29.1827ZM38.8587 27.0657C38.8466 27.0388 38.83 27.0171 38.827 26.9943C38.8195 26.9229 38.8165 26.8515 38.815 26.7791C38.8119 26.7129 38.8406 26.6591 38.9537 26.6291C38.9657 26.9995 38.9627 27.0088 38.8587 27.0657ZM42.0206 28.0663C41.7462 28.1563 41.4748 28.2504 41.2004 28.3415C40.8837 28.446 40.5671 28.5515 40.2459 28.6498C40.0559 28.7078 39.8584 28.7523 39.6624 28.803C39.5975 28.7419 39.5809 28.6809 39.5674 28.6209C39.5101 28.3663 39.4543 28.1128 39.4211 27.8552C39.3698 27.4723 39.2824 27.0926 39.2025 26.7118C39.1572 26.4956 39.1557 26.4883 39.4482 26.4056C39.783 26.3104 40.0966 26.1883 40.4103 26.0652C40.7902 25.9172 41.1792 25.7796 41.5652 25.6389C41.5969 25.6275 41.6346 25.6223 41.6829 25.6109C41.7296 25.7268 41.7763 25.8292 41.814 25.9327C42.0176 26.4925 42.1066 27.0626 42.1096 27.6389C42.1096 27.7434 42.1096 27.8479 42.1186 27.9524C42.1247 28.0104 42.0945 28.0425 42.0206 28.0673V28.0663ZM46.0661 25.6026C46.0511 25.8427 46.0616 26.0848 45.9998 26.3249C45.9515 26.5059 45.8204 26.6529 45.6681 26.7946C45.6274 26.8319 45.5625 26.8619 45.5007 26.8836C44.9157 27.0957 44.3246 27.2985 43.7109 27.4692C43.6898 27.4755 43.6657 27.4765 43.6355 27.4817C43.5601 27.401 43.4908 27.3192 43.4591 27.2271C43.3249 26.8329 43.2344 26.4335 43.1952 26.0289C43.1862 25.9389 43.1515 25.8489 43.1334 25.7589C43.0867 25.523 43.0429 25.2871 42.9932 25.0511C42.9826 24.9963 43.0339 24.9746 43.0836 24.9508C43.251 24.8711 43.4244 24.7956 43.5903 24.7128C44.0788 24.4696 44.5734 24.2306 45.0137 23.945C45.2037 23.8219 45.4042 23.706 45.5972 23.585C45.7028 23.5187 45.8008 23.4484 45.9033 23.3801C45.9395 23.3563 45.9802 23.3346 46.0435 23.2973C46.0556 23.3573 46.0707 23.3967 46.0722 23.436C46.0782 23.7195 46.0857 24.004 46.0857 24.2886C46.0857 24.7262 46.0948 25.1639 46.0676 25.6006L46.0661 25.6026ZM49.0336 22.9041C49.0305 23.2073 49.0215 23.5105 49.0155 23.8136C49.0155 23.8302 49.02 23.8499 49.0079 23.8612C48.931 23.9347 48.9627 24.0175 48.9597 24.0982C48.9582 24.153 48.9506 24.2089 48.9401 24.2637C48.9265 24.3341 48.8873 24.4024 48.9325 24.4748C48.9446 24.4945 48.931 24.5297 48.9099 24.5483C48.8511 24.601 48.8375 24.6611 48.833 24.7231C48.827 24.8235 48.7652 24.9021 48.6581 24.9704C48.2691 25.2208 47.8575 25.4526 47.4202 25.6616C47.4021 25.6699 47.3795 25.6751 47.3448 25.6854C47.3418 25.6564 47.3372 25.6347 47.3372 25.614C47.3372 25.2808 47.3342 24.9487 47.3403 24.6155C47.3403 24.5214 47.3659 24.4283 47.378 24.3351C47.3885 24.2441 47.3976 24.153 47.4051 24.062C47.4277 23.7919 47.4503 23.5219 47.4714 23.2518C47.476 23.2001 47.482 23.1473 47.479 23.0956C47.476 23.0397 47.4684 22.9859 47.5091 22.9331C47.5242 22.9145 47.5227 22.8886 47.5227 22.8659C47.5227 22.7448 47.5257 22.6248 47.5227 22.5037C47.5227 22.4623 47.5106 22.4199 47.4895 22.3806C47.4594 22.3257 47.4639 22.2833 47.5272 22.2388C47.868 21.9936 48.2058 21.7453 48.5465 21.5C48.6189 21.4483 48.7003 21.4038 48.7908 21.3479C48.8556 21.5714 48.9446 21.7763 48.9506 21.9915C48.9537 22.0681 48.9944 22.1436 49.0064 22.2212C49.0155 22.2761 49.0019 22.3319 49.0034 22.3868C49.0049 22.4447 49.017 22.5037 49.02 22.5616C49.026 22.6755 49.0351 22.7893 49.0336 22.9031V22.9041ZM51.722 22.2202C51.5969 22.4623 51.4009 22.6786 51.2109 22.8969C51.0073 23.1328 50.7932 23.3635 50.5414 23.5777C50.4977 23.615 50.4615 23.6574 50.4087 23.7091C50.3997 23.6802 50.3906 23.6646 50.3876 23.6481C50.3755 23.5415 50.3665 23.4339 50.3544 23.3273C50.3409 23.2073 50.3182 23.0883 50.3092 22.9683C50.2941 22.7924 50.2911 22.6165 50.276 22.4416C50.267 22.3382 50.2428 22.2347 50.2263 22.1322C50.2127 22.0484 50.2006 21.9636 50.1916 21.8798C50.1735 21.7111 50.1629 21.5414 50.1433 21.3728C50.1101 21.0717 50.074 20.7716 50.0393 20.4705C50.0378 20.4571 50.0393 20.4426 50.0333 20.4322C49.9729 20.3422 50.0257 20.2708 50.1011 20.1994C50.3017 20.0049 50.4992 19.8104 50.6967 19.6148C50.745 19.5672 50.7902 19.5165 50.8354 19.4669C50.9304 19.3623 51.0269 19.2589 51.1219 19.1544C51.1355 19.1564 51.1491 19.1585 51.1641 19.1606C51.1792 19.2465 51.1958 19.3323 51.2109 19.4182C51.2802 19.8031 51.3541 20.188 51.4205 20.574C51.4657 20.8368 51.4913 21.1006 51.5471 21.3614C51.5954 21.5901 51.6708 21.8156 51.7416 22.0422C51.7612 22.1053 51.7552 22.1591 51.7235 22.2212L51.722 22.2202ZM52.2166 12.4371C52.2136 12.7506 52.2226 13.0651 52.1955 13.3776C52.1849 13.507 52.1623 13.6363 52.1563 13.7656C52.1397 14.1257 52.0734 14.4817 52.0055 14.8376C51.9331 15.2235 51.7899 15.5991 51.6331 15.9727C51.4009 16.5273 51.0646 17.0529 50.7058 17.5723C50.3454 18.0928 49.9322 18.5915 49.4754 19.0737C49.1421 19.4275 48.7893 19.7721 48.4033 20.1001C48.1002 20.3557 47.8167 20.6226 47.5106 20.8761C47.2528 21.0893 46.9769 21.2931 46.704 21.4969C46.4823 21.6625 46.2591 21.8291 46.0254 21.9864C45.4057 22.4054 44.795 22.8317 44.1376 23.2249C43.6702 23.5043 43.1952 23.7754 42.6946 24.0247C42.0553 24.3424 41.3979 24.6435 40.7209 24.9228C40.1569 25.1556 39.5644 25.3491 38.9673 25.5375C38.3128 25.7434 37.6419 25.9172 36.9709 26.0931C36.1476 26.3093 35.2987 26.4697 34.4618 26.656C33.5496 26.8588 32.6177 27.0016 31.6859 27.1495C30.748 27.2985 29.7996 27.4041 28.8451 27.4837C28.2073 27.5365 27.565 27.5541 26.9227 27.5706C26.3949 27.5841 25.8672 27.5996 25.3379 27.5996C24.8011 27.5996 24.2628 27.5789 23.726 27.5675C23.3883 27.5603 23.0505 27.5551 22.7128 27.5468C22.6102 27.5437 22.5047 27.5489 22.4082 27.5117C22.3765 27.4993 22.3343 27.4982 22.2966 27.4972C22.0735 27.4899 21.8488 27.491 21.6271 27.4765C21.22 27.4496 20.8129 27.4216 20.4088 27.3792C19.7544 27.312 19.1015 27.2395 18.4516 27.1557C17.9797 27.0947 17.5138 27.0129 17.0463 26.9384C16.7221 26.8867 16.3964 26.836 16.0753 26.777C15.5882 26.687 15.1012 26.597 14.6293 26.4739C14.0955 26.3352 13.5512 26.2152 13.0204 26.0714C12.5349 25.9389 12.0554 25.7941 11.5849 25.6368C11.1703 25.4981 10.7752 25.3336 10.3696 25.1836C9.58706 24.8928 8.88592 24.5224 8.18628 24.1499C7.92392 24.0102 7.68267 23.8519 7.42633 23.705C6.9574 23.437 6.52313 23.1442 6.11903 22.8307C5.69533 22.5027 5.31837 22.1498 4.9399 21.797C4.48152 21.3707 4.0533 20.931 3.66428 20.4736C3.49239 20.2719 3.35215 20.0556 3.21494 19.8404C2.97369 19.4606 2.73998 19.0768 2.57864 18.6763C2.40222 18.2418 2.26048 17.802 2.17303 17.355C2.12779 17.1253 2.06296 16.8977 2.02526 16.668C1.99058 16.4579 1.98153 16.2458 1.95741 16.0347C1.93328 15.8361 1.90313 15.6385 1.87599 15.4398C1.87297 15.4201 1.86694 15.4005 1.86694 15.3818C1.86996 15.0487 1.87448 14.7165 1.879 14.3834C1.879 14.3275 1.87749 14.2726 1.88202 14.2168C1.88805 14.165 1.90162 14.1143 1.91369 14.0636C1.91972 14.0347 1.9378 14.0057 1.93479 13.9778C1.9182 13.7863 1.97098 13.5991 2.03129 13.4159C2.15041 13.0527 2.2816 12.6916 2.42183 12.3326C2.48817 12.1629 2.58466 11.9984 2.6691 11.8318C2.68117 11.8069 2.69926 11.7842 2.71133 11.7593C2.89227 11.3972 3.1486 11.0578 3.38383 10.7133C3.61 10.3822 3.86784 10.0614 4.15584 9.7541C4.41518 9.4768 4.68659 9.20467 4.96253 8.93565C5.24148 8.66352 5.51891 8.38932 5.82651 8.13272C6.17784 7.83783 6.52163 7.53673 6.91517 7.26564C7.2273 7.05145 7.52133 6.82278 7.84099 6.61377C8.15311 6.4089 8.48483 6.21748 8.81204 6.02192C9.00655 5.90604 9.20407 5.79429 9.40461 5.68461C10.047 5.33591 10.7059 5.00171 11.4025 4.70578C11.9197 4.48539 12.4489 4.27741 12.9767 4.07047C13.4034 3.90389 13.8557 3.77455 14.3141 3.65452C14.3428 3.64728 14.3759 3.64625 14.4076 3.64314C14.4152 3.65142 14.4227 3.6597 14.4302 3.66797C14.3775 3.69798 14.3307 3.73316 14.2734 3.75799C14.0291 3.86457 13.7819 3.96907 13.5346 4.07358C13.4456 4.11186 13.3597 4.14911 13.3009 4.21326C13.2692 4.24637 13.2104 4.27017 13.1576 4.2919C12.8364 4.42124 12.5349 4.56817 12.2605 4.742C12.2393 4.75545 12.2167 4.76786 12.1926 4.77821C11.7659 4.97066 11.4025 5.21692 11.018 5.44456C10.6305 5.6753 10.2792 5.93397 9.90672 6.17609C9.43627 6.48237 9.01257 6.81864 8.59792 7.15906C8.25111 7.44464 7.93749 7.74884 7.60577 8.0427C7.26198 8.34793 6.95739 8.6718 6.66487 8.9998C6.23815 9.4768 5.87778 9.97656 5.54304 10.4856C5.37416 10.7443 5.23544 11.0123 5.0922 11.2792C4.94141 11.5617 4.79666 11.8452 4.66096 12.1308C4.57049 12.3202 4.49811 12.5126 4.42272 12.7051C4.31415 12.9824 4.20107 13.2597 4.10457 13.539C4.02616 13.7677 3.96434 13.9984 3.90252 14.2302C3.83768 14.4703 3.76379 14.7103 3.7261 14.9535C3.69293 15.1697 3.65523 15.3891 3.7065 15.6074C3.72308 15.6778 3.75324 15.7471 3.78642 15.8154C3.85427 15.9551 4.01711 16.012 4.21464 16.0213C4.41216 16.0306 4.57802 15.9778 4.68508 15.8568C4.76349 15.7678 4.79063 15.6685 4.81174 15.5681C4.89015 15.2101 4.97157 14.8521 5.04395 14.493C5.12989 14.0585 5.28068 13.6332 5.4586 13.2131C5.76318 12.4909 6.12506 11.7831 6.59852 11.1044C6.80057 10.8157 7.00413 10.527 7.23935 10.2518C7.54394 9.89378 7.81686 9.52439 8.17572 9.18811C8.40039 8.97807 8.59641 8.7525 8.81957 8.54142C9.04122 8.33345 9.27946 8.13375 9.51619 7.93302C9.768 7.71987 10.0213 7.50879 10.2807 7.30082C10.4345 7.17665 10.6003 7.05973 10.7617 6.9397C10.9426 6.80623 11.122 6.66965 11.309 6.54031C11.8202 6.18851 12.3494 5.8512 12.9149 5.54079C13.2903 5.33488 13.6658 5.12794 14.0804 4.96032C14.6006 4.75027 15.1042 4.52057 15.6757 4.37364C15.9335 4.30742 16.1838 4.22671 16.4387 4.15428C16.496 4.13773 16.5548 4.12324 16.6136 4.1129C16.8729 4.06633 17.0946 3.97218 17.2891 3.84801C17.458 3.7404 17.5635 3.60589 17.5997 3.44965C17.6103 3.40412 17.5906 3.35239 17.568 3.3079C17.5122 3.19408 17.4414 3.08233 17.3856 2.96851C17.3464 2.88574 17.36 2.86091 17.4745 2.81745C17.6495 2.75226 17.8259 2.68501 18.0083 2.63224C18.4607 2.50186 18.9191 2.38391 19.394 2.29699C19.4166 2.29285 19.4408 2.28768 19.4619 2.28147C19.7785 2.17697 20.1208 2.13351 20.4571 2.0735C20.8717 1.999 21.2833 1.92036 21.6995 1.85104C22.4987 1.71756 23.2993 1.58408 24.103 1.46199C24.7107 1.3699 25.3274 1.30368 25.9486 1.26643C26.3421 1.24263 26.7312 1.19503 27.1247 1.1702C27.5363 1.14433 27.951 1.13606 28.3641 1.11536C29.2387 1.07087 30.1132 1.07294 30.9893 1.08225C31.2592 1.08535 31.5306 1.08639 31.8005 1.11329C32.0674 1.14019 32.3403 1.14123 32.6102 1.15571C33.3506 1.19607 34.0894 1.24884 34.8207 1.33782C35.3454 1.40197 35.8701 1.46302 36.3873 1.5489C37.2016 1.68341 38.0007 1.85414 38.7923 2.04349C39.6714 2.25353 40.5143 2.51738 41.3421 2.8071C41.8412 2.98197 42.3267 3.17649 42.8077 3.37412C43.248 3.55416 43.6868 3.7404 44.1075 3.94114C44.7091 4.22775 45.2956 4.52885 45.8867 4.82581C46.0088 4.88789 46.1234 4.95721 46.2395 5.0255C46.8186 5.36903 47.384 5.72289 47.8997 6.11401C48.3761 6.47512 48.8285 6.85072 49.2447 7.24391C49.6503 7.62675 50.0302 8.022 50.3378 8.4483C50.3695 8.49176 50.4162 8.53004 50.4509 8.57246C50.5791 8.73595 50.7118 8.8984 50.8309 9.06498C51.0691 9.39609 51.3194 9.72305 51.5004 10.0717C51.6285 10.318 51.7386 10.5684 51.8653 10.8136C51.9497 10.975 51.998 11.1385 52.0221 11.3093C52.0523 11.5296 52.1005 11.75 52.1367 11.9704C52.1473 12.0315 52.1503 12.0946 52.1442 12.1567C52.1367 12.2332 52.1307 12.3057 52.1955 12.374C52.2121 12.3916 52.2106 12.4185 52.2106 12.4402L52.2166 12.4371ZM52.9373 18.8429C52.9313 19.1885 52.865 19.532 52.7881 19.8735C52.7308 20.128 52.6479 20.3795 52.571 20.6319C52.5498 20.7033 52.5091 20.7716 52.4775 20.842L52.4564 20.8389C52.4533 20.8213 52.4488 20.8027 52.4488 20.7851C52.4563 20.4778 52.3674 20.1756 52.3101 19.8735C52.2603 19.6076 52.2302 19.3417 52.2272 19.0747C52.2272 18.9412 52.2468 18.8077 52.2558 18.6743C52.2603 18.6091 52.2558 18.5429 52.2679 18.4797C52.3041 18.3121 52.3282 18.1424 52.3915 17.98C52.5227 17.6396 52.6765 17.3033 52.8228 16.966C52.8378 16.9298 52.8635 16.8967 52.8846 16.8615C52.8966 16.8615 52.9072 16.8635 52.9193 16.8646C52.9298 16.9308 52.9494 16.997 52.9494 17.0632C52.9494 17.6572 52.9494 18.2511 52.9389 18.844L52.9373 18.8429Z" fill="#01615F"/>
<path d="M38.9252 7.79678C38.877 7.79678 38.8302 7.79264 38.782 7.79574C38.4729 7.81851 38.1894 7.75125 37.912 7.67158C37.5516 7.56914 37.1958 7.4605 36.8354 7.36013C36.3649 7.22976 35.8719 7.16044 35.3728 7.10767C35.2039 7.09008 35.032 7.08283 34.8631 7.06421C34.554 7.03006 34.2464 6.98661 33.9358 6.9535C33.6207 6.91935 33.3055 6.89348 32.9904 6.86555C32.912 6.8583 32.8321 6.85934 32.731 6.8552C32.7929 6.76518 32.8426 6.68551 32.8999 6.6079C33.2588 6.11332 33.6523 5.63321 34.0987 5.17277C34.2253 5.0424 34.3459 4.90996 34.4605 4.77338C34.548 4.66887 34.5284 4.60162 34.3912 4.52298C34.3082 4.47538 34.2163 4.43296 34.1198 4.39778C33.9795 4.34604 33.9102 4.35846 33.785 4.43089C33.6297 4.52091 33.5257 4.63783 33.4066 4.74751C33.0975 5.02998 32.8095 5.32073 32.5456 5.6239C32.2485 5.96535 31.9364 6.30267 31.6499 6.64826C31.561 6.75483 31.469 6.78794 31.2956 6.7838C30.9774 6.77656 30.6593 6.79105 30.3411 6.79726C30.222 6.79932 30.1029 6.79726 29.9853 6.8045C29.8631 6.81071 29.7425 6.83347 29.6204 6.8345C29.2691 6.83968 28.9177 6.85209 28.5709 6.88934C28.5664 6.88934 28.5589 6.88107 28.5498 6.87382C28.5951 6.81174 28.6478 6.74966 28.6855 6.68447C28.7519 6.56962 28.8137 6.4527 28.8695 6.33474C28.9388 6.18781 28.9811 6.03778 28.9765 5.88258C28.9705 5.69944 28.8001 5.55768 28.5408 5.5194C28.3809 5.4956 28.2196 5.4987 28.0583 5.5194C27.8969 5.54009 27.7793 5.60114 27.7054 5.69944C27.6451 5.78014 27.5893 5.86395 27.5396 5.9488C27.3526 6.25921 27.1671 6.57066 26.9847 6.8821C26.9364 6.96488 26.858 7.01765 26.7299 7.03524C26.7027 7.03938 26.6756 7.04662 26.6469 7.05179C26.1147 7.14285 25.602 7.27115 25.0969 7.41704C24.6747 7.53914 24.2645 7.67365 23.8755 7.8392C23.6041 7.95405 23.3237 8.06063 23.0673 8.18997C22.7884 8.33172 22.5351 8.4952 22.2712 8.65041C21.9395 8.84493 21.659 9.07153 21.4162 9.31779C21.178 9.55784 20.976 9.81031 20.8372 10.0897C20.7226 10.3215 20.6729 10.5605 20.6367 10.7985C20.6065 10.994 20.6156 11.1947 20.691 11.3913C20.7739 11.6117 20.8704 11.8259 21.0785 12.007C21.2021 12.1146 21.3378 12.216 21.469 12.3184C21.4901 12.335 21.5188 12.3495 21.5459 12.3619C21.6741 12.4178 21.7977 12.4798 21.9334 12.5274C22.0933 12.5843 22.2637 12.6268 22.428 12.6775C22.5622 12.7189 22.6964 12.7602 22.8291 12.8037C22.8969 12.8265 22.9075 12.8616 22.8773 12.9092C22.8306 12.9806 22.7944 13.0551 22.7492 13.1276C22.2682 13.9057 21.7827 14.6827 21.3725 15.4815C21.089 16.033 20.7995 16.5824 20.5131 17.1329C20.3065 17.5292 20.0999 17.9255 19.8933 18.3218C19.8783 18.3507 19.8556 18.3787 19.8315 18.4149C19.2254 18.2804 18.6328 18.15 18.0432 18.0155C17.7854 17.9565 17.5336 17.8872 17.2787 17.8241C16.8852 17.7258 16.4886 17.6327 16.0981 17.5292C15.7302 17.4319 15.3668 17.3243 15.0004 17.224C14.7803 17.1639 14.5541 17.1101 14.3339 17.0501C14.0158 16.9632 13.6991 16.8722 13.3825 16.7832C13.1759 16.7252 12.9603 16.7035 12.7387 16.717C12.523 16.7304 12.3632 16.8049 12.2592 16.9342C12.0631 17.1774 12.1596 17.4557 12.511 17.6099C12.6979 17.6916 12.903 17.7579 13.1066 17.8199C13.8424 18.0445 14.6114 18.2069 15.3638 18.4025C16.0348 18.5773 16.7133 18.7388 17.3888 18.9064C17.6301 18.9664 17.8683 19.0357 18.1156 19.0812C18.5679 19.1651 18.9962 19.2903 19.4229 19.4186C19.435 19.4217 19.4425 19.432 19.4576 19.4434C19.4485 19.4693 19.4395 19.4972 19.4274 19.5251C19.2947 19.8355 19.1681 20.147 19.0278 20.4553C18.7775 21.011 18.5182 21.5635 18.2664 22.1191C18.2 22.265 18.1427 22.414 18.0945 22.5641C18.0447 22.7244 18.1729 22.8341 18.4081 22.8434C18.5257 22.8476 18.6388 22.8248 18.7278 22.7731C18.8198 22.7182 18.9102 22.6582 18.9811 22.5899C19.2208 22.3592 19.3641 22.0933 19.5118 21.8325C19.7154 21.4704 19.8903 21.1 20.0878 20.7368C20.2824 20.3788 20.4874 20.0239 20.6895 19.6679C20.7241 19.6069 20.7438 19.6017 20.8433 19.6162C20.8855 19.6224 20.9262 19.6317 20.9684 19.6358C21.2504 19.6638 21.5339 19.6897 21.8158 19.7176C22.0043 19.7362 22.1913 19.7569 22.3782 19.7755C22.4159 19.7797 22.4536 19.7766 22.4913 19.7786C22.6466 19.7848 22.802 19.7921 22.9754 19.7993C22.9708 19.8449 22.9723 19.8707 22.9648 19.8956C22.8638 20.2515 22.7582 20.6064 22.6029 20.9541C22.5682 21.0317 22.5441 21.1124 22.532 21.1931C22.5019 21.3731 22.6361 21.4962 22.8909 21.5376C22.9603 21.549 23.0281 21.5645 23.0915 21.5852C23.1578 21.6059 23.2136 21.6028 23.2558 21.5635C23.3267 21.4983 23.4036 21.4352 23.4564 21.3638C23.6132 21.1548 23.7579 20.9416 23.9102 20.7316C24.1228 20.4398 24.3384 20.1501 24.5525 19.8583C24.6008 19.7931 24.6249 19.7807 24.729 19.7848C24.7757 19.7869 24.824 19.7921 24.8707 19.789C25.1828 19.7714 25.4965 19.761 25.8071 19.731C26.3393 19.6793 26.8701 19.6234 27.3978 19.5541C27.7808 19.5044 28.1593 19.4372 28.5347 19.3658C28.9569 19.2851 29.3746 19.1961 29.7893 19.1019C30.5613 18.9281 31.3423 18.7688 32.0616 18.4997C32.0827 18.4915 32.1053 18.4863 32.1264 18.4791C32.4928 18.3704 32.8607 18.2628 33.2271 18.1531C33.8137 17.9783 34.355 17.7465 34.9038 17.5251C34.9491 17.5075 34.9898 17.4837 35.0275 17.4588C35.1933 17.3461 35.3607 17.2353 35.519 17.1184C35.7286 16.9653 35.8553 16.779 35.9488 16.5824C36.1026 16.2555 36.0603 15.9254 35.9654 15.5943C35.9111 15.406 35.7935 15.2342 35.6562 15.0697C35.5643 14.959 35.4753 14.8452 35.3562 14.7489C35.1647 14.5948 34.9596 14.4489 34.744 14.3113C34.4515 14.1261 34.1891 13.915 33.8272 13.7846C33.7895 13.7712 33.7609 13.7474 33.7262 13.7298C33.6373 13.6863 33.5513 13.6397 33.4578 13.6015C33.212 13.5021 32.9663 13.4018 32.7145 13.3097C32.4747 13.2217 32.2335 13.1369 31.9847 13.0624C31.3167 12.8627 30.6246 12.7054 29.922 12.574C29.4319 12.4819 28.9358 12.4022 28.4428 12.3164C28.399 12.3091 28.3553 12.2977 28.304 12.2874C28.3236 12.2563 28.3357 12.2357 28.3508 12.216C28.4624 12.068 28.5815 11.9232 28.6855 11.7721C29.0263 11.2723 29.453 10.8026 29.7712 10.2946C29.7878 10.2676 29.8134 10.2428 29.8315 10.2169C30.0878 9.86308 30.3502 9.51232 30.596 9.15534C30.7663 8.90701 30.9654 8.67628 31.2564 8.48796C31.5504 8.29757 31.849 8.11133 32.149 7.92405C32.1747 7.90853 32.2169 7.89611 32.2501 7.89611C32.4023 7.89921 32.5531 7.90646 32.7039 7.91577C32.7657 7.91887 32.8245 7.93336 32.8864 7.93543C33.1563 7.94474 33.4277 7.94888 33.6976 7.95923C33.8725 7.96647 34.0489 7.97578 34.2223 7.99234C34.5977 8.02959 34.9747 8.07098 35.3487 8.11443C35.5733 8.14133 35.7995 8.16617 36.0181 8.20859C36.5594 8.31413 37.0812 8.45381 37.5652 8.65662C37.8094 8.75905 38.0718 8.83665 38.3462 8.8946C38.5151 8.93081 38.69 8.93288 38.8514 8.88632C39.0941 8.81596 39.3173 8.72284 39.4816 8.57591C39.5223 8.5397 39.5585 8.50038 39.5872 8.46002C39.6596 8.35138 39.6776 8.24067 39.6038 8.12892C39.4711 7.92715 39.2585 7.80506 38.9237 7.79885L38.9252 7.79678ZM22.428 11.2361C22.2305 11.0871 22.1687 10.9133 22.2229 10.7208C22.3074 10.426 22.4943 10.1611 22.7356 9.91068C22.8984 9.74305 23.1005 9.60027 23.3026 9.46058C23.5227 9.30951 23.7549 9.16362 24.0263 9.0498C24.2253 8.96703 24.4063 8.86356 24.6219 8.80044C25.023 8.68248 25.4256 8.56453 25.8282 8.44761C25.9066 8.42484 25.9865 8.40725 26.092 8.38035C26.08 8.40932 26.0785 8.42174 26.0694 8.43209C25.8598 8.71353 25.6442 8.99289 25.4392 9.2764C25.219 9.57957 25.0049 9.88584 24.7908 10.1921C24.5782 10.4953 24.3746 10.8005 24.159 11.1016C24.0354 11.2744 23.8951 11.441 23.7639 11.6107C23.7353 11.6469 23.6976 11.6614 23.6358 11.6552C23.1653 11.6066 22.7537 11.4803 22.4265 11.2351L22.428 11.2361ZM24.7727 16.717C24.6536 16.9539 24.5405 17.1939 24.4138 17.4288C24.2736 17.6885 24.1228 17.9462 23.9735 18.2038C23.9132 18.3073 23.8484 18.4087 23.7836 18.5101C23.7489 18.5639 23.7142 18.6177 23.6735 18.6694C23.5966 18.7646 23.5785 18.7584 23.4262 18.7336C23.2995 18.7129 23.1623 18.7139 23.0311 18.716C22.7597 18.7201 22.4898 18.7191 22.2214 18.6881C22.1521 18.6798 22.0797 18.6829 22.0088 18.6767C21.9349 18.6694 21.8611 18.657 21.7872 18.6487C21.7269 18.6425 21.6665 18.6384 21.6047 18.6353C21.4404 18.627 21.3936 18.6022 21.377 18.4884C21.365 18.4004 21.3605 18.3125 21.365 18.2245C21.3846 17.8696 21.4796 17.5251 21.6545 17.1908C21.858 16.8008 22.0495 16.4076 22.2576 16.0185C22.4295 15.6967 22.6074 15.377 22.8019 15.0614C23.0764 14.6165 23.3629 14.1757 23.6539 13.736C23.8047 13.5073 23.975 13.2848 24.1424 13.0613C24.2042 12.9796 24.2238 12.9827 24.3475 12.9962C24.6053 13.0241 24.8632 13.05 25.1225 13.0707C25.4904 13.0996 25.8598 13.1234 26.2293 13.1503C26.2474 13.1514 26.2624 13.1596 26.2926 13.1679C26.2715 13.2259 26.2443 13.2807 26.2308 13.3376C26.1901 13.5052 26.1448 13.6718 26.1192 13.8405C26.08 14.1064 25.9533 14.3558 25.8327 14.6072C25.703 14.8762 25.5688 15.1452 25.4346 15.4132C25.216 15.8478 24.9958 16.2824 24.7772 16.717H24.7727ZM28.9434 13.4421C29.2329 13.4907 29.5133 13.5673 29.7983 13.6315C29.925 13.6604 30.0516 13.6884 30.1783 13.7163C30.7377 13.8415 31.2684 14.0133 31.763 14.2264C32.3752 14.4903 32.9738 14.7707 33.491 15.1214C33.8212 15.3449 34.0956 15.5995 34.2766 15.8964C34.2947 15.9264 34.3097 15.9575 34.3248 15.9885C34.358 16.0537 34.3399 16.1034 34.2826 16.1675C34.0142 16.4655 33.6297 16.6828 33.2437 16.9011C32.9527 17.0656 32.624 17.1919 32.3058 17.3285C31.8444 17.5271 31.3529 17.6834 30.8568 17.8324C30.6352 17.8986 30.4014 17.9472 30.1798 18.0145C29.6159 18.1852 29.0142 18.2752 28.4247 18.3911C28.0643 18.4615 27.6904 18.4977 27.3194 18.5422C26.8972 18.5929 26.475 18.6394 26.0513 18.6829C25.8779 18.7005 25.7015 18.7057 25.5025 18.7181C25.4527 18.7232 25.3984 18.7036 25.3502 18.6653C25.222 18.5629 25.1662 18.4563 25.213 18.3145C25.3939 17.7734 25.6307 17.2426 25.8689 16.7128C26.0031 16.4138 26.1252 16.1117 26.2715 15.8147C26.4313 15.4898 26.6092 15.1701 26.7841 14.8493C26.9741 14.5006 27.1701 14.154 27.3632 13.8063C27.4461 13.6573 27.523 13.5063 27.6074 13.3573C27.6481 13.2848 27.6723 13.2745 27.7793 13.2879C28.1668 13.3366 28.5574 13.379 28.9404 13.4421H28.9434ZM30.5643 7.89714C30.4165 8.04925 30.3396 8.22101 30.2627 8.39277C30.1421 8.66282 29.9596 8.91322 29.7666 9.16155C29.4982 9.50714 29.2374 9.8548 28.9705 10.2014C28.8966 10.2966 28.8107 10.3866 28.7308 10.4798C28.5438 10.7002 28.3628 10.9216 28.1714 11.1399C28.096 11.2258 28.0025 11.3055 27.9165 11.3872C27.8547 11.4451 27.7823 11.4979 27.725 11.5579C27.5139 11.7794 27.2154 11.9346 26.8897 12.067C26.855 12.0815 26.7977 12.0815 26.757 12.0753C26.659 12.0598 26.564 12.0432 26.463 12.0556C26.4223 12.0608 26.377 12.0535 26.3348 12.0494C25.9925 12.0132 25.6503 11.978 25.308 11.9377C25.1632 11.9211 25.0215 11.8932 24.8586 11.8673C24.8737 11.8332 24.8828 11.8083 24.8963 11.7845C25.121 11.4141 25.3472 11.0437 25.5703 10.6733C25.7573 10.3628 25.9277 10.0473 26.1313 9.74202C26.3514 9.41298 26.5474 9.07567 26.8158 8.76319C26.9771 8.57487 27.1249 8.38139 27.2742 8.18893C27.3059 8.14858 27.3451 8.12064 27.4084 8.10822C27.532 8.08546 27.6542 8.05649 27.7808 8.03993C28.1593 7.9913 28.5408 7.96233 28.9253 7.93646C29.2691 7.9137 29.6128 7.88162 29.9581 7.86817C30.1572 7.85989 30.3562 7.86714 30.5628 7.86714C30.5628 7.87645 30.5703 7.89094 30.5628 7.89921L30.5643 7.89714Z" fill="#01615F"/>
</svg>
