<svg width="93" height="94" viewBox="0 0 93 94" fill="none" xmlns="http://www.w3.org/2000/svg">
<circle cx="46.3011" cy="47.0291" r="46.2" fill="#01615F"/>
<path d="M51.8156 55.4693H40.7926C40.7926 54.3013 40.744 52.7926 40.6466 50.9433C40.5493 49.0453 40.4033 47.0013 40.2086 44.8113C40.0626 42.5726 39.9166 40.3826 39.7706 38.2413C39.6246 36.0513 39.503 34.0316 39.4056 32.1823C39.3083 30.333 39.2596 28.8486 39.2596 27.7293V22.6193H53.3486V27.7293C53.3486 28.8486 53.3 30.333 53.2026 32.1823C53.1053 34.0316 52.9836 36.0513 52.8376 38.2413C52.6916 40.4313 52.5213 42.6213 52.3266 44.8113C52.1806 47.0013 52.059 49.0453 51.9616 50.9433C51.8643 52.7926 51.8156 54.3013 51.8156 55.4693ZM52.5456 71.5293H40.0626V59.6303H52.5456V71.5293Z" fill="#F6F6F6"/>
</svg>
