<svg width="25" height="24" viewBox="0 0 25 24" fill="none" xmlns="http://www.w3.org/2000/svg">
<path d="M11.1416 2H9.1416C4.1416 2 2.1416 4 2.1416 9V15C2.1416 20 4.1416 22 9.1416 22H15.1416C20.1416 22 22.1416 20 22.1416 15V13" stroke="#01615F" stroke-width="2" stroke-linecap="round" stroke-linejoin="round"/>
<path d="M16.1815 3.02025L8.30148 10.9003C8.00148 11.2003 7.70148 11.7903 7.64148 12.2203L7.21148 15.2303C7.05148 16.3203 7.82148 17.0803 8.91148 16.9303L11.9215 16.5003C12.3415 16.4403 12.9315 16.1403 13.2415 15.8403L21.1215 7.96025C22.4815 6.60025 23.1215 5.02025 21.1215 3.02025C19.1215 1.02025 17.5415 1.66025 16.1815 3.02025Z" stroke="#01615F" stroke-width="2" stroke-miterlimit="10" stroke-linecap="round" stroke-linejoin="round"/>
<path d="M15.0515 4.15039C15.7215 6.54039 17.5915 8.41039 19.9915 9.09039" stroke="#01615F" stroke-width="2" stroke-miterlimit="10" stroke-linecap="round" stroke-linejoin="round"/>
</svg>
