<svg width="26" height="26" viewBox="0 0 26 26" fill="none" xmlns="http://www.w3.org/2000/svg">
<path d="M20.0033 25.4484C19.385 25.4484 18.5917 25.25 17.6 24.6667L14.1117 22.6017C13.75 22.3917 13.05 22.3917 12.7 22.6017L9.19999 24.6667C7.13499 25.8917 5.92166 25.4017 5.37332 25.005C4.83666 24.6084 3.99666 23.5934 4.54499 21.26L5.37332 17.6784C5.46666 17.305 5.27999 16.6634 4.99999 16.3834L2.10666 13.49C0.659989 12.0434 0.776656 10.8067 0.974989 10.2C1.17332 9.59337 1.80332 8.52004 3.80999 8.18171L7.53166 7.56337C7.88166 7.50504 8.38332 7.13171 8.53499 6.81671L10.6 2.69837C11.5333 0.820039 12.7583 0.540039 13.4 0.540039C14.0417 0.540039 15.2667 0.820039 16.2 2.69837L18.2533 6.80504C18.4167 7.12004 18.9183 7.49337 19.2683 7.55171L22.99 8.17004C25.0083 8.50837 25.6383 9.58171 25.825 10.1884C26.0117 10.795 26.1283 12.0317 24.6933 13.4784L21.8 16.3834C21.52 16.6634 21.345 17.2934 21.4267 17.6784L22.255 21.26C22.7917 23.5934 21.9633 24.6084 21.4267 25.005C21.135 25.215 20.6683 25.4484 20.0033 25.4484ZM13.4 20.6884C13.9717 20.6884 14.5433 20.8284 14.9983 21.0967L18.4867 23.1617C19.5017 23.7684 20.1433 23.7684 20.3883 23.5934C20.6333 23.4184 20.8083 22.8 20.5517 21.6567L19.7233 18.075C19.5017 17.1067 19.8633 15.8584 20.5633 15.1467L23.4567 12.2534C24.0283 11.6817 24.285 11.1217 24.1683 10.7367C24.04 10.3517 23.5033 10.0367 22.71 9.90837L18.9883 9.29004C18.09 9.13837 17.11 8.41504 16.7017 7.59837L14.6483 3.49171C14.275 2.74504 13.8083 2.30171 13.4 2.30171C12.9917 2.30171 12.525 2.74504 12.1633 3.49171L10.0983 7.59837C9.68999 8.41504 8.70999 9.13837 7.81166 9.29004L4.10166 9.90837C3.30832 10.0367 2.77166 10.3517 2.64332 10.7367C2.51499 11.1217 2.78332 11.6934 3.35499 12.2534L6.24832 15.1467C6.94832 15.8467 7.30999 17.1067 7.08832 18.075L6.25999 21.6567C5.99166 22.8117 6.17832 23.4184 6.42332 23.5934C6.66832 23.7684 7.29832 23.7567 8.32499 23.1617L11.8133 21.0967C12.2567 20.8284 12.8283 20.6884 13.4 20.6884Z" fill="#01615F"/>
</svg>
