<svg width="17" height="17" viewBox="0 0 17 17" fill="none" xmlns="http://www.w3.org/2000/svg">
<path d="M10.2011 3.16217V5.69551H9.20111V3.16217C9.20111 2.98217 9.04111 2.89551 8.93444 2.89551C8.90111 2.89551 8.86777 2.90217 8.83444 2.91551L3.54777 4.90884C3.19444 5.04217 2.96777 5.37551 2.96777 5.75551V6.20217C2.36111 6.65551 1.96777 7.38217 1.96777 8.20217V5.75551C1.96777 4.96217 2.45444 4.25551 3.19444 3.97551L8.48777 1.97551C8.63444 1.92217 8.78777 1.89551 8.93444 1.89551C9.60111 1.89551 10.2011 2.43551 10.2011 3.16217Z" fill="#01615F"/>
<path d="M14.6339 10.1956V10.8623C14.6339 11.0423 14.4939 11.189 14.3072 11.1956H13.3339C12.9806 11.1956 12.6606 10.9356 12.6339 10.589C12.6139 10.3823 12.6939 10.189 12.8272 10.0556C12.9472 9.92897 13.1139 9.8623 13.2939 9.8623H14.3006C14.4939 9.86897 14.6339 10.0156 14.6339 10.1956Z" fill="#01615F"/>
<path d="M13.2878 9.16296H13.9678C14.3344 9.16296 14.6344 8.86296 14.6344 8.49629V8.20296C14.6344 6.82296 13.5078 5.69629 12.1278 5.69629H4.47444C3.90777 5.69629 3.38777 5.88296 2.96777 6.20296C2.36111 6.65629 1.96777 7.38296 1.96777 8.20296V12.6896C1.96777 14.0696 3.09444 15.1963 4.47444 15.1963H12.1278C13.5078 15.1963 14.6344 14.0696 14.6344 12.6896V12.563C14.6344 12.1963 14.3344 11.8963 13.9678 11.8963H13.3878C12.7478 11.8963 12.1344 11.503 11.9678 10.883C11.8278 10.3763 11.9944 9.88962 12.3278 9.56296C12.5744 9.30962 12.9144 9.16296 13.2878 9.16296ZM9.63444 9.02962H4.96777C4.69444 9.02962 4.46777 8.80296 4.46777 8.52962C4.46777 8.25629 4.69444 8.02962 4.96777 8.02962H9.63444C9.90777 8.02962 10.1344 8.25629 10.1344 8.52962C10.1344 8.80296 9.90777 9.02962 9.63444 9.02962Z" fill="#01615F"/>
</svg>
