<svg width="25" height="25" viewBox="0 0 25 25" fill="none" xmlns="http://www.w3.org/2000/svg">
<g id="vuesax/twotone/eye-slash">
<g id="eye-slash">
<path id="Vector" d="M14.8899 9.99934L9.82991 15.0593C9.17991 14.4093 8.77991 13.5193 8.77991 12.5293C8.77991 10.5493 10.3799 8.94934 12.3599 8.94934C13.3499 8.94934 14.2399 9.34934 14.8899 9.99934Z" stroke="#252525" stroke-width="1.5" stroke-linecap="round" stroke-linejoin="round"/>
<path id="Vector_2" d="M18.1798 6.29928C16.4298 4.97928 14.4298 4.25928 12.3598 4.25928C8.82983 4.25928 5.53983 6.33928 3.24983 9.93928C2.34983 11.3493 2.34983 13.7193 3.24983 15.1293C4.03983 16.3693 4.95983 17.4393 5.95983 18.2993" stroke="#252525" stroke-width="1.5" stroke-linecap="round" stroke-linejoin="round"/>
<path id="Vector_3" opacity="0.4" d="M8.77991 20.0594C9.91991 20.5394 11.1299 20.7994 12.3599 20.7994C15.8899 20.7994 19.1799 18.7194 21.4699 15.1194C22.3699 13.7094 22.3699 11.3394 21.4699 9.92935C21.1399 9.40935 20.7799 8.91935 20.4099 8.45935" stroke="#252525" stroke-width="1.5" stroke-linecap="round" stroke-linejoin="round"/>
<path id="Vector_4" opacity="0.4" d="M15.8698 13.2292C15.6098 14.6392 14.4598 15.7892 13.0498 16.0492" stroke="#252525" stroke-width="1.5" stroke-linecap="round" stroke-linejoin="round"/>
<path id="Vector_5" d="M9.82986 15.0593L2.35986 22.5293" stroke="#252525" stroke-width="1.5" stroke-linecap="round" stroke-linejoin="round"/>
<path id="Vector_6" d="M22.3599 2.5293L14.8899 9.9993" stroke="#252525" stroke-width="1.5" stroke-linecap="round" stroke-linejoin="round"/>
</g>
</g>
</svg>
