<svg width="25" height="25" viewBox="0 0 25 25" fill="none" xmlns="http://www.w3.org/2000/svg">
<path opacity="0.4" d="M15.5975 12.0292C15.5975 14.0092 13.9975 15.6092 12.0175 15.6092C10.0375 15.6092 8.4375 14.0092 8.4375 12.0292C8.4375 10.0492 10.0375 8.44922 12.0175 8.44922C13.9975 8.44922 15.5975 10.0492 15.5975 12.0292Z" stroke="#252525" stroke-width="1.5" stroke-linecap="round" stroke-linejoin="round"/>
<path d="M12.0174 20.299C15.5474 20.299 18.8374 18.219 21.1274 14.619C22.0274 13.209 22.0274 10.839 21.1274 9.42902C18.8374 5.82902 15.5474 3.74902 12.0174 3.74902C8.48742 3.74902 5.19742 5.82902 2.90742 9.42902C2.00742 10.839 2.00742 13.209 2.90742 14.619C5.19742 18.219 8.48742 20.299 12.0174 20.299Z" stroke="#252525" stroke-width="1.5" stroke-linecap="round" stroke-linejoin="round"/>
</svg>
