<svg width="34" height="34" viewBox="0 0 34 34" fill="none" xmlns="http://www.w3.org/2000/svg">
<rect width="34" height="34" rx="6" fill="#01615F" fill-opacity="0.1"/>
<path d="M21 23.4297H17L12.55 26.3897C11.89 26.8297 11 26.3598 11 25.5598V23.4297C8 23.4297 6 21.4297 6 18.4297V12.4297C6 9.42969 8 7.42969 11 7.42969H21C24 7.42969 26 9.42969 26 12.4297V18.4297C26 21.4297 24 23.4297 21 23.4297Z" stroke="#01615F" stroke-width="1.5" stroke-miterlimit="10" stroke-linecap="round" stroke-linejoin="round"/>
<path d="M16.0001 16.3604V16.1504C16.0001 15.4704 16.4201 15.1104 16.8401 14.8204C17.2501 14.5404 17.66 14.1804 17.66 13.5204C17.66 12.6004 16.9201 11.8604 16.0001 11.8604C15.0801 11.8604 14.3401 12.6004 14.3401 13.5204" stroke="#01615F" stroke-width="1.5" stroke-linecap="round" stroke-linejoin="round"/>
<path d="M15.9955 18.75H16.0045" stroke="#01615F" stroke-width="1.5" stroke-linecap="round" stroke-linejoin="round"/>
</svg>
