<svg width="52" height="52" viewBox="0 0 52 52" fill="none" xmlns="http://www.w3.org/2000/svg">
<path d="M25.828 51.2078C39.9665 51.2078 51.428 39.7463 51.428 25.6078C51.428 11.4693 39.9665 0.0078125 25.828 0.0078125C11.6895 0.0078125 0.228027 11.4693 0.228027 25.6078C0.228027 39.7463 11.6895 51.2078 25.828 51.2078Z" fill="#104D4D"/>
<path d="M31.915 27.2641L32.7272 22.1534H27.6537V18.8412C27.6537 17.4411 28.36 16.0753 30.6319 16.0753H32.9391V11.7272C32.9391 11.7272 30.8438 11.3857 28.8426 11.3857C24.6637 11.3857 21.9327 13.8329 21.9327 18.2607V22.1534H17.2947V27.2641H21.9327V39.6139C22.8626 39.7505 23.8161 39.8302 24.7932 39.8302C25.7702 39.8302 26.7237 39.7619 27.6537 39.6139V27.2641H31.915Z" fill="#BDFFE1"/>
</svg>
