<svg width="12" height="17" viewBox="0 0 12 17" fill="none" xmlns="http://www.w3.org/2000/svg">
<path fill-rule="evenodd" clip-rule="evenodd" d="M6.71458 11.8373V12.9358H7.44452C7.93835 12.9358 8.3388 13.3363 8.3388 13.8301C8.3388 14.3239 7.93835 14.7244 7.44452 14.7244H6.71458V15.5549C6.71458 16.0488 6.31413 16.4493 5.8203 16.4493C5.32648 16.4493 4.92602 16.0488 4.92602 15.5549V14.7244H4.19581C3.70214 14.7244 3.30153 14.3238 3.30153 13.8301C3.30153 13.3364 3.70214 12.9358 4.19581 12.9358H4.92602V11.8373C2.21284 11.4047 0.170776 9.04696 0.170776 6.25878C0.170776 3.14341 2.7049 0.609253 5.8203 0.609253C8.93568 0.609253 11.47 3.14337 11.47 6.25878C11.47 9.04702 9.42786 11.4047 6.71458 11.8373ZM1.95921 6.25878C1.95921 8.38744 3.69168 10.1197 5.82027 10.1197C7.94896 10.1197 9.68134 8.3875 9.68134 6.25878C9.68134 4.13006 7.94893 2.39784 5.82027 2.39784C3.69171 2.39784 1.95921 4.13013 1.95921 6.25878Z" fill="#868787"/>
</svg>
