<svg width="25" height="24" viewBox="0 0 25 24" fill="none" xmlns="http://www.w3.org/2000/svg">
<path d="M3.50505 10.7433L3.50506 10.7433L3.50215 10.7395C2.99655 10.0895 2.75386 9.2424 2.83673 8.35146L3.10498 5.61928C3.30967 4.18167 3.71523 3.31978 4.28707 2.8024C4.85447 2.28904 5.71351 2 7.09014 2H9.49014H10.9701H14.0101H15.4901H17.8501C19.2213 2 20.0817 2.28886 20.6497 2.80002C21.2214 3.31442 21.6262 4.16951 21.8256 5.59094L22.1136 8.34178C22.1137 8.3428 22.1138 8.34381 22.1139 8.34483C22.1963 9.20911 21.9706 10.0293 21.4901 10.67L21.49 10.6699L21.4818 10.6813C20.8812 11.5142 19.9138 12 18.8101 12C17.8142 12 16.838 11.5071 16.2022 10.6895L15.5739 9.88185L14.9928 10.7241C14.4459 11.5167 13.549 12 12.5001 12C11.4569 12 10.5314 11.4918 9.99227 10.6911L9.40409 9.81751L8.77085 10.6591C8.14592 11.4896 7.15369 12 6.14014 12C5.06097 12 4.11579 11.5389 3.50505 10.7433Z" fill="#01615F" stroke="#01615F" stroke-width="1.5"/>
<path d="M11.9265 17.4063L11.928 17.4062C12.9767 17.2968 13.6277 17.4856 14.0056 17.7903C14.3652 18.0803 14.6244 18.5955 14.6201 19.4967H14.6201V19.5002V21.6302H10.3701V19.1502C10.3701 18.2479 11.046 17.4965 11.9265 17.4063Z" fill="#01615F" stroke="#01615F" stroke-width="1.5"/>
<path d="M4.2197 14.1871L4.21966 14.1872L4.23271 14.1916C4.53159 14.2912 4.84339 14.3732 5.17485 14.4213C5.28083 14.4389 5.4414 14.4648 5.60909 14.4694C5.78569 14.4898 5.96267 14.5001 6.13988 14.5001C7.2798 14.5001 8.39311 14.1425 9.33144 13.5184C10.2455 14.1453 11.3479 14.5001 12.4999 14.5001C13.6562 14.5001 14.7471 14.1618 15.6607 13.5364C16.5925 14.1499 17.6872 14.5001 18.8099 14.5001C19.0123 14.5001 19.2171 14.4891 19.4144 14.4665C19.5255 14.4572 19.6569 14.4454 19.7946 14.4214C20.1656 14.3715 20.4948 14.2656 20.7589 14.1807L20.7794 14.1741L20.7794 14.1742L20.7903 14.1705C20.958 14.1137 21.1199 14.2376 21.1199 14.4001V17.3801C21.1199 19.6386 19.3548 21.4877 17.1299 21.6222V19.5001C17.1299 18.0652 16.6879 16.8396 15.7324 15.9833C14.8898 15.2174 13.7824 14.8801 12.5199 14.8801C12.25 14.8801 11.9727 14.8909 11.6707 14.9243C9.50625 15.1451 7.86988 16.9696 7.86988 19.1501V21.6222C5.645 21.4877 3.87988 19.6386 3.87988 17.3801V14.4201C3.87988 14.2521 4.04422 14.125 4.2197 14.1871Z" fill="#01615F" stroke="#01615F" stroke-width="1.5"/>
</svg>
