<svg width="24" height="24" viewBox="0 0 13 12" fill="none" xmlns="http://www.w3.org/2000/svg">
<path d="M7.03298 1.75531L7.91298 3.51531C8.03298 3.76031 8.35298 3.99531 8.62298 4.04031L10.218 4.30531C11.238 4.47531 11.478 5.21531 10.743 5.94531L9.50298 7.18531C9.29298 7.39531 9.17798 7.80031 9.24298 8.09031L9.59798 9.62531C9.87798 10.8403 9.23298 11.3103 8.15798 10.6753L6.66298 9.79031C6.39298 9.63031 5.94798 9.63031 5.67298 9.79031L4.17798 10.6753C3.10798 11.3103 2.45798 10.8353 2.73798 9.62531L3.09298 8.09031C3.15798 7.80031 3.04298 7.39531 2.83298 7.18531L1.59298 5.94531C0.862984 5.21531 1.09798 4.47531 2.11798 4.30531L3.71298 4.04031C3.97798 3.99531 4.29798 3.76031 4.41798 3.51531L5.29798 1.75531C5.77798 0.800313 6.55798 0.800313 7.03298 1.75531Z" stroke="#01615F"  fill="#01615F"/>
</svg>
