<svg width="40" height="40" viewBox="0 0 40 40" fill="none" xmlns="http://www.w3.org/2000/svg">
<rect width="40" height="40" rx="20" fill="#01615F"/>
<path fill-rule="evenodd" clip-rule="evenodd" d="M23.8381 17.1149C23.5522 17.2653 23.2576 17.399 22.9558 17.5152C22.7668 17.5765 22.5716 17.6174 22.3736 17.6371C21.4914 17.7241 20.6974 17.5674 19.8945 17.7241C19.4817 17.8087 19.0892 17.9712 18.7388 18.2027C18.2418 18.534 17.8478 18.995 17.6008 19.5343C17.3695 20.0571 17.2696 20.6274 17.3097 21.1965C17.3309 21.6003 17.4358 21.9954 17.6179 22.3577C17.7999 22.7199 18.0554 23.0415 18.3683 23.3025C18.3154 23.4766 18.2448 23.6507 18.2007 23.8334C18.1683 23.9096 18.1677 23.9954 18.1991 24.072C18.2305 24.1486 18.2913 24.2099 18.3683 24.2424C18.4469 24.2716 18.5338 24.2697 18.611 24.2373C18.6882 24.2049 18.7498 24.1444 18.783 24.0684C18.8624 23.9204 18.977 23.816 19.0653 23.6768C19.6763 23.7854 20.2984 23.8204 20.9179 23.7812C21.2166 23.7587 21.5122 23.7062 21.8001 23.6246C22.416 23.4638 22.9864 23.1661 23.4675 22.7543C23.9535 22.3201 24.3103 21.7635 24.4997 21.1443C24.8173 20.0912 24.6056 16.6885 23.8381 17.1149ZM23.3793 20.7613C23.1805 21.275 22.8562 21.7324 22.4353 22.0929C22.1427 22.3403 21.816 22.5454 21.4649 22.7021C21.182 22.8204 20.8859 22.9051 20.5827 22.9544C20.2613 23.0064 19.9374 23.0413 19.6122 23.0589C19.548 23.0653 19.4868 23.0894 19.4358 23.1285C19.5946 22.9283 19.7357 22.7021 19.8945 22.5106L20.4239 21.884C20.6003 21.6838 20.7768 21.475 20.962 21.2748C21.3972 20.7878 21.869 20.334 22.3736 19.9172C22.4522 19.8656 22.5073 19.7858 22.5271 19.6948C22.5468 19.6037 22.5298 19.5086 22.4794 19.4298C22.4256 19.3517 22.3431 19.2971 22.2493 19.2776C22.1556 19.2582 22.0578 19.2753 21.9766 19.3254C21.3498 19.6437 20.7584 20.0258 20.2121 20.4655C19.9737 20.6645 19.7497 20.8796 19.5417 21.1095C19.3368 21.3421 19.1538 21.5926 18.9947 21.8579C18.8777 22.0627 18.7745 22.2749 18.6859 22.4932C18.4402 22.0991 18.3203 21.6412 18.3418 21.1791C18.3659 20.8612 18.4434 20.5494 18.5712 20.2566C18.7471 19.8167 19.0549 19.4402 19.4534 19.1774C19.7592 18.9672 20.1089 18.8274 20.4768 18.7684C21.1473 18.6466 21.8442 18.664 22.55 18.516C22.8083 18.4582 23.0597 18.3736 23.2999 18.2637C23.4322 18.2027 23.5646 18.1157 23.6969 18.0374C23.8363 18.9571 23.7268 19.8969 23.3793 20.7613Z" fill="#F6F6F6"/>
<path fill-rule="evenodd" clip-rule="evenodd" d="M29.5818 15.879C30.0828 15.2003 30.3877 14.4002 30.464 13.5641C30.4772 13.3961 30.4772 13.2273 30.464 13.0593C30.4453 12.8888 30.4129 12.72 30.367 12.5545C30.264 12.1227 30.0266 11.7336 29.688 11.4417C29.3494 11.1498 28.9266 10.9699 28.479 10.9271C27.9043 10.9135 27.3339 11.0276 26.8101 11.2612C26.2862 11.4947 25.8224 11.8416 25.453 12.2761C25.4183 12.3044 25.3902 12.3396 25.3703 12.3795C25.3505 12.4194 25.3395 12.463 25.3381 12.5073C25.3366 12.5517 25.3448 12.5959 25.3619 12.637C25.3791 12.678 25.4049 12.715 25.4377 12.7454C25.4705 12.7759 25.5094 12.7991 25.552 12.8136C25.5945 12.8281 25.6397 12.8335 25.6846 12.8294C25.7294 12.8253 25.7728 12.8119 25.812 12.7901C25.8512 12.7682 25.8852 12.7383 25.9118 12.7025C26.4719 12.2066 27.189 11.9175 27.9409 11.8844C28.2391 11.861 28.5354 11.9491 28.7708 12.1313C29.0062 12.3135 29.1635 12.5765 29.2113 12.8678L29.2642 13.4944C29.2251 14.1359 29.0185 14.7565 28.6643 15.2959C28.3943 15.72 28.0936 16.1243 27.7644 16.5056C27.5615 15.6353 27.3321 14.765 27.0587 13.8948C27.0397 13.8141 26.9892 13.7441 26.9181 13.7001C26.847 13.656 26.7612 13.6416 26.6793 13.6598C26.6292 13.6717 26.5832 13.6965 26.546 13.7317C26.5088 13.7668 26.4818 13.8111 26.4676 13.86C26.1147 13.86 25.7618 13.86 25.4089 13.799C25.056 13.7381 24.5267 13.6946 24.068 13.6424C24.0813 13.4366 24.0813 13.2302 24.068 13.0245C23.9947 12.3659 23.7517 11.7367 23.3622 11.1969C22.9443 10.6287 22.3838 10.1775 21.7358 9.88759C21.0877 9.59769 20.3743 9.47907 19.6657 9.54339C18.9526 9.63573 18.2825 9.93225 17.7384 10.3963C17.1944 10.8603 16.8001 11.4715 16.6044 12.1542C16.4488 12.6802 16.3686 13.225 16.3662 13.7729V13.9383L15.1576 14.1123C15.1158 14.1146 15.075 14.1249 15.0373 14.1427C14.9996 14.1606 14.9659 14.1856 14.938 14.2163C14.9101 14.247 14.8887 14.2828 14.8749 14.3218C14.8611 14.3607 14.8552 14.4019 14.8576 14.443C14.8576 14.443 14.8576 14.443 14.8576 14.5127C14.8576 14.5823 14.787 14.5736 14.7694 14.6171C14.6459 15.1132 14.4959 15.6353 14.3548 16.1314C14.0372 17.2975 13.7813 18.4811 13.4725 19.6125C13.2961 20.2304 13.1197 20.8483 12.9785 21.4749C12.8726 21.8926 12.7932 22.3451 12.7227 22.7542L12.3962 25.4172C12.3192 25.8079 12.2691 26.2034 12.2463 26.6008C12.2539 26.8389 12.3109 27.0729 12.4139 27.2883C12.603 27.6435 12.9165 27.9188 13.2961 28.0629C13.6164 28.1811 13.952 28.2543 14.293 28.2804C13.7436 28.684 13.1206 28.9795 12.458 29.1507C12.3196 29.1879 12.1777 29.2113 12.0345 29.2203C11.9055 29.2333 11.7754 29.2333 11.6464 29.2203C10.8876 29.1333 10.5083 28.7504 10.4554 28.2282C10.4272 27.5243 10.6663 26.8354 11.1258 26.2962C11.1563 26.2685 11.1806 26.2349 11.1973 26.1974C11.2139 26.16 11.2225 26.1195 11.2225 26.0786C11.2225 26.0377 11.2139 25.9973 11.1973 25.9599C11.1806 25.9224 11.1563 25.8888 11.1258 25.8611C11.0652 25.8041 10.9846 25.7724 10.9009 25.7724C10.8171 25.7724 10.7366 25.8041 10.6759 25.8611C10.2439 26.228 9.91537 26.6989 9.72216 27.228C9.52895 27.7571 9.47761 28.3265 9.57315 28.8809C9.69052 29.2871 9.9261 29.6503 10.2507 29.9257C10.5753 30.201 10.9747 30.3764 11.3993 30.43C11.5769 30.4618 11.7571 30.4763 11.9375 30.4735C12.193 30.4674 12.4473 30.4353 12.6962 30.3778C13.6446 30.1039 14.5209 29.6286 15.2634 28.9854C15.4752 28.8113 15.6604 28.6024 15.8545 28.411C16.5779 28.411 17.3014 28.4545 18.0248 28.411C19.4363 28.411 20.8479 28.2891 22.2329 28.2369C23.4592 28.1847 24.7649 28.2369 26.0529 28.1673C26.9239 28.1331 27.7895 28.0165 28.6378 27.8192C28.7314 27.7984 28.8128 27.7418 28.8641 27.6618C28.9154 27.5819 28.9324 27.4851 28.9113 27.3927C28.8858 27.3088 28.8332 27.2354 28.7613 27.1839C28.7613 25.6435 28.7172 24.1031 28.629 22.5714C28.5849 21.8926 28.532 21.2138 28.4614 20.5437C28.3908 19.8736 28.2938 19.186 28.1791 18.5159C28.1173 18.2026 28.0467 17.8893 27.9762 17.576C28.5653 17.0624 29.103 16.4941 29.5818 15.879ZM17.5484 12.4849C17.7221 12.0155 18.0259 11.6035 18.4251 11.2958C18.8243 10.9881 19.303 10.7971 19.8068 10.7444C20.3156 10.6858 20.8311 10.7529 21.307 10.9398C21.7829 11.1266 22.2042 11.4273 22.5329 11.8148C22.8552 12.1986 23.0738 12.6567 23.1681 13.1463C23.1681 13.2682 23.1681 13.3987 23.2122 13.5293C23.0358 13.5293 22.8593 13.5293 22.674 13.477C21.6595 13.477 20.6538 13.477 19.648 13.538C18.8364 13.5989 18.0336 13.7033 17.2308 13.8164C17.2725 13.3601 17.3795 12.9118 17.5484 12.4849ZM26.0265 27.3405C24.7473 27.3405 23.4416 27.2535 22.2153 27.2535H18.016H16.9926C17.3808 26.8271 17.7513 26.3832 18.1042 26.0177C18.17 25.9497 18.2067 25.8593 18.2067 25.7653C18.2067 25.6713 18.17 25.5809 18.1042 25.513C18.0343 25.45 17.943 25.415 17.8483 25.415C17.7536 25.415 17.6624 25.45 17.5925 25.513C17.0102 26.0438 16.3574 26.6356 15.6869 27.2535H15.2546C14.8619 27.252 14.4698 27.2229 14.0813 27.1665C13.8342 27.123 13.5784 27.0794 13.4814 26.8706C13.4367 26.7693 13.4185 26.6586 13.4284 26.5486C13.4284 26.2527 13.5255 25.9481 13.5519 25.6783L13.7725 22.9979C13.7725 22.5888 13.8784 22.1885 13.9489 21.7795C14.0548 21.1616 14.1871 20.5524 14.3283 19.9432C14.593 18.7683 14.787 17.5586 15.0429 16.3751C15.1487 15.879 15.2723 15.3829 15.4222 14.8956V14.8173H16.4191C16.4535 15.2812 16.5124 15.7431 16.5956 16.201C16.5999 16.2419 16.6126 16.2816 16.6328 16.3176C16.6531 16.3535 16.6806 16.3851 16.7136 16.4103C16.7465 16.4355 16.7844 16.4539 16.8247 16.4643C16.8651 16.4747 16.9072 16.4769 16.9485 16.4708C17.0313 16.4599 17.1065 16.4173 17.1577 16.3521C17.2089 16.287 17.232 16.2045 17.222 16.1227C17.1996 15.6878 17.1996 15.2521 17.222 14.8173C21.3507 14.8173 20.7508 14.7215 22.7093 14.6954H23.3445V15.7572C23.3579 15.8411 23.4013 15.9176 23.4668 15.9728C23.5323 16.0281 23.6157 16.0584 23.7018 16.0584C23.788 16.0584 23.8713 16.0281 23.9368 15.9728C24.0023 15.9176 24.0457 15.8411 24.0591 15.7572C24.0591 15.4091 24.1209 15.0261 24.1385 14.6519H25.4266H26.5646C26.6793 15.3568 26.7852 16.0618 26.8646 16.7667C26.8646 17.0452 26.9175 17.3324 26.9528 17.637L26.6705 17.9503C26.6047 18.0183 26.568 18.1086 26.568 18.2026C26.568 18.2966 26.6047 18.387 26.6705 18.455C26.7188 18.4947 26.7773 18.5206 26.8395 18.5298C26.9017 18.539 26.9653 18.5312 27.0234 18.5072V18.9337C27.1028 19.6386 27.1733 20.3522 27.2616 21.0571C27.5174 23.1371 27.7997 25.2171 28.0026 27.3144C27.3456 27.3745 26.6849 27.3832 26.0265 27.3405Z" fill="#F6F6F6"/>
</svg>
