<svg width="22" height="16" viewBox="0 0 22 16" fill="none" xmlns="http://www.w3.org/2000/svg">
<path d="M1.32489 8.79297C0.772606 8.79297 0.32489 8.34525 0.32489 7.79297C0.32489 7.24068 0.772606 6.79297 1.32489 6.79297V8.79297ZM21.2071 7.08586C21.5976 7.47639 21.5976 8.10955 21.2071 8.50008L14.8431 14.864C14.4526 15.2546 13.8195 15.2546 13.4289 14.864C13.0384 14.4735 13.0384 13.8403 13.4289 13.4498L19.0858 7.79297L13.4289 2.13611C13.0384 1.74559 13.0384 1.11243 13.4289 0.721901C13.8195 0.331377 14.4526 0.331377 14.8431 0.721901L21.2071 7.08586ZM1.32489 6.79297H20.5V8.79297H1.32489V6.79297Z" fill="#252525"/>
</svg>
