<svg width="25" height="25" viewBox="0 0 25 25" fill="none" xmlns="http://www.w3.org/2000/svg">
<g id="vuesax/linear/global">
<g id="global">
<path id="Vector" d="M12.5701 22.5293C18.0929 22.5293 22.5701 18.0521 22.5701 12.5293C22.5701 7.00645 18.0929 2.5293 12.5701 2.5293C7.04722 2.5293 2.57007 7.00645 2.57007 12.5293C2.57007 18.0521 7.04722 22.5293 12.5701 22.5293Z" stroke="#01615F" stroke-width="1.5" stroke-linecap="round" stroke-linejoin="round"/>
<path id="Vector_2" d="M8.57007 3.5293H9.57007C7.62007 9.3693 7.62007 15.6893 9.57007 21.5293H8.57007" stroke="#01615F" stroke-width="1.5" stroke-linecap="round" stroke-linejoin="round"/>
<path id="Vector_3" d="M15.5701 3.5293C17.5201 9.3693 17.5201 15.6893 15.5701 21.5293" stroke="#01615F" stroke-width="1.5" stroke-linecap="round" stroke-linejoin="round"/>
<path id="Vector_4" d="M3.57007 16.5293V15.5293C9.41007 17.4793 15.7301 17.4793 21.5701 15.5293V16.5293" stroke="#01615F" stroke-width="1.5" stroke-linecap="round" stroke-linejoin="round"/>
<path id="Vector_5" d="M3.57007 9.52927C9.41007 7.57927 15.7301 7.57927 21.5701 9.52927" stroke="#01615F" stroke-width="1.5" stroke-linecap="round" stroke-linejoin="round"/>
</g>
</g>
</svg>
