<svg width="25" height="25" viewBox="0 0 25 25" fill="none" xmlns="http://www.w3.org/2000/svg">
<path d="M12.6836 22.293C18.2064 22.293 22.6836 17.8158 22.6836 12.293C22.6836 6.77012 18.2064 2.29297 12.6836 2.29297C7.16075 2.29297 2.68359 6.77012 2.68359 12.293C2.68359 17.8158 7.16075 22.293 12.6836 22.293Z" stroke="#BDFFE1" stroke-width="1.5" stroke-linecap="round" stroke-linejoin="round"/>
<path d="M8.68369 3.29297H9.68369C7.73369 9.13297 7.73369 15.453 9.68369 21.293H8.68369" stroke="#BDFFE1" stroke-width="1.5" stroke-linecap="round" stroke-linejoin="round"/>
<path d="M15.6836 3.29297C17.6336 9.13297 17.6336 15.453 15.6836 21.293" stroke="#BDFFE1" stroke-width="1.5" stroke-linecap="round" stroke-linejoin="round"/>
<path d="M3.68359 16.293V15.293C9.52359 17.243 15.8436 17.243 21.6836 15.293V16.293" stroke="#BDFFE1" stroke-width="1.5" stroke-linecap="round" stroke-linejoin="round"/>
<path d="M3.68359 9.29258C9.52359 7.34258 15.8436 7.34258 21.6836 9.29258" stroke="#BDFFE1" stroke-width="1.5" stroke-linecap="round" stroke-linejoin="round"/>
</svg>
