<svg width="18" height="18" viewBox="0 0 18 18" fill="none" xmlns="http://www.w3.org/2000/svg">
<g clip-path="url(#clip0_1_1317)">
<path d="M4.19749 10.3026L3.60574 12.5117L1.44293 12.5574C0.796561 11.3586 0.429932 9.98693 0.429932 8.52931C0.429932 7.1198 0.772721 5.79062 1.38034 4.62024H1.3808L3.30632 4.97325L4.14981 6.88722C3.97327 7.4019 3.87705 7.9544 3.87705 8.52931C3.87711 9.15326 3.99014 9.75108 4.19749 10.3026Z" fill="#FBBB00"/>
<path d="M17.2813 6.94141C17.3789 7.45559 17.4298 7.98661 17.4298 8.52931C17.4298 9.13786 17.3659 9.73146 17.244 10.3041C16.8302 12.2525 15.749 13.9539 14.2512 15.1579L14.2508 15.1575L11.8255 15.0337L11.4822 12.8909C12.4761 12.3081 13.2527 11.396 13.6619 10.3041H9.1167V6.94141H13.7282H17.2813Z" fill="#518EF8"/>
<path d="M14.2508 15.1574L14.2512 15.1579C12.7946 16.3287 10.9442 17.0293 8.92988 17.0293C5.69287 17.0293 2.87854 15.22 1.44287 12.5574L4.19744 10.3026C4.91525 12.2184 6.76331 13.5821 8.92988 13.5821C9.86112 13.5821 10.7336 13.3304 11.4822 12.8909L14.2508 15.1574Z" fill="#28B446"/>
<path d="M14.3555 1.98616L11.6019 4.24052C10.8271 3.75621 9.91118 3.47645 8.92997 3.47645C6.71435 3.47645 4.83174 4.90275 4.14988 6.8872L1.38084 4.62023H1.38037C2.79502 1.89276 5.64485 0.0292969 8.92997 0.0292969C10.9924 0.0292969 12.8834 0.763949 14.3555 1.98616Z" fill="#F14336"/>
</g>
<defs>
<clipPath id="clip0_1_1317">
<rect width="17" height="17" fill="white" transform="translate(0.429932 0.0292969)"/>
</clipPath>
</defs>
</svg>
