<svg width="47" height="32" viewBox="0 0 47 32" fill="none" xmlns="http://www.w3.org/2000/svg">
<rect x="0.994141" y="0.5" width="45" height="31" rx="5.5" fill="#F6F6F6"/>
<rect x="0.994141" y="0.5" width="45" height="31" rx="5.5" stroke="#E2E5E8"/>
<g clip-path="url(#clip0_2699_14851)">
<path d="M22.6953 16.1406V19.5116H21.6079V11.1748H24.4352C25.1238 11.1748 25.7763 11.4285 26.2837 11.8997C26.7912 12.3347 27.0449 12.9871 27.0449 13.6758C27.0449 14.3645 26.7912 14.9807 26.2837 15.4519C25.7763 15.9231 25.1601 16.1769 24.4352 16.1769L22.6953 16.1406ZM22.6953 12.1897V15.0895H24.5076C24.9064 15.0895 25.3051 14.9445 25.5588 14.6545C26.1388 14.1108 26.1388 13.2046 25.595 12.6609L25.5588 12.6247C25.2688 12.3347 24.9064 12.1535 24.5076 12.1897H22.6953Z" fill="#5F6368"/>
<path d="M29.5459 13.6396C30.3434 13.6396 30.9596 13.8571 31.4308 14.2921C31.902 14.7271 32.1195 15.307 32.1195 16.0319V19.5116H31.1046V18.7142H31.0683C30.6333 19.3666 30.0172 19.6929 29.2922 19.6929C28.676 19.6929 28.1323 19.5116 27.6974 19.1491C27.2986 18.7867 27.0449 18.2792 27.0449 17.7355C27.0449 17.1556 27.2624 16.6844 27.6974 16.3219C28.1323 15.9594 28.7485 15.8145 29.4735 15.8145C30.1259 15.8145 30.6333 15.9232 31.0321 16.1769V15.9232C31.0321 15.5607 30.8871 15.1983 30.5971 14.9808C30.3071 14.727 29.9447 14.5821 29.5459 14.5821C28.9298 14.5821 28.4585 14.8358 28.1323 15.3432L27.1899 14.7633C27.7699 14.0021 28.531 13.6396 29.5459 13.6396ZM28.1686 17.7718C28.1686 18.0617 28.3136 18.3155 28.531 18.4605C28.7848 18.6417 29.0747 18.7504 29.3647 18.7504C29.7997 18.7504 30.2346 18.5692 30.5609 18.243C30.9233 17.9168 31.1046 17.518 31.1046 17.0831C30.7783 16.8294 30.3071 16.6844 29.6909 16.6844C29.256 16.6844 28.8935 16.7931 28.6035 17.0106C28.3136 17.1918 28.1686 17.4456 28.1686 17.7718Z" fill="#5F6368"/>
<path d="M37.9915 13.8213L34.4031 22.0493H33.3157L34.6568 19.1858L32.3008 13.8575H33.4607L35.1643 17.9534H35.2005L36.8679 13.8575H37.9915V13.8213Z" fill="#5F6368"/>
<path d="M18.3821 15.4152C18.3821 15.089 18.3459 14.7627 18.3096 14.4365H13.7788V16.2851H16.3523C16.2436 16.8651 15.9174 17.4088 15.4099 17.735V18.9311H16.9685C17.8747 18.0974 18.3821 16.8651 18.3821 15.4152Z" fill="#4285F4"/>
<path d="M13.7786 20.0913C15.0835 20.0913 16.1709 19.6563 16.9683 18.9314L15.4097 17.7353C14.9747 18.0252 14.431 18.2065 13.7786 18.2065C12.5462 18.2065 11.4588 17.3728 11.0963 16.2129H9.50146V17.4453C10.3351 19.0764 11.9662 20.0913 13.7786 20.0913Z" fill="#34A853"/>
<path d="M11.0962 16.2128C10.8788 15.6329 10.8788 14.9804 11.0962 14.3642V13.1318H9.50138C8.81269 14.473 8.81269 16.0678 9.50138 17.4452L11.0962 16.2128Z" fill="#FBBC04"/>
<path d="M13.7785 12.4073C14.4672 12.4073 15.1196 12.661 15.627 13.1322L17.0044 11.7548C16.1345 10.9574 14.9746 10.4862 13.8147 10.5225C12.0024 10.5225 10.335 11.5374 9.5376 13.1685L11.1325 14.4009C11.4587 13.241 12.5461 12.4073 13.7785 12.4073Z" fill="#EA4335"/>
</g>
<defs>
<clipPath id="clip0_2699_14851">
<rect width="28.9974" height="13.81" fill="white" transform="translate(8.99414 9)"/>
</clipPath>
</defs>
</svg>
