<svg width="65" height="65" viewBox="0 0 65 65" fill="none" xmlns="http://www.w3.org/2000/svg">
<rect x="0.47998" width="64.24" height="64.24" rx="32.12" fill="#01615F" fill-opacity="0.1"/>
<path d="M52.3928 30.539C54.3513 34.7862 52.4753 36.9999 49.4362 37.8403C48.1831 42.6728 47.2751 47.5729 45.4367 52.2328C45.2341 52.7356 44.7238 52.8781 44.3185 52.7431C44.236 52.7956 44.146 52.8406 44.0259 52.8707C37.0248 54.5515 26.7594 55.3094 20.3211 51.5274C20.231 51.4674 20.171 51.3924 20.1485 51.3098C20.0659 51.2573 19.9984 51.1898 19.9534 51.0847C18.9929 48.826 18.34 46.5674 17.6122 44.2261C17.1769 42.8229 16.7867 41.3596 16.0964 40.0465C15.7887 39.4612 15.3159 38.2455 14.7757 37.6227C14.1603 37.5777 13.5375 37.5251 12.9222 37.4651C12.6221 37.4276 12.3519 37.2775 12.2694 36.9699C11.5565 34.2835 11.7141 30.8317 14.9483 30.1338C15.1134 30.1038 15.2334 30.1713 15.2934 30.2764C17.4396 29.8411 19.6757 29.6536 21.9269 29.556C20.1935 28.2503 18.6252 26.4869 18.2725 24.2883C18.1149 23.2677 18.205 22.1422 18.6252 21.1667C16.1789 21.857 14.1378 20.814 12.8997 18.4352C12.7271 18.0975 12.9447 17.6848 13.3424 17.6698C14.2279 17.6548 15.1359 17.4672 16.0138 17.5573C15.2784 15.2161 14.5656 10.5486 18.0249 10.7362C21.5442 10.9238 22.2571 15.9589 21.8444 18.6453C24.2231 18.2476 26.5718 20.1161 28.1176 22.2772C27.945 20.3487 27.7574 18.4127 27.5473 16.4917C27.5098 16.2065 27.75 15.9965 27.9826 15.9139C30.0612 15.1185 31.7195 15.141 33.8056 15.9064C34.0607 15.9965 34.2483 16.199 34.2483 16.4917C34.2483 16.9869 34.2483 17.4897 34.2408 17.9925C34.3834 16.8744 34.6685 15.3511 35.8992 14.9534C37.4975 14.4281 38.6981 15.6137 40.259 14.8483C43.2005 13.4076 45.4441 15.2686 46.0069 17.985C47.035 18 47.988 18.1351 48.5283 19.1556C48.8134 19.7109 48.7984 20.5588 48.7459 21.1441C48.7159 21.4593 50.4718 22.1496 50.7494 22.3597C52.9706 23.9806 52.0401 27.3724 50.1266 28.8506C50.7569 29.0157 51.3872 29.2033 51.9876 29.4509C52.3778 29.6085 52.4903 30.1038 52.2952 30.3964C52.3327 30.4415 52.3702 30.479 52.3928 30.539ZM47.2076 36.7448C51.2222 36.5947 51.8675 34.7937 51.1922 31.0418C51.1621 30.8842 51.1996 30.7266 51.2747 30.5991C45.5642 30.3965 39.7562 30.4115 34.0607 29.9312C34.0307 29.9312 34.0082 29.9162 33.9782 29.9087C33.9332 31.6346 33.8881 33.368 33.8731 35.0939C33.8731 35.5216 33.4604 35.8443 33.0402 35.7317C32.2598 35.6117 31.4719 35.4991 30.684 35.3791C30.4438 35.3791 30.2712 35.274 30.1587 35.1239C30.1587 35.259 30.1587 35.3866 30.1587 35.5216C30.1587 35.8743 29.5734 35.9794 29.5209 35.6042C29.2957 33.9758 29.1007 32.3475 28.9206 30.7116C24.3582 31.9122 19.2855 30.9442 14.6106 31.3119C14.5881 31.3119 14.5656 31.3044 14.543 31.3044C13.3799 32.4901 12.8397 34.0208 13.3274 35.7542C13.56 36.5872 16.5166 36.3771 17.0869 36.3996C19.7808 36.5046 22.4822 36.5572 25.1836 36.5046C29.7985 36.4221 34.5935 35.7017 39.1934 36.0994C41.8423 36.332 44.5362 36.8423 47.2076 36.7448ZM48.9035 28.3704C50.7644 26.1417 51.7474 23.2677 47.8454 22.6074C47.5903 22.5624 47.3501 22.2472 47.3726 21.9846C47.5377 20.4162 47.2751 19.2381 45.4817 19.2231C45.1365 19.2231 44.8739 18.9455 44.8664 18.6003C44.7463 15.126 41.7222 15.066 39.396 16.4992C39.2459 16.5967 39.0358 16.5892 38.8857 16.4992C37.0022 15.3736 35.2914 16.3191 34.7436 18.2551C34.6836 18.4878 34.3309 18.4953 34.2408 18.3077C34.2333 19.2532 34.2258 20.1912 34.2033 21.1291C34.5635 20.3337 35.1263 19.6434 35.9592 19.2381C37.5426 18.4577 38.4805 19.936 38.9383 21.2942C39.6586 20.4388 40.6342 19.5608 41.6697 19.906C42.8253 20.2962 43.3506 21.2942 43.7258 22.3673C45.2866 21.6994 46.9975 21.947 47.7854 23.7255C48.5433 25.4364 47.6353 27.2298 46.2696 28.3029C47.125 28.3404 47.9655 28.4379 48.7909 28.573C48.8134 28.5055 48.8509 28.4304 48.9035 28.3704ZM44.7463 27.7926C45.7818 27.1172 47.11 25.9916 46.7048 24.5584C46.2546 22.9751 44.9264 23.0952 43.6807 23.793C43.3356 23.9881 42.8703 23.8155 42.7727 23.4178C42.6152 22.8325 42.0299 20.2662 40.6942 21.1667C40.0188 21.6169 39.5761 22.1421 39.0808 22.7725C38.8482 23.0651 38.2854 22.9075 38.2179 22.5473C37.9628 21.1141 36.9197 18.9005 35.4339 20.7539C34.661 21.7144 34.3459 22.8775 34.3159 24.1007C34.3084 24.2132 34.2258 24.2958 34.1358 24.3258C34.0908 25.9841 34.0382 27.635 33.9932 29.2859C34.0157 29.2784 34.0382 29.2709 34.0607 29.2709C37.2574 28.9407 40.9118 28.3254 44.4611 28.2728C44.4686 28.1002 44.5512 27.9276 44.7463 27.7926ZM48.6108 38.0354C47.3501 38.2755 45.9469 38.3131 44.5587 38.1855C34.9687 37.3376 25.4087 38.313 15.8112 37.6902C16.1714 37.9003 16.5091 38.148 16.9218 38.6732C17.6422 39.5887 18.1149 40.7518 18.5276 41.8324C19.6232 44.6764 20.0209 47.768 21.1765 50.567C21.2215 50.6795 21.2215 50.7846 21.199 50.8821C28.6729 52.4654 36.0118 52.1953 43.5532 51.1597C43.7258 51.1297 43.8834 51.1597 44.0259 51.2048C45.4142 46.7625 46.7799 42.3202 48.6108 38.0354ZM32.8076 24.3033C32.9201 21.5944 34.5785 14.6457 29.3633 16.6568C28.0726 17.1521 29.731 24.8136 29.8135 26.0067C30.0011 28.7381 30.1287 31.462 30.1512 34.1934C30.2638 34.0508 30.4363 33.9533 30.684 33.9683C31.8396 34.0434 31.9446 34.0208 32.575 34.2084C32.59 30.9067 32.68 27.605 32.8076 24.3033ZM28.7855 29.3684C28.6354 27.9052 28.5003 26.4419 28.3653 24.9786C27.2697 23.1401 26.2042 21.1066 24.1481 20.1836C22.94 19.6359 21.4617 19.6358 20.4787 20.6339C17.7247 23.4103 20.5837 27.4399 22.9249 29.3234C22.9925 29.3759 23.0225 29.4435 23.0375 29.511C24.9735 29.451 26.9095 29.436 28.7855 29.3684ZM21.0114 18.878C20.9514 18.8029 20.9064 18.7128 20.8989 18.6003C20.8539 16.8594 20.9664 11.6817 18.0249 11.7717C15.1659 11.8618 16.5991 16.6793 17.1694 18.06C17.297 18.3752 16.9143 18.7279 16.6066 18.6228C15.8262 18.3527 15.0158 18.4727 14.2129 18.5853C15.346 20.1686 16.9518 20.859 18.9704 20.5288C19.1805 20.1986 19.4356 19.8985 19.7433 19.6433C20.156 19.2982 20.5837 19.0506 21.0114 18.878Z" fill="#01615F" stroke="#01615F" stroke-width="0.3"/>
<path d="M43.5004 39.0335C43.8831 38.6508 44.4084 39.2136 44.0857 39.6188C43.4929 40.3541 42.8475 41.112 42.1647 41.8774C42.75 42.4402 43.2903 43.0556 43.7481 43.7534C44.0257 44.1736 43.3878 44.6689 43.0577 44.2937C42.5474 43.7234 41.9996 43.1906 41.4443 42.6729C40.5439 43.6334 39.5758 44.5713 38.5478 45.4268C39.1706 45.937 39.8085 46.4473 40.4313 46.9651C41.0316 46.3048 41.677 45.6669 42.2322 44.9615C42.5249 44.5939 43.1027 45.0666 42.8701 45.4493C42.3973 46.2522 41.722 46.8751 41.0692 47.5129C41.6845 48.0457 42.2772 48.5934 42.8175 49.1787C43.1402 49.5314 42.735 50.0717 42.3073 49.8391C41.5794 49.4264 40.8891 48.9311 40.2212 48.3833C40.1011 48.5259 39.9886 48.6685 39.876 48.811C39.6059 49.1787 38.9906 48.8486 39.2457 48.4434C39.3733 48.2558 39.5158 48.0832 39.6509 47.9031C38.9831 47.3253 38.3452 46.71 37.7074 46.1022C36.6118 46.9426 35.4562 47.678 34.2556 48.2483C35.0135 48.9761 35.7639 49.704 36.4842 50.4394C36.8219 50.7846 36.3792 51.3999 35.959 51.1148C34.9084 50.4094 33.9179 49.6215 32.9499 48.7886C32.3646 48.9987 31.7718 49.1712 31.164 49.2838C30.8713 49.3363 30.7437 48.9086 31.0439 48.8261C31.5091 48.6835 31.9594 48.5109 32.4021 48.3233C31.6443 47.6555 30.9088 46.9651 30.1735 46.2597C29.213 47.0627 28.23 47.8355 27.1794 48.4884C27.5846 48.8711 27.9973 49.2538 28.3875 49.6515C28.6652 49.9291 28.305 50.4169 27.9673 50.1993C27.397 49.8391 26.8643 49.4264 26.339 48.9762C25.8512 49.2463 25.3484 49.4864 24.8232 49.6965C24.5755 49.8016 24.418 49.4039 24.6431 49.2763C25.0558 49.0437 25.4535 48.796 25.8437 48.5334C24.8607 47.6404 23.9452 46.6499 23.0673 45.6594C22.9922 45.7344 22.9172 45.802 22.8421 45.8695C22.587 46.1247 22.1968 45.7344 22.4444 45.4718C22.527 45.3893 22.602 45.3068 22.6771 45.2317C22.3394 44.849 22.0017 44.4738 21.6715 44.1061C21.5139 43.9335 21.7541 43.6934 21.9267 43.851C22.2944 44.1887 22.6771 44.5113 23.0523 44.8415C23.9602 43.911 24.8832 42.9655 25.8813 42.1251C25.1459 41.4422 24.388 40.7819 23.6226 40.1516C22.8722 40.4967 22.0992 40.8644 21.6715 41.6148C21.4464 41.99 20.8911 41.6598 21.0862 41.2696C21.4764 40.4817 22.1893 40.0015 22.9397 39.5813C22.9097 39.5662 22.8947 39.5437 22.8722 39.5287C22.617 39.3261 22.9472 38.8984 23.2099 39.086C23.3374 39.1686 23.4575 39.2661 23.5851 39.3561C23.6826 39.3787 23.7576 39.4462 23.8177 39.5287C24.7407 40.1891 25.6561 40.872 26.5641 41.5773C27.397 40.932 28.29 40.3692 29.273 39.9414C29.5882 39.8064 29.8508 40.2191 29.5506 40.4067C28.7177 40.9169 27.9373 41.4797 27.1794 42.065C28.2975 42.958 29.4005 43.8735 30.4886 44.819C31.5091 43.926 32.5297 43.0406 33.6028 42.2302C32.8223 41.4948 32.0344 40.7593 31.2465 40.0315C30.8638 39.6788 31.4266 39.131 31.8093 39.4687C32.6573 40.2041 33.4902 40.9545 34.3306 41.7049C34.6008 41.5098 34.8709 41.3147 35.1561 41.1346C35.5463 40.8794 35.8764 41.4798 35.5162 41.7499C35.3061 41.9 35.111 42.0651 34.9084 42.2226C35.7264 42.958 36.5443 43.6934 37.3697 44.4213C37.4973 44.5413 37.6323 44.6539 37.7674 44.7665C38.7654 43.8735 39.7185 42.9205 40.6564 41.96C39.9136 41.3146 39.1481 40.6993 38.3677 40.0915C37.9325 39.7538 38.5178 39.0035 38.9606 39.3261C39.7935 39.934 40.6264 40.5343 41.3993 41.1871C42.1047 40.4517 42.8025 39.7238 43.5004 39.0335ZM36.9945 45.4193C36.8895 45.3143 36.7844 45.2167 36.6793 45.1191C35.8539 44.3387 35.0285 43.5583 34.1955 42.7854C33.175 43.6259 32.177 44.5263 31.1715 45.4118C32.0269 46.1622 32.8674 46.9351 33.6928 47.708C34.8634 47.0777 35.9515 46.2823 36.9945 45.4193ZM29.5357 45.6444C28.5001 44.6464 27.4721 43.6334 26.429 42.6429C25.4235 43.4683 24.4555 44.3387 23.5025 45.2467C24.553 46.1547 25.6111 47.0552 26.6391 47.9856C27.6446 47.2578 28.5977 46.4623 29.5357 45.6444Z" fill="#01615F" stroke="#01615F" stroke-width="0.3"/>
<path d="M25.8436 26.8771C26.0987 26.6745 26.4364 26.9971 26.2113 27.2448C25.6335 27.8751 24.8081 28.2053 24.0502 28.5655C23.735 28.723 23.4574 28.2578 23.7725 28.0927C24.4704 27.7325 25.2358 27.3798 25.8436 26.8771Z" fill="#01615F" stroke="#01615F" stroke-width="0.3"/>
<path d="M24.1634 24.641C24.5536 24.4008 24.8688 24.9861 24.5161 25.2488C23.6232 25.9091 22.6551 26.7195 22.5801 27.9051C22.5501 28.3629 21.8672 28.3704 21.8672 27.9051C21.8597 26.3518 22.9328 25.4064 24.1634 24.641Z" fill="#01615F" stroke="#01615F" stroke-width="0.3"/>
<path d="M21.9866 23.1177C22.1742 22.8175 22.5869 23.0801 22.4518 23.3878C22.0616 24.2958 21.2887 25.2113 21.2137 26.2168C21.1836 26.5395 20.6884 26.547 20.6959 26.2168C20.7184 25.0837 21.4313 24.0557 21.9866 23.1177Z" fill="#01615F" stroke="#01615F" stroke-width="0.3"/>
</svg>
