<svg width="250" height="275" viewBox="0 0 250 275" fill="none" xmlns="http://www.w3.org/2000/svg">
<path d="M74.681 212.464C75.4294 218.832 72.0438 220.92 67.7257 220.724C64.0394 226.49 60.7743 232.491 56.3985 237.784C55.9208 238.353 55.1951 238.322 54.7244 237.974C54.5945 238.007 54.458 238.028 54.2888 238.016C44.4495 237.233 30.7478 233.859 23.9629 226.195C23.871 226.078 23.8247 225.955 23.8304 225.838C23.7451 225.734 23.6858 225.618 23.6717 225.462C23.3794 222.11 23.488 218.888 23.5339 215.528C23.5628 213.514 23.6758 211.441 23.3339 209.436C23.1815 208.542 23.0818 206.757 22.6422 205.716C21.8593 205.396 21.0699 205.063 20.2934 204.723C19.9181 204.547 19.6298 204.236 19.6529 203.8C19.865 199.996 21.5368 195.564 26.0486 196.028C26.2766 196.059 26.4043 196.198 26.438 196.361C29.4201 196.705 32.4144 197.411 35.3899 198.24C33.6853 195.802 32.3904 192.837 32.8647 189.822C33.0929 188.424 33.6884 186.996 34.6505 185.903C31.1688 185.763 28.9516 183.537 28.3484 179.91C28.2669 179.397 28.7259 178.951 29.2507 179.101C30.4111 179.457 31.6742 179.599 32.7803 180.089C32.8164 176.725 33.8701 170.339 38.2992 172.053C42.8066 173.792 41.5967 180.658 39.9175 183.984C43.1869 184.476 45.4544 187.909 46.551 191.383C47.1454 188.796 47.7233 186.193 48.2656 183.6C48.3378 183.212 48.74 183.04 49.0783 183.032C52.1254 182.878 54.2773 183.612 56.6711 185.496C56.9654 185.721 57.1238 186.065 56.9995 186.447C56.7891 187.092 56.5755 187.747 56.3522 188.399C57.013 187.003 58.0318 185.138 59.8047 185.143C62.1111 185.137 63.1723 187.193 65.5318 186.858C69.9778 186.23 72.1116 189.609 71.6911 193.388C73.0246 193.845 74.2094 194.425 74.4801 195.985C74.6158 196.83 74.236 197.929 73.9189 198.669C73.7459 199.067 75.7412 200.713 76.0139 201.105C78.2203 204.161 75.5666 208.187 72.4446 209.301C73.196 209.783 73.9379 210.296 74.6151 210.874C75.0568 211.245 74.993 211.938 74.6144 212.237C74.6442 212.311 74.6772 212.376 74.681 212.464ZM65.2864 218.35C70.5827 219.859 72.1889 217.786 72.9026 212.609C72.9304 212.391 73.0462 212.201 73.1982 212.067C65.8414 209.377 58.2649 206.929 51.0455 203.884C51.0064 203.871 50.9835 203.842 50.9475 203.819C50.1557 206.05 49.3606 208.29 48.6078 210.533C48.4261 211.09 47.7511 211.336 47.2512 211.01C46.285 210.522 45.3059 210.041 44.3299 209.55C44.017 209.448 43.8366 209.237 43.7537 208.994C43.6963 209.17 43.6421 209.336 43.5847 209.512C43.4349 209.972 42.6274 209.86 42.7184 209.349C43.1167 207.131 43.5542 204.926 44.0144 202.717C37.5578 202.344 31.3575 198.927 25.108 197.42C25.0787 197.411 25.0525 197.391 25.0232 197.382C23.0035 198.433 21.649 200.199 21.5483 202.665C21.4977 203.85 25.4404 204.832 26.1742 205.104C29.6408 206.385 33.1394 207.601 36.6827 208.68C42.7327 210.533 49.2885 211.631 55.115 214.104C58.4687 215.532 61.7631 217.342 65.2864 218.35ZM71.0544 208.155C74.4268 206.041 76.9289 202.712 72.1236 200.194C71.8102 200.027 71.6311 199.514 71.772 199.181C72.6535 197.207 72.8117 195.56 70.4805 194.779C70.0306 194.632 69.8063 194.159 69.9431 193.706C71.2626 189.126 67.3465 187.763 63.7057 188.643C63.4687 188.707 63.198 188.608 63.0407 188.426C61.0639 186.159 58.4323 186.665 56.8959 188.955C56.7188 189.233 56.2559 189.093 56.2183 188.81C55.8068 190.039 55.3985 191.259 54.9707 192.472C55.7781 191.588 56.805 190.927 58.0627 190.753C60.4579 190.409 61.0525 192.734 61.0721 194.698C62.3744 193.89 64.0189 193.16 65.2219 194.049C66.5623 195.049 66.823 196.573 66.8562 198.131C69.1742 197.924 71.299 198.973 71.5704 201.626C71.8314 204.178 69.8861 206.13 67.6501 206.948C68.7492 207.36 69.8031 207.844 70.8216 208.371C70.8796 208.293 70.9605 208.211 71.0544 208.155ZM65.8815 205.636C67.5181 205.195 69.7275 204.293 69.8082 202.252C69.894 199.997 68.1118 199.59 66.1918 199.97C65.659 200.078 65.1259 199.655 65.1677 199.095C65.211 198.266 65.5384 194.672 63.4149 195.278C62.3434 195.578 61.5432 196.075 60.6299 196.686C60.2024 196.968 59.5358 196.524 59.6008 196.026C59.8772 194.049 59.4581 190.721 56.7341 192.506C55.3187 193.429 54.4138 194.811 53.8551 196.393C53.7975 196.536 53.6548 196.609 53.5247 196.61C52.7615 198.752 51.9917 200.881 51.2317 203.014C51.2642 203.014 51.2967 203.013 51.3261 203.023C55.6328 203.951 60.6573 204.701 65.3058 206.141C65.3889 205.919 65.5698 205.729 65.8815 205.636ZM66.567 220.628C64.8219 220.405 62.977 219.858 61.2218 219.102C49.0826 213.923 36.2078 211.133 23.9632 206.244C24.3434 206.671 24.6784 207.137 24.9931 207.997C25.5432 209.496 25.6652 211.213 25.744 212.797C25.9638 216.969 25.1688 221.167 25.4859 225.306C25.4968 225.472 25.4521 225.609 25.3813 225.727C34.45 230.966 44.1301 233.731 54.3994 235.585C54.6371 235.619 54.8298 235.726 54.9965 235.845C58.6931 230.644 62.3603 225.435 66.567 220.628ZM51.8031 196.016C53.1006 192.533 58.2141 184.181 50.5623 184.586C48.6696 184.684 47.5764 195.374 47.1771 196.964C46.2612 200.604 45.2703 204.208 44.1393 207.778C44.3465 207.64 44.6129 207.586 44.9293 207.711C46.4036 208.3 46.5501 208.315 47.2919 208.827C48.7142 204.53 50.2342 200.265 51.8031 196.016ZM44.409 200.909C44.835 198.938 45.2806 196.974 45.7262 195.009C45.0793 192.147 44.5544 189.044 42.2666 186.968C40.9247 185.741 38.9979 185.112 37.2927 185.996C32.5237 188.444 34.5382 194.911 36.7896 198.361C36.8553 198.458 36.8657 198.559 36.8566 198.653C39.4054 199.397 41.9352 200.2 44.409 200.909ZM38.733 183.933C38.6866 183.81 38.6663 183.674 38.7043 183.524C39.3852 181.235 41.7315 174.535 37.8593 173.402C34.0947 172.305 33.9161 179.193 34.0729 181.235C34.1053 181.7 33.4566 181.997 33.1003 181.73C32.1979 181.046 31.0906 180.858 29.9962 180.664C30.8004 183.209 32.6002 184.791 35.3714 185.218C35.7856 184.877 36.2456 184.594 36.755 184.392C37.4395 184.118 38.1022 183.977 38.733 183.933Z" fill="#BDFFE1"/>
<path d="M59.4829 219.757C60.1442 219.421 60.5898 220.378 59.9971 220.769C58.912 221.476 57.7489 222.189 56.5337 222.897C57.0575 223.879 57.5003 224.91 57.8005 226.014C57.9838 226.68 56.942 227.055 56.6711 226.425C56.2483 225.465 55.7607 224.538 55.2569 223.627C53.6752 224.497 52.015 225.308 50.3117 225.986C50.9067 226.916 51.5212 227.852 52.113 228.792C53.176 228.186 54.2881 227.629 55.3116 226.945C55.8492 226.59 56.4014 227.452 55.9357 227.852C54.9784 228.698 53.8336 229.222 52.7117 229.776C53.2874 230.732 53.8273 231.698 54.2828 232.69C54.5536 233.287 53.7959 233.819 53.3372 233.334C52.5639 232.487 51.8745 231.548 51.2367 230.551C51.0197 230.686 50.8124 230.824 50.6051 230.962C50.0968 231.326 49.4351 230.634 49.9398 230.215C50.1857 230.024 50.4449 229.86 50.6974 229.683C50.0724 228.646 49.5025 227.573 48.9293 226.51C47.1444 227.14 45.3258 227.607 43.5186 227.84C44.1972 229.111 44.866 230.379 45.4925 231.643C45.786 232.236 44.9476 232.85 44.521 232.3C43.4514 230.934 42.4951 229.487 41.5873 227.99C40.7352 228.015 39.8892 227.988 39.0492 227.877C38.6454 227.821 38.6608 227.209 39.0871 227.229C39.754 227.241 40.4142 227.207 41.071 227.151C40.3669 225.958 39.7016 224.746 39.0428 223.514C37.4498 224.153 35.8402 224.743 34.1936 225.147C34.5592 225.818 34.9345 226.492 35.2742 227.176C35.5181 227.656 34.8414 228.139 34.4937 227.712C33.9034 227 33.3844 226.236 32.891 225.426C32.1405 225.571 31.3832 225.67 30.6093 225.721C30.2419 225.753 30.2055 225.167 30.5531 225.097C31.1899 224.969 31.8134 224.815 32.4336 224.638C31.5317 223.057 30.7593 221.377 30.0358 219.713C29.9061 219.779 29.7796 219.835 29.6531 219.891C29.2121 220.115 28.8694 219.441 29.3037 219.204C29.4463 219.131 29.5792 219.056 29.7089 218.99C29.4313 218.347 29.1506 217.715 28.8764 217.096C28.7444 216.804 29.1594 216.593 29.3174 216.871C29.6532 217.468 30.0149 218.051 30.3637 218.641C31.9424 217.813 33.5471 216.973 35.2049 216.302C34.5365 215.099 33.8292 213.917 33.0994 212.77C31.9747 212.901 30.8111 213.052 29.9348 213.848C29.482 214.242 28.8986 213.576 29.3186 213.15C30.1619 212.289 31.2951 211.966 32.4516 211.737C32.4189 211.704 32.4089 211.669 32.386 211.639C32.1395 211.267 32.7515 210.85 33.0142 211.206C33.1454 211.368 33.2604 211.546 33.3884 211.717C33.506 211.788 33.5751 211.908 33.6183 212.041C34.5408 213.294 35.4439 214.573 36.3276 215.878C37.6874 215.391 39.0904 215.036 40.5533 214.897C41.0215 214.854 41.1885 215.504 40.7176 215.621C39.4152 215.932 38.1589 216.334 36.9224 216.775C38.0004 218.414 39.0492 220.076 40.0657 221.77C41.7752 221.04 43.4815 220.32 45.2244 219.719C44.5196 218.429 43.8051 217.136 43.0874 215.852C42.7384 215.23 43.7046 214.755 44.06 215.358C44.8528 216.677 45.6196 218.009 46.3962 219.344C46.8312 219.204 47.2662 219.065 47.7144 218.951C48.3313 218.784 48.5066 219.707 47.9224 219.906C47.5848 220.012 47.2604 220.145 46.9294 220.264C47.683 221.57 48.4367 222.876 49.2033 224.175C49.3186 224.386 49.4468 224.59 49.575 224.794C51.2552 224.054 52.9022 223.217 54.5328 222.364C53.8387 221.207 53.1025 220.08 52.3435 218.956C51.9197 218.331 53.0014 217.602 53.4413 218.21C54.2688 219.356 55.0994 220.493 55.8294 221.672C57.0612 221.013 58.28 220.361 59.4829 219.757ZM48.2903 225.317C48.198 225.135 48.1025 224.963 48.007 224.792C47.2627 223.424 46.5184 222.056 45.7611 220.695C44.0739 221.357 42.3906 222.106 40.7039 222.833C41.5001 224.175 42.2671 225.539 43.0146 226.897C44.8081 226.573 46.5642 225.998 48.2903 225.317ZM38.4729 222.441C37.5472 220.701 36.6376 218.944 35.6989 217.209C34.0377 217.858 32.4062 218.581 30.7783 219.36C31.7619 220.99 32.7584 222.613 33.703 224.262C35.3228 223.741 36.9029 223.109 38.4729 222.441Z" fill="#BDFFE1"/>
<path d="M41.6324 196.412C42.051 196.256 42.3541 196.82 41.9555 197.047C40.9346 197.623 39.7185 197.703 38.5776 197.85C38.0999 197.922 37.9357 197.198 38.4166 197.116C39.4792 196.943 40.6266 196.809 41.6324 196.412Z" fill="#BDFFE1"/>
<path d="M40.3927 192.784C41.0032 192.636 41.1654 193.533 40.5942 193.726C39.1497 194.207 37.5438 194.852 36.9423 196.365C36.7087 196.949 35.8155 196.669 36.0131 196.063C36.6632 194.035 38.4635 193.258 40.3927 192.784Z" fill="#BDFFE1"/>
<path d="M38.2033 189.874C38.5753 189.563 39.0017 190.08 38.6949 190.424C37.8006 191.442 36.4043 192.306 35.8793 193.585C35.7031 193.993 35.0544 193.792 35.2045 193.365C35.7152 191.898 37.0811 190.861 38.2033 189.874Z" fill="#BDFFE1"/>
<path d="M233.987 212.621C232.134 210.159 244.529 207.597 245.901 207.55C246.869 207.517 248.877 207.578 249.105 208.67C249.688 211.471 236.264 213.807 233.987 212.621Z" fill="#BDFFE1"/>
<path d="M225.344 198.922C227.637 198.624 228.319 199.134 229.552 200.833C230.393 201.994 233.633 209.15 231.455 209.734L229.013 208.587L225.344 198.922Z" fill="#BDFFE1"/>
<path d="M235.918 220.073C239.895 223.806 239.62 232.159 235.992 226.123C234.972 224.424 231.163 215.608 235.918 220.073Z" fill="#BDFFE1"/>
<path d="M218.862 218.393C216.835 216.758 223.963 215.892 224.609 215.848C225.886 215.76 226.46 214.999 227.486 216.595C225.297 219.138 221.81 218.322 218.862 218.396V218.393Z" fill="#BDFFE1"/>
<path d="M192.863 13.885C191.01 11.4225 203.405 8.86077 204.777 8.81389C205.745 8.7808 207.753 8.84147 207.981 9.93346C208.564 12.7351 195.14 15.0708 192.863 13.885Z" fill="#BDFFE1"/>
<path d="M184.22 0.185561C186.513 -0.112255 187.195 0.397892 188.428 2.09654C189.269 3.25747 192.509 10.4133 190.331 10.9979L187.889 9.85078L184.22 0.185561Z" fill="#BDFFE1"/>
<path d="M194.794 21.3362C198.771 25.0699 198.496 33.4225 194.868 27.3863C193.848 25.6876 190.039 16.8717 194.794 21.3362Z" fill="#BDFFE1"/>
<path d="M177.737 19.6569C175.711 18.0217 182.839 17.1558 183.485 17.1117C184.762 17.0235 185.336 16.2624 186.362 17.859C184.173 20.4015 180.686 19.5852 177.737 19.6597V19.6569Z" fill="#BDFFE1"/>
<path d="M16.3633 119.498C14.5097 117.036 26.9049 114.474 28.2772 114.427C29.2453 114.394 31.2529 114.455 31.4812 115.547C32.0642 118.348 18.6405 120.684 16.3633 119.498Z" fill="#BDFFE1"/>
<path d="M7.71973 105.799C10.0134 105.501 10.6955 106.011 11.9276 107.71C12.7691 108.871 16.0089 116.027 13.8307 116.611L11.3885 115.464L7.71973 105.799Z" fill="#BDFFE1"/>
<path d="M18.2941 126.949C22.2709 130.683 21.9959 139.036 18.3683 133C17.348 131.301 13.539 122.485 18.2941 126.949Z" fill="#BDFFE1"/>
<path d="M1.23748 125.27C-0.789427 123.635 6.33913 122.769 6.98543 122.725C8.26153 122.637 8.83632 121.876 9.86215 123.472C7.67298 126.015 4.18571 125.199 1.23748 125.273V125.27Z" fill="#BDFFE1"/>
<path d="M240.016 100.122C237.476 100.711 235.176 101.461 232.761 102.132C229.115 103.144 228.114 104.089 224.594 106.241C219.082 109.597 214.305 113.704 211.597 115.107C210.673 115.585 210.103 116.146 209.365 116.186C208.872 116.212 208.186 115.843 208.19 115.401C208.196 114.932 208.846 114.408 209.334 114.055C213.963 110.746 213.405 111.043 214.635 110.302C215.168 109.981 215.72 109.649 216.375 109.088C216.762 108.757 216.903 108.239 216.734 107.77C216.114 106.05 213.243 107.11 211.564 107.765C209.72 108.482 210.3 108.125 206.14 109.789C204.946 110.264 201.666 111.72 200.307 110.728C199.636 110.242 199.658 108.523 200.849 107.883C200.94 107.835 201.007 107.763 201.077 107.694C207.995 105.693 211.015 105.088 212.677 104.751C214.036 104.474 213.621 102.418 212.259 102.694C203.723 104.429 199.28 106.417 197.494 106.107C196.952 106.019 196.272 105.255 196.182 104.66C195.845 102.441 201.517 102.181 208.626 100.28C209.968 99.9214 209.425 97.8943 208.085 98.2526C204.539 99.1996 200.415 99.854 197.429 100.812C197.368 100.741 197.309 100.666 197.226 100.612C196.275 99.9912 196.272 98.4261 197.455 97.5783C198.019 97.1741 198.528 97.0555 199.389 96.9584C203.817 96.4583 211.408 94.4899 218.236 91.6392C219.516 91.1048 220.872 90.3552 221.229 88.8407C222.046 85.2236 216.948 84.3492 213.573 80.3831C211.713 78.2635 211.963 77.9046 212.143 77.7189C213.006 76.827 214.63 77.8894 215.659 78.5609C217.471 79.9471 227.046 87.203 228.814 88.2035C230.992 89.4314 233.974 89.7241 237.205 89.0108C238.554 88.7122 238.116 86.666 236.752 86.9603C235.174 87.3091 232.182 87.6897 229.847 86.3768C228.413 85.5657 220.143 79.3487 216.873 76.8492C216.015 76.2879 215.128 75.7046 214.025 75.4135C211.74 74.8387 209.374 76.4155 210.053 78.7917C210.386 80.0215 211.122 80.7655 211.978 81.7468C215.88 86.3345 222.38 87.6304 217.428 89.7023C210.895 92.4298 203.507 94.3778 199.153 94.8736C198.197 94.9813 197.255 95.1387 196.232 95.8729C194.284 97.2669 193.769 100.008 195.451 101.819C194.386 102.69 193.947 103.914 194.106 104.971C194.3 106.259 195.363 107.531 196.563 108.011C197.048 108.205 197.467 108.232 198.005 108.236C196.813 111.624 199.627 114.501 205.069 112.468C207.494 111.536 208.272 111.136 211.136 110.162C208.154 112.318 206.117 113.388 206.091 115.373C206.07 117.006 207.709 118.492 209.722 118.244C215.509 119.362 221.342 109.021 237.334 102.999C238.371 102.703 239.406 102.418 240.49 102.166C241.055 102.035 241.406 101.472 241.275 100.907C241.145 100.341 240.578 99.9909 240.016 100.122Z" fill="#BDFFE1"/>
<path d="M189.336 104.462C188.745 104.381 188.016 104.485 187.253 104.685C188.27 101.984 186.663 98.7635 183.64 99.0202C179.811 99.3425 173.961 105.624 156.596 111.794C153.379 112.938 152.022 112.101 153.102 107.939C154.965 100.767 154.406 99.0348 154.476 98.2423C154.462 97.046 154.449 95.8086 153.808 94.5026C152.468 91.7699 149.049 92.4073 147.51 94.7419C146.723 95.9357 146.36 97.3096 146.024 98.5954C144.927 104.457 142.439 117.221 141.744 119.271C139.935 124.605 136.609 128.854 132.618 130.928C131.376 131.572 132.378 133.42 133.586 132.79C138.053 130.468 141.751 125.786 143.731 119.946C144.657 117.214 148.053 99.1632 148.07 99.0566C148.362 97.949 148.664 96.804 149.263 95.8969C149.691 95.2468 150.51 94.7681 151.129 94.8066C152.452 94.9149 152.361 97.6879 152.389 98.991C152.587 105.781 148.464 111.076 152.215 113.721C153.761 114.818 155.653 114.359 157.299 113.771C174.707 107.587 180.719 101.375 183.818 101.111C185.415 100.97 185.884 103.235 185.056 104.412C183.247 106.985 171.104 113.189 168.327 114.599C167.086 115.228 168.046 117.101 169.279 116.47C174.487 113.824 178.684 111.557 183.018 108.741C183.115 108.719 183.213 108.699 183.304 108.648C185.281 107.526 188.04 106.403 189.051 106.541C189.963 106.667 191.166 107.243 191.016 108.214C190.759 109.843 188.631 111.35 187.132 112.412C183.286 115.134 177.979 118.174 172.761 120.322C171.476 120.852 172.29 122.785 173.56 122.264C180.653 119.344 183.014 117.157 187.761 115.129C189.886 114.22 191.378 115.242 191.373 116.358C191.361 119.283 179.977 123.342 175.088 126.199C174.317 126.654 173.065 127.03 173.395 128.138C173.738 129.285 175.115 128.884 176.488 128.791C179.754 128.567 184.851 126.99 185.959 128.82C186.073 129.313 185.501 129.951 184.902 130.303C183.491 131.135 182.588 131.178 172.306 133.018C169.522 133.518 166.733 133.791 163.928 134.406C157.629 135.765 147.348 139.666 143.009 141.51C142.527 141.716 142.298 142.236 142.42 142.728C142.092 143.113 143.862 144.136 144.167 144.222C144.98 144.452 153.003 141.216 162.773 137.994C164.79 137.328 166.885 136.957 168.979 136.726C171.846 136.409 174.496 135.627 177.376 135.448C179.844 135.295 182.689 134.776 184.984 133.747C188.976 131.957 189.353 129.252 187.59 127.439C186.107 125.261 182.378 125.808 179.751 126.222L180.086 126.071C181.906 125.245 183.749 124.242 185.527 123.371C188.537 121.937 193.456 119.602 193.472 116.368C193.48 114.796 192.283 113.125 190.163 112.764C195.103 108.727 193.138 104.979 189.336 104.462Z" fill="#BDFFE1"/>
<path d="M175.884 92.2911C179.794 93.856 185.018 94.2574 186.731 94.4919C187.188 94.5544 187.633 94.3099 187.826 93.8896C190.974 87.0351 192.966 85.2731 193.491 79.1537C193.757 76.0557 191.94 72.2744 188.547 71.5729C186.139 71.0727 183.397 72.3362 181.877 74.6442C180.893 76.1403 180.587 77.8697 180.544 79.5453C176.809 77.355 173.719 77.4988 171.698 78.8432C167.637 81.5443 167.89 89.0915 175.884 92.2911ZM173.001 80.4668C175.572 78.8897 178.764 80.8598 181.069 82.3519C181.816 82.8169 182.741 82.2512 182.687 81.4038C182.563 79.4272 182.591 77.379 183.631 75.798C184.688 74.1913 186.534 73.2991 188.121 73.6278C190.305 74.0942 191.59 76.7593 191.399 78.9731C190.925 84.5138 189.086 86.2106 186.241 92.3162C183.213 91.9668 179.474 91.5108 176.472 90.2611C170.518 87.782 169.976 82.3199 173.001 80.4668Z" fill="#BDFFE1"/>
<path d="M181.44 67.8536L183.167 70.5117C183.922 71.6757 185.684 70.5345 184.928 69.3675L183.199 66.7089C182.441 65.5403 180.684 66.6929 181.44 67.8536Z" fill="#BDFFE1"/>
<path d="M187.851 68.9254L188.674 65.3981C188.989 64.0465 186.945 63.5693 186.63 64.9217L185.807 68.4489C185.49 69.7978 187.534 70.2798 187.851 68.9254Z" fill="#BDFFE1"/>
<path d="M192.174 70.1923L193.523 67.781C193.806 67.276 193.626 66.6357 193.12 66.3521C192.612 66.0752 191.974 66.2499 191.691 66.7564L190.342 69.1677C189.663 70.3798 191.496 71.4033 192.174 70.1923Z" fill="#BDFFE1"/>
<g clip-path="url(#clip0_5129_7542)">
<path d="M147.328 255.691C146.207 260.529 143.421 272.103 136.278 271.192C119.536 269.034 134.639 238.733 140.775 230.56C136.115 229.509 134.498 224.508 135.061 220.084C135.75 214.697 138.965 209.666 142.389 205.576C142.97 204.883 144.154 205.793 143.652 206.544C141.38 209.969 139.392 213.726 138.283 217.704C137.728 219.664 137.137 221.98 137.72 224.01C138.437 226.552 140.122 227.369 142.092 228.842C142.458 229.115 142.603 229.667 142.494 230.099C142.516 230.236 142.507 230.38 142.434 230.515C138.817 236.99 135.497 244 133.325 251.097C132.174 254.844 130.981 258.997 131.443 262.957C131.778 265.858 133.989 269.927 137.63 268.714C143.7 266.688 145.086 255.588 145.893 250.306C146.783 244.447 147.597 238.076 146.847 232.158C146.756 231.46 147.187 230.946 147.712 230.735C147.96 230.465 148.336 230.317 148.826 230.427C157.963 232.611 158.375 217.466 159.367 211.362C156.225 215.52 154.575 220.503 151.907 224.942C151.312 225.932 149.611 225.586 149.671 224.35C149.834 220.792 149.88 217.232 149.748 213.683C148.382 216.757 146.901 219.772 145.439 222.799C144.909 223.901 143.288 223.313 143.262 222.208C143.128 217.077 143.39 211.95 144.101 206.862C144.211 206.072 145.513 206.267 145.479 207.048C145.337 210.502 145.277 213.92 145.367 217.355C146.811 214.235 148.259 211.124 149.436 207.882C149.941 206.516 151.784 206.768 151.915 208.217C152.23 211.822 152.249 215.414 152.183 219.02C153.82 215.535 155.434 212.051 157.95 209.109C158.896 208.008 160.348 209.283 159.962 210.453C160.363 210.348 160.861 210.511 160.92 210.973C161.821 217.913 159.592 235.273 149.455 233.055C150.42 240.326 148.95 248.761 147.328 255.691Z" fill="#BDFFE1"/>
</g>
<g clip-path="url(#clip1_5129_7542)">
<path d="M85.7113 49.3972C89.5213 54.2872 92.8613 63.6572 85.1113 67.0072C77.8213 70.1672 70.7913 63.3472 66.6513 58.0372C62.2813 52.4572 57.0113 44.7772 56.8713 37.2872C52.5213 41.7972 43.2613 34.4872 41.0513 30.6972C38.2713 25.9372 37.4013 18.3372 43.3513 15.5672C48.0613 13.3772 54.3113 16.3172 57.8513 19.4472C62.1213 23.2072 64.7413 28.3572 63.3913 34.0272C63.6513 33.6772 64.1013 33.4672 64.6613 33.5872C72.6813 35.3072 80.8813 43.1972 85.7113 49.3972ZM83.8213 64.8072C97.3813 57.3972 71.1513 38.2572 64.0013 35.9972C63.4013 35.8072 63.1313 35.3572 63.1113 34.8872C62.4513 35.9672 60.4713 35.2972 60.8813 33.8972C63.2813 25.9172 54.7213 16.3372 46.4213 17.0872C40.0213 17.6572 40.3913 25.2072 43.4013 29.3272C45.3313 31.9572 48.0413 34.3072 51.2613 35.1572C53.1613 35.6572 55.2213 35.3672 57.0213 36.0372C57.3813 35.6172 58.2013 35.7673 58.2713 36.4872C58.9013 42.6172 63.3113 49.1872 66.8513 54.0372C69.8413 58.1272 77.5513 68.2272 83.8213 64.8072Z" fill="#BDFFE1"/>
<path d="M44.3214 20.2174C51.5214 16.4374 58.3914 25.5174 56.3014 32.2474C56.1514 32.7274 55.7814 32.9374 55.3114 32.9974C54.1314 33.1474 53.1114 33.5274 51.9314 33.5774C50.7714 33.6274 50.4914 31.7274 51.6514 31.5374C52.6114 31.3774 53.5514 31.1774 54.5014 31.0474C55.6814 25.6974 50.8014 18.4874 44.8914 21.1874C44.2414 21.4874 43.6614 20.5574 44.3214 20.2174Z" fill="#BDFFE1"/>
</g>
<defs>
<clipPath id="clip0_5129_7542">
<rect width="55.02" height="55.05" fill="white" transform="translate(153.974 198.842) rotate(60)"/>
</clipPath>
<clipPath id="clip1_5129_7542">
<rect width="50.9" height="53" fill="white" transform="translate(38.9014 14.8076)"/>
</clipPath>
</defs>
</svg>
