<svg width="13" height="12" viewBox="0 0 13 12" fill="none" xmlns="http://www.w3.org/2000/svg">
<path d="M6 10V1L5 2L4 4L1 4.5V5.5L2.5 6.5L3 8L2.5 10.5L3 11L5 10H6Z" fill="#01615F"/>
<path d="M7.03292 1.75482L7.91292 3.51482C8.03292 3.75982 8.35292 3.99482 8.62292 4.03982L10.2179 4.30482C11.2379 4.47482 11.4779 5.21482 10.7429 5.94482L9.50292 7.18482C9.29292 7.39482 9.17792 7.79982 9.24292 8.08982L9.59792 9.62482C9.87792 10.8398 9.23292 11.3098 8.15792 10.6748L6.66292 9.78982C6.39292 9.62982 5.94792 9.62982 5.67292 9.78982L4.17792 10.6748C3.10792 11.3098 2.45792 10.8348 2.73792 9.62482L3.09292 8.08982C3.15792 7.79982 3.04292 7.39482 2.83292 7.18482L1.59292 5.94482C0.862923 5.21482 1.09792 4.47482 2.11792 4.30482L3.71292 4.03982C3.97792 3.99482 4.29792 3.75982 4.41792 3.51482L5.29792 1.75482C5.77792 0.799824 6.55792 0.799824 7.03292 1.75482Z" stroke="#01615F" stroke-linecap="round" stroke-linejoin="round"/>
</svg>
