<svg width="315" height="284" viewBox="0 0 315 284" fill="none" xmlns="http://www.w3.org/2000/svg">
<path d="M30.4877 248.78C28.634 246.317 41.0293 243.755 42.4016 243.708C43.3697 243.675 45.3773 243.736 45.6056 244.828C46.1886 247.63 32.7649 249.965 30.4877 248.78Z" fill="#01615F"/>
<path d="M21.8438 235.08C24.1374 234.782 24.8195 235.292 26.0516 236.991C26.8931 238.152 30.1329 245.308 27.9547 245.892L25.5125 244.745L21.8438 235.08Z" fill="#01615F"/>
<path d="M32.4183 256.23C36.3952 259.964 36.1201 268.317 32.4926 262.281C31.4723 260.582 27.6632 251.766 32.4183 256.23Z" fill="#01615F"/>
<path d="M15.3615 254.551C13.3346 252.916 20.4632 252.05 21.1095 252.006C22.3856 251.918 22.9603 251.157 23.9862 252.753C21.797 255.296 18.3097 254.48 15.3615 254.554V254.551Z" fill="#01615F"/>
<path opacity="0.1" fill-rule="evenodd" clip-rule="evenodd" d="M24.4176 103.411C47.5929 60.8478 74.6778 5.3455 118.097 1.08593C161.21 -3.14349 184.566 48.8423 219.906 70.3237C253.692 90.8602 301.701 79.0417 313.287 119.731C324.664 159.686 272.87 195.473 244.805 230.652C223.785 256.999 197.686 271.124 167.622 279.694C138.809 287.907 121.829 282.39 95.3653 273.251C58.9373 260.671 23.6759 265.994 8.12415 228.765C-8.13642 189.839 2.1014 144.397 24.4176 103.411Z" fill="#01615F"/>
<path d="M229.206 227.342C228.848 227.224 228.496 227.058 228.166 226.869C227.619 226.555 227.28 226.098 227.242 225.435C227.187 224.523 227.046 223.614 227.05 222.702C227.069 215.81 227.139 208.92 227.146 202.027C227.155 192.242 227.098 182.459 227.117 172.674C227.146 158.421 227.226 144.171 227.254 129.918C227.254 129.256 227.482 128.923 228.022 128.619C228.515 128.344 229.011 128.002 229.373 127.576C230.246 126.542 231.107 125.506 231.795 124.309C232.813 122.536 233.357 120.629 233.661 118.654C233.875 117.253 233.891 115.819 234 114.376C233.862 112.93 233.821 111.454 233.562 110.018C233.338 108.792 232.896 107.602 232.496 106.418C231.984 104.907 231.459 103.4 230.858 101.925C230.032 99.8992 229.12 97.9056 228.259 95.896C226.477 91.7296 224.557 87.624 222.381 83.6496C219.734 78.8208 216.973 74.0528 214.266 69.2592C213.83 68.488 213.261 67.8384 212.595 67.2656C211.654 66.4592 210.56 66.0464 209.328 66.0144C208.522 65.9952 207.712 65.9952 206.902 66.0144C203.437 66.0976 199.971 66.1904 196.506 66.2832C195.939 66.2992 195.357 66.1744 194.819 66.4784C194.752 66.5168 194.653 66.5008 194.57 66.504C192.592 66.5584 190.618 66.6128 188.64 66.664C188.32 66.6736 188.003 66.68 187.683 66.696C185.901 66.7952 184.122 66.9232 182.339 66.9968C179.494 67.112 176.646 67.1824 173.798 67.2944C173.149 67.32 172.506 67.4736 171.856 67.5024C169.053 67.6176 166.246 67.6976 163.443 67.8064C162.598 67.8416 161.754 67.9696 160.909 67.9984C158.912 68.0656 156.909 68.0464 154.915 68.168C153.398 68.2608 151.859 68.1296 150.362 68.5168C150.262 68.5424 150.15 68.5168 150.045 68.5232C148.067 68.5904 146.093 68.6448 144.115 68.7344C142.054 68.8272 140 68.9616 137.939 69.0576C135.398 69.1728 132.848 69.112 130.326 69.5536C130.266 69.5632 130.198 69.5536 130.134 69.5536C128.39 69.6176 126.65 69.6656 124.906 69.7488C122.72 69.8512 120.538 69.9856 118.352 70.104C117.843 70.1328 117.334 70.168 116.822 70.1904C115.613 70.2384 114.403 70.28 113.194 70.3312C113.027 70.3376 112.864 70.392 112.698 70.4208C112.346 70.4784 111.994 70.5712 111.638 70.584C110.384 70.632 109.13 70.6384 107.875 70.68C106.112 70.7408 104.349 70.8144 102.586 70.8912C102.378 70.9008 102.147 70.9008 101.968 70.9872C101.507 71.2144 101.085 71.1696 100.63 70.9712C100.48 70.904 100.272 70.9296 100.096 70.952C99.8112 70.9936 99.5296 71.0992 99.2448 71.1216C98.8 71.1568 98.352 71.1408 97.9072 71.1536C95.9296 71.2112 93.9552 71.2656 91.9776 71.3328C91.2992 71.3552 90.6176 71.3968 89.9424 71.4544C89.5456 71.4864 89.1552 71.592 88.7584 71.6144C87.9744 71.656 87.1872 71.6592 86.4 71.6848C84.1888 71.7488 81.9776 71.8192 79.7664 71.88C79.3056 71.8928 78.8288 71.7712 78.4224 72.1104C78.368 72.1552 78.2592 72.1488 78.176 72.152C77.3696 72.1744 76.5632 72.2224 75.7568 72.2032C74.1888 72.1648 72.672 72.4656 71.1584 72.8144C69.8432 73.1184 68.9472 73.944 68.288 75.0704C67.2 76.9296 66.4096 78.9232 65.6608 80.9392C64.4768 84.1296 63.2992 87.32 62.3072 90.5776C61.3472 93.7296 60.3328 96.8656 59.4176 100.03C58.6848 102.562 58.0576 105.125 57.4048 107.678C56.7584 110.19 56.1408 112.709 55.7248 115.272C55.5776 116.174 55.3952 117.07 55.2544 117.97C54.9824 119.678 55.024 121.4 54.9792 123.122C54.928 125.182 55.2192 127.192 55.6672 129.189C56.1056 131.144 57.0048 132.866 58.4544 134.258C58.9536 134.738 59.5296 135.179 60.1472 135.486C61.6672 136.238 63.136 137.131 64.8512 137.403C65.168 137.454 65.3184 137.669 65.3376 137.986C65.3568 138.325 65.3792 138.664 65.4112 139.003C65.5584 140.459 65.264 141.938 65.632 143.381C65.648 143.442 65.6352 143.509 65.6384 143.573C65.728 148.59 65.8208 153.611 65.9072 158.629C65.9808 162.923 66.0416 167.221 66.1056 171.515C66.1888 177 66.2496 182.488 66.3648 187.973C66.4352 191.413 66.3936 194.856 66.6016 198.296C66.7968 201.477 66.8352 204.667 66.9152 207.851C66.9632 209.826 66.9632 211.803 66.9856 213.781C66.9856 213.928 66.9952 214.078 67.008 214.226C67.056 214.795 67.1296 215.362 67.152 215.931C67.1776 216.654 67.1488 217.378 67.168 218.101C67.2288 220.264 67.2288 222.427 67.3376 224.594C67.4784 227.333 67.4176 230.078 67.456 232.821C67.4624 233.246 67.3472 233.602 67.1232 233.957C66.7456 234.549 66.3744 235.147 66.064 235.771C65.7504 236.405 65.5392 237.09 65.6672 237.806C65.952 239.426 66.768 240.709 68.2496 241.474C69.5552 242.149 70.9312 242.674 72.3872 242.92C73.4944 243.109 74.6112 243.246 75.728 243.4C76.4416 243.496 77.152 243.624 77.8688 243.656C79.0592 243.707 80.2496 243.704 81.44 243.707C83.8432 243.714 86.2496 243.762 88.6496 243.698C91.0592 243.63 93.4848 243.922 95.8816 243.448C96.2496 243.374 96.6464 243.454 97.0272 243.448C99.1296 243.39 101.232 243.323 103.338 243.269C105.776 243.205 108.221 243.253 110.653 242.978C111.728 242.856 112.816 242.875 113.901 242.827C115.302 242.763 116.701 242.702 118.102 242.622C118.819 242.581 119.533 242.491 120.25 242.453C121.395 242.392 122.541 242.363 123.686 242.315C124.813 242.27 125.936 242.222 127.062 242.168C127.293 242.158 127.523 242.117 127.754 242.085C128.128 242.034 128.499 241.954 128.874 241.925C129.318 241.893 129.77 241.941 130.211 241.893C132.429 241.653 134.659 241.653 136.88 241.438C139.267 241.208 141.677 241.205 144.077 241.106C144.394 241.093 144.73 241.154 145.027 241.074C146.237 240.75 147.482 240.93 148.704 240.789C149.693 240.677 150.698 240.706 151.696 240.651C152.71 240.597 153.718 240.555 154.733 240.43C156.224 240.245 157.744 240.293 159.251 240.206C161.242 240.094 163.235 240.146 165.226 239.909C166.758 239.726 168.32 239.768 169.869 239.726C171.379 239.685 172.89 239.691 174.397 239.634C176.794 239.541 179.19 239.56 181.59 239.426C185.114 239.227 188.65 239.288 192.179 239.218C194.822 239.166 197.466 239.189 200.099 238.84C201.398 238.667 202.723 238.667 204.035 238.597C204.899 238.552 205.779 238.69 206.618 238.354C206.691 238.325 206.784 238.331 206.87 238.331C209.974 238.328 213.082 238.331 216.186 238.315C217.181 238.309 218.179 238.254 219.174 238.194C220.339 238.12 221.488 237.938 222.64 237.73C224.445 237.403 226.134 236.805 227.712 235.902C229.478 234.891 230.541 233.378 230.803 231.33C230.854 230.939 230.992 230.558 231.082 230.171C231.12 230.011 231.181 229.832 231.146 229.682C230.883 228.594 230.349 227.723 229.21 227.346L229.206 227.342ZM201.421 70.504C203.434 70.4336 205.45 70.3792 207.462 70.3088C208.045 70.2896 208.608 70.3696 209.13 70.6256C209.283 70.6992 209.498 70.8784 209.488 70.9968C209.475 71.1696 209.322 71.3872 209.168 71.4864C208.982 71.6048 208.733 71.6624 208.509 71.6688C205.69 71.7552 202.867 71.832 200.048 71.896C199.405 71.9088 199.104 71.5408 198.963 70.6224C199.818 70.5808 200.621 70.5328 201.421 70.504ZM186.63 70.1392C188.992 69.896 191.363 69.7808 193.738 69.7456C194.058 69.7424 194.378 69.7456 194.691 69.704C195.072 69.6592 195.267 69.816 195.418 70.1616C196.118 71.7808 196.858 73.3808 197.549 75C198.166 76.4432 198.742 77.9088 199.334 79.3616C199.376 79.4608 199.411 79.56 199.459 79.656C201.309 83.3232 202.717 87.1792 204.291 90.9648C205.229 93.2208 206.237 95.4512 207.107 97.7328C208.694 101.902 210.365 106.043 211.696 110.306C211.763 110.526 211.827 110.747 211.93 111.093C211.04 111.317 210.25 111.57 209.44 111.704C208.205 111.906 206.957 112.043 205.709 112.174C203.722 112.382 201.731 112.558 199.747 112.766C199.261 112.818 198.787 112.942 198.304 113.019C197.792 113.102 197.763 113.09 197.613 112.616C197.446 112.091 197.293 111.56 197.152 111.026C196.765 109.525 196.403 108.014 196.006 106.517C194.659 101.445 193.293 96.376 191.946 91.304C191.456 89.4544 191.002 87.5984 190.525 85.7456C190.022 83.7936 189.491 81.8448 189.005 79.8896C188.438 77.6208 187.923 75.3424 187.357 73.0768C187.155 72.2768 186.87 71.496 186.627 70.7056C186.579 70.5488 186.541 70.3888 186.506 70.2544C186.573 70.1904 186.602 70.1424 186.634 70.1392H186.63ZM211.309 114.706C211.11 115.637 211.312 116.498 211.05 117.362C210.861 117.979 210.902 118.664 210.832 119.317C210.64 121.122 210.291 122.914 209.629 124.584C209.034 126.088 208.035 127.352 206.538 128.19C205.107 128.994 203.622 129.246 202.061 128.93C200.778 128.67 199.642 128.046 198.989 126.85C198.493 125.941 198.074 124.981 197.706 124.008C197.395 123.186 197.373 122.306 197.51 121.426C197.68 120.357 197.853 119.288 197.987 118.213C198.067 117.56 198.086 116.901 198.112 116.242C198.122 115.963 198.208 115.803 198.509 115.784C199.757 115.694 201.008 115.595 202.256 115.502C202.339 115.496 202.429 115.515 202.509 115.496C204.048 115.144 205.629 115.176 207.178 114.984C208.275 114.846 209.373 114.805 210.467 114.702C210.71 114.68 210.96 114.699 211.309 114.699V114.706ZM172.835 71.592C173.03 71.4768 173.261 71.4 173.485 71.3648C173.862 71.3072 174.246 71.2784 174.627 71.272C175.862 71.2496 177.059 70.9328 178.282 70.8368C179.718 70.7216 181.165 70.6928 182.605 70.648C183.066 70.6352 183.149 70.7568 183.149 71.2272C183.149 71.6656 183.085 71.7424 182.64 71.7776C182.282 71.8064 181.92 71.816 181.558 71.8384C179.658 71.9632 177.757 72.0912 175.856 72.2192C175.856 72.2032 175.856 72.1872 175.853 72.168C175.005 72.168 174.154 72.168 173.306 72.168C173.2 72.168 173.085 72.1872 172.989 72.152C172.864 72.1072 172.669 72.0368 172.656 71.9504C172.637 71.8416 172.736 71.6528 172.838 71.592H172.835ZM152.541 71.6368C152.749 71.6368 152.912 71.6464 153.075 71.6368C153.43 71.608 153.786 71.5696 154.141 71.5312C154.435 71.496 154.726 71.4256 155.018 71.4192C156.166 71.3904 157.318 71.4384 158.461 71.3456C160.73 71.16 163.005 71.2208 165.267 71.064C166.106 71.0064 166.944 70.9136 167.789 70.8976C167.997 70.8944 168.205 70.9168 168.451 70.9296C168.614 71.8256 168.784 72.6768 168.925 73.5312C169.219 75.3136 169.51 77.096 169.776 78.8816C170.016 80.5008 170.218 82.1232 170.438 83.7456C170.819 86.5456 171.219 89.3456 171.581 92.1488C171.814 93.9824 172 95.8224 172.192 97.6624C172.346 99.1216 172.477 100.581 172.624 102.04C172.73 103.096 172.854 104.149 172.944 105.205C173.034 106.242 173.088 107.282 173.171 108.318C173.293 109.8 173.424 111.282 173.552 112.76C173.565 112.907 173.571 113.058 173.587 113.205C173.613 113.467 173.485 113.605 173.235 113.64C173.046 113.669 172.858 113.688 172.666 113.71C172.266 113.762 171.866 113.813 171.466 113.864C171.149 113.906 170.835 113.963 170.518 113.986C167.19 114.229 163.859 114.456 160.531 114.706C158.794 114.837 157.056 115 155.322 115.144C155.181 115.157 155.034 115.131 154.813 115.122C154.765 114.011 154.723 112.971 154.675 111.934C154.637 111.106 154.595 110.28 154.55 109.451C154.55 109.41 154.55 109.362 154.531 109.326C154.141 108.616 154.294 107.842 154.259 107.086C154.186 105.387 154.093 103.688 153.997 101.992C153.962 101.384 153.968 100.779 153.824 100.165C153.677 99.5376 153.782 98.856 153.75 98.1968C153.693 97.0736 153.606 95.9536 153.542 94.8304C153.51 94.2352 153.498 93.64 153.478 93.048C153.475 92.92 153.514 92.7856 153.478 92.6672C153.117 91.3104 153.318 89.9216 153.226 88.5488C153.149 87.4064 153.11 86.2608 153.075 85.1152C153.037 83.928 153.024 82.7376 152.998 81.5504C152.998 81.4448 152.998 81.3296 152.954 81.24C152.656 80.6416 152.742 80.0048 152.726 79.368C152.678 77.3712 152.592 75.3712 152.518 73.3744C152.502 72.9712 152.486 72.568 152.48 72.1616C152.48 71.9984 152.512 71.8384 152.531 71.64L152.541 71.6368ZM173.315 117.128C173.178 118.542 173.072 119.963 172.886 121.371C172.563 123.819 172.096 126.242 171.142 128.536C170.867 129.198 170.502 129.829 170.154 130.459C169.786 131.115 169.213 131.586 168.518 131.819C167.312 132.229 166.099 132.651 164.854 132.894C162.912 133.275 161.098 132.834 159.472 131.672C158.813 131.202 158.314 130.61 158.013 129.858C157.459 128.475 156.963 127.083 156.618 125.627C156.288 124.251 156.259 122.859 156.115 121.47C156.026 120.606 155.923 119.739 155.83 118.875C155.814 118.731 155.811 118.587 155.795 118.382C156.022 118.347 156.224 118.302 156.429 118.286C159.181 118.04 161.933 117.803 164.682 117.557C167.178 117.333 169.67 117.096 172.166 116.875C172.518 116.843 172.88 116.872 173.274 116.872C173.299 117 173.328 117.064 173.322 117.125L173.315 117.128ZM138.237 72.2736C138.49 72.2544 138.698 72.232 138.902 72.2256C139.92 72.1936 140.947 72.2384 141.955 72.12C143.69 71.9184 145.427 72.0016 147.165 71.928C147.27 71.9248 147.395 71.8832 147.478 71.9216C147.613 71.9888 147.805 72.104 147.814 72.2064C147.824 72.3312 147.69 72.536 147.568 72.5872C147.382 72.6672 147.155 72.6544 146.944 72.6608C145.712 72.696 144.48 72.7184 143.251 72.7568C141.872 72.8016 140.496 72.8624 139.117 72.9136C138.97 72.92 138.819 72.9264 138.672 72.9136C138.336 72.8848 138.186 72.6992 138.237 72.2704V72.2736ZM114.234 116.251C114.288 114.507 114.349 112.766 114.403 111.026C114.422 110.453 114.442 109.877 114.435 109.304C114.432 108.958 114.454 108.638 114.634 108.325C114.72 108.171 114.72 107.96 114.726 107.771C114.784 105.944 114.835 104.12 114.893 102.293C114.909 101.803 114.928 101.317 114.957 100.827C115.024 99.6656 115.174 98.5104 115.2 97.3424C115.245 95.24 115.389 93.1408 115.491 91.0384C115.491 90.9744 115.491 90.9072 115.507 90.8496C115.866 89.6208 115.77 88.3376 115.958 87.0864C116.144 85.848 116.294 84.6032 116.435 83.3552C116.637 81.5856 116.813 79.816 117.002 78.0464C117.149 76.6736 117.302 75.3008 117.453 73.928C117.526 73.2656 117.565 73.2208 118.237 73.2048C119.51 73.176 120.787 73.1568 122.061 73.1344C122.125 73.1344 122.192 73.1472 122.25 73.128C123.306 72.7728 124.4 72.9712 125.475 72.9008C127.024 72.7984 128.582 72.808 130.115 72.6096C131.194 72.4688 132.272 72.4464 133.35 72.3728C133.6 72.3568 133.853 72.3728 134.118 72.3728C134.314 72.9072 134.285 73.4224 134.282 73.9184C134.25 77.7872 134.202 81.656 134.15 85.5248C134.134 86.8208 134.118 88.12 134.064 89.416C134.013 90.5808 133.901 91.7424 133.83 92.904C133.789 93.5824 133.77 94.264 133.747 94.9424C133.712 96.1296 133.61 97.3072 133.405 98.4848C133.248 99.3776 133.27 100.302 133.226 101.214C133.142 102.952 133.155 104.69 132.874 106.418C132.723 107.333 132.765 108.28 132.726 109.214C132.675 110.466 132.63 111.72 132.582 112.974C132.582 113.016 132.592 113.064 132.576 113.102C132.134 114.139 132.374 115.24 132.266 116.309C132.182 117.138 132.202 117.154 131.37 117.157C126.266 117.166 121.162 117.176 116.058 117.182C115.59 117.182 115.123 117.189 114.653 117.179C114.531 117.179 114.413 117.125 114.221 117.077C114.221 116.795 114.214 116.526 114.221 116.254L114.234 116.251ZM131.587 121.333C131.536 122.498 131.578 123.672 131.27 124.814C131.21 125.035 131.232 125.278 131.219 125.512C131.117 127.352 130.736 129.128 130.067 130.846C129.722 131.739 129.178 132.475 128.48 133.125C126.941 134.562 125.117 135.346 123.027 135.435C122.154 135.474 121.312 135.186 120.566 134.69C120.426 134.597 120.288 134.491 120.141 134.408C117.91 133.128 116.614 131.154 115.914 128.734C115.469 127.195 115.187 125.637 115.187 124.027C115.187 123.502 115.043 122.978 115.014 122.45C114.982 121.842 115.008 121.23 115.008 120.517C115.446 120.482 115.802 120.43 116.157 120.43C121.002 120.421 125.85 120.414 130.694 120.414C131.61 120.414 131.626 120.424 131.587 121.339V121.333ZM103.635 75.6144C103.792 75.3232 104.032 75.1344 104.39 75.1056C104.918 75.064 105.443 74.9648 105.971 74.9392C107.03 74.8848 108.093 74.8624 109.155 74.8272C109.155 74.8144 109.155 74.8016 109.155 74.7856C110.387 74.7856 111.619 74.7856 112.851 74.7856C113.325 74.7856 113.514 75.0544 113.344 75.4672C113.242 75.7168 113.024 75.7136 112.813 75.7264C111.69 75.7968 110.566 75.8928 109.443 75.928C108.128 75.9728 106.81 75.9536 105.491 75.9888C105.098 75.9984 104.704 76.104 104.31 76.1712C104.205 76.1872 104.099 76.2448 104 76.2288C103.846 76.2032 103.626 76.1744 103.568 76.0688C103.507 75.96 103.565 75.7424 103.635 75.608V75.6144ZM86.112 77.6816C86.3296 76.9712 86.4608 76.2352 86.6688 75.5216C86.864 74.8528 86.9152 74.8272 87.6032 74.8016C88.6656 74.7568 89.728 74.744 90.7904 74.6768C91.6096 74.6256 92.4256 74.4816 93.248 74.4432C94.9888 74.36 96.7328 74.3184 98.4736 74.264C98.8928 74.2512 99.312 74.264 99.808 74.264C99.7408 74.552 99.664 74.824 99.6128 75.1024C99.5584 75.3936 99.5424 75.6944 99.4784 75.9856C98.96 78.3312 98.4256 80.6736 97.9168 83.0192C97.488 84.9936 97.1264 86.9808 96.6688 88.9456C96.2752 90.6416 95.7536 92.3088 95.3504 94.0048C95.0272 95.368 94.7936 96.7536 94.5184 98.1264C94.192 99.752 93.792 101.368 93.5488 103.006C93.1488 105.701 92.624 108.37 92.0544 111.029C91.76 112.398 91.5872 113.794 91.3504 115.179C91.2896 115.534 91.2224 115.89 91.1296 116.238C91.0016 116.725 90.9408 116.773 90.4256 116.798C88.5152 116.894 86.6016 117.01 84.6912 117.067C81.8432 117.15 78.992 117.192 76.144 117.25C75.9136 117.253 75.6864 117.25 75.3888 117.25C75.4176 116.158 75.6448 115.208 75.8656 114.261C76.432 111.819 77.0112 109.378 77.5968 106.939C77.7216 106.424 77.904 105.922 78.0512 105.413C78.3968 104.21 78.7488 103.003 79.0784 101.797C80.1248 97.9632 81.136 94.1168 82.2176 90.2928C82.9472 87.7168 83.7696 85.1664 84.5632 82.6096C85.072 80.9648 85.6128 79.3296 86.1152 77.6816H86.112ZM90.8512 121.368C90.8672 122.389 90.88 123.403 91.1584 124.402C91.312 124.949 91.2352 125.566 91.4304 126.094C91.7536 126.981 91.744 127.886 91.7792 128.798C91.7856 128.968 91.792 129.15 91.7344 129.301C91.4816 129.976 91.248 130.664 90.9312 131.31C90.3104 132.574 89.2288 133.285 87.9072 133.672C86.9184 133.963 85.9104 134.085 85.216 134.069C83.1168 134.075 81.4688 133.675 79.9872 132.686C79.2416 132.19 78.656 131.557 78.3552 130.702C77.8144 129.16 77.2768 127.614 76.7616 126.066C76.6496 125.726 76.608 125.358 76.5664 125.003C76.4096 123.675 76.2528 122.347 76.1184 121.019C76.0608 120.446 76.0832 120.421 76.624 120.379C77.7664 120.29 78.912 120.222 80.0544 120.146C80.1376 120.139 80.2368 120.162 80.3072 120.13C80.912 119.842 81.5584 119.931 82.192 119.912C84.8064 119.835 87.4208 119.765 90.032 119.691C90.16 119.688 90.288 119.682 90.416 119.678C90.704 119.669 90.848 119.797 90.8448 120.098C90.8384 120.523 90.8448 120.949 90.8512 121.374V121.368ZM72.5856 76.4528C73.4176 76.1904 74.2592 76.0144 75.1392 75.9728C76.5376 75.9088 77.9296 75.7456 79.328 75.6592C80.2816 75.6016 81.2352 75.592 82.192 75.5792C82.4032 75.5792 82.6176 75.6528 82.832 75.6944C82.0896 76.1744 72.7904 77.0192 71.8496 76.792C72.1568 76.648 72.3648 76.52 72.5888 76.4496L72.5856 76.4528ZM214.458 156.779C214.131 166.325 214.346 175.87 214.17 185.416C214.109 188.67 214.026 191.922 213.936 195.176C213.878 197.301 213.914 199.438 213.67 201.544C213.462 203.365 213.549 205.189 213.373 207C213.062 210.226 213.194 213.454 213.226 216.683C213.248 218.891 213.411 221.099 213.51 223.307C213.51 223.371 213.51 223.438 213.53 223.496C213.933 224.75 213.786 226.066 213.923 227.349C214.035 228.402 213.549 229.298 212.733 229.886C211.757 230.594 210.685 231.176 209.616 231.742C209.219 231.954 208.723 232.024 208.266 232.062C207.27 232.142 206.272 232.178 205.277 232.203C204.71 232.216 204.138 232.107 203.6 232.402C203.498 232.456 203.35 232.434 203.222 232.434C199.267 232.44 195.312 232.443 191.354 232.446C190.746 232.446 190.15 232.507 189.555 232.194C189.238 232.027 188.765 232.123 188.368 232.162C187.706 232.222 187.056 232.213 186.41 232.034C186.253 231.989 186.045 231.966 185.91 232.034C185.491 232.245 185.082 232.091 184.669 232.062C184.269 232.034 183.869 231.979 183.469 231.97C183.008 231.96 182.544 232.04 182.106 231.79C181.952 231.704 181.734 231.723 181.546 231.71C180.166 231.618 178.787 231.557 177.414 231.429C176.762 231.368 176.122 231.182 175.475 231.058C175.018 230.968 174.768 230.651 174.688 230.235C174.554 229.55 174.381 228.853 174.381 228.162C174.384 222.59 174.435 217.016 174.451 211.445C174.467 205.298 174.454 199.15 174.454 193.003C174.48 193.003 174.502 193.003 174.528 193.003C174.528 187.134 174.534 181.262 174.528 175.394C174.518 169.8 174.502 164.206 174.47 158.613C174.458 156.248 175.171 154.101 176.285 152.053C176.97 150.795 178.077 150.187 179.408 149.838C180.88 149.454 182.394 149.448 183.891 149.275C185.178 149.128 186.458 148.949 187.747 148.821C189.965 148.6 192.186 148.414 194.406 148.206C195.101 148.142 195.789 148.037 196.483 147.97C197.35 147.886 198.218 147.794 199.085 147.758C200.339 147.707 201.594 147.704 202.848 147.682C202.954 147.682 203.069 147.717 203.165 147.688C204.518 147.301 205.914 147.531 207.283 147.432C207.898 147.387 208.509 147.317 209.123 147.259C209.146 147.259 209.165 147.25 209.187 147.25C210.461 147.317 211.693 146.907 212.963 146.923C213.808 146.936 214.083 147.096 214.227 147.928C214.336 148.555 214.416 149.192 214.426 149.826C214.464 152.142 214.544 154.466 214.467 156.779H214.458ZM223.725 222.334C224.131 224.267 223.933 226.229 223.965 228.178C223.981 229.09 223.43 229.755 222.666 230.165C222.054 230.491 221.382 230.741 220.71 230.904C219.866 231.109 218.995 231.23 218.131 231.314C217.658 231.362 217.168 231.259 216.685 231.221C216.291 231.189 215.898 231.157 215.434 231.115C215.514 230.949 215.549 230.834 215.613 230.741C215.91 230.331 216.262 229.95 216.506 229.509C216.682 229.186 216.797 228.786 216.8 228.421C216.813 226.997 216.89 225.56 216.726 224.152C216.448 221.739 216.499 219.317 216.317 216.901C216.096 213.998 216.214 211.08 216.422 208.168C216.509 206.981 216.474 205.787 216.496 204.597C216.496 204.45 216.451 204.264 216.522 204.158C216.861 203.646 216.723 203.09 216.73 202.546C216.768 200.101 216.803 197.653 216.848 195.208C216.886 193.211 216.941 191.211 216.986 189.214C216.986 189.086 216.957 188.933 217.014 188.84C217.334 188.328 217.222 187.771 217.229 187.224C217.258 182.99 217.28 178.757 217.315 174.526C217.334 172.018 217.363 169.509 217.398 167C217.421 165.576 217.466 164.152 217.504 162.728C217.504 162.622 217.491 162.494 217.546 162.418C217.875 161.944 217.827 161.403 217.827 160.875C217.84 156.747 217.872 152.622 217.846 148.494C217.837 147.074 217.312 145.794 216.371 144.712C215.83 144.088 215.142 143.765 214.285 143.803C212.947 143.861 211.606 143.851 210.269 143.928C209.066 143.995 207.866 144.162 206.662 144.245C205.606 144.318 204.55 144.338 203.494 144.382C203.366 144.389 203.232 144.373 203.117 144.414C202.275 144.702 201.389 144.606 200.531 144.734C199.466 144.891 198.384 144.818 197.315 145.038C196.24 145.259 195.12 145.259 194.019 145.368C192.982 145.47 191.949 145.595 190.915 145.704C188.931 145.909 186.944 146.114 184.96 146.306C184.48 146.35 183.997 146.344 183.514 146.363C183.45 146.363 183.382 146.37 183.328 146.395C182.666 146.702 181.958 146.632 181.261 146.667C179.747 146.744 178.269 147.038 176.845 147.56C175.786 147.947 175.005 148.642 174.422 149.621C173.213 151.653 172.387 153.822 171.898 156.13C171.77 156.731 171.613 157.307 171.616 157.941C171.638 163.429 171.645 168.917 171.616 174.405C171.555 185.656 171.453 196.907 171.395 208.162C171.36 214.926 171.379 221.691 171.376 228.456C171.376 228.731 171.389 229.01 171.389 229.285C171.389 230.133 171.747 230.795 172.387 231.333C172.589 231.499 172.762 231.701 173.008 231.944C172.822 231.998 172.749 232.037 172.672 232.04C171.293 232.094 169.91 232.146 168.531 232.2C168.384 232.206 168.205 232.178 168.096 232.248C167.667 232.526 167.197 232.443 166.736 232.469C165.59 232.533 164.445 232.606 163.299 232.674C163.066 232.686 162.832 232.686 162.598 232.693C162.451 232.696 162.285 232.661 162.154 232.712C160.989 233.163 159.766 233 158.57 233.061C156.746 233.15 154.918 233.176 153.094 233.262C151.955 233.317 150.819 233.454 149.677 233.509C147.574 233.605 145.472 233.666 143.37 233.746C143.158 233.752 142.947 233.778 142.736 233.8C142.211 233.858 141.686 233.947 141.162 233.979C139.466 234.088 137.754 234.091 136.07 234.306C134.653 234.485 133.229 234.466 131.814 234.603C131.056 234.677 130.288 234.686 129.526 234.728C129.443 234.731 129.344 234.728 129.277 234.766C128.723 235.067 128.128 234.974 127.536 234.994C126.496 235.026 125.456 235.099 124.416 235.154C123.802 235.186 123.184 235.208 122.57 235.259C122.106 235.298 121.645 235.374 121.184 235.435C120.995 235.461 120.806 235.499 120.618 235.509C119.069 235.582 117.52 235.653 115.971 235.714C115.165 235.746 114.355 235.755 113.549 235.784C113.36 235.79 113.139 235.768 112.986 235.854C112.627 236.062 112.25 236.018 111.872 236.024C110.301 236.046 108.717 235.97 107.158 236.12C105.142 236.315 103.11 236.114 101.114 236.347C98.8224 236.616 96.5408 236.472 94.256 236.53C91.9584 236.587 89.6608 236.558 87.3632 236.558C85.0656 236.558 82.768 236.542 80.4704 236.536C80.0448 236.536 79.6192 236.536 79.1936 236.533C78.6432 236.533 78.1056 236.517 77.5584 236.354C77.0592 236.206 76.5056 236.216 75.9776 236.2C74.768 236.158 73.6448 235.762 72.5184 235.378C71.6736 235.09 71.1744 234.414 70.7392 233.714C70.5664 233.432 70.5632 233.016 70.5568 232.661C70.5248 230.853 70.5216 229.045 70.4992 227.237C70.48 225.726 70.4416 224.216 70.4128 222.706C70.3616 220.219 70.304 217.73 70.2656 215.243C70.256 214.696 70.3296 214.149 70.0832 213.627C70.016 213.483 70.0384 213.291 70.0352 213.122C69.9712 210.251 69.9072 207.381 69.8464 204.514C69.8208 203.346 69.8112 202.178 69.792 201.01C69.792 200.926 69.8144 200.821 69.776 200.76C69.3696 200.117 69.52 199.4 69.5072 198.709C69.4368 195.115 69.3728 191.525 69.3088 187.931C69.2736 185.806 69.2448 183.682 69.2128 181.557C69.2128 181.493 69.2256 181.422 69.2032 181.368C68.7456 180.149 69.0048 178.882 68.9792 177.64C68.8768 172.645 68.816 167.646 68.752 162.648C68.7168 159.947 68.7008 157.246 68.6752 154.546C68.6752 154.418 68.6976 154.274 68.6464 154.168C68.2944 153.458 68.464 152.706 68.4608 151.973C68.4448 149.845 68.4608 147.72 68.4384 145.592C68.4128 143.211 68.3616 140.83 68.3232 138.45C68.3232 138.299 68.3136 138.152 68.3232 138.002C68.3552 137.531 68.4128 137.451 68.88 137.387C69.8304 137.259 70.7648 137.109 71.664 136.741C72.5376 136.382 73.36 135.954 74.0864 135.352C74.3488 135.134 74.6272 134.936 74.8768 134.706C75.2928 134.325 75.6928 133.922 76.1216 133.506C76.8544 133.976 77.6384 134.478 78.4192 134.981C79.6448 135.771 80.9632 136.341 82.3872 136.674C83.0016 136.818 83.6704 136.69 84.2464 137.038C85.072 136.827 85.9488 137.192 86.7616 136.811C86.912 136.741 87.0912 136.722 87.2576 136.706C89.68 136.453 91.6288 135.272 93.3312 133.614C93.5104 133.438 93.632 133.208 93.7792 133C93.872 132.869 93.9616 132.738 94.0608 132.594C94.3904 133.282 94.6752 133.938 95.0112 134.562C95.7216 135.883 96.688 136.958 98.0416 137.659C98.6464 137.973 99.2096 138.36 99.8208 138.661C100.272 138.882 100.758 139.067 101.248 139.179C101.99 139.349 102.749 139.464 103.507 139.56C104.95 139.746 106.358 139.451 107.722 139.054C108.973 138.69 110.058 137.95 110.998 137.026C112.192 135.851 112.995 134.389 113.965 133.045C114.048 132.93 114.134 132.811 114.282 132.613C114.522 132.917 114.733 133.166 114.925 133.432C115.757 134.571 116.659 135.624 117.843 136.43C119.334 137.445 120.976 137.931 122.752 138.008C123.706 138.05 124.656 138.059 125.61 137.858C127.395 137.477 128.886 136.558 130.221 135.381C131.386 134.35 132.435 133.202 133.078 131.749C133.136 131.621 133.251 131.522 133.354 131.394C133.421 131.464 133.482 131.499 133.498 131.55C133.75 132.338 133.978 133.134 134.25 133.912C134.352 134.206 134.531 134.482 134.714 134.738C135.731 136.152 137.024 137.278 138.429 138.293C139.034 138.728 139.594 139.224 140.339 139.403C140.752 139.502 141.168 139.582 141.584 139.656C141.77 139.688 141.978 139.65 142.154 139.71C142.698 139.899 143.222 139.877 143.773 139.717C144.042 139.637 144.365 139.758 144.653 139.717C146.419 139.483 148.118 139.064 149.536 137.89C149.894 137.592 150.298 137.349 150.669 137.064C151.798 136.203 152.554 135.051 153.152 133.79C153.616 132.814 154.16 131.867 154.371 130.786C154.381 130.731 154.448 130.69 154.55 130.565C154.768 130.843 154.966 131.106 155.174 131.358C156.602 133.106 158.17 134.709 160.371 135.429C164.298 136.712 167.894 136.043 171.05 133.346C172.41 132.184 173.402 130.728 174.061 129.054C174.109 128.936 174.147 128.818 174.202 128.702C174.218 128.667 174.262 128.648 174.355 128.571C174.429 128.763 174.506 128.926 174.554 129.099C175.04 130.824 175.936 132.312 177.002 133.746C177.949 135.019 179.302 135.531 180.653 136.062C181.907 136.555 183.238 136.61 184.605 136.542C187.248 136.414 189.363 135.253 191.238 133.515C192.317 132.517 193.28 131.41 193.981 130.101C194.182 129.726 194.416 129.371 194.643 129.01C194.733 128.866 194.829 128.718 194.954 128.606C195.427 128.19 195.917 127.79 196.432 127.358C196.541 127.493 196.64 127.595 196.714 127.717C197.312 128.702 197.971 129.64 198.835 130.414C199.773 131.253 200.832 131.893 202.086 132.066C203.44 132.254 204.787 132.203 206.118 131.768C208.253 131.074 209.875 129.746 211.149 127.944C211.75 127.09 212.512 126.328 212.758 125.256C212.925 125.749 213.05 126.258 213.261 126.731C213.856 128.069 214.832 129.019 216.202 129.586C217.344 130.056 218.493 130.472 219.722 130.68C221.014 130.901 222.301 130.901 223.597 130.821C223.699 130.814 223.805 130.802 223.978 130.789C224.006 130.984 224.054 131.163 224.058 131.342C224.07 132.386 224.083 133.426 224.08 134.469C224.035 156.549 223.99 178.629 223.939 200.709C223.933 204.027 223.91 207.346 223.872 210.664C223.83 214.408 223.763 218.149 223.706 221.893C223.706 222.04 223.693 222.194 223.722 222.338L223.725 222.334Z" fill="#01615F"/>
<path d="M51.2991 101.848C51.7535 102.488 52.4063 102.821 53.1647 102.722C54.0639 102.603 54.6015 101.928 54.6495 100.994C54.6975 100.018 54.7071 99.0384 54.7199 98.0624C54.7359 96.6832 54.7199 95.3072 54.9791 93.9376C55.1935 92.8048 55.4111 91.6784 55.9039 90.6352C56.3455 89.6976 56.6975 88.696 57.4463 87.9408C58.0735 87.3072 58.4607 86.5296 58.8607 85.7584C59.0111 85.4672 59.0559 85.1088 59.1007 84.776C59.1583 84.3216 58.9727 83.9504 58.6271 83.6496C57.9359 83.0448 57.2031 82.936 56.3903 83.3648C56.0735 83.5312 55.7663 83.736 55.4943 83.9696C54.5535 84.7792 53.7567 85.7136 53.1231 86.7856C51.2127 90.0048 50.5183 93.5312 50.4927 97.5184C50.5183 98.0912 50.5471 98.9616 50.5951 99.832C50.6367 100.571 50.8703 101.25 51.2991 101.854V101.848Z" fill="#01615F"/>
<path d="M58.48 196.622C57.7344 196.094 56.9664 195.602 56.2368 195.058C55.92 194.821 55.6192 194.52 55.4048 194.187C54.96 193.493 54.5248 192.782 54.176 192.034C53.4336 190.45 53.0784 188.734 52.5824 187.067C52.4672 186.683 52.3424 186.293 52.1504 185.944C51.7696 185.256 51.0272 185.019 50.352 185.4C50.016 185.589 49.7056 185.89 49.4816 186.206C49.1072 186.738 48.9632 187.365 49.008 188.024C49.0144 188.171 49.0176 188.322 49.0304 188.469C49.0368 188.574 49.0496 188.68 49.0688 188.786C49.5328 191.378 50.2944 193.864 51.6896 196.12C52.0832 196.757 52.5248 197.381 53.168 197.768C54.5664 198.613 55.9904 199.413 57.4208 200.203C57.8912 200.462 58.4256 200.539 58.9696 200.501C59.6 200.456 60.0608 200.11 60.2304 199.506C60.432 198.782 60.3296 198.101 59.7472 197.579C59.3536 197.227 58.9152 196.923 58.48 196.619V196.622Z" fill="#01615F"/>
<path d="M240.995 195.352C240.166 195.198 239.174 195.371 238.793 196.405C238.662 196.763 238.525 197.122 238.409 197.483C237.878 199.131 237.088 200.613 235.686 201.691C235.337 201.96 234.966 202.213 234.573 202.408C233.888 202.744 233.177 203.029 232.477 203.33C232.112 203.486 231.84 203.723 231.651 204.082C231.245 204.84 231.555 205.499 231.958 206.104C232.406 206.77 233.174 206.978 233.875 206.85C234.758 206.69 235.657 206.45 236.425 205.909C236.755 205.678 237.129 205.515 237.459 205.285C237.926 204.958 238.393 204.626 238.816 204.245C239.225 203.877 239.574 203.442 239.955 203.045C241.526 201.419 242.099 199.378 242.403 197.259C242.429 196.312 241.849 195.512 240.992 195.352H240.995Z" fill="#01615F"/>
<path d="M237.194 160.818C238.077 160.757 238.714 160.261 239.226 159.627C239.837 158.869 240.41 158.069 240.925 157.243C241.51 156.306 242.013 155.314 242.006 154.158C242.006 154.034 242.058 153.909 242.08 153.784C242.198 153.163 242.317 152.542 242.438 151.906C242.301 151.035 242.205 150.168 242.019 149.323C241.77 148.19 240.909 147.605 239.763 147.701C238.957 147.768 238.483 148.251 238.4 149.038C238.269 150.306 238.106 151.57 237.974 152.837C237.878 153.758 237.584 154.616 237.232 155.464C236.925 156.21 236.458 156.818 235.84 157.336C235.536 157.592 235.277 157.915 235.053 158.245C234.749 158.686 234.774 159.163 235.027 159.634C235.424 160.379 236.358 160.878 237.2 160.821L237.194 160.818Z" fill="#01615F"/>
<path d="M110.445 224.418C109.491 224.35 108.534 224.293 107.581 224.325C104.525 224.427 101.469 224.501 98.4159 224.747C95.4303 224.99 92.5151 225.445 89.7663 226.699C88.7039 227.186 87.6127 227.608 86.6527 228.293C86.2271 228.597 85.8943 228.955 85.7919 229.586C86.4319 229.71 87.0047 229.666 87.5615 229.576C90.0767 229.166 92.5791 228.686 95.0975 228.312C98.1215 227.864 101.155 227.48 104.189 227.102C106.23 226.85 108.281 226.667 110.326 226.421C110.694 226.376 111.046 226.184 111.398 226.04C111.683 225.925 111.734 225.688 111.667 225.406C111.52 224.779 111.187 224.469 110.441 224.414L110.445 224.418Z" fill="#01615F"/>
<path d="M221.024 138.229C219.421 138.347 217.802 138.072 216.211 138.459C216.112 138.485 216 138.469 215.894 138.469C214.493 138.469 213.091 138.469 211.69 138.469V138.523C210.31 138.523 208.928 138.562 207.549 138.507C206.765 138.475 206.269 138.869 205.821 139.397C205.693 139.547 205.603 139.781 205.606 139.973C205.616 140.35 205.68 140.728 205.763 141.099C205.859 141.522 206.163 141.752 206.592 141.758C207.27 141.768 207.952 141.787 208.624 141.72C209.232 141.659 209.824 141.448 210.448 141.605C210.525 141.624 210.634 141.621 210.698 141.579C211.222 141.24 211.805 141.355 212.371 141.346C214.87 141.301 217.354 141.09 219.834 140.782C220.317 140.722 220.816 140.77 221.293 140.686C221.677 140.619 222.077 140.491 222.41 140.29C222.787 140.059 222.838 139.682 222.634 139.285C222.298 138.632 221.773 138.174 221.024 138.232V138.229Z" fill="#01615F"/>
<path d="M155.744 221.733C155.43 221.566 155.078 221.458 154.729 221.384C154.15 221.262 153.581 221.144 153.024 220.91C152.502 220.69 151.936 220.536 151.373 220.443C149.859 220.187 148.333 220.149 146.8 220.258C144.038 220.456 141.328 220.971 138.617 221.506C138.163 221.595 137.718 221.758 137.28 221.915C136.87 222.066 136.55 222.347 136.323 222.722C136.067 223.141 136.077 223.656 136.381 224.034C136.477 224.155 136.643 224.29 136.784 224.296C137.334 224.322 137.894 224.357 138.432 224.277C139.859 224.062 141.27 223.762 142.697 223.544C144.525 223.266 146.361 223.054 148.185 222.766C149.062 222.629 149.92 222.382 150.787 222.19C151.037 222.136 151.286 222.062 151.539 222.062C152.461 222.069 153.347 221.941 154.173 221.509C154.179 221.506 154.205 221.534 154.249 221.573C154.029 221.845 153.712 221.941 153.411 222.069C153.27 222.126 153.059 222.274 153.065 222.366C153.078 222.526 153.2 222.734 153.341 222.814C153.67 223 154.032 223.138 154.393 223.262C155.126 223.512 155.616 223.31 155.981 222.642C156.201 222.238 156.157 221.95 155.747 221.733H155.744Z" fill="#01615F"/>
<path d="M103.03 229.909C102.691 229.915 102.349 229.928 102.013 229.966C99.4814 230.248 96.947 230.52 94.419 230.834C92.691 231.048 90.9726 231.32 89.251 231.573C88.3806 231.701 87.7438 232.222 87.1774 232.846C86.9758 233.067 86.8094 233.323 87.0014 233.675C87.107 233.698 87.2286 233.742 87.3502 233.739C89.1966 233.714 91.0462 233.739 92.8894 233.637C95.1326 233.509 97.3726 233.288 99.6126 233.067C100.646 232.965 101.68 232.821 102.691 232.59C103.766 232.344 104.192 231.474 103.84 230.504C103.699 230.117 103.443 229.906 103.03 229.915V229.909Z" fill="#01615F"/>
<path d="M94.7744 222.059C96.5152 222.024 98.256 221.995 99.4528 221.973C102.304 221.806 104.624 221.918 106.915 221.496C107.699 221.352 108.163 220.866 108.122 220.062C108.074 219.115 107.779 218.85 106.8 218.872C106.714 218.872 106.63 218.875 106.544 218.882C105.213 218.962 103.878 219.051 102.547 219.118C100.746 219.211 98.9376 219.266 97.136 219.381C96.1856 219.442 95.2352 219.57 94.2944 219.717C93.952 219.771 93.6032 219.934 93.3056 220.126C92.8768 220.405 92.832 220.808 93.1392 221.224C93.5424 221.768 94.0704 222.075 94.7712 222.062L94.7744 222.059Z" fill="#01615F"/>
<path d="M152.41 225.55C150.486 225.41 148.605 225.685 146.736 226.094C146.614 226.12 146.489 226.168 146.377 226.229C145.552 226.667 145.322 227.63 145.846 228.398C146.256 228.997 146.822 229.355 147.546 229.384C148.352 229.416 149.158 229.39 149.965 229.39C149.965 229.429 149.965 229.464 149.965 229.502C150.624 229.502 151.283 229.474 151.939 229.509C152.931 229.563 153.395 229.042 153.638 228.286C153.734 227.986 153.834 227.675 153.862 227.362C153.955 226.376 153.341 225.618 152.41 225.55Z" fill="#01615F"/>
<path d="M213.331 136.174C213.718 136.258 214.138 136.261 214.531 136.213C215.309 136.12 215.965 135.486 216.058 134.715C216.237 133.237 215.68 132.203 213.971 132.126C213.907 132.126 213.843 132.126 213.779 132.126C213.779 132.114 213.776 132.104 213.773 132.091C213.398 132.152 213.011 132.174 212.65 132.283C212.422 132.35 212.176 132.504 212.035 132.693C211.104 133.957 211.805 135.845 213.331 136.171V136.174Z" fill="#01615F"/>
<path d="M208.685 150.923C207.6 151.208 206.541 151.602 205.475 151.957C205.213 152.043 204.97 152.184 204.707 152.261C202.128 153.022 199.523 153.57 196.81 153.55C195.341 153.541 193.878 153.474 192.422 153.31C191.558 153.214 190.707 152.962 189.846 152.933C187.536 152.853 185.226 152.805 182.915 152.84C181.683 152.859 180.477 153.16 179.306 153.579C178.102 154.011 177.27 154.808 176.874 156.014C176.704 156.533 176.618 157.09 176.582 157.637C176.528 158.485 176.538 159.336 176.544 160.187C176.614 170.523 176.688 180.856 176.765 191.192C176.765 191.403 176.794 191.614 176.813 191.826C176.851 192.286 176.938 192.75 176.925 193.211C176.909 193.784 176.797 194.35 176.758 194.923C176.739 195.192 176.79 195.467 176.826 195.736C176.867 196.046 176.973 196.357 176.976 196.667C176.992 200.197 176.989 203.726 177.008 207.256C177.014 208.213 177.043 209.173 177.136 210.123C177.245 211.211 177.763 212.101 178.675 212.731C179.494 213.301 180.378 213.685 181.405 213.669C181.83 213.662 182.256 213.685 182.682 213.685C186.509 213.685 190.336 213.685 194.166 213.685C194.166 213.707 194.166 213.733 194.166 213.755C197.782 213.755 201.398 213.755 205.011 213.755C205.693 213.755 206.371 213.755 207.053 213.72C208.083 213.669 209.072 213.416 210.013 213.003C210.768 212.674 211.245 212.094 211.334 211.259C211.456 210.142 211.61 209.026 211.645 207.902C211.715 205.627 211.725 203.352 211.747 201.077C211.818 194.654 211.875 188.232 211.955 181.81C211.99 179.134 212.083 176.462 212.134 173.787C212.16 172.405 212.15 171.022 212.16 169.64C212.195 164.514 212.227 159.39 212.275 154.264C212.282 153.579 212.115 152.962 211.747 152.392C211.114 151.413 209.667 150.658 208.694 150.914L208.685 150.923ZM209.565 171.384C209.334 176.885 209.306 182.389 209.219 187.89C209.21 188.597 209.216 188.632 208.518 188.808C206.582 189.298 204.64 189.768 202.694 190.216C201.782 190.427 200.861 190.578 199.939 190.738C199.648 190.789 199.35 190.786 199.056 190.805C198.95 190.811 198.832 190.789 198.746 190.83C198.166 191.109 197.546 191.08 196.931 191.09C196.186 191.102 195.437 191.16 194.701 191.096C192.883 190.936 191.066 190.757 189.261 190.494C188.56 190.392 187.894 190.05 187.219 189.794C186.675 189.589 186.406 189.131 186.243 188.606C186.205 188.485 186.173 188.36 186.16 188.232C186.051 187.266 185.466 186.664 184.63 186.264C184.211 186.062 183.795 185.79 183.347 185.714C181.92 185.467 181.603 185.781 181.59 186.952C181.578 188.248 181.587 189.544 181.584 190.84C181.584 192.245 181.594 193.646 181.568 195.051C181.562 195.381 181.398 195.707 181.392 196.037C181.366 197.374 181.251 198.715 181.491 200.046C181.603 200.67 181.872 201.208 182.358 201.637C182.63 201.877 182.934 202.008 183.29 201.97C183.648 201.931 184.022 201.912 184.349 201.778C185.35 201.368 186.358 200.962 187.309 200.453C188.771 199.672 190.189 198.811 191.622 197.976C191.917 197.806 192.198 197.611 192.467 197.406C193.651 196.504 194.835 195.605 196.003 194.683C196.262 194.478 196.474 194.203 196.669 193.931C196.822 193.717 196.986 193.614 197.251 193.634C197.546 193.656 197.846 193.675 198.144 193.65C200.598 193.435 203.037 193.122 205.446 192.597C205.987 192.478 206.534 192.389 207.069 192.251C207.725 192.082 208.368 191.874 209.098 191.659C209.123 191.87 209.168 192.088 209.168 192.306C209.162 194.475 209.168 196.645 209.13 198.811C209.069 201.998 208.982 205.189 208.883 208.376C208.864 209.032 208.771 209.688 208.678 210.338C208.614 210.789 208.467 210.907 208.003 210.955C207.664 210.987 207.325 210.994 206.982 210.994C198.669 211.01 190.352 211.013 182.038 211.058C180.89 211.064 180.451 210.53 180.285 209.544C180.035 208.082 179.891 206.597 179.974 205.099C179.99 204.834 179.914 204.558 179.866 204.29C179.814 204.002 179.696 203.717 179.696 203.432C179.68 194.414 179.68 185.4 179.664 176.382C179.661 174.107 179.61 171.832 179.587 169.557C179.581 168.837 179.603 168.84 180.314 168.725C181.046 168.606 181.773 168.453 182.502 168.299C184.832 167.813 187.158 167.298 189.494 166.84C192.79 166.194 196.093 165.579 199.328 164.67C200.534 164.331 201.725 163.934 202.912 163.528C204.701 162.914 206.48 162.27 208.262 161.634C208.682 161.483 209.088 161.304 209.626 161.09C209.648 161.416 209.68 161.64 209.677 161.864C209.648 165.032 209.696 168.203 209.562 171.368L209.565 171.384ZM194.077 193.672C193.962 193.726 193.843 193.778 193.731 193.838C191.238 195.163 188.88 196.728 186.317 197.918C185.702 198.203 185.069 198.453 184.438 198.709C184.266 198.779 184.08 198.811 183.83 198.882C183.766 198.619 183.674 198.402 183.667 198.184C183.629 196.974 183.619 195.765 183.578 194.555C183.562 194.139 183.472 193.726 183.421 193.31C183.398 193.141 183.376 192.974 183.37 192.805C183.338 191.704 183.309 190.6 183.28 189.499C183.277 189.355 183.28 189.208 183.28 189.048C183.654 188.987 183.779 189.25 183.875 189.454C184.381 190.53 185.229 191.285 186.141 191.995C186.675 192.411 187.267 192.658 187.93 192.773C189.789 193.099 191.645 193.451 193.546 193.435C193.683 193.435 193.824 193.48 193.962 193.506C194 193.56 194.038 193.614 194.074 193.669L194.077 193.672ZM209.11 158.37C207.379 158.955 205.648 159.541 203.926 160.152C199.891 161.582 195.734 162.549 191.587 163.582C188.365 164.386 185.117 165.026 181.837 165.515C181.312 165.592 180.787 165.678 180.259 165.752C180.077 165.778 179.888 165.771 179.613 165.787C179.597 165.41 179.571 165.138 179.571 164.866C179.565 162.549 179.562 160.229 179.565 157.912C179.565 157.16 179.693 157.006 180.39 156.741C181.875 156.174 183.398 155.838 185.002 155.915C187.082 156.014 189.165 156.088 191.245 156.168C191.795 156.19 192.333 156.184 192.87 156.389C193.21 156.52 193.626 156.485 194.006 156.482C196.195 156.462 198.39 156.52 200.57 156.373C202.218 156.264 203.83 155.81 205.411 155.298C206.381 154.984 207.357 154.686 208.336 154.408C209.082 154.197 209.136 154.283 209.334 155.01C209.558 155.835 209.699 156.664 209.709 157.518C209.715 158.171 209.706 158.171 209.11 158.37Z" fill="#01615F"/>
<path d="M148.387 166.978C148.387 166.811 148.336 166.645 148.31 166.478C148.253 166.085 148.154 165.691 148.144 165.294C148.106 163.678 148.118 162.062 148.064 160.446C148.016 159.086 147.318 158.155 146.067 157.592C145.091 157.154 144.074 156.99 143.027 156.99C141.178 156.99 139.331 157.032 137.482 157.058C137.034 157.064 136.589 157.058 136.144 157.093C134.346 157.221 132.547 157.157 130.742 157.282C128.096 157.467 125.427 157.387 122.771 157.442C120.243 157.493 117.718 157.579 115.19 157.637C114 157.662 112.806 157.63 111.619 157.675C110.474 157.717 109.334 157.87 108.189 157.89C102.042 157.995 95.8943 158.059 89.7503 158.171C88.1407 158.2 86.5183 158.046 84.9215 158.408C84.7999 158.437 84.6687 158.402 84.5407 158.402C83.9679 158.408 83.3887 158.382 82.8191 158.437C82.0607 158.51 81.3951 158.808 81.1295 159.592C80.9535 160.11 80.8351 160.661 80.7807 161.205C80.7103 161.944 80.7135 162.693 80.7071 163.435C80.7007 164.133 80.6431 164.84 80.9759 165.499C81.0303 165.605 81.0175 165.749 81.0207 165.874C81.0463 167.576 81.0623 169.275 81.0911 170.978C81.1615 175.019 81.2223 179.061 81.3119 183.099C81.3695 185.691 81.4847 188.28 81.5615 190.872C81.5871 191.742 81.5711 192.616 81.5807 193.49C81.5807 193.736 81.6191 193.982 81.6415 194.283C81.9199 194.267 82.1279 194.267 82.3327 194.238C82.7519 194.174 83.1711 194.094 83.5903 194.024C84.2175 193.918 84.2527 193.896 84.2527 193.25C84.2527 191.442 84.2655 189.634 84.2303 187.826C84.1823 185.403 84.0927 182.981 84.0223 180.555C84.0127 180.238 84.0927 179.883 83.9743 179.618C83.7279 179.061 83.7727 178.501 83.7695 177.931C83.7279 172.763 83.6863 167.595 83.6511 162.424C83.6511 162.107 83.6735 161.787 83.7119 161.47C83.7567 161.112 83.9647 160.894 84.3391 160.862C84.6559 160.834 84.9727 160.782 85.2927 160.776C89.7567 160.693 94.2207 160.59 98.6879 160.542C103.878 160.488 109.069 160.485 114.259 160.459C114.739 160.459 115.232 160.558 115.67 160.232C115.773 160.158 115.958 160.19 116.106 160.19C116.381 160.19 116.659 160.216 116.934 160.206C120.714 160.088 124.496 160.258 128.275 160.046C130.48 159.922 132.698 159.989 134.909 159.963C135.971 159.95 137.043 160.002 138.096 159.886C139.411 159.742 140.726 159.749 142.042 159.72C142.864 159.701 143.642 159.851 144.419 160.088C144.915 160.238 145.229 160.558 145.373 161.029C145.466 161.33 145.517 161.653 145.53 161.966C145.622 164.238 145.763 166.514 145.776 168.786C145.837 180.251 145.866 191.717 145.904 203.182C145.904 203.458 145.894 203.736 145.888 204.011C145.882 204.283 145.789 204.517 145.539 204.651C144.771 205.064 144 205.467 143.101 205.522C141.622 205.611 140.128 205.525 138.675 205.906C138.595 205.928 138.506 205.922 138.422 205.925C137.392 205.957 136.362 205.992 135.331 206.014C133.248 206.059 131.165 206.091 129.082 206.139C128.877 206.142 128.672 206.219 128.467 206.264C128.227 206.315 127.99 206.392 127.747 206.414C127.472 206.44 127.194 206.411 126.918 206.418C124.73 206.478 122.541 206.552 120.352 206.606C117.546 206.674 114.742 206.741 111.936 206.786C108.787 206.834 105.642 206.866 102.493 206.891C97.5359 206.93 92.5791 206.958 87.6255 206.984C86.8191 206.987 86.0063 207 85.2031 206.939C84.3135 206.872 83.7343 206.251 83.6511 205.362C83.6223 205.045 83.6191 204.725 83.6191 204.405C83.6127 202.446 83.6095 200.491 83.6063 198.533C83.6063 198.411 83.6351 198.29 83.6543 198.155C84.1951 198.059 84.7071 197.976 85.2991 198.085C85.2127 198.459 85.0847 198.76 85.0847 199.064C85.0911 200.872 85.0815 202.68 85.1711 204.485C85.2287 205.624 85.6063 205.912 86.7647 205.922C89.1903 205.944 91.6159 205.95 94.0383 205.954C95.4847 205.954 96.9311 205.931 98.3775 205.931C98.8991 205.931 99.3343 205.768 99.6735 205.368C99.9551 205.038 99.9999 204.642 99.9967 204.229C99.9871 201.826 99.9647 199.422 99.9807 197.019C99.9839 196.408 100.115 195.8 100.179 195.189C100.214 194.853 100.253 194.514 100.259 194.178C100.266 193.973 100.15 193.842 99.9359 193.758C99.4559 193.573 99.4144 193.518 99.4688 193.022C99.5968 191.909 99.6543 190.795 99.9615 189.691C100.304 188.446 99.7855 187.445 98.1535 187.525C98.0096 187.531 97.8655 187.592 97.7215 187.627C97.2703 187.736 97.1679 187.72 96.9663 187.291C96.8095 186.958 96.5887 186.878 96.2559 186.914C95.7503 186.968 95.2415 187.01 94.7327 187.032C94.3391 187.051 94.0287 187.186 93.8367 187.538C93.5391 188.085 92.8831 188.2 92.4223 187.608C92.1599 187.272 91.8623 187.195 91.4783 187.234C91.2255 187.259 90.9695 187.256 90.7135 187.262C90.1599 187.278 89.6063 187.272 89.0559 187.317C88.4447 187.365 87.8367 187.454 87.2287 187.528C86.6239 187.602 86.0191 187.678 85.3983 187.758C85.4879 188.213 85.5967 188.52 85.5999 188.83C85.6127 190.51 85.5935 192.19 85.5935 193.87C85.5935 194.13 85.4847 194.27 85.2255 194.293C84.9695 194.312 84.7167 194.322 84.4607 194.344C83.2159 194.453 82.0927 194.837 81.2031 195.765C80.9599 196.021 80.7839 196.28 80.7743 196.651C80.7295 198.139 80.6367 199.624 80.6175 201.112C80.5983 202.664 80.5407 204.229 80.6943 205.768C80.9503 208.366 81.8143 209.211 83.8559 209.886C84.2079 210.005 84.6079 210.014 84.9887 210.011C87.4975 210.005 90.0063 209.992 92.5183 209.96C93.1231 209.954 93.7503 210.114 94.3263 209.765C94.4063 209.717 94.5343 209.746 94.6399 209.742C96.4671 209.714 98.2975 209.688 100.125 209.659C103.462 209.605 106.803 209.554 110.141 209.496C110.64 209.486 111.162 209.627 111.61 209.25C111.686 209.186 111.856 209.218 111.981 209.218C112.278 209.218 112.576 209.237 112.874 209.23C115.68 209.173 118.483 209.099 121.29 209.051C123.523 209.013 125.757 209.003 127.99 208.981C128.179 208.981 128.4 209.01 128.554 208.926C129.088 208.629 129.61 208.731 130.154 208.875C130.387 208.936 130.698 208.99 130.883 208.888C131.213 208.709 131.536 208.731 131.869 208.725C133.741 208.69 135.61 208.67 137.482 208.622C138.883 208.587 140.285 208.526 141.686 208.475C141.834 208.469 141.978 208.434 142.122 208.408C142.493 208.347 142.864 208.274 143.238 208.222C143.888 208.136 144.55 208.101 145.194 207.973C146.202 207.771 146.899 207.09 147.603 206.386C148.266 205.723 148.589 204.971 148.586 204.053C148.582 203.33 148.602 202.606 148.595 201.883C148.538 194.565 148.467 187.25 148.422 179.931C148.394 175.614 148.403 171.298 148.39 166.981L148.387 166.978ZM94.9983 192.882C95.1071 192.149 95.2447 191.419 95.3343 190.683C95.3759 190.354 95.4879 190.171 95.8367 190.168C96.0607 190.168 96.2847 190.146 96.544 190.13V193.339H94.9951C94.9951 193.163 94.9759 193.019 94.9951 192.882H94.9983ZM88.7167 190.712C88.7263 190.254 88.7807 190.197 89.2319 190.178C89.6767 190.155 90.1215 190.162 90.5663 190.162C90.7839 190.162 90.9439 190.248 90.9343 190.494C90.9055 191.486 90.8703 192.478 90.8351 193.547C90.1023 193.669 89.4399 193.717 88.7423 193.666C88.7199 193.474 88.6879 193.33 88.6911 193.189C88.6943 192.363 88.7007 191.534 88.7167 190.709V190.712ZM87.6671 202.379C87.6703 201.192 87.6831 200.002 87.7023 198.814C87.7119 198.142 87.7471 198.13 88.3807 198.123C89.7823 198.107 91.1807 198.078 92.5823 198.056C92.5823 198.046 92.5823 198.034 92.5823 198.024C93.8527 197.957 95.1263 197.886 96.3967 197.819C96.5663 197.81 96.7359 197.794 96.9055 197.79C97.1935 197.784 97.3343 197.925 97.3343 198.216C97.3343 198.578 97.3503 198.936 97.3535 199.298C97.3599 200.338 97.3631 201.378 97.3727 202.418C97.3791 203.045 97.3631 203.074 96.7487 203.077C94.9855 203.09 93.2255 203.077 91.4623 203.109C90.5087 203.125 89.5615 203.224 88.6079 203.259C87.6831 203.294 87.6671 203.272 87.6671 202.379Z" fill="#01615F"/>
<path d="M100.854 194.123C100.893 195.099 100.963 196.075 100.973 197.051C100.998 199.474 100.998 201.899 101.008 204.325C101.008 205.285 101.386 205.672 102.362 205.682C103.19 205.688 104.019 205.682 104.848 205.666C109.802 205.582 114.755 205.496 119.709 205.406C119.872 205.406 120.032 205.374 120.234 205.352C120.195 205.186 120.179 205.061 120.138 204.946C119.738 203.854 119.581 202.722 119.581 201.566C119.581 201.189 119.686 200.808 119.693 200.43C119.706 199.25 119.939 198.062 119.504 196.859H120.378C120.406 196.962 120.432 197.003 120.429 197.042C120.288 198.117 120.134 199.189 120.01 200.264C119.984 200.482 120.035 200.718 120.102 200.933C120.208 201.275 120.381 201.595 120.483 201.938C120.726 202.754 120.976 203.563 121.475 204.274C121.974 204.984 122.634 205.397 123.504 205.419C124.758 205.451 126.013 205.49 127.264 205.461C130.877 205.374 134.49 205.237 138.102 205.163C139.222 205.141 139.984 204.67 140.115 203.326C140.269 201.771 140.317 200.19 139.994 198.635C139.952 198.43 139.965 198.213 139.962 198.002C139.946 196.747 139.939 195.493 139.917 194.238C139.914 194.008 139.91 193.739 139.795 193.56C139.456 193.042 139.469 192.478 139.472 191.902C139.478 189.458 139.482 187.013 139.466 184.568C139.459 183.618 138.694 182.898 137.744 182.933C136.362 182.981 134.982 183.045 133.603 183.109C131.459 183.205 129.318 183.317 127.174 183.4C126.029 183.445 124.877 183.483 123.731 183.464C122.829 183.451 122.23 183.835 121.878 184.642C121.786 184.856 121.699 185.074 121.616 185.291C121.341 186.002 121.338 186.75 121.341 187.493C121.344 189.218 121.312 190.936 121.024 192.642C120.928 193.211 120.909 193.269 120.371 193.269C119.03 193.275 117.693 193.269 116.352 193.259C116.17 193.259 115.987 193.221 115.731 193.192C115.875 192.766 116.035 192.453 116.086 192.126C116.358 190.328 116.362 188.53 116 186.741C115.984 186.658 115.949 186.578 115.92 186.498C115.552 185.432 115.136 185.138 114.029 185.205C113.075 185.262 112.122 185.352 111.171 185.419C109.645 185.528 108.118 185.624 106.592 185.736C105.885 185.787 105.21 185.979 104.589 186.331C104.067 186.626 103.642 187.045 103.542 187.634C103.373 188.638 103.264 189.662 103.533 190.674C103.763 191.541 104.237 192.245 105.107 192.549C105.843 192.805 106.614 192.971 107.373 193.16C107.645 193.227 107.933 193.25 108.211 193.291C105.773 193.566 103.331 193.474 100.886 193.704C100.874 193.88 100.851 194.005 100.854 194.126V194.123ZM124.077 186.331C124.272 186.296 124.432 186.248 124.592 186.242C126.333 186.19 128.077 186.146 129.821 186.098C132.01 186.037 134.198 186.053 136.378 185.768C136.416 185.762 136.458 185.787 136.576 185.819C136.602 185.986 136.656 186.184 136.659 186.386C136.669 187.512 136.675 188.638 136.666 189.765C136.662 190.357 136.63 190.418 136.022 190.485C133.974 190.712 131.923 190.917 129.872 191.112C129.418 191.157 129.373 191.093 129.296 190.642C129.117 189.582 128.624 189.138 127.549 189.07C126.906 189.029 126.278 189.102 125.658 189.285C125.213 189.416 124.918 189.682 124.717 190.082C124.618 190.28 124.502 190.472 124.397 190.664C124.339 190.645 124.278 190.626 124.218 190.606C124.067 189.202 124.074 187.787 124.077 186.328V186.331ZM123.667 201.122C123.901 200.718 124.019 200.299 124.016 199.848C124.01 198.936 123.978 198.024 123.955 197.112C123.952 196.946 123.955 196.779 123.955 196.539C124.218 196.523 124.406 196.504 124.592 196.504C128.586 196.482 132.576 196.459 136.57 196.437C136.634 196.437 136.698 196.437 136.762 196.44C137.245 196.466 137.283 196.501 137.315 197.006C137.331 197.24 137.331 197.474 137.334 197.707C137.357 198.917 137.382 200.126 137.405 201.339C137.414 201.861 137.363 201.934 136.842 201.944C133.699 202.005 130.557 202.05 127.414 202.117C127.018 202.126 126.627 202.261 126.23 202.283C125.597 202.315 124.957 202.318 124.32 202.306C123.514 202.286 123.254 201.832 123.664 201.125L123.667 201.122ZM106.682 189.31C106.576 189.314 106.467 189.32 106.362 189.314C106.138 189.298 105.84 189.365 105.77 189.07C105.699 188.773 105.872 188.51 106.141 188.398C106.49 188.251 106.861 188.114 107.232 188.082C108.499 187.966 109.77 187.886 111.04 187.816C111.654 187.784 112.272 187.8 112.886 187.803C113.424 187.803 113.501 187.877 113.536 188.421C113.549 188.603 113.523 188.789 113.51 189.045C112.445 189.096 111.472 189.15 110.499 189.189C109.226 189.237 107.952 189.275 106.678 189.314L106.682 189.31ZM103.869 197.122C104.154 197.09 104.461 197.032 104.771 197.026C108.829 196.965 112.886 196.907 116.944 196.856C117.171 196.856 117.402 196.882 117.712 196.898C117.674 197.17 117.648 197.333 117.626 197.496C117.562 197.979 117.501 198.462 117.43 198.946C117.277 199.992 117.117 201.042 116.963 202.088C116.922 202.366 116.762 202.494 116.499 202.523C116.352 202.539 116.202 202.546 116.054 202.549C114.314 202.568 112.57 202.584 110.829 202.613C110.56 202.616 110.291 202.69 110.022 202.728C109.856 202.754 109.69 202.792 109.523 202.795C107.76 202.821 105.997 202.84 104.234 202.856C104.109 202.856 103.984 202.834 103.869 202.824C103.693 202.357 103.686 197.899 103.869 197.122Z" fill="#01615F"/>
<path d="M198.925 172.024C198.147 171.445 197.529 170.76 197.347 169.726C197.142 168.558 196.275 168.091 195.065 167.979C194.393 167.954 193.853 168.386 193.833 169.074C193.824 169.502 193.92 169.966 194.089 170.36C194.473 171.256 194.925 172.126 195.363 172.997C195.763 173.794 195.734 173.97 195.091 174.526C194.877 174.712 194.678 174.725 194.461 174.571C194.253 174.427 194.061 174.248 193.843 174.123C192.691 173.47 191.811 172.53 191.014 171.496C190.64 171.01 190.275 170.504 189.846 170.066C189.049 169.243 188.035 168.818 186.912 168.674C186.496 168.619 186.093 168.741 185.869 169.144C185.625 169.586 185.449 170.078 185.785 170.526C186.329 171.256 186.889 171.986 187.526 172.632C188.057 173.173 188.723 173.579 189.309 174.069C190.217 174.83 191.133 175.589 192 176.398C192.329 176.706 192.659 176.898 193.091 176.978C193.526 177.061 193.955 177.198 194.393 177.272C194.611 177.307 194.864 177.307 195.065 177.227C195.76 176.955 196.374 176.587 196.893 176.002C197.475 175.339 198.246 174.898 199.181 174.917C199.641 174.926 200 174.706 200.352 174.478C200.723 174.235 200.726 174.075 200.483 173.688C200.073 173.032 199.555 172.488 198.931 172.024H198.925Z" fill="#01615F"/>
<path d="M191.606 178.018C191.494 177.803 191.446 177.55 191.379 177.349C191.533 177.243 191.635 177.176 191.737 177.106C191.398 177.106 191.107 177.218 190.845 176.904C190.541 176.539 190.969 176.286 190.947 175.96C190.553 175.688 190.125 175.784 189.712 175.826C189.238 175.874 188.835 175.758 188.483 175.432C187.952 174.939 187.443 174.45 187.219 173.72C187.149 173.49 186.918 173.25 186.697 173.134C186.349 172.955 185.939 172.891 185.568 172.747C185.401 172.683 185.213 172.578 185.12 172.434C184.758 171.861 184.413 171.278 184.102 170.677C183.83 170.146 183.309 169.842 182.765 169.966C182.285 170.075 181.958 170.53 181.987 171.134C182.051 172.44 182.461 173.63 183.254 174.68C183.581 175.115 183.997 175.342 184.553 175.374C184.909 175.394 185.257 175.522 185.613 175.573C185.952 175.624 186.297 175.64 186.643 175.669C186.582 175.813 186.502 175.883 186.413 175.896C186.035 175.95 185.654 175.989 185.277 176.03C184.64 176.101 184.313 176.485 184.403 177.102C184.486 177.669 184.521 178.258 184.707 178.792C185.069 179.829 185.504 180.843 185.945 181.851C186.128 182.264 186.95 182.552 187.389 182.43C187.699 182.344 187.891 182.12 187.862 181.768C187.833 181.413 187.766 181.051 187.654 180.712C187.51 180.267 187.296 179.848 187.133 179.41C186.944 178.898 186.72 178.392 186.739 177.669C187.187 177.902 187.517 178.085 187.853 178.251C188.448 178.542 188.873 178.984 189.174 179.576C189.344 179.915 189.574 180.232 189.824 180.517C190 180.718 190.24 180.882 190.48 181.006C191.257 181.41 192.179 180.763 192.064 179.918C191.974 179.266 191.923 178.61 191.606 178.011V178.018ZM185.814 173.691C185.744 173.672 185.651 173.474 185.677 173.397C185.769 173.141 185.977 173.17 186.249 173.256C186.195 173.56 186.115 173.771 185.811 173.694L185.814 173.691ZM187.094 175.726C187.078 175.528 187.059 175.333 187.043 175.147C187.862 174.926 187.926 174.955 188.153 175.63C187.84 175.867 187.497 175.806 187.094 175.726Z" fill="#01615F"/>
<path d="M188.896 174.277C188.506 174.069 188.211 173.912 187.917 173.758C188.173 174.283 188.33 174.366 188.896 174.277Z" fill="#01615F"/>
</svg>
