<svg width="250" height="275" viewBox="0 0 250 275" fill="none" xmlns="http://www.w3.org/2000/svg">
<path d="M74.6114 212.993C75.3598 219.361 71.9743 221.449 67.6561 221.253C63.9698 227.02 60.7048 233.02 56.3289 238.313C55.8512 238.882 55.1255 238.851 54.6548 238.503C54.5249 238.537 54.3884 238.557 54.2192 238.545C44.3799 237.762 30.6782 234.388 23.8933 226.724C23.8014 226.607 23.7551 226.484 23.7608 226.367C23.6755 226.263 23.6162 226.147 23.6021 225.991C23.3098 222.639 23.4184 219.417 23.4643 216.057C23.4932 214.043 23.6062 211.97 23.2643 209.965C23.112 209.071 23.0122 207.286 22.5726 206.245C21.7897 205.925 21.0003 205.592 20.2238 205.252C19.8485 205.076 19.5602 204.765 19.5833 204.329C19.7954 200.525 21.4672 196.093 25.9791 196.557C26.207 196.588 26.3348 196.727 26.3684 196.89C29.3505 197.234 32.3448 197.94 35.3204 198.769C33.6158 196.331 32.3208 193.366 32.7952 190.351C33.0233 188.953 33.6188 187.525 34.5809 186.432C31.0992 186.292 28.8821 184.066 28.2788 180.439C28.1973 179.926 28.6563 179.48 29.1811 179.63C30.3415 179.986 31.6047 180.128 32.7107 180.618C32.7468 177.254 33.8006 170.868 38.2297 172.582C42.737 174.321 41.5271 181.187 39.8479 184.513C43.1173 185.005 45.3848 188.438 46.4815 191.912C47.0758 189.325 47.6538 186.722 48.196 184.129C48.2682 183.741 48.6705 183.569 49.0087 183.561C52.0558 183.407 54.2078 184.141 56.6016 186.025C56.8959 186.25 57.0543 186.594 56.9299 186.976C56.7195 187.621 56.5059 188.276 56.2826 188.928C56.9434 187.532 57.9622 185.667 59.7352 185.672C62.0416 185.666 63.1027 187.722 65.4622 187.387C69.9083 186.759 72.042 190.138 71.6215 193.917C72.9551 194.374 74.1398 194.955 74.4105 196.514C74.5462 197.359 74.1665 198.458 73.8493 199.198C73.6763 199.596 75.6717 201.242 75.9443 201.634C78.1507 204.69 75.4971 208.716 72.375 209.83C73.1265 210.313 73.8683 210.825 74.5455 211.403C74.9872 211.774 74.9235 212.467 74.5448 212.766C74.5746 212.84 74.6076 212.905 74.6114 212.993ZM65.2168 218.879C70.5131 220.388 72.1193 218.315 72.833 213.138C72.8608 212.92 72.9766 212.731 73.1286 212.596C65.7718 209.906 58.1953 207.458 50.976 204.413C50.9368 204.4 50.9139 204.371 50.878 204.348C50.0861 206.579 49.291 208.819 48.5382 211.062C48.3565 211.619 47.6815 211.865 47.1816 211.539C46.2155 211.051 45.2363 210.57 44.2604 210.079C43.9474 209.977 43.7671 209.767 43.6841 209.523C43.6267 209.699 43.5725 209.865 43.5152 210.042C43.3653 210.501 42.5578 210.389 42.6488 209.878C43.0471 207.66 43.4846 205.455 43.9448 203.246C37.4883 202.873 31.2879 199.456 25.0385 197.949C25.0091 197.94 24.9829 197.921 24.9536 197.911C22.9339 198.962 21.5794 200.728 21.4787 203.194C21.4281 204.379 25.3709 205.361 26.1046 205.633C29.5712 206.914 33.0698 208.13 36.6131 209.209C42.6631 211.062 49.219 212.16 55.0454 214.633C58.3991 216.061 61.6935 217.871 65.2168 218.879ZM70.9848 208.684C74.3572 206.57 76.8593 203.241 72.054 200.723C71.7406 200.556 71.5615 200.043 71.7025 199.71C72.5839 197.736 72.7421 196.089 70.4109 195.308C69.961 195.161 69.7367 194.688 69.8735 194.235C71.193 189.655 67.277 188.292 63.6361 189.172C63.3991 189.236 63.1284 189.137 62.9711 188.955C60.9944 186.688 58.3628 187.194 56.8263 189.484C56.6493 189.762 56.1863 189.622 56.1487 189.339C55.7372 190.568 55.329 191.788 54.9011 193.001C55.7085 192.117 56.7354 191.456 57.9931 191.282C60.3884 190.938 60.9829 193.263 61.0025 195.228C62.3048 194.419 63.9493 193.689 65.1523 194.579C66.4928 195.578 66.7534 197.102 66.7866 198.66C69.1046 198.453 71.2294 199.502 71.5008 202.155C71.7618 204.707 69.8165 206.659 67.5806 207.477C68.6796 207.889 69.7336 208.374 70.752 208.9C70.8101 208.822 70.8909 208.74 70.9848 208.684ZM65.8119 206.165C67.4485 205.724 69.6579 204.822 69.7386 202.781C69.8244 200.526 68.0422 200.119 66.1222 200.499C65.5894 200.607 65.0563 200.184 65.0981 199.624C65.1414 198.795 65.4688 195.201 63.3453 195.807C62.2738 196.107 61.4736 196.604 60.5603 197.215C60.1328 197.497 59.4662 197.053 59.5312 196.555C59.8076 194.578 59.3885 191.25 56.6646 193.035C55.2491 193.958 54.3442 195.34 53.7855 196.922C53.7279 197.065 53.5853 197.138 53.4551 197.139C52.6919 199.281 51.9221 201.41 51.1621 203.543C51.1947 203.543 51.2272 203.542 51.2565 203.552C55.5632 204.48 60.5877 205.23 65.2362 206.67C65.3193 206.448 65.5002 206.258 65.8119 206.165ZM66.4974 221.157C64.7523 220.934 62.9074 220.387 61.1522 219.631C49.013 214.452 36.1383 211.662 23.8936 206.773C24.2738 207.2 24.6088 207.666 24.9236 208.526C25.4736 210.025 25.5956 211.742 25.6744 213.326C25.8942 217.498 25.0992 221.696 25.4163 225.835C25.4272 226.001 25.3825 226.138 25.3117 226.256C34.3804 231.495 44.0605 234.26 54.3298 236.114C54.5675 236.149 54.7602 236.255 54.9269 236.374C58.6235 231.174 62.2907 225.964 66.4974 221.157ZM51.7335 196.545C53.0311 193.062 58.1445 184.71 50.4927 185.115C48.6001 185.213 47.5068 195.903 47.1075 197.493C46.1916 201.133 45.2007 204.738 44.0697 208.307C44.277 208.169 44.5433 208.115 44.8597 208.24C46.334 208.829 46.4805 208.844 47.2224 209.356C48.6446 205.059 50.1646 200.794 51.7335 196.545ZM44.3394 201.438C44.7654 199.467 45.211 197.503 45.6566 195.538C45.0097 192.676 44.4848 189.573 42.197 187.497C40.8551 186.27 38.9283 185.642 37.2231 186.525C32.4542 188.974 34.4686 195.44 36.72 198.89C36.7857 198.987 36.7961 199.088 36.787 199.182C39.3358 199.926 41.8656 200.729 44.3394 201.438ZM38.6634 184.462C38.6171 184.339 38.5967 184.203 38.6347 184.053C39.3156 181.765 41.6619 175.064 37.7897 173.932C34.0251 172.834 33.8466 179.722 34.0033 181.764C34.0357 182.229 33.3871 182.526 33.0307 182.259C32.1283 181.575 31.021 181.387 29.9267 181.193C30.7309 183.738 32.5306 185.32 35.3019 185.747C35.716 185.406 36.176 185.123 36.6854 184.921C37.3699 184.647 38.0326 184.506 38.6634 184.462Z" fill="#BDFFE1"/>
<path d="M59.413 220.287C60.0744 219.951 60.5199 220.907 59.9272 221.298C58.8422 222.005 57.6791 222.719 56.4639 223.426C56.9877 224.408 57.4305 225.44 57.7306 226.544C57.914 227.21 56.8722 227.584 56.6013 226.955C56.1785 225.995 55.6909 225.068 55.1871 224.157C53.6054 225.026 51.9452 225.837 50.2418 226.516C50.8368 227.445 51.4514 228.381 52.0432 229.321C53.1062 228.715 54.2183 228.158 55.2417 227.475C55.7794 227.12 56.3316 227.981 55.8658 228.381C54.9086 229.227 53.7638 229.752 52.6419 230.306C53.2176 231.262 53.7575 232.227 54.213 233.22C54.4837 233.817 53.7261 234.349 53.2674 233.864C52.494 233.017 51.8047 232.078 51.1669 231.08C50.9499 231.215 50.7426 231.353 50.5353 231.491C50.027 231.855 49.3653 231.164 49.87 230.744C50.1159 230.554 50.375 230.389 50.6276 230.212C50.0026 229.175 49.4326 228.102 48.8595 227.039C47.0745 227.669 45.256 228.136 43.4488 228.37C44.1274 229.64 44.7962 230.908 45.4227 232.172C45.7162 232.766 44.8778 233.38 44.4512 232.83C43.3816 231.464 42.4253 230.016 41.5175 228.519C40.6653 228.544 39.8194 228.518 38.9793 228.406C38.5756 228.35 38.591 227.739 39.0173 227.758C39.6842 227.77 40.3444 227.737 41.0012 227.68C40.2971 226.488 39.6318 225.276 38.973 224.044C37.38 224.682 35.7704 225.272 34.1238 225.677C34.4894 226.348 34.8647 227.022 35.2043 227.706C35.4483 228.186 34.7716 228.668 34.4239 228.241C33.8336 227.53 33.3146 226.765 32.8212 225.955C32.0707 226.1 31.3134 226.2 30.5395 226.25C30.1721 226.282 30.1357 225.697 30.4833 225.626C31.12 225.498 31.7436 225.344 32.3637 225.168C31.4619 223.586 30.6895 221.906 29.966 220.242C29.8363 220.308 29.7097 220.364 29.5832 220.421C29.1423 220.645 28.7995 219.97 29.2339 219.733C29.3765 219.661 29.5094 219.585 29.6391 219.519C29.3615 218.877 29.0808 218.244 28.8066 217.625C28.6746 217.333 29.0896 217.122 29.2476 217.401C29.5834 217.997 29.9451 218.58 30.2939 219.17C31.8726 218.343 33.4773 217.503 35.1351 216.831C34.4667 215.629 33.7594 214.446 33.0296 213.299C31.9049 213.431 30.7413 213.581 29.865 214.378C29.4122 214.771 28.8287 214.105 29.2488 213.679C30.0921 212.818 31.2252 212.495 32.3818 212.266C32.3491 212.234 32.3391 212.198 32.3161 212.169C32.0697 211.796 32.6817 211.379 32.9443 211.735C33.0755 211.897 33.1906 212.075 33.3186 212.247C33.4362 212.318 33.5053 212.437 33.5485 212.571C34.471 213.823 35.374 215.102 36.2578 216.407C37.6176 215.92 39.0206 215.566 40.4835 215.426C40.9517 215.384 41.1187 216.033 40.6477 216.15C39.3453 216.462 38.0891 216.864 36.8526 217.305C37.9306 218.943 38.9793 220.605 39.9958 222.3C41.7053 221.569 43.4117 220.849 45.1546 220.249C44.4498 218.958 43.7353 217.665 43.0175 216.382C42.6686 215.76 43.6348 215.285 43.9902 215.887C44.7829 217.206 45.5498 218.538 46.3264 219.873C46.7614 219.734 47.1964 219.594 47.6446 219.48C48.2615 219.314 48.4368 220.236 47.8526 220.435C47.515 220.542 47.1906 220.674 46.8595 220.793C47.6132 222.099 48.3669 223.405 49.1335 224.705C49.2488 224.915 49.377 225.119 49.5052 225.324C51.1854 224.584 52.8324 223.746 54.463 222.893C53.7689 221.736 53.0326 220.609 52.2737 219.485C51.8499 218.86 52.9316 218.131 53.3715 218.74C54.1989 219.886 55.0295 221.022 55.7596 222.201C56.9914 221.542 58.2102 220.89 59.413 220.287ZM48.2205 225.846C48.1282 225.665 48.0327 225.493 47.9372 225.321C47.1929 223.953 46.4486 222.585 45.6913 221.224C44.0041 221.886 42.3208 222.636 40.634 223.363C41.4302 224.704 42.1973 226.068 42.9448 227.426C44.7383 227.102 46.4944 226.528 48.2205 225.846ZM38.4031 222.971C37.4774 221.23 36.5678 219.473 35.6291 217.739C33.9679 218.388 32.3364 219.111 30.7085 219.889C31.6921 221.519 32.6885 223.142 33.6332 224.792C35.253 224.27 36.8331 223.638 38.4031 222.971Z" fill="#BDFFE1"/>
<path d="M41.563 196.941C41.9816 196.785 42.2847 197.349 41.8861 197.577C40.8652 198.153 39.6491 198.232 38.5083 198.38C38.0306 198.451 37.8663 197.727 38.3472 197.646C39.4098 197.473 40.5572 197.338 41.563 196.941Z" fill="#BDFFE1"/>
<path d="M40.3233 193.313C40.9339 193.166 41.0961 194.062 40.5248 194.255C39.0804 194.736 37.4744 195.381 36.8729 196.895C36.6394 197.479 35.7461 197.198 35.9438 196.592C36.5939 194.564 38.3942 193.788 40.3233 193.313Z" fill="#BDFFE1"/>
<path d="M38.1337 190.403C38.5058 190.091 38.9321 190.609 38.6254 190.952C37.731 191.97 36.3347 192.835 35.8097 194.114C35.6335 194.521 34.9848 194.321 35.1349 193.894C35.6456 192.426 37.0115 191.389 38.1337 190.403Z" fill="#BDFFE1"/>
<path d="M233.917 213.151C232.064 210.688 244.459 208.126 245.831 208.08C246.799 208.046 248.807 208.107 249.035 209.199C249.618 212.001 236.195 214.336 233.917 213.151Z" fill="#BDFFE1"/>
<path d="M225.274 199.451C227.567 199.153 228.249 199.664 229.482 201.362C230.323 202.523 233.563 209.679 231.385 210.264L228.942 209.116L225.274 199.451Z" fill="#BDFFE1"/>
<path d="M235.848 220.602C239.825 224.335 239.55 232.688 235.923 226.652C234.902 224.953 231.093 216.137 235.848 220.602Z" fill="#BDFFE1"/>
<path d="M218.791 218.922C216.765 217.287 223.893 216.421 224.539 216.377C225.815 216.289 226.39 215.528 227.416 217.124C225.227 219.667 221.74 218.851 218.791 218.925V218.922Z" fill="#BDFFE1"/>
<path d="M192.793 14.4143C190.94 11.9518 203.335 9.39007 204.707 9.34319C205.675 9.3101 207.683 9.37076 207.911 10.4628C208.494 13.2644 195.071 15.6001 192.793 14.4143Z" fill="#BDFFE1"/>
<path d="M184.15 0.714858C186.443 0.417042 187.125 0.927189 188.357 2.62584C189.199 3.78677 192.439 10.9426 190.261 11.5272L187.818 10.3801L184.15 0.714858Z" fill="#BDFFE1"/>
<path d="M194.724 21.8652C198.701 25.599 198.426 33.9516 194.799 27.9153C193.778 26.2167 189.969 17.4008 194.724 21.8652Z" fill="#BDFFE1"/>
<path d="M177.667 20.186C175.641 18.5507 182.769 17.6849 183.415 17.6408C184.691 17.5525 185.266 16.7914 186.292 18.3881C184.103 20.9305 180.616 20.1143 177.667 20.1887V20.186Z" fill="#BDFFE1"/>
<path d="M16.2935 120.027C14.4398 117.565 26.835 115.003 28.2074 114.956C29.1755 114.923 31.1831 114.984 31.4114 116.076C31.9944 118.877 18.5706 121.213 16.2935 120.027Z" fill="#BDFFE1"/>
<path d="M7.64966 106.328C9.94334 106.03 10.6254 106.54 11.8575 108.239C12.6991 109.4 15.9388 116.555 13.7606 117.14L11.3184 115.993L7.64966 106.328Z" fill="#BDFFE1"/>
<path d="M18.2243 127.478C22.2011 131.212 21.926 139.564 18.2985 133.528C17.2782 131.829 13.4691 123.014 18.2243 127.478Z" fill="#BDFFE1"/>
<path d="M1.16741 125.799C-0.859496 124.164 6.26906 123.298 6.91536 123.254C8.19146 123.165 8.76625 122.404 9.79208 124.001C7.60291 126.543 4.11564 125.727 1.16741 125.802V125.799Z" fill="#BDFFE1"/>
<path d="M239.946 100.651C237.406 101.24 235.106 101.99 232.691 102.661C229.045 103.673 228.044 104.618 224.524 106.77C219.013 110.127 214.235 114.233 211.527 115.636C210.603 116.115 210.033 116.675 209.295 116.715C208.802 116.741 208.116 116.373 208.12 115.93C208.126 115.461 208.776 114.937 209.264 114.585C213.893 111.276 213.336 111.573 214.565 110.832C215.098 110.51 215.65 110.178 216.305 109.617C216.692 109.286 216.833 108.769 216.664 108.299C216.044 106.579 213.173 107.639 211.494 108.294C209.65 109.011 210.23 108.654 206.07 110.318C204.876 110.793 201.596 112.249 200.237 111.257C199.566 110.771 199.588 109.052 200.779 108.413C200.87 108.364 200.938 108.292 201.007 108.223C207.926 106.222 210.945 105.618 212.607 105.28C213.967 105.003 213.552 102.947 212.189 103.223C203.653 104.958 199.21 106.946 197.425 106.636C196.883 106.548 196.202 105.784 196.112 105.189C195.776 102.97 201.447 102.71 208.556 100.809C209.899 100.451 209.355 98.4235 208.015 98.7818C204.469 99.7288 200.345 100.383 197.36 101.341C197.298 101.27 197.24 101.195 197.157 101.141C196.205 100.52 196.202 98.9553 197.385 98.1074C197.95 97.7033 198.459 97.5846 199.319 97.4876C203.747 96.9874 211.338 95.0191 218.166 92.1684C219.446 91.634 220.802 90.8843 221.16 89.3699C221.976 85.7528 216.878 84.8783 213.503 80.9122C211.643 78.7927 211.893 78.4338 212.073 78.2481C212.936 77.3562 214.56 78.4186 215.589 79.0901C217.401 80.4763 226.976 87.7322 228.744 88.7326C230.922 89.9606 233.904 90.2532 237.135 89.54C238.484 89.2414 238.046 87.1951 236.682 87.4894C235.104 87.8383 232.113 88.2189 229.777 86.9059C228.343 86.0949 220.073 79.8779 216.803 77.3783C215.945 76.8171 215.058 76.2338 213.955 75.9427C211.67 75.3679 209.305 76.9447 209.983 79.3209C210.316 80.5507 211.052 81.2947 211.909 82.2759C215.81 86.8637 222.31 88.1596 217.358 90.2315C210.826 92.959 203.438 94.907 199.083 95.4028C198.127 95.5105 197.185 95.6679 196.162 96.4021C194.214 97.796 193.699 100.537 195.382 102.348C194.316 103.219 193.877 104.443 194.036 105.5C194.23 106.788 195.293 108.06 196.493 108.54C196.979 108.734 197.397 108.761 197.936 108.766C196.743 112.153 199.557 115.03 204.999 112.997C207.424 112.065 208.202 111.666 211.066 110.691C208.084 112.847 206.047 113.917 206.022 115.903C206 117.535 207.639 119.021 209.652 118.773C215.439 119.891 221.272 109.55 237.264 103.529C238.301 103.232 239.336 102.947 240.42 102.696C240.985 102.564 241.336 102.001 241.205 101.436C241.075 100.87 240.509 100.52 239.946 100.651Z" fill="#BDFFE1"/>
<path d="M189.267 104.991C188.676 104.91 187.947 105.014 187.184 105.214C188.201 102.514 186.594 99.2931 183.57 99.5497C179.741 99.8721 173.891 106.154 156.527 112.324C153.31 113.467 151.952 112.631 153.033 108.469C154.896 101.297 154.336 99.5643 154.406 98.7718C154.393 97.5755 154.38 96.3381 153.739 95.0321C152.399 92.2995 148.98 92.9368 147.441 95.2714C146.654 96.4653 146.291 97.8391 145.954 99.1249C144.858 104.986 142.37 117.751 141.674 119.801C139.866 125.134 136.539 129.383 132.548 131.457C131.307 132.102 132.308 133.949 133.516 133.319C137.983 130.998 141.682 126.316 143.662 120.476C144.588 117.743 147.984 99.6928 148 99.5862C148.293 98.4785 148.595 97.3336 149.194 96.4264C149.622 95.7764 150.441 95.2977 151.059 95.3361C152.382 95.4445 152.291 98.2174 152.32 99.5205C152.518 106.31 148.395 111.606 152.146 114.25C153.692 115.348 155.583 114.889 157.23 114.301C174.638 108.116 180.65 101.904 183.748 101.641C185.345 101.5 185.815 103.765 184.986 104.942C183.178 107.514 171.035 113.718 168.258 115.129C167.017 115.758 167.977 117.63 169.21 116.999C174.418 114.354 178.615 112.086 182.949 109.271C183.046 109.248 183.143 109.229 183.234 109.177C185.212 108.055 187.971 106.933 188.981 107.071C189.893 107.196 191.097 107.772 190.947 108.743C190.69 110.373 188.562 111.879 187.062 112.941C183.217 115.663 177.91 118.704 172.692 120.851C171.407 121.382 172.22 123.315 173.491 122.793C180.584 119.873 182.945 117.686 187.692 115.659C189.816 114.75 191.309 115.772 191.303 116.888C191.292 119.812 179.908 123.871 175.019 126.729C174.248 127.184 172.995 127.56 173.326 128.668C173.669 129.814 175.045 129.414 176.419 129.32C179.685 129.097 184.781 127.519 185.89 129.35C186.004 129.842 185.432 130.48 184.833 130.833C183.422 131.665 182.519 131.708 172.237 133.548C169.453 134.047 166.664 134.321 163.859 134.936C157.56 136.294 147.279 140.195 142.939 142.04C142.457 142.245 142.228 142.765 142.351 143.257C142.022 143.643 143.792 144.666 144.097 144.752C144.911 144.981 152.933 141.746 162.703 138.523C164.72 137.858 166.815 137.486 168.91 137.255C171.777 136.939 174.427 136.157 177.306 135.978C179.775 135.825 182.619 135.306 184.915 134.277C188.907 132.487 189.284 129.781 187.521 127.968C186.038 125.791 182.309 126.338 179.681 126.751L180.017 126.6C181.837 125.774 183.68 124.772 185.457 123.901C188.467 122.467 193.387 120.132 193.403 116.898C193.411 115.325 192.213 113.654 190.094 113.294C195.034 109.257 193.068 105.508 189.267 104.991Z" fill="#BDFFE1"/>
<path d="M175.815 92.8201C179.725 94.3851 184.949 94.7865 186.661 95.0209C187.119 95.0835 187.564 94.8389 187.757 94.4187C190.905 87.5642 192.897 85.8022 193.421 79.6828C193.687 76.5848 191.871 72.8035 188.478 72.1019C186.07 71.6018 183.327 72.8653 181.808 75.1733C180.824 76.6693 180.518 78.3987 180.475 80.0744C176.74 77.884 173.65 78.0279 171.629 79.3723C167.568 82.0734 167.82 89.6206 175.815 92.8201ZM172.932 80.9959C175.503 79.4188 178.694 81.3889 181 82.8809C181.746 83.346 182.671 82.7802 182.618 81.9329C182.493 79.9562 182.521 77.9081 183.562 76.327C184.619 74.7203 186.465 73.8282 188.051 74.1569C190.235 74.6232 191.521 77.2883 191.33 79.5022C190.855 85.0429 189.017 86.7396 186.172 92.8453C183.144 92.4959 179.404 92.0398 176.403 90.7902C170.449 88.3111 169.907 82.8489 172.932 80.9959Z" fill="#BDFFE1"/>
<path d="M181.371 68.383L183.098 71.0411C183.853 72.2051 185.615 71.0639 184.859 69.8969L183.13 67.2383C182.372 66.0697 180.615 67.2223 181.371 68.383Z" fill="#BDFFE1"/>
<path d="M187.781 69.4547L188.604 65.9274C188.919 64.5758 186.876 64.0986 186.56 65.451L185.737 68.9782C185.421 70.3271 187.465 70.8091 187.781 69.4547Z" fill="#BDFFE1"/>
<path d="M192.104 70.7211L193.453 68.3098C193.736 67.8048 193.556 67.1645 193.05 66.881C192.542 66.604 191.904 66.7787 191.622 67.2852L190.272 69.6965C189.593 70.9086 191.426 71.9321 192.104 70.7211Z" fill="#BDFFE1"/>
<g clip-path="url(#clip0_2001_855)">
<path d="M147.257 256.22C146.137 261.059 143.35 272.633 136.208 271.722C119.466 269.564 134.569 239.263 140.704 231.09C136.045 230.039 134.427 225.038 134.99 220.613C135.68 215.227 138.895 210.196 142.318 206.106C142.9 205.412 144.083 206.322 143.582 207.074C141.31 210.499 139.322 214.256 138.212 218.234C137.658 220.193 137.067 222.509 137.65 224.54C138.367 227.082 140.051 227.899 142.021 229.371C142.387 229.645 142.532 230.196 142.424 230.628C142.446 230.766 142.436 230.91 142.364 231.044C138.747 237.52 135.427 244.529 133.254 251.626C132.104 255.374 130.911 259.527 131.372 263.486C131.708 266.387 133.919 270.457 137.56 269.244C143.63 267.217 145.016 256.117 145.823 250.836C146.712 244.976 147.526 238.606 146.777 232.688C146.686 231.99 147.116 231.476 147.641 231.265C147.889 230.995 148.266 230.847 148.756 230.956C157.892 233.141 158.305 217.995 159.296 211.892C156.154 216.05 154.504 221.033 151.836 225.471C151.242 226.461 149.541 226.115 149.601 224.88C149.764 221.322 149.81 217.762 149.678 214.212C148.312 217.287 146.831 220.301 145.368 223.328C144.839 224.431 143.217 223.843 143.191 222.738C143.058 217.607 143.319 212.479 144.031 207.392C144.14 206.601 145.442 206.796 145.409 207.578C145.266 211.032 145.207 214.449 145.297 217.885C146.74 214.765 148.189 211.654 149.365 208.411C149.87 207.046 151.713 207.298 151.845 208.746C152.16 212.352 152.178 215.944 152.113 219.55C153.749 216.065 155.364 212.581 157.88 209.638C158.826 208.538 160.278 209.813 159.891 210.983C160.293 210.878 160.791 211.041 160.85 211.503C161.75 218.443 159.522 235.803 149.384 233.584C150.349 240.856 148.88 249.291 147.257 256.22Z" fill="#BDFFE1"/>
</g>
<g clip-path="url(#clip1_2001_855)">
<path d="M85.641 49.9269C89.451 54.8169 92.791 64.1869 85.041 67.5369C77.751 70.6969 70.721 63.8769 66.581 58.5669C62.211 52.9869 56.941 45.3069 56.801 37.8169C52.451 42.3269 43.191 35.0169 40.981 31.2269C38.201 26.4669 37.331 18.8669 43.281 16.0969C47.991 13.9069 54.241 16.8469 57.781 19.9769C62.051 23.7369 64.671 28.8869 63.321 34.5569C63.581 34.2069 64.031 33.9969 64.591 34.1169C72.611 35.8369 80.811 43.7269 85.641 49.9269ZM83.751 65.3369C97.311 57.9269 71.081 38.7869 63.931 36.5269C63.331 36.3369 63.061 35.8869 63.041 35.4169C62.381 36.4969 60.401 35.8269 60.811 34.4269C63.211 26.4469 54.651 16.8669 46.351 17.6169C39.951 18.1869 40.321 25.7369 43.331 29.8569C45.261 32.4869 47.971 34.8369 51.191 35.6869C53.091 36.1869 55.151 35.8969 56.951 36.5669C57.311 36.1469 58.131 36.2969 58.201 37.0169C58.831 43.1469 63.241 49.7169 66.781 54.5669C69.771 58.6569 77.481 68.7569 83.751 65.3369Z" fill="#BDFFE1"/>
<path d="M44.2511 20.7469C51.4511 16.9669 58.3211 26.0469 56.2311 32.7769C56.0811 33.2569 55.7111 33.4669 55.2411 33.5269C54.0611 33.6769 53.0411 34.0569 51.8611 34.1069C50.7011 34.1569 50.4211 32.2569 51.5811 32.0669C52.5411 31.9069 53.4811 31.7069 54.4311 31.5769C55.6111 26.2269 50.7311 19.0169 44.8211 21.7169C44.1711 22.0169 43.5911 21.0869 44.2511 20.7469Z" fill="#BDFFE1"/>
</g>
<defs>
<clipPath id="clip0_2001_855">
<rect width="55.02" height="55.05" fill="white" transform="translate(153.903 199.371) rotate(60)"/>
</clipPath>
<clipPath id="clip1_2001_855">
<rect width="50.9" height="53" fill="white" transform="translate(38.8311 15.3369)"/>
</clipPath>
</defs>
</svg>
