<svg width="52" height="52" viewBox="0 0 52 52" fill="none" xmlns="http://www.w3.org/2000/svg">
<path d="M25.828 51.2078C39.9665 51.2078 51.428 39.7463 51.428 25.6078C51.428 11.4693 39.9665 0.0078125 25.828 0.0078125C11.6895 0.0078125 0.228027 11.4693 0.228027 25.6078C0.228027 39.7463 11.6895 51.2078 25.828 51.2078Z" fill="#104D4D"/>
<path d="M25.828 15.1116C29.2414 15.1116 29.6538 15.1116 31.0049 15.1827C32.2565 15.2396 32.9249 15.4529 33.38 15.6236C33.9774 15.8512 34.404 16.1356 34.8449 16.5765C35.2858 17.0174 35.5702 17.4441 35.7978 18.0414C35.9685 18.4965 36.1818 19.165 36.2387 20.4165C36.2956 21.7676 36.3098 22.1658 36.3098 25.5934C36.3098 29.0209 36.3098 29.4192 36.2387 30.7703C36.1818 32.0218 35.9685 32.6903 35.7978 33.1454C35.5702 33.7427 35.2858 34.1694 34.8449 34.6103C34.404 35.0512 33.9774 35.3356 33.38 35.5632C32.9249 35.7338 32.2565 35.9472 31.0049 36.0041C29.6538 36.0609 29.2556 36.0752 25.828 36.0752C22.4005 36.0752 22.0022 36.0752 20.6511 36.0041C19.3996 35.9472 18.7311 35.7338 18.276 35.5632C17.6787 35.3356 17.252 35.0512 16.8111 34.6103C16.3702 34.1694 16.0858 33.7427 15.8582 33.1454C15.6876 32.6903 15.4742 32.0218 15.4174 30.7703C15.3605 29.4192 15.3462 29.0209 15.3462 25.5934C15.3462 22.1658 15.3462 21.7676 15.4174 20.4165C15.4742 19.165 15.6876 18.4965 15.8582 18.0414C16.0858 17.4441 16.3702 17.0174 16.8111 16.5765C17.252 16.1356 17.6787 15.8512 18.276 15.6236C18.7311 15.4529 19.3996 15.2396 20.6511 15.1827C22.0022 15.1258 22.4005 15.1116 25.828 15.1116ZM25.828 12.8076C22.3578 12.8076 21.9169 12.8218 20.5516 12.8787C19.1862 12.9356 18.2618 13.1632 17.4511 13.4761C16.612 13.8032 15.9009 14.2441 15.1898 14.9552C14.4787 15.6663 14.0378 16.3774 13.7107 17.2165C13.3978 18.0272 13.1845 18.9658 13.1134 20.3169C13.0565 21.6823 13.0422 22.1232 13.0422 25.5934C13.0422 29.0636 13.0565 29.5045 13.1134 30.8698C13.1702 32.2352 13.3978 33.1596 13.7107 33.9703C14.0378 34.8094 14.4787 35.5205 15.1898 36.2316C15.9009 36.9427 16.612 37.3836 17.4511 37.7107C18.2618 38.0236 19.2005 38.2369 20.5516 38.3081C21.9169 38.365 22.3578 38.3792 25.828 38.3792C29.2982 38.3792 29.7391 38.365 31.1045 38.3081C32.4698 38.2512 33.3942 38.0236 34.2049 37.7107C35.044 37.3836 35.7551 36.9427 36.4662 36.2316C37.1773 35.5205 37.6182 34.8094 37.9454 33.9703C38.2582 33.1596 38.4716 32.221 38.5427 30.8698C38.5996 29.5045 38.6138 29.0636 38.6138 25.5934C38.6138 22.1232 38.5996 21.6823 38.5427 20.3169C38.4858 18.9516 38.2582 18.0272 37.9454 17.2165C37.6182 16.3774 37.1773 15.6663 36.4662 14.9552C35.7551 14.2441 35.044 13.8032 34.2049 13.4761C33.3942 13.1632 32.4556 12.9498 31.1045 12.8787C29.7391 12.8218 29.2982 12.8076 25.828 12.8076Z" fill="#BDFFE1"/>
<path d="M25.8275 19.0371C22.2008 19.0371 19.2568 21.9811 19.2568 25.6078C19.2568 29.2344 22.2008 32.1784 25.8275 32.1784C29.4542 32.1784 32.3982 29.2344 32.3982 25.6078C32.3982 21.9811 29.4542 19.0371 25.8275 19.0371ZM25.8275 29.8744C23.4666 29.8744 21.5608 27.9687 21.5608 25.6078C21.5608 23.2469 23.4666 21.3411 25.8275 21.3411C28.1884 21.3411 30.0942 23.2469 30.0942 25.6078C30.0942 27.9687 28.1884 29.8744 25.8275 29.8744Z" fill="#BDFFE1"/>
<path d="M32.6688 20.3171C33.5171 20.3171 34.2048 19.6294 34.2048 18.7811C34.2048 17.9328 33.5171 17.2451 32.6688 17.2451C31.8205 17.2451 31.1328 17.9328 31.1328 18.7811C31.1328 19.6294 31.8205 20.3171 32.6688 20.3171Z" fill="#BDFFE1"/>
</svg>
