<svg width="32" height="38" viewBox="0 0 32 38" fill="none" xmlns="http://www.w3.org/2000/svg">
<path d="M2.38367 33.417C2.38367 33.417 1.47227 33.8727 1.01658 34.3284C0.560881 34.7841 0.560881 35.4676 1.01658 35.6955C1.47227 36.1512 2.15582 36.1512 2.38367 35.6955C2.61151 35.6955 2.83936 35.6955 3.06721 35.2398C3.06721 35.2398 3.06721 34.7841 3.06721 34.5562C3.06721 34.1005 2.38367 33.6448 1.92797 33.8727H2.38367V33.417Z" fill="#01615F"/>
<path d="M1.91946 32.5051C1.91946 32.5051 0.0966797 34.7836 0.0966797 35.9228C0.0966797 36.3785 0.0966797 37.0621 0.780224 37.0621C1.23592 37.0621 1.91946 37.0621 1.91946 36.3785C1.91946 35.9228 2.14731 35.4671 2.60301 35.0114C2.83086 34.5558 3.28655 33.8722 3.5144 33.4165C4.19795 32.2773 2.37516 31.3659 1.69162 32.2773H1.91946V32.5051Z" fill="#01615F"/>
<path d="M6.93207 26.8093C6.70422 25.2143 6.47638 23.8473 6.47638 22.2523C6.47638 21.5688 6.47638 20.8852 6.47638 19.9738C6.47638 19.2903 6.47638 18.6068 6.47638 17.9232C6.47638 17.4675 6.47638 16.784 6.70422 16.3283C6.70422 15.6447 6.93207 15.189 7.15992 14.5055C7.61562 13.3662 8.07131 12.4549 8.75486 11.3156C10.1219 9.26498 12.1726 7.89789 14.2232 6.75865C16.5017 5.39156 19.2359 4.70802 21.7422 4.25232C24.7042 3.79663 27.8941 3.56878 30.8561 3.34093C30.6283 2.88524 30.1726 2.42954 29.9447 1.97384C29.9447 2.42954 29.9447 3.11308 29.489 3.34093L31.3118 3.79663C31.3118 3.79663 31.3118 3.34093 31.3118 3.11308C31.3118 3.11308 31.3118 3.11308 31.3118 2.88524C30.8561 2.42954 30.4004 2.20169 29.7169 1.74599C29.2612 3.56878 28.8055 5.39156 28.5776 7.21435C28.3498 9.03713 28.5776 11.0878 28.3498 12.9106C28.3498 14.7333 28.3498 16.5561 27.6662 18.3789C27.6662 18.8346 27.4384 19.2903 27.2106 19.5181C27.2106 19.9738 26.7549 20.2017 26.527 20.4295C26.0713 21.1131 25.6156 21.5688 25.1599 22.2523C24.0207 23.3916 22.4257 24.5308 20.8308 25.2143H21.2865C20.603 25.2143 20.1473 25.67 19.4637 25.8979C18.7802 26.1257 18.3245 26.3536 17.6409 26.5814C16.5017 27.0371 15.1346 27.0371 13.7675 27.265C11.2612 27.265 8.52701 27.0371 6.24853 25.8979C5.79283 25.8979 5.33713 25.8979 5.10929 25.8979C3.7422 27.4928 3.05865 29.5435 1.69156 31.3662C1.00802 32.5055 2.83081 33.4169 3.51435 32.5055C4.65359 30.9105 5.33713 29.0878 6.47638 27.4928C6.02068 27.4928 5.56498 27.4928 5.33713 27.4928C10.5776 29.7713 16.5017 29.5435 21.5144 27.0371H21.0587C21.0587 27.0371 22.6536 26.5814 23.3371 26.1257C24.0207 25.67 24.7042 25.2143 25.3878 24.7586C26.0713 24.303 26.7549 23.6194 27.2106 22.9359C27.4384 22.4802 27.6662 22.2523 27.8941 21.7966C27.8941 21.3409 28.3498 21.1131 28.5776 20.8852C29.0333 19.9738 29.2612 19.0625 29.489 17.9232C29.7169 17.0118 29.9447 15.8726 29.9447 14.7333C29.9447 12.6827 29.9447 10.8599 29.9447 8.80929C29.9447 6.5308 30.6283 4.25232 31.084 1.97384C31.084 1.2903 30.4004 0.378906 29.489 0.834602C28.8055 1.2903 28.3498 2.65739 28.3498 3.34093C28.3498 4.48017 29.7169 4.70802 30.1726 3.79663C30.6283 3.11308 30.6283 2.42954 30.8561 1.74599C30.8561 1.06245 30.6283 0.378906 29.9447 0.378906C24.2485 0.834602 18.3245 1.06245 13.084 3.79663C10.5776 4.93587 8.29916 6.5308 6.70422 8.80929C5.10929 10.8599 3.97005 13.3662 3.51435 16.1004C3.51435 16.3283 3.51435 16.5561 3.51435 17.0118C3.51435 17.4675 3.51435 18.1511 3.51435 18.6068C3.51435 19.5181 3.51435 20.4295 3.51435 21.3409C3.51435 23.1637 3.97005 24.9865 4.19789 26.8093C4.19789 27.265 4.88144 27.7207 5.33713 27.4928C6.02068 27.4928 6.02068 26.8093 6.02068 26.3536H6.93207V26.8093Z" fill="#01615F"/>
<path d="M6.02113 27.2645C6.02113 27.2645 6.70467 26.8088 6.93252 26.581C7.38821 26.1253 7.61606 25.6696 7.84391 25.2139C8.52746 24.3025 9.211 23.619 9.6667 22.7076C11.0338 21.1126 12.4009 19.5177 13.768 17.9228C16.73 14.7329 19.9199 11.9987 23.3376 9.49238C25.3882 8.12529 27.4388 6.7582 29.4895 5.61896C30.4009 5.16326 29.4895 3.79618 28.5781 4.25187C21.0591 8.35314 14.2237 14.2772 8.98315 21.1126C8.29961 22.024 7.61606 23.1633 6.93252 24.0747C6.70467 24.5304 6.24897 24.9861 6.02113 25.6696C5.79328 26.1253 5.56543 26.581 5.56543 27.2645H6.02113Z" fill="#01615F"/>
<path d="M8.52663 22.7076C8.52663 22.7076 8.75447 21.7963 8.98232 21.3406C8.98232 20.8849 8.98232 20.4292 8.98232 19.9735C8.98232 19.0621 9.21017 17.9228 9.43802 17.0114C9.89372 15.1887 10.1216 13.3659 10.8051 11.5431C10.8051 11.0874 11.7165 9.72031 10.8051 9.26461C9.89372 8.80891 9.66587 10.4038 9.43802 10.8595C8.75447 12.6823 8.29878 14.5051 8.07093 16.3279C8.07093 17.4671 7.84308 18.3785 7.61523 19.5178C7.61523 19.9735 7.61523 20.657 7.61523 21.1127C7.61523 21.5684 7.61523 22.252 7.61523 22.7076C7.61523 23.1633 8.29878 22.9355 8.29878 22.7076H8.52663Z" fill="#01615F"/>
<path d="M14.223 15.8724C14.6787 14.2774 14.6787 12.4546 15.1344 10.8597C15.3622 9.94832 15.5901 9.26477 16.0458 8.35338C16.2736 7.66984 16.9572 6.75844 16.7293 6.0749C16.7293 6.0749 16.5015 5.84705 16.2736 6.0749C15.5901 6.0749 15.1344 7.44199 14.9065 7.89768C14.6787 8.80908 14.223 9.72047 13.9951 10.404C13.5394 11.999 13.0837 14.0496 13.3116 15.6445C13.3116 16.1002 14.223 16.3281 14.223 15.6445V15.8724Z" fill="#01615F"/>
<path d="M19.6914 11.7713C19.6914 11.7713 20.3749 9.72066 20.8306 8.58142C21.0584 7.44218 21.5141 6.53079 21.742 5.39155C21.742 4.708 20.8306 4.48015 20.6027 5.1637C20.1471 6.07509 19.9192 7.21433 19.6914 8.35357C19.4635 9.49281 19.2357 10.4042 19.0078 11.5434C19.0078 11.9991 19.4635 12.227 19.6914 11.5434V11.7713Z" fill="#01615F"/>
<path d="M20.3672 10.4036C21.7343 11.0871 23.1014 11.5428 24.6963 11.7707C25.3798 11.7707 26.0634 11.7707 26.9748 11.7707C27.4305 11.7707 28.5697 11.7707 28.7976 11.0871C28.7976 10.4036 28.3419 10.4036 27.8862 10.1757C27.2026 10.1757 26.2912 10.1757 25.6077 10.1757C24.0128 10.1757 22.4178 9.72004 21.0507 9.49219C20.595 9.49219 20.3672 9.94788 20.8229 10.1757L20.3672 10.4036Z" fill="#01615F"/>
<path d="M14.0039 16.5556C16.2824 17.9227 18.5609 18.8341 21.295 19.0619C22.6621 19.0619 23.8014 19.0619 25.1685 19.0619C26.5356 19.0619 27.9026 18.8341 29.0419 18.1505C29.7254 17.6948 29.0419 16.7834 28.5862 16.7834C27.4469 16.7834 26.3077 17.467 25.1685 17.467C24.0292 17.467 22.89 17.467 21.5229 17.467C19.2444 17.467 16.7381 16.5556 14.6874 15.4164C14.2318 15.1885 13.7761 15.872 14.2318 16.3277L14.0039 16.5556Z" fill="#01615F"/>
<path d="M8.97473 22.2523C8.97473 22.2523 10.5697 23.6194 11.4811 23.8472C12.6203 24.3029 13.5317 24.5307 14.6709 24.7586C15.8102 24.7586 16.7216 24.9864 17.8608 24.9864C18.3165 24.9864 19 24.9864 19.4557 24.9864C19.9114 24.9864 20.595 24.9864 21.0507 24.5307C21.2785 24.3029 21.0507 23.8472 21.0507 23.6194C20.595 23.3915 20.1393 23.6194 19.6836 23.6194C19.2279 23.6194 18.5444 23.6194 18.0887 23.6194C17.1773 23.6194 16.038 23.6194 15.1266 23.6194C14.2152 23.6194 13.3038 23.1637 12.1646 22.9358C11.2532 22.708 10.3418 22.0244 9.20258 22.0244C9.20258 22.0244 8.97473 22.0244 8.97473 22.4801V22.2523Z" fill="#01615F"/>
</svg>
