<svg width="264" height="204" viewBox="0 0 264 204" fill="none" xmlns="http://www.w3.org/2000/svg">
<path opacity="0.1" fill-rule="evenodd" clip-rule="evenodd" d="M139.252 28.7217C159.314 25.4606 176.821 4.27673 196.159 10.5361C214.895 16.6005 227.839 38.2781 229.419 57.9073C230.963 77.0722 206.634 89.3493 204.04 108.4C201.411 127.703 224.708 147.799 214.887 164.623C205.606 180.523 180.087 172.92 162.754 179.125C143.928 185.864 128.506 206.318 108.864 202.576C89.333 198.854 79.7788 176.871 67.7684 161.026C56.5153 146.18 44.4943 131.515 41.116 113.195C37.6627 94.4677 38.8627 74.0338 48.7227 57.742C58.2055 42.0737 75.6691 32.8769 93.1094 27.2861C108.066 22.4916 123.749 31.2416 139.252 28.7217Z" fill="#01615F"/>
<g clip-path="url(#clip0_1_1519)">
<path d="M138.202 49.0484C129.102 46.1776 118.602 47.3259 110.202 51.3451C101.102 55.9384 96.2025 63.9767 94.1025 72.0149C92.7025 81.7757 95.5025 91.5365 99.7025 100.149C104.602 109.91 110.202 119.67 115.102 129.431C121.402 140.914 127.702 152.398 133.302 163.307C134.002 164.455 136.802 164.455 137.502 163.307C150.802 144.934 159.902 124.838 166.202 103.594C169.002 93.8331 171.102 83.4982 170.402 73.1633C170.402 63.9767 166.202 54.79 156.402 49.0484C148.002 43.881 134.702 41.5843 126.302 48.4743C124.902 49.6226 126.302 51.9192 129.102 51.3451C136.802 47.3259 145.902 49.0484 152.902 52.4934C161.302 57.0867 164.802 65.6991 165.502 73.7374C165.502 83.4982 164.102 92.6848 161.302 102.446C158.502 112.206 155.002 121.967 150.802 131.154C145.902 141.489 140.302 151.824 133.302 161.584H137.502C127.002 142.637 117.202 124.264 106.702 105.316C102.502 96.7039 97.6025 87.5173 97.6025 78.3307C97.6025 70.2924 100.402 62.2542 107.402 56.5125C115.102 50.7709 126.302 49.0484 136.102 51.9192C138.202 52.4934 139.602 49.6226 136.802 49.0484H138.202Z" fill="#01615F"/>
<path d="M138.903 59.3834C138.903 59.3834 137.503 55.9384 134.703 54.7901C131.903 54.2159 129.103 54.7901 126.303 55.3642C123.503 57.0867 121.403 59.3834 120.003 61.68C118.603 64.5508 116.503 67.4217 115.803 70.2925C113.703 76.0341 113.003 82.3499 115.803 88.0915C118.603 92.6848 124.203 96.704 130.503 96.704C136.803 96.704 143.103 93.259 146.603 88.6657C150.803 82.924 150.103 76.6083 149.403 70.2925C148.703 64.5508 146.603 58.235 139.603 55.9384C136.803 54.7901 133.303 54.7901 130.503 55.9384C127.003 57.0867 125.603 59.9575 124.203 62.8284C121.403 69.7183 120.703 77.1824 121.403 84.6465C121.403 87.5173 122.803 90.9623 124.903 93.8331C127.003 96.1298 129.803 97.8523 133.303 96.704C136.103 96.1298 134.703 92.6848 131.903 93.259C129.803 93.8331 128.403 92.1107 127.703 90.9623C126.303 89.2398 126.303 86.369 125.603 84.6465C124.903 79.4791 125.603 74.3116 126.303 69.1441C127.003 65.6992 128.403 59.3834 134.003 59.9575C139.603 59.9575 141.703 65.125 142.403 69.1441C143.803 73.7374 144.503 79.4791 142.403 84.0724C141.003 88.0915 137.503 92.1106 132.603 93.259C127.703 94.4073 123.503 93.259 120.003 89.814C116.503 86.369 115.103 81.7757 115.803 77.1824C115.803 74.3116 117.203 71.4408 118.603 68.57C120.003 66.2733 121.403 63.4025 122.803 61.68C124.203 59.9575 126.303 58.235 129.103 58.235C131.203 58.235 134.003 58.235 135.403 59.9575H136.103L138.903 59.3834Z" fill="#01615F"/>
<path d="M136.102 48.4742C136.102 48.4742 136.802 49.0484 138.202 49.6226C138.902 49.6226 140.302 50.1967 141.002 50.7709C143.102 51.3451 144.502 52.4934 146.602 53.6417C150.102 55.9384 152.202 58.235 154.302 61.1058C159.202 67.9958 159.902 76.0341 159.202 84.0723C158.502 92.6848 156.402 100.723 154.302 109.335C152.202 117.374 149.402 125.986 146.602 134.024C143.102 143.211 138.902 152.398 134.002 161.01C132.602 162.733 136.802 164.455 137.502 162.733C146.602 146.082 153.602 129.431 157.802 111.632C159.902 103.02 162.002 93.8331 162.702 84.6465C163.402 76.6082 162.702 67.4216 157.802 60.5317C155.702 57.0867 152.202 53.6417 148.702 51.9192C146.602 50.7709 144.502 50.1967 142.402 49.6226C141.002 49.6226 140.302 49.0484 138.902 49.0484C137.502 49.0484 137.502 49.0484 136.102 49.0484V48.4742Z" fill="#01615F"/>
</g>
<defs>
<clipPath id="clip0_1_1519">
<rect width="77" height="120" fill="white" transform="translate(94.1025 45.0293)"/>
</clipPath>
</defs>
</svg>
