<svg width="16" height="17" viewBox="0 0 16 17" fill="none" xmlns="http://www.w3.org/2000/svg">
<g clip-path="url(#clip0_146_249)">
<path d="M13.7467 5.64941C13.0467 2.56941 10.3601 1.18274 8.00006 1.18274C8.00006 1.18274 8.00006 1.18274 7.9934 1.18274C5.64006 1.18274 2.94673 2.56274 2.24673 5.64274C1.46673 9.08274 3.5734 11.9961 5.48006 13.8294C6.18673 14.5094 7.0934 14.8494 8.00006 14.8494C8.90673 14.8494 9.8134 14.5094 10.5134 13.8294C12.4201 11.9961 14.5267 9.08941 13.7467 5.64941ZM8.00006 8.98941C6.84006 8.98941 5.90006 8.04941 5.90006 6.88941C5.90006 5.72941 6.84006 4.78941 8.00006 4.78941C9.16006 4.78941 10.1001 5.72941 10.1001 6.88941C10.1001 8.04941 9.16006 8.98941 8.00006 8.98941Z" fill="#01615F"/>
</g>
<defs>
<clipPath id="clip0_146_249">
<rect width="16" height="16" fill="white" transform="translate(0 0.0161133)"/>
</clipPath>
</defs>
</svg>
