<svg width="25" height="25" viewBox="0 0 25 25" fill="none" xmlns="http://www.w3.org/2000/svg">
<g id="vuesax/twotone/lock">
<g id="lock">
<path id="Vector" opacity="0.4" d="M6.35986 10.5293V8.5293C6.35986 5.2193 7.35986 2.5293 12.3599 2.5293C17.3599 2.5293 18.3599 5.2193 18.3599 8.5293V10.5293" stroke="#252525" stroke-width="1.5" stroke-linecap="round" stroke-linejoin="round"/>
<path id="Vector_2" opacity="0.4" d="M12.3599 19.0293C13.7406 19.0293 14.8599 17.91 14.8599 16.5293C14.8599 15.1486 13.7406 14.0293 12.3599 14.0293C10.9792 14.0293 9.85986 15.1486 9.85986 16.5293C9.85986 17.91 10.9792 19.0293 12.3599 19.0293Z" stroke="#252525" stroke-width="1.5" stroke-linecap="round" stroke-linejoin="round"/>
<path id="Vector_3" d="M17.3599 22.5293H7.35986C3.35986 22.5293 2.35986 21.5293 2.35986 17.5293V15.5293C2.35986 11.5293 3.35986 10.5293 7.35986 10.5293H17.3599C21.3599 10.5293 22.3599 11.5293 22.3599 15.5293V17.5293C22.3599 21.5293 21.3599 22.5293 17.3599 22.5293Z" stroke="#252525" stroke-width="1.5" stroke-linecap="round" stroke-linejoin="round"/>
</g>
</g>
</svg>
