<svg width="86" height="123" viewBox="0 0 86 123" fill="none" xmlns="http://www.w3.org/2000/svg">
<path d="M16.543 40.1939C10.5956 44.6037 7.13188 51.4466 7.14878 59.0836C7.14878 67.8357 11.7276 75.5572 19.3646 79.7136C25.4809 83.059 32.1887 84.7655 39.3188 84.7655C55.3024 84.7655 65.7948 76.4189 71.6577 69.7112C78.112 87.2999 69.9512 98.9413 59.0364 105.852C44.7593 114.908 22.8959 114.84 10.4942 96.88C8.7539 94.3625 5.25643 93.7711 2.77272 95.6466C0.289003 97.522 0.103148 100.901 1.80964 103.334C9.12561 113.776 19.9053 120.45 32.1887 122.173C34.2838 122.461 36.4127 122.613 38.5584 122.613C47.7161 122.613 57.0258 119.96 64.8317 114.992C74.1752 109.062 80.7647 100.327 83.4004 90.3919C86.0531 80.3895 84.6338 71.0798 79.3623 60.317C83.2653 53.8121 85.3097 46.4961 85.3097 38.7915C85.3097 16.286 68.6502 4.57712 63.5307 1.53584C61.0977 0.082781 58.0733 0.082781 55.6572 1.53584C50.9601 4.34057 36.4633 14.4951 34.1993 33.6551C29.6712 34.1958 25.3458 35.4461 21.2738 37.4229C19.9897 38.0312 18.7901 38.7746 17.5905 39.5518L16.5598 40.2108L16.543 40.1939ZM59.5771 11.8255C64.5276 15.1878 74.4793 23.8386 74.4793 38.7746C74.4793 42.5424 73.8373 46.1413 72.6039 49.5036C67.6365 43.4548 58.6985 35.5306 45.0803 33.7227C46.9727 21.8786 55.2179 14.7992 59.5771 11.8255ZM39.3019 73.9521C33.9965 73.9521 29.0291 72.7018 24.5348 70.235C20.4121 67.9878 17.9453 63.8145 17.9453 59.0836C17.9453 54.3358 20.4121 50.1456 24.5348 47.8985L25.312 47.4592C29.5022 45.3134 34.0979 44.2151 38.964 44.1644C39.0653 44.1644 39.1498 44.1982 39.2512 44.1982C39.3526 44.1982 39.437 44.1813 39.5384 44.1644C54.4914 44.2827 63.0408 54.302 66.2679 59.0498C63.0239 63.8483 54.4069 73.9521 39.3019 73.9521Z" fill="#F6F6F6"/>
</svg>
