<svg width="17" height="17" viewBox="0 0 17 17" fill="none" xmlns="http://www.w3.org/2000/svg">
<path d="M15.423 0.608765H10.7269C10.2505 0.608765 9.87615 0.983094 9.87615 1.45951C9.87615 1.93593 10.2505 2.31026 10.7269 2.31026H13.3472L10.2165 5.44102C7.80033 3.63743 4.3633 3.80758 2.18538 5.9855C-0.196721 8.3676 -0.196721 12.281 2.18538 14.6631C4.56748 17.0452 8.48093 17.0452 10.863 14.6631C13.0409 12.4852 13.2451 9.01417 11.4075 6.63207L14.5383 3.50131V6.15565C14.5383 6.63207 14.9126 7.0064 15.389 7.0064C15.8654 7.0064 16.2398 6.63207 16.2398 6.15565V1.45951C16.2738 0.983094 15.8995 0.608765 15.423 0.608765ZM9.70601 13.4721C7.97048 15.2076 5.14599 15.2076 3.41046 13.4721C1.67493 11.7366 1.67493 8.91208 3.41046 7.17655C5.14599 5.44102 7.97048 5.44102 9.70601 7.17655C11.4415 8.91208 11.4415 11.7366 9.70601 13.4721Z" fill="#868787"/>
</svg>
