<svg width="30" height="30" viewBox="0 0 30 30" fill="none" xmlns="http://www.w3.org/2000/svg">
<path d="M3.34814 10.0082V21.6842C3.34814 23.9642 4.96814 24.9002 6.93614 23.7722L9.75614 22.1642C10.3681 21.8162 11.3881 21.7802 12.0241 22.1042L18.3241 25.2602C18.9601 25.5722 19.9801 25.5482 20.5921 25.2002L25.7881 22.2242C26.4481 21.8402 27.0001 20.9042 27.0001 20.1362V8.46024C27.0001 6.18024 25.3801 5.24424 23.4121 6.37224L20.5921 7.98024C19.9801 8.32824 18.9601 8.36424 18.3241 8.04024L12.0241 4.89624C11.3881 4.58424 10.3681 4.60824 9.75614 4.95624L4.56014 7.93224C3.88814 8.31624 3.34814 9.25224 3.34814 10.0082Z" stroke="#F6F6F6" stroke-width="1.8" stroke-linecap="round" stroke-linejoin="round"/>
<path d="M10.8721 5.47168V21.0717" stroke="#F6F6F6" stroke-width="1.8" stroke-linecap="round" stroke-linejoin="round"/>
<path d="M19.4761 8.61621V24.6722" stroke="#F6F6F6" stroke-width="1.8" stroke-linecap="round" stroke-linejoin="round"/>
</svg>
