<svg width="47" height="33" viewBox="0 0 47 33" fill="none" xmlns="http://www.w3.org/2000/svg">
<rect x="0.847656" y="1" width="45" height="31" rx="5.5" fill="#F6F6F6"/>
<rect x="0.847656" y="1" width="45" height="31" rx="5.5" stroke="#E2E5E8"/>
<path fill-rule="evenodd" clip-rule="evenodd" d="M22.253 22.9396C20.6742 24.2704 18.6263 25.0737 16.3886 25.0737C11.3954 25.0737 7.34766 21.0741 7.34766 16.1404C7.34766 11.2066 11.3954 7.20703 16.3886 7.20703C18.6263 7.20703 20.6742 8.01036 22.253 9.34109C23.8317 8.01036 25.8796 7.20703 28.1173 7.20703C33.1105 7.20703 37.1583 11.2066 37.1583 16.1404C37.1583 21.0741 33.1105 25.0737 28.1173 25.0737C25.8796 25.0737 23.8317 24.2704 22.253 22.9396Z" fill="#ED0006"/>
<path fill-rule="evenodd" clip-rule="evenodd" d="M22.2529 22.9396C24.1968 21.3011 25.4295 18.863 25.4295 16.1404C25.4295 13.4178 24.1968 10.9796 22.2529 9.34108C23.8317 8.01036 25.8795 7.20703 28.1173 7.20703C33.1105 7.20703 37.1582 11.2066 37.1582 16.1404C37.1582 21.0741 33.1105 25.0737 28.1173 25.0737C25.8795 25.0737 23.8317 24.2704 22.2529 22.9396Z" fill="#F9A000"/>
<path fill-rule="evenodd" clip-rule="evenodd" d="M22.2532 22.9393C24.1971 21.3008 25.4297 18.8627 25.4297 16.1401C25.4297 13.4175 24.1971 10.9794 22.2532 9.34082C20.3093 10.9794 19.0767 13.4175 19.0767 16.1401C19.0767 18.8627 20.3093 21.3008 22.2532 22.9393Z" fill="#FF5E00"/>
</svg>
