<svg width="17" height="17" viewBox="0 0 17 17" fill="none" xmlns="http://www.w3.org/2000/svg">
<path d="M14.6663 6.03327C14.6663 6.47327 14.3063 6.83327 13.8663 6.83327H2.13301C1.69301 6.83327 1.33301 6.47327 1.33301 6.03327V6.0266C1.33301 4.49993 2.56634 3.2666 4.09301 3.2666H11.8997C13.4263 3.2666 14.6663 4.5066 14.6663 6.03327Z" fill="#01615F"/>
<path d="M1.33301 8.63301V11.973C1.33301 13.4997 2.56634 14.733 4.09301 14.733H11.8997C13.4263 14.733 14.6663 13.493 14.6663 11.9663V8.63301C14.6663 8.19301 14.3063 7.83301 13.8663 7.83301H2.13301C1.69301 7.83301 1.33301 8.19301 1.33301 8.63301ZM5.33301 12.4997H3.99967C3.72634 12.4997 3.49967 12.273 3.49967 11.9997C3.49967 11.7263 3.72634 11.4997 3.99967 11.4997H5.33301C5.60634 11.4997 5.83301 11.7263 5.83301 11.9997C5.83301 12.273 5.60634 12.4997 5.33301 12.4997ZM9.66634 12.4997H6.99967C6.72634 12.4997 6.49967 12.273 6.49967 11.9997C6.49967 11.7263 6.72634 11.4997 6.99967 11.4997H9.66634C9.93967 11.4997 10.1663 11.7263 10.1663 11.9997C10.1663 12.273 9.93967 12.4997 9.66634 12.4997Z" fill="#01615F"/>
</svg>
