<svg width="177" height="170" viewBox="0 0 177 170" fill="none" xmlns="http://www.w3.org/2000/svg">
<path opacity="0.1" fill-rule="evenodd" clip-rule="evenodd" d="M82.7437 7.82657C96.0063 11.5482 103.854 23.4057 116.236 29.1356C130.743 35.8488 150.229 33.0448 161.125 44.098C172.79 55.9323 179.595 73.6516 175.373 89.1261C171.187 104.467 150.507 109.846 139.803 122.246C128.37 135.491 126.938 156.174 110.663 164.091C93.9379 172.226 72.7953 169.459 55.0178 163.487C37.8161 157.709 23.8985 145.678 13.9171 131.594C4.72926 118.63 -1.45968 102.911 1.27452 87.6551C3.77764 73.6886 22.6932 67.2716 27.8368 53.9265C33.8222 38.3976 19.6005 16.8592 32.8488 5.73589C45.381 -4.78611 66.4946 3.26684 82.7437 7.82657Z" fill="#01615F"/>
<g clip-path="url(#clip0_5151_8602)">
<path d="M104.131 49.5973C103.563 48.5825 102.965 47.5827 102.367 46.5829C101.619 45.335 100.707 44.1623 99.7282 43.0949C98.6669 41.9447 97.3365 41.0201 95.9239 40.3586C92.7548 38.8701 89.2718 38.2838 85.8337 37.8403C85.6618 37.8177 85.4974 37.8027 85.3254 37.7801C85.4675 37.3742 85.5123 36.8931 85.3703 36.5097C84.9816 35.5099 84.6752 34.4725 84.3314 33.4577C83.8231 31.9692 83.2177 30.4658 82.4329 29.1051C81.7901 27.9775 80.6391 27.0078 79.3087 27.0078C79.1966 27.0078 79.077 27.0153 78.9649 27.0304C78.5463 27.083 78.1203 27.1582 77.7541 27.3912C77.4701 27.5716 77.2085 27.7821 76.9469 28.0001C76.7002 28.2106 76.5134 28.5338 76.3414 28.8044C76.192 29.0525 76.05 29.3081 75.9229 29.5637C75.2427 30.8642 74.8092 32.2774 74.585 33.7208C74.4579 34.5251 74.3907 35.322 74.3608 36.1338C74.3384 36.8705 74.4056 37.6147 74.5103 38.3514C74.2412 38.4041 73.9647 38.4567 73.6956 38.5093C72.9781 38.6672 72.2605 38.8175 71.543 38.9679C71.3337 39.013 71.1245 39.0731 70.9227 39.1408C70.691 38.6747 70.2201 38.3439 69.7044 38.3439C69.5848 38.3439 69.4652 38.359 69.3456 38.3965C68.6953 38.592 68.0825 38.825 67.477 39.1483C66.767 39.5241 66.1242 40.0654 65.4964 40.569C65.3394 40.6968 65.1974 40.8321 65.0404 40.9599C64.6368 41.1404 64.3229 41.4561 64.1435 41.8319C63.6428 42.3807 63.1794 42.9595 62.7608 43.5835C62.0956 44.5682 61.4603 45.5455 60.967 46.6355C60.4363 47.8082 60.0626 49.041 59.6814 50.2664C59.2928 51.4992 59.0835 52.7546 58.8593 54.025C58.6052 55.4308 58.4557 56.8591 58.2838 58.2723C57.9848 60.7455 57.8278 63.2488 57.7157 65.737C57.5961 68.3906 57.4541 71.0442 57.2374 73.6903C57.043 76.0056 56.901 78.321 56.7067 80.6288C56.5273 82.8238 56.3106 84.9963 56.034 87.1764C55.3389 91.4688 54.3523 95.6935 53.2686 99.9032C52.7379 101.94 52.1773 103.963 51.5719 105.977C50.9516 108.059 50.234 110.082 49.4343 112.104C48.5374 114.194 47.5658 116.246 46.6016 118.306C46.2652 119.012 45.9289 119.719 45.6524 120.44C45.5552 120.689 45.458 120.937 45.3609 121.192C45.0021 122.124 44.875 123.132 44.8152 124.116C44.7854 124.575 44.9049 125.041 44.9797 125.492C45.0544 125.958 45.2786 126.447 45.473 126.868C45.8317 127.665 46.3325 128.326 46.8632 129.01C47.4088 129.717 48.1487 130.303 48.8663 130.829C49.6062 131.371 50.3761 131.822 51.1982 132.228C52.7603 133.009 54.4121 133.596 56.1088 133.987C57.1402 134.227 58.1791 134.378 59.218 134.535C60.6307 134.753 62.0508 134.964 63.4709 135.062C64.8312 135.159 66.184 135.257 67.5368 135.332C68.7925 135.407 70.0631 135.475 71.3263 135.43C73.9123 135.355 76.5059 135.265 79.092 135.024C80.0636 134.934 81.0278 134.829 81.9994 134.716C82.1414 134.866 82.2834 135.024 82.4255 135.174C83.3597 136.137 84.4285 136.956 85.5048 137.753C87.0744 138.918 88.6216 140.234 90.5275 140.775C91.1927 140.963 91.9102 141 92.5978 140.985C93.4948 140.963 94.4066 140.76 95.2661 140.512C96.7685 140.068 98.2184 139.309 99.4592 138.354C100.012 137.926 100.506 137.497 100.969 136.986C101.507 136.385 101.971 135.708 102.397 135.017C103.226 133.671 103.779 132.122 103.727 130.529C103.719 130.281 103.667 130.055 103.592 129.83C105.663 129.176 107.726 128.507 109.774 127.785C112.285 126.905 114.744 125.853 117.151 124.733C119.542 123.62 121.897 122.448 124.236 121.237C126.396 120.117 128.467 118.847 130.5 117.516C131.613 116.78 132.764 116.013 133.758 115.118C134.214 114.705 134.633 114.276 135.036 113.818C135.32 113.487 135.589 113.126 135.851 112.773C136.247 112.239 136.501 111.675 136.703 111.036C137.054 109.931 136.479 108.668 135.515 108.105C135.119 107.872 134.678 107.774 134.229 107.766C133.422 106.879 132.66 105.94 131.912 105C130.985 103.842 130.066 102.677 129.154 101.504C128.758 100.956 128.362 100.407 127.958 99.8505C127.547 99.2792 127.181 98.6703 126.792 98.0765C126.463 97.5728 126.157 97.0541 125.851 96.5354C125.514 95.9641 125.148 95.4078 124.842 94.8139C124.161 93.4608 123.474 92.1228 122.861 90.7396C122.345 89.5819 121.844 88.4092 121.351 87.244C120.97 86.3269 120.581 85.4173 120.237 84.4852C119.789 83.2674 119.356 82.0571 118.952 80.8242C118.227 78.6292 117.509 76.4416 116.642 74.2992C115.716 72.0064 114.639 69.8114 113.458 67.6464C112.98 66.7593 112.464 65.8949 111.978 65.0229C111.351 63.9028 110.745 62.7752 110.147 61.6401C109.093 59.648 108.167 57.5807 107.188 55.551C106.231 53.5364 105.214 51.5518 104.131 49.6048V49.5973ZM78.2922 34.5627C78.4268 33.7433 78.6286 32.9465 78.9201 32.1647C79.0247 31.9317 79.1443 31.6986 79.2639 31.4656C79.3835 31.6836 79.4881 31.9091 79.5927 32.1346C79.9291 32.969 80.2355 33.826 80.4448 34.698C80.684 35.6602 80.8783 36.63 81.2221 37.5621C80.228 37.5621 79.2414 37.6373 78.2548 37.7425C78.1577 36.6676 78.1726 35.6227 78.2847 34.5552L78.2922 34.5627ZM97.4112 133.709C97.0898 134.084 96.746 134.423 96.3648 134.738C95.752 135.167 95.1167 135.535 94.4365 135.858C93.8236 136.092 93.2107 136.287 92.5754 136.407C92.2615 136.437 91.9551 136.445 91.6337 136.43C91.3796 136.377 91.1329 136.317 90.8863 136.234C89.6306 135.618 88.4422 134.836 87.2986 134.009C87.3958 133.994 87.5004 133.979 87.5976 133.964C90.094 133.551 92.5679 133.077 95.027 132.476C96.2453 132.183 97.4411 131.814 98.637 131.431C98.6071 131.513 98.5772 131.604 98.5398 131.686C98.211 132.393 97.8447 133.07 97.4038 133.709H97.4112ZM110.902 72.0966C111.089 72.4951 111.268 72.901 111.455 73.2994C112.248 75.2013 113.002 77.1182 113.593 79.0953C113.952 80.283 114.31 81.4707 114.669 82.6585C115.013 83.7861 115.409 84.8986 115.798 86.0187C116.127 86.9809 116.53 87.9281 116.911 88.8753C117.405 90.078 117.891 91.2808 118.406 92.4761C118.87 93.551 119.333 94.6185 119.856 95.6709C120.148 96.2648 120.439 96.8587 120.738 97.4525C120.977 97.9336 121.269 98.3847 121.538 98.8432C122.211 100.016 122.928 101.151 123.653 102.294C124.416 103.489 125.305 104.617 126.172 105.737C127.024 106.842 127.884 107.947 128.788 109.007C129.281 109.585 129.782 110.142 130.305 110.698C130.365 110.766 130.44 110.811 130.5 110.878C130.245 111.119 129.991 111.352 129.722 111.578C124.991 115.013 119.692 117.524 114.34 119.832C113.137 120.298 111.926 120.741 110.708 121.17C109.452 121.613 108.167 121.959 106.881 122.312C104.527 122.974 102.127 123.477 99.7581 124.086C97.1795 124.74 94.6234 125.5 92.0373 126.139C89.5783 126.747 87.1118 127.319 84.6453 127.868C82.3657 128.371 80.0561 128.725 77.7541 129.078C76.4087 129.258 75.0559 129.439 73.7031 129.544C72.0438 129.679 70.3696 129.852 68.7028 129.837C66.9538 129.822 65.2049 129.784 63.4484 129.724C61.8938 129.672 60.3392 129.469 58.792 129.281C57.0655 129.003 55.3912 128.612 53.7619 127.973C52.865 127.567 52.0054 127.108 51.1982 126.545C50.8245 126.229 50.4807 125.891 50.1518 125.522C49.9799 125.267 49.8155 125.011 49.6735 124.733C49.6212 124.567 49.5688 124.402 49.5315 124.229C49.5315 124.094 49.5315 123.966 49.5464 123.831C49.6212 123.47 49.7183 123.124 49.8454 122.778C50.3088 121.756 50.8395 120.771 51.3776 119.779C51.9681 118.666 52.5511 117.554 53.1266 116.434C54.3449 114.066 55.4137 111.608 56.2433 109.074C57.0132 106.721 57.6634 104.316 58.2539 101.91C58.8593 99.4145 59.4423 96.9188 59.9356 94.4005C60.2345 92.8895 60.526 91.3861 60.7278 89.86C60.9072 88.5069 61.0716 87.1538 61.2062 85.7932C61.4678 83.1847 61.535 80.5611 61.6397 77.9451C61.7369 75.3591 61.849 72.7657 61.9387 70.1797C62.0283 67.6088 61.9387 65.0304 61.9685 62.4594C61.991 60.7605 62.0433 59.0616 62.1405 57.3627C62.2301 55.8668 62.3871 54.3708 62.559 52.8824C62.8804 50.988 63.2541 49.1087 63.9642 47.3196C64.45 46.2672 65.0703 45.2598 65.743 44.3051C65.885 44.3051 66.027 44.2826 66.1691 44.2375C68.1796 43.5985 70.2051 43.0046 72.2306 42.4108C72.8809 42.2153 73.561 42.1176 74.2262 41.9748C75.3848 41.7267 76.5358 41.4937 77.7092 41.3208C79.518 41.1178 81.3342 41.0953 83.1505 41.1779C83.8456 41.208 84.5407 41.2907 85.2358 41.3508C88.0984 41.7643 90.9685 42.2755 93.6741 43.3354C94.4963 43.7038 95.2661 44.1172 95.9986 44.6434C96.7311 45.2598 97.3739 45.9439 97.9793 46.6881C98.8837 47.9059 99.6909 49.2365 100.408 50.5671C100.969 51.5969 101.522 52.6268 102.053 53.6792C103.054 55.6713 103.989 57.701 104.885 59.7382C105.805 61.8205 106.709 63.9103 107.756 65.9249C108.817 67.9696 109.938 69.9993 110.902 72.0891V72.0966Z" fill="#01615F"/>
<path d="M90.4079 121.155C90.1762 121.019 89.9445 120.967 89.6979 120.967C89.5634 120.967 89.4288 120.982 89.2943 121.004C84.9443 121.801 80.5794 122.591 76.1995 123.192C74.1665 123.448 72.1186 123.598 70.0631 123.613C67.9554 123.628 65.8477 123.417 63.7549 123.192C60.8325 122.763 57.9101 122.342 55.0026 121.846C54.599 121.771 54.2328 121.779 53.8665 121.997C53.5302 122.192 53.2836 122.515 53.1864 122.884C53.0817 123.267 53.1341 123.688 53.3359 124.026C53.5153 124.327 53.8591 124.643 54.2178 124.71C56.5124 125.109 58.8145 125.455 61.1165 125.793C61.8116 125.898 62.5067 125.996 63.2018 126.101C64.3529 126.274 65.5188 126.372 66.6773 126.462C67.8956 126.56 69.1214 126.612 70.3472 126.612C73.7853 126.612 77.1711 126.116 80.5569 125.605C82.1116 125.364 83.6662 125.109 85.2208 124.846C86.8502 124.568 88.4646 124.252 90.0566 123.801C90.8115 123.583 91.2749 122.778 91.0657 122.019C90.9685 121.651 90.7293 121.343 90.4005 121.147L90.4079 121.155Z" fill="#01615F"/>
</g>
<defs>
<clipPath id="clip0_5151_8602">
<rect width="92" height="114" fill="white" transform="translate(44.8008 27)"/>
</clipPath>
</defs>
</svg>
