<svg width="264" height="204" viewBox="0 0 264 204" fill="none" xmlns="http://www.w3.org/2000/svg">
<path opacity="0.1" fill-rule="evenodd" clip-rule="evenodd" d="M131.744 26.356C145.006 30.0777 152.854 41.9351 165.236 47.665C179.743 54.3782 199.229 51.5742 210.125 62.6274C221.79 74.4617 228.595 92.181 224.373 107.656C220.187 122.996 199.507 128.375 188.803 140.775C177.37 154.02 175.938 174.704 159.663 182.62C142.938 190.755 121.795 187.988 104.018 182.017C86.8161 176.239 72.8985 164.207 62.9171 150.123C53.7293 137.159 47.5403 121.44 50.2745 106.184C52.7776 92.218 71.6932 85.801 76.8368 72.4559C82.8222 56.927 68.6005 35.3886 81.8488 24.2653C94.381 13.7433 115.495 21.7963 131.744 26.356Z" fill="#01615F"/>
<g clip-path="url(#clip0_1_1542)">
<path d="M153.132 68.1264C152.563 67.1115 151.966 66.1117 151.368 65.1119C150.62 63.8641 149.708 62.6914 148.729 61.6239C147.668 60.4738 146.337 59.5491 144.925 58.8876C141.756 57.3992 138.273 56.8128 134.835 56.3693C134.663 56.3468 134.498 56.3317 134.326 56.3092C134.468 55.9032 134.513 55.4221 134.371 55.0387C133.983 54.0389 133.676 53.0016 133.332 51.9867C132.824 50.4983 132.219 48.9948 131.434 47.6342C130.791 46.5066 129.64 45.5369 128.31 45.5369C128.198 45.5369 128.078 45.5444 127.966 45.5594C127.547 45.612 127.121 45.6872 126.755 45.9202C126.471 46.1007 126.209 46.3111 125.948 46.5292C125.701 46.7396 125.514 47.0629 125.342 47.3335C125.193 47.5816 125.051 47.8372 124.924 48.0928C124.244 49.3932 123.81 50.8065 123.586 52.2498C123.459 53.0542 123.392 53.851 123.362 54.6629C123.339 55.3996 123.407 56.1438 123.511 56.8805C123.242 56.9331 122.966 56.9857 122.697 57.0384C121.979 57.1962 121.262 57.3466 120.544 57.4969C120.335 57.542 120.125 57.6021 119.924 57.6698C119.692 57.2037 119.221 56.873 118.705 56.873C118.586 56.873 118.466 56.888 118.347 56.9256C117.696 57.121 117.083 57.3541 116.478 57.6773C115.768 58.0532 115.125 58.5944 114.497 59.0981C114.34 59.2259 114.198 59.3612 114.041 59.489C113.638 59.6694 113.324 59.9851 113.145 60.361C112.644 60.9098 112.18 61.4886 111.762 62.1125C111.097 63.0973 110.461 64.0746 109.968 65.1646C109.437 66.3373 109.064 67.5701 108.682 68.7954C108.294 70.0283 108.084 71.2837 107.86 72.5541C107.606 73.9598 107.457 75.3881 107.285 76.8014C106.986 79.2746 106.829 81.7778 106.717 84.266C106.597 86.9197 106.455 89.5733 106.238 92.2194C106.044 94.5347 105.902 96.85 105.708 99.1578C105.528 101.353 105.312 103.525 105.035 105.705C104.34 109.998 103.353 114.223 102.27 118.432C101.739 120.469 101.178 122.492 100.573 124.506C99.9525 126.589 99.235 128.611 98.4353 130.633C97.5384 132.723 96.5667 134.775 95.6026 136.835C95.2662 137.541 94.9299 138.248 94.6533 138.97C94.5562 139.218 94.459 139.466 94.3618 139.721C94.0031 140.653 93.876 141.661 93.8162 142.645C93.7863 143.104 93.9059 143.57 93.9807 144.021C94.0554 144.487 94.2796 144.976 94.474 145.397C94.8327 146.194 95.3335 146.855 95.8642 147.539C96.4098 148.246 97.1497 148.832 97.8672 149.358C98.6072 149.9 99.377 150.351 100.199 150.757C101.761 151.538 103.413 152.125 105.11 152.516C106.141 152.756 107.18 152.907 108.219 153.064C109.632 153.282 111.052 153.493 112.472 153.591C113.832 153.688 115.185 153.786 116.538 153.861C117.793 153.936 119.064 154.004 120.327 153.959C122.913 153.884 125.507 153.794 128.093 153.553C129.065 153.463 130.029 153.358 131 153.245C131.142 153.395 131.284 153.553 131.426 153.703C132.361 154.666 133.43 155.485 134.506 156.282C136.075 157.447 137.623 158.763 139.528 159.304C140.194 159.492 140.911 159.529 141.599 159.514C142.496 159.492 143.408 159.289 144.267 159.041C145.769 158.597 147.219 157.838 148.46 156.883C149.013 156.455 149.507 156.026 149.97 155.515C150.508 154.914 150.971 154.237 151.398 153.546C152.227 152.2 152.78 150.651 152.728 149.058C152.72 148.81 152.668 148.584 152.593 148.359C154.664 147.705 156.727 147.036 158.775 146.314C161.286 145.434 163.745 144.382 166.152 143.262C168.543 142.149 170.898 140.977 173.237 139.766C175.397 138.646 177.468 137.376 179.501 136.045C180.614 135.309 181.765 134.542 182.759 133.647C183.215 133.234 183.634 132.805 184.037 132.347C184.321 132.016 184.59 131.655 184.852 131.302C185.248 130.768 185.502 130.204 185.704 129.565C186.055 128.46 185.48 127.197 184.516 126.634C184.12 126.401 183.679 126.303 183.23 126.295C182.423 125.408 181.661 124.469 180.913 123.529C179.986 122.371 179.067 121.206 178.155 120.033C177.759 119.485 177.363 118.936 176.959 118.38C176.548 117.808 176.182 117.199 175.793 116.606C175.464 116.102 175.158 115.583 174.852 115.064C174.515 114.493 174.149 113.937 173.843 113.343C173.162 111.99 172.475 110.652 171.862 109.269C171.346 108.111 170.845 106.938 170.352 105.773C169.971 104.856 169.582 103.946 169.238 103.014C168.79 101.796 168.356 100.586 167.953 99.3533C167.228 97.1582 166.51 94.9707 165.643 92.8283C164.717 90.5355 163.64 88.3404 162.459 86.1754C161.981 85.2884 161.465 84.4239 160.979 83.5519C160.352 82.4318 159.746 81.3042 159.148 80.1691C158.094 78.177 157.168 76.1098 156.188 74.0801C155.232 72.0655 154.215 70.0809 153.132 68.1339V68.1264ZM127.293 53.0918C127.428 52.2724 127.63 51.4755 127.921 50.6937C128.026 50.4607 128.145 50.2277 128.265 49.9946C128.384 50.2126 128.489 50.4382 128.594 50.6637C128.93 51.4981 129.236 52.3551 129.446 53.2271C129.685 54.1893 129.879 55.159 130.223 56.0912C129.229 56.0912 128.242 56.1663 127.256 56.2716C127.159 55.1966 127.174 54.1517 127.286 53.0842L127.293 53.0918ZM146.412 152.238C146.091 152.613 145.747 152.952 145.366 153.267C144.753 153.696 144.118 154.064 143.437 154.388C142.825 154.621 142.212 154.816 141.576 154.936C141.262 154.966 140.956 154.974 140.635 154.959C140.381 154.906 140.134 154.846 139.887 154.763C138.632 154.147 137.443 153.365 136.3 152.538C136.397 152.523 136.501 152.508 136.599 152.493C139.095 152.08 141.569 151.606 144.028 151.005C145.246 150.712 146.442 150.343 147.638 149.96C147.608 150.043 147.578 150.133 147.541 150.215C147.212 150.922 146.846 151.599 146.405 152.238H146.412ZM159.903 90.6257C160.09 91.0241 160.269 91.43 160.456 91.8285C161.249 93.7303 162.003 95.6473 162.594 97.6243C162.953 98.812 163.311 99.9998 163.67 101.188C164.014 102.315 164.41 103.428 164.799 104.548C165.128 105.51 165.531 106.457 165.912 107.404C166.406 108.607 166.892 109.81 167.407 111.005C167.871 112.08 168.334 113.148 168.857 114.2C169.149 114.794 169.44 115.388 169.739 115.982C169.978 116.463 170.27 116.914 170.539 117.372C171.212 118.545 171.929 119.68 172.654 120.823C173.417 122.018 174.306 123.146 175.173 124.266C176.025 125.371 176.885 126.476 177.789 127.536C178.282 128.115 178.783 128.671 179.306 129.227C179.366 129.295 179.441 129.34 179.501 129.407C179.246 129.648 178.992 129.881 178.723 130.107C173.992 133.542 168.693 136.053 163.341 138.361C162.138 138.827 160.927 139.27 159.709 139.699C158.453 140.142 157.168 140.488 155.882 140.841C153.528 141.503 151.128 142.007 148.759 142.615C146.181 143.269 143.624 144.029 141.038 144.668C138.579 145.277 136.113 145.848 133.646 146.397C131.367 146.9 129.057 147.254 126.755 147.607C125.41 147.787 124.057 147.968 122.704 148.073C121.045 148.208 119.371 148.381 117.704 148.366C115.955 148.351 114.206 148.314 112.449 148.253C110.895 148.201 109.34 147.998 107.793 147.81C106.066 147.532 104.392 147.141 102.763 146.502C101.866 146.096 101.006 145.637 100.199 145.074C99.8255 144.758 99.4817 144.42 99.1528 144.051C98.9809 143.796 98.8165 143.54 98.6745 143.262C98.6221 143.097 98.5698 142.931 98.5324 142.758C98.5324 142.623 98.5324 142.495 98.5474 142.36C98.6221 141.999 98.7193 141.653 98.8464 141.307C99.3098 140.285 99.8404 139.3 100.379 138.308C100.969 137.195 101.552 136.083 102.128 134.963C103.346 132.595 104.415 130.137 105.244 127.603C106.014 125.25 106.664 122.845 107.255 120.439C107.86 117.944 108.443 115.448 108.937 112.93C109.236 111.419 109.527 109.915 109.729 108.389C109.908 107.036 110.073 105.683 110.207 104.322C110.469 101.714 110.536 99.0902 110.641 96.4742C110.738 93.8882 110.85 91.2947 110.94 88.7088C111.029 86.1379 110.94 83.5594 110.97 80.9885C110.992 79.2896 111.044 77.5907 111.141 75.8918C111.231 74.3958 111.388 72.8999 111.56 71.4114C111.881 69.5171 112.255 67.6378 112.965 65.8486C113.451 64.7962 114.071 63.7889 114.744 62.8342C114.886 62.8342 115.028 62.8116 115.17 62.7665C117.181 62.1276 119.206 61.5337 121.232 60.9398C121.882 60.7444 122.562 60.6467 123.227 60.5038C124.386 60.2558 125.537 60.0227 126.71 59.8498C128.519 59.6469 130.335 59.6243 132.151 59.707C132.847 59.7371 133.542 59.8198 134.237 59.8799C137.099 60.2933 139.969 60.8045 142.675 61.8645C143.497 62.2328 144.267 62.6463 145 63.1725C145.732 63.7889 146.375 64.473 146.98 65.2172C147.885 66.435 148.692 67.7656 149.409 69.0961C149.97 70.126 150.523 71.1559 151.054 72.2083C152.055 74.2004 152.99 76.23 153.886 78.2672C154.806 80.3495 155.71 82.4393 156.757 84.454C157.818 86.4987 158.939 88.5284 159.903 90.6182V90.6257Z" fill="#01615F"/>
<path d="M139.409 139.684C139.177 139.548 138.946 139.496 138.699 139.496C138.564 139.496 138.43 139.511 138.295 139.533C133.945 140.33 129.58 141.119 125.2 141.721C123.167 141.976 121.12 142.127 119.064 142.142C116.956 142.157 114.849 141.946 112.756 141.721C109.833 141.292 106.911 140.871 104.004 140.375C103.6 140.3 103.234 140.308 102.868 140.526C102.531 140.721 102.285 141.044 102.187 141.413C102.083 141.796 102.135 142.217 102.337 142.555C102.516 142.856 102.86 143.172 103.219 143.239C105.513 143.638 107.815 143.984 110.117 144.322C110.813 144.427 111.508 144.525 112.203 144.63C113.354 144.803 114.52 144.901 115.678 144.991C116.897 145.089 118.122 145.141 119.348 145.141C122.786 145.141 126.172 144.645 129.558 144.134C131.113 143.893 132.667 143.638 134.222 143.375C135.851 143.097 137.466 142.781 139.058 142.33C139.813 142.112 140.276 141.307 140.067 140.548C139.969 140.18 139.73 139.872 139.401 139.676L139.409 139.684Z" fill="#01615F"/>
</g>
<defs>
<clipPath id="clip0_1_1542">
<rect width="92" height="114" fill="white" transform="translate(93.8013 45.5293)"/>
</clipPath>
</defs>
</svg>
