<svg width="41" height="40" viewBox="0 0 41 40" fill="none" xmlns="http://www.w3.org/2000/svg">
<rect x="0.5" width="40" height="40" rx="20" fill="#104D4D"/>
<path d="M20.0201 10.91C16.7101 10.91 14.0201 13.6 14.0201 16.91V19.8C14.0201 20.41 13.7601 21.34 13.4501 21.86L12.3001 23.77C11.5901 24.95 12.0801 26.26 13.3801 26.7C17.6901 28.14 22.3401 28.14 26.6501 26.7C27.8601 26.3 28.3901 24.87 27.7301 23.77L26.5801 21.86C26.2801 21.34 26.0201 20.41 26.0201 19.8V16.91C26.0201 13.61 23.3201 10.91 20.0201 10.91Z" stroke="#BDFFE1" stroke-width="1.5" stroke-miterlimit="10" stroke-linecap="round"/>
<path d="M21.8699 11.1999C21.5599 11.1099 21.2399 11.0399 20.9099 10.9999C19.9499 10.8799 19.0299 10.9499 18.1699 11.1999C18.4599 10.4599 19.1799 9.93994 20.0199 9.93994C20.8599 9.93994 21.5799 10.4599 21.8699 11.1999Z" stroke="#BDFFE1" stroke-width="1.5" stroke-miterlimit="10" stroke-linecap="round" stroke-linejoin="round"/>
<path d="M23.02 27.0601C23.02 28.7101 21.67 30.0601 20.02 30.0601C19.2 30.0601 18.44 29.7201 17.9 29.1801C17.36 28.6401 17.02 27.8801 17.02 27.0601" stroke="#BDFFE1" stroke-width="1.5" stroke-miterlimit="10"/>
<circle cx="27.2627" cy="13.1376" r="4.24268" fill="#F96F64"/>
</svg>
