<svg width="278" height="286" viewBox="0 0 278 286" fill="none" xmlns="http://www.w3.org/2000/svg">
<path opacity="0.1" fill-rule="evenodd" clip-rule="evenodd" d="M143.57 0.857277C182.907 -4.40286 217.662 26.7142 243.474 56.8609C267.227 84.6037 275.879 120.261 277.058 156.764C278.287 194.833 277.643 236.983 250.142 263.336C222.948 289.393 181.216 285.801 143.57 284.676C107.516 283.598 70.0445 281.224 43.1846 257.15C15.0726 231.953 -4.23092 194.171 0.859537 156.764C5.58618 122.031 43.5658 106.284 67.2338 80.4277C93.033 52.2428 105.698 5.92161 143.57 0.857277Z" fill="#01615F"/>
<path fill-rule="evenodd" clip-rule="evenodd" d="M160.273 156.186C161.445 155.492 162.888 155.492 164.06 156.186L164.067 156.191L164.067 156.191C166.347 157.552 174.571 163.191 174.571 174.163C174.571 180.122 172.129 184.54 169.551 187.511C168.607 188.599 166.96 188.715 165.872 187.771C164.784 186.827 164.668 185.18 165.612 184.092C167.572 181.834 169.355 178.584 169.355 174.163C169.355 166.982 164.562 162.799 162.166 161.165C159.771 162.799 154.978 166.982 154.978 174.163C154.978 175.603 153.81 176.771 152.37 176.771C150.93 176.771 149.762 175.603 149.762 174.163C149.762 163.191 157.985 157.552 160.266 156.191L160.273 156.186L160.273 156.186Z" fill="#01615F"/>
<path fill-rule="evenodd" clip-rule="evenodd" d="M167.125 181.694C168.371 180.971 169.967 181.394 170.69 182.64C174.396 189.023 175.073 195.15 173.481 200.427C171.903 205.656 168.187 209.755 163.645 212.308C154.628 217.378 141.626 216.667 134.197 205.904C133.378 204.719 133.676 203.095 134.861 202.276C136.047 201.458 137.671 201.756 138.489 202.941C144.081 211.041 153.918 211.793 161.089 207.762C164.641 205.764 167.356 202.67 168.487 198.92C169.604 195.217 169.267 190.577 166.179 185.259C165.456 184.014 165.88 182.418 167.125 181.694Z" fill="#01615F"/>
<path fill-rule="evenodd" clip-rule="evenodd" d="M142.767 173.974C145.368 172.553 148.572 171.542 152.396 171.542C158.805 171.542 163.423 174.375 166.381 177.142C167.855 178.52 168.935 179.896 169.649 180.932C170.008 181.452 170.279 181.892 170.464 182.212C170.557 182.372 170.629 182.502 170.681 182.598C170.707 182.646 170.727 182.685 170.743 182.715L170.763 182.753L170.77 182.767L170.774 182.775C170.774 182.776 170.775 182.777 168.442 183.943C170.775 185.11 170.774 185.111 170.774 185.112L170.772 185.114L170.77 185.12L170.763 185.133L170.743 185.172C170.727 185.202 170.707 185.241 170.681 185.289C170.629 185.384 170.557 185.515 170.464 185.675C170.279 185.994 170.008 186.434 169.649 186.954C168.935 187.991 167.855 189.366 166.381 190.745C163.423 193.511 158.805 196.344 152.396 196.344C148.581 196.344 145.364 195.335 142.767 193.912C135.386 189.886 134.938 179.64 141.41 174.847V174.715L142.767 173.974ZM168.442 183.943L170.775 185.11L171.358 183.943L170.775 182.777L168.442 183.943ZM166.112 182.771C166.114 182.768 166.114 182.767 166.114 182.767L166.112 182.77L166.112 182.771ZM165.39 183.943C165.378 183.96 165.367 183.976 165.356 183.993C164.804 184.792 163.962 185.865 162.818 186.935C160.541 189.065 157.136 191.128 152.396 191.128C149.535 191.128 147.172 190.378 145.271 189.337L145.266 189.334C141.03 187.024 141.026 180.876 145.268 178.558L145.634 178.358C147.478 177.416 149.711 176.758 152.396 176.758C157.136 176.758 160.541 178.821 162.818 180.951C163.962 182.021 164.804 183.094 165.356 183.894C165.367 183.91 165.378 183.927 165.39 183.943ZM166.112 185.115C166.114 185.118 166.114 185.12 166.114 185.12L166.112 185.116L166.112 185.115Z" fill="#01615F"/>
<path d="M214.803 222.338C214.824 216.206 214.851 210.071 214.86 203.939C214.86 202.77 214.801 201.598 214.753 200.429C214.737 200.006 214.672 199.583 214.637 199.161C214.611 198.849 214.584 198.538 214.577 198.224C214.57 197.965 214.603 197.704 214.592 197.445C214.544 196.537 214.513 195.627 214.425 194.722C214.181 192.154 213.929 189.583 213.644 187.019C213.465 185.413 213.271 183.807 213.002 182.215C212.624 179.981 212.173 177.76 211.75 175.536C211.472 174.077 211.158 172.623 210.911 171.157C210.583 169.216 210.315 167.268 210.001 165.324C209.88 164.573 209.695 163.832 209.562 163.083C209.208 161.109 208.868 159.132 208.523 157.155C208.317 155.965 208.091 154.779 207.913 153.587C207.644 151.785 207.418 149.98 207.159 148.176C206.91 146.43 206.613 144.688 206.392 142.94C206.169 141.17 206 139.395 205.834 137.62C205.496 134.013 205.085 130.409 205.004 126.785C204.957 124.761 204.926 122.732 205.014 120.71C205.147 117.666 205.47 114.637 205.865 111.614C205.957 110.904 206.014 110.189 206.097 109.388C205.627 109.495 205.23 109.569 204.843 109.676C201.433 110.598 198.012 111.465 194.522 112.028C192.21 112.401 189.9 112.781 187.581 113.102C185.521 113.387 183.449 113.613 181.38 113.831C178.13 114.176 174.879 114.537 171.622 114.798C169.866 114.938 168.093 114.889 166.328 114.912C165.119 114.929 165.088 114.867 165.069 113.667C165.012 110.213 165.052 106.758 164.605 103.315C164.156 99.8485 163.66 96.3962 162.788 93.008C161.764 89.0306 160.336 85.2171 158.25 81.6602C156.496 78.6689 154.569 75.8081 152.134 73.3229C149.922 71.0633 147.565 68.9581 145.072 67.0146C144.312 66.4206 143.53 65.8456 142.708 65.3419C141.302 64.477 139.788 64.3107 138.21 64.8524C136.664 65.3823 135.385 66.3184 134.259 67.4803C133.962 67.7868 133.675 68.1028 133.378 68.4093C133.204 68.5875 133.012 68.6041 132.769 68.5091C132.463 68.3903 132.137 68.3119 131.812 68.2525C131.208 68.1455 130.605 68.0481 129.997 67.9792C129.281 67.9008 128.564 67.8557 127.849 67.801C127.758 67.7939 127.666 67.8319 127.575 67.8486C127.247 67.9103 126.922 67.984 126.592 68.0315C123.866 68.4212 121.536 69.5688 119.623 71.5694C118.86 72.3677 118.24 73.2658 117.634 74.1806C116.551 75.8176 115.707 77.5711 115.073 79.4244C114.016 82.5085 113.564 85.6994 113.45 88.9451C113.431 89.4606 113.341 89.9739 113.296 90.4895C113.274 90.7484 113.21 91.0312 113.288 91.2617C113.505 91.9151 113.462 92.578 113.495 93.2456C113.64 96.2204 114.163 99.15 114.681 102.075C115.082 104.344 115.622 106.582 116.166 108.82C116.838 111.581 117.458 114.356 118.097 117.124C118.128 117.262 118.131 117.407 118.15 117.6C117.931 117.628 117.751 117.671 117.572 117.676C116.463 117.704 115.353 117.728 114.244 117.745C113.65 117.754 113.053 117.74 112.459 117.745C110.342 117.768 108.223 117.806 106.106 117.818C104.991 117.825 103.877 117.787 102.765 117.766C102.371 117.759 101.986 117.768 101.701 118.129C101.508 117.885 101.325 117.74 101.024 117.752C100.133 117.787 99.2416 117.794 98.3482 117.802C97.0651 117.811 95.7845 117.825 94.5014 117.806C94.0262 117.799 93.5463 117.626 93.0972 117.935C93.045 117.97 92.9499 117.966 92.8786 117.956C91.7572 117.816 90.6143 118.089 89.4976 117.797C89.393 117.771 89.2766 117.79 89.165 117.792C88.4046 117.816 87.6443 117.842 86.8816 117.866C85.7673 117.901 84.6505 117.906 83.5386 117.977C82.8163 118.025 82.0987 118.175 81.4786 118.593C80.9416 118.956 80.8014 119.448 81.0367 120.047C81.317 120.757 81.8445 121.14 82.6001 121.206C83.099 121.252 83.6027 121.271 84.0993 121.325C84.363 121.354 84.622 121.434 84.9428 121.503C84.6315 122.012 84.4177 122.475 84.0969 122.848C83.8403 123.148 83.4625 123.352 83.1252 123.578C82.0203 124.317 81.5926 125.49 81.9918 126.678C82.1771 127.227 82.5003 127.626 83.0729 127.778C83.6835 127.942 84.2941 128.092 84.9072 128.246C85.437 128.38 85.4726 128.41 85.4964 128.957C85.5415 130.05 85.5748 131.143 85.6152 132.236C85.6176 132.326 85.6437 132.416 85.6603 132.507C85.7126 132.797 85.8005 133.086 85.8124 133.379C85.8647 134.488 85.8671 135.6 85.936 136.71C86.0262 138.15 86.0429 139.592 86.2401 141.027C86.2971 141.445 86.2377 141.88 86.2615 142.305C86.3185 143.36 86.4325 144.413 86.4563 145.468C86.5062 147.661 86.511 149.854 86.5418 152.044C86.5442 152.246 86.5846 152.446 86.6131 152.646C86.6488 152.9 86.7177 153.154 86.7224 153.411C86.7509 154.803 86.7557 156.198 86.7866 157.59C86.8507 160.562 86.922 163.535 86.9957 166.507C87.0147 167.301 86.8887 168.106 87.1596 168.886C87.1834 168.952 87.1739 169.033 87.1762 169.107C87.219 171.057 87.257 173.006 87.3069 174.956C87.3972 178.487 87.4946 182.015 87.5944 185.546C87.6871 188.777 87.7869 192.011 87.8819 195.243C87.9009 195.924 87.7797 196.616 88.0268 197.284C88.0696 197.4 88.053 197.54 88.0577 197.671C88.0862 198.524 88.1243 199.379 88.1361 200.232C88.2122 204.896 88.2787 209.56 88.3571 214.224C88.3642 214.59 88.4569 214.956 88.4688 215.322C88.4807 215.705 88.4498 216.092 88.426 216.474C88.4141 216.676 88.3571 216.876 88.3547 217.078C88.3096 221.609 88.2906 226.14 87.9247 230.666C87.7726 232.555 87.7061 234.449 87.459 236.331C87.0598 239.351 86.6773 242.373 86.2805 245.395C86.1355 246.5 85.9003 247.598 86.0001 248.719C86.0999 249.843 86.6844 250.613 87.7394 251.026C88.742 251.418 89.7566 251.478 90.7996 251.212C91.5671 251.014 92.3417 250.843 93.1851 250.644C93.2113 250.729 93.2469 250.831 93.2731 250.936C93.4893 251.782 93.7079 252.628 94.1165 253.409C94.3232 253.809 94.4207 253.832 94.8626 253.747C95.257 253.671 95.6657 253.664 96.0696 253.652C96.2906 253.645 96.5139 253.714 96.7349 253.704C98.6832 253.628 100.632 253.573 102.575 253.452C104.557 253.329 106.536 253.148 108.517 252.982C112.184 252.673 115.84 252.297 119.464 251.62C121.215 251.295 122.994 251.126 124.757 250.86C127.017 250.52 129.272 250.147 131.529 249.796C134.174 249.384 136.82 248.995 139.462 248.577C141.37 248.275 143.269 247.902 145.182 247.633C146.835 247.403 148.506 247.26 150.169 247.111C153.443 246.818 156.715 246.507 159.994 246.289C162.291 246.136 164.598 246.098 166.901 246.065C170.115 246.02 173.33 246.006 176.547 246.015C179.037 246.022 181.527 246.065 184.015 246.139C186.184 246.203 188.351 246.324 190.52 246.426C192.561 246.524 194.605 246.593 196.643 246.745C198.791 246.904 200.937 247.108 203.073 247.36C204.786 247.562 206.489 247.852 208.193 248.135C209.091 248.284 209.975 248.51 210.868 248.679C211.092 248.722 211.36 248.736 211.565 248.655C212.881 248.118 213.641 247.122 213.827 245.718C213.924 244.984 213.979 244.24 213.995 243.499C214.052 240.992 214.086 238.483 214.128 235.974C214.128 235.882 214.119 235.777 214.159 235.699C214.406 235.212 214.361 234.687 214.383 234.169C214.456 232.444 214.539 230.719 214.592 228.991C214.622 227.951 214.604 226.91 214.608 225.869C214.608 225.757 214.592 225.634 214.637 225.539C214.855 225.08 214.798 224.593 214.803 224.113C214.808 223.519 214.805 222.923 214.808 222.329L214.803 222.338ZM93.9264 122.112C93.5653 122.271 93.3111 122.314 93.0616 122.112H93.9264ZM93.0568 122.112C93.0283 122.451 92.7456 122.44 92.5222 122.47C92.192 122.513 91.857 122.516 91.5243 122.535C90.6191 122.584 89.7114 122.637 88.8062 122.682C88.6707 122.689 88.5353 122.67 88.3975 122.663C88.3975 122.622 88.3928 122.58 88.3928 122.539C89.9467 122.397 91.5029 122.254 93.0568 122.112ZM96.5068 168.508C96.5068 168.8 96.4308 169.09 96.3927 169.382C96.3761 169.51 96.3571 169.639 96.3547 169.769C96.2811 172.592 96.2074 175.415 96.1361 178.24C96.1219 178.796 96.1314 179.354 96.1005 179.91C96.0791 180.295 96.0078 180.675 95.9603 181.06C95.9437 181.188 95.9294 181.319 95.9247 181.447C95.8059 185.496 95.6467 189.547 95.5802 193.596C95.4899 199.208 95.4851 204.82 95.4186 210.432C95.3734 214.298 95.2855 218.161 95.2142 222.027C95.2119 222.174 95.2142 222.343 95.1501 222.464C94.9268 222.866 95.0147 223.294 94.9957 223.714C94.8769 226.349 94.7604 228.984 94.6179 231.619C94.5513 232.862 94.4682 234.104 94.3209 235.34C94.0262 237.794 93.9621 240.263 93.8053 242.727C93.7387 243.763 93.6627 244.801 93.6247 245.837C93.6057 246.341 93.3871 246.619 92.9143 246.761C92.1492 246.992 91.4008 247.267 90.6333 247.488C89.9918 247.674 89.8183 247.529 89.8611 246.847C89.9063 246.125 89.9752 245.4 90.0702 244.682C90.3339 242.713 90.6713 240.75 90.8828 238.776C91.1299 236.488 91.301 234.192 91.4554 231.895C91.6003 229.747 91.6906 227.592 91.7833 225.441C91.8379 224.161 91.8451 222.88 91.876 221.6C91.8783 221.471 91.876 221.336 91.9116 221.215C92.2134 220.174 92.1112 219.131 91.9449 218.085C91.9211 217.938 91.9021 217.791 91.8997 217.643C91.8332 213.742 91.7976 209.841 91.6978 205.939C91.6407 203.73 91.4673 201.525 91.3699 199.315C91.282 197.274 91.2249 195.231 91.156 193.187C91.1537 193.095 91.1798 192.992 91.1489 192.912C90.8733 192.192 91.0063 191.441 90.9802 190.702C90.8828 188.084 90.7878 185.465 90.7046 182.847C90.5573 178.242 90.4195 173.635 90.2793 169.031C90.2555 168.27 90.2745 167.512 90.1201 166.757C90.0322 166.329 90.1296 165.868 90.1106 165.424C90.0536 164.088 89.9704 162.753 89.9158 161.418C89.8754 160.415 89.8659 159.412 89.8445 158.41C89.8445 158.317 89.8659 158.222 89.8492 158.134C89.4786 156.098 89.5594 154.036 89.4809 151.98C89.4311 150.7 89.4762 149.412 89.3479 148.138C89.2101 146.77 89.2196 145.401 89.1459 144.035C89.0747 142.7 89.0842 141.357 88.9226 140.034C88.6969 138.171 88.6707 136.299 88.5424 134.431C88.4022 132.395 88.2763 130.356 88.1456 128.318C88.1385 128.211 88.1599 128.104 88.1694 127.968C90.5692 127.712 92.9071 127.46 95.3093 127.201C95.3259 127.41 95.3497 127.586 95.352 127.764C95.3687 128.562 95.3592 129.363 95.3972 130.162C95.4233 130.715 95.5112 131.266 95.5706 131.818C95.5873 131.965 95.6039 132.112 95.6063 132.262C95.6586 134.973 95.7037 137.684 95.7607 140.395C95.8035 142.417 95.8653 144.439 95.9128 146.459C95.9247 146.974 95.8653 147.483 96.0387 148.001C96.1456 148.319 96.0696 148.699 96.0767 149.053C96.1076 150.633 96.1148 152.211 96.1742 153.788C96.2336 155.364 96.3571 156.937 96.4307 158.512C96.4521 158.971 96.3951 159.431 96.3737 159.892C96.369 160.002 96.3547 160.111 96.3642 160.218C96.407 160.696 96.4925 161.173 96.4973 161.653C96.5139 163.939 96.5139 166.224 96.5092 168.51L96.5068 168.508ZM136.842 68.1479C137.462 67.6704 138.125 67.2593 138.864 66.9837C139.802 66.6344 140.738 66.6368 141.596 67.1785C142.394 67.6846 143.179 68.224 143.903 68.8298C145.184 69.9014 146.419 71.03 147.664 72.1444C149.705 73.9667 151.632 75.9056 153.269 78.1034C154.213 79.3674 155.099 80.6742 155.878 82.0547C156.895 83.8533 157.869 85.6686 158.634 87.586C160.231 91.5895 161.374 95.7143 161.83 100.015C161.994 101.566 162.168 103.116 162.336 104.667C162.671 107.775 162.579 110.897 162.59 114.014C162.59 114.143 162.564 114.273 162.557 114.402C162.541 114.689 162.377 114.834 162.106 114.879C161.977 114.9 161.852 114.936 161.723 114.948C159.578 115.148 157.432 115.342 155.287 115.542C154.602 115.606 153.92 115.692 153.236 115.761C152.751 115.808 152.69 115.765 152.652 115.266C152.576 114.228 152.538 113.187 152.45 112.151C152.305 110.472 152.127 108.792 151.972 107.112C151.915 106.501 151.896 105.888 151.837 105.278C151.742 104.301 151.62 103.327 151.525 102.348C151.466 101.737 151.454 101.124 151.392 100.514C151.003 96.6314 151.01 92.7253 150.634 88.8429C150.337 85.7683 149.52 82.8625 147.988 80.1729C146.583 77.709 144.756 75.5919 142.606 73.7577C140.919 72.3178 139.118 71.0466 137.06 70.1699C136.535 69.9466 136.039 69.6543 135.404 69.3336C135.934 68.8964 136.378 68.5091 136.847 68.1503L136.842 68.1479ZM132.178 73.4131C132.349 73.1066 132.574 72.831 132.776 72.5412C132.945 72.3012 133.147 72.2394 133.449 72.3154C135.438 72.8168 137.26 73.6579 138.918 74.8673C141.732 76.9201 144.081 79.3959 145.792 82.4396C146.797 84.2263 147.31 86.1794 147.6 88.2014C147.855 89.9857 147.976 91.782 148.137 93.5759C148.351 95.9638 148.392 98.3564 148.551 100.744C148.7 102.982 148.803 105.223 148.926 107.464C149.016 109.132 149.114 110.8 149.197 112.467C149.252 113.563 149.302 114.658 149.335 115.753C149.351 116.298 149.278 116.393 148.719 116.481C147.912 116.606 147.101 116.713 146.289 116.794C144.476 116.972 142.663 117.134 140.85 117.288C137.502 117.576 134.147 117.68 130.788 117.664C130.676 117.664 130.564 117.664 130.453 117.669C130.21 117.678 130.075 117.557 130.02 117.324C129.928 116.925 129.823 116.53 129.735 116.131C129.521 115.152 129.291 114.176 129.108 113.19C128.923 112.187 128.778 111.175 128.637 110.163C128.488 109.077 128.383 107.986 128.231 106.9C127.782 103.672 127.697 100.426 127.754 97.1708C127.858 94.5548 127.937 91.9364 128.081 89.3205C128.141 88.2299 128.324 87.144 128.485 86.0606C128.697 84.6279 128.892 83.1904 129.186 81.7743C129.795 78.8518 130.716 76.0315 132.178 73.4108V73.4131ZM117.91 106.069C117.408 103.933 117.043 101.773 116.731 99.6038C116.565 98.4467 116.361 97.2943 116.216 96.1325C116.052 94.8066 115.874 93.4785 115.819 92.1479C115.769 90.891 115.871 89.627 115.909 88.3653C115.914 88.237 115.916 88.0968 115.966 87.9828C116.273 87.2652 116.232 86.4907 116.351 85.7422C116.71 83.5016 117.228 81.3062 118.107 79.1963C118.663 77.8634 119.383 76.6374 120.193 75.4613C121.234 73.9549 122.688 72.9356 124.325 72.1586C126.193 71.2724 128.148 71.1559 130.153 71.4957C130.263 71.5147 130.37 71.5504 130.472 71.5931C130.519 71.6121 130.552 71.6644 130.633 71.7404C130.519 71.978 130.41 72.2251 130.284 72.4675C129.555 73.8527 129.032 75.3234 128.519 76.7989C128.157 77.8325 127.777 78.8661 127.506 79.9258C127.143 81.3442 126.848 82.7841 126.58 84.2263C126.354 85.431 126.238 86.6522 126.024 87.8592C125.601 90.2471 125.667 92.6683 125.48 95.0704C125.34 96.869 125.401 98.6653 125.361 100.462C125.351 100.844 125.437 101.229 125.465 101.614C125.508 102.17 125.534 102.726 125.58 103.282C125.796 106.002 125.983 108.728 126.245 111.446C126.423 113.292 126.606 115.145 127.027 116.96C127.067 117.136 127.069 117.322 127.1 117.592C126.832 117.631 126.634 117.678 126.437 117.68C124.746 117.702 123.054 117.718 121.364 117.73C120.854 117.733 120.816 117.726 120.649 117.215C120.424 116.528 120.231 115.827 120.051 115.129C119.594 113.366 119.133 111.605 118.711 109.835C118.414 108.587 118.204 107.321 117.912 106.074L117.91 106.069ZM211.149 221.956C210.985 223.645 211.068 225.33 211.006 227.014C210.944 228.685 210.93 230.36 210.88 232.03C210.833 233.591 210.821 235.155 210.688 236.708C210.519 238.709 210.56 240.714 210.4 242.713C210.348 243.38 210.312 244.048 210.265 244.713C210.258 244.801 210.225 244.887 210.208 244.958C210.146 244.986 210.113 245.017 210.08 245.015C208.212 244.861 206.359 244.613 204.524 244.219C203.926 244.091 203.322 243.965 202.714 243.908C200.252 243.684 197.791 243.449 195.327 243.295C191.656 243.064 187.98 242.848 184.305 242.713C177.766 242.47 171.227 242.328 164.684 242.511C162.08 242.582 159.49 242.801 156.9 243.055C152.74 243.463 148.579 243.896 144.426 244.364C142.729 244.554 141.047 244.88 139.353 245.112C137.348 245.388 135.338 245.645 133.325 245.88C129.652 246.308 125.976 246.702 122.303 247.132C120.181 247.379 118.064 247.686 115.942 247.933C112.951 248.282 109.962 248.626 106.966 248.919C104.896 249.121 102.817 249.23 100.741 249.389C100.111 249.437 99.4839 249.515 98.8543 249.565C98.6167 249.584 98.3767 249.567 98.0322 249.567C98.1652 249.42 98.2246 249.297 98.3173 249.263C98.6832 249.133 99.0515 248.992 99.4316 248.921C101.439 248.546 103.452 248.192 105.462 247.831C108.681 247.253 111.908 246.716 115.116 246.082C117.539 245.602 119.922 244.932 122.267 244.145C123.234 243.82 124.194 243.463 125.142 243.086C125.945 242.765 126.701 242.361 127.062 241.496C127.084 241.446 127.103 241.394 127.117 241.339C127.122 241.325 127.105 241.306 127.081 241.244C126.962 241.237 126.822 241.22 126.682 241.218C124.446 241.182 122.232 241.472 120.013 241.679C116.125 242.04 112.253 242.539 108.413 243.231C105.048 243.837 101.703 244.54 98.3482 245.2C98.0963 245.25 97.8445 245.293 97.5166 245.355C97.4548 244.811 97.3764 244.321 97.3455 243.827C97.298 243.067 97.2505 242.304 97.26 241.544C97.279 240.284 97.3099 239.023 97.4002 237.768C97.6259 234.62 97.8682 231.472 98.1367 228.326C98.3268 226.104 98.3125 223.878 98.3909 221.654C98.6594 214.056 98.4147 206.452 98.5335 198.852C98.5692 196.568 98.6951 194.285 98.7735 192.002C98.8543 189.699 98.9303 187.395 99.004 185.092C99.0206 184.579 98.9184 184.061 99.1465 183.56C99.2249 183.389 99.1774 183.156 99.1774 182.951C99.1917 177.356 99.2059 171.763 99.2131 166.167C99.2131 165.949 99.1394 165.73 99.1299 165.512C99.1109 165.089 99.0634 164.659 99.1156 164.243C99.2178 163.433 99.339 162.634 99.1037 161.822C99.042 161.606 99.0895 161.344 99.1418 161.114C99.2154 160.781 99.2819 160.467 99.1323 160.135C99.0657 159.987 99.0539 159.809 99.0491 159.645C98.985 157.547 98.9208 155.449 98.8661 153.351C98.8258 151.774 98.802 150.196 98.7687 148.616C98.7687 148.507 98.7759 148.369 98.7165 148.293C98.4361 147.934 98.5074 147.525 98.4955 147.119C98.4599 145.876 98.3981 144.634 98.3458 143.391C98.2864 142.023 98.1629 140.659 98.1153 139.29C98.0251 136.71 97.8302 134.134 97.6829 131.556C97.5974 130.071 97.5285 128.589 97.4405 127.104C97.4239 126.821 97.5546 126.752 97.7969 126.733C98.5929 126.666 99.3889 126.59 100.182 126.514C102.846 126.26 105.507 125.992 108.171 125.752C109.28 125.652 110.406 125.688 111.504 125.531C112.502 125.388 113.498 125.372 114.498 125.338C116.67 125.265 118.844 125.2 121.015 125.113C121.7 125.086 122.381 124.998 123.063 124.944C123.268 124.927 123.472 124.927 123.676 124.922C125.199 124.884 126.722 124.854 128.243 124.808C128.768 124.794 128.806 124.794 128.925 125.312C129.488 127.757 130.03 130.204 130.605 132.647C130.98 134.239 131.394 135.821 131.809 137.401C132.249 139.072 132.686 140.744 133.171 142.403C133.473 143.436 133.853 144.446 134.209 145.463C134.295 145.708 134.402 145.948 134.523 146.176C135 147.069 136.26 147.316 137.058 146.687C137.298 146.497 137.315 146.259 137.248 145.986C136.923 144.65 136.626 143.308 136.272 141.98C135.162 137.796 134.019 133.621 132.912 129.434C132.532 127.997 132.22 126.543 131.878 125.098C131.845 124.956 131.819 124.813 131.769 124.583C132.192 124.547 132.539 124.511 132.886 124.492C135.689 124.326 138.472 123.979 141.252 123.604C143.186 123.342 145.122 123.119 147.059 122.891C150.14 122.525 153.222 122.176 156.304 121.808C158.093 121.594 159.879 121.354 161.669 121.133C161.828 121.114 161.992 121.13 162.203 121.13C162.22 121.532 162.241 121.898 162.248 122.264C162.298 124.865 162.308 127.467 162.408 130.066C162.479 131.92 162.655 133.771 162.816 135.619C163.111 139.005 163.491 142.384 164.18 145.715C164.33 146.437 164.593 147.14 164.848 147.837C165.133 148.618 165.727 148.996 166.558 149.032C167.207 149.06 167.506 148.768 167.407 148.129C167.224 146.972 167.017 145.819 166.836 144.665C166.632 143.363 166.437 142.058 166.25 140.751C165.983 138.877 165.708 137.002 165.475 135.123C165.351 134.127 165.332 133.12 165.225 132.124C164.893 129.016 164.798 125.899 164.76 122.777C164.755 122.297 164.643 121.819 164.608 121.339C164.57 120.821 164.596 120.793 165.081 120.712C166.988 120.399 168.894 120.083 170.804 119.793C172.289 119.567 173.779 119.341 175.274 119.189C176.602 119.054 177.939 118.971 179.275 118.954C180.596 118.937 181.898 118.778 183.207 118.662C183.687 118.619 184.172 118.595 184.652 118.543C189.29 118.034 193.901 117.355 198.449 116.298C199.262 116.11 200.046 115.81 200.844 115.563C201.015 115.511 201.189 115.461 201.457 115.383C201.457 115.734 201.457 116.005 201.457 116.276C201.448 119.769 201.395 123.264 201.445 126.757C201.471 128.574 201.652 130.392 201.802 132.205C202.03 134.963 202.246 137.724 202.55 140.476C202.795 142.69 203.158 144.893 203.479 147.1C203.9 149.987 204.315 152.874 204.762 155.756C205.047 157.592 205.387 159.42 205.701 161.249C206.513 166.011 207.312 170.774 208.143 175.534C208.564 177.95 209.06 180.352 209.483 182.766C209.83 184.741 210.172 186.72 210.419 188.709C210.621 190.329 210.688 191.966 210.802 193.596C210.878 194.689 210.933 195.782 211.001 196.875C211.047 197.581 210.873 198.281 211.158 198.999C211.332 199.439 211.239 199.99 211.244 200.491C211.284 205.844 211.339 211.197 211.346 216.548C211.348 218.349 211.315 220.157 211.142 221.946L211.149 221.956Z" fill="#01615F"/>
<path d="M207.951 243.478C206.456 242.907 204.928 242.439 203.37 242.085C202.374 241.86 201.374 241.655 200.369 241.465C199.292 241.263 198.216 241.026 197.128 240.919C195.115 240.721 193.093 240.598 191.074 240.458C187.885 240.237 184.697 240.035 181.51 239.814C180.717 239.759 179.926 239.624 179.132 239.588C177.222 239.498 175.307 239.45 173.396 239.374C172.862 239.353 172.33 239.267 171.795 239.253C171.08 239.234 170.355 239.408 169.657 239.106C169.578 239.073 169.474 239.094 169.381 239.094C168.602 239.094 167.82 239.092 167.041 239.096C164.327 239.12 161.611 239.084 158.903 239.187C155.579 239.31 152.262 239.545 148.94 239.74C146.807 239.864 144.675 239.992 142.542 240.137C140.189 240.296 137.835 240.467 135.485 240.655C133.724 240.795 131.968 240.966 130.21 241.128C129.932 241.154 129.652 241.187 129.386 241.263C129.032 241.365 128.706 241.529 128.63 242.005C128.851 242.005 129.034 242.012 129.217 242.005C133.339 241.836 137.462 241.648 141.584 241.506C145.725 241.361 149.867 241.201 154.011 241.152C163.301 241.037 172.591 241.045 181.874 241.572C183.782 241.679 185.687 241.862 187.593 241.99C188.964 242.083 190.337 242.121 191.708 242.216C194.265 242.392 196.824 242.563 199.376 242.786C200.725 242.905 202.072 243.088 203.405 243.318C204.85 243.568 206.275 243.936 207.749 244.01C207.97 244.022 208.193 244.076 208.362 243.874C208.212 243.585 208.214 243.58 207.953 243.482L207.951 243.478Z" fill="#01615F"/>
<path d="M212.16 96.7696C212.435 96.6268 212.75 96.5624 213.02 96.4155C216.263 94.6413 219.971 90.919 223.596 89.0767C228.714 86.4761 234.49 85.2541 239.481 82.5032L238.439 79.9529C230.672 83.2866 217.305 87.2003 211.429 93.2832C209.66 95.1123 211.176 95.3322 212.158 96.7706L212.16 96.7696Z" fill="#01615F"/>
<path d="M199.538 92.9892C199.745 94.1626 200.819 95.0234 201.977 94.8718C203.509 94.6702 222.885 77.5805 225.575 74.978C226.326 74.2513 228.48 73.3579 227.155 72.1264C225.745 70.8193 224.575 71.7844 223.314 72.6019C215.405 77.727 207.718 87.6543 199.542 92.9907L199.538 92.9892Z" fill="#01615F"/>
<path d="M212.375 68.516C212.45 67.9901 211.807 66.1491 211.573 66.0428C209.841 65.2742 197.901 82.292 196.206 84.857C198.073 86.0236 198.49 85.4761 200.031 84.3284C201.382 83.3186 212.237 69.5032 212.377 68.5149L212.375 68.516Z" fill="#01615F"/>
<path d="M82.3581 96.7696C82.0838 96.6268 81.7682 96.5624 81.4986 96.4155C78.2557 94.6413 74.548 90.919 70.9227 89.0767C65.8042 86.4761 60.0286 85.2541 55.0374 82.5032L56.0791 79.9529C63.8462 83.2866 77.2131 87.2003 83.0893 93.2832C84.8581 95.1123 83.3428 95.3322 82.3606 96.7706L82.3581 96.7696Z" fill="#01615F"/>
<path d="M94.9802 92.9892C94.7734 94.1626 93.6991 95.0234 92.542 94.8718C91.0099 94.6702 71.6339 77.5805 68.9434 74.978C68.1928 74.2513 66.0385 73.3579 67.3637 72.1264C68.7737 70.8193 69.9436 71.7844 71.2041 72.6019C79.1137 77.727 86.8001 87.6543 94.9766 92.9907L94.9802 92.9892Z" fill="#01615F"/>
<path d="M82.1436 68.516C82.0688 67.9901 82.7111 66.1491 82.9453 66.0428C84.6777 65.2742 96.6176 82.292 98.3123 84.857C96.4456 86.0236 96.0287 85.4761 94.4878 84.3284C93.137 83.3186 82.2813 69.5032 82.1411 68.5149L82.1436 68.516Z" fill="#01615F"/>
</svg>
