<svg width="316" height="284" viewBox="0 0 316 284" fill="none" xmlns="http://www.w3.org/2000/svg">
<path opacity="0.1" fill-rule="evenodd" clip-rule="evenodd" d="M24.6983 103.539C47.8736 60.9754 74.9586 5.47318 118.378 1.21361C161.49 -3.0158 184.847 48.97 220.187 70.4514C253.973 90.9879 301.982 79.1694 313.568 119.859C324.945 159.814 273.15 195.601 245.085 230.779C224.066 257.127 197.967 271.251 167.903 279.822C139.09 288.035 122.11 282.518 95.6461 273.378C59.2181 260.798 23.9566 266.122 8.40491 228.893C-7.85566 189.967 2.38216 144.525 24.6983 103.539Z" fill="#01615F"/>
<path d="M229.487 227.47C229.129 227.352 228.777 227.185 228.447 226.996C227.9 226.683 227.561 226.225 227.522 225.563C227.468 224.651 227.327 223.742 227.33 222.83C227.35 215.937 227.42 209.048 227.426 202.155C227.436 192.369 227.378 182.587 227.398 172.801C227.426 158.548 227.506 144.299 227.535 130.046C227.535 129.384 227.762 129.051 228.303 128.747C228.796 128.472 229.292 128.129 229.654 127.704C230.527 126.67 231.388 125.633 232.076 124.436C233.094 122.664 233.638 120.756 233.942 118.782C234.156 117.38 234.172 115.947 234.281 114.504C234.143 113.057 234.102 111.582 233.842 110.145C233.618 108.92 233.177 107.729 232.777 106.545C232.265 105.035 231.74 103.528 231.138 102.052C230.313 100.027 229.401 98.0333 228.54 96.0237C226.758 91.8573 224.838 87.7517 222.662 83.7773C220.015 78.9485 217.254 74.1805 214.546 69.3869C214.111 68.6157 213.542 67.9661 212.876 67.3933C211.935 66.5869 210.841 66.1741 209.609 66.1421C208.802 66.1229 207.993 66.1229 207.183 66.1421C203.718 66.2253 200.252 66.3181 196.786 66.4109C196.22 66.4269 195.638 66.3021 195.1 66.6061C195.033 66.6445 194.934 66.6285 194.85 66.6317C192.873 66.6861 190.898 66.7405 188.921 66.7917C188.601 66.8013 188.284 66.8077 187.964 66.8237C186.182 66.9229 184.402 67.0509 182.62 67.1245C179.775 67.2397 176.927 67.3101 174.079 67.4221C173.43 67.4477 172.786 67.6013 172.137 67.6301C169.334 67.7453 166.527 67.8253 163.724 67.9341C162.879 67.9693 162.034 68.0973 161.19 68.1261C159.193 68.1933 157.19 68.1741 155.196 68.2957C153.679 68.3885 152.14 68.2573 150.642 68.6445C150.543 68.6701 150.431 68.6445 150.326 68.6509C148.348 68.7181 146.374 68.7725 144.396 68.8621C142.335 68.9549 140.281 69.0893 138.22 69.1853C135.679 69.3005 133.129 69.2397 130.607 69.6813C130.546 69.6909 130.479 69.6813 130.415 69.6813C128.671 69.7453 126.93 69.7933 125.186 69.8765C123.001 69.9789 120.818 70.1133 118.633 70.2317C118.124 70.2605 117.615 70.2957 117.103 70.3181C115.894 70.3661 114.684 70.4077 113.474 70.4589C113.308 70.4653 113.145 70.5197 112.978 70.5485C112.626 70.6061 112.274 70.6989 111.919 70.7117C110.665 70.7597 109.41 70.7661 108.156 70.8077C106.393 70.8685 104.63 70.9421 102.866 71.0189C102.658 71.0285 102.428 71.0285 102.249 71.1149C101.788 71.3421 101.366 71.2973 100.911 71.0989C100.761 71.0317 100.553 71.0573 100.377 71.0797C100.092 71.1213 99.8104 71.2269 99.5256 71.2493C99.0808 71.2845 98.6328 71.2685 98.188 71.2813C96.2104 71.3389 94.236 71.3933 92.2584 71.4605C91.58 71.4829 90.8984 71.5245 90.2232 71.5821C89.8264 71.6141 89.436 71.7197 89.0392 71.7421C88.2552 71.7837 87.468 71.7869 86.6808 71.8125C84.4696 71.8765 82.2584 71.9469 80.0472 72.0077C79.5864 72.0205 79.1096 71.8989 78.7032 72.2381C78.6488 72.2829 78.54 72.2765 78.4568 72.2797C77.6504 72.3021 76.844 72.3501 76.0376 72.3309C74.4696 72.2925 72.9528 72.5933 71.4392 72.9421C70.124 73.2461 69.228 74.0717 68.5688 75.1981C67.4808 77.0573 66.6904 79.0509 65.9416 81.0669C64.7576 84.2573 63.58 87.4477 62.588 90.7053C61.628 93.8573 60.6136 96.9933 59.6984 100.158C58.9656 102.689 58.3384 105.252 57.6856 107.806C57.0392 110.318 56.4216 112.836 56.0056 115.4C55.8584 116.302 55.676 117.198 55.5352 118.097C55.2632 119.806 55.3048 121.528 55.26 123.249C55.2088 125.31 55.5 127.32 55.948 129.316C56.3864 131.272 57.2856 132.993 58.7352 134.385C59.2344 134.865 59.8104 135.307 60.428 135.614C61.948 136.366 63.4168 137.259 65.132 137.531C65.4488 137.582 65.5992 137.796 65.6184 138.113C65.6376 138.452 65.66 138.792 65.692 139.131C65.8392 140.587 65.5448 142.065 65.9128 143.508C65.9288 143.569 65.916 143.636 65.9192 143.7C66.0088 148.718 66.1016 153.739 66.188 158.757C66.2616 163.051 66.3224 167.348 66.3864 171.643C66.4696 177.128 66.5304 182.616 66.6456 188.1C66.716 191.54 66.6744 194.984 66.8824 198.424C67.0776 201.605 67.116 204.795 67.196 207.979C67.244 209.953 67.244 211.931 67.2664 213.909C67.2664 214.056 67.276 214.206 67.2888 214.353C67.3368 214.923 67.4104 215.489 67.4328 216.059C67.4584 216.782 67.4296 217.505 67.4488 218.229C67.5096 220.392 67.5096 222.555 67.6184 224.721C67.7592 227.46 67.6984 230.206 67.7368 232.949C67.7432 233.374 67.628 233.729 67.404 234.084C67.0264 234.676 66.6552 235.275 66.3448 235.899C66.0312 236.532 65.82 237.217 65.948 237.934C66.2328 239.553 67.0488 240.836 68.5304 241.601C69.836 242.276 71.212 242.801 72.668 243.048C73.7752 243.236 74.892 243.374 76.0088 243.528C76.7224 243.624 77.4328 243.752 78.1496 243.784C79.34 243.835 80.5304 243.832 81.7208 243.835C84.124 243.841 86.5304 243.889 88.9304 243.825C91.34 243.758 93.7656 244.049 96.1624 243.576C96.5304 243.502 96.9272 243.582 97.308 243.576C99.4104 243.518 101.513 243.451 103.618 243.396C106.057 243.332 108.502 243.38 110.934 243.105C112.009 242.984 113.097 243.003 114.182 242.955C115.583 242.891 116.982 242.83 118.383 242.75C119.1 242.708 119.814 242.619 120.53 242.58C121.676 242.52 122.822 242.491 123.967 242.443C125.094 242.398 126.217 242.35 127.343 242.296C127.574 242.286 127.804 242.244 128.034 242.212C128.409 242.161 128.78 242.081 129.154 242.052C129.599 242.02 130.05 242.068 130.492 242.02C132.71 241.78 134.94 241.781 137.161 241.566C139.548 241.336 141.958 241.332 144.358 241.233C144.674 241.22 145.01 241.281 145.308 241.201C146.518 240.878 147.762 241.057 148.985 240.916C149.974 240.804 150.978 240.833 151.977 240.779C152.991 240.724 153.999 240.683 155.014 240.558C156.505 240.372 158.025 240.42 159.532 240.334C161.522 240.222 163.516 240.273 165.506 240.036C167.039 239.854 168.601 239.896 170.15 239.854C171.66 239.812 173.17 239.819 174.678 239.761C177.074 239.668 179.471 239.688 181.871 239.553C185.394 239.355 188.93 239.416 192.46 239.345C195.103 239.294 197.746 239.316 200.38 238.968C201.679 238.795 203.004 238.795 204.316 238.724C205.18 238.68 206.06 238.817 206.898 238.481C206.972 238.452 207.065 238.459 207.151 238.459C210.255 238.456 213.362 238.459 216.466 238.443C217.462 238.436 218.46 238.382 219.455 238.321C220.62 238.248 221.769 238.065 222.921 237.857C224.726 237.531 226.415 236.932 227.993 236.03C229.759 235.019 230.822 233.505 231.084 231.457C231.135 231.067 231.273 230.686 231.362 230.299C231.401 230.139 231.462 229.96 231.426 229.809C231.164 228.721 230.63 227.851 229.49 227.473L229.487 227.47ZM201.702 70.6317C203.714 70.5613 205.73 70.5069 207.743 70.4365C208.326 70.4173 208.889 70.4973 209.41 70.7533C209.564 70.8269 209.778 71.0061 209.769 71.1245C209.756 71.2973 209.602 71.5149 209.449 71.6141C209.263 71.7325 209.014 71.7901 208.79 71.7965C205.97 71.8829 203.148 71.9597 200.329 72.0237C199.686 72.0365 199.385 71.6685 199.244 70.7501C200.098 70.7085 200.902 70.6605 201.702 70.6317ZM186.911 70.2669C189.273 70.0237 191.644 69.9085 194.018 69.8733C194.338 69.8701 194.658 69.8733 194.972 69.8317C195.353 69.7869 195.548 69.9437 195.698 70.2893C196.399 71.9085 197.138 73.5085 197.83 75.1277C198.447 76.5709 199.023 78.0365 199.615 79.4893C199.657 79.5885 199.692 79.6877 199.74 79.7837C201.59 83.4509 202.998 87.3069 204.572 91.0925C205.51 93.3485 206.518 95.5789 207.388 97.8605C208.975 102.03 210.646 106.171 211.977 110.433C212.044 110.654 212.108 110.875 212.21 111.22C211.321 111.444 210.53 111.697 209.721 111.832C208.486 112.033 207.238 112.171 205.99 112.302C204.002 112.51 202.012 112.686 200.028 112.894C199.542 112.945 199.068 113.07 198.585 113.147C198.073 113.23 198.044 113.217 197.894 112.744C197.727 112.219 197.574 111.688 197.433 111.153C197.046 109.652 196.684 108.142 196.287 106.644C194.94 101.572 193.574 96.5037 192.226 91.4317C191.737 89.5821 191.282 87.7261 190.806 85.8733C190.303 83.9213 189.772 81.9725 189.286 80.0173C188.719 77.7485 188.204 75.4701 187.638 73.2045C187.436 72.4045 187.151 71.6237 186.908 70.8333C186.86 70.6765 186.822 70.5165 186.786 70.3821C186.854 70.3181 186.882 70.2701 186.914 70.2669H186.911ZM211.59 114.833C211.391 115.764 211.593 116.625 211.33 117.489C211.142 118.107 211.183 118.792 211.113 119.444C210.921 121.249 210.572 123.041 209.91 124.712C209.314 126.216 208.316 127.48 206.818 128.318C205.388 129.121 203.903 129.374 202.342 129.057C201.058 128.798 199.922 128.174 199.27 126.977C198.774 126.068 198.354 125.108 197.986 124.136C197.676 123.313 197.654 122.433 197.791 121.553C197.961 120.484 198.134 119.416 198.268 118.34C198.348 117.688 198.367 117.028 198.393 116.369C198.402 116.091 198.489 115.931 198.79 115.912C200.038 115.822 201.289 115.723 202.537 115.63C202.62 115.624 202.71 115.643 202.79 115.624C204.329 115.272 205.91 115.304 207.458 115.112C208.556 114.974 209.654 114.932 210.748 114.83C210.991 114.808 211.241 114.827 211.59 114.827V114.833ZM173.116 71.7197C173.311 71.6045 173.542 71.5277 173.766 71.4925C174.143 71.4349 174.527 71.4061 174.908 71.3997C176.143 71.3773 177.34 71.0605 178.562 70.9645C179.999 70.8493 181.446 70.8205 182.886 70.7757C183.346 70.7629 183.43 70.8845 183.43 71.3549C183.43 71.7933 183.366 71.8701 182.921 71.9053C182.562 71.9341 182.201 71.9437 181.839 71.9661C179.938 72.0909 178.038 72.2189 176.137 72.3469C176.137 72.3309 176.137 72.3149 176.134 72.2957C175.286 72.2957 174.434 72.2957 173.586 72.2957C173.481 72.2957 173.366 72.3149 173.27 72.2797C173.145 72.2349 172.95 72.1645 172.937 72.0781C172.918 71.9693 173.017 71.7805 173.119 71.7197H173.116ZM152.822 71.7645C153.03 71.7645 153.193 71.7741 153.356 71.7645C153.711 71.7357 154.066 71.6973 154.422 71.6589C154.716 71.6237 155.007 71.5533 155.298 71.5469C156.447 71.5181 157.599 71.5661 158.742 71.4733C161.01 71.2877 163.286 71.3485 165.548 71.1917C166.386 71.1341 167.225 71.0413 168.07 71.0253C168.278 71.0221 168.486 71.0445 168.732 71.0573C168.895 71.9533 169.065 72.8045 169.206 73.6589C169.5 75.4413 169.791 77.2237 170.057 79.0093C170.297 80.6285 170.498 82.2509 170.719 83.8733C171.1 86.6733 171.5 89.4733 171.862 92.2765C172.095 94.1101 172.281 95.9501 172.473 97.7901C172.626 99.2493 172.758 100.708 172.905 102.168C173.01 103.224 173.135 104.276 173.225 105.332C173.314 106.369 173.369 107.409 173.452 108.446C173.574 109.928 173.705 111.409 173.833 112.888C173.846 113.035 173.852 113.185 173.868 113.332C173.894 113.595 173.766 113.732 173.516 113.768C173.327 113.796 173.138 113.816 172.946 113.838C172.546 113.889 172.146 113.94 171.746 113.992C171.43 114.033 171.116 114.091 170.799 114.113C167.471 114.356 164.14 114.584 160.812 114.833C159.074 114.964 157.337 115.128 155.602 115.272C155.462 115.284 155.314 115.259 155.094 115.249C155.046 114.139 155.004 113.099 154.956 112.062C154.918 111.233 154.876 110.408 154.831 109.579C154.831 109.537 154.831 109.489 154.812 109.454C154.422 108.744 154.575 107.969 154.54 107.214C154.466 105.515 154.374 103.816 154.278 102.12C154.242 101.512 154.249 100.907 154.105 100.292C153.958 99.6653 154.063 98.9837 154.031 98.3245C153.974 97.2013 153.887 96.0813 153.823 94.9581C153.791 94.3629 153.778 93.7677 153.759 93.1757C153.756 93.0477 153.794 92.9133 153.759 92.7949C153.398 91.4381 153.599 90.0493 153.506 88.6765C153.43 87.5341 153.391 86.3885 153.356 85.2429C153.318 84.0557 153.305 82.8653 153.279 81.6781C153.279 81.5725 153.279 81.4573 153.234 81.3677C152.937 80.7693 153.023 80.1325 153.007 79.4957C152.959 77.4989 152.873 75.4989 152.799 73.5021C152.783 73.0989 152.767 72.6957 152.761 72.2893C152.761 72.1261 152.793 71.9661 152.812 71.7677L152.822 71.7645ZM173.596 117.256C173.458 118.67 173.353 120.091 173.167 121.499C172.844 123.947 172.377 126.369 171.423 128.664C171.148 129.326 170.783 129.956 170.434 130.587C170.066 131.243 169.494 131.713 168.799 131.947C167.593 132.356 166.38 132.779 165.135 133.022C163.193 133.403 161.378 132.961 159.753 131.8C159.094 131.329 158.594 130.737 158.294 129.985C157.74 128.603 157.244 127.211 156.898 125.755C156.569 124.379 156.54 122.987 156.396 121.598C156.306 120.734 156.204 119.867 156.111 119.003C156.095 118.859 156.092 118.715 156.076 118.51C156.303 118.475 156.505 118.43 156.71 118.414C159.462 118.168 162.214 117.931 164.962 117.684C167.458 117.46 169.951 117.224 172.447 117.003C172.799 116.971 173.161 117 173.554 117C173.58 117.128 173.609 117.192 173.602 117.252L173.596 117.256ZM138.518 72.4013C138.77 72.3821 138.978 72.3597 139.183 72.3533C140.201 72.3213 141.228 72.3661 142.236 72.2477C143.97 72.0461 145.708 72.1293 147.446 72.0557C147.551 72.0525 147.676 72.0109 147.759 72.0493C147.894 72.1165 148.086 72.2317 148.095 72.3341C148.105 72.4589 147.97 72.6637 147.849 72.7149C147.663 72.7949 147.436 72.7821 147.225 72.7885C145.993 72.8237 144.761 72.8461 143.532 72.8845C142.153 72.9293 140.777 72.9901 139.398 73.0413C139.25 73.0477 139.1 73.0541 138.953 73.0413C138.617 73.0125 138.466 72.8269 138.518 72.3981V72.4013ZM114.514 116.379C114.569 114.635 114.63 112.894 114.684 111.153C114.703 110.58 114.722 110.004 114.716 109.432C114.713 109.086 114.735 108.766 114.914 108.452C115.001 108.299 115.001 108.088 115.007 107.899C115.065 106.072 115.116 104.248 115.174 102.42C115.19 101.931 115.209 101.444 115.238 100.955C115.305 99.7933 115.455 98.6381 115.481 97.4701C115.526 95.3677 115.67 93.2685 115.772 91.1661C115.772 91.1021 115.772 91.0349 115.788 90.9773C116.146 89.7485 116.05 88.4653 116.239 87.2141C116.425 85.9757 116.575 84.7309 116.716 83.4829C116.918 81.7133 117.094 79.9437 117.282 78.1741C117.43 76.8013 117.583 75.4285 117.734 74.0557C117.807 73.3933 117.846 73.3485 118.518 73.3325C119.791 73.3037 121.068 73.2845 122.342 73.2621C122.406 73.2621 122.473 73.2749 122.53 73.2557C123.586 72.9005 124.681 73.0989 125.756 73.0285C127.305 72.9261 128.863 72.9357 130.396 72.7373C131.474 72.5965 132.553 72.5741 133.631 72.5005C133.881 72.4845 134.134 72.5005 134.399 72.5005C134.594 73.0349 134.566 73.5501 134.562 74.0461C134.53 77.9149 134.482 81.7837 134.431 85.6525C134.415 86.9485 134.399 88.2477 134.345 89.5437C134.294 90.7085 134.182 91.8701 134.111 93.0317C134.07 93.7101 134.05 94.3917 134.028 95.0701C133.993 96.2573 133.89 97.4349 133.686 98.6125C133.529 99.5053 133.551 100.43 133.506 101.342C133.423 103.08 133.436 104.817 133.154 106.545C133.004 107.46 133.046 108.408 133.007 109.342C132.956 110.593 132.911 111.848 132.863 113.102C132.863 113.144 132.873 113.192 132.857 113.23C132.415 114.267 132.655 115.368 132.546 116.436C132.463 117.265 132.482 117.281 131.65 117.284C126.546 117.294 121.442 117.304 116.338 117.31C115.871 117.31 115.404 117.316 114.934 117.307C114.812 117.307 114.694 117.252 114.502 117.204C114.502 116.923 114.495 116.654 114.502 116.382L114.514 116.379ZM131.868 121.46C131.817 122.625 131.858 123.8 131.551 124.942C131.49 125.163 131.513 125.406 131.5 125.64C131.398 127.48 131.017 129.256 130.348 130.974C130.002 131.867 129.458 132.603 128.761 133.252C127.222 134.689 125.398 135.473 123.308 135.563C122.434 135.601 121.593 135.313 120.847 134.817C120.706 134.724 120.569 134.619 120.422 134.536C118.191 133.256 116.895 131.281 116.194 128.862C115.75 127.323 115.468 125.764 115.468 124.155C115.468 123.63 115.324 123.105 115.295 122.577C115.263 121.969 115.289 121.358 115.289 120.644C115.727 120.609 116.082 120.558 116.438 120.558C121.282 120.548 126.13 120.542 130.975 120.542C131.89 120.542 131.906 120.552 131.868 121.467V121.46ZM103.916 75.7421C104.073 75.4509 104.313 75.2621 104.671 75.2333C105.199 75.1917 105.724 75.0925 106.252 75.0669C107.311 75.0125 108.374 74.9901 109.436 74.9549C109.436 74.9421 109.436 74.9293 109.436 74.9133C110.668 74.9133 111.9 74.9133 113.132 74.9133C113.606 74.9133 113.794 75.1821 113.625 75.5949C113.522 75.8445 113.305 75.8413 113.094 75.8541C111.97 75.9245 110.847 76.0205 109.724 76.0557C108.409 76.1005 107.09 76.0813 105.772 76.1165C105.378 76.1261 104.985 76.2317 104.591 76.2989C104.486 76.3149 104.38 76.3725 104.281 76.3565C104.127 76.3309 103.906 76.3021 103.849 76.1965C103.788 76.0877 103.846 75.8701 103.916 75.7357V75.7421ZM86.3928 77.8093C86.6104 77.0989 86.7416 76.3629 86.9496 75.6493C87.1448 74.9805 87.196 74.9549 87.884 74.9293C88.9464 74.8845 90.0088 74.8717 91.0712 74.8045C91.8904 74.7533 92.7064 74.6093 93.5288 74.5709C95.2696 74.4877 97.0136 74.4461 98.7544 74.3917C99.1736 74.3789 99.5928 74.3917 100.089 74.3917C100.022 74.6797 99.9448 74.9517 99.8936 75.2301C99.8392 75.5213 99.8232 75.8221 99.7592 76.1133C99.2408 78.4589 98.7064 80.8013 98.1976 83.1469C97.7688 85.1213 97.4072 87.1085 96.9496 89.0733C96.556 90.7693 96.0344 92.4365 95.6312 94.1325C95.308 95.4957 95.0744 96.8813 94.7992 98.2541C94.4728 99.8797 94.0728 101.496 93.8296 103.134C93.4296 105.828 92.9048 108.497 92.3352 111.156C92.0408 112.526 91.868 113.921 91.6312 115.307C91.5704 115.662 91.5032 116.017 91.4104 116.366C91.2824 116.852 91.2216 116.9 90.7064 116.926C88.796 117.022 86.8824 117.137 84.972 117.195C82.124 117.278 79.2728 117.32 76.4248 117.377C76.1944 117.38 75.9672 117.377 75.6696 117.377C75.6984 116.286 75.9256 115.336 76.1464 114.388C76.7128 111.947 77.292 109.505 77.8776 107.067C78.0024 106.552 78.1848 106.049 78.332 105.54C78.6776 104.337 79.0296 103.131 79.3592 101.924C80.4056 98.0909 81.4168 94.2445 82.4984 90.4205C83.228 87.8445 84.0504 85.2941 84.844 82.7373C85.3528 81.0925 85.8936 79.4573 86.396 77.8093H86.3928ZM91.132 121.496C91.148 122.516 91.1608 123.531 91.4392 124.529C91.5928 125.076 91.516 125.694 91.7112 126.222C92.0344 127.108 92.0248 128.014 92.06 128.926C92.0664 129.096 92.0728 129.278 92.0152 129.428C91.7624 130.104 91.5288 130.792 91.212 131.438C90.5912 132.702 89.5096 133.412 88.188 133.8C87.1992 134.091 86.1912 134.212 85.4968 134.196C83.3976 134.203 81.7496 133.803 80.268 132.814C79.5224 132.318 78.9368 131.684 78.636 130.83C78.0952 129.288 77.5576 127.742 77.0424 126.193C76.9304 125.854 76.8888 125.486 76.8472 125.131C76.6904 123.803 76.5336 122.475 76.3992 121.147C76.3416 120.574 76.364 120.548 76.9048 120.507C78.0472 120.417 79.1928 120.35 80.3352 120.273C80.4184 120.267 80.5176 120.289 80.588 120.257C81.1928 119.969 81.8392 120.059 82.4728 120.04C85.0872 119.963 87.7016 119.892 90.3128 119.819C90.4408 119.816 90.5688 119.809 90.6968 119.806C90.9848 119.796 91.1288 119.924 91.1256 120.225C91.1192 120.651 91.1256 121.076 91.132 121.502V121.496ZM72.8664 76.5805C73.6984 76.3181 74.54 76.1421 75.42 76.1005C76.8184 76.0365 78.2104 75.8733 79.6088 75.7869C80.5624 75.7293 81.516 75.7197 82.4728 75.7069C82.684 75.7069 82.8984 75.7805 83.1128 75.8221C82.3704 76.3021 73.0712 77.1469 72.1304 76.9197C72.4376 76.7757 72.6456 76.6477 72.8696 76.5773L72.8664 76.5805ZM214.738 156.907C214.412 166.452 214.626 175.998 214.45 185.544C214.39 188.798 214.306 192.049 214.217 195.304C214.159 197.428 214.194 199.566 213.951 201.672C213.743 203.493 213.83 205.316 213.654 207.128C213.343 210.353 213.474 213.582 213.506 216.811C213.529 219.019 213.692 221.227 213.791 223.435C213.791 223.499 213.791 223.566 213.81 223.624C214.214 224.878 214.066 226.193 214.204 227.477C214.316 228.529 213.83 229.425 213.014 230.014C212.038 230.721 210.966 231.304 209.897 231.87C209.5 232.081 209.004 232.152 208.546 232.19C207.551 232.27 206.553 232.305 205.558 232.331C204.991 232.344 204.418 232.235 203.881 232.529C203.778 232.584 203.631 232.561 203.503 232.561C199.548 232.568 195.593 232.571 191.634 232.574C191.026 232.574 190.431 232.635 189.836 232.321C189.519 232.155 189.046 232.251 188.649 232.289C187.986 232.35 187.337 232.34 186.69 232.161C186.534 232.116 186.326 232.094 186.191 232.161C185.772 232.372 185.362 232.219 184.95 232.19C184.55 232.161 184.15 232.107 183.75 232.097C183.289 232.088 182.825 232.168 182.386 231.918C182.233 231.832 182.015 231.851 181.826 231.838C180.447 231.745 179.068 231.684 177.695 231.556C177.042 231.496 176.402 231.31 175.756 231.185C175.298 231.096 175.049 230.779 174.969 230.363C174.834 229.678 174.662 228.981 174.662 228.289C174.665 222.718 174.716 217.144 174.732 211.572C174.748 205.425 174.735 199.278 174.735 193.131C174.761 193.131 174.783 193.131 174.809 193.131C174.809 187.262 174.815 181.39 174.809 175.521C174.799 169.928 174.783 164.334 174.751 158.74C174.738 156.376 175.452 154.228 176.566 152.18C177.25 150.923 178.358 150.315 179.689 149.966C181.161 149.582 182.674 149.576 184.172 149.403C185.458 149.256 186.738 149.076 188.028 148.948C190.246 148.728 192.466 148.542 194.687 148.334C195.382 148.27 196.07 148.164 196.764 148.097C197.631 148.014 198.498 147.921 199.366 147.886C200.62 147.835 201.874 147.832 203.129 147.809C203.234 147.809 203.35 147.844 203.446 147.816C204.799 147.428 206.194 147.659 207.564 147.56C208.178 147.515 208.79 147.444 209.404 147.387C209.426 147.387 209.446 147.377 209.468 147.377C210.742 147.444 211.974 147.035 213.244 147.051C214.089 147.064 214.364 147.224 214.508 148.056C214.617 148.683 214.697 149.32 214.706 149.953C214.745 152.27 214.825 154.593 214.748 156.907H214.738ZM224.006 222.462C224.412 224.395 224.214 226.357 224.246 228.305C224.262 229.217 223.711 229.883 222.946 230.292C222.335 230.619 221.663 230.868 220.991 231.032C220.146 231.236 219.276 231.358 218.412 231.441C217.938 231.489 217.449 231.387 216.966 231.348C216.572 231.316 216.178 231.285 215.714 231.243C215.794 231.076 215.83 230.961 215.894 230.868C216.191 230.459 216.543 230.078 216.786 229.636C216.962 229.313 217.078 228.913 217.081 228.549C217.094 227.125 217.17 225.688 217.007 224.28C216.729 221.867 216.78 219.445 216.598 217.029C216.377 214.126 216.495 211.208 216.703 208.296C216.79 207.108 216.754 205.915 216.777 204.725C216.777 204.577 216.732 204.392 216.802 204.286C217.142 203.774 217.004 203.217 217.01 202.673C217.049 200.228 217.084 197.78 217.129 195.336C217.167 193.339 217.222 191.339 217.266 189.342C217.266 189.214 217.238 189.061 217.295 188.968C217.615 188.456 217.503 187.899 217.51 187.352C217.538 183.118 217.561 178.884 217.596 174.654C217.615 172.145 217.644 169.637 217.679 167.128C217.702 165.704 217.746 164.28 217.785 162.856C217.785 162.75 217.772 162.622 217.826 162.545C218.156 162.072 218.108 161.531 218.108 161.003C218.121 156.875 218.153 152.75 218.127 148.622C218.118 147.201 217.593 145.921 216.652 144.84C216.111 144.216 215.423 143.892 214.566 143.931C213.228 143.988 211.887 143.979 210.55 144.056C209.346 144.123 208.146 144.289 206.943 144.372C205.887 144.446 204.831 144.465 203.775 144.51C203.647 144.516 203.513 144.5 203.398 144.542C202.556 144.83 201.67 144.734 200.812 144.862C199.746 145.019 198.665 144.945 197.596 145.166C196.521 145.387 195.401 145.387 194.3 145.496C193.263 145.598 192.23 145.723 191.196 145.832C189.212 146.036 187.225 146.241 185.241 146.433C184.761 146.478 184.278 146.472 183.794 146.491C183.73 146.491 183.663 146.497 183.609 146.523C182.946 146.83 182.239 146.76 181.542 146.795C180.028 146.872 178.55 147.166 177.126 147.688C176.066 148.075 175.286 148.769 174.703 149.748C173.494 151.78 172.668 153.95 172.178 156.257C172.05 156.859 171.894 157.435 171.897 158.068C171.919 163.556 171.926 169.044 171.897 174.532C171.836 185.784 171.734 197.035 171.676 208.289C171.641 215.054 171.66 221.819 171.657 228.584C171.657 228.859 171.67 229.137 171.67 229.412C171.67 230.26 172.028 230.923 172.668 231.46C172.87 231.627 173.042 231.829 173.289 232.072C173.103 232.126 173.03 232.164 172.953 232.168C171.574 232.222 170.191 232.273 168.812 232.328C168.665 232.334 168.486 232.305 168.377 232.376C167.948 232.654 167.478 232.571 167.017 232.596C165.871 232.66 164.726 232.734 163.58 232.801C163.346 232.814 163.113 232.814 162.879 232.82C162.732 232.824 162.566 232.788 162.434 232.84C161.27 233.291 160.047 233.128 158.85 233.188C157.026 233.278 155.199 233.304 153.375 233.39C152.236 233.445 151.1 233.582 149.958 233.636C147.855 233.732 145.753 233.793 143.65 233.873C143.439 233.88 143.228 233.905 143.017 233.928C142.492 233.985 141.967 234.075 141.442 234.107C139.746 234.216 138.034 234.219 136.351 234.433C134.934 234.612 133.51 234.593 132.095 234.731C131.337 234.805 130.569 234.814 129.807 234.856C129.724 234.859 129.625 234.856 129.558 234.894C129.004 235.195 128.409 235.102 127.817 235.121C126.777 235.153 125.737 235.227 124.697 235.281C124.082 235.313 123.465 235.336 122.85 235.387C122.386 235.425 121.926 235.502 121.465 235.563C121.276 235.588 121.087 235.627 120.898 235.636C119.35 235.71 117.801 235.78 116.252 235.841C115.446 235.873 114.636 235.883 113.83 235.912C113.641 235.918 113.42 235.896 113.266 235.982C112.908 236.19 112.53 236.145 112.153 236.152C110.582 236.174 108.998 236.097 107.439 236.248C105.423 236.443 103.391 236.241 101.394 236.475C99.1032 236.744 96.8216 236.6 94.5368 236.657C92.2392 236.715 89.9416 236.686 87.644 236.686C85.3464 236.686 83.0488 236.67 80.7512 236.664C80.3256 236.664 79.9 236.664 79.4744 236.66C78.924 236.66 78.3864 236.644 77.8392 236.481C77.34 236.334 76.7864 236.344 76.2584 236.328C75.0488 236.286 73.9256 235.889 72.7992 235.505C71.9544 235.217 71.4552 234.542 71.02 233.841C70.8472 233.56 70.844 233.144 70.8376 232.788C70.8056 230.98 70.8024 229.173 70.78 227.365C70.7608 225.854 70.7224 224.344 70.6936 222.833C70.6424 220.347 70.5848 217.857 70.5464 215.371C70.5368 214.824 70.6104 214.276 70.364 213.755C70.2968 213.611 70.3192 213.419 70.316 213.249C70.252 210.379 70.188 207.508 70.1272 204.641C70.1016 203.473 70.092 202.305 70.0728 201.137C70.0728 201.054 70.0952 200.949 70.0568 200.888C69.6504 200.245 69.8008 199.528 69.788 198.836C69.7176 195.243 69.6536 191.652 69.5896 188.059C69.5544 185.934 69.5256 183.809 69.4936 181.685C69.4936 181.62 69.5064 181.55 69.484 181.496C69.0264 180.276 69.2856 179.009 69.26 177.768C69.1576 172.773 69.0968 167.774 69.0328 162.776C68.9976 160.075 68.9816 157.374 68.956 154.673C68.956 154.545 68.9784 154.401 68.9272 154.296C68.5752 153.585 68.7448 152.833 68.7416 152.1C68.7256 149.972 68.7416 147.848 68.7192 145.72C68.6936 143.339 68.6424 140.958 68.604 138.577C68.604 138.427 68.5944 138.28 68.604 138.129C68.636 137.659 68.6936 137.579 69.1608 137.515C70.1112 137.387 71.0456 137.236 71.9448 136.868C72.8184 136.51 73.6408 136.081 74.3672 135.48C74.6296 135.262 74.908 135.064 75.1576 134.833C75.5736 134.452 75.9736 134.049 76.4024 133.633C77.1352 134.104 77.9192 134.606 78.7 135.108C79.9256 135.899 81.244 136.468 82.668 136.801C83.2824 136.945 83.9512 136.817 84.5272 137.166C85.3528 136.955 86.2296 137.32 87.0424 136.939C87.1928 136.868 87.372 136.849 87.5384 136.833C89.9608 136.58 91.9096 135.4 93.612 133.742C93.7912 133.566 93.9128 133.336 94.06 133.128C94.1528 132.996 94.2424 132.865 94.3416 132.721C94.6712 133.409 94.956 134.065 95.292 134.689C96.0024 136.011 96.9688 137.086 98.3224 137.787C98.9272 138.1 99.4904 138.488 100.102 138.788C100.553 139.009 101.039 139.195 101.529 139.307C102.271 139.476 103.03 139.592 103.788 139.688C105.231 139.873 106.639 139.579 108.002 139.182C109.254 138.817 110.338 138.078 111.279 137.153C112.473 135.979 113.276 134.516 114.246 133.172C114.329 133.057 114.415 132.939 114.562 132.74C114.802 133.044 115.014 133.294 115.206 133.56C116.038 134.699 116.94 135.752 118.124 136.558C119.615 137.572 121.257 138.059 123.033 138.136C123.986 138.177 124.937 138.187 125.89 137.985C127.676 137.604 129.167 136.686 130.502 135.508C131.666 134.478 132.716 133.329 133.359 131.876C133.417 131.748 133.532 131.649 133.634 131.521C133.702 131.592 133.762 131.627 133.778 131.678C134.031 132.465 134.258 133.262 134.53 134.04C134.633 134.334 134.812 134.609 134.994 134.865C136.012 136.28 137.305 137.406 138.71 138.42C139.314 138.856 139.874 139.352 140.62 139.531C141.033 139.63 141.449 139.71 141.865 139.784C142.05 139.816 142.258 139.777 142.434 139.838C142.978 140.027 143.503 140.004 144.054 139.844C144.322 139.764 144.646 139.886 144.934 139.844C146.7 139.611 148.399 139.192 149.817 138.017C150.175 137.72 150.578 137.476 150.95 137.192C152.079 136.331 152.834 135.179 153.433 133.918C153.897 132.942 154.441 131.995 154.652 130.913C154.662 130.859 154.729 130.817 154.831 130.692C155.049 130.971 155.247 131.233 155.455 131.486C156.882 133.233 158.45 134.836 160.652 135.556C164.578 136.84 168.175 136.171 171.33 133.473C172.69 132.312 173.682 130.856 174.342 129.182C174.39 129.064 174.428 128.945 174.482 128.83C174.498 128.795 174.543 128.776 174.636 128.699C174.71 128.891 174.786 129.054 174.834 129.227C175.321 130.952 176.217 132.44 177.282 133.873C178.23 135.147 179.583 135.659 180.934 136.19C182.188 136.683 183.519 136.737 184.886 136.67C187.529 136.542 189.644 135.38 191.519 133.643C192.598 132.644 193.561 131.537 194.262 130.228C194.463 129.854 194.697 129.499 194.924 129.137C195.014 128.993 195.11 128.846 195.234 128.734C195.708 128.318 196.198 127.918 196.713 127.486C196.822 127.62 196.921 127.723 196.994 127.844C197.593 128.83 198.252 129.768 199.116 130.542C200.054 131.38 201.113 132.02 202.367 132.193C203.721 132.382 205.068 132.331 206.399 131.896C208.534 131.201 210.156 129.873 211.43 128.072C212.031 127.217 212.793 126.456 213.039 125.384C213.206 125.876 213.33 126.385 213.542 126.859C214.137 128.196 215.113 129.147 216.482 129.713C217.625 130.184 218.774 130.6 220.002 130.808C221.295 131.028 222.582 131.028 223.878 130.948C223.98 130.942 224.086 130.929 224.258 130.916C224.287 131.112 224.335 131.291 224.338 131.47C224.351 132.513 224.364 133.553 224.361 134.596C224.316 156.676 224.271 178.756 224.22 200.836C224.214 204.155 224.191 207.473 224.153 210.792C224.111 214.536 224.044 218.277 223.986 222.02C223.986 222.168 223.974 222.321 224.002 222.465L224.006 222.462Z" fill="#01615F"/>
<path d="M51.5798 101.976C52.0342 102.616 52.687 102.948 53.4454 102.849C54.3446 102.731 54.8822 102.056 54.9302 101.121C54.9782 100.145 54.9878 99.1661 55.0006 98.1901C55.0166 96.8109 55.0006 95.4349 55.2598 94.0653C55.4742 92.9325 55.6918 91.8061 56.1846 90.7629C56.6262 89.8253 56.9782 88.8237 57.727 88.0685C58.3542 87.4349 58.7414 86.6573 59.1414 85.8861C59.2918 85.5949 59.3366 85.2365 59.3814 84.9037C59.439 84.4493 59.2534 84.0781 58.9078 83.7773C58.2166 83.1725 57.4838 83.0637 56.671 83.4925C56.3542 83.6589 56.047 83.8637 55.775 84.0973C54.8342 84.9069 54.0374 85.8413 53.4038 86.9133C51.4934 90.1325 50.799 93.6589 50.7734 97.6461C50.799 98.2189 50.8278 99.0893 50.8758 99.9597C50.9174 100.699 51.151 101.377 51.5798 101.982V101.976Z" fill="#01615F"/>
<path d="M58.7607 196.75C58.0151 196.222 57.2471 195.729 56.5175 195.185C56.2007 194.949 55.8999 194.648 55.6855 194.315C55.2407 193.621 54.8055 192.91 54.4567 192.161C53.7143 190.577 53.3591 188.862 52.8631 187.195C52.7479 186.811 52.6231 186.421 52.4311 186.072C52.0503 185.384 51.3079 185.147 50.6327 185.528C50.2967 185.717 49.9863 186.017 49.7623 186.334C49.3879 186.865 49.2439 187.493 49.2887 188.152C49.2951 188.299 49.2983 188.449 49.3111 188.597C49.3175 188.702 49.3303 188.808 49.3495 188.913C49.8135 191.505 50.5751 193.992 51.9703 196.248C52.3639 196.885 52.8055 197.509 53.4487 197.896C54.8471 198.741 56.2711 199.541 57.7015 200.331C58.1719 200.59 58.7063 200.667 59.2503 200.629C59.8807 200.584 60.3415 200.238 60.5111 199.633C60.7127 198.91 60.6103 198.229 60.0279 197.707C59.6343 197.355 59.1959 197.051 58.7607 196.747V196.75Z" fill="#01615F"/>
<path d="M241.276 195.48C240.447 195.326 239.455 195.499 239.074 196.532C238.943 196.891 238.805 197.249 238.69 197.611C238.159 199.259 237.369 200.74 235.967 201.819C235.618 202.088 235.247 202.34 234.853 202.536C234.169 202.872 233.458 203.156 232.757 203.457C232.393 203.614 232.121 203.851 231.932 204.209C231.525 204.968 231.836 205.627 232.239 206.232C232.687 206.897 233.455 207.105 234.156 206.977C235.039 206.817 235.938 206.577 236.706 206.036C237.036 205.806 237.41 205.643 237.74 205.412C238.207 205.086 238.674 204.753 239.097 204.372C239.506 204.004 239.855 203.569 240.236 203.172C241.807 201.547 242.38 199.505 242.684 197.387C242.709 196.44 242.13 195.64 241.273 195.48H241.276Z" fill="#01615F"/>
<path d="M237.474 160.945C238.357 160.884 238.994 160.388 239.506 159.755C240.117 158.996 240.69 158.196 241.205 157.371C241.791 156.433 242.293 155.441 242.287 154.286C242.287 154.161 242.338 154.036 242.361 153.912C242.479 153.291 242.597 152.67 242.719 152.033C242.581 151.163 242.485 150.296 242.3 149.451C242.05 148.318 241.189 147.732 240.044 147.828C239.237 147.896 238.764 148.379 238.681 149.166C238.549 150.433 238.386 151.697 238.255 152.964C238.159 153.886 237.865 154.744 237.513 155.592C237.205 156.337 236.738 156.945 236.121 157.464C235.817 157.72 235.557 158.043 235.333 158.372C235.029 158.814 235.055 159.291 235.308 159.761C235.705 160.507 236.639 161.006 237.481 160.948L237.474 160.945Z" fill="#01615F"/>
<path d="M110.726 224.545C109.772 224.478 108.815 224.42 107.862 224.452C104.806 224.555 101.75 224.628 98.6968 224.875C95.7112 225.118 92.796 225.572 90.0472 226.827C88.9848 227.313 87.8936 227.736 86.9336 228.42C86.508 228.724 86.1752 229.083 86.0728 229.713C86.7128 229.838 87.2856 229.793 87.8424 229.704C90.3576 229.294 92.86 228.814 95.3784 228.44C98.4024 227.992 101.436 227.608 104.47 227.23C106.511 226.977 108.562 226.795 110.607 226.548C110.975 226.504 111.327 226.312 111.679 226.168C111.964 226.052 112.015 225.816 111.948 225.534C111.801 224.907 111.468 224.596 110.722 224.542L110.726 224.545Z" fill="#01615F"/>
<path d="M221.305 138.356C219.702 138.475 218.082 138.2 216.492 138.587C216.393 138.612 216.281 138.596 216.175 138.596C214.774 138.596 213.372 138.596 211.97 138.596V138.651C210.591 138.651 209.209 138.689 207.83 138.635C207.046 138.603 206.55 138.996 206.102 139.524C205.974 139.675 205.884 139.908 205.887 140.1C205.897 140.478 205.961 140.856 206.044 141.227C206.14 141.649 206.444 141.88 206.873 141.886C207.551 141.896 208.233 141.915 208.905 141.848C209.513 141.787 210.105 141.576 210.729 141.732C210.806 141.752 210.914 141.748 210.978 141.707C211.503 141.368 212.086 141.483 212.652 141.473C215.151 141.428 217.634 141.217 220.114 140.91C220.598 140.849 221.097 140.897 221.574 140.814C221.958 140.747 222.358 140.619 222.69 140.417C223.068 140.187 223.119 139.809 222.914 139.412C222.578 138.76 222.054 138.302 221.305 138.36V138.356Z" fill="#01615F"/>
<path d="M156.025 221.86C155.711 221.694 155.359 221.585 155.01 221.512C154.431 221.39 153.861 221.272 153.305 221.038C152.783 220.817 152.217 220.664 151.653 220.571C150.14 220.315 148.613 220.276 147.081 220.385C144.319 220.584 141.609 221.099 138.898 221.633C138.444 221.723 137.999 221.886 137.561 222.043C137.151 222.193 136.831 222.475 136.604 222.849C136.348 223.268 136.357 223.784 136.661 224.161C136.757 224.283 136.924 224.417 137.065 224.424C137.615 224.449 138.175 224.484 138.713 224.404C140.14 224.19 141.551 223.889 142.978 223.672C144.805 223.393 146.642 223.182 148.466 222.894C149.343 222.756 150.201 222.51 151.068 222.318C151.317 222.264 151.567 222.19 151.82 222.19C152.741 222.196 153.628 222.068 154.453 221.636C154.46 221.633 154.485 221.662 154.53 221.7C154.309 221.972 153.993 222.068 153.692 222.196C153.551 222.254 153.34 222.401 153.346 222.494C153.359 222.654 153.481 222.862 153.621 222.942C153.951 223.128 154.313 223.265 154.674 223.39C155.407 223.64 155.897 223.438 156.261 222.769C156.482 222.366 156.437 222.078 156.028 221.86H156.025Z" fill="#01615F"/>
<path d="M103.311 230.036C102.972 230.043 102.629 230.056 102.293 230.094C99.7621 230.376 97.2277 230.648 94.6997 230.961C92.9717 231.176 91.2533 231.448 89.5317 231.701C88.6613 231.829 88.0245 232.35 87.4581 232.974C87.2565 233.195 87.0901 233.451 87.2821 233.803C87.3877 233.825 87.5093 233.87 87.6309 233.867C89.4773 233.841 91.3269 233.867 93.1701 233.765C95.4133 233.637 97.6533 233.416 99.8933 233.195C100.927 233.092 101.961 232.949 102.972 232.718C104.047 232.472 104.473 231.601 104.121 230.632C103.98 230.245 103.724 230.033 103.311 230.043V230.036Z" fill="#01615F"/>
<path d="M95.0551 222.187C96.7959 222.152 98.5367 222.123 99.7335 222.1C102.585 221.934 104.905 222.046 107.196 221.624C107.98 221.48 108.444 220.993 108.402 220.19C108.354 219.243 108.06 218.977 107.081 219C106.994 219 106.911 219.003 106.825 219.009C105.494 219.089 104.159 219.179 102.828 219.246C101.026 219.339 99.2183 219.393 97.4167 219.509C96.4663 219.569 95.5159 219.697 94.5751 219.845C94.2327 219.899 93.8839 220.062 93.5863 220.254C93.1575 220.532 93.1127 220.936 93.4199 221.352C93.8231 221.896 94.3511 222.203 95.0519 222.19L95.0551 222.187Z" fill="#01615F"/>
<path d="M152.69 225.678C150.767 225.537 148.885 225.813 147.017 226.222C146.895 226.248 146.77 226.296 146.658 226.357C145.833 226.795 145.602 227.758 146.127 228.526C146.537 229.125 147.103 229.483 147.826 229.512C148.633 229.544 149.439 229.518 150.245 229.518C150.245 229.557 150.245 229.592 150.245 229.63C150.905 229.63 151.564 229.601 152.22 229.637C153.212 229.691 153.676 229.169 153.919 228.414C154.015 228.113 154.114 227.803 154.143 227.489C154.236 226.504 153.621 225.745 152.69 225.678Z" fill="#01615F"/>
<path d="M213.612 136.302C213.999 136.385 214.418 136.388 214.812 136.34C215.59 136.248 216.246 135.614 216.338 134.843C216.518 133.364 215.961 132.331 214.252 132.254C214.188 132.254 214.124 132.254 214.06 132.254C214.06 132.241 214.057 132.232 214.054 132.219C213.679 132.28 213.292 132.302 212.93 132.411C212.703 132.478 212.457 132.632 212.316 132.82C211.385 134.084 212.086 135.972 213.612 136.299V136.302Z" fill="#01615F"/>
<path d="M208.966 151.051C207.881 151.336 206.822 151.729 205.756 152.085C205.494 152.171 205.25 152.312 204.988 152.388C202.409 153.15 199.804 153.697 197.09 153.678C195.622 153.668 194.159 153.601 192.703 153.438C191.839 153.342 190.988 153.089 190.127 153.061C187.817 152.981 185.506 152.932 183.196 152.968C181.964 152.987 180.758 153.288 179.586 153.707C178.383 154.139 177.551 154.936 177.154 156.142C176.985 156.661 176.898 157.217 176.863 157.765C176.809 158.613 176.818 159.464 176.825 160.315C176.895 170.651 176.969 180.984 177.046 191.32C177.046 191.531 177.074 191.742 177.094 191.953C177.132 192.414 177.218 192.878 177.206 193.339C177.19 193.912 177.078 194.478 177.039 195.051C177.02 195.32 177.071 195.595 177.106 195.864C177.148 196.174 177.254 196.484 177.257 196.795C177.273 200.324 177.27 203.854 177.289 207.384C177.295 208.341 177.324 209.301 177.417 210.251C177.526 211.339 178.044 212.229 178.956 212.859C179.775 213.429 180.658 213.812 181.686 213.796C182.111 213.79 182.537 213.812 182.962 213.812C186.79 213.812 190.617 213.812 194.447 213.812C194.447 213.835 194.447 213.861 194.447 213.883C198.063 213.883 201.679 213.883 205.292 213.883C205.974 213.883 206.652 213.883 207.334 213.848C208.364 213.797 209.353 213.544 210.294 213.131C211.049 212.801 211.526 212.222 211.615 211.387C211.737 210.27 211.89 209.153 211.926 208.03C211.996 205.755 212.006 203.48 212.028 201.205C212.098 194.782 212.156 188.36 212.236 181.937C212.271 179.262 212.364 176.59 212.415 173.915C212.441 172.532 212.431 171.15 212.441 169.768C212.476 164.641 212.508 159.518 212.556 154.392C212.562 153.707 212.396 153.089 212.028 152.52C211.394 151.541 209.948 150.785 208.975 151.041L208.966 151.051ZM209.846 171.512C209.615 177.013 209.586 182.516 209.5 188.017C209.49 188.724 209.497 188.76 208.799 188.936C206.863 189.425 204.921 189.896 202.975 190.344C202.063 190.555 201.142 190.705 200.22 190.865C199.929 190.917 199.631 190.913 199.337 190.932C199.231 190.939 199.113 190.916 199.026 190.958C198.447 191.236 197.826 191.208 197.212 191.217C196.466 191.23 195.718 191.288 194.982 191.224C193.164 191.064 191.346 190.885 189.542 190.622C188.841 190.52 188.175 190.177 187.5 189.921C186.956 189.716 186.687 189.259 186.524 188.734C186.486 188.612 186.454 188.488 186.441 188.36C186.332 187.393 185.746 186.792 184.911 186.392C184.492 186.19 184.076 185.918 183.628 185.841C182.201 185.595 181.884 185.909 181.871 187.08C181.858 188.376 181.868 189.672 181.865 190.968C181.865 192.373 181.874 193.774 181.849 195.179C181.842 195.508 181.679 195.835 181.673 196.165C181.647 197.502 181.532 198.843 181.772 200.174C181.884 200.798 182.153 201.336 182.639 201.765C182.911 202.005 183.215 202.136 183.57 202.097C183.929 202.059 184.303 202.04 184.63 201.905C185.631 201.496 186.639 201.089 187.59 200.581C189.052 199.8 190.47 198.939 191.903 198.104C192.198 197.934 192.479 197.739 192.748 197.534C193.932 196.632 195.116 195.733 196.284 194.811C196.543 194.606 196.754 194.331 196.95 194.059C197.103 193.845 197.266 193.742 197.532 193.761C197.826 193.784 198.127 193.803 198.425 193.777C200.879 193.563 203.318 193.249 205.727 192.725C206.268 192.606 206.815 192.516 207.35 192.379C208.006 192.209 208.649 192.001 209.378 191.787C209.404 191.998 209.449 192.216 209.449 192.433C209.442 194.603 209.449 196.772 209.41 198.939C209.35 202.126 209.263 205.317 209.164 208.504C209.145 209.16 209.052 209.816 208.959 210.465C208.895 210.917 208.748 211.035 208.284 211.083C207.945 211.115 207.606 211.121 207.263 211.121C198.95 211.137 190.633 211.141 182.319 211.185C181.17 211.192 180.732 210.657 180.566 209.672C180.316 208.209 180.172 206.725 180.255 205.227C180.271 204.961 180.194 204.686 180.146 204.417C180.095 204.129 179.977 203.845 179.977 203.56C179.961 194.542 179.961 185.528 179.945 176.51C179.942 174.235 179.89 171.96 179.868 169.685C179.862 168.965 179.884 168.968 180.594 168.852C181.327 168.734 182.054 168.581 182.783 168.427C185.113 167.941 187.439 167.425 189.775 166.968C193.071 166.321 196.374 165.707 199.609 164.798C200.815 164.459 202.006 164.062 203.193 163.656C204.982 163.041 206.761 162.398 208.543 161.761C208.962 161.611 209.369 161.432 209.906 161.217C209.929 161.544 209.961 161.768 209.958 161.992C209.929 165.16 209.977 168.331 209.842 171.496L209.846 171.512ZM194.358 193.8C194.242 193.854 194.124 193.905 194.012 193.966C191.519 195.291 189.161 196.856 186.598 198.046C185.983 198.331 185.35 198.58 184.719 198.836C184.546 198.907 184.361 198.939 184.111 199.009C184.047 198.747 183.954 198.529 183.948 198.312C183.91 197.102 183.9 195.893 183.858 194.683C183.842 194.267 183.753 193.854 183.702 193.438C183.679 193.269 183.657 193.102 183.65 192.932C183.618 191.832 183.59 190.728 183.561 189.627C183.558 189.483 183.561 189.336 183.561 189.176C183.935 189.115 184.06 189.377 184.156 189.582C184.662 190.657 185.51 191.413 186.422 192.123C186.956 192.539 187.548 192.785 188.21 192.901C190.07 193.227 191.926 193.579 193.826 193.563C193.964 193.563 194.105 193.608 194.242 193.633C194.281 193.688 194.319 193.742 194.354 193.796L194.358 193.8ZM209.391 158.497C207.66 159.083 205.929 159.669 204.207 160.28C200.172 161.71 196.015 162.677 191.868 163.71C188.646 164.513 185.398 165.153 182.118 165.643C181.593 165.72 181.068 165.806 180.54 165.88C180.358 165.905 180.169 165.899 179.894 165.915C179.878 165.537 179.852 165.265 179.852 164.993C179.846 162.676 179.842 160.357 179.846 158.04C179.846 157.288 179.974 157.134 180.671 156.868C182.156 156.302 183.679 155.966 185.282 156.043C187.362 156.142 189.446 156.216 191.526 156.296C192.076 156.318 192.614 156.312 193.151 156.517C193.49 156.648 193.906 156.613 194.287 156.609C196.476 156.59 198.671 156.648 200.85 156.501C202.498 156.392 204.111 155.937 205.692 155.425C206.662 155.112 207.638 154.814 208.617 154.536C209.362 154.325 209.417 154.411 209.615 155.137C209.839 155.963 209.98 156.792 209.99 157.646C209.996 158.299 209.986 158.299 209.391 158.497Z" fill="#01615F"/>
<path d="M148.668 167.105C148.668 166.939 148.617 166.772 148.591 166.606C148.533 166.212 148.434 165.819 148.425 165.422C148.386 163.806 148.399 162.19 148.345 160.574C148.297 159.214 147.599 158.283 146.348 157.72C145.372 157.281 144.354 157.118 143.308 157.118C141.458 157.118 139.612 157.16 137.762 157.185C137.314 157.192 136.869 157.185 136.425 157.22C134.626 157.348 132.828 157.284 131.023 157.409C128.377 157.595 125.708 157.515 123.052 157.569C120.524 157.62 117.999 157.707 115.471 157.764C114.281 157.79 113.087 157.758 111.9 157.803C110.754 157.844 109.615 157.998 108.469 158.017C102.322 158.123 96.175 158.187 90.031 158.299C88.4214 158.328 86.799 158.174 85.2022 158.536C85.0806 158.564 84.9494 158.529 84.8214 158.529C84.2486 158.536 83.6694 158.51 83.0998 158.564C82.3414 158.638 81.6758 158.936 81.4102 159.72C81.2342 160.238 81.1158 160.788 81.0614 161.332C80.991 162.072 80.9942 162.82 80.9878 163.563C80.9814 164.26 80.9238 164.968 81.2566 165.627C81.311 165.732 81.2982 165.876 81.3014 166.001C81.327 167.704 81.343 169.403 81.3718 171.105C81.4422 175.147 81.503 179.188 81.5926 183.227C81.6502 185.819 81.7654 188.408 81.8422 191C81.8678 191.87 81.8518 192.744 81.8614 193.617C81.8614 193.864 81.8998 194.11 81.9222 194.411C82.2006 194.395 82.4086 194.395 82.6134 194.366C83.0326 194.302 83.4518 194.222 83.871 194.152C84.4982 194.046 84.5334 194.024 84.5334 193.377C84.5334 191.569 84.5462 189.761 84.511 187.953C84.463 185.531 84.3734 183.108 84.303 180.683C84.2934 180.366 84.3734 180.011 84.255 179.745C84.0086 179.188 84.0534 178.628 84.0502 178.059C84.0086 172.891 83.967 167.723 83.9318 162.552C83.9318 162.235 83.9542 161.915 83.9926 161.598C84.0374 161.24 84.2454 161.022 84.6198 160.99C84.9366 160.961 85.2534 160.91 85.5734 160.904C90.0374 160.82 94.5014 160.718 98.9686 160.67C104.159 160.616 109.349 160.612 114.54 160.587C115.02 160.587 115.513 160.686 115.951 160.36C116.053 160.286 116.239 160.318 116.386 160.318C116.661 160.318 116.94 160.344 117.215 160.334C120.994 160.216 124.777 160.385 128.556 160.174C130.761 160.049 132.978 160.116 135.189 160.091C136.252 160.078 137.324 160.129 138.377 160.014C139.692 159.87 141.007 159.876 142.322 159.848C143.145 159.828 143.922 159.979 144.7 160.216C145.196 160.366 145.509 160.686 145.653 161.156C145.746 161.457 145.797 161.78 145.81 162.094C145.903 164.366 146.044 166.641 146.057 168.913C146.117 180.379 146.146 191.844 146.185 203.31C146.185 203.585 146.175 203.864 146.169 204.139C146.162 204.411 146.069 204.644 145.82 204.779C145.052 205.192 144.281 205.595 143.381 205.649C141.903 205.739 140.409 205.652 138.956 206.033C138.876 206.056 138.786 206.049 138.703 206.052C137.673 206.084 136.642 206.12 135.612 206.142C133.529 206.187 131.445 206.219 129.362 206.267C129.157 206.27 128.953 206.347 128.748 206.392C128.508 206.443 128.271 206.52 128.028 206.542C127.753 206.568 127.474 206.539 127.199 206.545C125.01 206.606 122.821 206.68 120.633 206.734C117.826 206.801 115.023 206.868 112.217 206.913C109.068 206.961 105.922 206.993 102.773 207.019C97.8166 207.057 92.8598 207.086 87.9062 207.112C87.0998 207.115 86.287 207.128 85.4838 207.067C84.5942 207 84.015 206.379 83.9318 205.489C83.903 205.172 83.8998 204.852 83.8998 204.532C83.8934 202.574 83.8902 200.619 83.887 198.66C83.887 198.539 83.9158 198.417 83.935 198.283C84.4758 198.187 84.9878 198.104 85.5798 198.212C85.4934 198.587 85.3654 198.888 85.3654 199.192C85.3718 201 85.3622 202.808 85.4518 204.612C85.5094 205.752 85.887 206.04 87.0454 206.049C89.471 206.072 91.8966 206.078 94.319 206.081C95.7654 206.081 97.2118 206.059 98.6582 206.059C99.1798 206.059 99.615 205.896 99.9542 205.496C100.236 205.166 100.281 204.769 100.277 204.356C100.268 201.953 100.245 199.55 100.261 197.147C100.265 196.536 100.396 195.928 100.46 195.316C100.495 194.98 100.533 194.641 100.54 194.305C100.546 194.1 100.431 193.969 100.217 193.886C99.7366 193.7 99.695 193.646 99.7494 193.15C99.8774 192.036 99.935 190.923 100.242 189.819C100.585 188.574 100.066 187.572 98.4342 187.652C98.2902 187.659 98.1462 187.72 98.0022 187.755C97.551 187.864 97.4486 187.848 97.247 187.419C97.0902 187.086 96.8694 187.006 96.5366 187.041C96.031 187.096 95.5222 187.137 95.0134 187.16C94.6198 187.179 94.3094 187.313 94.1174 187.665C93.8198 188.212 93.1638 188.328 92.703 187.736C92.4406 187.4 92.143 187.323 91.759 187.361C91.5062 187.387 91.2502 187.384 90.9942 187.39C90.4406 187.406 89.887 187.4 89.3366 187.444C88.7254 187.492 88.1174 187.582 87.5094 187.656C86.9046 187.729 86.2998 187.806 85.679 187.886C85.7686 188.34 85.8774 188.648 85.8806 188.958C85.8934 190.638 85.8742 192.318 85.8742 193.998C85.8742 194.257 85.7654 194.398 85.5062 194.42C85.2502 194.44 84.9974 194.449 84.7414 194.472C83.4966 194.58 82.3734 194.964 81.4838 195.892C81.2406 196.148 81.0646 196.408 81.055 196.779C81.0102 198.267 80.9174 199.752 80.8982 201.24C80.879 202.792 80.8214 204.356 80.975 205.896C81.231 208.494 82.095 209.339 84.1366 210.014C84.4886 210.132 84.8886 210.142 85.2694 210.139C87.7782 210.132 90.287 210.12 92.799 210.088C93.4038 210.081 94.031 210.241 94.607 209.892C94.687 209.844 94.815 209.873 94.9206 209.87C96.7478 209.841 98.5782 209.816 100.405 209.787C103.743 209.732 107.084 209.681 110.421 209.624C110.921 209.614 111.442 209.755 111.89 209.377C111.967 209.313 112.137 209.345 112.261 209.345C112.559 209.345 112.857 209.364 113.154 209.358C115.961 209.3 118.764 209.227 121.57 209.179C123.804 209.14 126.037 209.131 128.271 209.108C128.46 209.108 128.681 209.137 128.834 209.054C129.369 208.756 129.89 208.859 130.434 209.003C130.668 209.064 130.978 209.118 131.164 209.016C131.493 208.836 131.817 208.859 132.149 208.852C134.021 208.817 135.89 208.798 137.762 208.75C139.164 208.715 140.565 208.654 141.967 208.603C142.114 208.596 142.258 208.561 142.402 208.536C142.773 208.475 143.145 208.401 143.519 208.35C144.169 208.264 144.831 208.228 145.474 208.1C146.482 207.899 147.18 207.217 147.884 206.513C148.546 205.851 148.869 205.099 148.866 204.18C148.863 203.457 148.882 202.734 148.876 202.011C148.818 194.692 148.748 187.377 148.703 180.059C148.674 175.742 148.684 171.425 148.671 167.108L148.668 167.105ZM95.279 193.009C95.3878 192.276 95.5254 191.547 95.615 190.811C95.6566 190.481 95.7686 190.299 96.1174 190.296C96.3414 190.296 96.5654 190.273 96.8246 190.257V193.467H95.2758C95.2758 193.291 95.2566 193.147 95.2758 193.009H95.279ZM88.9974 190.84C89.007 190.382 89.0614 190.324 89.5126 190.305C89.9574 190.283 90.4022 190.289 90.847 190.289C91.0646 190.289 91.2246 190.376 91.215 190.622C91.1862 191.614 91.151 192.606 91.1158 193.675C90.383 193.796 89.7206 193.844 89.023 193.793C89.0006 193.601 88.9686 193.457 88.9718 193.316C88.975 192.491 88.9814 191.662 88.9974 190.836V190.84ZM87.9478 202.507C87.951 201.32 87.9638 200.129 87.983 198.942C87.9926 198.27 88.0278 198.257 88.6614 198.251C90.063 198.235 91.4614 198.206 92.863 198.184C92.863 198.174 92.863 198.161 92.863 198.152C94.1334 198.084 95.407 198.014 96.6774 197.947C96.847 197.937 97.0166 197.921 97.1862 197.918C97.4742 197.912 97.615 198.052 97.615 198.344C97.615 198.705 97.631 199.064 97.6342 199.425C97.6406 200.465 97.6438 201.505 97.6534 202.545C97.6598 203.172 97.6438 203.201 97.0294 203.204C95.2662 203.217 93.5062 203.204 91.743 203.236C90.7894 203.252 89.8422 203.352 88.8886 203.387C87.9638 203.422 87.9478 203.4 87.9478 202.507Z" fill="#01615F"/>
<path d="M101.135 194.251C101.173 195.227 101.244 196.203 101.253 197.179C101.279 199.601 101.279 202.027 101.289 204.452C101.289 205.412 101.666 205.8 102.642 205.809C103.471 205.816 104.3 205.809 105.129 205.793C110.082 205.71 115.036 205.624 119.989 205.534C120.153 205.534 120.313 205.502 120.514 205.48C120.476 205.313 120.46 205.188 120.418 205.073C120.018 203.982 119.861 202.849 119.861 201.694C119.861 201.316 119.967 200.936 119.973 200.558C119.986 199.377 120.22 198.19 119.785 196.987H120.658C120.687 197.089 120.713 197.131 120.709 197.169C120.569 198.244 120.415 199.316 120.29 200.392C120.265 200.609 120.316 200.846 120.383 201.06C120.489 201.403 120.661 201.723 120.764 202.065C121.007 202.881 121.257 203.691 121.756 204.401C122.255 205.112 122.914 205.524 123.785 205.547C125.039 205.579 126.293 205.617 127.545 205.588C131.157 205.502 134.77 205.364 138.383 205.291C139.503 205.268 140.265 204.798 140.396 203.454C140.549 201.899 140.597 200.318 140.274 198.763C140.233 198.558 140.245 198.34 140.242 198.129C140.226 196.875 140.22 195.62 140.197 194.366C140.194 194.136 140.191 193.867 140.076 193.688C139.737 193.169 139.749 192.606 139.753 192.03C139.759 189.585 139.762 187.14 139.746 184.696C139.74 183.745 138.975 183.025 138.025 183.06C136.642 183.108 135.263 183.172 133.884 183.236C131.74 183.332 129.599 183.444 127.455 183.528C126.309 183.572 125.157 183.611 124.012 183.592C123.109 183.579 122.511 183.963 122.159 184.769C122.066 184.984 121.98 185.201 121.897 185.419C121.621 186.129 121.618 186.878 121.621 187.62C121.625 189.345 121.593 191.064 121.305 192.769C121.209 193.339 121.189 193.396 120.652 193.396C119.311 193.403 117.973 193.396 116.633 193.387C116.45 193.387 116.268 193.348 116.012 193.32C116.156 192.894 116.316 192.58 116.367 192.254C116.639 190.456 116.642 188.657 116.281 186.868C116.265 186.785 116.229 186.705 116.201 186.625C115.833 185.56 115.417 185.265 114.309 185.332C113.356 185.39 112.402 185.48 111.452 185.547C109.925 185.656 108.399 185.752 106.873 185.864C106.165 185.915 105.49 186.107 104.869 186.459C104.348 186.753 103.922 187.172 103.823 187.761C103.653 188.766 103.545 189.79 103.813 190.801C104.044 191.668 104.517 192.372 105.388 192.676C106.124 192.932 106.895 193.099 107.653 193.288C107.925 193.355 108.213 193.377 108.492 193.419C106.053 193.694 103.612 193.601 101.167 193.832C101.154 194.008 101.132 194.132 101.135 194.254V194.251ZM124.357 186.459C124.553 186.424 124.713 186.376 124.873 186.369C126.613 186.318 128.357 186.273 130.101 186.225C132.29 186.164 134.479 186.18 136.658 185.896C136.697 185.889 136.738 185.915 136.857 185.947C136.882 186.113 136.937 186.312 136.94 186.513C136.949 187.64 136.956 188.766 136.946 189.892C136.943 190.484 136.911 190.545 136.303 190.612C134.255 190.84 132.204 191.044 130.153 191.24C129.698 191.284 129.653 191.22 129.577 190.769C129.397 189.71 128.905 189.265 127.829 189.198C127.186 189.156 126.559 189.23 125.938 189.412C125.493 189.544 125.199 189.809 124.997 190.209C124.898 190.408 124.783 190.6 124.677 190.792C124.62 190.772 124.559 190.753 124.498 190.734C124.348 189.329 124.354 187.915 124.357 186.456V186.459ZM123.948 201.249C124.181 200.846 124.3 200.427 124.297 199.976C124.29 199.064 124.258 198.152 124.236 197.24C124.233 197.073 124.236 196.907 124.236 196.667C124.498 196.651 124.687 196.632 124.873 196.632C128.866 196.609 132.857 196.587 136.85 196.564C136.914 196.564 136.978 196.564 137.042 196.568C137.525 196.593 137.564 196.628 137.596 197.134C137.612 197.368 137.612 197.601 137.615 197.835C137.637 199.044 137.663 200.254 137.685 201.467C137.695 201.988 137.644 202.062 137.122 202.072C133.98 202.132 130.837 202.177 127.695 202.244C127.298 202.254 126.908 202.388 126.511 202.411C125.877 202.443 125.237 202.446 124.601 202.433C123.794 202.414 123.535 201.96 123.945 201.252L123.948 201.249ZM106.962 189.438C106.857 189.441 106.748 189.448 106.642 189.441C106.418 189.425 106.121 189.492 106.05 189.198C105.98 188.9 106.153 188.638 106.421 188.526C106.77 188.379 107.141 188.241 107.513 188.209C108.78 188.094 110.05 188.014 111.321 187.944C111.935 187.912 112.553 187.928 113.167 187.931C113.705 187.931 113.781 188.004 113.817 188.548C113.829 188.731 113.804 188.916 113.791 189.172C112.725 189.224 111.753 189.278 110.78 189.316C109.506 189.364 108.233 189.403 106.959 189.441L106.962 189.438ZM104.149 197.249C104.434 197.217 104.741 197.16 105.052 197.153C109.109 197.092 113.167 197.035 117.225 196.984C117.452 196.984 117.682 197.009 117.993 197.025C117.954 197.297 117.929 197.46 117.906 197.624C117.842 198.107 117.781 198.59 117.711 199.073C117.557 200.12 117.397 201.169 117.244 202.216C117.202 202.494 117.042 202.622 116.78 202.651C116.633 202.667 116.482 202.673 116.335 202.676C114.594 202.696 112.85 202.712 111.109 202.74C110.841 202.744 110.572 202.817 110.303 202.856C110.137 202.881 109.97 202.92 109.804 202.923C108.041 202.948 106.277 202.968 104.514 202.984C104.389 202.984 104.265 202.961 104.149 202.952C103.973 202.484 103.967 198.027 104.149 197.249Z" fill="#01615F"/>
<path d="M199.205 172.152C198.428 171.573 197.81 170.888 197.628 169.854C197.423 168.686 196.556 168.219 195.346 168.107C194.674 168.081 194.133 168.513 194.114 169.201C194.105 169.63 194.201 170.094 194.37 170.488C194.754 171.384 195.205 172.254 195.644 173.125C196.044 173.921 196.015 174.097 195.372 174.654C195.157 174.84 194.959 174.853 194.741 174.699C194.533 174.555 194.341 174.376 194.124 174.251C192.972 173.598 192.092 172.657 191.295 171.624C190.921 171.137 190.556 170.632 190.127 170.193C189.33 169.371 188.316 168.945 187.193 168.801C186.777 168.747 186.373 168.869 186.149 169.272C185.906 169.713 185.73 170.206 186.066 170.654C186.61 171.384 187.17 172.113 187.807 172.76C188.338 173.301 189.004 173.707 189.589 174.197C190.498 174.958 191.413 175.717 192.281 176.526C192.61 176.833 192.94 177.025 193.372 177.105C193.807 177.189 194.236 177.326 194.674 177.4C194.892 177.435 195.145 177.435 195.346 177.355C196.041 177.083 196.655 176.715 197.173 176.129C197.756 175.467 198.527 175.025 199.461 175.045C199.922 175.054 200.281 174.833 200.633 174.606C201.004 174.363 201.007 174.203 200.764 173.816C200.354 173.16 199.836 172.616 199.212 172.152H199.205Z" fill="#01615F"/>
<path d="M191.887 178.145C191.775 177.931 191.727 177.678 191.66 177.476C191.813 177.371 191.916 177.304 192.018 177.233C191.679 177.233 191.388 177.345 191.125 177.032C190.821 176.667 191.25 176.414 191.228 176.088C190.834 175.816 190.405 175.912 189.993 175.953C189.519 176.001 189.116 175.886 188.764 175.56C188.233 175.067 187.724 174.577 187.5 173.848C187.429 173.617 187.199 173.377 186.978 173.262C186.629 173.083 186.22 173.019 185.849 172.875C185.682 172.811 185.493 172.705 185.401 172.561C185.039 171.988 184.693 171.406 184.383 170.804C184.111 170.273 183.589 169.969 183.045 170.094C182.565 170.203 182.239 170.657 182.268 171.262C182.332 172.568 182.741 173.758 183.535 174.808C183.861 175.243 184.277 175.47 184.834 175.502C185.189 175.521 185.538 175.649 185.893 175.7C186.233 175.752 186.578 175.768 186.924 175.796C186.863 175.94 186.783 176.011 186.693 176.024C186.316 176.078 185.935 176.116 185.557 176.158C184.921 176.228 184.594 176.612 184.684 177.23C184.767 177.796 184.802 178.385 184.988 178.92C185.349 179.956 185.785 180.971 186.226 181.979C186.409 182.392 187.231 182.68 187.669 182.558C187.98 182.472 188.172 182.248 188.143 181.896C188.114 181.54 188.047 181.179 187.935 180.84C187.791 180.395 187.577 179.976 187.413 179.537C187.225 179.025 187.001 178.52 187.02 177.796C187.468 178.03 187.797 178.212 188.133 178.379C188.729 178.67 189.154 179.112 189.455 179.704C189.625 180.043 189.855 180.36 190.105 180.644C190.281 180.846 190.521 181.009 190.761 181.134C191.538 181.537 192.46 180.891 192.345 180.046C192.255 179.393 192.204 178.737 191.887 178.139V178.145ZM186.095 173.819C186.025 173.8 185.932 173.601 185.957 173.524C186.05 173.268 186.258 173.297 186.53 173.384C186.476 173.688 186.396 173.899 186.092 173.822L186.095 173.819ZM187.375 175.854C187.359 175.656 187.34 175.46 187.324 175.275C188.143 175.054 188.207 175.083 188.434 175.758C188.121 175.995 187.778 175.934 187.375 175.854Z" fill="#01615F"/>
<path d="M189.177 174.405C188.786 174.197 188.492 174.04 188.198 173.886C188.454 174.411 188.61 174.494 189.177 174.405Z" fill="#01615F"/>
</svg>
