<svg width="331" height="275" viewBox="0 0 331 275" fill="none" xmlns="http://www.w3.org/2000/svg">
<path opacity="0.1" fill-rule="evenodd" clip-rule="evenodd" d="M327.248 63.7294C343.195 105.751 300.231 144.345 280.397 184.678C266.483 212.974 257.552 244.689 230.388 260.699C203.021 276.828 169.193 277.906 139.009 268.008C110.376 258.619 94.3103 232.382 74.5797 209.607C46.6769 177.399 -10.7645 150.727 2.25214 110.15C15.425 69.0855 81.5091 89.0141 119.694 68.9716C154.563 50.6696 171.243 1.78078 210.611 0.786457C256.523 -0.373165 310.952 20.7905 327.248 63.7294Z" fill="#01615F"/>
<path d="M262.366 145.402C262.221 144.877 262.186 144.347 262.356 143.817C262.386 143.717 262.411 143.577 262.366 143.497C262.151 143.107 262.246 142.697 262.231 142.292C262.166 140.287 262.091 138.287 262.011 136.287C261.991 135.782 261.916 135.282 261.881 134.782C261.831 134.107 261.811 133.427 261.736 132.752C261.531 130.937 261.291 129.122 261.076 127.307C260.926 126.037 260.796 124.767 260.641 123.497C260.491 122.227 260.351 120.957 260.151 119.697C259.971 118.547 259.731 117.402 259.496 116.262C259.301 115.337 259.086 114.412 258.856 113.497C258.376 111.607 257.566 109.837 256.811 108.052C255.246 104.357 253.381 100.812 251.271 97.3918C249.821 95.0368 248.236 92.7768 246.571 90.5718C245.736 89.4668 244.866 88.3768 243.956 87.3318C243.141 86.3968 242.321 85.4568 241.381 84.6268C240.481 83.8318 239.641 82.9768 238.726 82.2018C236.471 80.2968 234.066 78.5818 231.556 77.0318C229.986 76.0618 228.406 75.1068 226.816 74.1718C225.376 73.3268 223.916 72.5018 222.451 71.7018C221.136 70.9868 219.796 70.3118 218.456 69.6368C217.666 69.2418 216.876 68.8368 216.056 68.5118C214.401 67.8568 212.721 67.2468 211.056 66.6218C208.776 65.7668 206.406 65.2068 204.051 64.6218C201.341 63.9468 198.571 63.5568 195.806 63.1568C193.106 62.7668 190.391 62.4718 187.661 62.3568C185.646 62.2718 183.626 62.1968 181.611 62.1218C181.611 62.1518 181.611 62.1868 181.611 62.2168C179.891 62.2168 178.171 62.1718 176.451 62.2318C174.686 62.2918 172.921 62.4218 171.166 62.5818C169.156 62.7618 167.146 62.9768 165.146 63.2418C162.676 63.5668 160.216 63.9818 157.776 64.4918C154.576 65.1618 151.386 65.8418 148.246 66.7518C147.566 66.9518 146.911 67.2318 146.236 67.4468C145.196 67.7768 144.151 68.0768 143.111 68.3968C142.386 68.6168 141.656 68.8268 140.946 69.0868C139.641 69.5618 138.351 70.0768 137.056 70.5668C136.036 70.9518 135.001 71.2918 133.996 71.7018C132.581 72.2768 131.171 72.8818 129.776 73.5118C128.511 74.0868 127.271 74.7018 126.026 75.3168C125.461 75.5968 124.936 75.9768 124.356 76.2018C123.526 76.5218 122.776 76.9968 122.006 77.4168C120.736 78.1168 119.511 78.8968 118.251 79.6168C115.476 81.2018 112.916 83.1068 110.416 85.0768C108.746 86.3918 107.151 87.8118 105.571 89.2318C104.436 90.2518 103.361 91.3418 102.296 92.4368C100.961 93.8018 99.6462 95.1818 98.4412 96.6618C97.5262 97.7868 96.6312 98.9318 95.7412 100.077C95.3062 100.637 94.8912 101.212 94.4862 101.797C93.6612 102.992 92.7862 104.157 92.0462 105.402C90.8062 107.492 89.6112 109.607 88.5312 111.787C87.5812 113.702 86.8262 115.692 86.0962 117.692C85.5562 119.172 85.1262 120.697 84.7062 122.217C84.3562 123.477 84.0562 124.752 83.8062 126.037C83.5912 127.152 83.4762 128.282 83.3162 129.407C83.2762 129.687 83.2262 129.967 83.1862 130.247C83.1112 130.792 83.0062 131.337 82.9762 131.887C82.8812 133.742 82.6512 135.592 82.6412 137.452C82.6412 138.117 82.5812 138.782 82.6312 139.442C82.7862 141.392 82.6312 143.347 82.8012 145.302C82.9862 147.462 82.8812 149.647 83.2112 151.807C83.2312 151.932 83.2112 152.057 83.2162 152.187C83.2162 152.457 83.2162 152.722 83.2362 152.992C83.3462 154.532 83.4562 156.077 83.5812 157.617C83.6712 158.717 83.7762 159.817 83.8912 160.917C84.1562 163.352 84.7062 165.737 85.3112 168.107C85.8662 170.282 86.5262 172.417 87.3312 174.512C87.9762 176.187 88.5512 177.892 89.1262 179.597C89.6212 181.077 90.0512 182.582 90.5462 184.062C91.2262 186.097 92.0212 188.087 92.9262 190.037C93.6912 191.677 94.6312 193.197 95.7462 194.612C96.2712 195.282 96.8112 195.942 97.3612 196.592C98.0562 197.412 98.8812 198.097 99.6862 198.812C100.841 199.842 102.001 200.857 103.321 201.682C104.151 202.197 104.921 202.807 105.751 203.322C106.996 204.092 108.246 204.862 109.571 205.497C110.181 205.787 110.776 206.112 111.376 206.427C112.801 207.187 114.296 207.782 115.796 208.362C116.606 208.677 117.406 209.022 118.226 209.287C119.231 209.617 120.261 209.862 121.271 210.177C125.071 211.352 128.951 212.222 132.836 213.067C135.871 213.727 138.951 214.132 142.026 214.562C143.336 214.742 144.656 214.857 145.976 214.987C146.696 215.057 147.431 215.037 148.146 215.152C149.161 215.317 150.181 215.332 151.201 215.397C151.451 215.412 151.706 215.367 151.956 215.377C152.791 215.397 153.626 215.422 154.456 215.452C154.596 215.457 154.731 215.502 154.866 215.522C155.096 215.562 155.331 215.637 155.556 215.627C155.961 215.602 156.356 215.487 156.761 215.472C158.131 215.432 159.501 215.437 160.871 215.402C162.276 215.367 163.676 215.312 165.076 215.252C165.546 215.232 166.016 215.147 166.486 215.112C167.586 215.027 168.691 214.962 169.791 214.862C170.891 214.762 171.986 214.632 173.081 214.502C173.521 214.452 173.956 214.377 174.391 214.317C175.061 214.222 175.726 214.112 176.396 214.027C177.256 213.922 178.126 213.862 178.981 213.732C180.881 213.437 182.781 213.117 184.676 212.802C186.016 212.582 187.356 212.377 188.686 212.117C190.701 211.727 192.701 211.287 194.716 210.892C196.216 210.597 197.726 210.352 199.231 210.067C199.911 209.937 200.596 209.797 201.261 209.602C202.836 209.142 204.401 208.652 205.966 208.162C207.096 207.807 208.221 207.442 209.336 207.047C210.106 206.772 210.851 206.422 211.616 206.117C212.011 205.962 212.426 205.852 212.816 205.687C214.226 205.097 215.636 204.502 217.041 203.897C218.066 203.452 219.096 203.007 220.106 202.517C222.131 201.532 224.141 200.507 226.166 199.507C227.171 199.012 228.186 198.542 229.191 198.042C230.181 197.552 231.161 197.052 232.136 196.537C233.001 196.082 233.861 195.617 234.706 195.127C235.541 194.647 236.386 194.177 237.166 193.617C238.896 192.377 240.486 190.962 242.031 189.492C243.531 188.067 244.871 186.492 246.331 185.032C247.856 183.502 249.341 181.932 250.841 180.382C250.951 180.267 251.051 180.147 251.151 180.027C251.631 179.422 252.121 178.822 252.586 178.207C253.236 177.337 253.871 176.452 254.501 175.567C254.786 175.167 255.066 174.767 255.321 174.352C256.206 172.932 256.926 171.417 257.621 169.897C258.791 167.357 259.616 164.687 260.296 161.972C260.786 160.012 261.306 158.062 261.556 156.052C261.726 154.692 261.876 153.327 262.021 151.967C262.066 151.527 262.081 151.087 262.101 150.642C262.161 149.462 262.211 148.282 262.276 147.102C262.286 146.882 262.321 146.667 262.366 146.452C262.446 146.107 262.466 145.772 262.366 145.422V145.402ZM97.3312 174.272C97.3012 175.942 97.2862 177.617 97.2712 179.287C97.2712 179.437 97.2712 179.587 97.2712 179.772C97.0412 179.712 97.0262 179.567 96.9912 179.437C96.4562 177.622 95.9162 175.807 95.3962 173.992C95.1162 173.022 94.8712 172.042 94.6212 171.067C94.5812 170.912 94.5912 170.747 94.5812 170.582C94.6162 170.567 94.6562 170.552 94.6912 170.537C94.8562 170.712 95.0412 170.877 95.1862 171.072C95.6612 171.722 96.1162 172.382 96.5862 173.032C96.7362 173.237 96.9062 173.422 97.0812 173.602C97.2712 173.792 97.3412 174.002 97.3362 174.277L97.3312 174.272ZM104.566 182.042C104.526 182.117 104.441 182.192 104.361 182.212C104.166 182.262 103.961 182.297 103.756 182.317C103.081 182.372 102.566 182.777 102.406 183.442C102.311 183.837 102.256 184.252 102.236 184.657C102.126 186.877 102.026 189.097 101.931 191.322C101.921 191.497 101.951 191.672 101.931 191.842C101.916 192.007 101.861 192.167 101.826 192.327C101.786 192.327 101.746 192.327 101.711 192.332C101.656 192.262 101.571 192.202 101.546 192.122C101.101 190.842 100.526 189.607 100.331 188.252C100.171 187.132 100.056 186.002 100.071 184.867C100.086 183.982 100.026 183.097 100.081 182.217C100.126 181.512 100.116 180.812 100.236 180.102C100.366 179.317 100.296 178.497 100.316 177.692C100.316 177.537 100.316 177.387 100.316 177.157C100.471 177.247 100.571 177.282 100.641 177.347C100.851 177.537 101.076 177.722 101.251 177.942C101.716 178.527 102.286 178.997 102.876 179.447C103.466 179.897 104.026 180.377 104.596 180.857C104.736 180.977 104.846 181.127 104.961 181.252C104.816 181.547 104.701 181.802 104.566 182.047V182.042ZM110.126 190.772C110.126 193.407 110.126 196.037 110.126 198.672C110.126 198.827 110.126 198.977 110.126 199.257C108.616 198.457 107.386 197.497 106.291 196.337C106.356 196.372 106.426 196.407 106.486 196.447C106.566 196.497 106.641 196.557 106.716 196.612C106.966 196.802 107.216 196.997 107.476 197.177C107.606 197.262 107.751 197.337 107.901 197.377C108.251 197.477 108.361 197.387 108.366 197.017C108.366 196.152 108.366 195.282 108.356 194.417C108.346 192.637 108.341 190.852 108.321 189.072C108.311 188.127 108.281 187.182 108.256 186.237C108.256 186.127 108.256 186.007 108.211 185.912C108.066 185.592 108.076 185.287 108.201 184.952C108.296 184.692 108.356 184.407 108.101 184.162C108.031 184.092 108.036 183.947 107.996 183.772C108.336 183.827 108.571 183.922 108.791 184.072C109.076 184.267 109.356 184.482 109.656 184.647C110.041 184.857 110.151 185.157 110.146 185.582C110.126 187.317 110.136 189.052 110.131 190.787L110.126 190.772ZM119.351 190.182C119.256 190.362 119.136 190.542 119.091 190.732C118.781 192.067 118.461 193.402 118.186 194.742C117.776 196.752 117.581 198.792 117.356 200.827C117.286 201.462 117.091 202.047 116.771 202.702C116.116 202.387 115.511 202.092 114.906 201.797C114.836 201.762 114.776 201.697 114.706 201.672C114.191 201.507 114.106 201.127 114.101 200.637C114.046 196.552 113.966 192.472 113.891 188.387C113.886 188.077 113.846 187.767 113.826 187.462C113.891 187.447 113.936 187.422 113.951 187.432C114.656 187.942 115.516 188.082 116.296 188.407C117.301 188.822 118.301 189.242 119.301 189.667C119.381 189.702 119.446 189.777 119.541 189.857C119.471 189.972 119.401 190.072 119.346 190.177L119.351 190.182ZM126.376 194.942C126.071 195.567 125.881 196.227 125.751 196.917C125.201 199.917 125.256 202.942 125.286 205.967C125.286 206.027 125.271 206.087 125.266 206.137C125.086 206.267 124.951 206.147 124.811 206.092C123.961 205.762 123.111 205.427 122.256 205.097C122.126 205.047 121.981 205.017 121.861 204.947C121.606 204.802 121.411 204.607 121.386 204.287C121.341 203.672 121.266 203.062 121.251 202.447C121.226 201.502 121.251 200.557 121.236 199.607C121.216 198.387 121.411 197.192 121.586 195.992C121.766 194.727 122.031 193.482 122.426 192.262C122.476 192.112 122.531 191.962 122.586 191.817C122.601 191.777 122.641 191.742 122.701 191.662C122.861 191.702 123.046 191.727 123.216 191.792C124.221 192.162 125.221 192.542 126.226 192.917C126.401 192.982 126.581 193.037 126.761 193.107C126.901 193.162 127.041 193.227 127.191 193.297C126.901 193.872 126.636 194.407 126.371 194.937L126.376 194.942ZM135.496 197.547C135.176 198.142 134.851 198.747 134.736 199.422C134.671 199.807 134.641 200.197 134.631 200.587C134.586 201.847 134.581 203.107 134.251 204.342C134.166 204.657 134.161 204.997 134.096 205.322C133.936 206.077 133.756 206.827 133.381 207.517C133.241 207.782 133.046 207.932 132.731 207.872C131.976 207.732 131.191 207.817 130.466 207.487C130.121 207.327 129.966 207.122 129.961 206.732C129.936 204.162 129.881 201.592 129.871 199.022C129.871 198.207 129.966 197.387 130.011 196.572C130.026 196.287 130.026 196.002 130.021 195.722C130.011 195.462 130.126 195.322 130.371 195.237C130.606 195.152 130.816 195.007 131.046 194.917C131.216 194.852 131.411 194.802 131.586 194.822C132.826 194.967 134.041 195.212 135.221 195.632C135.441 195.712 135.676 195.757 135.901 195.822C136.046 195.867 136.186 195.922 136.376 195.992C136.051 196.567 135.766 197.052 135.496 197.552V197.547ZM146.011 198.307C145.436 199.152 144.856 199.997 144.276 200.842C144.021 201.212 143.861 201.617 143.856 202.077C143.856 202.472 143.841 202.867 143.836 203.257C143.836 203.682 143.811 204.097 143.721 204.522C143.616 205.027 143.661 205.557 143.596 206.072C143.456 207.227 143.296 208.387 143.126 209.537C143.051 210.042 142.991 210.062 142.506 209.987C141.776 209.872 141.036 209.787 140.311 209.642C139.806 209.537 139.316 209.352 138.821 209.202C138.491 209.097 138.371 208.857 138.346 208.522C138.276 207.597 138.236 206.662 138.076 205.747C137.866 204.512 137.811 203.272 137.771 202.027C137.731 200.927 137.991 199.867 138.186 198.802C138.286 198.267 138.461 197.777 138.786 197.332C138.941 197.122 139.031 196.862 139.156 196.617C139.266 196.617 139.381 196.602 139.486 196.617C141.361 196.952 143.236 197.292 145.111 197.632C145.341 197.672 145.576 197.727 145.801 197.792C145.926 197.827 146.041 197.907 146.181 197.982C146.106 198.127 146.066 198.227 146.006 198.312L146.011 198.307ZM156.191 199.432C156.176 199.777 156.011 200.037 155.756 200.237C155.311 200.587 154.861 200.937 154.401 201.267C154.046 201.522 154.086 201.502 154.116 201.947C154.176 202.827 154.191 203.712 154.196 204.592C154.196 205.192 154.146 205.787 154.136 206.387C154.106 207.662 154.086 208.942 154.071 210.217C154.061 210.822 154.031 210.857 153.411 210.787C153.156 210.852 152.901 210.922 152.646 210.982C152.481 211.022 152.311 211.072 152.141 211.072C151.306 211.082 150.471 211.087 149.631 211.082C149.476 211.082 149.321 211.047 149.166 211.022C148.951 210.987 148.741 210.927 148.526 210.907C148.196 210.877 147.931 210.752 147.836 210.427C147.636 209.752 147.371 209.097 147.381 208.367C147.416 206.362 147.421 204.362 147.426 202.357C147.426 201.902 147.381 201.442 147.346 200.987C147.301 200.397 147.491 199.867 147.781 199.367C147.956 199.067 148.161 198.787 148.341 198.492C148.456 198.312 148.611 198.242 148.821 198.267C149.651 198.362 150.481 198.457 151.311 198.552C151.451 198.567 151.591 198.577 151.731 198.587C152.766 198.652 153.806 198.702 154.841 198.787C155.201 198.817 155.546 198.942 155.901 199.017C156.136 199.067 156.196 199.212 156.186 199.432H156.191ZM180.151 199.812C179.881 200.637 179.611 201.447 179.116 202.187C178.686 202.837 178.576 203.627 178.446 204.387C178.336 205.037 178.216 205.687 178.101 206.342C178.076 206.482 178.041 206.627 178.061 206.762C178.126 207.322 178.021 207.862 177.866 208.397C177.791 208.642 177.926 208.987 177.631 209.127C177.396 209.237 177.116 209.262 176.851 209.302C175.306 209.532 173.766 209.782 172.216 209.977C171.391 210.082 170.551 210.112 169.716 210.147C169.191 210.167 169.116 210.082 169.101 209.547C169.091 209.152 169.126 208.762 169.121 208.367C169.121 208.007 169.091 207.642 169.081 207.282C169.066 206.507 169.071 205.737 169.041 204.962C169.026 204.617 168.971 204.272 168.901 203.937C168.841 203.647 168.651 203.487 168.326 203.492C167.631 203.502 166.936 203.477 166.246 203.492C165.666 203.507 165.461 203.702 165.386 204.277C165.356 204.507 165.371 204.747 165.381 204.987C165.391 205.352 165.396 205.712 165.426 206.072C165.521 207.197 165.181 208.292 165.151 209.407C165.141 209.692 165.106 209.972 165.076 210.257C165.026 210.737 164.991 210.777 164.496 210.822C164.011 210.867 163.521 210.877 163.031 210.912C162.796 210.932 162.566 210.977 162.336 211.017C162.196 211.042 162.061 211.092 161.921 211.097C160.961 211.137 159.996 211.177 159.036 211.202C158.621 211.212 158.561 211.167 158.421 210.762C158.351 210.552 158.306 210.337 158.256 210.122C158.161 209.692 158.061 209.262 157.976 208.832C157.931 208.602 157.886 208.367 157.881 208.132C157.856 206.222 157.761 204.312 157.966 202.407C158.041 201.702 158.186 201.007 158.301 200.307C158.351 200.002 158.406 199.697 158.456 199.407C159.126 199.407 159.751 199.407 160.381 199.407C160.601 199.407 160.821 199.427 161.041 199.442C162.061 199.507 163.081 199.582 164.101 199.632C164.636 199.657 165.171 199.642 165.711 199.632C166.621 199.612 167.536 199.587 168.446 199.552C168.766 199.537 169.076 199.542 169.331 199.832C169.611 199.452 169.976 199.482 170.361 199.492C170.831 199.507 171.301 199.462 171.771 199.437C172.271 199.412 172.771 199.372 173.276 199.352C173.811 199.332 174.351 199.352 174.886 199.312C175.386 199.277 175.881 199.182 176.381 199.127C177.651 198.987 178.921 198.857 180.191 198.727C180.251 198.722 180.311 198.737 180.421 198.747C180.321 199.122 180.246 199.472 180.136 199.812H180.151ZM194.621 196.802C194.436 198.322 194.436 199.847 194.371 201.372C194.336 202.112 194.371 202.867 194.216 203.582C194.061 204.282 194.031 204.982 193.951 205.687C193.936 205.812 193.931 205.937 193.936 206.062C193.951 206.497 193.936 206.547 193.511 206.647C192.451 206.897 191.396 207.157 190.326 207.367C188.176 207.787 186.021 208.177 183.861 208.572C183.076 208.717 183.051 208.712 182.911 207.942C182.736 206.952 182.576 205.952 182.461 204.952C182.241 203.057 181.966 201.172 181.641 199.292C181.596 199.032 181.591 198.767 181.571 198.527C181.661 198.472 181.701 198.432 181.741 198.427C186.066 197.787 190.316 196.807 194.481 195.467C194.521 195.457 194.571 195.482 194.636 195.497C194.636 195.937 194.681 196.377 194.626 196.802H194.621ZM207.966 202.382C206.506 203.117 204.966 203.622 203.386 204.007C203.051 204.087 202.726 204.212 202.401 204.337C201.396 204.712 200.376 205.047 199.311 205.222C198.896 205.287 198.891 205.297 198.786 204.907C198.161 202.562 197.546 200.212 196.921 197.867C196.676 196.937 196.426 196.012 196.161 195.007C198.876 194.087 201.556 193.162 204.246 192.272C205.466 191.872 206.626 191.287 207.956 191.062C207.981 191.402 207.996 191.712 208.031 192.017C208.286 194.232 208.211 196.457 208.246 198.677C208.266 199.717 208.286 200.757 208.326 201.797C208.336 202.097 208.226 202.252 207.966 202.382ZM210.191 192.152C210.151 192.022 210.096 191.917 210.086 191.807C210.061 191.462 210.051 191.117 210.046 190.767C210.036 190.447 210.131 190.187 210.506 190.042C210.546 191.832 210.536 191.877 210.191 192.152ZM220.676 196.987C219.766 197.422 218.866 197.877 217.956 198.317C216.906 198.822 215.856 199.332 214.791 199.807C214.161 200.087 213.506 200.302 212.856 200.547C212.641 200.252 212.586 199.957 212.541 199.667C212.351 198.437 212.166 197.212 212.056 195.967C211.886 194.117 211.596 192.282 211.331 190.442C211.181 189.397 211.176 189.362 212.146 188.962C213.256 188.502 214.296 187.912 215.336 187.317C216.596 186.602 217.886 185.937 219.166 185.257C219.271 185.202 219.396 185.177 219.556 185.122C219.711 185.682 219.866 186.177 219.991 186.677C220.666 189.382 220.961 192.137 220.971 194.922C220.971 195.427 220.971 195.932 221.001 196.437C221.021 196.717 220.921 196.872 220.676 196.992V196.987ZM234.091 185.082C234.041 186.242 234.076 187.412 233.871 188.572C233.711 189.447 233.276 190.157 232.771 190.842C232.636 191.022 232.421 191.167 232.216 191.272C230.276 192.297 228.316 193.277 226.281 194.102C226.211 194.132 226.131 194.137 226.031 194.162C225.781 193.772 225.551 193.377 225.446 192.932C225.001 191.027 224.701 189.097 224.571 187.142C224.541 186.707 224.426 186.272 224.366 185.837C224.211 184.697 224.066 183.557 223.901 182.417C223.866 182.152 224.036 182.047 224.201 181.932C224.756 181.547 225.331 181.182 225.881 180.782C227.501 179.607 229.141 178.452 230.601 177.072C231.231 176.477 231.896 175.917 232.536 175.332C232.886 175.012 233.211 174.672 233.551 174.342C233.671 174.227 233.806 174.122 234.016 173.942C234.056 174.232 234.106 174.422 234.111 174.612C234.131 175.982 234.156 177.357 234.156 178.732C234.156 180.847 234.186 182.962 234.096 185.072L234.091 185.082ZM243.931 172.042C243.921 173.507 243.891 174.972 243.871 176.437C243.871 176.517 243.886 176.612 243.846 176.667C243.591 177.022 243.696 177.422 243.686 177.812C243.681 178.077 243.656 178.347 243.621 178.612C243.576 178.952 243.446 179.282 243.596 179.632C243.636 179.727 243.591 179.897 243.521 179.987C243.326 180.242 243.281 180.532 243.266 180.832C243.246 181.317 243.041 181.697 242.686 182.027C241.396 183.237 240.031 184.357 238.581 185.367C238.521 185.407 238.446 185.432 238.331 185.482C238.321 185.342 238.306 185.237 238.306 185.137C238.306 183.527 238.296 181.922 238.316 180.312C238.316 179.857 238.401 179.407 238.441 178.957C238.476 178.517 238.506 178.077 238.531 177.637C238.606 176.332 238.681 175.027 238.751 173.722C238.766 173.472 238.786 173.217 238.776 172.967C238.766 172.697 238.741 172.437 238.876 172.182C238.926 172.092 238.921 171.967 238.921 171.857C238.921 171.272 238.931 170.692 238.921 170.107C238.921 169.907 238.881 169.702 238.811 169.512C238.711 169.247 238.726 169.042 238.936 168.827C240.066 167.642 241.186 166.442 242.316 165.257C242.556 165.007 242.826 164.792 243.126 164.522C243.341 165.602 243.636 166.592 243.656 167.632C243.666 168.002 243.801 168.367 243.841 168.742C243.871 169.007 243.826 169.277 243.831 169.542C243.836 169.822 243.876 170.107 243.886 170.387C243.906 170.937 243.936 171.487 243.931 172.037V172.042ZM252.846 168.737C252.431 169.907 251.781 170.952 251.151 172.007C250.476 173.147 249.766 174.262 248.931 175.297C248.786 175.477 248.666 175.682 248.491 175.932C248.461 175.792 248.431 175.717 248.421 175.637C248.381 175.122 248.351 174.602 248.311 174.087C248.266 173.507 248.191 172.932 248.161 172.352C248.111 171.502 248.101 170.652 248.051 169.807C248.021 169.307 247.941 168.807 247.886 168.312C247.841 167.907 247.801 167.497 247.771 167.092C247.711 166.277 247.676 165.457 247.611 164.642C247.501 163.187 247.381 161.737 247.266 160.282C247.261 160.217 247.266 160.147 247.246 160.097C247.046 159.662 247.221 159.317 247.471 158.972C248.136 158.032 248.791 157.092 249.446 156.147C249.606 155.917 249.756 155.672 249.906 155.432C250.221 154.927 250.541 154.427 250.856 153.922C250.901 153.932 250.946 153.942 250.996 153.952C251.046 154.367 251.101 154.782 251.151 155.197C251.381 157.057 251.626 158.917 251.846 160.782C251.996 162.052 252.081 163.327 252.266 164.587C252.426 165.692 252.676 166.782 252.911 167.877C252.976 168.182 252.956 168.442 252.851 168.742L252.846 168.737ZM254.486 121.462C254.476 122.977 254.506 124.497 254.416 126.007C254.381 126.632 254.306 127.257 254.286 127.882C254.231 129.622 254.011 131.342 253.786 133.062C253.546 134.927 253.071 136.742 252.551 138.547C251.781 141.227 250.666 143.767 249.476 146.277C248.281 148.792 246.911 151.202 245.396 153.532C244.291 155.242 243.121 156.907 241.841 158.492C240.836 159.727 239.896 161.017 238.881 162.242C238.026 163.272 237.111 164.257 236.206 165.242C235.471 166.042 234.731 166.847 233.956 167.607C231.901 169.632 229.876 171.692 227.696 173.592C226.146 174.942 224.571 176.252 222.911 177.457C220.791 178.992 218.611 180.447 216.366 181.797C214.496 182.922 212.531 183.857 210.551 184.767C208.381 185.762 206.156 186.602 203.931 187.452C201.201 188.497 198.386 189.272 195.611 190.172C192.586 191.152 189.496 191.842 186.406 192.557C183.296 193.277 180.151 193.787 176.986 194.172C174.871 194.427 172.741 194.512 170.611 194.592C168.861 194.657 167.111 194.732 165.356 194.732C163.576 194.732 161.791 194.632 160.011 194.577C158.891 194.542 157.771 194.517 156.651 194.477C156.311 194.462 155.961 194.487 155.641 194.307C155.536 194.247 155.396 194.242 155.271 194.237C154.531 194.202 153.786 194.207 153.051 194.137C151.701 194.007 150.351 193.872 149.011 193.667C146.841 193.342 144.676 192.992 142.521 192.587C140.956 192.292 139.411 191.897 137.861 191.537C136.786 191.287 135.706 191.042 134.641 190.757C133.026 190.322 131.411 189.887 129.846 189.292C128.076 188.622 126.271 188.042 124.511 187.347C122.901 186.707 121.311 186.007 119.751 185.247C118.376 184.577 117.066 183.782 115.721 183.057C113.126 181.652 110.801 179.862 108.481 178.062C107.611 177.387 106.811 176.622 105.961 175.912C104.406 174.617 102.966 173.202 101.626 171.687C100.221 170.102 98.9712 168.397 97.7162 166.692C96.1962 164.632 94.7762 162.507 93.4862 160.297C92.9162 159.322 92.4512 158.277 91.9962 157.237C91.1962 155.402 90.4212 153.547 89.8862 151.612C89.3012 149.512 88.8312 147.387 88.5412 145.227C88.3912 144.117 88.1762 143.017 88.0512 141.907C87.9362 140.892 87.9062 139.867 87.8262 138.847C87.7462 137.887 87.6462 136.932 87.5562 135.972C87.5462 135.877 87.5262 135.782 87.5262 135.692C87.5362 134.082 87.5512 132.477 87.5662 130.867C87.5662 130.597 87.5612 130.332 87.5762 130.062C87.5962 129.812 87.6412 129.567 87.6812 129.322C87.7012 129.182 87.7612 129.042 87.7512 128.907C87.6962 127.982 87.8712 127.077 88.0712 126.192C88.4662 124.437 88.9012 122.692 89.3662 120.957C89.5862 120.137 89.9062 119.342 90.1862 118.537C90.2262 118.417 90.2862 118.307 90.3262 118.187C90.9262 116.437 91.7762 114.797 92.5562 113.132C93.3062 111.532 94.1612 109.982 95.1162 108.497C95.9762 107.157 96.8762 105.842 97.7912 104.542C98.7162 103.227 99.6362 101.902 100.656 100.662C101.821 99.2368 102.961 97.7818 104.266 96.4718C105.301 95.4368 106.276 94.3318 107.336 93.3218C108.371 92.3318 109.471 91.4068 110.556 90.4618C111.201 89.9018 111.856 89.3618 112.521 88.8318C114.651 87.1468 116.836 85.5318 119.146 84.1018C120.861 83.0368 122.616 82.0318 124.366 81.0318C125.781 80.2268 127.281 79.6018 128.801 79.0218C128.896 78.9868 129.006 78.9818 129.111 78.9668C129.136 79.0068 129.161 79.0468 129.186 79.0868C129.011 79.2318 128.856 79.4018 128.666 79.5218C127.856 80.0368 127.036 80.5418 126.216 81.0468C125.921 81.2318 125.636 81.4118 125.441 81.7218C125.336 81.8818 125.141 81.9968 124.966 82.1018C123.901 82.7268 122.901 83.4368 121.991 84.2768C121.921 84.3418 121.846 84.4018 121.766 84.4518C120.351 85.3818 119.146 86.5718 117.871 87.6718C116.586 88.7868 115.421 90.0368 114.186 91.2068C112.626 92.6868 111.221 94.3118 109.846 95.9568C108.696 97.3368 107.656 98.8068 106.556 100.227C105.416 101.702 104.406 103.267 103.436 104.852C102.021 107.157 100.826 109.572 99.7162 112.032C99.1562 113.282 98.6962 114.577 98.2212 115.867C97.7212 117.232 97.2412 118.602 96.7912 119.982C96.4912 120.897 96.2512 121.827 96.0012 122.757C95.6412 124.097 95.2662 125.437 94.9462 126.787C94.6862 127.892 94.4812 129.007 94.2762 130.127C94.0612 131.287 93.8162 132.447 93.6912 133.622C93.5812 134.667 93.4562 135.727 93.6262 136.782C93.6812 137.122 93.7812 137.457 93.8912 137.787C94.1162 138.462 94.6562 138.737 95.3112 138.782C95.9662 138.827 96.5162 138.572 96.8712 137.987C97.1312 137.557 97.2212 137.077 97.2912 136.592C97.5512 134.862 97.8212 133.132 98.0612 131.397C98.3462 129.297 98.8462 127.242 99.4362 125.212C100.446 121.722 101.646 118.302 103.216 115.022C103.886 113.627 104.561 112.232 105.341 110.902C106.351 109.172 107.256 107.387 108.446 105.762C109.191 104.747 109.841 103.657 110.581 102.637C111.316 101.632 112.106 100.667 112.891 99.6968C113.726 98.6668 114.566 97.6468 115.426 96.6418C115.936 96.0418 116.486 95.4768 117.021 94.8968C117.621 94.2518 118.216 93.5918 118.836 92.9668C120.531 91.2668 122.286 89.6368 124.161 88.1368C125.406 87.1418 126.651 86.1418 128.026 85.3318C129.751 84.3168 131.421 83.2068 133.316 82.4968C134.171 82.1768 135.001 81.7868 135.846 81.4368C136.036 81.3568 136.231 81.2868 136.426 81.2368C137.286 81.0118 138.021 80.5568 138.666 79.9568C139.226 79.4368 139.576 78.7868 139.696 78.0318C139.731 77.8118 139.666 77.5618 139.591 77.3468C139.406 76.7968 139.171 76.2568 138.986 75.7068C138.856 75.3068 138.901 75.1868 139.281 74.9768C139.861 74.6618 140.446 74.3368 141.051 74.0818C142.551 73.4518 144.071 72.8818 145.646 72.4618C145.721 72.4418 145.801 72.4168 145.871 72.3868C146.921 71.8818 148.056 71.6718 149.171 71.3818C150.546 71.0218 151.911 70.6418 153.291 70.3068C155.941 69.6618 158.596 69.0168 161.261 68.4268C163.276 67.9818 165.321 67.6618 167.381 67.4818C168.686 67.3668 169.976 67.1368 171.281 67.0168C172.646 66.8918 174.021 66.8518 175.391 66.7518C178.291 66.5368 181.191 66.5468 184.096 66.5918C184.991 66.6068 185.891 66.6118 186.786 66.7418C187.671 66.8718 188.576 66.8768 189.471 66.9468C191.926 67.1418 194.376 67.3968 196.801 67.8268C198.541 68.1368 200.281 68.4318 201.996 68.8468C204.696 69.4968 207.346 70.3218 209.971 71.2368C212.886 72.2518 215.681 73.5268 218.426 74.9268C220.081 75.7718 221.691 76.7118 223.286 77.6668C224.746 78.5368 226.201 79.4368 227.596 80.4068C229.591 81.7918 231.536 83.2468 233.496 84.6818C233.901 84.9818 234.281 85.3168 234.666 85.6468C236.586 87.3068 238.461 89.0168 240.171 90.9068C241.751 92.6518 243.251 94.4668 244.631 96.3668C245.976 98.2168 247.236 100.127 248.256 102.187C248.361 102.397 248.516 102.582 248.631 102.787C249.056 103.577 249.496 104.362 249.891 105.167C250.681 106.767 251.511 108.347 252.111 110.032C252.536 111.222 252.901 112.432 253.321 113.617C253.601 114.397 253.761 115.187 253.841 116.012C253.941 117.077 254.101 118.142 254.221 119.207C254.256 119.502 254.266 119.807 254.246 120.107C254.221 120.477 254.201 120.827 254.416 121.157C254.471 121.242 254.466 121.372 254.466 121.477L254.486 121.462ZM256.876 152.417C256.856 154.087 256.636 155.747 256.381 157.397C256.191 158.627 255.916 159.842 255.661 161.062C255.591 161.407 255.456 161.737 255.351 162.077L255.281 162.062C255.271 161.977 255.256 161.887 255.256 161.802C255.281 160.317 254.986 158.857 254.796 157.397C254.631 156.112 254.531 154.827 254.521 153.537C254.521 152.892 254.586 152.247 254.616 151.602C254.631 151.287 254.616 150.967 254.656 150.662C254.776 149.852 254.856 149.032 255.066 148.247C255.501 146.602 256.011 144.977 256.496 143.347C256.546 143.172 256.631 143.012 256.701 142.842C256.741 142.842 256.776 142.852 256.816 142.857C256.851 143.177 256.916 143.497 256.916 143.817C256.916 146.687 256.916 149.557 256.881 152.422L256.876 152.417Z" fill="#01615F"/>
<path d="M210.411 99.0368C210.251 99.0368 210.096 99.0168 209.936 99.0318C208.911 99.1418 207.971 98.8168 207.051 98.4318C205.856 97.9368 204.676 97.4118 203.481 96.9268C201.921 96.2968 200.286 95.9618 198.631 95.7068C198.071 95.6218 197.501 95.5868 196.941 95.4968C195.916 95.3318 194.896 95.1218 193.866 94.9618C192.821 94.7968 191.776 94.6718 190.731 94.5368C190.471 94.5018 190.206 94.5068 189.871 94.4868C190.076 94.0518 190.241 93.6668 190.431 93.2918C191.621 90.9018 192.926 88.5818 194.406 86.3568C194.826 85.7268 195.226 85.0868 195.606 84.4268C195.896 83.9218 195.831 83.5968 195.376 83.2168C195.101 82.9868 194.796 82.7818 194.476 82.6118C194.011 82.3618 193.781 82.4218 193.366 82.7718C192.851 83.2068 192.506 83.7718 192.111 84.3018C191.086 85.6668 190.131 87.0718 189.256 88.5368C188.271 90.1868 187.236 91.8168 186.286 93.4868C185.991 94.0018 185.686 94.1618 185.111 94.1418C184.056 94.1068 183.001 94.1768 181.946 94.2068C181.551 94.2168 181.156 94.2068 180.766 94.2418C180.361 94.2718 179.961 94.3818 179.556 94.3868C178.391 94.4118 177.226 94.4718 176.076 94.6518C176.061 94.6518 176.036 94.6118 176.006 94.5768C176.156 94.2768 176.331 93.9768 176.456 93.6618C176.676 93.1068 176.881 92.5418 177.066 91.9718C177.296 91.2618 177.436 90.5368 177.421 89.7868C177.401 88.9018 176.836 88.2168 175.976 88.0318C175.446 87.9168 174.911 87.9318 174.376 88.0318C173.841 88.1318 173.451 88.4268 173.206 88.9018C173.006 89.2918 172.821 89.6968 172.656 90.1068C172.036 91.6068 171.421 93.1118 170.816 94.6168C170.656 95.0168 170.396 95.2718 169.971 95.3568C169.881 95.3768 169.791 95.4118 169.696 95.4368C167.931 95.8768 166.231 96.4968 164.556 97.2018C163.156 97.7918 161.796 98.4418 160.506 99.2418C159.606 99.7968 158.676 100.312 157.826 100.937C156.901 101.622 156.061 102.412 155.186 103.162C154.086 104.102 153.156 105.197 152.351 106.387C151.561 107.547 150.891 108.767 150.431 110.117C150.051 111.237 149.886 112.392 149.766 113.542C149.666 114.487 149.696 115.457 149.946 116.407C150.221 117.472 150.541 118.507 151.231 119.382C151.641 119.902 152.091 120.392 152.526 120.887C152.596 120.967 152.691 121.037 152.781 121.097C153.206 121.367 153.616 121.667 154.066 121.897C154.596 122.172 155.161 122.377 155.706 122.622C156.151 122.822 156.596 123.022 157.036 123.232C157.261 123.342 157.296 123.512 157.196 123.742C157.041 124.087 156.921 124.447 156.771 124.797C155.176 128.557 153.566 132.312 152.206 136.172C151.266 138.837 150.306 141.492 149.356 144.152C148.671 146.067 147.986 147.982 147.301 149.897C147.251 150.037 147.176 150.172 147.096 150.347C145.086 149.697 143.121 149.067 141.166 148.417C140.311 148.132 139.476 147.797 138.631 147.492C137.326 147.017 136.011 146.567 134.716 146.067C133.496 145.597 132.291 145.077 131.076 144.592C130.346 144.302 129.596 144.042 128.866 143.752C127.811 143.332 126.761 142.892 125.711 142.462C125.026 142.182 124.311 142.077 123.576 142.142C122.861 142.207 122.331 142.567 121.986 143.192C121.336 144.367 121.656 145.712 122.821 146.457C123.441 146.852 124.121 147.172 124.796 147.472C127.236 148.557 129.786 149.342 132.281 150.287C134.506 151.132 136.756 151.912 138.996 152.722C139.796 153.012 140.586 153.347 141.406 153.567C142.906 153.972 144.326 154.577 145.741 155.197C145.781 155.212 145.806 155.262 145.856 155.317C145.826 155.442 145.796 155.577 145.756 155.712C145.316 157.212 144.896 158.717 144.431 160.207C143.601 162.892 142.741 165.562 141.906 168.247C141.686 168.952 141.496 169.672 141.336 170.397C141.171 171.172 141.596 171.702 142.376 171.747C142.766 171.767 143.141 171.657 143.436 171.407C143.741 171.142 144.041 170.852 144.276 170.522C145.071 169.407 145.546 168.122 146.036 166.862C146.711 165.112 147.291 163.322 147.946 161.567C148.591 159.837 149.271 158.122 149.941 156.402C150.056 156.107 150.121 156.082 150.451 156.152C150.591 156.182 150.726 156.227 150.866 156.247C151.801 156.382 152.741 156.507 153.676 156.642C154.301 156.732 154.921 156.832 155.541 156.922C155.666 156.942 155.791 156.927 155.916 156.937C156.431 156.967 156.946 157.002 157.521 157.037C157.506 157.257 157.511 157.382 157.486 157.502C157.151 159.222 156.801 160.937 156.286 162.617C156.171 162.992 156.091 163.382 156.051 163.772C155.951 164.642 156.396 165.237 157.241 165.437C157.471 165.492 157.696 165.567 157.906 165.667C158.126 165.767 158.311 165.752 158.451 165.562C158.686 165.247 158.941 164.942 159.116 164.597C159.636 163.587 160.116 162.557 160.621 161.542C161.326 160.132 162.041 158.732 162.751 157.322C162.911 157.007 162.991 156.947 163.336 156.967C163.491 156.977 163.651 157.002 163.806 156.987C164.841 156.902 165.881 156.852 166.911 156.707C168.676 156.457 170.436 156.187 172.186 155.852C173.456 155.612 174.711 155.287 175.956 154.942C177.356 154.552 178.741 154.122 180.116 153.667C182.676 152.827 185.266 152.057 187.651 150.757C187.721 150.717 187.796 150.692 187.866 150.657C189.081 150.132 190.301 149.612 191.516 149.082C193.461 148.237 195.256 147.117 197.076 146.047C197.226 145.962 197.361 145.847 197.486 145.727C198.036 145.182 198.591 144.647 199.116 144.082C199.811 143.342 200.231 142.442 200.541 141.492C201.051 139.912 200.911 138.317 200.596 136.717C200.416 135.807 200.026 134.977 199.571 134.182C199.266 133.647 198.971 133.097 198.576 132.632C197.941 131.887 197.261 131.182 196.546 130.517C195.576 129.622 194.706 128.602 193.506 127.972C193.381 127.907 193.286 127.792 193.171 127.707C192.876 127.497 192.591 127.272 192.281 127.087C191.466 126.607 190.651 126.122 189.816 125.677C189.021 125.252 188.221 124.842 187.396 124.482C185.181 123.517 182.886 122.757 180.556 122.122C178.931 121.677 177.286 121.292 175.651 120.877C175.506 120.842 175.361 120.787 175.191 120.737C175.256 120.587 175.296 120.487 175.346 120.392C175.716 119.677 176.111 118.977 176.456 118.247C177.586 115.832 179.001 113.562 180.056 111.107C180.111 110.977 180.196 110.857 180.256 110.732C181.106 109.022 181.976 107.327 182.791 105.602C183.356 104.402 184.016 103.287 184.981 102.377C185.956 101.457 186.946 100.557 187.941 99.6518C188.026 99.5768 188.166 99.5168 188.276 99.5168C188.781 99.5318 189.281 99.5668 189.781 99.6118C189.986 99.6268 190.181 99.6968 190.386 99.7068C191.281 99.7518 192.181 99.7718 193.076 99.8218C193.656 99.8568 194.241 99.9018 194.816 99.9818C196.061 100.162 197.311 100.362 198.551 100.572C199.296 100.702 200.046 100.822 200.771 101.027C202.566 101.537 204.296 102.212 205.901 103.192C206.711 103.687 207.581 104.062 208.491 104.342C209.051 104.517 209.631 104.527 210.166 104.302C210.971 103.962 211.711 103.512 212.256 102.802C212.391 102.627 212.511 102.437 212.606 102.242C212.846 101.717 212.906 101.182 212.661 100.642C212.221 99.6668 211.516 99.0768 210.406 99.0468L210.411 99.0368ZM155.706 115.657C155.051 114.937 154.846 114.097 155.026 113.167C155.306 111.742 155.926 110.462 156.726 109.252C157.266 108.442 157.936 107.752 158.606 107.077C159.336 106.347 160.106 105.642 161.006 105.092C161.666 104.692 162.266 104.192 162.981 103.887C164.311 103.317 165.646 102.747 166.981 102.182C167.241 102.072 167.506 101.987 167.856 101.857C167.816 101.997 167.811 102.057 167.781 102.107C167.086 103.467 166.371 104.817 165.691 106.187C164.961 107.652 164.251 109.132 163.541 110.612C162.836 112.077 162.161 113.552 161.446 115.007C161.036 115.842 160.571 116.647 160.136 117.467C160.041 117.642 159.916 117.712 159.711 117.682C158.151 117.447 156.786 116.837 155.701 115.652L155.706 115.657ZM163.481 142.142C163.086 143.287 162.711 144.447 162.291 145.582C161.826 146.837 161.326 148.082 160.831 149.327C160.631 149.827 160.416 150.317 160.201 150.807C160.086 151.067 159.971 151.327 159.836 151.577C159.581 152.037 159.521 152.007 159.016 151.887C158.596 151.787 158.141 151.792 157.706 151.802C156.806 151.822 155.911 151.817 155.021 151.667C154.791 151.627 154.551 151.642 154.316 151.612C154.071 151.577 153.826 151.517 153.581 151.477C153.381 151.447 153.181 151.427 152.976 151.412C152.431 151.372 152.276 151.252 152.221 150.702C152.181 150.277 152.166 149.852 152.181 149.427C152.246 147.712 152.561 146.047 153.141 144.432C153.816 142.547 154.451 140.647 155.141 138.767C155.711 137.212 156.301 135.667 156.946 134.142C157.856 131.992 158.806 129.862 159.771 127.737C160.271 126.632 160.836 125.557 161.391 124.477C161.596 124.082 161.661 124.097 162.071 124.162C162.926 124.297 163.781 124.422 164.641 124.522C165.861 124.662 167.086 124.777 168.311 124.907C168.371 124.912 168.421 124.952 168.521 124.992C168.451 125.272 168.361 125.537 168.316 125.812C168.181 126.622 168.031 127.427 167.946 128.242C167.816 129.527 167.396 130.732 166.996 131.947C166.566 133.247 166.121 134.547 165.676 135.842C164.951 137.942 164.221 140.042 163.496 142.142H163.481ZM177.311 126.317C178.271 126.552 179.201 126.922 180.146 127.232C180.566 127.372 180.986 127.507 181.406 127.642C183.261 128.247 185.021 129.077 186.661 130.107C188.691 131.382 190.676 132.737 192.391 134.432C193.486 135.512 194.396 136.742 194.996 138.177C195.056 138.322 195.106 138.472 195.156 138.622C195.266 138.937 195.206 139.177 195.016 139.487C194.126 140.927 192.851 141.977 191.571 143.032C190.606 143.827 189.516 144.437 188.461 145.097C186.931 146.057 185.301 146.812 183.656 147.532C182.921 147.852 182.146 148.087 181.411 148.412C179.541 149.237 177.546 149.672 175.591 150.232C174.396 150.572 173.156 150.747 171.926 150.962C170.526 151.207 169.126 151.432 167.721 151.642C167.146 151.727 166.561 151.752 165.901 151.812C165.736 151.837 165.556 151.742 165.396 151.557C164.971 151.062 164.786 150.547 164.941 149.862C165.541 147.247 166.326 144.682 167.116 142.122C167.561 140.677 167.966 139.217 168.451 137.782C168.981 136.212 169.571 134.667 170.151 133.117C170.781 131.432 171.431 129.757 172.071 128.077C172.346 127.357 172.601 126.627 172.881 125.907C173.016 125.557 173.096 125.507 173.451 125.572C174.736 125.807 176.031 126.012 177.301 126.317H177.311ZM182.686 99.5218C182.196 100.257 181.941 101.087 181.686 101.917C181.286 103.222 180.681 104.432 180.041 105.632C179.151 107.302 178.286 108.982 177.401 110.657C177.156 111.117 176.871 111.552 176.606 112.002C175.986 113.067 175.386 114.137 174.751 115.192C174.501 115.607 174.191 115.992 173.906 116.387C173.701 116.667 173.461 116.922 173.271 117.212C172.571 118.282 171.581 119.032 170.501 119.672C170.386 119.742 170.196 119.742 170.061 119.712C169.736 119.637 169.421 119.557 169.086 119.617C168.951 119.642 168.801 119.607 168.661 119.587C167.526 119.412 166.391 119.242 165.256 119.047C164.776 118.967 164.306 118.832 163.766 118.707C163.816 118.542 163.846 118.422 163.891 118.307C164.636 116.517 165.386 114.727 166.126 112.937C166.746 111.437 167.311 109.912 167.986 108.437C168.716 106.847 169.366 105.217 170.256 103.707C170.791 102.797 171.281 101.862 171.776 100.932C171.881 100.737 172.011 100.602 172.221 100.542C172.631 100.432 173.036 100.292 173.456 100.212C174.711 99.9768 175.976 99.8368 177.251 99.7118C178.391 99.6018 179.531 99.4468 180.676 99.3818C181.336 99.3418 181.996 99.3768 182.681 99.3768C182.681 99.4218 182.706 99.4918 182.681 99.5318L182.686 99.5218Z" fill="#01615F"/>
<path d="M78.1006 58.1165C76.247 55.654 88.6422 53.0922 90.0145 53.0453C90.9826 53.0122 92.9902 53.0729 93.2185 54.1649C93.8016 56.9666 80.3778 59.3022 78.1006 58.1165Z" fill="#01615F"/>
<path d="M69.4568 44.417C71.7505 44.1192 72.4325 44.6293 73.6646 46.328C74.5062 47.4889 77.7459 54.6448 75.5678 55.2294L73.1256 54.0822L69.4568 44.417Z" fill="#01615F"/>
<path d="M80.0314 65.5674C84.0082 69.3011 83.7332 77.6537 80.1056 71.6175C79.0853 69.9188 75.2763 61.1029 80.0314 65.5674Z" fill="#01615F"/>
<path d="M62.9745 63.8881C60.9476 62.2529 68.0762 61.387 68.7225 61.3429C69.9986 61.2547 70.5734 60.4936 71.5992 62.0902C69.41 64.6327 65.9228 63.8164 62.9745 63.8909V63.8881Z" fill="#01615F"/>
<path d="M235.683 240.031C235.095 239.945 234.667 239.841 234.308 239.704C234.612 239.588 234.936 239.465 235.28 239.335C235.696 239.176 236.14 239.008 236.607 238.83C238.445 238.129 240.602 237.294 242.7 236.42C244.792 235.549 246.859 234.625 248.509 233.741C249.332 233.3 250.083 232.853 250.692 232.41C251.261 231.996 251.868 231.474 252.215 230.845C252.594 230.159 252.757 229.322 252.833 228.522C252.912 227.693 252.91 226.75 252.864 225.759C252.784 224.01 252.559 221.966 252.335 219.918C252.306 219.653 252.276 219.389 252.248 219.124C251.993 216.783 251.759 214.468 251.724 212.452C251.706 211.47 251.739 210.618 251.82 209.903L267.872 221.625L268.687 222.221L269.546 221.689C270.84 220.888 271.987 219.929 273.045 218.976C273.493 218.572 273.908 218.186 274.313 217.81C274.907 217.257 275.479 216.725 276.099 216.19C277.841 214.686 279.561 213.529 281.694 213.091C281.692 213.098 281.689 213.105 281.687 213.112L281.687 213.113C281.485 213.684 280.901 214.86 280.06 216.435C279.389 217.691 278.597 219.123 277.799 220.569C277.621 220.89 277.443 221.212 277.266 221.533C276.298 223.287 275.354 225.013 274.664 226.371C274.32 227.048 274.025 227.661 273.82 228.154C273.719 228.397 273.625 228.644 273.56 228.872C273.527 228.986 273.493 229.122 273.473 229.267C273.454 229.394 273.43 229.628 273.483 229.898L273.519 230.087L273.602 230.261C273.868 230.817 274.355 231.351 274.816 231.799C275.312 232.282 275.931 232.807 276.608 233.345C277.965 234.423 279.649 235.626 281.277 236.76C282.019 237.276 282.741 237.773 283.421 238.241C284.257 238.817 285.03 239.348 285.697 239.819C286.238 240.2 286.68 240.521 287.002 240.771L268.134 240.121L267.651 240.104L267.248 240.373C266.678 240.755 266.164 241.315 265.713 241.892C265.249 242.487 264.782 243.19 264.322 243.937C263.642 245.042 262.928 246.322 262.225 247.584C261.984 248.016 261.745 248.447 261.508 248.867C260.557 250.555 259.648 252.093 258.802 253.204C258.545 253.542 258.31 253.818 258.099 254.037C256.617 250.608 255.819 246.86 256.062 243.205L256.157 241.766L254.723 241.614C252.043 241.331 249.311 241.165 246.612 241.001C246.105 240.97 245.599 240.939 245.094 240.907C241.888 240.707 238.738 240.479 235.683 240.031ZM282.267 213.182C282.267 213.182 282.266 213.181 282.264 213.178C282.266 213.181 282.267 213.182 282.267 213.182Z" stroke="#01615F" stroke-width="3"/>
</svg>
