<svg width="23" height="19" viewBox="0 0 23 19" fill="none" xmlns="http://www.w3.org/2000/svg">
<path opacity="0.4" d="M15.1014 9.52141C15.1014 11.5014 13.5014 13.1014 11.5214 13.1014C9.54141 13.1014 7.94141 11.5014 7.94141 9.52141C7.94141 7.54141 9.54141 5.94141 11.5214 5.94141C13.5014 5.94141 15.1014 7.54141 15.1014 9.52141Z" stroke="#292D32" stroke-width="1.5" stroke-linecap="round" stroke-linejoin="round"/>
<path d="M11.5233 17.7912C15.0533 17.7912 18.3433 15.7112 20.6333 12.1112C21.5333 10.7012 21.5333 8.33121 20.6333 6.92121C18.3433 3.32121 15.0533 1.24121 11.5233 1.24121C7.99328 1.24121 4.70328 3.32121 2.41328 6.92121C1.51328 8.33121 1.51328 10.7012 2.41328 12.1112C4.70328 15.7112 7.99328 17.7912 11.5233 17.7912Z" stroke="#292D32" stroke-width="1.5" stroke-linecap="round" stroke-linejoin="round"/>
</svg>
