<svg width="41" height="40" viewBox="0 0 41 40" fill="none" xmlns="http://www.w3.org/2000/svg">
<rect x="0.347656" width="40" height="40" rx="20" fill="#01615F"/>
<path d="M31.1762 20.3709C31.159 20.3081 31.1549 20.2447 31.175 20.1813C31.1785 20.1693 31.1815 20.1525 31.1762 20.143C31.1508 20.0963 31.162 20.0472 31.1602 19.9988C31.1525 19.7589 31.1437 19.5196 31.1342 19.2803C31.1318 19.2198 31.123 19.16 31.1188 19.1002C31.1129 19.0194 31.1106 18.9381 31.1017 18.8573C31.0775 18.6401 31.0491 18.423 31.0237 18.2058C31.006 18.0538 30.9906 17.9019 30.9723 17.7499C30.9546 17.598 30.938 17.446 30.9144 17.2952C30.8931 17.1576 30.8648 17.0206 30.837 16.8842C30.814 16.7736 30.7885 16.6629 30.7614 16.5534C30.7046 16.3272 30.6089 16.1155 30.5197 15.9019C30.3348 15.4598 30.1144 15.0356 29.865 14.6264C29.6937 14.3446 29.5063 14.0742 29.3096 13.8104C29.2109 13.6781 29.1081 13.5477 29.0006 13.4227C28.9042 13.3108 28.8073 13.1983 28.6963 13.099C28.5899 13.0039 28.4906 12.9016 28.3825 12.8089C28.116 12.5809 27.8318 12.3757 27.5352 12.1903C27.3497 12.0742 27.1629 11.9599 26.975 11.8481C26.8049 11.747 26.6323 11.6482 26.4592 11.5525C26.3038 11.467 26.1454 11.3862 25.9871 11.3054C25.8937 11.2582 25.8004 11.2097 25.7035 11.1708C25.5079 11.0925 25.3094 11.0195 25.1126 10.9447C24.8432 10.8424 24.5631 10.7754 24.2848 10.7054C23.9645 10.6246 23.6372 10.578 23.3104 10.5301C22.9914 10.4834 22.6705 10.4481 22.3479 10.4344C22.1098 10.4242 21.871 10.4152 21.6329 10.4062C21.6329 10.4098 21.6329 10.414 21.6329 10.4176C21.4297 10.4176 21.2264 10.4122 21.0231 10.4194C20.8146 10.4266 20.606 10.4421 20.3986 10.4613C20.1611 10.4828 19.9235 10.5086 19.6872 10.5403C19.3953 10.5791 19.1046 10.6288 18.8162 10.6898C18.4381 10.77 18.0611 10.8514 17.69 10.9602C17.6097 10.9842 17.5322 11.0177 17.4525 11.0434C17.3296 11.0829 17.2061 11.1188 17.0832 11.1571C16.9975 11.1834 16.9112 11.2085 16.8273 11.2396C16.6731 11.2965 16.5207 11.3581 16.3676 11.4167C16.2471 11.4628 16.1248 11.5035 16.006 11.5525C15.8388 11.6213 15.6722 11.6937 15.5073 11.7691C15.3578 11.8379 15.2113 11.9115 15.0642 11.9851C14.9974 12.0186 14.9353 12.064 14.8668 12.091C14.7687 12.1292 14.6801 12.1861 14.5891 12.2363C14.439 12.3201 14.2942 12.4134 14.1453 12.4996C13.8174 12.6892 13.5149 12.9172 13.2194 13.1529C13.0221 13.3102 12.8336 13.4801 12.6469 13.65C12.5128 13.7721 12.3857 13.9025 12.2599 14.0335C12.1021 14.1968 11.9467 14.362 11.8043 14.539C11.6962 14.6737 11.5904 14.8107 11.4852 14.9477C11.4338 15.0147 11.3848 15.0835 11.3369 15.1535C11.2394 15.2964 11.136 15.4358 11.0486 15.5848C10.902 15.8349 10.7608 16.0879 10.6332 16.3488C10.5209 16.5779 10.4317 16.816 10.3454 17.0553C10.2816 17.2324 10.2308 17.4149 10.1812 17.5968C10.1398 17.7475 10.1043 17.9001 10.0748 18.0538C10.0494 18.1872 10.0358 18.3225 10.0169 18.4571C10.0122 18.4906 10.0063 18.5241 10.0015 18.5576C9.99267 18.6228 9.98026 18.688 9.97672 18.7538C9.96549 18.9758 9.93831 19.1971 9.93713 19.4197C9.93713 19.4992 9.93004 19.5788 9.93594 19.6578C9.95426 19.8911 9.93595 20.125 9.95604 20.3589C9.9779 20.6174 9.96549 20.8788 10.0045 21.1373C10.0069 21.1522 10.0045 21.1672 10.0051 21.1827C10.0051 21.215 10.0051 21.2468 10.0074 21.2791C10.0204 21.4633 10.0334 21.6482 10.0482 21.8325C10.0588 21.9641 10.0713 22.0957 10.0848 22.2273C10.1162 22.5187 10.1812 22.804 10.2527 23.0876C10.3182 23.3479 10.3962 23.6033 10.4914 23.854C10.5676 24.0544 10.6355 24.2584 10.7035 24.4624C10.762 24.6395 10.8128 24.8196 10.8713 24.9967C10.9517 25.2402 11.0456 25.4783 11.1526 25.7116C11.243 25.9078 11.354 26.0897 11.4858 26.259C11.5479 26.3392 11.6117 26.4181 11.6767 26.4959C11.7588 26.594 11.8563 26.676 11.9514 26.7615C12.0879 26.8848 12.225 27.0062 12.381 27.1049C12.4791 27.1666 12.5701 27.2395 12.6682 27.3012C12.8153 27.3933 12.963 27.4854 13.1196 27.5614C13.1917 27.5961 13.262 27.635 13.3329 27.6727C13.5013 27.7636 13.678 27.8348 13.8552 27.9042C13.9509 27.9419 14.0455 27.9832 14.1424 28.0149C14.2612 28.0544 14.3829 28.0837 14.5022 28.1214C14.9513 28.262 15.4098 28.3661 15.8689 28.4672C16.2276 28.5461 16.5916 28.5946 16.955 28.6461C17.1098 28.6676 17.2658 28.6814 17.4218 28.6969C17.5068 28.7053 17.5937 28.7029 17.6782 28.7167C17.7981 28.7364 17.9187 28.7382 18.0392 28.746C18.0688 28.7478 18.0989 28.7424 18.1284 28.7436C18.2271 28.746 18.3258 28.749 18.4239 28.7526C18.4404 28.7531 18.4564 28.7585 18.4723 28.7609C18.4995 28.7657 18.5273 28.7747 18.5539 28.7735C18.6017 28.7705 18.6484 28.7567 18.6963 28.7549C18.8582 28.7502 19.0201 28.7508 19.182 28.7466C19.348 28.7424 19.5135 28.7358 19.6789 28.7286C19.7344 28.7262 19.79 28.7161 19.8455 28.7119C19.9755 28.7017 20.1061 28.6939 20.2361 28.682C20.3661 28.67 20.4955 28.6544 20.6249 28.6389C20.6769 28.6329 20.7283 28.6239 20.7797 28.6167C20.8589 28.6054 20.9375 28.5922 21.0166 28.582C21.1183 28.5695 21.2211 28.5623 21.3221 28.5467C21.5467 28.5114 21.7712 28.4732 21.9951 28.4355C22.1535 28.4091 22.3118 28.3846 22.469 28.3535C22.7071 28.3068 22.9435 28.2542 23.1816 28.2069C23.3589 28.1716 23.5373 28.1423 23.7152 28.1082C23.7955 28.0927 23.8765 28.0759 23.9551 28.0526C24.1412 27.9975 24.3261 27.9389 24.5111 27.8803C24.6446 27.8378 24.7776 27.7941 24.9093 27.7469C25.0003 27.714 25.0884 27.6721 25.1788 27.6356C25.2255 27.617 25.2745 27.6039 25.3206 27.5841C25.4872 27.5135 25.6538 27.4424 25.8199 27.37C25.941 27.3167 26.0627 27.2635 26.1821 27.2048C26.4214 27.087 26.6589 26.9643 26.8982 26.8447C27.017 26.7855 27.1369 26.7292 27.2557 26.6694C27.3727 26.6108 27.4885 26.5509 27.6037 26.4893C27.7059 26.4349 27.8076 26.3792 27.9074 26.3206C28.0061 26.2632 28.106 26.2069 28.1982 26.1399C28.4026 25.9916 28.5905 25.8223 28.7731 25.6464C28.9503 25.4759 29.1087 25.2874 29.2812 25.1127C29.4614 24.9297 29.6369 24.7418 29.8142 24.5563C29.8272 24.5426 29.839 24.5282 29.8508 24.5139C29.9076 24.4415 29.9655 24.3697 30.0204 24.2961C30.0972 24.192 30.1723 24.0861 30.2467 23.9802C30.2804 23.9324 30.3135 23.8845 30.3436 23.8348C30.4482 23.6649 30.5333 23.4837 30.6154 23.3018C30.7537 22.9979 30.8512 22.6784 30.9315 22.3535C30.9894 22.119 31.0509 21.8857 31.0804 21.6452C31.1005 21.4825 31.1183 21.3191 31.1354 21.1564C31.1407 21.1038 31.1425 21.0511 31.1449 20.9979C31.1519 20.8567 31.1578 20.7155 31.1655 20.5743C31.1667 20.548 31.1708 20.5223 31.1762 20.4965C31.1856 20.4553 31.188 20.4152 31.1762 20.3733V20.3709ZM11.6731 23.8253C11.6696 24.0251 11.6678 24.2255 11.666 24.4253C11.666 24.4433 11.666 24.4612 11.666 24.4834C11.6389 24.4762 11.6371 24.4588 11.6329 24.4433C11.5697 24.2261 11.5059 24.0089 11.4445 23.7918C11.4114 23.6757 11.3824 23.5584 11.3529 23.4418C11.3481 23.4232 11.3493 23.4035 11.3481 23.3837C11.3523 23.382 11.357 23.3802 11.3611 23.3784C11.3806 23.3993 11.4025 23.419 11.4196 23.4424C11.4758 23.5202 11.5295 23.5991 11.5851 23.6769C11.6028 23.7014 11.6229 23.7236 11.6436 23.7451C11.666 23.7678 11.6743 23.793 11.6737 23.8259L11.6731 23.8253ZM12.5281 24.755C12.5234 24.7639 12.5133 24.7729 12.5039 24.7753C12.4808 24.7813 12.4566 24.7855 12.4324 24.7879C12.3526 24.7944 12.2918 24.8429 12.2729 24.9225C12.2616 24.9697 12.2551 25.0194 12.2528 25.0679C12.2398 25.3335 12.228 25.5991 12.2167 25.8653C12.2155 25.8863 12.2191 25.9072 12.2167 25.9276C12.215 25.9473 12.2085 25.9664 12.2043 25.9856C12.1996 25.9856 12.1949 25.9856 12.1907 25.9862C12.1842 25.9778 12.1742 25.9706 12.1712 25.9611C12.1186 25.8079 12.0507 25.6601 12.0276 25.498C12.0087 25.364 11.9951 25.2288 11.9969 25.093C11.9987 24.9871 11.9916 24.8812 11.9981 24.7759C12.0034 24.6915 12.0022 24.6078 12.0164 24.5228C12.0318 24.4289 12.0235 24.3308 12.0259 24.2345C12.0259 24.2159 12.0259 24.198 12.0259 24.1705C12.0442 24.1812 12.056 24.1854 12.0643 24.1932C12.0891 24.2159 12.1157 24.2381 12.1364 24.2644C12.1913 24.3344 12.2587 24.3906 12.3284 24.4445C12.3981 24.4983 12.4643 24.5557 12.5317 24.6132C12.5482 24.6275 12.5612 24.6455 12.5748 24.6604C12.5577 24.6957 12.5441 24.7262 12.5281 24.7556V24.755ZM13.1852 25.7995C13.1852 26.1148 13.1852 26.4295 13.1852 26.7448C13.1852 26.7633 13.1852 26.7813 13.1852 26.8148C13.0067 26.7191 12.8614 26.6042 12.732 26.4654C12.7397 26.4696 12.7479 26.4738 12.755 26.4786C12.7645 26.4845 12.7733 26.4917 12.7822 26.4983C12.8117 26.521 12.8413 26.5444 12.872 26.5659C12.8874 26.5761 12.9045 26.585 12.9222 26.5898C12.9636 26.6018 12.9766 26.591 12.9772 26.5468C12.9772 26.4433 12.9772 26.3392 12.976 26.2357C12.9748 26.0227 12.9742 25.8091 12.9719 25.5961C12.9707 25.483 12.9671 25.37 12.9642 25.2569C12.9642 25.2437 12.9642 25.2294 12.9589 25.218C12.9417 25.1797 12.9429 25.1432 12.9577 25.1032C12.9689 25.072 12.976 25.0379 12.9459 25.0086C12.9376 25.0003 12.9382 24.9829 12.9335 24.962C12.9736 24.9685 13.0014 24.9799 13.0274 24.9979C13.0611 25.0212 13.0942 25.0469 13.1296 25.0667C13.1751 25.0918 13.1881 25.1277 13.1875 25.1785C13.1852 25.3861 13.1864 25.5937 13.1858 25.8013L13.1852 25.7995ZM14.2753 25.7289C14.2641 25.7505 14.2499 25.772 14.2446 25.7947C14.208 25.9545 14.1702 26.1142 14.1377 26.2745C14.0892 26.515 14.0662 26.7591 14.0396 27.0026C14.0313 27.0786 14.0083 27.1486 13.9704 27.227C13.893 27.1893 13.8215 27.154 13.75 27.1187C13.7418 27.1145 13.7347 27.1067 13.7264 27.1037C13.6656 27.084 13.6555 27.0385 13.6549 26.9799C13.6484 26.4911 13.639 26.0029 13.6301 25.5142C13.6295 25.4771 13.6248 25.44 13.6224 25.4035C13.6301 25.4017 13.6354 25.3987 13.6372 25.3999C13.7205 25.4609 13.8221 25.4777 13.9143 25.5166C14.0331 25.5662 14.1513 25.6165 14.2694 25.6673C14.2789 25.6715 14.2866 25.6805 14.2978 25.69C14.2895 25.7038 14.2812 25.7158 14.2747 25.7283L14.2753 25.7289ZM15.1055 26.2985C15.0695 26.3733 15.047 26.4522 15.0317 26.5348C14.9667 26.8937 14.9732 27.2557 14.9767 27.6176C14.9767 27.6248 14.9749 27.632 14.9743 27.638C14.9531 27.6535 14.9371 27.6392 14.9206 27.6326C14.8201 27.5931 14.7197 27.553 14.6186 27.5135C14.6033 27.5076 14.5861 27.504 14.572 27.4956C14.5418 27.4783 14.5188 27.4549 14.5158 27.4166C14.5105 27.343 14.5016 27.2701 14.4999 27.1965C14.4969 27.0834 14.4999 26.9703 14.4981 26.8567C14.4957 26.7107 14.5188 26.5677 14.5395 26.4241C14.5607 26.2728 14.592 26.1238 14.6387 25.9778C14.6446 25.9599 14.6511 25.9419 14.6576 25.9246C14.6594 25.9198 14.6641 25.9156 14.6712 25.906C14.6901 25.9108 14.712 25.9138 14.7321 25.9216C14.8509 25.9658 14.969 26.0113 15.0878 26.0562C15.1085 26.064 15.1297 26.0705 15.151 26.0789C15.1676 26.0855 15.1841 26.0933 15.2018 26.1017C15.1676 26.1705 15.1362 26.2345 15.1049 26.2979L15.1055 26.2985ZM16.1833 26.6102C16.1455 26.6814 16.1071 26.7538 16.0935 26.8345C16.0858 26.8806 16.0822 26.9273 16.0811 26.9739C16.0757 27.1247 16.0751 27.2754 16.0361 27.4232C16.0261 27.4609 16.0255 27.5016 16.0178 27.5405C15.9989 27.6308 15.9777 27.7205 15.9333 27.8031C15.9168 27.8348 15.8937 27.8528 15.8565 27.8456C15.7673 27.8288 15.6745 27.839 15.5889 27.7995C15.5481 27.7804 15.5298 27.7558 15.5292 27.7092C15.5262 27.4017 15.5197 27.0942 15.5185 26.7867C15.5185 26.6891 15.5298 26.591 15.5351 26.4935C15.5369 26.4594 15.5369 26.4253 15.5363 26.3918C15.5351 26.3607 15.5487 26.3439 15.5776 26.3338C15.6054 26.3236 15.6302 26.3063 15.6574 26.2955C15.6775 26.2877 15.7005 26.2817 15.7212 26.2841C15.8678 26.3015 16.0113 26.3308 16.1508 26.381C16.1768 26.3906 16.2046 26.396 16.2311 26.4038C16.2483 26.4092 16.2648 26.4157 16.2873 26.4241C16.2489 26.4929 16.2152 26.5509 16.1833 26.6108V26.6102ZM17.4259 26.7011C17.3579 26.8022 17.2894 26.9033 17.2209 27.0044C17.1907 27.0487 17.1718 27.0972 17.1712 27.1522C17.1712 27.1995 17.1695 27.2467 17.1689 27.2934C17.1689 27.3442 17.1659 27.3939 17.1553 27.4447C17.1429 27.5052 17.1482 27.5686 17.1405 27.6302C17.124 27.7684 17.105 27.9072 17.085 28.0448C17.0761 28.1052 17.069 28.1076 17.0117 28.0986C16.9254 28.0849 16.838 28.0747 16.7523 28.0574C16.6926 28.0448 16.6347 28.0227 16.5762 28.0047C16.5372 27.9922 16.523 27.9634 16.5201 27.9234C16.5118 27.8127 16.5071 27.7008 16.4882 27.5913C16.4634 27.4436 16.4569 27.2952 16.4521 27.1462C16.4474 27.0146 16.4781 26.8878 16.5012 26.7603C16.513 26.6963 16.5337 26.6377 16.5721 26.5844C16.5904 26.5593 16.601 26.5282 16.6158 26.4989C16.6288 26.4989 16.6424 26.4971 16.6548 26.4989C16.8764 26.539 17.098 26.5797 17.3195 26.6203C17.3467 26.6251 17.3745 26.6317 17.4011 26.6395C17.4158 26.6437 17.4294 26.6532 17.446 26.6622C17.4371 26.6796 17.4324 26.6915 17.4253 26.7017L17.4259 26.7011ZM18.6289 26.8357C18.6271 26.877 18.6076 26.9081 18.5775 26.932C18.5249 26.9739 18.4717 27.0158 18.4174 27.0553C18.3754 27.0858 18.3802 27.0834 18.3837 27.1366C18.3908 27.2419 18.3926 27.3478 18.3932 27.4531C18.3932 27.5249 18.3872 27.5961 18.3861 27.6679C18.3825 27.8205 18.3802 27.9736 18.3784 28.1262C18.3772 28.1986 18.3737 28.2027 18.3004 28.1944C18.2703 28.2021 18.2401 28.2105 18.21 28.2177C18.1905 28.2225 18.1704 28.2285 18.1503 28.2285C18.0516 28.2297 17.953 28.2303 17.8537 28.2297C17.8354 28.2297 17.817 28.2255 17.7987 28.2225C17.7733 28.2183 17.7485 28.2111 17.7231 28.2087C17.6841 28.2051 17.6528 28.1902 17.6416 28.1513C17.6179 28.0705 17.5866 27.9922 17.5878 27.9048C17.5919 27.6649 17.5925 27.4256 17.5931 27.1857C17.5931 27.1313 17.5878 27.0762 17.5837 27.0218C17.5783 26.9512 17.6008 26.8878 17.6351 26.8279C17.6557 26.792 17.68 26.7585 17.7012 26.7232C17.7148 26.7017 17.7331 26.6933 17.758 26.6963C17.856 26.7077 17.9541 26.7191 18.0522 26.7304C18.0688 26.7322 18.0853 26.7334 18.1019 26.7346C18.2242 26.7424 18.3471 26.7484 18.4694 26.7585C18.5119 26.7621 18.5527 26.7771 18.5946 26.7861C18.6224 26.792 18.6295 26.8094 18.6283 26.8357H18.6289ZM21.4604 26.8812C21.4285 26.9799 21.3966 27.0768 21.3381 27.1654C21.2873 27.2431 21.2743 27.3377 21.2589 27.4286C21.2459 27.5064 21.2317 27.5841 21.2181 27.6625C21.2152 27.6793 21.211 27.6966 21.2134 27.7128C21.2211 27.7798 21.2087 27.8444 21.1904 27.9084C21.1815 27.9377 21.1975 27.979 21.1626 27.9957C21.1348 28.0089 21.1017 28.0119 21.0704 28.0167C20.8878 28.0442 20.7058 28.0741 20.5227 28.0975C20.4252 28.11 20.3259 28.1136 20.2272 28.1178C20.1652 28.1202 20.1563 28.11 20.1546 28.046C20.1534 27.9987 20.1575 27.9521 20.1569 27.9048C20.1569 27.8617 20.1534 27.8181 20.1522 27.775C20.1504 27.6823 20.151 27.5901 20.1475 27.4974C20.1457 27.4561 20.1392 27.4148 20.1309 27.3748C20.1238 27.3401 20.1014 27.3209 20.063 27.3215C19.9808 27.3227 19.8987 27.3197 19.8172 27.3215C19.7486 27.3233 19.7244 27.3466 19.7155 27.4154C19.712 27.443 19.7138 27.4717 19.7149 27.5004C19.7161 27.5441 19.7167 27.5871 19.7203 27.6302C19.7315 27.7648 19.6913 27.8958 19.6878 28.0292C19.6866 28.0634 19.6824 28.0969 19.6789 28.131C19.673 28.1884 19.6689 28.1932 19.6104 28.1986C19.553 28.2039 19.4951 28.2051 19.4372 28.2093C19.4095 28.2117 19.3823 28.2171 19.3551 28.2219C19.3386 28.2249 19.3226 28.2309 19.3061 28.2315C19.1926 28.2362 19.0786 28.241 18.9651 28.244C18.9161 28.2452 18.909 28.2398 18.8924 28.1914C18.8842 28.1663 18.8789 28.1405 18.8729 28.1148C18.8617 28.0634 18.8499 28.0119 18.8399 27.9604C18.8345 27.9329 18.8292 27.9048 18.8286 27.8767C18.8257 27.6482 18.8144 27.4196 18.8387 27.1917C18.8475 27.1073 18.8647 27.0242 18.8783 26.9404C18.8842 26.9039 18.8907 26.8674 18.8966 26.8327C18.9758 26.8327 19.0496 26.8327 19.1241 26.8327C19.1501 26.8327 19.1761 26.8351 19.2021 26.8369C19.3226 26.8447 19.4431 26.8537 19.5637 26.8596C19.6269 26.8626 19.6901 26.8608 19.7539 26.8596C19.8615 26.8573 19.9696 26.8543 20.0771 26.8501C20.115 26.8483 20.1516 26.8489 20.1817 26.8836C20.2148 26.8381 20.258 26.8417 20.3035 26.8429C20.359 26.8447 20.4145 26.8393 20.4701 26.8363C20.5292 26.8333 20.5883 26.8285 20.6479 26.8261C20.7112 26.8238 20.775 26.8261 20.8382 26.8214C20.8973 26.8172 20.9558 26.8058 21.0149 26.7992C21.165 26.7825 21.315 26.7669 21.4651 26.7514C21.4722 26.7508 21.4793 26.7526 21.4923 26.7538C21.4805 26.7986 21.4716 26.8405 21.4586 26.8812H21.4604ZM23.1704 26.521C23.1485 26.7029 23.1485 26.8854 23.1408 27.0678C23.1367 27.1564 23.1408 27.2467 23.1225 27.3323C23.1042 27.416 23.1007 27.4998 23.0912 27.5841C23.0894 27.5991 23.0888 27.6141 23.0894 27.629C23.0912 27.6811 23.0894 27.687 23.0392 27.699C22.9139 27.7289 22.7893 27.76 22.6628 27.7852C22.4087 27.8354 22.1541 27.8821 21.8988 27.9293C21.8061 27.9467 21.8031 27.9461 21.7866 27.854C21.7659 27.7355 21.747 27.6159 21.7334 27.4962C21.7074 27.2695 21.6749 27.0439 21.6365 26.819C21.6312 26.7879 21.6306 26.7561 21.6282 26.7274C21.6388 26.7209 21.6436 26.7161 21.6483 26.7155C22.1594 26.6389 22.6616 26.5216 23.1538 26.3613C23.1586 26.3601 23.1645 26.3631 23.1722 26.3649C23.1722 26.4175 23.1775 26.4702 23.171 26.521H23.1704ZM24.7474 27.1887C24.5749 27.2766 24.3929 27.3371 24.2062 27.3831C24.1666 27.3927 24.1282 27.4077 24.0898 27.4226C23.971 27.4675 23.8505 27.5076 23.7246 27.5285C23.6756 27.5363 23.675 27.5375 23.6626 27.4908C23.5887 27.2102 23.516 26.929 23.4422 26.6485C23.4132 26.5372 23.3837 26.4265 23.3524 26.3063C23.6732 26.1962 23.9899 26.0855 24.3078 25.979C24.452 25.9311 24.5891 25.8612 24.7463 25.8342C24.7492 25.8749 24.751 25.912 24.7551 25.9485C24.7852 26.2135 24.7764 26.4798 24.7805 26.7454C24.7829 26.8698 24.7852 26.9943 24.79 27.1187C24.7912 27.1546 24.7782 27.1731 24.7474 27.1887ZM25.0104 25.9646C25.0056 25.9491 24.9991 25.9365 24.998 25.9234C24.995 25.8821 24.9938 25.8408 24.9932 25.7989C24.9921 25.7606 25.0033 25.7295 25.0476 25.7122C25.0523 25.9264 25.0511 25.9317 25.0104 25.9646ZM26.2494 26.5432C26.1419 26.5952 26.0355 26.6497 25.928 26.7023C25.8039 26.7627 25.6798 26.8238 25.554 26.8806C25.4795 26.9141 25.4021 26.9398 25.3253 26.9691C25.2999 26.9338 25.2934 26.8985 25.2881 26.8638C25.2656 26.7167 25.2438 26.5701 25.2308 26.4211C25.2107 26.1998 25.1764 25.9802 25.1451 25.76C25.1274 25.635 25.1268 25.6308 25.2414 25.583C25.3726 25.5279 25.4955 25.4573 25.6184 25.3861C25.7673 25.3006 25.9197 25.221 26.071 25.1396C26.0834 25.1331 26.0982 25.1301 26.1171 25.1235C26.1354 25.1905 26.1537 25.2497 26.1685 25.3096C26.2483 25.6332 26.2831 25.9629 26.2843 26.2961C26.2843 26.3565 26.2843 26.4169 26.2878 26.4774C26.2902 26.5109 26.2784 26.5294 26.2494 26.5438V26.5432ZM27.8348 25.1187C27.8288 25.2575 27.833 25.3975 27.8088 25.5363C27.7899 25.641 27.7384 25.7259 27.6788 25.8079C27.6628 25.8294 27.6374 25.8468 27.6132 25.8594C27.3839 25.982 27.1523 26.0993 26.9118 26.198C26.9035 26.2016 26.8941 26.2022 26.8823 26.2051C26.8527 26.1585 26.8255 26.1112 26.8131 26.058C26.7605 25.83 26.7251 25.5991 26.7097 25.3652C26.7062 25.3131 26.6926 25.2611 26.6855 25.209C26.6672 25.0726 26.6501 24.9362 26.6306 24.7998C26.6264 24.7681 26.6465 24.7556 26.666 24.7418C26.7316 24.6957 26.7995 24.6521 26.8645 24.6042C27.056 24.4636 27.2498 24.3254 27.4223 24.1603C27.4968 24.0891 27.5754 24.0221 27.651 23.9521C27.6924 23.9138 27.7308 23.8731 27.7709 23.8336C27.7851 23.8199 27.8011 23.8073 27.8259 23.7858C27.8306 23.8205 27.8365 23.8432 27.8371 23.8659C27.8395 24.0299 27.8424 24.1944 27.8424 24.3589C27.8424 24.612 27.846 24.865 27.8354 25.1175L27.8348 25.1187ZM28.9976 23.5584C28.9964 23.7337 28.9929 23.909 28.9905 24.0843C28.9905 24.0939 28.9923 24.1053 28.9876 24.1118C28.9574 24.1543 28.9698 24.2022 28.9687 24.2488C28.9681 24.2805 28.9651 24.3128 28.961 24.3446C28.9557 24.3852 28.9403 24.4247 28.958 24.4666C28.9627 24.478 28.9574 24.4983 28.9492 24.5091C28.9261 24.5396 28.9208 24.5743 28.919 24.6102C28.9167 24.6682 28.8924 24.7137 28.8505 24.7532C28.698 24.8979 28.5367 25.032 28.3654 25.1528C28.3583 25.1576 28.3494 25.1606 28.3358 25.1666C28.3346 25.1498 28.3329 25.1373 28.3329 25.1253C28.3329 24.9326 28.3317 24.7406 28.334 24.548C28.334 24.4935 28.3441 24.4397 28.3488 24.3858C28.353 24.3332 28.3565 24.2805 28.3595 24.2279C28.3683 24.0717 28.3772 23.9156 28.3855 23.7595C28.3872 23.7295 28.3896 23.699 28.3884 23.6691C28.3872 23.6368 28.3843 23.6057 28.4002 23.5752C28.4061 23.5644 28.4055 23.5495 28.4055 23.5363C28.4055 23.4663 28.4067 23.3969 28.4055 23.3269C28.4055 23.303 28.4008 23.2785 28.3925 23.2557C28.3807 23.224 28.3825 23.1995 28.4073 23.1738C28.5409 23.032 28.6732 22.8884 28.8068 22.7466C28.8351 22.7167 28.867 22.691 28.9025 22.6587C28.9279 22.7879 28.9627 22.9063 28.9651 23.0308C28.9663 23.075 28.9822 23.1187 28.987 23.1636C28.9905 23.1953 28.9852 23.2276 28.9858 23.2593C28.9864 23.2928 28.9911 23.3269 28.9923 23.3604C28.9946 23.4262 28.9982 23.492 28.9976 23.5578V23.5584ZM30.0511 23.163C30.0021 23.303 29.9253 23.428 29.8508 23.5543C29.7711 23.6907 29.6872 23.8241 29.5885 23.9479C29.5713 23.9694 29.5572 23.994 29.5365 24.0239C29.5329 24.0071 29.5294 23.9982 29.5282 23.9886C29.5235 23.927 29.5199 23.8648 29.5152 23.8031C29.5099 23.7337 29.501 23.6649 29.4975 23.5955C29.4916 23.4938 29.4904 23.3921 29.4845 23.291C29.4809 23.2312 29.4715 23.1714 29.465 23.1121C29.4597 23.0637 29.4549 23.0146 29.4514 22.9662C29.4443 22.8686 29.4402 22.7705 29.4325 22.673C29.4195 22.4989 29.4053 22.3254 29.3917 22.1513C29.3911 22.1436 29.3917 22.1352 29.3894 22.1292C29.3657 22.0771 29.3864 22.0359 29.4159 21.9946C29.4945 21.8821 29.5719 21.7696 29.6493 21.6566C29.6682 21.629 29.686 21.5997 29.7037 21.571C29.7409 21.5106 29.7787 21.4508 29.816 21.3903C29.8213 21.3915 29.8266 21.3927 29.8325 21.3939C29.8384 21.4436 29.8449 21.4932 29.8508 21.5429C29.878 21.7654 29.907 21.988 29.933 22.2112C29.9507 22.3631 29.9607 22.5157 29.9826 22.6664C30.0015 22.7986 30.031 22.9291 30.0588 23.0601C30.0665 23.0966 30.0641 23.1277 30.0517 23.1636L30.0511 23.163ZM30.2449 17.5064C30.2438 17.6877 30.2473 17.8696 30.2367 18.0502C30.2325 18.125 30.2237 18.1998 30.2213 18.2746C30.2148 18.4828 30.1888 18.6886 30.1622 18.8944C30.1339 19.1175 30.0777 19.3347 30.0163 19.5507C29.9253 19.8714 29.7935 20.1753 29.6529 20.4756C29.5117 20.7765 29.3498 21.0649 29.1707 21.3437C29.0401 21.5483 28.9019 21.7475 28.7506 21.9372C28.6319 22.0849 28.5208 22.2393 28.4008 22.3858C28.2998 22.5091 28.1917 22.6269 28.0847 22.7448C27.9978 22.8405 27.9104 22.9368 27.8188 23.0278C27.576 23.2701 27.3367 23.5166 27.079 23.7439C26.8959 23.9054 26.7097 24.0622 26.5136 24.2064C26.263 24.39 26.0054 24.5641 25.7401 24.7256C25.5191 24.8603 25.2869 24.9721 25.0529 25.081C24.7965 25.2001 24.5335 25.3006 24.2706 25.4023C23.948 25.5273 23.6153 25.62 23.2874 25.7277C22.9299 25.845 22.5647 25.9276 22.1996 26.0131C21.8321 26.0993 21.4604 26.1603 21.0864 26.2063C20.8364 26.2369 20.5847 26.247 20.333 26.2566C20.1262 26.2644 19.9194 26.2734 19.712 26.2734C19.5016 26.2734 19.2907 26.2614 19.0803 26.2548C18.948 26.2506 18.8156 26.2476 18.6833 26.2428C18.6431 26.241 18.6017 26.244 18.5639 26.2225C18.5515 26.2153 18.535 26.2147 18.5202 26.2141C18.4327 26.2099 18.3447 26.2105 18.2578 26.2022C18.0983 26.1866 17.9388 26.1705 17.7804 26.1459C17.524 26.107 17.2681 26.0652 17.0135 26.0167C16.8285 25.9814 16.6459 25.9341 16.4628 25.8911C16.3357 25.8611 16.2081 25.8318 16.0822 25.7977C15.8914 25.7457 15.7005 25.6936 15.5156 25.6224C15.3064 25.5423 15.0931 25.4729 14.8851 25.3897C14.6949 25.3131 14.507 25.2294 14.3226 25.1384C14.1601 25.0583 14.0053 24.9632 13.8464 24.8764C13.5397 24.7083 13.2649 24.4941 12.9908 24.2787C12.888 24.198 12.7934 24.1064 12.693 24.0215C12.5092 23.8665 12.339 23.6972 12.1807 23.516C12.0146 23.3263 11.8669 23.1223 11.7186 22.9183C11.539 22.6718 11.3712 22.4176 11.2187 22.1531C11.1514 22.0365 11.0964 21.9114 11.0427 21.787C10.9481 21.5674 10.8565 21.3455 10.7933 21.1139C10.7242 20.8627 10.6686 20.6084 10.6344 20.35C10.6166 20.2171 10.5912 20.0855 10.5765 19.9527C10.5629 19.8313 10.5593 19.7086 10.5499 19.5866C10.5404 19.4717 10.5286 19.3574 10.518 19.2426C10.5168 19.2312 10.5144 19.2198 10.5144 19.2091C10.5156 19.0164 10.5174 18.8244 10.5191 18.6318C10.5191 18.5994 10.5185 18.5677 10.5203 18.5354C10.5227 18.5055 10.528 18.4762 10.5327 18.4469C10.5351 18.4301 10.5422 18.4134 10.541 18.3972C10.5345 18.2866 10.5552 18.1783 10.5788 18.0724C10.6255 17.8624 10.6769 17.6536 10.7319 17.446C10.7579 17.3479 10.7957 17.2528 10.8288 17.1564C10.8335 17.1421 10.8406 17.1289 10.8453 17.1146C10.9162 16.9052 11.0167 16.7089 11.1088 16.5097C11.1975 16.3183 11.2985 16.1328 11.4114 15.9551C11.513 15.7948 11.6194 15.6375 11.7275 15.4819C11.8368 15.3246 11.9455 15.166 12.0661 15.0177C12.2037 14.8471 12.3384 14.6731 12.4927 14.5163C12.615 14.3925 12.7302 14.2603 12.8555 14.1394C12.9778 14.0209 13.1078 13.9103 13.236 13.7972C13.3122 13.7302 13.3896 13.6656 13.4682 13.6022C13.7199 13.4006 13.9781 13.2073 14.2511 13.0362C14.4538 12.9088 14.6612 12.7885 14.868 12.6689C15.0352 12.5726 15.2125 12.4978 15.3921 12.4284C15.4033 12.4242 15.4163 12.4236 15.4287 12.4218C15.4317 12.4266 15.4346 12.4314 15.4376 12.4362C15.4169 12.4535 15.3986 12.4738 15.3761 12.4882C15.2804 12.5498 15.1835 12.6102 15.0866 12.6707C15.0517 12.6928 15.0181 12.7143 14.995 12.7514C14.9826 12.7706 14.9596 12.7843 14.9389 12.7969C14.813 12.8717 14.6949 12.9566 14.5873 13.0571C14.5791 13.0649 14.5702 13.0721 14.5607 13.0781C14.3935 13.1894 14.2511 13.3318 14.1004 13.4634C13.9486 13.5968 13.8109 13.7463 13.665 13.8863C13.4806 14.0634 13.3146 14.2579 13.1521 14.4547C13.0162 14.6198 12.8933 14.7957 12.7633 14.9656C12.6286 15.1421 12.5092 15.3293 12.3946 15.519C12.2274 15.7948 12.0861 16.0838 11.955 16.3781C11.8888 16.5277 11.8344 16.6826 11.7783 16.837C11.7192 17.0003 11.6625 17.1642 11.6093 17.3293C11.5739 17.4388 11.5455 17.5501 11.5159 17.6614C11.4734 17.8217 11.4291 17.982 11.3913 18.1436C11.3605 18.2758 11.3363 18.4092 11.3121 18.5432C11.2867 18.682 11.2577 18.8208 11.243 18.9614C11.23 19.0864 11.2152 19.2133 11.2353 19.3395C11.2418 19.3802 11.2536 19.4203 11.2666 19.4597C11.2932 19.5405 11.357 19.5734 11.4344 19.5788C11.5118 19.5842 11.5768 19.5537 11.6188 19.4837C11.6495 19.4322 11.6601 19.3748 11.6684 19.3168C11.6991 19.1098 11.731 18.9028 11.7594 18.6952C11.7931 18.4439 11.8522 18.198 11.9219 17.9551C12.0412 17.5375 12.183 17.1283 12.3686 16.7359C12.4478 16.5689 12.5275 16.402 12.6197 16.2429C12.7391 16.0359 12.846 15.8223 12.9866 15.6279C13.0747 15.5064 13.1515 15.376 13.2389 15.254C13.3258 15.1337 13.4192 15.0183 13.5119 14.9022C13.6106 14.7789 13.7099 14.6569 13.8115 14.5367C13.8718 14.4649 13.9368 14.3973 14 14.3279C14.0709 14.2507 14.1412 14.1717 14.2145 14.0969C14.4148 13.8935 14.6222 13.6985 14.8438 13.519C14.9909 13.4 15.138 13.2803 15.3005 13.1834C15.5044 13.0619 15.7017 12.9291 15.9257 12.8442C16.0267 12.8059 16.1248 12.7592 16.2246 12.7173C16.2471 12.7078 16.2701 12.6994 16.2932 12.6934C16.3948 12.6665 16.4817 12.612 16.5579 12.5403C16.6241 12.478 16.6654 12.4003 16.6796 12.3099C16.6837 12.2836 16.6761 12.2537 16.6672 12.228C16.6453 12.1621 16.6176 12.0975 16.5957 12.0317C16.5803 11.9839 16.5857 11.9695 16.6306 11.9444C16.6991 11.9067 16.7682 11.8678 16.8397 11.8373C17.017 11.7619 17.1966 11.6937 17.3828 11.6435C17.3916 11.6411 17.4011 11.6381 17.4093 11.6345C17.5334 11.5741 17.6676 11.5489 17.7993 11.5142C17.9618 11.4712 18.1231 11.4257 18.2862 11.3856C18.5994 11.3084 18.9131 11.2313 19.2281 11.1607C19.4662 11.1074 19.7079 11.0691 19.9513 11.0476C20.1055 11.0338 20.258 11.0063 20.4122 10.9919C20.5735 10.977 20.736 10.9722 20.8979 10.9602C21.2406 10.9345 21.5833 10.9357 21.9266 10.9411C22.0324 10.9429 22.1387 10.9435 22.2445 10.959C22.3491 10.9746 22.456 10.9752 22.5618 10.9836C22.8519 11.0069 23.1414 11.0374 23.428 11.0889C23.6336 11.126 23.8393 11.1613 24.0419 11.2109C24.361 11.2887 24.6742 11.3874 24.9844 11.4969C25.3289 11.6183 25.6592 11.7709 25.9835 11.9384C26.1791 12.0395 26.3694 12.152 26.5579 12.2662C26.7304 12.3703 26.9024 12.478 27.0672 12.5941C27.303 12.7598 27.5328 12.9339 27.7644 13.1056C27.8123 13.1415 27.8572 13.1816 27.9027 13.2211C28.1296 13.4197 28.3512 13.6243 28.5533 13.8504C28.74 14.0592 28.9172 14.2764 29.0803 14.5037C29.2393 14.7251 29.3882 14.9536 29.5087 15.2001C29.5211 15.2252 29.5394 15.2474 29.553 15.2719C29.6033 15.3664 29.6553 15.4604 29.7019 15.5567C29.7953 15.7481 29.8934 15.9372 29.9643 16.1388C30.0145 16.2812 30.0576 16.426 30.1073 16.5677C30.1404 16.6611 30.1593 16.7556 30.1687 16.8543C30.1805 16.9817 30.1994 17.1092 30.2136 17.2366C30.2178 17.2719 30.2189 17.3084 30.2166 17.3443C30.2136 17.3886 30.2113 17.4304 30.2367 17.4699C30.2432 17.4801 30.2426 17.4957 30.2426 17.5082L30.2449 17.5064ZM30.5274 21.2103C30.525 21.4101 30.499 21.6087 30.4689 21.8061C30.4464 21.9533 30.4139 22.0987 30.3838 22.2447C30.3755 22.2859 30.3596 22.3254 30.3472 22.3661L30.3389 22.3643C30.3377 22.3541 30.3359 22.3434 30.3359 22.3332C30.3389 22.1555 30.304 21.9808 30.2816 21.8061C30.2621 21.6524 30.2503 21.4986 30.2491 21.3443C30.2491 21.2671 30.2568 21.1899 30.2603 21.1127C30.2621 21.0751 30.2603 21.0368 30.265 21.0003C30.2792 20.9034 30.2887 20.8052 30.3135 20.7113C30.3649 20.5145 30.4252 20.32 30.4825 20.125C30.4884 20.1041 30.4984 20.0849 30.5067 20.0646C30.5114 20.0646 30.5156 20.0658 30.5203 20.0664C30.5244 20.1047 30.5321 20.143 30.5321 20.1813C30.5321 20.5247 30.5321 20.8681 30.528 21.2109L30.5274 21.2103Z" fill="#F6F6F6"/>
<path d="M25.0367 14.8234C25.0178 14.8234 24.9994 14.821 24.9805 14.8228C24.8594 14.836 24.7483 14.7971 24.6396 14.751C24.4984 14.6918 24.3589 14.629 24.2177 14.5709C24.0334 14.4955 23.8401 14.4555 23.6446 14.4249C23.5784 14.4148 23.511 14.4106 23.4449 14.3998C23.3237 14.3801 23.2032 14.3549 23.0815 14.3358C22.958 14.3161 22.8345 14.3011 22.711 14.285C22.6803 14.2808 22.6489 14.2814 22.6094 14.279C22.6336 14.2269 22.6531 14.1809 22.6755 14.136C22.8162 13.85 22.9704 13.5724 23.1453 13.3062C23.1949 13.2308 23.2422 13.1542 23.2871 13.0753C23.3214 13.0148 23.3137 12.976 23.2599 12.9305C23.2274 12.903 23.1914 12.8784 23.1536 12.8581C23.0986 12.8282 23.0714 12.8354 23.0224 12.8772C22.9615 12.9293 22.9207 12.9969 22.8741 13.0603C22.7529 13.2236 22.6401 13.3917 22.5367 13.567C22.4203 13.7645 22.298 13.9595 22.1857 14.1593C22.1508 14.2209 22.1148 14.2401 22.0468 14.2377C21.9222 14.2335 21.7975 14.2419 21.6728 14.2455C21.6261 14.2467 21.5795 14.2455 21.5334 14.2497C21.4855 14.2532 21.4382 14.2664 21.3904 14.267C21.2527 14.27 21.115 14.2772 20.9791 14.2987C20.9774 14.2987 20.9744 14.2939 20.9709 14.2897C20.9886 14.2538 21.0093 14.2179 21.024 14.1803C21.05 14.1138 21.0743 14.0462 21.0961 13.978C21.1233 13.8931 21.1398 13.8063 21.1381 13.7166C21.1357 13.6107 21.0689 13.5287 20.9673 13.5066C20.9047 13.4929 20.8415 13.4946 20.7782 13.5066C20.715 13.5186 20.6689 13.5539 20.64 13.6107C20.6163 13.6574 20.5945 13.7058 20.575 13.7549C20.5017 13.9344 20.429 14.1144 20.3575 14.2945C20.3386 14.3424 20.3079 14.3729 20.2577 14.3831C20.247 14.3855 20.2364 14.3896 20.2252 14.3926C20.0166 14.4453 19.8157 14.5195 19.6178 14.6038C19.4523 14.6744 19.2916 14.7522 19.1391 14.8479C19.0328 14.9143 18.9229 14.9759 18.8224 15.0507C18.7131 15.1327 18.6138 15.2272 18.5104 15.317C18.3805 15.4294 18.2706 15.5604 18.1754 15.7028C18.0821 15.8416 18.0029 15.9876 17.9485 16.1491C17.9036 16.2831 17.8841 16.4213 17.8699 16.5589C17.8581 16.672 17.8617 16.7881 17.8912 16.9017C17.9237 17.0292 17.9615 17.153 18.0431 17.2577C18.0915 17.3199 18.1447 17.3786 18.1961 17.4378C18.2044 17.4474 18.2156 17.4557 18.2262 17.4629C18.2765 17.4952 18.3249 17.5311 18.3781 17.5586C18.4407 17.5915 18.5075 17.6161 18.5719 17.6454C18.6245 17.6693 18.6771 17.6932 18.7291 17.7184C18.7557 17.7315 18.7598 17.7519 18.748 17.7794C18.7297 17.8207 18.7155 17.8638 18.6978 17.9056C18.5093 18.3555 18.319 18.8048 18.1583 19.2667C18.0472 19.5856 17.9338 19.9032 17.8215 20.2215C17.7405 20.4506 17.6596 20.6798 17.5786 20.9089C17.5727 20.9257 17.5639 20.9418 17.5544 20.9628C17.3169 20.885 17.0847 20.8096 16.8536 20.7318C16.7526 20.6977 16.6539 20.6576 16.5541 20.6211C16.3998 20.5643 16.2444 20.5105 16.0914 20.4506C15.9472 20.3944 15.8048 20.3322 15.6612 20.2742C15.575 20.2395 15.4863 20.2083 15.4001 20.1736C15.2754 20.1234 15.1513 20.0707 15.0272 20.0193C14.9463 19.9858 14.8618 19.9732 14.7749 19.981C14.6904 19.9888 14.6278 20.0319 14.587 20.1066C14.5102 20.2472 14.548 20.4082 14.6857 20.4973C14.759 20.5446 14.8393 20.5829 14.9191 20.6187C15.2075 20.7486 15.5088 20.8425 15.8036 20.9556C16.0666 21.0567 16.3325 21.15 16.5972 21.2469C16.6917 21.2816 16.7851 21.3217 16.882 21.348C17.0593 21.3965 17.2271 21.4689 17.3943 21.5431C17.399 21.5449 17.402 21.5508 17.4079 21.5574C17.4043 21.5724 17.4008 21.5885 17.3961 21.6047C17.3441 21.7842 17.2944 21.9642 17.2395 22.1425C17.1414 22.4638 17.0398 22.7833 16.9411 23.1045C16.9151 23.1889 16.8926 23.275 16.8737 23.3618C16.8542 23.4545 16.9044 23.5179 16.9966 23.5233C17.0427 23.5257 17.087 23.5125 17.1219 23.4826C17.1579 23.4509 17.1934 23.4162 17.2212 23.3767C17.3151 23.2433 17.3712 23.0896 17.4291 22.9388C17.5089 22.7294 17.5775 22.5152 17.6549 22.3052C17.7311 22.0983 17.8114 21.893 17.8906 21.6872C17.9042 21.6519 17.9119 21.649 17.9509 21.6573C17.9674 21.6609 17.9834 21.6663 17.9999 21.6687C18.1104 21.6849 18.2215 21.6998 18.332 21.716C18.4059 21.7267 18.4791 21.7387 18.5524 21.7495C18.5672 21.7519 18.5819 21.7501 18.5967 21.7513C18.6576 21.7548 18.7184 21.759 18.7864 21.7632C18.7846 21.7895 18.7852 21.8045 18.7823 21.8189C18.7427 22.0247 18.7013 22.2299 18.6404 22.4309C18.6268 22.4758 18.6174 22.5224 18.6127 22.5691C18.6009 22.6732 18.6534 22.7444 18.7533 22.7683C18.7805 22.7749 18.8071 22.7839 18.8319 22.7958C18.8579 22.8078 18.8797 22.806 18.8963 22.7833C18.9241 22.7456 18.9542 22.7091 18.9749 22.6678C19.0363 22.5469 19.093 22.4237 19.1527 22.3023C19.236 22.1335 19.3205 21.966 19.4044 21.7973C19.4233 21.7596 19.4328 21.7525 19.4736 21.7548C19.4919 21.756 19.5108 21.759 19.5291 21.7572C19.6514 21.7471 19.7743 21.7411 19.8961 21.7237C20.1046 21.6938 20.3126 21.6615 20.5194 21.6214C20.6695 21.5927 20.8178 21.5538 20.9649 21.5126C21.1304 21.4659 21.2941 21.4144 21.4566 21.36C21.7591 21.2595 22.0652 21.1674 22.347 21.0118C22.3553 21.007 22.3641 21.004 22.3724 20.9998C22.516 20.937 22.6602 20.8748 22.8038 20.8114C23.0336 20.7103 23.2457 20.5763 23.4608 20.4482C23.4785 20.4381 23.4945 20.4243 23.5093 20.41C23.5743 20.3447 23.6398 20.2807 23.7019 20.2131C23.784 20.1246 23.8336 20.0169 23.8703 19.9032C23.9306 19.7142 23.914 19.5233 23.8768 19.3319C23.8555 19.223 23.8094 19.1237 23.7557 19.0286C23.7196 18.9646 23.6847 18.8987 23.6381 18.8431C23.563 18.754 23.4827 18.6696 23.3982 18.59C23.2835 18.483 23.1807 18.3609 23.0389 18.2855C23.0241 18.2778 23.0129 18.264 22.9993 18.2538C22.9645 18.2287 22.9308 18.2018 22.8942 18.1796C22.7978 18.1222 22.7015 18.0642 22.6029 18.0109C22.5089 17.9601 22.4144 17.911 22.3169 17.8679C22.0551 17.7525 21.7839 17.6615 21.5086 17.5856C21.3165 17.5323 21.1221 17.4862 20.9289 17.4366C20.9118 17.4324 20.8946 17.4258 20.8745 17.4198C20.8822 17.4019 20.887 17.3899 20.8929 17.3786C20.9366 17.293 20.9833 17.2093 21.024 17.1219C21.1576 16.8329 21.3248 16.5613 21.4495 16.2676C21.456 16.252 21.466 16.2377 21.4731 16.2227C21.5735 16.0181 21.6764 15.8153 21.7727 15.6089C21.8394 15.4653 21.9174 15.3319 22.0315 15.223C22.1467 15.1129 22.2637 15.0053 22.3813 14.897C22.3913 14.888 22.4079 14.8808 22.4209 14.8808C22.4805 14.8826 22.5396 14.8868 22.5987 14.8922C22.6229 14.894 22.646 14.9024 22.6702 14.9036C22.776 14.9089 22.8823 14.9113 22.9881 14.9173C23.0566 14.9215 23.1258 14.9269 23.1937 14.9365C23.3409 14.958 23.4886 14.9819 23.6351 15.0071C23.7232 15.0226 23.8118 15.037 23.8975 15.0615C24.1096 15.1225 24.314 15.2033 24.5037 15.3205C24.5994 15.3798 24.7022 15.4246 24.8098 15.4581C24.876 15.4791 24.9445 15.4803 25.0077 15.4534C25.1029 15.4127 25.1903 15.3588 25.2547 15.2739C25.2707 15.2529 25.2848 15.2302 25.2961 15.2069C25.3244 15.1441 25.3315 15.08 25.3026 15.0154C25.2506 14.8988 25.1673 14.8282 25.0361 14.8246L25.0367 14.8234ZM18.5719 16.812C18.4945 16.7259 18.4703 16.6254 18.4915 16.5141C18.5246 16.3436 18.5979 16.1904 18.6924 16.0456C18.7563 15.9487 18.8354 15.8662 18.9146 15.7854C19.0009 15.698 19.0919 15.6137 19.1982 15.5479C19.2762 15.5 19.3471 15.4402 19.4316 15.4037C19.5888 15.3355 19.7466 15.2673 19.9043 15.1997C19.935 15.1865 19.9664 15.1764 20.0077 15.1608C20.003 15.1776 20.0024 15.1847 19.9989 15.1907C19.9167 15.3534 19.8322 15.515 19.7519 15.6789C19.6656 15.8542 19.5817 16.0313 19.4978 16.2084C19.4145 16.3837 19.3347 16.5601 19.2502 16.7342C19.2018 16.8341 19.1468 16.9305 19.0954 17.0286C19.0842 17.0495 19.0694 17.0579 19.0452 17.0543C18.8608 17.0262 18.6995 16.9532 18.5713 16.8114L18.5719 16.812ZM19.4907 19.981C19.444 20.118 19.3997 20.2568 19.3501 20.3926C19.2951 20.5428 19.236 20.6917 19.1775 20.8407C19.1539 20.9005 19.1285 20.9592 19.1031 21.0178C19.0895 21.0489 19.0759 21.08 19.06 21.1099C19.0298 21.165 19.0227 21.1614 18.9631 21.147C18.9134 21.135 18.8597 21.1356 18.8082 21.1368C18.7019 21.1392 18.5961 21.1386 18.4909 21.1207C18.4638 21.1159 18.4354 21.1177 18.4076 21.1141C18.3787 21.1099 18.3497 21.1027 18.3208 21.098C18.2971 21.0944 18.2735 21.092 18.2493 21.0902C18.1849 21.0854 18.1666 21.071 18.1601 21.0052C18.1553 20.9544 18.1536 20.9035 18.1553 20.8527C18.163 20.6475 18.2002 20.4482 18.2688 20.255C18.3485 20.0295 18.4236 19.8021 18.5051 19.5772C18.5725 19.3911 18.6422 19.2063 18.7184 19.0238C18.826 18.7665 18.9382 18.5117 19.0523 18.2574C19.1114 18.1252 19.1781 17.9966 19.2437 17.8673C19.268 17.8201 19.2756 17.8219 19.3241 17.8297C19.4251 17.8458 19.5262 17.8608 19.6278 17.8727C19.772 17.8895 19.9167 17.9032 20.0615 17.9188C20.0686 17.9194 20.0745 17.9242 20.0863 17.929C20.078 17.9625 20.0674 17.9942 20.0621 18.0271C20.0461 18.124 20.0284 18.2203 20.0184 18.3178C20.003 18.4716 19.9534 18.6158 19.9061 18.7611C19.8553 18.9167 19.8027 19.0722 19.7501 19.2272C19.6644 19.4785 19.5782 19.7297 19.4925 19.981H19.4907ZM21.1251 18.0875C21.2385 18.1156 21.3484 18.1599 21.4601 18.197C21.5097 18.2137 21.5594 18.2299 21.609 18.246C21.8282 18.3184 22.0362 18.4177 22.23 18.541C22.4699 18.6935 22.7045 18.8557 22.9072 19.0585C23.0366 19.1877 23.1441 19.3349 23.215 19.5066C23.2221 19.5239 23.228 19.5419 23.2339 19.5598C23.2469 19.5975 23.2398 19.6262 23.2174 19.6633C23.1122 19.8356 22.9615 19.9613 22.8103 20.0875C22.6962 20.1826 22.5674 20.2556 22.4427 20.3346C22.2619 20.4494 22.0693 20.5398 21.8749 20.6259C21.788 20.6642 21.6965 20.6923 21.6096 20.7312C21.3886 20.8299 21.1528 20.882 20.9218 20.949C20.7806 20.9897 20.6341 21.0106 20.4887 21.0363C20.3233 21.0657 20.1578 21.0926 19.9918 21.1177C19.9238 21.1279 19.8547 21.1309 19.7767 21.138C19.7572 21.141 19.7359 21.1297 19.717 21.1075C19.6668 21.0483 19.6449 20.9867 19.6632 20.9047C19.7342 20.5918 19.8269 20.2849 19.9203 19.9786C19.9729 19.8057 20.0207 19.631 20.078 19.4593C20.1407 19.2715 20.2104 19.0866 20.2789 18.9011C20.3534 18.6995 20.4302 18.4991 20.5058 18.2981C20.5383 18.2119 20.5685 18.1246 20.6016 18.0384C20.6175 17.9966 20.627 17.9906 20.6689 17.9984C20.8208 18.0265 20.9738 18.051 21.1239 18.0875H21.1251ZM21.7603 14.8814C21.7024 14.9694 21.6722 15.0687 21.6421 15.168C21.5948 15.3241 21.5233 15.4689 21.4477 15.6125C21.3425 15.8123 21.2403 16.0133 21.1357 16.2137C21.1068 16.2688 21.0731 16.3208 21.0418 16.3747C20.9685 16.5021 20.8976 16.6301 20.8225 16.7564C20.793 16.806 20.7564 16.8521 20.7227 16.8994C20.6985 16.9329 20.6701 16.9634 20.6476 16.9981C20.5649 17.1261 20.4479 17.2158 20.3203 17.2924C20.3067 17.3008 20.2843 17.3008 20.2683 17.2972C20.2299 17.2882 20.1927 17.2787 20.1531 17.2858C20.1371 17.2888 20.1194 17.2846 20.1029 17.2822C19.9687 17.2613 19.8346 17.241 19.7005 17.2176C19.6437 17.2081 19.5882 17.1919 19.5244 17.1769C19.5303 17.1572 19.5338 17.1428 19.5392 17.1291C19.6272 16.9149 19.7158 16.7007 19.8033 16.4866C19.8766 16.3071 19.9433 16.1246 20.0231 15.9481C20.1094 15.7579 20.1862 15.5628 20.2913 15.3822C20.3546 15.2733 20.4125 15.1614 20.471 15.0501C20.4834 15.0268 20.4987 15.0106 20.5236 15.0035C20.572 14.9903 20.6199 14.9736 20.6695 14.964C20.8178 14.9359 20.9673 14.9191 21.118 14.9042C21.2527 14.891 21.3874 14.8724 21.5227 14.8647C21.6007 14.8599 21.6787 14.8641 21.7597 14.8641C21.7597 14.8695 21.7626 14.8778 21.7597 14.8826L21.7603 14.8814Z" fill="#F6F6F6"/>
</svg>
