<svg width="40" height="40" viewBox="0 0 40 40" fill="none" xmlns="http://www.w3.org/2000/svg">
<rect width="40" height="40" rx="20" fill="#01615F"/>
<path d="M32.8252 20.9314C32.8045 20.8564 32.7995 20.7808 32.8238 20.7051C32.8281 20.6909 32.8317 20.6709 32.8252 20.6594C32.7946 20.6038 32.8081 20.5452 32.806 20.4874C32.7967 20.2012 32.786 19.9157 32.7746 19.6302C32.7717 19.5581 32.761 19.4867 32.756 19.4154C32.7489 19.319 32.746 19.2219 32.7353 19.1256C32.706 18.8665 32.6718 18.6074 32.6411 18.3483C32.6197 18.167 32.6011 17.9857 32.579 17.8044C32.5576 17.6231 32.5376 17.4418 32.5091 17.2619C32.4834 17.0978 32.4491 16.9343 32.4155 16.7716C32.3877 16.6395 32.357 16.5075 32.3242 16.3769C32.2557 16.1071 32.14 15.8544 32.0323 15.5996C31.8088 15.0721 31.5426 14.5661 31.2414 14.0778C31.0344 13.7417 30.8082 13.419 30.5705 13.1043C30.4513 12.9465 30.3271 12.7909 30.1972 12.6418C30.0808 12.5083 29.9638 12.3741 29.8296 12.2556C29.7011 12.1421 29.5812 12.0201 29.4506 11.9094C29.1287 11.6375 28.7854 11.3927 28.427 11.1714C28.2029 11.0329 27.9774 10.8966 27.7504 10.7631C27.5448 10.6425 27.3364 10.5247 27.1273 10.4105C26.9396 10.3085 26.7483 10.2121 26.557 10.1158C26.4442 10.0594 26.3314 10.0016 26.2144 9.95516C25.9781 9.86165 25.7383 9.77457 25.5006 9.68535C25.1751 9.5633 24.8368 9.48336 24.5006 9.39985C24.1138 9.30349 23.7184 9.24782 23.3236 9.19072C22.9382 9.13504 22.5506 9.09293 22.1609 9.07652C21.8733 9.06438 21.5849 9.05368 21.2973 9.04297C21.2973 9.04725 21.2973 9.05225 21.2973 9.05653C21.0517 9.05653 20.8062 9.05011 20.5607 9.05867C20.3087 9.06724 20.0568 9.08579 19.8062 9.10863C19.5193 9.13433 19.2324 9.16502 18.9469 9.20285C18.5943 9.24925 18.2431 9.30849 17.8948 9.38129C17.438 9.47694 16.9826 9.57401 16.5343 9.70391C16.4373 9.73246 16.3438 9.77243 16.2474 9.80313C16.0989 9.85023 15.9498 9.89306 15.8013 9.93874C15.6978 9.97015 15.5936 10.0001 15.4922 10.0372C15.306 10.105 15.1218 10.1786 14.9369 10.2485C14.7913 10.3035 14.6436 10.352 14.5001 10.4105C14.2981 10.4926 14.0968 10.579 13.8977 10.6689C13.7171 10.751 13.5401 10.8388 13.3624 10.9266C13.2817 10.9666 13.2068 11.0208 13.124 11.0529C13.0055 11.0986 12.8984 11.1664 12.7885 11.2264C12.6072 11.3263 12.4323 11.4376 12.2525 11.5404C11.8563 11.7667 11.4909 12.0386 11.134 12.3199C10.8956 12.5076 10.6679 12.7103 10.4424 12.913C10.2804 13.0586 10.1269 13.2142 9.97486 13.3705C9.78429 13.5654 9.59657 13.7624 9.42455 13.9736C9.29393 14.1342 9.16617 14.2977 9.03912 14.4611C8.97702 14.5411 8.91778 14.6232 8.85997 14.7067C8.7422 14.8773 8.61729 15.0436 8.51165 15.2213C8.33464 15.5196 8.16405 15.8216 8.00987 16.1328C7.87426 16.4061 7.76648 16.6902 7.66227 16.9757C7.58519 17.187 7.5238 17.4047 7.46385 17.6217C7.41388 17.8015 7.37106 17.9836 7.33537 18.167C7.30468 18.3262 7.28826 18.4875 7.26542 18.6481C7.25971 18.688 7.25257 18.728 7.24686 18.768C7.23615 18.8458 7.22117 18.9236 7.21688 19.0021C7.20332 19.2669 7.17049 19.531 7.16906 19.7965C7.16906 19.8914 7.1605 19.9864 7.16763 20.0806C7.18976 20.359 7.16764 20.638 7.1919 20.9171C7.21831 21.2255 7.20333 21.5374 7.25043 21.8457C7.25329 21.8636 7.25043 21.8814 7.25114 21.9C7.25114 21.9385 7.25115 21.9763 7.254 22.0149C7.2697 22.2347 7.28541 22.4553 7.30325 22.6751C7.3161 22.8321 7.33109 22.9892 7.3475 23.1462C7.38533 23.4938 7.46385 23.8343 7.55021 24.1726C7.62944 24.4831 7.72366 24.7878 7.83857 25.0869C7.93065 25.326 8.01273 25.5694 8.09481 25.8128C8.16547 26.0241 8.22686 26.2389 8.29752 26.4502C8.39459 26.7407 8.50808 27.0248 8.63727 27.3031C8.74648 27.5373 8.88066 27.7542 9.03983 27.9562C9.11478 28.0519 9.19187 28.1461 9.27038 28.2389C9.36959 28.3559 9.48736 28.4537 9.60228 28.5558C9.76716 28.7028 9.93275 28.8477 10.1212 28.9655C10.2397 29.039 10.3496 29.1261 10.4681 29.1996C10.6458 29.3095 10.8242 29.4195 11.0134 29.5101C11.1005 29.5515 11.1854 29.5979 11.2711 29.6429C11.4745 29.7514 11.6879 29.8363 11.902 29.9191C12.0177 29.9641 12.1319 30.0133 12.2489 30.0511C12.3924 30.0982 12.5394 30.1332 12.6836 30.1782C13.2261 30.3459 13.7799 30.4701 14.3345 30.5907C14.7678 30.685 15.2075 30.7428 15.6464 30.8042C15.8334 30.8298 16.0219 30.8463 16.2103 30.8648C16.3131 30.8748 16.418 30.872 16.5201 30.8884C16.665 30.9119 16.8106 30.9141 16.9562 30.9233C16.9919 30.9255 17.0283 30.9191 17.064 30.9205C17.1831 30.9233 17.3023 30.9269 17.4208 30.9312C17.4408 30.9319 17.4601 30.9383 17.4794 30.9412C17.5122 30.9469 17.5457 30.9576 17.5779 30.9562C17.6357 30.9526 17.6921 30.9362 17.7499 30.9341C17.9454 30.9283 18.141 30.9291 18.3366 30.9241C18.5372 30.9191 18.737 30.9112 18.9369 30.9026C19.004 30.8998 19.0711 30.8877 19.1381 30.8827C19.2952 30.8705 19.4529 30.8612 19.6099 30.847C19.767 30.8327 19.9233 30.8141 20.0796 30.7956C20.1424 30.7884 20.2045 30.7777 20.2666 30.7692C20.3622 30.7556 20.4572 30.7399 20.5528 30.7278C20.6756 30.7128 20.7998 30.7042 20.9218 30.6857C21.1931 30.6436 21.4643 30.5979 21.7348 30.5529C21.9261 30.5215 22.1174 30.4922 22.3072 30.4551C22.5949 30.3994 22.8804 30.3366 23.168 30.2802C23.3822 30.2381 23.5977 30.2032 23.8126 30.1625C23.9096 30.1439 24.0074 30.1239 24.1024 30.0961C24.3272 30.0304 24.5506 29.9605 24.774 29.8905C24.9353 29.8399 25.0959 29.7878 25.2551 29.7314C25.365 29.6921 25.4714 29.6421 25.5806 29.5986C25.6369 29.5765 25.6962 29.5608 25.7519 29.5372C25.9531 29.453 26.1544 29.3681 26.355 29.2817C26.5013 29.2182 26.6483 29.1546 26.7925 29.0847C27.0816 28.9441 27.3685 28.7978 27.6576 28.655C27.8011 28.5843 27.946 28.5173 28.0894 28.4459C28.2308 28.3759 28.3707 28.3046 28.5098 28.231C28.6333 28.1661 28.7561 28.0997 28.8767 28.0298C28.9959 27.9612 29.1165 27.8941 29.2279 27.8142C29.4749 27.6372 29.7018 27.4352 29.9224 27.2253C30.1365 27.0219 30.3278 26.7971 30.5362 26.5887C30.7539 26.3703 30.9659 26.1461 31.18 25.9249C31.1957 25.9085 31.21 25.8913 31.2243 25.8742C31.2928 25.7878 31.3628 25.7022 31.4291 25.6144C31.5219 25.4902 31.6126 25.3639 31.7025 25.2375C31.7432 25.1804 31.7832 25.1233 31.8196 25.0641C31.9459 24.8614 32.0487 24.6451 32.1479 24.4281C32.3149 24.0655 32.4327 23.6844 32.5297 23.2968C32.5997 23.017 32.6739 22.7386 32.7096 22.4517C32.7339 22.2576 32.7553 22.0627 32.776 21.8686C32.7824 21.8058 32.7846 21.7429 32.7874 21.6794C32.796 21.511 32.8031 21.3425 32.8124 21.1741C32.8138 21.1427 32.8188 21.112 32.8252 21.0813C32.8367 21.032 32.8395 20.9842 32.8252 20.9342V20.9314ZM9.2661 25.0527C9.26182 25.2911 9.25967 25.5302 9.25753 25.7686C9.25753 25.79 9.25753 25.8114 9.25753 25.8378C9.2247 25.8292 9.22256 25.8085 9.21756 25.79C9.14119 25.5309 9.0641 25.2718 8.98987 25.0127C8.9499 24.8742 8.91492 24.7343 8.87924 24.5951C8.87353 24.573 8.87496 24.5495 8.87353 24.5259C8.87852 24.5238 8.88423 24.5216 8.88923 24.5195C8.91278 24.5445 8.93919 24.568 8.95989 24.5958C9.0277 24.6886 9.09265 24.7829 9.15975 24.8756C9.18116 24.9049 9.20543 24.9313 9.23041 24.957C9.25753 24.9841 9.26753 25.0141 9.26681 25.0534L9.2661 25.0527ZM10.2989 26.1618C10.2932 26.1725 10.2811 26.1833 10.2696 26.1861C10.2418 26.1932 10.2125 26.1982 10.1833 26.2011C10.0869 26.209 10.0134 26.2668 9.99056 26.3617C9.977 26.4181 9.96915 26.4773 9.9663 26.5351C9.9506 26.852 9.93632 27.169 9.92276 27.4866C9.92133 27.5116 9.92561 27.5365 9.92276 27.5608C9.92062 27.5844 9.91277 27.6072 9.90777 27.6301C9.90206 27.6301 9.89635 27.63 9.89135 27.6308C9.8835 27.6208 9.87137 27.6122 9.8678 27.6008C9.80427 27.4181 9.72219 27.2418 9.69436 27.0483C9.67151 26.8885 9.6551 26.7271 9.65724 26.5651C9.65938 26.4388 9.65082 26.3124 9.65867 26.1868C9.66509 26.0862 9.66366 25.9863 9.68079 25.8849C9.69935 25.7728 9.68936 25.6558 9.69221 25.5409C9.69221 25.5187 9.69221 25.4973 9.69221 25.4645C9.71434 25.4773 9.72862 25.4823 9.73861 25.4916C9.76859 25.5187 9.8007 25.5452 9.82568 25.5766C9.89206 25.6601 9.97343 25.7272 10.0577 25.7914C10.1419 25.8556 10.2218 25.9242 10.3032 25.9927C10.3232 26.0098 10.3389 26.0312 10.3553 26.0491C10.3346 26.0912 10.3182 26.1276 10.2989 26.1626V26.1618ZM11.0926 27.4081C11.0926 27.7842 11.0926 28.1597 11.0926 28.5358C11.0926 28.5579 11.0926 28.5794 11.0926 28.6193C10.8771 28.5051 10.7015 28.3681 10.5452 28.2025C10.5544 28.2075 10.5644 28.2125 10.573 28.2182C10.5844 28.2253 10.5951 28.2339 10.6058 28.2417C10.6415 28.2689 10.6772 28.2967 10.7143 28.3224C10.7329 28.3345 10.7536 28.3452 10.775 28.3509C10.825 28.3652 10.8407 28.3524 10.8414 28.2996C10.8414 28.1761 10.8414 28.0519 10.8399 27.9284C10.8385 27.6743 10.8378 27.4195 10.8349 27.1654C10.8335 27.0305 10.8292 26.8956 10.8257 26.7607C10.8257 26.745 10.8257 26.7279 10.8192 26.7143C10.7985 26.6686 10.8 26.6251 10.8178 26.5773C10.8314 26.5401 10.8399 26.4995 10.8035 26.4645C10.7935 26.4545 10.7943 26.4338 10.7885 26.4088C10.8371 26.4167 10.8706 26.4302 10.902 26.4516C10.9427 26.4795 10.9827 26.5102 11.0255 26.5337C11.0805 26.5637 11.0962 26.6065 11.0955 26.6672C11.0926 26.9149 11.094 27.1625 11.0933 27.4102L11.0926 27.4081ZM12.4095 27.3238C12.3959 27.3495 12.3788 27.3752 12.3724 27.4024C12.3281 27.5929 12.2825 27.7835 12.2432 27.9748C12.1847 28.2617 12.1568 28.5529 12.1247 28.8434C12.1147 28.9341 12.0869 29.0176 12.0412 29.1111C11.9477 29.0661 11.8613 29.024 11.775 28.9819C11.765 28.9769 11.7564 28.9676 11.7464 28.9641C11.6729 28.9405 11.6608 28.8863 11.6601 28.8163C11.6522 28.2332 11.6408 27.6507 11.6301 27.0676C11.6294 27.0234 11.6237 26.9791 11.6208 26.9356C11.6301 26.9334 11.6365 26.9298 11.6386 26.9313C11.7393 27.0041 11.8621 27.0241 11.9734 27.0705C12.1169 27.1297 12.2596 27.1897 12.4024 27.2503C12.4138 27.2553 12.4231 27.266 12.4366 27.2775C12.4266 27.2939 12.4166 27.3081 12.4088 27.3231L12.4095 27.3238ZM13.4123 28.0033C13.3688 28.0926 13.3417 28.1868 13.3231 28.2853C13.2446 28.7135 13.2525 29.1454 13.2567 29.5772C13.2567 29.5858 13.2546 29.5943 13.2539 29.6015C13.2282 29.62 13.2089 29.6029 13.1889 29.595C13.0676 29.5479 12.9463 29.5001 12.8242 29.453C12.8056 29.4459 12.7849 29.4416 12.7678 29.4316C12.7314 29.4109 12.7036 29.383 12.7 29.3374C12.6936 29.2496 12.6829 29.1625 12.6807 29.0747C12.6772 28.9398 12.6807 28.8049 12.6786 28.6693C12.6757 28.4951 12.7036 28.3245 12.7286 28.1532C12.7543 27.9727 12.7921 27.7949 12.8485 27.6208C12.8556 27.5994 12.8635 27.5779 12.8713 27.5572C12.8735 27.5515 12.8792 27.5465 12.8877 27.5351C12.9106 27.5408 12.937 27.5444 12.9612 27.5537C13.1047 27.6065 13.2475 27.6607 13.3909 27.7143C13.4159 27.7236 13.4416 27.7314 13.4673 27.7414C13.4873 27.7492 13.5073 27.7585 13.5287 27.7685C13.4873 27.8506 13.4495 27.927 13.4116 28.0026L13.4123 28.0033ZM14.7142 28.3752C14.6686 28.4602 14.6222 28.5465 14.6058 28.6429C14.5965 28.6978 14.5922 28.7535 14.5908 28.8092C14.5843 28.9891 14.5836 29.1689 14.5365 29.3452C14.5244 29.3902 14.5237 29.4387 14.5144 29.4851C14.4915 29.5929 14.4659 29.7 14.4123 29.7985C14.3923 29.8363 14.3645 29.8577 14.3195 29.8491C14.2118 29.8292 14.0997 29.8413 13.9962 29.7942C13.9469 29.7713 13.9248 29.7421 13.9241 29.6864C13.9205 29.3195 13.9127 28.9527 13.9113 28.5858C13.9113 28.4694 13.9248 28.3524 13.9312 28.236C13.9334 28.1953 13.9334 28.1547 13.9327 28.1147C13.9312 28.0776 13.9477 28.0576 13.9826 28.0455C14.0162 28.0333 14.0462 28.0126 14.079 27.9998C14.1033 27.9905 14.1311 27.9834 14.1561 27.9862C14.3331 28.0069 14.5065 28.0419 14.675 28.1018C14.7064 28.1133 14.7399 28.1197 14.7721 28.129C14.7928 28.1354 14.8127 28.1432 14.8399 28.1532C14.7935 28.2353 14.7528 28.3046 14.7142 28.3759V28.3752ZM16.2153 28.4837C16.1332 28.6043 16.0504 28.725 15.9676 28.8456C15.9312 28.8984 15.9084 28.9562 15.9077 29.0219C15.9077 29.0783 15.9055 29.1347 15.9048 29.1903C15.9048 29.251 15.9012 29.3102 15.8884 29.3709C15.8734 29.443 15.8798 29.5187 15.8705 29.5922C15.8506 29.7571 15.8277 29.9227 15.8034 30.0868C15.7927 30.1589 15.7842 30.1618 15.7149 30.1511C15.6107 30.1346 15.5051 30.1225 15.4016 30.1018C15.3295 30.0868 15.2596 30.0604 15.1889 30.039C15.1418 30.024 15.1247 29.9897 15.1211 29.9419C15.1111 29.8099 15.1054 29.6764 15.0825 29.5458C15.0526 29.3695 15.0447 29.1925 15.039 29.0147C15.0333 28.8577 15.0704 28.7064 15.0982 28.5544C15.1125 28.478 15.1375 28.4081 15.1839 28.3445C15.206 28.3145 15.2189 28.2774 15.2367 28.2425C15.2524 28.2425 15.2688 28.2403 15.2838 28.2425C15.5515 28.2903 15.8191 28.3388 16.0868 28.3874C16.1196 28.3931 16.1532 28.4009 16.1853 28.4102C16.2032 28.4152 16.2196 28.4266 16.2396 28.4373C16.2288 28.458 16.2231 28.4723 16.2146 28.4844L16.2153 28.4837ZM17.6685 28.6443C17.6664 28.6936 17.6428 28.7307 17.6064 28.7592C17.5429 28.8092 17.4786 28.8591 17.413 28.9063C17.3623 28.9427 17.368 28.9398 17.3723 29.0033C17.3809 29.129 17.383 29.2553 17.3837 29.3809C17.3837 29.4666 17.3766 29.5515 17.3752 29.6371C17.3709 29.8192 17.368 30.0019 17.3659 30.1839C17.3644 30.2703 17.3602 30.2753 17.2717 30.2653C17.2353 30.2745 17.1989 30.2845 17.1625 30.2931C17.1389 30.2988 17.1146 30.3059 17.0904 30.3059C16.9712 30.3074 16.852 30.3081 16.732 30.3074C16.7099 30.3074 16.6878 30.3024 16.6657 30.2988C16.635 30.2938 16.605 30.2852 16.5743 30.2824C16.5272 30.2781 16.4894 30.2603 16.4758 30.2139C16.4473 30.1175 16.4094 30.024 16.4109 29.9198C16.4159 29.6336 16.4166 29.3481 16.4173 29.0619C16.4173 28.9969 16.4109 28.9312 16.4059 28.8663C16.3994 28.7821 16.4266 28.7064 16.468 28.635C16.4929 28.5922 16.5222 28.5522 16.5479 28.5101C16.5643 28.4844 16.5864 28.4744 16.6164 28.478C16.7349 28.4916 16.8534 28.5051 16.9719 28.5187C16.9919 28.5208 17.0118 28.5223 17.0318 28.5237C17.1796 28.533 17.328 28.5401 17.4758 28.5522C17.5272 28.5565 17.5764 28.5744 17.6271 28.5851C17.6607 28.5922 17.6692 28.6129 17.6678 28.6443H17.6685ZM21.0889 28.6986C21.0503 28.8163 21.0118 28.932 20.9411 29.0376C20.8797 29.1304 20.864 29.2432 20.8455 29.3516C20.8298 29.4444 20.8126 29.5372 20.7962 29.6307C20.7926 29.6507 20.7876 29.6714 20.7905 29.6907C20.7998 29.7706 20.7848 29.8477 20.7627 29.9241C20.752 29.9591 20.7712 30.0083 20.7291 30.0283C20.6956 30.044 20.6556 30.0476 20.6178 30.0533C20.3972 30.0861 20.1774 30.1218 19.9561 30.1496C19.8383 30.1646 19.7184 30.1689 19.5992 30.1739C19.5243 30.1768 19.5136 30.1646 19.5114 30.0882C19.51 30.0319 19.515 29.9762 19.5143 29.9198C19.5143 29.8684 19.51 29.8163 19.5086 29.7649C19.5064 29.6543 19.5072 29.5444 19.5029 29.4337C19.5007 29.3845 19.4929 29.3352 19.4829 29.2874C19.4743 29.246 19.4472 29.2232 19.4008 29.2239C19.3016 29.2253 19.2024 29.2217 19.1039 29.2239C19.0211 29.226 18.9918 29.2539 18.9811 29.3359C18.9768 29.3688 18.979 29.403 18.9804 29.4373C18.9818 29.4894 18.9825 29.5408 18.9868 29.5922C19.0004 29.7528 18.9519 29.9091 18.9476 30.0683C18.9461 30.1089 18.9411 30.1489 18.9369 30.1896C18.9297 30.2581 18.9247 30.2638 18.8541 30.2703C18.7848 30.2767 18.7149 30.2781 18.6449 30.2831C18.6114 30.286 18.5786 30.2924 18.5457 30.2981C18.5257 30.3017 18.5065 30.3088 18.4865 30.3095C18.3494 30.3152 18.2117 30.3209 18.0746 30.3245C18.0154 30.3259 18.0068 30.3195 17.9868 30.2617C17.9769 30.2317 17.9704 30.201 17.9633 30.1703C17.9497 30.1089 17.9355 30.0476 17.9233 29.9862C17.9169 29.9533 17.9105 29.9198 17.9098 29.8863C17.9062 29.6136 17.8926 29.3409 17.9219 29.069C17.9326 28.9684 17.9533 28.8691 17.9697 28.7692C17.9769 28.7257 17.9847 28.6821 17.9918 28.6407C18.0875 28.6407 18.1767 28.6407 18.2666 28.6407C18.298 28.6407 18.3295 28.6436 18.3609 28.6457C18.5065 28.655 18.6521 28.6657 18.7977 28.6729C18.8741 28.6764 18.9504 28.6743 19.0275 28.6729C19.1574 28.67 19.288 28.6664 19.4179 28.6614C19.4636 28.6593 19.5079 28.66 19.5443 28.7014C19.5842 28.6472 19.6363 28.6514 19.6913 28.6529C19.7584 28.655 19.8255 28.6486 19.8926 28.645C19.964 28.6415 20.0353 28.6357 20.1074 28.6329C20.1838 28.63 20.2609 28.6329 20.3373 28.6272C20.4086 28.6222 20.4793 28.6086 20.5507 28.6008C20.732 28.5808 20.9133 28.5622 21.0946 28.5437C21.1031 28.543 21.1117 28.5451 21.1274 28.5465C21.1131 28.6001 21.1024 28.65 21.0867 28.6986H21.0889ZM23.1545 28.2689C23.1281 28.4858 23.1281 28.7035 23.1188 28.9212C23.1138 29.0269 23.1188 29.1347 23.0967 29.2367C23.0745 29.3367 23.0703 29.4366 23.0588 29.5372C23.0567 29.5551 23.056 29.5729 23.0567 29.5908C23.0588 29.6529 23.0567 29.66 22.996 29.6743C22.8447 29.71 22.6941 29.7471 22.5414 29.777C22.2344 29.837 21.9268 29.8927 21.6185 29.9491C21.5064 29.9698 21.5028 29.969 21.4829 29.8591C21.4579 29.7178 21.435 29.5751 21.4186 29.4323C21.3872 29.1618 21.348 28.8927 21.3016 28.6243C21.2951 28.5872 21.2944 28.5494 21.2916 28.5151C21.3044 28.5073 21.3101 28.5016 21.3158 28.5008C21.9332 28.4095 22.5399 28.2696 23.1345 28.0783C23.1402 28.0769 23.1473 28.0804 23.1566 28.0826C23.1566 28.1454 23.163 28.2082 23.1552 28.2689H23.1545ZM25.0595 29.0654C24.8511 29.1703 24.6313 29.2424 24.4057 29.2974C24.3579 29.3088 24.3115 29.3267 24.2651 29.3445C24.1216 29.398 23.976 29.4459 23.824 29.4708C23.7647 29.4801 23.764 29.4815 23.749 29.4259C23.6598 29.0911 23.572 28.7557 23.4828 28.4209C23.4478 28.2881 23.4122 28.1561 23.3743 28.0126C23.7619 27.8813 24.1445 27.7492 24.5285 27.6222C24.7026 27.5651 24.8682 27.4816 25.0581 27.4495C25.0617 27.498 25.0638 27.5423 25.0688 27.5858C25.1052 27.902 25.0945 28.2196 25.0995 28.5365C25.1023 28.685 25.1052 28.8335 25.1109 28.9819C25.1123 29.0247 25.0966 29.0469 25.0595 29.0654ZM25.3771 27.6051C25.3714 27.5865 25.3636 27.5715 25.3622 27.5558C25.3586 27.5066 25.3572 27.4573 25.3564 27.4074C25.355 27.3617 25.3686 27.3246 25.4221 27.3039C25.4278 27.5594 25.4264 27.5658 25.3771 27.6051ZM26.8739 28.2953C26.744 28.3574 26.6155 28.4223 26.4856 28.4851C26.3357 28.5572 26.1858 28.63 26.0338 28.6978C25.9439 28.7378 25.8504 28.7685 25.7576 28.8035C25.7269 28.7614 25.719 28.7193 25.7126 28.6779C25.6855 28.5023 25.6591 28.3274 25.6434 28.1497C25.6191 27.8856 25.5777 27.6236 25.5399 27.361C25.5185 27.2118 25.5178 27.2068 25.6562 27.1497C25.8147 27.084 25.9631 26.9998 26.1116 26.9149C26.2915 26.8128 26.4756 26.7179 26.6583 26.6208C26.6733 26.6129 26.6912 26.6094 26.714 26.6015C26.7361 26.6815 26.7583 26.7521 26.7761 26.8235C26.8725 27.2096 26.9146 27.6029 26.916 28.0005C26.916 28.0726 26.916 28.1447 26.9203 28.2168C26.9231 28.2567 26.9089 28.2789 26.8739 28.296V28.2953ZM28.7889 26.5958C28.7818 26.7614 28.7868 26.9284 28.7575 27.094C28.7347 27.2189 28.6726 27.3203 28.6005 27.4181C28.5812 27.4438 28.5505 27.4645 28.5213 27.4794C28.2443 27.6258 27.9645 27.7657 27.674 27.8834C27.664 27.8877 27.6526 27.8884 27.6383 27.892C27.6026 27.8363 27.5698 27.7799 27.5548 27.7164C27.4913 27.4445 27.4485 27.169 27.4299 26.8899C27.4256 26.8278 27.4092 26.7657 27.4007 26.7036C27.3785 26.5408 27.3578 26.3781 27.3343 26.2154C27.3293 26.1775 27.3535 26.1626 27.3771 26.1461C27.4563 26.0912 27.5384 26.0391 27.6169 25.982C27.8482 25.8142 28.0823 25.6494 28.2907 25.4524C28.3806 25.3674 28.4756 25.2875 28.5669 25.204C28.6169 25.1583 28.6633 25.1098 28.7118 25.0626C28.729 25.0462 28.7482 25.0312 28.7782 25.0055C28.7839 25.0469 28.7911 25.0741 28.7918 25.1012C28.7946 25.2968 28.7982 25.493 28.7982 25.6893C28.7982 25.9913 28.8025 26.2932 28.7896 26.5944L28.7889 26.5958ZM30.1936 24.7343C30.1922 24.9434 30.1879 25.1526 30.185 25.3617C30.185 25.3731 30.1872 25.3867 30.1815 25.3945C30.1451 25.4452 30.1601 25.5023 30.1586 25.558C30.1579 25.5958 30.1543 25.6344 30.1494 25.6722C30.1429 25.7207 30.1244 25.7678 30.1458 25.8178C30.1515 25.8314 30.1451 25.8556 30.1351 25.8685C30.1072 25.9049 30.1008 25.9463 30.0987 25.9891C30.0958 26.0583 30.0666 26.1126 30.0159 26.1597C29.8317 26.3324 29.6369 26.4923 29.4299 26.6365C29.4213 26.6422 29.4106 26.6458 29.3942 26.6529C29.3928 26.6329 29.3906 26.6179 29.3906 26.6037C29.3906 26.3738 29.3892 26.1447 29.392 25.9149C29.392 25.8499 29.4042 25.7857 29.4099 25.7214C29.4149 25.6586 29.4192 25.5958 29.4227 25.533C29.4335 25.3467 29.4442 25.1604 29.4541 24.9741C29.4563 24.9385 29.4591 24.9021 29.4577 24.8664C29.4563 24.8278 29.4527 24.7907 29.472 24.7543C29.4791 24.7415 29.4784 24.7236 29.4784 24.7079C29.4784 24.6244 29.4798 24.5416 29.4784 24.4581C29.4784 24.4295 29.4727 24.4003 29.4627 24.3732C29.4484 24.3353 29.4506 24.3061 29.4806 24.2754C29.6419 24.1062 29.8018 23.9349 29.9631 23.7657C29.9973 23.7301 30.0359 23.6994 30.0787 23.6608C30.1094 23.815 30.1515 23.9563 30.1544 24.1048C30.1558 24.1576 30.1751 24.2097 30.1808 24.2632C30.185 24.3011 30.1786 24.3396 30.1793 24.3774C30.18 24.4174 30.1858 24.4581 30.1872 24.4981C30.19 24.5766 30.1943 24.6551 30.1936 24.7336V24.7343ZM31.4662 24.2625C31.407 24.4295 31.3142 24.5787 31.2243 24.7293C31.1279 24.8921 31.0266 25.0512 30.9074 25.199C30.8867 25.2247 30.8695 25.2539 30.8446 25.2896C30.8403 25.2696 30.836 25.2589 30.8346 25.2475C30.8289 25.174 30.8246 25.0998 30.8189 25.0262C30.8124 24.9434 30.8017 24.8614 30.7975 24.7786C30.7903 24.6572 30.7889 24.5359 30.7817 24.4153C30.7775 24.3439 30.766 24.2725 30.7582 24.2019C30.7518 24.144 30.7461 24.0855 30.7418 24.0277C30.7332 23.9113 30.7282 23.7943 30.7189 23.6779C30.7032 23.4702 30.6861 23.2633 30.6697 23.0555C30.669 23.0463 30.6697 23.0363 30.6668 23.0291C30.6383 22.967 30.6633 22.9178 30.699 22.8685C30.7939 22.7344 30.8874 22.6002 30.9809 22.4653C31.0037 22.4324 31.0251 22.3975 31.0466 22.3632C31.0915 22.2911 31.1372 22.2197 31.1822 22.1476C31.1886 22.1491 31.195 22.1505 31.2022 22.1519C31.2093 22.2112 31.2171 22.2704 31.2243 22.3297C31.2571 22.5952 31.2921 22.8607 31.3235 23.1269C31.3449 23.3082 31.357 23.4902 31.3834 23.6701C31.4063 23.8278 31.442 23.9834 31.4755 24.1398C31.4848 24.1833 31.482 24.2204 31.467 24.2632L31.4662 24.2625ZM31.7004 17.5139C31.6989 17.7302 31.7032 17.9472 31.6904 18.1627C31.6854 18.2519 31.6747 18.3411 31.6718 18.4304C31.664 18.6788 31.6326 18.9243 31.6004 19.1698C31.5662 19.4361 31.4984 19.6952 31.4241 19.9528C31.3142 20.3354 31.155 20.698 30.9852 21.0563C30.8146 21.4153 30.619 21.7594 30.4027 22.092C30.245 22.3361 30.078 22.5738 29.8953 22.8C29.7518 22.9763 29.6176 23.1605 29.4727 23.3353C29.3507 23.4824 29.22 23.623 29.0908 23.7636C28.9859 23.8778 28.8803 23.9927 28.7697 24.1012C28.4763 24.3903 28.1872 24.6844 27.876 24.9556C27.6548 25.1483 27.4299 25.3353 27.1929 25.5073C26.8903 25.7264 26.5791 25.9342 26.2586 26.1269C25.9917 26.2875 25.7112 26.4209 25.4285 26.5508C25.1188 26.6929 24.8011 26.8128 24.4835 26.9341C24.0938 27.0833 23.6919 27.1939 23.2958 27.3224C22.864 27.4623 22.4229 27.5608 21.9818 27.6629C21.5378 27.7657 21.0889 27.8385 20.637 27.8934C20.3351 27.9298 20.0311 27.942 19.727 27.9534C19.4772 27.9627 19.2274 27.9734 18.9768 27.9734C18.7227 27.9734 18.4679 27.9591 18.2138 27.9512C18.0539 27.9462 17.8941 27.9427 17.7342 27.937C17.6856 27.9348 17.6357 27.9384 17.59 27.9127C17.575 27.9041 17.555 27.9034 17.5372 27.9027C17.4315 27.8977 17.3252 27.8984 17.2203 27.8884C17.0275 27.8699 16.8348 27.8506 16.6435 27.8213C16.3338 27.7749 16.0247 27.725 15.7171 27.6672C15.4937 27.6251 15.2731 27.5687 15.0519 27.5173C14.8984 27.4816 14.7442 27.4466 14.5922 27.4059C14.3616 27.3438 14.1311 27.2817 13.9077 27.1968C13.655 27.1012 13.3974 27.0184 13.1461 26.9191C12.9163 26.8278 12.6893 26.7279 12.4666 26.6194C12.2703 26.5237 12.0833 26.4102 11.8913 26.3067C11.5209 26.1062 11.189 25.8506 10.8578 25.5937C10.7336 25.4973 10.6194 25.3881 10.4981 25.2868C10.2761 25.1019 10.0705 24.8999 9.87922 24.6836C9.67865 24.4574 9.50021 24.214 9.32105 23.9706C9.10407 23.6765 8.90137 23.3732 8.71721 23.0577C8.63585 22.9185 8.56946 22.7693 8.50451 22.6209C8.39031 22.3589 8.27968 22.0941 8.2033 21.8179C8.11979 21.5181 8.0527 21.2148 8.0113 20.9064C7.98989 20.748 7.9592 20.5909 7.94136 20.4325C7.92494 20.2876 7.92066 20.1413 7.90923 19.9957C7.89781 19.8586 7.88354 19.7223 7.87069 19.5852C7.86927 19.5717 7.86641 19.5581 7.86641 19.5453C7.86784 19.3154 7.86998 19.0863 7.87212 18.8565C7.87212 18.8179 7.87141 18.7801 7.87355 18.7416C7.8764 18.7059 7.88283 18.6709 7.88854 18.6359C7.89139 18.6159 7.89995 18.596 7.89853 18.5767C7.89068 18.4446 7.91566 18.3155 7.94421 18.1891C8.0006 17.9386 8.0627 17.6895 8.12907 17.4418C8.16048 17.3248 8.20616 17.2113 8.24613 17.0963C8.25184 17.0792 8.26041 17.0635 8.26612 17.0464C8.35177 16.7966 8.47311 16.5625 8.58446 16.3248C8.69152 16.0964 8.81357 15.8751 8.9499 15.6631C9.07267 15.4718 9.20114 15.2841 9.33176 15.0985C9.46381 14.9108 9.59514 14.7217 9.74075 14.5446C9.90705 14.3412 10.0698 14.1335 10.2561 13.9465C10.4038 13.7988 10.543 13.641 10.6943 13.4968C10.8421 13.3555 10.9991 13.2235 11.154 13.0886C11.2461 13.0086 11.3396 12.9315 11.4345 12.8559C11.7386 12.6153 12.0505 12.3848 12.3802 12.1807C12.6251 12.0286 12.8756 11.8852 13.1254 11.7424C13.3274 11.6275 13.5415 11.5383 13.7585 11.4555C13.7721 11.4505 13.7878 11.4498 13.8028 11.4476C13.8063 11.4533 13.8099 11.4591 13.8135 11.4648C13.7885 11.4855 13.7664 11.5097 13.7392 11.5269C13.6236 11.6004 13.5066 11.6725 13.3895 11.7446C13.3474 11.771 13.3067 11.7967 13.2789 11.8409C13.2639 11.8638 13.236 11.8802 13.2111 11.8952C13.059 11.9844 12.9163 12.0857 12.7864 12.2056C12.7764 12.2149 12.7657 12.2235 12.7543 12.2306C12.5523 12.3634 12.3802 12.5333 12.1982 12.6903C12.0148 12.8495 11.8485 13.0279 11.6722 13.1949C11.4495 13.4062 11.2489 13.6382 11.0526 13.873C10.8885 14.07 10.74 14.2798 10.583 14.4826C10.4203 14.6931 10.2761 14.9165 10.1376 15.1428C9.9356 15.4718 9.76501 15.8166 9.60656 16.1677C9.52662 16.3462 9.46095 16.531 9.39315 16.7152C9.32177 16.9101 9.25325 17.1056 9.18901 17.3026C9.14618 17.4332 9.11192 17.566 9.07623 17.6988C9.02484 17.8901 8.97131 18.0813 8.92563 18.2741C8.88852 18.4318 8.85925 18.591 8.82999 18.7508C8.7993 18.9164 8.76432 19.082 8.74648 19.2498C8.73077 19.3989 8.71293 19.5503 8.7372 19.7009C8.74505 19.7494 8.75933 19.7972 8.77503 19.8443C8.80715 19.9407 8.88423 19.9799 8.97774 19.9864C9.07124 19.9928 9.14975 19.9564 9.20043 19.8729C9.23754 19.8115 9.25039 19.743 9.26039 19.6737C9.2975 19.4268 9.33604 19.1798 9.3703 18.9321C9.41099 18.6324 9.48236 18.339 9.56659 18.0492C9.71077 17.551 9.88207 17.0628 10.1062 16.5946C10.2018 16.3954 10.2982 16.1963 10.4095 16.0064C10.5537 15.7595 10.6829 15.5047 10.8528 15.2727C10.9591 15.1278 11.0519 14.9722 11.1576 14.8266C11.2625 14.6831 11.3753 14.5454 11.4873 14.4069C11.6065 14.2599 11.7264 14.1142 11.8492 13.9708C11.922 13.8851 12.0005 13.8045 12.0769 13.7217C12.1625 13.6296 12.2475 13.5354 12.336 13.4462C12.578 13.2035 12.8285 12.9708 13.0961 12.7567C13.2739 12.6146 13.4516 12.4719 13.6479 12.3563C13.8941 12.2114 14.1325 12.0529 14.403 11.9515C14.5251 11.9059 14.6436 11.8502 14.7642 11.8002C14.7913 11.7888 14.8192 11.7788 14.847 11.7717C14.9698 11.7396 15.0747 11.6746 15.1668 11.589C15.2467 11.5147 15.2967 11.4219 15.3138 11.3142C15.3188 11.2828 15.3095 11.2471 15.2988 11.2164C15.2724 11.1379 15.2389 11.0608 15.2125 10.9823C15.1939 10.9252 15.2003 10.908 15.2546 10.8781C15.3374 10.8331 15.4209 10.7867 15.5072 10.7503C15.7214 10.6604 15.9383 10.579 16.1632 10.519C16.1739 10.5162 16.1853 10.5126 16.1953 10.5083C16.3452 10.4362 16.5072 10.4063 16.6664 10.3649C16.8627 10.3135 17.0575 10.2592 17.2545 10.2114C17.6328 10.1193 18.0118 10.0272 18.3923 9.94302C18.6799 9.8795 18.9718 9.83382 19.2659 9.80812C19.4522 9.79171 19.6363 9.75887 19.8226 9.74174C20.0175 9.7239 20.2138 9.71819 20.4094 9.70391C20.8233 9.67322 21.2373 9.67465 21.652 9.68107C21.7798 9.68321 21.9083 9.68393 22.036 9.70249C22.1624 9.72104 22.2915 9.72176 22.4193 9.73175C22.7698 9.75959 23.1195 9.79599 23.4657 9.85737C23.7141 9.90162 23.9625 9.94374 24.2073 10.003C24.5927 10.0958 24.971 10.2135 25.3457 10.3442C25.7619 10.4891 26.1609 10.6711 26.5527 10.8709C26.789 10.9915 27.0188 11.1257 27.2465 11.2621C27.4549 11.3863 27.6626 11.5147 27.8617 11.6532C28.1465 11.8509 28.4242 12.0586 28.704 12.2635C28.7618 12.3063 28.816 12.3541 28.871 12.4012C29.1451 12.6382 29.4127 12.8823 29.6569 13.1521C29.8824 13.4012 30.0965 13.6603 30.2935 13.9315C30.4855 14.1956 30.6654 14.4683 30.811 14.7623C30.826 14.7923 30.8481 14.8187 30.8645 14.848C30.9252 14.9608 30.988 15.0728 31.0444 15.1877C31.1572 15.4162 31.2757 15.6417 31.3613 15.8822C31.422 16.0521 31.4741 16.2248 31.5341 16.394C31.574 16.5054 31.5969 16.6181 31.6083 16.7359C31.6226 16.8879 31.6454 17.04 31.6625 17.192C31.6675 17.2341 31.669 17.2776 31.6661 17.3205C31.6625 17.3733 31.6597 17.4233 31.6904 17.4704C31.6982 17.4825 31.6975 17.5011 31.6975 17.516L31.7004 17.5139ZM32.0415 21.9328C32.0387 22.1712 32.0073 22.4082 31.9709 22.6437C31.9438 22.8193 31.9045 22.9927 31.8681 23.1669C31.8581 23.2161 31.8388 23.2633 31.8238 23.3118L31.8139 23.3096C31.8124 23.2975 31.8103 23.2847 31.8103 23.2725C31.8138 23.0605 31.7717 22.8521 31.7446 22.6437C31.7211 22.4603 31.7068 22.2768 31.7054 22.0927C31.7054 22.0006 31.7146 21.9085 31.7189 21.8165C31.7211 21.7715 31.7189 21.7258 31.7246 21.6823C31.7418 21.5666 31.7532 21.4496 31.7832 21.3375C31.8453 21.1027 31.9181 20.8707 31.9873 20.638C31.9944 20.6131 32.0066 20.5902 32.0166 20.5659C32.0223 20.5659 32.0273 20.5674 32.033 20.5681C32.038 20.6138 32.0473 20.6594 32.0473 20.7051C32.0473 21.1148 32.0472 21.5245 32.0422 21.9335L32.0415 21.9328Z" fill="#F6F6F6"/>
<path d="M25.4085 14.3128C25.3857 14.3128 25.3635 14.3099 25.3407 14.3121C25.1944 14.3278 25.0602 14.2814 24.9288 14.2264C24.7583 14.1557 24.5898 14.0808 24.4192 14.0116C24.1965 13.9216 23.9631 13.8738 23.7269 13.8374C23.6469 13.8253 23.5656 13.8203 23.4856 13.8074C23.3393 13.7839 23.1937 13.7539 23.0467 13.7311C22.8975 13.7075 22.7483 13.6897 22.5991 13.6704C22.562 13.6654 22.5242 13.6661 22.4764 13.6633C22.5056 13.6012 22.5292 13.5462 22.5563 13.4927C22.7262 13.1515 22.9125 12.8203 23.1237 12.5027C23.1837 12.4127 23.2408 12.3214 23.295 12.2272C23.3364 12.1551 23.3272 12.1087 23.2622 12.0544C23.223 12.0216 23.1794 11.9923 23.1337 11.9681C23.0674 11.9324 23.0345 11.9409 22.9753 11.9909C22.9018 12.053 22.8525 12.1337 22.7961 12.2093C22.6498 12.4042 22.5135 12.6047 22.3886 12.8139C22.248 13.0494 22.1002 13.2821 21.9646 13.5205C21.9225 13.594 21.8789 13.6169 21.7969 13.614C21.6463 13.609 21.4957 13.619 21.345 13.6233C21.2887 13.6247 21.2323 13.6233 21.1766 13.6283C21.1188 13.6326 21.0617 13.6483 21.0039 13.649C20.8376 13.6525 20.6713 13.6611 20.5071 13.6868C20.5049 13.6868 20.5014 13.6811 20.4971 13.6761C20.5185 13.6333 20.5435 13.5904 20.5613 13.5455C20.5927 13.4663 20.622 13.3856 20.6484 13.3042C20.6812 13.2029 20.7012 13.0994 20.6991 12.9923C20.6962 12.866 20.6156 12.7682 20.4928 12.7418C20.4172 12.7254 20.3408 12.7275 20.2644 12.7418C20.188 12.7561 20.1324 12.7982 20.0974 12.866C20.0688 12.9217 20.0424 12.9795 20.0189 13.038C19.9304 13.2521 19.8426 13.467 19.7562 13.6818C19.7334 13.7389 19.6963 13.7753 19.6356 13.7874C19.6227 13.7903 19.6099 13.7953 19.5963 13.7989C19.3444 13.8617 19.1017 13.9502 18.8626 14.0508C18.6627 14.135 18.4686 14.2278 18.2844 14.342C18.156 14.4213 18.0232 14.4948 17.9019 14.584C17.7698 14.6818 17.6499 14.7946 17.525 14.9016C17.368 15.0358 17.2352 15.1921 17.1203 15.362C17.0075 15.5276 16.9119 15.7018 16.8462 15.8945C16.792 16.0544 16.7684 16.2192 16.7513 16.3834C16.737 16.5183 16.7413 16.6568 16.777 16.7924C16.8162 16.9444 16.8619 17.0922 16.9604 17.2171C17.0189 17.2913 17.0832 17.3613 17.1453 17.4319C17.1553 17.4433 17.1688 17.4533 17.1817 17.4619C17.2423 17.5004 17.3009 17.5433 17.3651 17.5761C17.4408 17.6154 17.5214 17.6446 17.5992 17.6796C17.6627 17.7081 17.7263 17.7367 17.7891 17.7667C17.8212 17.7824 17.8262 17.8066 17.8119 17.8395C17.7898 17.8887 17.7727 17.9401 17.7513 17.9901C17.5236 18.5268 17.2937 19.0629 17.0996 19.6139C16.9654 19.9943 16.8284 20.3733 16.6927 20.7531C16.595 21.0264 16.4972 21.2998 16.3994 21.5732C16.3923 21.5931 16.3815 21.6124 16.3701 21.6374C16.0832 21.5446 15.8027 21.4547 15.5236 21.3619C15.4015 21.3212 15.2823 21.2734 15.1617 21.2298C14.9754 21.162 14.7877 21.0978 14.6028 21.0264C14.4287 20.9593 14.2567 20.8851 14.0832 20.8159C13.979 20.7745 13.872 20.7373 13.7677 20.696C13.6171 20.636 13.4673 20.5732 13.3174 20.5118C13.2196 20.4718 13.1175 20.4568 13.0126 20.4661C12.9105 20.4754 12.8349 20.5268 12.7856 20.616C12.6928 20.7837 12.7385 20.9757 12.9048 21.0821C12.9933 21.1385 13.0904 21.1842 13.1867 21.227C13.5351 21.3819 13.8991 21.4939 14.2552 21.6288C14.5729 21.7495 14.8941 21.8608 15.2138 21.9764C15.328 22.0178 15.4408 22.0657 15.5579 22.0971C15.772 22.1549 15.9747 22.2412 16.1767 22.3298C16.1824 22.3319 16.186 22.339 16.1931 22.3469C16.1888 22.3647 16.1845 22.384 16.1788 22.4033C16.116 22.6174 16.0561 22.8322 15.9897 23.0449C15.8712 23.4282 15.7484 23.8094 15.6292 24.1927C15.5978 24.2933 15.5707 24.3961 15.5479 24.4996C15.5243 24.6102 15.585 24.6859 15.6963 24.6923C15.752 24.6952 15.8055 24.6795 15.8476 24.6438C15.8912 24.6059 15.934 24.5645 15.9676 24.5174C16.0811 24.3583 16.1489 24.1748 16.2188 23.995C16.3152 23.7451 16.398 23.4896 16.4915 23.2391C16.5835 22.9921 16.6806 22.7473 16.7763 22.5018C16.7927 22.4597 16.8019 22.4561 16.8491 22.4661C16.869 22.4704 16.8883 22.4768 16.9083 22.4796C17.0418 22.4989 17.176 22.5168 17.3094 22.536C17.3987 22.5489 17.4872 22.5632 17.5757 22.576C17.5935 22.5789 17.6114 22.5767 17.6292 22.5781C17.7027 22.5824 17.7762 22.5874 17.8583 22.5924C17.8562 22.6238 17.8569 22.6417 17.8533 22.6588C17.8055 22.9043 17.7555 23.1492 17.682 23.389C17.6656 23.4425 17.6542 23.4982 17.6485 23.5539C17.6342 23.678 17.6977 23.763 17.8183 23.7915C17.8512 23.7994 17.8833 23.8101 17.9133 23.8244C17.9447 23.8386 17.9711 23.8365 17.9911 23.8094C18.0246 23.7644 18.061 23.7209 18.086 23.6716C18.1602 23.5274 18.2288 23.3804 18.3008 23.2355C18.4015 23.0342 18.5036 22.8344 18.6049 22.6331C18.6278 22.5881 18.6392 22.5796 18.6884 22.5824C18.7106 22.5839 18.7334 22.5874 18.7555 22.5853C18.9033 22.5731 19.0517 22.566 19.1988 22.5453C19.4507 22.5096 19.702 22.4711 19.9518 22.4233C20.1331 22.389 20.3122 22.3426 20.49 22.2934C20.6898 22.2377 20.8875 22.1763 21.0838 22.1113C21.4493 21.9914 21.819 21.8815 22.1595 21.6959C22.1694 21.6902 22.1801 21.6867 22.1901 21.6817C22.3636 21.6067 22.5377 21.5325 22.7112 21.4568C22.9888 21.3362 23.2451 21.1763 23.5049 21.0236C23.5263 21.0114 23.5456 20.995 23.5634 20.9779C23.6419 20.9001 23.7212 20.8237 23.7961 20.7431C23.8953 20.6374 23.9553 20.5089 23.9995 20.3733C24.0723 20.1478 24.0523 19.9201 24.0074 19.6917C23.9817 19.5618 23.926 19.4433 23.8611 19.3298C23.8175 19.2534 23.7754 19.1749 23.719 19.1085C23.6284 19.0022 23.5313 18.9016 23.4292 18.8066C23.2908 18.6789 23.1666 18.5333 22.9953 18.4433C22.9774 18.434 22.9639 18.4176 22.9474 18.4055C22.9053 18.3755 22.8646 18.3434 22.8204 18.317C22.704 18.2485 22.5877 18.1792 22.4685 18.1157C22.355 18.055 22.2408 17.9965 22.123 17.9451C21.8069 17.8074 21.4792 17.6989 21.1466 17.6082C20.9146 17.5447 20.6798 17.4897 20.4464 17.4305C20.4257 17.4255 20.405 17.4176 20.3808 17.4105C20.39 17.3891 20.3957 17.3748 20.4029 17.3613C20.4557 17.2592 20.5121 17.1593 20.5613 17.055C20.7226 16.7103 20.9246 16.3863 21.0752 16.0358C21.0831 16.0172 21.0952 16.0001 21.1038 15.9823C21.2251 15.7382 21.3493 15.4962 21.4657 15.2499C21.5463 15.0786 21.6405 14.9195 21.7783 14.7896C21.9175 14.6582 22.0588 14.5298 22.2008 14.4006C22.213 14.3899 22.233 14.3813 22.2487 14.3813C22.3208 14.3834 22.3921 14.3884 22.4635 14.3949C22.4928 14.397 22.5206 14.407 22.5499 14.4084C22.6776 14.4148 22.8061 14.4177 22.9339 14.4248C23.0167 14.4298 23.1002 14.4363 23.1823 14.4477C23.36 14.4734 23.5384 14.5019 23.7155 14.5319C23.8218 14.5505 23.9289 14.5676 24.0324 14.5969C24.2886 14.6697 24.5356 14.766 24.7647 14.9059C24.8803 14.9766 25.0045 15.0301 25.1344 15.0701C25.2144 15.0951 25.2971 15.0965 25.3735 15.0644C25.4884 15.0158 25.5941 14.9516 25.6719 14.8502C25.6911 14.8253 25.7083 14.7981 25.7218 14.7703C25.7561 14.6954 25.7647 14.619 25.7297 14.5419C25.6669 14.4027 25.5662 14.3185 25.4078 14.3142L25.4085 14.3128ZM17.5992 16.6853C17.5057 16.5825 17.4765 16.4626 17.5022 16.3299C17.5421 16.1264 17.6306 15.9437 17.7448 15.771C17.8219 15.6554 17.9176 15.5569 18.0132 15.4605C18.1174 15.3563 18.2273 15.2557 18.3558 15.1771C18.45 15.12 18.5357 15.0487 18.6377 15.0051C18.8276 14.9238 19.0182 14.8424 19.2088 14.7617C19.2459 14.746 19.2837 14.7339 19.3337 14.7153C19.328 14.7353 19.3272 14.7439 19.323 14.751C19.2237 14.9452 19.1217 15.1379 19.0246 15.3335C18.9204 15.5426 18.819 15.7539 18.7177 15.9651C18.617 16.1743 18.5207 16.3848 18.4186 16.5925C18.3601 16.7117 18.2937 16.8266 18.2316 16.9437C18.2181 16.9687 18.2002 16.9787 18.1709 16.9744C17.9483 16.9408 17.7534 16.8538 17.5985 16.6846L17.5992 16.6853ZM18.7091 20.4661C18.6527 20.6296 18.5992 20.7952 18.5392 20.9572C18.4729 21.1363 18.4015 21.3141 18.3308 21.4918C18.3023 21.5632 18.2716 21.6331 18.2409 21.7031C18.2245 21.7402 18.2081 21.7773 18.1888 21.813C18.1524 21.8787 18.1438 21.8744 18.0717 21.8572C18.0118 21.843 17.9468 21.8437 17.8847 21.8451C17.7563 21.848 17.6285 21.8472 17.5014 21.8258C17.4686 21.8201 17.4343 21.8223 17.4008 21.818C17.3658 21.813 17.3308 21.8044 17.2959 21.7987C17.2673 21.7944 17.2388 21.7916 17.2095 21.7894C17.1317 21.7837 17.1096 21.7666 17.1017 21.6881C17.096 21.6274 17.0939 21.5667 17.096 21.5061C17.1053 21.2612 17.1503 21.0236 17.2331 20.793C17.3294 20.5239 17.4201 20.2527 17.5186 19.9843C17.5999 19.7623 17.6842 19.5418 17.7762 19.3241C17.9061 19.0172 18.0418 18.7131 18.1795 18.4098C18.2509 18.252 18.3315 18.0986 18.4108 17.9444C18.44 17.888 18.4493 17.8902 18.5078 17.8994C18.6299 17.9187 18.7519 17.9365 18.8747 17.9508C19.0489 17.9708 19.2237 17.9872 19.3986 18.0058C19.4072 18.0065 19.4143 18.0122 19.4286 18.0179C19.4186 18.0579 19.4058 18.0957 19.3993 18.135C19.3801 18.2506 19.3586 18.3655 19.3465 18.4819C19.328 18.6653 19.268 18.8373 19.2109 19.0108C19.1495 19.1963 19.086 19.3819 19.0225 19.5668C18.919 19.8666 18.8148 20.1663 18.7113 20.4661H18.7091ZM20.6834 18.2071C20.8204 18.2406 20.9532 18.2934 21.0881 18.3377C21.148 18.3577 21.208 18.3769 21.268 18.3962C21.5328 18.4826 21.784 18.6011 22.0181 18.7481C22.3079 18.9301 22.5913 19.1235 22.8361 19.3655C22.9924 19.5197 23.1223 19.6953 23.208 19.9001C23.2165 19.9208 23.2237 19.9422 23.2308 19.9636C23.2465 20.0086 23.2379 20.0429 23.2108 20.0871C23.0838 20.2927 22.9018 20.4426 22.719 20.5932C22.5813 20.7067 22.4257 20.7937 22.2751 20.888C22.0567 21.025 21.824 21.1328 21.5892 21.2356C21.4842 21.2812 21.3736 21.3148 21.2687 21.3612C21.0017 21.4789 20.7169 21.541 20.4379 21.621C20.2673 21.6695 20.0903 21.6945 19.9147 21.7252C19.7148 21.7602 19.515 21.7923 19.3144 21.8223C19.2323 21.8344 19.1488 21.838 19.0546 21.8465C19.031 21.8501 19.0053 21.8365 18.9825 21.8101C18.9218 21.7395 18.8954 21.666 18.9175 21.5682C19.0032 21.1949 19.1153 20.8287 19.228 20.4633C19.2916 20.257 19.3494 20.0486 19.4186 19.8437C19.4943 19.6196 19.5785 19.399 19.6613 19.1778C19.7512 18.9372 19.844 18.6981 19.9354 18.4583C19.9746 18.3555 20.011 18.2513 20.051 18.1485C20.0703 18.0986 20.0817 18.0914 20.1324 18.1007C20.3158 18.1343 20.5007 18.1635 20.682 18.2071H20.6834ZM21.4507 14.382C21.3807 14.4869 21.3443 14.6054 21.3079 14.7239C21.2508 14.9102 21.1645 15.0829 21.0731 15.2542C20.9461 15.4926 20.8226 15.7324 20.6962 15.9716C20.6613 16.0372 20.6206 16.0993 20.5827 16.1636C20.4942 16.3156 20.4086 16.4683 20.3179 16.6189C20.2823 16.6782 20.238 16.7331 20.1973 16.7895C20.1681 16.8295 20.1338 16.8659 20.1067 16.9073C20.0067 17.06 19.8654 17.1671 19.7112 17.2585C19.6948 17.2685 19.6677 17.2685 19.6484 17.2642C19.602 17.2535 19.5571 17.2421 19.5093 17.2506C19.49 17.2542 19.4686 17.2492 19.4486 17.2463C19.2866 17.2214 19.1245 17.1971 18.9625 17.1693C18.894 17.1578 18.8269 17.1386 18.7498 17.1207C18.7569 17.0972 18.7612 17.08 18.7677 17.0636C18.874 16.8081 18.9811 16.5526 19.0867 16.297C19.1752 16.0829 19.2559 15.8652 19.3522 15.6546C19.4564 15.4277 19.5492 15.195 19.6763 14.9794C19.7526 14.8495 19.8226 14.7161 19.8933 14.5833C19.9082 14.5555 19.9268 14.5362 19.9568 14.5276C20.0153 14.5119 20.0731 14.4919 20.1331 14.4805C20.3122 14.447 20.4928 14.427 20.6748 14.4091C20.8376 14.3934 21.0003 14.3713 21.1638 14.362C21.258 14.3563 21.3522 14.3613 21.45 14.3613C21.45 14.3677 21.4535 14.3777 21.45 14.3834L21.4507 14.382Z" fill="#F6F6F6"/>
</svg>
