<svg width="11" height="11" viewBox="0 0 11 11" fill="none" xmlns="http://www.w3.org/2000/svg">
<path d="M9.29919 4.98608H6.04919V1.73608C6.04919 1.32608 5.70919 0.986084 5.29919 0.986084C4.88919 0.986084 4.54919 1.32608 4.54919 1.73608V4.98608H1.29919C0.889194 4.98608 0.549194 5.32608 0.549194 5.73608C0.549194 6.14608 0.889194 6.48608 1.29919 6.48608H4.54919V9.73608C4.54919 10.1461 4.88919 10.4861 5.29919 10.4861C5.70919 10.4861 6.04919 10.1461 6.04919 9.73608V6.48608H9.29919C9.70919 6.48608 10.0492 6.14608 10.0492 5.73608C10.0492 5.32608 9.70919 4.98608 9.29919 4.98608Z" fill="#01615F" stroke="#01615F"/>
</svg>
