<svg width="32" height="33" viewBox="0 0 32 33" fill="none" xmlns="http://www.w3.org/2000/svg">
<path d="M16.0003 3.40332C8.65366 3.40332 2.66699 9.38999 2.66699 16.7367C2.66699 24.0833 8.65366 30.07 16.0003 30.07C23.347 30.07 29.3337 24.0833 29.3337 16.7367C29.3337 9.38999 23.347 3.40332 16.0003 3.40332ZM21.3337 17.7367H17.0003V22.07C17.0003 22.6167 16.547 23.07 16.0003 23.07C15.4537 23.07 15.0003 22.6167 15.0003 22.07V17.7367H10.667C10.1203 17.7367 9.66699 17.2833 9.66699 16.7367C9.66699 16.19 10.1203 15.7367 10.667 15.7367H15.0003V11.4033C15.0003 10.8567 15.4537 10.4033 16.0003 10.4033C16.547 10.4033 17.0003 10.8567 17.0003 11.4033V15.7367H21.3337C21.8803 15.7367 22.3337 16.19 22.3337 16.7367C22.3337 17.2833 21.8803 17.7367 21.3337 17.7367Z" fill="#01615F"/>
</svg>
