<svg width="20" height="20" viewBox="0 0 20 20" fill="none" xmlns="http://www.w3.org/2000/svg">
<path d="M20 10C20 4.49 15.51 0 10 0C4.49 0 0 4.49 0 10C0 12.9 1.25 15.51 3.23 17.34C3.23 17.35 3.23 17.35 3.22 17.36C3.32 17.46 3.44 17.54 3.54 17.63C3.6 17.68 3.65 17.73 3.71 17.77C3.89 17.92 4.09 18.06 4.28 18.2C4.35 18.25 4.41 18.29 4.48 18.34C4.67 18.47 4.87 18.59 5.08 18.7C5.15 18.74 5.23 18.79 5.3 18.83C5.5 18.94 5.71 19.04 5.93 19.13C6.01 19.17 6.09 19.21 6.17 19.24C6.39 19.33 6.61 19.41 6.83 19.48C6.91 19.51 6.99 19.54 7.07 19.56C7.31 19.63 7.55 19.69 7.79 19.75C7.86 19.77 7.93 19.79 8.01 19.8C8.29 19.86 8.57 19.9 8.86 19.93C8.9 19.93 8.94 19.94 8.98 19.95C9.32 19.98 9.66 20 10 20C10.34 20 10.68 19.98 11.01 19.95C11.05 19.95 11.09 19.94 11.13 19.93C11.42 19.9 11.7 19.86 11.98 19.8C12.05 19.79 12.12 19.76 12.2 19.75C12.44 19.69 12.69 19.64 12.92 19.56C13 19.53 13.08 19.5 13.16 19.48C13.38 19.4 13.61 19.33 13.82 19.24C13.9 19.21 13.98 19.17 14.06 19.13C14.27 19.04 14.48 18.94 14.69 18.83C14.77 18.79 14.84 18.74 14.91 18.7C15.11 18.58 15.31 18.47 15.51 18.34C15.58 18.3 15.64 18.25 15.71 18.2C15.91 18.06 16.1 17.92 16.28 17.77C16.34 17.72 16.39 17.67 16.45 17.63C16.56 17.54 16.67 17.45 16.77 17.36C16.77 17.35 16.77 17.35 16.76 17.34C18.75 15.51 20 12.9 20 10ZM14.94 14.97C12.23 13.15 7.79 13.15 5.06 14.97C4.62 15.26 4.26 15.6 3.96 15.97C2.44 14.43 1.5 12.32 1.5 10C1.5 5.31 5.31 1.5 10 1.5C14.69 1.5 18.5 5.31 18.5 10C18.5 12.32 17.56 14.43 16.04 15.97C15.75 15.6 15.38 15.26 14.94 14.97Z" fill="#01615F"/>
<path d="M10 4.92969C7.93 4.92969 6.25 6.60969 6.25 8.67969C6.25 10.7097 7.84 12.3597 9.95 12.4197C9.98 12.4197 10.02 12.4197 10.04 12.4197C10.06 12.4197 10.09 12.4197 10.11 12.4197C10.12 12.4197 10.13 12.4197 10.13 12.4197C12.15 12.3497 13.74 10.7097 13.75 8.67969C13.75 6.60969 12.07 4.92969 10 4.92969Z" fill="#01615F"/>
<path d="M4.0782 17.1037C4.06647 17.0934 4.05206 17.0808 4.03597 17.0672L4.54257 16.4424C4.79837 16.1269 5.10223 15.8404 5.47273 15.5962L5.47274 15.5962L5.47603 15.594C6.69283 14.7828 8.33238 14.355 10.0075 14.355C11.6829 14.355 13.3162 14.7829 14.5219 15.5926L14.5218 15.5926L14.5273 15.5962C14.9041 15.8446 15.2129 16.1305 15.4497 16.4327L15.9477 17.0681L15.945 17.0706C15.9169 17.0926 15.8933 17.1127 15.8748 17.1286C15.8514 17.1489 15.8392 17.1597 15.83 17.1678C15.8199 17.1768 15.8135 17.1825 15.7999 17.1938C15.6423 17.3251 15.4711 17.4517 15.2799 17.5856L15.2799 17.5855L15.2741 17.5897C15.2501 17.6068 15.2282 17.6231 15.2109 17.636C15.1918 17.6502 15.18 17.6591 15.1675 17.6682C15.1448 17.6848 15.1378 17.6888 15.1378 17.6888L15.1193 17.6995L15.1013 17.7112C14.9821 17.7886 14.8751 17.8509 14.7528 17.9222C14.6849 17.9617 14.6123 18.004 14.5302 18.0532C14.5046 18.068 14.4814 18.0822 14.4624 18.094L14.4329 18.1124L14.4082 18.1278C14.3768 18.1473 14.3629 18.155 14.3546 18.1592L14.3483 18.1623L14.342 18.1656C14.1485 18.267 13.9561 18.3586 13.7646 18.4406L13.7443 18.4493L13.7246 18.4592C13.6375 18.5027 13.5932 18.524 13.5567 18.5378L13.5405 18.5438L13.5246 18.5506C13.4082 18.6005 13.303 18.6365 13.174 18.6805C13.1036 18.7046 13.0262 18.731 12.936 18.7635C12.8297 18.7928 12.7323 18.8293 12.6677 18.8536L12.6656 18.8544C12.5374 18.8984 12.4122 18.928 12.2527 18.9658C12.1916 18.9802 12.1254 18.9958 12.0521 19.0139C11.9798 19.0263 11.9205 19.0427 11.8905 19.051L11.8868 19.052L11.8809 19.0536C11.8694 19.0568 11.8631 19.0585 11.8588 19.0597L11.8482 19.0612L11.8229 19.0666C11.5763 19.1195 11.3242 19.1559 11.0528 19.184L10.9998 19.1895L10.9481 19.2024L10.9472 19.2026L10.9421 19.2031C10.6278 19.2317 10.3113 19.25 10 19.25C9.70636 19.25 9.40775 19.2337 9.10103 19.2077C9.05509 19.1977 8.9884 19.1857 8.91392 19.1815C8.65133 19.1538 8.40662 19.118 8.16715 19.0666L8.13532 19.0598L8.10303 19.0558C8.08844 19.054 8.07114 19.0503 7.99604 19.0289L7.98403 19.0254L7.9719 19.0224C7.72966 18.9618 7.50373 18.9053 7.28 18.84L7.26603 18.8359L7.25191 18.8324C7.22061 18.8246 7.18112 18.8107 7.09335 18.7778L7.07553 18.7711L7.0574 18.7653C6.85708 18.7016 6.65595 18.6285 6.45398 18.5458L6.44372 18.5416L6.43335 18.5378C6.39676 18.524 6.35252 18.5027 6.26542 18.4592L6.24014 18.4465L6.21397 18.4358C6.02146 18.3571 5.83924 18.2703 5.66699 18.1759C5.64144 18.1612 5.61245 18.1438 5.57587 18.1219L5.57288 18.1201C5.53747 18.0988 5.49413 18.0728 5.45211 18.0488L5.44018 18.042L5.42801 18.0356C5.24543 17.94 5.07264 17.8364 4.90931 17.725C4.87244 17.6987 4.83847 17.6752 4.80861 17.6545L4.80691 17.6534C4.77551 17.6316 4.74848 17.6129 4.72017 17.5927C4.66989 17.5557 4.62208 17.5209 4.5763 17.4875C4.4324 17.3827 4.30844 17.2924 4.19014 17.1938L4.15936 17.1682L4.13022 17.1488C4.12815 17.1471 4.12342 17.1432 4.11522 17.1361C4.10801 17.1299 4.10178 17.1244 4.09308 17.1168C4.08884 17.113 4.08401 17.1088 4.0782 17.1037ZM7 8.67969C7 7.0239 8.34421 5.67969 10 5.67969C11.6552 5.67969 12.999 7.02294 13 8.67791C12.991 10.3019 11.7257 11.6075 10.1163 11.6697H10.1163H10.1162H10.1162H10.1161H10.1161H10.116H10.116H10.1159H10.1158H10.1158H10.1157H10.1157H10.1156H10.1156H10.1155H10.1154H10.1154H10.1153H10.1153H10.1152H10.1152H10.1151H10.115H10.115H10.1149H10.1149H10.1148H10.1148H10.1147H10.1146H10.1146H10.1145H10.1145H10.1144H10.1144H10.1143H10.1142H10.1142H10.1141H10.1141H10.114H10.114H10.1139H10.1138H10.1138H10.1137H10.1137H10.1136H10.1136H10.1135H10.1134H10.1134H10.1133H10.1133H10.1132H10.1132H10.1131H10.113H10.113H10.1129H10.1129H10.1128H10.1127H10.1127H10.1126H10.1126H10.1125H10.1125H10.1124H10.1123H10.1123H10.1122H10.1122H10.1121H10.112H10.112H10.1119H10.1119H10.1118H10.1118H10.1117H10.1116H10.1116H10.1115H10.1115H10.1114H10.1113H10.1113H10.1112H10.1112H10.1111H10.1111H10.111H10.1109H10.1109H10.1108H10.1108H10.1107H10.1106H10.1106H10.1105H10.1105H10.1104H10.1104H10.1103H10.1102H10.1102H10.1101H10.1101H10.11H10.1099H10.1098H10.1096H10.1095H10.1094H10.1093H10.1092H10.1091H10.1089H10.1088H10.1087H10.1086H10.1085H10.1083H10.1082H10.1081H10.108H10.1079H10.1077H10.1076H10.1075H10.1074H10.1072H10.1071H10.107H10.1069H10.1068H10.1066H10.1065H10.1064H10.1063H10.1061H10.106H10.1059H10.1058H10.1056H10.1055H10.1054H10.1053H10.1051H10.105H10.1049H10.1048H10.1046H10.1045H10.1044H10.1043H10.1041H10.104H10.1039H10.1037H10.1036H10.1035H10.1034H10.1032H10.1031H10.103H10.1028H10.1027H10.1026H10.1025H10.1023H10.1022H10.1021H10.1019H10.1018H10.1017H10.1015H10.1014H10.1013H10.1012H10.101H10.1009H10.1008H10.1006H10.1005H10.1004H10.1002H10.1001H10.1H10.0998H10.0997H10.0996H10.0994H10.0993H10.0992H10.099H10.0989H10.0988H10.0986H10.0985H10.0984H10.0982H10.0981H10.098H10.0978H10.0977H10.0976H10.0974H10.0973H10.0971H10.097H10.0969H10.0967H10.0966H10.0965H10.0963H10.0962H10.0961H10.0959H10.0958H10.0956H10.0955H10.0954H10.0952H10.0951H10.095H10.0948H10.0947H10.0945H10.0944H10.0943H10.0941H10.094H10.0939H10.0937H10.0936H10.0934H10.0933H10.0932H10.093H10.0929H10.0927H10.0926H10.0925H10.0923H10.0922H10.092H10.0919H10.0918H10.0916H10.0915H10.0913H10.0912H10.0911H10.0909H10.0908H10.0906H10.0905H10.0903H10.0902H10.0901H10.0899H10.0898H10.0896H10.0895H10.0894H10.0892H10.0891H10.0889H10.0888H10.0886H10.0885H10.0884H10.0882H10.0881H10.0879H10.0878H10.0876H10.0875H10.0874H10.0872H10.0871H10.0869H10.0868H10.0866H10.0865H10.0864H10.0862H10.0861H10.0859H10.0858H10.0856H10.0855H10.0853H10.0852H10.0851H10.0849H10.0848H10.0846H10.0845H10.0843H10.0842H10.084H10.0839H10.0838H10.0836H10.0835H10.0833H10.0832H10.083H10.0829H10.0827H10.0826H10.0825H10.0823H10.0822H10.082H10.0819H10.0817H10.0816H10.0814H10.0813H10.0811H10.081H10.0808H10.0807H10.0806H10.0804H10.0803H10.0801H10.08H10.0798H10.0797H10.0795H10.0794H10.0792H10.0791H10.079H10.0788H10.0787H10.0785H10.0784H10.0782H10.0781H10.0779H10.0778H10.0776H10.0775H10.0773H10.0772H10.0771H10.0769H10.0768H10.0766H10.0765H10.0763H10.0762H10.076H10.0759H10.0757H10.0756H10.0754H10.0753H10.0751H10.075H10.0749H10.0747H10.0746H10.0744H10.0743H10.0741H10.074H10.0738H10.0737H10.0735H10.0734H10.0732H10.0731H10.0729H10.0728H10.0727H10.0725H10.0724H10.0722H10.0721H10.0719H10.0718H10.0716H10.0715H10.0713H10.0712H10.071H10.0709H10.0708H10.0706H10.0705H10.0703H10.0702H10.07H10.0699H10.0697H10.0696H10.0694H10.0693H10.0691H10.069H10.0689H10.0687H10.0686H10.0684H10.0683H10.0681H10.068H10.0678H10.0677H10.0675H10.0674H10.0673H10.0671H10.067H10.0668H10.0667H10.0665H10.0664H10.0662H10.0661H10.066H10.0658H10.0657H10.0655H10.0654H10.0652H10.0651H10.0649H10.0648H10.0647H10.0645H10.0644H10.0642H10.0641H10.0639H10.0638H10.0636H10.0635H10.0634H10.0632H10.0631H10.0629H10.0628H10.0626H10.0625H10.0624H10.0622H10.0621H10.0619H10.0618H10.0616H10.0615H10.0614H10.0612H10.0611H10.0609H10.0608H10.0606H10.0605H10.0604H10.0602H10.0601H10.0599H10.0598H10.0597H10.0595H10.0594H10.0592H10.0591H10.0589H10.0588H10.0587H10.0585H10.0584H10.0582H10.0581H10.058H10.0578H10.0577H10.0575H10.0574H10.0573H10.0571H10.057H10.0568H10.0567H10.0566H10.0564H10.0563H10.0561H10.056H10.0559H10.0557H10.0556H10.0555H10.0553H10.0552H10.055H10.0549H10.0548H10.0546H10.0545H10.0544H10.0542H10.0541H10.0539H10.0538H10.0537H10.0535H10.0534H10.0533H10.0531H10.053H10.0528H10.0527H10.0526H10.0524H10.0523H10.0522H10.052H10.0519H10.0518H10.0516H10.0515H10.0514H10.0512H10.0511H10.051H10.0508H10.0507H10.0506H10.0504H10.0503H10.0502H10.05H10.0499H10.0498H10.0496H10.0495H10.0494H10.0492H10.0491H10.049H10.0488H10.0487H10.0486H10.0485H10.0483H10.0482H10.0481H10.0479H10.0478H10.0477H10.0475H10.0474H10.0473H10.0472H10.047H10.0469H10.0468H10.0466H10.0465H10.0464H10.0463H10.0461H10.046H10.0459H10.0457H10.0456H10.0455H10.0454H10.0452H10.0451H10.045H10.0449H10.0447H10.0446H10.0445H10.0444H10.0442H10.0441H10.044H10.0439H10.0437H10.0436H10.0435H10.0434H10.0432H10.0431H10.043H10.0429H10.0428H10.0426H10.0425H10.0424H10.0423H10.0421H10.042H10.0419H10.0418H10.0417H10.0415H10.0414H10.0413H10.0412H10.0411H10.0409H10.0408H10.0407H10.0406H10.0405H10.0404H10.0402H10.0401H10.04H10.0399H10.0398H10.0396H10.0395H10.0394H10.0393H10.0392H10.039H10.0389H10.0388H10.0387H10.0386H10.0384H10.0383H10.0382H10.0381H10.0379H10.0378H10.0377H10.0376H10.0374H10.0373H10.0372H10.0371H10.0369H10.0368H10.0367H10.0365H10.0364H10.0363H10.0362H10.036H10.0359H10.0358H10.0356H10.0355H10.0354H10.0352H10.0351H10.035H10.0348H10.0347H10.0346H10.0344H10.0343H10.0341H10.034H10.0339H10.0337H10.0336H10.0335H10.0333H10.0332H10.033H10.0329H10.0328H10.0326H10.0325H10.0323H10.0322H10.0321H10.0319H10.0318H10.0316H10.0315H10.0313H10.0312H10.031H10.0309H10.0308H10.0306H10.0305H10.0303H10.0302H10.03H10.0299H10.0297H10.0296H10.0294H10.0293H10.0291H10.029H10.0288H10.0287H10.0285H10.0284H10.0282H10.0281H10.0279H10.0278H10.0276H10.0275H10.0273H10.0271H10.027H10.0268H10.0267H10.0265H10.0264H10.0262H10.0261H10.0259H10.0257H10.0256H10.0254H10.0253H10.0251H10.025H10.0248H10.0246H10.0245H10.0243H10.0242H10.024H10.0238H10.0237H10.0235H10.0234H10.0232H10.023H10.0229H10.0227H10.0225H10.0224H10.0222H10.022H10.0219H10.0217H10.0216H10.0214H10.0212H10.0211H10.0209H10.0207H10.0206H10.0204H10.0202H10.0201H10.0199H10.0197H10.0196H10.0194H10.0192H10.019H10.0189H10.0187H10.0185H10.0184H10.0182H10.018H10.0179H10.0177H10.0175H10.0173H10.0172H10.017H10.0168H10.0167H10.0165H10.0163H10.0161H10.016H10.0158H10.0156H10.0154H10.0153H10.0151H10.0149H10.0147H10.0146H10.0144H10.0142H10.014H10.0139H10.0137H10.0135H10.0133H10.0131H10.013H10.0128H10.0126H10.0124H10.0123H10.0121H10.0119H10.0117H10.0115H10.0114H10.0112H10.011H10.0108H10.0106H10.0105H10.0103H10.0101H10.0099H10.0097H10.0096H10.0094H10.0092H10.009H10.0088H10.0086H10.0085H10.0083H10.0081H10.0079H10.0077H10.0076H10.0074H10.0072H10.007H10.0068H10.0066H10.0064H10.0063H10.0061H10.0059H10.0057H10.0055H10.0053H10.0051H10.005H10.0048H10.0046H10.0044H10.0042H10.004H10.0038H10.0037H10.0035H10.0033H10.0031H10.0029H10.0027H10.0025H10.0023H10.0022H10.002H10.0018H10.0016H10.0014H10.0012H10.001H10.0008H10.0006H10.0005H10.0003H10.0001H9.99989H9.9997H9.99951H9.99932H9.99913H9.99894H9.99875H9.99856H9.99837H9.99818H9.99799H9.9978H9.99761H9.99741H9.99722H9.99703H9.99684H9.99665H9.99646H9.99626H9.99607H9.99588H9.99569H9.9955H9.99531H9.99511H9.99492H9.99473H9.99453H9.99434H9.99415H9.99396H9.99376H9.99357H9.99338H9.99318H9.99299H9.9928H9.9926H9.99241H9.99222H9.99202H9.99183H9.99164H9.99144H9.99125H9.99106H9.99086H9.99067H9.99047H9.99028H9.99008H9.98989H9.9897H9.9895H9.98931H9.98911H9.98892H9.98872H9.98853H9.98833H9.98814H9.98795H9.98775H9.98756H9.98736H9.98717H9.98697H9.98678H9.98658H9.98639H9.98619H9.986H9.9858H9.98561H9.98541H9.98522H9.98502H9.98483H9.98463H9.98444H9.98424H9.98405H9.98385H9.98365H9.98346H9.98326H9.98307H9.98287H9.98268H9.98248H9.98229H9.98209H9.9819H9.9817H9.98151H9.98131H9.98112H9.98092H9.98072H9.98053H9.98033H9.98014H9.97994H9.97975H9.97955H9.97936H9.97916H9.97897H9.97877H9.97858H9.97838H9.97819H9.97799H9.9778H9.9776H9.97741H9.97721H9.97702H9.97682H9.97663H9.97643H9.97624H9.97604H9.97585H9.97565H9.97546H9.97527H9.97507H9.97488H9.97468H9.97449H9.97429H9.9741H9.97391H9.97371H9.97352H9.97332H9.97313H9.97294H9.97274H9.97255H9.97235H9.97216H9.97197H9.97178H9.97158H9.97139H9.9712H9.971H9.97081H9.97062H9.97042H9.97023H9.97004H9.96984H9.96965H9.96946H9.96927H9.96908H9.96888H9.96869H9.9685H9.96831H9.96811H9.96792H9.96773H9.96754H9.96735H9.96716H9.96697H9.96677H9.96658H9.96639H9.9662H9.96601H9.96582H9.96563H9.96544H9.96525H9.96506H9.96487H9.96468H9.96449H9.9643H9.96411H9.96392H9.96373H9.96354H9.96336H9.96317H9.96298H9.96279H9.9626H9.96241H9.96222H9.96204H9.96185H9.96166H9.96147H9.96128H9.96118C8.25531 11.6161 7 10.2938 7 8.67969Z" stroke="#01615F" stroke-width="1.5"/>
</svg>
