<svg width="17" height="17" viewBox="0 0 17 17" fill="none" xmlns="http://www.w3.org/2000/svg">
<path d="M11.4956 1.6543H4.82894C2.82894 1.6543 1.49561 2.98763 1.49561 4.98763V8.98763C1.49561 10.9876 2.82894 12.321 4.82894 12.321V13.741C4.82894 14.2743 5.42227 14.5943 5.86227 14.2943L8.82894 12.321H11.4956C13.4956 12.321 14.8289 10.9876 14.8289 8.98763V4.98763C14.8289 2.98763 13.4956 1.6543 11.4956 1.6543ZM8.16227 9.76763C7.88227 9.76763 7.66227 9.54096 7.66227 9.26763C7.66227 8.9943 7.88227 8.76763 8.16227 8.76763C8.44227 8.76763 8.66227 8.9943 8.66227 9.26763C8.66227 9.54096 8.44227 9.76763 8.16227 9.76763ZM9.00227 7.00096C8.74227 7.1743 8.66227 7.28763 8.66227 7.4743V7.6143C8.66227 7.88763 8.43561 8.1143 8.16227 8.1143C7.88894 8.1143 7.66227 7.88763 7.66227 7.6143V7.4743C7.66227 6.70096 8.22894 6.32096 8.44227 6.1743C8.68894 6.00763 8.76894 5.8943 8.76894 5.72096C8.76894 5.38763 8.49561 5.1143 8.16227 5.1143C7.82894 5.1143 7.55561 5.38763 7.55561 5.72096C7.55561 5.9943 7.32894 6.22096 7.05561 6.22096C6.78227 6.22096 6.55561 5.9943 6.55561 5.72096C6.55561 4.8343 7.27561 4.1143 8.16227 4.1143C9.04894 4.1143 9.76894 4.8343 9.76894 5.72096C9.76894 6.48096 9.20894 6.86096 9.00227 7.00096Z" fill="#01615F"/>
</svg>
