<svg width="93" height="93" viewBox="0 0 93 93" fill="none" xmlns="http://www.w3.org/2000/svg">
<path d="M93.0096 46.4998C93.0096 72.0154 72.3252 92.6998 46.8096 92.6998C21.2941 92.6998 0.609619 72.0154 0.609619 46.4998C0.609619 20.9842 21.2941 0.299805 46.8096 0.299805C72.3252 0.299805 93.0096 20.9842 93.0096 46.4998Z" fill="#01615F"/>
<path d="M77.6256 60.3442C76.1236 60.0758 74.7143 59.9492 73.2607 59.7536C71.067 59.4582 70.3107 59.7357 67.9219 60.0821C64.1846 60.6178 60.6694 61.7255 58.8899 61.8565C58.2828 61.9009 57.8469 62.0708 57.4409 61.9227C57.1695 61.8227 56.8855 61.4666 56.9897 61.2295C57.1008 60.9788 57.5715 60.8468 57.9149 60.7696C61.1667 60.0563 60.7984 60.0877 61.6305 59.9724C61.9909 59.9224 62.3644 59.8707 62.8458 59.72C63.1301 59.6312 63.3252 59.3853 63.3427 59.0941C63.4053 58.0262 61.6171 57.9347 60.5634 57.9001C59.4065 57.8611 59.8003 57.8027 57.18 57.7392C56.4287 57.7198 54.3291 57.7469 53.8265 56.9005C53.5777 56.4848 53.9855 55.565 54.7735 55.4956C54.8335 55.4903 54.8864 55.4675 54.9398 55.4465C59.1214 55.964 60.8844 56.3343 61.8561 56.5356C62.6512 56.7 62.9015 55.4988 62.1054 55.333C57.1148 54.2997 54.2675 54.3456 53.3787 53.7673C53.1073 53.5954 52.9174 53.0278 53.0061 52.6868C53.3362 51.4162 56.4461 52.5826 60.7076 53.1979C61.5121 53.3144 61.6868 52.0991 60.8834 51.983C58.7585 51.6756 56.3896 51.0773 54.5634 50.9051C54.5466 50.8523 54.5325 50.7988 54.5004 50.7505C54.1315 50.1975 54.4904 49.355 55.3222 49.1717C55.7188 49.0843 56.0198 49.1378 56.5052 49.2839C59.0017 50.0349 63.5377 50.7251 67.8665 50.7649C68.6778 50.7722 69.5798 50.6815 70.1209 49.9493C71.393 48.1921 68.8529 46.5474 67.9516 43.637C67.4393 42.0685 67.6564 41.9331 67.7961 41.8748C68.4658 41.5939 69.0944 42.5394 69.4931 43.1375C70.1483 44.3005 73.6262 50.4084 74.3464 51.3537C75.2349 52.5158 76.7713 53.3602 78.6732 53.7209C79.4677 53.8712 79.7034 52.6697 78.9022 52.5138C77.9733 52.338 76.2766 51.8535 75.3231 50.6094C74.7385 49.8428 71.7231 44.5942 70.5404 42.4967C70.2082 41.9972 69.8654 41.479 69.3396 41.0686C68.2429 40.233 66.6075 40.5361 66.4251 41.9703C66.321 42.7085 66.5451 43.278 66.7799 44.0031C67.8214 47.3692 71.0185 49.5635 67.8778 49.5369C63.7364 49.499 59.3144 48.8447 56.8583 48.1082C56.3195 47.946 55.7767 47.8137 55.0573 47.9728C53.6885 48.2737 52.7801 49.629 53.2677 50.9908C52.4939 51.2139 51.9758 51.7708 51.818 52.3762C51.6258 53.1134 51.9042 54.042 52.4391 54.5769C52.6554 54.7932 52.8743 54.9041 53.1629 55.0305C51.7411 56.5777 52.5919 58.7729 55.987 58.9333C57.5056 58.9909 58.016 58.955 59.7809 59.0908C57.6806 59.5634 56.3385 59.6695 55.8675 60.7314C55.48 61.6047 56.0188 62.7813 57.1587 63.1117C60.0133 65.0461 65.5326 60.8284 75.5201 61.2738C76.1464 61.3534 76.7688 61.4384 77.4096 61.5529C77.7437 61.6123 78.0623 61.3904 78.122 61.0565C78.1822 60.7221 77.9583 60.4033 77.6256 60.3442Z" fill="#F6F6F6"/>
<path d="M49.3702 51.004C49.0711 50.8242 48.6551 50.7122 48.1986 50.644C49.3675 49.426 49.2455 47.3237 47.5602 46.7652C45.4268 46.0565 40.8336 48.0872 30.0734 47.4051C28.0799 47.2793 27.5426 46.5167 29.0826 44.5272C31.7366 41.0991 31.8347 40.0386 32.055 39.6285C32.3233 38.982 32.6012 38.3135 32.5573 37.4635C32.4662 35.6851 30.4807 35.2404 29.1151 36.1414C28.4169 36.6021 27.9052 37.2574 27.4281 37.8714C25.4883 40.7711 21.2096 47.0625 20.3632 48.005C18.162 50.4567 15.3942 51.9756 12.7701 52.1715C11.9539 52.2323 12.0669 53.4564 12.8617 53.396C15.799 53.1764 18.8664 51.5106 21.2769 48.8259C22.4042 47.5697 28.3886 38.6442 28.4223 38.5908C28.8347 38.0625 29.261 37.5163 29.7919 37.1664C30.1718 36.9153 30.7227 36.8467 31.0464 37.0098C31.7329 37.3728 31.0452 38.8432 30.7603 39.5505C29.3028 43.2479 25.8656 45.1459 27.2734 47.432C27.8524 48.3784 28.9752 48.5673 29.9962 48.6306C40.7831 49.3145 45.4472 47.3586 47.1743 47.9307C48.0657 48.2227 47.7963 49.5489 47.0796 49.9911C45.5145 50.9583 37.5547 51.4973 35.7364 51.6163C34.9239 51.6686 35.009 52.8967 35.8172 52.8414C39.2277 52.6186 42.0073 52.3658 44.9865 51.8498C45.0438 51.8603 45.1009 51.8722 45.1616 51.8656C46.4837 51.7178 48.2262 51.7494 48.7378 52.0564C49.1994 52.334 49.7139 52.9213 49.4095 53.4088C48.8959 54.226 47.4044 54.546 46.3534 54.7716C43.6581 55.3497 40.1036 55.7623 36.8027 55.7152C35.9894 55.7043 35.9817 56.9314 36.7852 56.9437C41.2724 57.0072 43.0458 56.3749 46.0659 56.3781C47.4178 56.3788 47.985 57.2721 47.725 57.8709C47.0451 59.4411 39.9878 59.0018 36.7004 59.4121C36.1806 59.4792 35.4204 59.393 35.3429 60.0651C35.2634 60.7606 36.0959 60.8622 36.8561 61.1283C38.6641 61.7606 41.7683 62.0863 41.9427 63.3261C41.8905 63.6172 41.4359 63.8285 41.0328 63.8802C40.0821 64.0024 39.5869 63.8177 33.6332 62.4385C32.0207 62.0659 30.4579 61.5705 28.8078 61.2552C25.1072 60.5347 18.6793 60.2642 15.9206 60.2565C15.6141 60.256 15.3712 60.483 15.3236 60.7758C15.0583 60.9074 15.7745 61.8653 15.9187 61.9818C16.3032 62.2927 21.3631 62.4007 27.3599 62.9182C28.598 63.025 29.8101 63.3079 30.9899 63.6661C32.6045 64.1563 34.2101 64.3462 35.7998 64.9134C37.1626 65.3998 38.8119 65.7758 40.2834 65.7511C42.8426 65.7082 43.6688 64.3399 43.1384 62.959C42.8423 61.4461 40.7107 60.8811 39.2024 60.4985L39.4178 60.4945C40.5868 60.4694 41.8088 60.3548 42.9655 60.2961C44.9146 60.218 48.0984 60.0955 48.8518 58.36C49.2185 57.5161 48.9593 56.3416 47.9023 55.6596C51.4894 54.6264 51.2957 52.1577 49.3702 51.004Z" fill="#F6F6F6"/>
<path d="M44.9395 41.3598C46.6818 43.1022 49.3989 44.5215 50.2658 45.042C50.4976 45.1811 50.793 45.152 50.9937 44.9705C54.2659 42.0094 55.743 41.5206 57.4346 38.3503C58.2914 36.7456 58.1857 34.2936 56.5224 33.1346C55.3425 32.3108 53.5766 32.3586 52.2279 33.2499C51.3538 33.8277 50.791 34.6873 50.382 35.5786C48.8777 33.5402 47.1829 32.9058 45.7862 33.1632C42.98 33.6804 41.3771 37.7974 44.9395 41.3598ZM46.1129 34.3365C47.8588 34.0806 49.1215 35.8754 50.0176 37.2089C50.3119 37.6309 50.9397 37.5397 51.1062 37.0718C51.4946 35.98 51.9814 34.8849 52.9052 34.2743C53.844 33.6538 55.0423 33.5993 55.8197 34.1415C56.8868 34.8954 56.9642 36.6248 56.3514 37.7714C54.82 40.6419 53.4403 41.1309 50.5038 43.7592C48.9556 42.8736 47.0496 41.767 45.7234 40.4035C43.0923 37.6987 44.0591 34.6362 46.1129 34.3365Z" fill="#F6F6F6"/>
<path d="M53.5562 29.4973L53.8731 31.3248C54.0108 32.1246 55.2211 31.9167 55.0836 31.1151L54.7661 29.2869C54.6278 28.4839 53.4171 28.6989 53.5562 29.4973Z" fill="#F6F6F6"/>
<path d="M56.7573 31.5499L58.0124 29.8425C58.4933 29.1882 57.5042 28.4608 57.0231 29.1155L55.7679 30.8229C55.287 31.4754 56.2752 32.2055 56.7573 31.5499Z" fill="#F6F6F6"/>
<path d="M58.7907 33.2264L60.0718 32.2404C60.3404 32.0341 60.391 31.6482 60.1841 31.3791C59.9746 31.1131 59.5916 31.0602 59.3227 31.2674L58.0416 32.2534C57.397 32.7488 58.1471 33.7215 58.7907 33.2264Z" fill="#F6F6F6"/>
</svg>
