<svg width="24" height="24" viewBox="0 0 24 24" fill="none" xmlns="http://www.w3.org/2000/svg">
<path d="M11.4995 21.7501C5.84951 21.7501 1.24951 17.1501 1.24951 11.5001C1.24951 5.85012 5.84951 1.25012 11.4995 1.25012C17.1495 1.25012 21.7495 5.85012 21.7495 11.5001C21.7495 17.1501 17.1495 21.7501 11.4995 21.7501ZM11.4995 2.75012C6.66951 2.75012 2.74951 6.68012 2.74951 11.5001C2.74951 16.3201 6.66951 20.2501 11.4995 20.2501C16.3295 20.2501 20.2495 16.3201 20.2495 11.5001C20.2495 6.68012 16.3295 2.75012 11.4995 2.75012Z" fill="#868787"/>
<path d="M22.0001 22.7501C21.8101 22.7501 21.6201 22.6801 21.4701 22.5301L17.9992 19.4124C17.7092 19.1224 17.7092 18.6424 17.9992 18.3524C18.2892 18.0624 18.7692 18.0624 19.0592 18.3524L22.5301 21.4701C22.8201 21.7601 22.8201 22.2401 22.5301 22.5301C22.3801 22.6801 22.1901 22.7501 22.0001 22.7501Z" fill="#868787"/>
</svg>
