<svg width="16" height="17" viewBox="0 0 16 17" fill="none" xmlns="http://www.w3.org/2000/svg">
<path d="M10.6668 6.59729C10.3935 6.59729 10.1668 6.37062 10.1668 6.09729V3.76396C10.1668 3.04396 9.72016 2.59729 9.00016 2.59729H7.00016C6.28016 2.59729 5.8335 3.04396 5.8335 3.76396V6.09729C5.8335 6.37062 5.60683 6.59729 5.3335 6.59729C5.06016 6.59729 4.8335 6.37062 4.8335 6.09729V3.76396C4.8335 2.49062 5.72683 1.59729 7.00016 1.59729H9.00016C10.2735 1.59729 11.1668 2.49062 11.1668 3.76396V6.09729C11.1668 6.37062 10.9402 6.59729 10.6668 6.59729Z" fill="#104D4D"/>
<path d="M5.33339 12.6173C5.06006 12.6173 4.83339 12.3906 4.83339 12.1173C4.83339 11.8373 5.06006 11.6173 5.33339 11.6173H13.1734C13.3734 11.6173 13.5267 11.444 13.5067 11.244L13.0534 7.45062C12.8934 6.15729 12.6667 5.09729 10.4001 5.09729H5.60006C3.33339 5.09729 3.10673 6.15729 2.95339 7.45062L2.35339 12.4506C2.16006 14.0906 2.66673 15.4306 5.00673 15.4306H10.9934C13.1001 15.4306 13.7201 14.344 13.6867 12.9306C13.6801 12.7506 13.5334 12.6173 13.3534 12.6173H5.33339Z" fill="#104D4D"/>
</svg>
