<svg width="41" height="40" viewBox="0 0 41 40" fill="none" xmlns="http://www.w3.org/2000/svg">
<rect x="0.347656" width="40" height="40" rx="20" fill="#01615F"/>
<path d="M14.7201 12.0334C15.6867 12.0334 16.7741 12.0334 17.7406 11.9266C18.7072 11.9266 19.7946 11.9266 20.7611 11.8198C22.8151 11.8198 24.869 11.8198 26.8021 11.8198C26.8021 11.8198 26.5605 11.6062 26.4397 11.4994C26.0772 16.0917 25.8356 20.7907 25.8356 25.4897C25.8356 26.1305 25.8356 26.7713 25.8356 27.4121C25.8356 28.0528 25.8356 28.6936 25.8356 29.3344C25.8356 29.548 26.4397 29.548 26.4397 29.3344C26.5605 28.8004 26.4397 28.1596 26.4397 27.6257C26.4397 27.0917 26.4397 26.4509 26.4397 25.9169C26.4397 24.7422 26.4397 23.5674 26.4397 22.3926C26.4397 20.0431 26.5605 17.6936 26.6813 15.3441C26.6813 14.0626 26.8021 12.6742 26.9229 11.3927C26.9229 11.1791 26.8021 11.0723 26.5605 11.0723C24.5065 11.0723 22.4526 11.0723 20.3987 11.0723C19.4321 11.0723 18.3447 11.0723 17.3782 11.1791C16.4116 11.1791 15.3242 11.1791 14.3577 11.3927C13.9952 11.3927 14.116 11.8198 14.3577 11.9266H14.7201V12.0334Z" fill="#F6F6F6"/>
<path d="M14.8425 11.82C14.8425 11.82 14.6009 12.2472 14.6009 12.5676C14.6009 12.888 14.6009 13.2084 14.6009 13.5288C14.6009 14.1696 14.6009 14.8103 14.4801 15.4511C14.4801 16.7327 14.3592 18.0142 14.2384 19.189C14.1176 21.7521 13.9968 24.3152 13.876 26.8783C13.876 27.5191 13.876 28.1598 13.876 28.8006C13.876 29.121 13.876 29.4414 13.876 29.655C13.876 29.8686 13.7551 30.2958 13.876 30.6162C13.9968 30.723 14.1176 30.8298 14.3592 30.6162C14.6009 30.4026 14.6009 30.0822 14.6009 29.7618V27.8395C14.8425 25.2764 14.9633 22.7132 15.0842 20.1501C15.0842 18.7618 15.205 17.2666 15.3258 15.8783C15.3258 15.1307 15.3258 14.4899 15.3258 13.7424C15.3258 13.422 15.3258 12.9948 15.3258 12.6744C15.3258 12.354 15.3258 11.9268 15.205 11.6064C15.205 11.6064 15.0842 11.6064 14.9633 11.6064H14.8425V11.82Z" fill="#F6F6F6"/>
<path d="M14.6103 30.7229C14.6103 30.7229 14.2478 30.5093 14.0062 30.5093C14.0062 30.6161 14.0062 30.7229 13.8853 30.9365C14.4894 30.9365 15.0935 30.9365 15.6976 30.9365C16.3017 30.9365 16.9058 30.9365 17.5099 30.9365C18.7181 30.9365 19.9263 30.8297 21.1345 30.7229C22.3427 30.6161 23.5509 30.6161 24.7591 30.5093C25.1216 30.5093 25.3632 30.5093 25.7257 30.5093C25.9673 30.5093 26.0881 30.5093 26.209 30.4025C26.5714 30.1889 26.5714 29.7617 26.209 29.5481C26.209 29.5481 26.3298 29.5481 26.4506 29.6549C26.0881 29.0142 24.7591 29.3346 24.8799 29.9753C24.8799 30.2957 25.2424 30.5093 25.6049 30.4025C25.8465 30.4025 26.209 30.2957 26.209 29.9753C26.209 29.8685 25.9673 29.7617 25.9673 29.9753C25.9673 29.9753 25.7257 30.1889 25.7257 30.0821C25.7257 30.0821 25.7257 29.8685 25.6049 29.9753C25.7257 29.9753 25.6049 29.9753 25.7257 29.9753C25.9673 30.0821 25.6049 29.6549 25.7257 29.6549H25.6049C25.3632 29.6549 25.1216 29.6549 24.8799 29.6549C24.3967 29.6549 23.7926 29.6549 23.3093 29.6549C21.2553 29.7617 19.3222 29.8685 17.2683 29.9753C16.6642 29.9753 16.1809 29.9753 15.5768 30.0821C14.9727 30.0821 14.3686 30.0821 13.8853 30.2957C13.6437 30.2957 13.6437 30.7229 13.8853 30.7229C14.127 30.7229 14.3686 30.7229 14.4894 30.6161L14.6103 30.7229Z" fill="#F6F6F6"/>
<path d="M16.6726 12.8885C16.6726 12.8885 16.9143 12.9952 17.0351 12.9952C17.0351 12.9952 17.1559 12.9952 17.2767 12.9952C17.3976 12.9952 17.6392 12.9952 17.76 12.9952C18.1225 12.9952 18.4849 12.9952 18.8474 12.9952C19.5723 12.9952 20.2972 12.9952 21.0222 12.9952C22.472 12.9952 23.9218 12.9952 25.3717 12.9952C25.3717 12.9952 25.13 12.7817 25.0092 12.6749C25.0092 16.9467 24.7676 21.1118 24.2843 25.3836C24.2843 26.5584 24.0427 27.7331 23.9218 28.9079L24.2843 28.5875C21.2638 28.8011 18.2433 29.1215 15.2228 29.4419C15.2228 29.4419 15.4645 29.6554 15.5853 29.7622C16.1894 24.5292 16.5518 19.1894 16.5518 13.8496C16.5518 13.636 16.5518 13.5292 16.5518 13.3156V13.102C16.5518 13.102 16.5518 13.102 16.5518 12.9952C16.5518 13.102 16.5518 13.102 16.5518 12.9952H16.7935C16.7935 12.9952 16.7935 12.9952 16.6726 12.9952C16.6726 12.9952 16.431 12.9953 16.431 12.8885C16.431 12.4613 15.7061 12.4613 15.7061 12.8885C15.7061 13.4224 16.1894 13.7428 16.6726 13.7428C17.2767 13.7428 17.76 13.3156 17.5184 12.7817C17.3976 12.3545 16.6726 12.0341 16.1894 12.2477C15.8269 12.3545 15.7061 12.6749 15.7061 12.9952C15.7061 13.4224 15.7061 13.8496 15.7061 14.3836C15.7061 17.6943 15.5853 20.8982 15.3436 24.2088C15.2228 26.0244 15.102 27.9467 14.8604 29.7622C14.8604 29.869 14.9812 30.0826 15.2228 30.0826C18.2433 29.7622 21.2638 29.4419 24.2843 29.2283C24.5259 29.2283 24.6468 29.1215 24.6468 28.9079C25.13 24.7428 25.4925 20.471 25.6133 16.1991C25.6133 15.0244 25.6133 13.8496 25.6133 12.6749C25.6133 12.5681 25.4925 12.3545 25.2509 12.3545C23.1969 12.3545 21.143 12.3545 19.2099 12.3545C18.7266 12.3545 18.2433 12.3545 17.76 12.3545C17.5184 12.3545 17.2767 12.3545 17.0351 12.3545C16.7935 12.3545 16.6726 12.3545 16.5518 12.4613C16.3102 12.5681 16.3102 12.8885 16.5518 12.9952C16.7935 12.9952 16.9143 12.9952 16.9143 12.7817C16.9143 12.6749 16.6726 12.6749 16.5518 12.7817H16.6726V12.8885Z" fill="#F6F6F6"/>
<path d="M16.4131 21.4317C19.1919 21.2181 21.9708 20.8977 24.7496 20.5773C25.1121 20.5773 25.2329 19.9365 24.7496 19.9365C21.9708 20.2569 19.0711 20.4705 16.2922 20.8977C15.9298 20.8977 16.0506 21.4317 16.2922 21.3249H16.4131V21.4317Z" fill="#F6F6F6"/>
<path d="M18.3502 11.0724C18.3502 11.0724 18.3502 11.0724 18.2294 11.0724C18.2294 11.0724 18.2294 10.9657 18.2294 10.8589C18.2294 10.8589 18.2294 10.9657 18.2294 11.0724C18.2294 10.6453 18.3502 10.2181 18.471 9.79089C18.471 9.79089 18.3502 9.89769 18.2294 10.0045C20.0417 9.79089 21.9748 9.5773 23.7871 9.5773C23.7871 9.5773 23.5454 9.36371 23.4246 9.25691C23.4246 10.0045 23.4246 10.8589 23.7871 11.4996C23.9079 11.7132 24.3912 11.6064 24.3912 11.3928C24.3912 11.0724 24.2704 10.6453 24.2704 10.3249C24.2704 10.0045 24.2704 9.5773 24.2704 9.25691C24.2704 9.04332 24.1495 8.93652 23.9079 8.93652C21.9748 8.93652 20.0417 9.04332 18.1085 9.36371C18.1085 9.36371 17.8669 9.4705 17.8669 9.5773C17.8669 9.89769 17.8669 10.1113 17.7461 10.4317C17.7461 10.6453 17.6253 10.9657 17.7461 11.1792C17.7461 11.286 18.1085 11.3928 18.2294 11.1792C18.2294 11.1792 18.471 11.0724 18.471 10.8589L18.3502 11.0724Z" fill="#F6F6F6"/>
<path d="M16.43 20.2573C19.0881 20.2573 21.8669 20.2573 24.525 20.1505C24.8874 20.1505 24.8874 19.5097 24.525 19.6165C21.7461 19.6165 19.0881 19.7233 16.43 19.8301C16.0676 19.8301 16.0676 20.3641 16.43 20.3641V20.2573Z" fill="#F6F6F6"/>
<path d="M16.4226 21.0044C16.4226 21.0044 16.6642 21.0044 16.785 20.8976C16.9059 20.7908 17.1475 20.684 17.2683 20.5772C17.51 20.3636 17.8724 20.15 17.9932 19.8296C17.9932 19.7228 17.9932 19.5092 17.7516 19.616C17.3891 19.7228 17.1475 20.0432 16.9059 20.2568C16.785 20.3636 16.6642 20.4704 16.5434 20.5772C16.4226 20.684 16.3018 20.7908 16.3018 21.0044H16.4226Z" fill="#F6F6F6"/>
<path d="M16.671 21.5382C16.671 21.5382 17.3959 20.8974 17.7583 20.6838C18 20.577 18.1208 20.4702 18.3624 20.3634C18.6041 20.3634 18.7249 20.1498 18.8457 20.0431C18.8457 19.9363 18.8457 19.7227 18.6041 19.7227C18.1208 19.7227 17.6375 20.1498 17.3959 20.3634C17.0334 20.6838 16.671 21.0042 16.3085 21.3246C16.1877 21.5382 16.4293 21.7518 16.671 21.5382Z" fill="#F6F6F6"/>
<path d="M17.0366 21.9656C17.0366 21.9656 17.1574 21.9657 17.2782 21.8589C17.2782 21.8589 17.5198 21.7521 17.5198 21.6453C17.7615 21.4317 17.8823 21.3249 18.1239 21.1113C18.3656 21.0045 18.6072 20.7909 18.728 20.6841C18.9697 20.5773 19.2113 20.4705 19.3321 20.2569C19.3321 20.2569 19.3321 19.9365 19.2113 19.9365C18.9697 19.9365 18.728 20.0433 18.4864 20.1501C18.2448 20.2569 18.0031 20.4705 17.7615 20.5773C17.5198 20.7909 17.2782 20.8977 17.1574 21.1113C17.1574 21.1113 17.0366 21.3249 16.9157 21.4317C16.9157 21.5385 16.9157 21.6453 16.7949 21.7521C16.7949 21.8589 16.7949 21.9657 17.0366 21.8589V21.9656Z" fill="#F6F6F6"/>
<path d="M16.3015 23.2474C16.3015 23.2474 16.6639 23.0338 16.7848 22.927C17.0264 22.8202 17.1472 22.7134 17.3889 22.4998C17.7513 22.1794 18.1138 21.9658 18.4762 21.6454C18.8387 21.325 19.2012 21.1114 19.5636 20.7911C19.9261 20.4707 20.2885 20.2571 20.5302 19.9367C20.651 19.7231 20.4094 19.5095 20.1677 19.6163C19.8053 19.8299 19.4428 20.1503 19.2012 20.4707C18.8387 20.7911 18.4762 21.0046 18.1138 21.325C17.7513 21.6454 17.3889 21.859 17.1472 22.1794C17.0264 22.2862 16.7848 22.4998 16.6639 22.6066C16.5431 22.8202 16.3015 22.927 16.1807 23.1406C16.1807 23.1406 16.1807 23.3542 16.3015 23.2474Z" fill="#F6F6F6"/>
<path d="M16.5388 24.2087C16.5388 24.2087 17.2637 23.6747 17.6262 23.3544C17.9886 23.034 18.4719 22.7136 18.8344 22.3932C19.1968 22.0728 19.5593 21.7524 19.9217 21.432C20.2842 21.1117 20.7675 20.7913 21.0091 20.4709C21.1299 20.2573 20.8883 20.0437 20.6467 20.1505C20.2842 20.3641 19.9217 20.7913 19.5593 21.1116C19.1968 21.432 18.8344 21.7524 18.4719 22.0728C18.1094 22.3932 17.747 22.7136 17.3845 23.034C17.0221 23.3544 16.6596 23.6748 16.418 24.1019C16.418 24.1019 16.418 24.2087 16.5388 24.2087Z" fill="#F6F6F6"/>
<path d="M16.412 25.3834C17.3785 24.529 18.2243 23.6747 19.1908 22.8203C19.6741 22.3931 20.0366 21.9659 20.5199 21.5387C20.7615 21.3251 21.0031 21.1116 21.2448 20.898C21.2448 20.898 21.4864 20.6844 21.6072 20.5776C21.6072 20.4708 21.6072 20.364 21.6072 20.2572C21.6072 20.2572 21.6072 20.1504 21.4864 20.1504C21.3656 20.1504 21.2448 20.1504 21.124 20.1504C21.0031 20.1504 20.8823 20.364 20.7615 20.4708C20.5199 20.6844 20.2782 20.898 20.0366 21.1116C19.5533 21.5387 19.07 21.9659 18.5867 22.3931C17.741 23.2475 16.7744 24.1018 16.0495 25.063C15.9287 25.1698 16.1704 25.3834 16.2912 25.2766H16.412V25.3834Z" fill="#F6F6F6"/>
<path d="M15.81 26.7714C16.8974 25.8102 18.1056 24.7423 19.0721 23.6743L22.2135 20.5772C22.2135 20.5772 22.0926 19.9364 21.7302 20.15L18.5889 23.3539C17.5015 24.4219 16.5349 25.4898 15.5684 26.6646C15.5684 26.6646 15.5684 26.8782 15.6892 26.7714H15.81Z" fill="#F6F6F6"/>
<path d="M16.9128 26.4506C16.9128 26.4506 16.3087 27.0914 15.9463 27.4118V27.6254C16.3087 27.6254 16.5504 27.1982 16.792 26.9846C17.1545 26.6642 17.3961 26.4506 17.7586 26.1302C18.3627 25.4895 18.9668 24.9555 19.6917 24.3147C20.2958 23.6739 20.8999 23.14 21.6248 22.4992C22.2289 21.9652 22.9538 21.3244 23.4371 20.6836C23.6788 20.47 23.3163 20.0429 23.0747 20.3633C22.3497 20.8972 21.8665 21.538 21.1415 22.1788C20.5374 22.8196 19.9333 23.3535 19.3292 23.9943C18.7251 24.6351 18.121 25.1691 17.5169 25.8099C17.2753 26.1302 16.9128 26.3438 16.6712 26.6642C16.5504 26.8778 16.3087 26.9846 16.1879 27.1982C16.0671 27.305 15.9463 27.4118 15.9463 27.5186C15.9463 27.5186 16.0671 27.5186 16.1879 27.5186C16.4296 27.1982 16.792 26.8778 17.0337 26.4506H16.9128Z" fill="#F6F6F6"/>
<path d="M15.8178 28.694C17.3884 27.4124 18.9591 26.0241 20.4089 24.6357C21.1339 23.8882 21.8588 23.2474 22.5837 22.4998C22.9462 22.1794 23.3086 21.7522 23.6711 21.4319C24.0335 21.1115 24.396 20.7911 24.5168 20.3639C24.5168 20.1503 24.396 20.0435 24.1544 20.1503C23.9127 20.2571 23.7919 20.4707 23.5503 20.5775C23.3086 20.7911 23.1878 20.8979 22.9462 21.1115C22.5837 21.4318 22.2212 21.859 21.8588 22.1794C21.1339 22.927 20.4089 23.5678 19.684 24.3153C18.2342 25.7037 16.7843 27.092 15.3345 28.4804C15.2137 28.5872 15.3345 28.8008 15.5761 28.694H15.8178Z" fill="#F6F6F6"/>
<path d="M16.5434 28.5873C16.5434 28.5873 16.3018 28.8009 16.3018 28.9077C16.3018 29.1213 16.6642 29.1213 16.9059 28.9077C17.0267 28.9077 17.2683 28.6941 17.3891 28.4805C17.51 28.3737 17.7516 28.1602 17.8724 28.0534C18.2349 27.733 18.5973 27.4126 18.839 27.0922C20.168 25.8106 21.3762 24.5291 22.7052 23.1407C23.4301 22.3932 24.1551 21.6456 24.88 20.7912C25.1216 20.5776 24.6383 20.2572 24.3967 20.4708C23.0677 21.8592 21.8595 23.2475 20.5305 24.6359C19.9264 25.2766 19.2014 26.0242 18.5973 26.665C18.2349 26.9854 17.9932 27.3058 17.6308 27.6262C17.51 27.8398 17.2683 27.9466 17.1475 28.1601C17.1475 28.2669 16.785 28.5873 16.6642 28.5873C16.785 28.5873 16.6642 28.3737 16.6642 28.3737H16.5434V28.5873Z" fill="#F6F6F6"/>
<path d="M17.5102 28.9073C18.1143 28.4802 18.7184 27.8394 19.2017 27.3054C19.8058 26.7714 20.2891 26.2374 20.8932 25.7035C21.3764 25.1695 21.9805 24.6355 22.4638 24.1015C23.0679 23.5675 23.672 23.0336 24.1553 22.3928C24.3969 22.1792 23.9136 21.8588 23.672 22.0724C23.4304 22.286 23.0679 22.6064 22.8263 22.9268C22.5846 23.2471 22.343 23.4607 21.9805 23.7811C21.4973 24.3151 20.8932 24.8491 20.4099 25.4899C19.9266 26.0238 19.3225 26.5578 18.8392 27.0918C18.3559 27.6258 17.7518 28.1598 17.2686 28.8006C17.2686 28.9073 17.2686 29.0141 17.5102 28.9073Z" fill="#F6F6F6"/>
<path d="M18.2407 29.2282C19.4489 28.267 20.4154 27.0922 21.5028 26.0243C21.9861 25.4903 22.4694 24.9563 23.0735 24.4223C23.3151 24.1019 23.5567 23.8884 23.9192 23.568C24.1608 23.3544 24.4025 23.034 24.5233 22.7136C24.5233 22.7136 24.5233 22.5 24.2817 22.5C23.9192 22.6068 23.6776 22.8204 23.4359 23.1408C23.1943 23.4612 22.9526 23.6748 22.5902 23.9951C22.1069 24.5291 21.5028 25.0631 21.0195 25.7039C20.053 26.7718 18.8448 27.8398 17.999 29.1214C17.999 29.2282 17.999 29.4418 18.2407 29.335V29.2282Z" fill="#F6F6F6"/>
<path d="M18.7123 29.6548C18.7123 29.6548 19.7997 28.6937 20.283 28.2665C20.7663 27.7325 21.3704 27.1985 21.8537 26.6646C22.3369 26.1306 22.8202 25.5966 23.3035 25.0626C23.5451 24.7422 23.7868 24.5286 24.0284 24.2082C24.2701 23.9946 24.3909 23.7811 24.5117 23.3539C24.5117 23.3539 24.5117 23.2471 24.2701 23.2471C23.9076 23.3539 23.7868 23.5675 23.5451 23.7811C23.3035 24.1014 23.0619 24.315 22.8202 24.6354C22.3369 25.1694 21.8537 25.7034 21.3704 26.2374C20.8871 26.7713 20.4038 27.3053 19.9205 27.8393C19.6789 28.0529 19.4373 28.3733 19.1956 28.6937C18.954 28.9073 18.7123 29.2277 18.4707 29.548C18.4707 29.548 18.4707 29.7616 18.5915 29.6548H18.7123Z" fill="#F6F6F6"/>
<path d="M19.9155 29.3339C20.7612 28.4796 21.6069 27.732 22.4527 26.8776C22.8151 26.4504 23.1776 26.0233 23.6609 25.5961C23.9025 25.3825 24.0233 25.1689 24.265 24.9553C24.265 24.8485 24.5066 24.7417 24.5066 24.6349C24.5066 24.5281 24.5066 24.4213 24.6274 24.2077C24.6274 24.1009 24.6274 23.9941 24.3858 23.9941C24.265 23.9941 24.1442 23.9941 24.0233 24.2077C24.0233 24.2077 23.7817 24.4213 23.7817 24.5281C23.5401 24.7417 23.4192 24.9553 23.1776 25.1689C22.8151 25.5961 22.3319 26.1301 21.9694 26.5572C21.2445 27.4116 20.5196 28.266 19.6738 29.2271C19.6738 29.3339 19.7946 29.5475 19.9155 29.4407V29.3339Z" fill="#F6F6F6"/>
<path d="M21.2556 29.0142C21.8597 28.4802 22.4638 27.8395 23.0679 27.1987C23.3095 26.8783 23.672 26.5579 23.9136 26.2375C24.0344 26.0239 24.1553 25.9171 24.3969 25.7035C24.5177 25.4899 24.6385 25.3831 24.7594 25.1695C24.7594 24.956 24.6385 24.8492 24.3969 24.956C24.1553 25.0628 24.0344 25.1696 23.9136 25.3831C23.7928 25.4899 23.672 25.7035 23.5512 25.8103C23.3095 26.1307 22.9471 26.4511 22.7054 26.7715C22.1013 27.4123 21.618 28.053 21.1348 28.8006C21.1348 29.0142 21.2556 29.121 21.4972 29.0142H21.2556Z" fill="#F6F6F6"/>
<path d="M21.2556 29.3349C21.8597 28.6941 22.5846 28.1601 23.1887 27.5194C23.5512 27.199 23.7928 26.8786 24.1553 26.5582C24.3969 26.3446 24.7594 26.0242 24.7594 25.597C24.7594 25.597 24.7594 25.4902 24.6385 25.4902C24.2761 25.4902 24.0344 25.9174 23.7928 26.131C23.4303 26.4514 23.1887 26.7718 22.8262 27.0922C22.2221 27.733 21.7389 28.3737 21.1348 29.1213C21.1348 29.1213 21.1348 29.3349 21.3764 29.2281L21.2556 29.3349Z" fill="#F6F6F6"/>
<path d="M22.1014 29.2279C22.1014 29.2279 23.0679 28.2668 23.5512 27.8396C23.7928 27.626 24.0345 27.4124 24.2761 27.092C24.5178 26.8784 24.7594 26.6648 24.7594 26.3445C24.7594 26.2377 24.6386 26.1309 24.3969 26.1309C24.0345 26.1309 23.9137 26.558 23.672 26.7716C23.4304 26.9852 23.1887 27.3056 22.9471 27.5192C22.4638 28.0532 22.1014 28.5872 21.6181 29.0144C21.4973 29.228 21.7389 29.3347 21.9805 29.2279H22.1014Z" fill="#F6F6F6"/>
<path d="M23.313 29.227C23.313 29.227 24.2795 28.3727 24.5212 27.9455C24.642 27.7319 24.2795 27.5183 24.1587 27.6251C23.6754 27.9455 23.313 28.4795 22.9505 28.9066C22.7089 29.1202 23.1922 29.3338 23.313 29.227Z" fill="#F6F6F6"/>
<path d="M23.9073 28.9067C23.9073 28.9067 24.3906 28.3728 24.6322 28.0524C24.6322 27.8388 24.5114 27.732 24.2697 27.8388C24.0281 28.0524 23.7865 28.3728 23.5448 28.6931C23.424 28.9067 23.7865 29.1203 23.9073 28.9067Z" fill="#F6F6F6"/>
<path d="M24.1463 22.3929C24.1463 22.3929 24.5087 21.9657 24.7504 21.7521C24.8712 21.5385 25.1128 21.3249 25.1128 21.1113C25.1128 21.1113 25.1128 20.8977 24.8712 21.0045C24.6295 21.0045 24.5087 21.3249 24.2671 21.5385C24.0254 21.7521 23.9046 22.0725 23.663 22.2861C23.5422 22.4997 23.9046 22.7132 24.0254 22.4997L24.1463 22.3929Z" fill="#F6F6F6"/>
<path d="M24.5233 21.4318C24.5233 21.4318 24.4025 22.1794 24.2817 22.4998C24.2817 22.8202 24.04 23.2474 24.04 23.5678C24.04 23.6746 24.2817 23.7814 24.2817 23.5678C24.4025 23.2474 24.4025 22.8202 24.5233 22.4998V21.4318Z" fill="#F6F6F6"/>
<path d="M24.7589 20.791C24.7589 20.791 24.6381 21.859 24.5173 22.393C24.5173 22.927 24.3965 23.4609 24.3965 23.9949C24.3965 24.2085 24.7589 24.2085 24.7589 23.9949C24.8798 23.4609 24.8798 22.927 24.8798 22.393C24.8798 21.859 24.8798 21.325 24.8798 20.791C24.8798 20.6842 24.6381 20.6842 24.6381 20.791H24.7589Z" fill="#F6F6F6"/>
<path d="M24.6379 20.3643C24.517 20.8982 24.3962 21.539 24.2754 22.073C24.2754 22.607 24.2754 23.2478 24.517 23.7817H24.7587C24.7587 23.5681 24.7587 23.2478 24.7587 23.0342C24.7587 22.7138 24.7587 22.5002 24.7587 22.1798C24.7587 21.6458 24.7587 21.005 25.0003 20.4711C25.0003 20.3643 24.8795 20.3643 24.7587 20.4711L24.6379 20.3643Z" fill="#F6F6F6"/>
<path d="M17.2753 20.7912C17.2753 20.7912 17.2753 20.364 17.2753 20.2572C17.2753 20.1504 17.0337 20.2572 17.0337 20.2572C17.0337 21.0048 17.0337 21.6455 17.0337 22.3931C17.0337 23.1407 16.9128 23.7815 16.792 24.529C16.792 25.2766 16.5504 25.9174 16.4296 26.665C16.3087 27.4125 16.0671 28.0533 15.9463 28.8009C15.9463 29.0145 16.1879 29.1213 16.3087 28.8009C16.5504 28.0533 16.6712 27.4125 16.792 26.665C16.9128 25.9174 17.0337 25.2766 17.1545 24.529C17.1545 23.7815 17.2753 23.1407 17.2753 22.3931C17.2753 21.6455 17.2753 20.898 17.2753 20.1504C17.2753 20.1504 17.1545 20.1504 17.0337 20.1504C17.0337 20.364 17.1545 20.4708 17.2753 20.6844V20.7912Z" fill="#F6F6F6"/>
<path d="M16.5432 20.3636C16.3015 21.752 16.0599 23.1403 15.8182 24.4219C15.8182 25.0627 15.6974 25.8102 15.5766 26.451C15.5766 27.1986 15.335 27.8394 15.335 28.5869C15.335 28.8005 15.6974 28.8005 15.6974 28.5869C15.6974 27.9462 15.8182 27.1986 15.9391 26.5578C15.9391 25.8102 16.0599 25.1695 16.1807 24.4219C16.3015 23.0335 16.5432 21.6452 16.664 20.2568H16.5432V20.3636Z" fill="#F6F6F6"/>
<path d="M16.1763 20.5775C16.1763 22.1795 15.9347 23.7814 15.693 25.3833C15.693 26.1309 15.4514 26.9853 15.2098 27.7329C15.2098 28.16 14.9681 28.4804 14.9681 28.9076C14.9681 29.228 14.7265 29.6552 14.8473 29.8688C14.8473 29.8688 14.9681 29.8688 15.0889 29.8688C15.2098 29.762 15.2098 29.6552 15.3306 29.4416C15.3306 29.228 15.3306 29.0144 15.4514 28.8008C15.4514 28.3736 15.693 28.0532 15.693 27.6261C15.8139 26.8785 15.9347 26.1309 16.0555 25.2765C16.2971 23.6746 16.2971 22.0727 16.2971 20.4707C16.2971 20.3639 16.0555 20.3639 16.0555 20.4707H16.1763V20.5775Z" fill="#F6F6F6"/>
<path d="M16.7947 21.0043C16.7947 22.3926 16.6739 23.781 16.4322 25.1693C16.4322 25.9169 16.3114 26.5577 16.1906 27.3052C16.1906 27.946 15.9489 28.6936 15.8281 29.3344C15.8281 29.548 16.0698 29.6548 16.3114 29.548C16.6739 29.3344 16.7947 29.014 16.6739 28.6936C16.6739 28.5868 16.4322 28.6936 16.4322 28.6936C16.4322 28.8004 16.3114 28.9072 16.1906 29.014L16.553 29.3344C16.7947 28.6936 16.7947 27.946 16.9155 27.3052C16.9155 26.5577 17.1571 25.9169 17.1571 25.1693C17.278 23.781 17.278 22.2858 17.1571 20.8975C17.1571 20.7907 16.9155 20.7907 16.9155 20.8975H16.7947V21.0043Z" fill="#F6F6F6"/>
<path d="M17.4991 20.791C17.4991 22.2862 17.2574 23.6745 17.1366 25.1697C17.1366 25.9172 17.0158 26.558 16.895 27.3056C16.895 28.0532 16.6533 28.8007 16.6533 29.5483C16.6533 29.7619 17.0158 29.8687 17.1366 29.5483C17.3782 28.9075 17.3782 28.16 17.4991 27.4124C17.4991 26.6648 17.6199 25.9172 17.7407 25.1697C17.7407 23.6745 17.8615 22.2862 17.7407 20.791C17.7407 20.6842 17.4991 20.6842 17.4991 20.791Z" fill="#F6F6F6"/>
<path d="M18.1107 21.4316C17.869 22.7131 17.7482 23.9947 17.6274 25.2762C17.6274 25.917 17.5066 26.5578 17.3857 27.1986C17.3857 27.5189 17.3857 27.8393 17.3857 28.1597C17.3857 28.2665 17.3857 28.4801 17.3857 28.5869C17.3857 28.8005 17.3857 28.8005 17.5066 29.0141H17.7482C17.7482 28.9073 17.869 28.8005 17.9898 28.6937C17.9898 28.5869 17.9898 28.3733 17.9898 28.2665C17.9898 27.9461 17.9898 27.6257 17.9898 27.3053C17.9898 26.6646 17.9898 26.0238 18.1107 25.383C18.1107 24.1015 18.3523 22.8199 18.3523 21.5384C18.3523 21.4316 18.1107 21.3248 17.9898 21.5384L18.1107 21.4316Z" fill="#F6F6F6"/>
<path d="M19.3164 21.0043C19.0748 22.2858 18.954 23.6742 18.7123 24.9557C18.7123 25.5965 18.5915 26.2373 18.4707 26.8781C18.4707 27.1984 18.4707 27.5188 18.4707 27.8392C18.4707 28.1596 18.4707 28.48 18.4707 28.8004C18.4707 28.9072 18.7123 29.014 18.8332 28.8004C18.954 28.5868 18.954 28.2664 19.0748 27.946C19.0748 27.6256 19.0748 27.3052 19.0748 26.9849C19.0748 26.3441 19.1956 25.5965 19.3164 24.9557C19.3164 23.5674 19.4373 22.2858 19.5581 20.8975C19.5581 20.7907 19.3164 20.7907 19.3164 20.8975V21.0043Z" fill="#F6F6F6"/>
<path d="M19.5759 21.6449C19.4551 22.9265 19.3343 24.208 19.2134 25.4896C19.2134 26.1304 19.2134 26.7711 19.0926 27.4119C19.0926 27.7323 19.0926 28.0527 19.0926 28.3731C19.0926 28.4799 19.0926 28.6935 19.0926 28.8003C19.0926 28.8003 19.0926 28.8003 19.0926 28.9071C19.2134 28.9071 19.2134 28.9071 19.0926 29.0139C19.2134 29.0139 19.3343 28.8003 19.0926 28.6935C18.6093 28.4799 18.4885 29.5478 19.0926 29.3342C19.4551 29.2275 19.4551 28.8003 19.4551 28.4799C19.4551 28.0527 19.4551 27.6255 19.4551 27.0915C19.5759 25.276 19.6967 23.3537 19.6967 21.5381C19.6967 21.3245 19.3343 21.3245 19.3343 21.5381L19.5759 21.6449Z" fill="#F6F6F6"/>
<path d="M20.405 21.2178C20.405 22.3926 20.1634 23.6741 20.0426 24.8489C20.0426 25.4897 19.9218 26.0236 19.8009 26.6644C19.8009 27.3052 19.5593 27.8392 19.4385 28.48C19.4385 28.8003 19.9218 28.8003 20.0426 28.48C20.1634 27.946 20.2842 27.3052 20.405 26.6644C20.405 26.0236 20.5259 25.4897 20.6467 24.8489C20.7675 23.6741 20.7675 22.3926 20.8883 21.2178C20.8883 21.0042 20.5259 21.0042 20.5259 21.2178H20.405Z" fill="#F6F6F6"/>
<path d="M21.0189 21.432C21.0189 22.7136 20.7772 23.9951 20.6564 25.2767C20.6564 25.9175 20.5356 26.5582 20.4148 27.199C20.4148 27.5194 20.4148 27.8398 20.2939 28.1602C20.2939 28.4806 20.1731 28.801 20.2939 29.1213C20.2939 29.3349 20.6564 29.3349 20.7772 29.1213C20.898 28.801 20.898 28.4806 21.0189 28.267C21.0189 27.9466 21.0189 27.6262 21.1397 27.3058C21.1397 26.665 21.2605 26.0243 21.3813 25.2767C21.5021 23.9951 21.6229 22.6068 21.6229 21.3252C21.6229 21.1116 21.2605 21.1116 21.1397 21.3252L21.0189 21.432Z" fill="#F6F6F6"/>
<path d="M21.729 21.2188C21.4873 22.6071 21.1249 23.8887 21.0041 25.277C21.0041 25.9178 20.7624 26.5586 20.7624 27.3061C20.7624 27.6265 20.7624 28.0537 20.6416 28.3741C20.6416 28.6945 20.6416 29.0149 20.6416 29.2285H20.8832C21.1249 29.0149 21.1249 28.6945 21.1249 28.4809C21.1249 28.1605 21.1249 27.8401 21.2457 27.5197C21.2457 26.8789 21.3665 26.1314 21.4873 25.4906C21.729 24.1022 21.8498 22.8207 22.0914 21.4323C22.0914 21.2188 21.729 21.112 21.729 21.4323V21.2188Z" fill="#F6F6F6"/>
<path d="M22.0953 21.0046C21.8537 22.3929 21.7329 23.6745 21.612 25.0628C21.612 25.7036 21.612 26.3444 21.4912 27.092C21.4912 27.4123 21.4912 27.8395 21.4912 28.1599C21.4912 28.2667 21.4912 28.4803 21.4912 28.5871C21.4912 28.8007 21.4912 28.9075 21.612 29.0143C21.612 29.1211 21.8537 29.1211 21.9745 29.0143C21.9745 28.9075 22.0953 28.8007 22.0953 28.5871C22.0953 28.4803 22.0953 28.2667 22.0953 28.1599C22.0953 27.8395 22.0953 27.5191 22.0953 27.1988C22.0953 26.558 22.0953 25.8104 22.0953 25.1696C22.0953 23.7813 22.2161 22.4997 22.4578 21.1114C22.4578 20.8978 22.0953 20.8978 22.0953 21.1114V21.0046Z" fill="#F6F6F6"/>
<path d="M23.0604 21.432C22.9396 22.6068 22.8188 23.7815 22.698 24.9563C22.698 25.4903 22.698 26.1311 22.5771 26.665C22.5771 26.9854 22.5771 27.3058 22.5771 27.5194C22.5771 27.8398 22.5771 28.1602 22.5771 28.3738C22.5771 28.6942 23.0604 28.5874 23.1812 28.3738C23.1812 28.1602 23.1812 27.8398 23.1812 27.5194C23.1812 27.199 23.1812 26.8786 23.1812 26.665C23.1812 26.0243 23.1812 25.4903 23.3021 24.8495C23.3021 23.6747 23.4229 22.5 23.5437 21.3252C23.5437 21.1116 23.1812 21.1116 23.0604 21.3252V21.432Z" fill="#F6F6F6"/>
<path d="M24.155 21.0043C23.9134 22.1791 23.6718 23.4606 23.5509 24.6354C23.5509 25.2762 23.3093 25.8101 23.3093 26.4509C23.3093 26.7713 23.3093 27.0917 23.1885 27.3053C23.1885 27.6257 23.1885 27.9461 23.1885 28.2664C23.1885 28.3732 23.4301 28.48 23.5509 28.2664C23.7926 28.0529 23.7926 27.7325 23.7926 27.4121C23.7926 27.0917 23.7926 26.7713 23.9134 26.5577C23.9134 25.9169 24.155 25.2762 24.155 24.6354C24.2759 23.3538 24.5175 22.1791 24.6383 20.8975C24.6383 20.6839 24.155 20.5771 24.155 20.8975V21.0043Z" fill="#F6F6F6"/>
<path d="M24.1496 21.6455C24.1496 22.8203 24.1496 23.9951 24.1496 25.1698C24.1496 25.7038 24.0287 26.3446 23.9079 26.8786C23.9079 27.1989 23.9079 27.4125 23.7871 27.7329C23.7871 28.0533 23.6663 28.2669 23.7871 28.5873C23.7871 28.6941 24.0287 28.6941 24.1496 28.5873C24.3912 28.3737 24.3912 28.0533 24.3912 27.8397C24.3912 27.5193 24.3912 27.3057 24.512 26.9854C24.512 26.3446 24.6328 25.8106 24.6328 25.1698C24.6328 23.9951 24.6328 22.8203 24.6328 21.6455C24.6328 21.432 24.2704 21.432 24.2704 21.6455H24.1496Z" fill="#F6F6F6"/>
<path d="M24.5173 22.0723C24.5173 23.1403 24.6381 24.1014 24.6381 25.1694C24.6381 25.7034 24.6381 26.2374 24.6381 26.7714C24.6381 27.3053 24.6381 27.8393 24.6381 28.2665C24.6381 28.5869 25.1214 28.4801 25.2422 28.2665C25.363 27.8393 25.2422 27.1985 25.2422 26.7714C25.2422 26.2374 25.2422 25.7034 25.2422 25.1694C25.2422 24.1014 25.1214 23.0335 24.8798 22.0723C24.8798 21.8587 24.3965 21.7519 24.3965 22.0723H24.5173Z" fill="#F6F6F6"/>
<path d="M18.7076 21.0048C19.6742 20.898 20.6407 20.7912 21.7281 20.6844C22.2114 20.6844 22.6947 20.6844 23.1779 20.6844C23.6612 20.6844 24.1445 20.6844 24.6278 20.6844C24.8694 20.6844 24.9902 20.364 24.6278 20.2572C24.1445 20.1504 23.5404 20.1504 23.0571 20.1504C22.5738 20.1504 22.0906 20.1504 21.6073 20.1504C20.6407 20.1504 19.5533 20.364 18.5868 20.6844C18.3451 20.6844 18.466 21.0048 18.5868 21.0048H18.7076Z" fill="#F6F6F6"/>
<path d="M19.084 20.6842C19.084 20.6842 20.0505 20.6842 20.5338 20.6842C21.0171 20.6842 21.5004 20.6842 21.9837 20.5774C22.4669 20.5774 22.9502 20.4706 23.4335 20.3638C23.796 20.3638 24.4001 20.1502 24.7625 19.9366C24.8833 19.9366 24.7625 19.6162 24.6417 19.6162C24.2792 19.6162 23.6751 19.723 23.3127 19.8298C22.8294 19.9366 22.4669 20.0434 21.9837 20.1502C21.5004 20.1502 21.1379 20.257 20.6546 20.3638C20.1714 20.3638 19.6881 20.5774 19.2048 20.5774V20.6842H19.084Z" fill="#F6F6F6"/>
<path d="M20.531 20.4703C21.2559 20.3635 21.9808 20.2567 22.5849 20.1499C22.9474 20.1499 23.3098 20.1499 23.6723 20.0431C24.0347 20.0431 24.3972 20.0431 24.6388 19.8295C24.8805 19.8295 24.7597 19.5091 24.6388 19.4023C24.2764 19.4023 23.9139 19.4023 23.5515 19.4023C23.189 19.4023 22.8265 19.5091 22.4641 19.6159C21.7392 19.7227 21.0142 19.9363 20.4101 20.1499C20.2893 20.1499 20.4101 20.4703 20.4101 20.3635L20.531 20.4703Z" fill="#F6F6F6"/>
<path d="M16.6739 21.4315C16.6739 21.4315 16.6739 21.2179 16.6739 21.1111C16.4322 21.0043 16.1906 21.3246 16.1906 21.5382C15.9489 22.6062 15.9489 23.6742 15.8281 24.7421H16.3114C16.3114 24.7421 16.3114 24.2081 16.3114 23.8878C16.3114 23.6742 16.3114 23.3538 16.3114 23.1402C16.3114 22.6062 16.3114 22.0722 16.4322 21.5382H16.1906C16.1906 21.5382 16.1906 22.4994 16.1906 23.0334C16.1906 23.4606 16.1906 23.9946 16.1906 24.4217C16.1906 24.8489 16.1906 25.3829 16.1906 25.8101C16.1906 26.3441 16.0698 26.7713 15.9489 27.3052C15.9489 27.6256 16.4322 27.6256 16.4322 27.3052C16.7947 26.3441 16.7947 25.2761 16.7947 24.3149C16.7947 23.781 16.7947 23.247 16.7947 22.8198C16.7947 22.2858 16.6739 21.8586 16.4322 21.4315H16.1906C16.1906 21.9654 16.1906 22.4994 16.1906 23.0334C16.1906 23.3538 16.1906 23.5674 16.1906 23.8878C16.1906 24.1014 16.0698 24.4217 16.0698 24.6353C16.0698 24.9557 16.553 24.9557 16.553 24.6353C16.553 23.9946 16.6739 23.4606 16.6739 22.8198C16.6739 22.4994 16.6739 22.2858 16.6739 21.9654C16.6739 21.8586 16.6739 21.645 16.6739 21.5382C16.6739 21.5382 16.6739 21.4314 16.6739 21.3247C16.6739 21.2179 16.6739 21.3247 16.9155 21.3247H16.6739V21.4315Z" fill="#F6F6F6"/>
<path d="M16.1815 21.6455C16.0607 22.2863 16.0607 22.9271 15.9399 23.5679C15.9399 24.2087 15.819 24.8494 15.819 25.597C15.819 26.2378 15.819 26.8786 15.6982 27.5193C15.6982 28.1601 15.4566 28.8009 15.6982 29.4417C15.6982 29.4417 15.9399 29.5485 15.9399 29.4417C16.3023 28.9077 16.1815 28.2669 16.3023 27.6261C16.3023 26.9854 16.3023 26.3446 16.4231 25.597C16.4231 24.9562 16.4231 24.3155 16.4231 23.6747C16.4231 23.0339 16.4231 22.3931 16.4231 21.6455C16.4231 21.432 16.0607 21.432 16.0607 21.6455H16.1815Z" fill="#F6F6F6"/>
<path d="M16.4322 21.1113C15.8281 21.3249 15.7073 22.0724 16.1906 22.3928C16.1906 22.3928 16.3114 22.3928 16.4322 22.3928C16.7947 21.9657 17.278 21.6453 17.6404 21.2181C17.5196 21.2181 17.3988 21.0045 17.278 21.0045C16.9155 21.3249 16.6739 21.7521 16.3114 22.0725C16.1906 22.1792 16.3114 22.4996 16.553 22.3928C17.1571 21.9657 17.7612 21.5385 18.2445 21.0045C18.1237 21.0045 18.0029 20.7909 17.8821 20.6841C17.5196 21.2181 17.0363 21.7521 16.553 22.1793C16.3114 22.3928 16.6739 22.7132 16.9155 22.4996C17.8821 21.8589 18.8486 21.2181 19.8152 20.6841C19.6944 20.5773 19.5735 20.4705 19.4527 20.3637C18.7278 21.4317 17.7612 22.286 16.553 23.0336C16.6739 23.1404 16.7947 23.354 16.9155 23.4608C18.0029 22.286 19.3319 21.4317 20.9026 20.7909C20.7817 20.6841 20.6609 20.5773 20.4193 20.3637C19.936 21.0045 19.3319 21.6453 18.7278 22.286C18.1237 22.82 17.3988 23.4608 16.6739 23.888C16.6739 23.9948 16.9155 24.1016 17.0363 24.2084C18.3653 22.9268 19.8152 21.7521 21.5067 20.8977C21.3858 20.7909 21.265 20.6841 21.0234 20.4705C19.6944 22.286 18.0029 23.9948 16.0698 25.3831C16.1906 25.4899 16.3114 25.5967 16.4322 25.7035C18.1237 24.1016 19.936 22.6064 21.9899 21.3249C21.8691 21.2181 21.7483 21.1113 21.5067 20.8977C19.936 22.82 18.1237 24.5288 15.9489 25.8103C16.0698 25.9171 16.1906 26.1307 16.3114 26.2375C18.3653 24.5288 20.5401 22.82 22.8357 21.3249C22.7149 21.2181 22.4732 21.1113 22.3524 21.0045C20.5401 23.1404 18.3653 25.0627 16.0698 26.6647C16.1906 26.7715 16.3114 26.8783 16.4322 27.0919C18.3653 25.3831 20.5401 23.7812 22.8357 22.3928C22.7149 22.286 22.594 22.1792 22.3524 21.9657C20.7817 23.888 18.8486 25.7035 16.6739 27.3055C16.7947 27.4123 16.9155 27.5191 17.0363 27.6259C18.607 26.1307 20.4193 24.8492 22.3524 23.7812C22.2316 23.6744 22.1108 23.4608 21.9899 23.354C20.2985 25.1695 18.4862 26.6647 16.4322 28.053C16.553 28.1598 16.6739 28.3734 16.7947 28.4802C18.4862 27.0919 20.2985 26.0239 22.2316 24.956C22.1108 24.7424 21.9899 24.6356 21.7483 24.422C20.1776 25.9171 18.4862 27.4123 16.6739 28.6938C16.4322 28.9074 16.6739 29.3346 17.0363 29.121C18.8486 27.9462 20.7817 26.8783 22.594 25.7035C22.4732 25.5967 22.3524 25.3831 22.2316 25.2763C20.7817 26.5579 19.0903 27.6259 17.3988 28.6938C17.3988 28.9074 17.6404 29.0142 17.7612 29.2278C19.0903 28.3734 20.4193 27.6259 21.9899 26.9851C21.8691 26.8783 21.7483 26.6647 21.6275 26.5579C20.1776 27.6259 18.7278 28.4802 17.0363 29.2278C17.0363 29.3346 17.278 29.5482 17.3988 29.655C18.4862 28.9074 19.6944 28.4802 21.0234 28.053C21.0234 27.9462 21.0234 27.8394 20.9026 27.7326C20.6609 27.8394 20.4193 28.053 20.0568 28.053C19.6944 28.053 19.4527 28.1598 19.0903 28.2666C18.4862 28.3734 17.8821 28.587 17.1571 28.6938C16.7947 28.6938 16.9155 29.3346 17.278 29.2278C18.2445 29.0142 19.3319 28.8006 20.2985 28.587C20.6609 28.587 20.5401 28.053 20.1776 28.053C19.2111 28.2666 18.1237 28.4802 17.1571 28.6938C17.1571 28.9074 17.278 29.0142 17.3988 29.2278C18.0029 29.0142 18.4862 28.8006 19.0903 28.587C19.3319 28.4802 19.6944 28.3734 19.936 28.2666C20.2985 28.1598 20.6609 28.1598 20.9026 28.053C21.1442 28.053 21.0234 27.7326 20.9026 27.7326C20.5401 27.7326 20.1776 27.7326 19.936 27.8394C19.5735 27.8394 19.3319 28.053 18.9694 28.1598C18.3653 28.3734 17.7612 28.6938 17.1571 29.121C16.7947 29.3346 17.1571 29.7618 17.5196 29.5482C19.2111 28.8006 20.7817 27.8394 22.2316 26.7715C22.4732 26.5579 22.2316 26.2375 21.8691 26.3443C20.4193 26.9851 18.9694 27.7326 17.6404 28.587C17.278 28.8006 17.6404 29.3346 18.0029 29.121C19.6944 28.053 21.3858 26.8783 22.9565 25.5967C23.1981 25.3831 22.9565 24.9559 22.594 25.1695C20.7817 26.3443 18.9694 27.4123 17.0363 28.587C17.1571 28.6938 17.278 28.9074 17.3988 29.0142C19.2111 27.7327 20.9026 26.2375 22.594 24.8492C22.8357 24.6356 22.594 24.2084 22.1108 24.3152C20.1776 25.2763 18.2445 26.6647 16.6739 28.053C16.4322 28.2666 16.6739 28.6938 17.0363 28.4802C19.0903 27.0919 21.0234 25.4899 22.8357 23.7812C23.0773 23.5676 22.8357 23.1404 22.4732 23.354C20.4193 24.422 18.607 25.8103 17.0363 27.4123C16.7947 27.6259 17.1571 27.9462 17.3988 27.7326C18.4862 26.8783 19.5735 26.1307 20.5401 25.1695C21.5067 24.3152 22.3524 23.354 23.1981 22.286C23.4398 22.0725 23.0773 21.7521 22.7149 21.8589C20.2985 23.2472 18.1237 24.8492 16.1906 26.6647C15.9489 26.8783 16.3114 27.1987 16.553 27.0919C18.8486 25.3831 21.0234 23.4608 22.9565 21.3249C23.1981 21.1113 22.9565 20.6841 22.594 20.8977C20.2985 22.3928 18.1237 24.1016 16.0698 25.9171C15.8281 26.1307 16.0698 26.5579 16.4322 26.3443C18.607 24.956 20.6609 23.2472 22.2316 21.3249C22.4732 21.1113 21.9899 20.7909 21.7483 20.8977C19.5735 22.0725 17.6404 23.5676 16.0698 25.3831C15.8281 25.5967 16.1906 26.0239 16.4322 25.7035C18.3653 24.2084 20.0568 22.6064 21.5067 20.6841C21.7483 20.4705 21.3858 20.1501 21.0234 20.2569C20.1776 20.6841 19.3319 21.2181 18.4862 21.7521C17.6404 22.3928 17.0363 23.0336 16.4322 23.7812C16.1906 23.9948 16.6739 24.2084 16.7947 24.1016C17.5196 23.5676 18.2445 23.0336 18.9694 22.4996C19.6944 21.8589 20.2985 21.2181 20.7817 20.5773C21.0234 20.3637 20.6609 20.0433 20.2985 20.1501C18.7278 20.7909 17.278 21.8589 16.1906 23.0336C15.9489 23.2472 16.1906 23.6744 16.553 23.4608C17.7612 22.7132 18.7278 21.7521 19.5735 20.5773C19.6944 20.3637 19.4527 20.1501 19.2111 20.2569C18.1237 20.7909 17.1571 21.4317 16.1906 22.0725C16.1906 22.1792 16.4322 22.3928 16.553 22.4996C17.1571 21.9657 17.5196 21.4317 17.8821 20.8977C18.0029 20.6841 17.6404 20.3637 17.5196 20.5773C17.0363 21.1113 16.553 21.5385 15.9489 21.9657L16.3114 22.286C16.3114 22.286 16.9155 21.5385 17.278 21.2181C17.3988 21.0045 17.1571 20.6841 16.9155 20.8977C16.553 21.3249 16.1906 21.7521 15.8281 22.0725C15.8281 22.0725 15.9489 22.0725 16.0698 22.0725C15.7073 21.8589 15.8281 21.3249 16.0698 21.2181C16.1906 21.2181 16.0698 21.0045 16.0698 21.0045H16.4322V21.1113Z" fill="#F6F6F6"/>
<path d="M17.1562 29.4409C17.1562 29.4409 17.2771 29.4409 17.3979 29.4409C17.3979 29.4409 17.6395 29.4409 17.7603 29.4409C18.002 29.4409 18.2436 29.4409 18.4853 29.3341C18.9685 29.3341 19.4518 29.2273 19.9351 29.0138C20.1767 29.0138 19.9351 28.6934 19.9351 28.6934C19.4518 28.6934 18.9685 28.6934 18.4853 28.8002C18.2436 28.8002 18.002 28.8002 17.7603 28.907C17.7603 28.907 17.5187 28.907 17.3979 28.907C17.2771 28.907 17.2771 28.907 17.1562 29.0138C17.0354 29.0138 17.1562 29.2273 17.1562 29.2273V29.4409Z" fill="#F6F6F6"/>
<path d="M18.4834 29.3345C19.4499 29.2277 20.4165 29.1209 21.5039 29.0141C21.9871 29.0141 22.4704 29.0141 22.9537 28.9073C23.437 28.9073 23.9203 28.9073 24.2827 28.6937C24.4035 28.6937 24.2827 28.4801 24.2827 28.4801C23.7994 28.3733 23.3162 28.4801 22.8329 28.4801C22.3496 28.4801 21.8663 28.4801 21.383 28.5869C20.4165 28.6937 19.4499 28.9073 18.4834 29.1209C18.2417 29.1209 18.4834 29.4412 18.4834 29.4412V29.3345Z" fill="#F6F6F6"/>
<path d="M22.3478 28.9071C22.3478 28.9071 23.1935 28.9071 23.556 28.9071C23.9184 28.9071 24.4017 28.6935 24.5225 28.3731C24.5225 28.2663 24.5225 28.0527 24.2809 28.0527C24.0392 28.0527 23.6768 28.2663 23.4351 28.3731C23.0727 28.3731 22.831 28.4799 22.4686 28.3731C22.1061 28.3731 21.9853 28.8003 22.3478 28.8003V28.9071Z" fill="#F6F6F6"/>
<path d="M24.3904 28.3738C24.3904 28.3738 24.5112 28.1602 24.3904 28.1602C24.2696 28.1602 24.2696 28.3738 24.3904 28.3738Z" fill="#F6F6F6"/>
<path d="M23.4268 26.1309C23.4268 26.1309 23.5476 26.8784 23.7892 27.3056C23.91 27.626 24.1517 28.0532 24.5141 28.16C24.5141 28.16 24.7558 28.16 24.7558 28.0532C24.7558 27.7328 24.3933 27.4124 24.2725 27.1988C24.0309 26.8784 23.91 26.558 23.7892 26.2377C23.7892 26.1309 23.4268 26.1309 23.4268 26.2377V26.1309Z" fill="#F6F6F6"/>
<path d="M23.6621 28.0524C23.6621 28.0524 23.6621 28.3728 23.7829 28.5864C23.7829 28.6932 24.0246 28.9068 24.2662 28.9068C24.387 28.9068 24.5078 28.8 24.5078 28.5864C24.5078 28.5864 24.5078 28.4796 24.387 28.4796C24.387 28.4796 24.387 28.4796 24.2662 28.4796C24.2662 28.4796 24.1454 28.266 24.1454 28.1592C24.1454 27.9456 23.6621 27.9456 23.6621 28.1592V28.0524Z" fill="#F6F6F6"/>
<path d="M24.748 28.2666C24.748 28.2666 24.748 28.3734 24.748 28.4802C24.748 28.4802 24.748 28.587 24.8689 28.6938C24.8689 28.8006 25.2313 28.6938 25.1105 28.6938V28.4802C25.1105 28.4802 25.1105 28.3734 24.9897 28.2666H24.748Z" fill="#F6F6F6"/>
<path d="M24.748 28.2666C24.748 28.2666 24.748 28.4802 24.748 28.6938C24.748 28.6938 24.748 28.9074 24.748 29.0142H24.9897C24.9897 29.0142 24.9897 28.8006 24.9897 28.6938C24.9897 28.587 24.9897 28.4802 24.9897 28.2666H24.8689H24.748Z" fill="#F6F6F6"/>
<path d="M24.8715 28.8005C24.8715 28.8005 24.9923 28.8005 25.1132 28.8005C25.1132 28.8005 25.1132 28.6937 25.1132 28.5869C25.1132 28.5869 24.9923 28.5869 24.8715 28.5869C24.8715 28.5869 24.6299 28.5869 24.6299 28.8005C24.6299 29.0141 24.7507 29.0141 24.8715 29.0141V28.8005Z" fill="#F6F6F6"/>
</svg>
