<svg width="40" height="40" viewBox="0 0 40 40" fill="none" xmlns="http://www.w3.org/2000/svg">
<rect width="40" height="40" rx="20" fill="#01615F"/>
<g clip-path="url(#clip0_2699_14948)">
<path d="M17.1208 11.7299C15.283 11.7299 13.4453 12.71 12.0977 14.0577C10.75 15.2828 9.76987 17.1205 9.52484 18.9583C9.27981 20.796 9.76987 22.7562 10.75 24.4714C11.8526 26.3091 13.4453 27.5343 15.4055 28.2694C17.6108 29.0045 20.1836 29.372 22.3889 28.7594C24.3491 28.2694 26.3093 27.2893 27.657 25.6966C29.1272 24.1039 30.1073 22.0211 30.3523 19.9384C30.5974 17.8556 30.3523 15.5279 29.0047 13.8127C27.657 12.0975 25.5743 11.3624 23.369 11.1173C21.0412 10.8723 18.4684 11.1173 16.1406 11.7299C15.5281 11.8524 15.038 12.22 14.5479 12.465C14.3029 12.5875 14.5479 12.9551 14.6705 12.8325C15.1605 12.8325 15.7731 12.5875 16.2631 12.465C16.7532 12.3425 17.3658 12.22 17.8558 12.0975C18.9585 11.8524 20.0611 11.8524 21.1637 11.8524C23.124 11.8524 25.3292 12.0975 26.9219 13.2001C28.5146 14.3027 29.1272 16.3855 29.2497 18.2232C29.2497 20.1834 28.7596 22.1436 27.657 23.8589C26.6769 25.4515 25.0842 26.6767 23.369 27.2893C21.4088 28.0244 19.2035 28.0244 17.1208 27.6568C15.1605 27.2893 13.3228 26.4317 12.0977 24.9615C10.995 23.6138 10.3824 22.0211 10.2599 20.3059C10.1374 16.8755 12.5877 13.5676 15.8956 12.5875C16.2631 12.5875 16.7532 12.3425 17.1208 12.22C17.4883 12.22 17.3658 11.6074 17.1208 11.6074V11.7299Z" fill="#F6F6F6"/>
<path d="M17.6108 15.7729C16.7532 15.7729 16.3857 16.8755 17.1208 17.3656C17.3658 17.6106 17.8559 17.6106 18.1009 17.3656C18.4685 16.9981 18.4685 16.6305 18.4685 16.1404C18.4685 15.8954 18.3459 15.7729 18.1009 15.6504C17.7334 15.6504 17.3658 15.6504 16.9983 15.8954C16.7532 16.1404 16.5082 16.508 16.6307 16.8755C16.7532 17.2431 17.1208 17.2431 17.3658 16.8755C17.3658 16.753 17.4883 16.6305 17.6108 16.508C17.6108 16.508 17.6108 16.508 17.7334 16.508C17.6108 16.508 17.4883 16.263 17.2433 16.1404C17.2433 16.3855 17.2433 16.508 17.1208 16.753C17.1208 16.753 17.1208 16.753 17.2433 16.6305C17.2433 16.6305 17.2433 16.508 17.3658 16.508C17.8559 16.508 17.8559 15.7729 17.3658 15.7729H17.6108Z" fill="#F6F6F6"/>
<path d="M23.4916 16.1405C23.4916 16.1405 22.7565 16.5081 22.634 16.8756C22.634 17.3657 22.879 17.7332 23.3691 17.7332C23.8591 17.7332 24.2267 17.4882 24.4717 17.1207C24.5942 16.6306 24.4717 16.1405 23.9817 15.8955C23.8591 15.8955 23.6141 15.8955 23.4916 15.8955C23.0015 16.1405 22.7565 16.5081 22.5115 16.9981C22.5115 17.2432 22.5115 17.4882 22.879 17.6107C23.2466 17.6107 23.6141 17.6107 23.8591 17.2432C24.1042 16.9981 24.2267 16.6306 23.8591 16.2631C23.6141 15.8955 23.124 16.018 23.124 16.5081L23.4916 17.1207C23.4916 17.1207 23.7366 16.7531 23.9817 16.6306H23.4916C23.4916 16.6306 23.4916 16.7531 23.4916 16.8756C23.9817 16.8756 23.9817 16.1405 23.4916 16.018V16.1405Z" fill="#F6F6F6"/>
<path d="M16.9984 21.1637C16.8759 21.2862 16.8759 21.5313 16.9984 21.6538C17.611 23.0014 19.2036 23.9816 20.6738 23.859C21.4089 23.859 22.144 23.4915 22.7566 23.0014C23.0016 22.7564 23.3691 22.5114 23.4917 22.1438C23.4917 22.0213 23.6142 21.8988 23.7367 21.6538C23.7367 21.6538 23.7367 21.5313 23.8592 21.4088C23.8592 21.2862 23.8592 21.1637 23.8592 20.9187C23.8592 20.4286 23.2466 20.3061 23.0016 20.6737C22.8791 20.9187 22.7566 21.2862 22.6341 21.5313C22.5115 21.7763 22.2665 22.0213 22.144 22.1438C21.6539 22.5114 21.1639 22.7564 20.5513 22.8789C19.3262 22.8789 18.101 22.2664 17.611 21.1637C17.611 21.0412 17.3659 20.9187 17.2434 20.9187H16.9984V21.1637Z" fill="#F6F6F6"/>
</g>
<defs>
<clipPath id="clip0_2699_14948">
<rect width="20.95" height="18.0096" fill="white" transform="translate(9.5249 10.9951)"/>
</clipPath>
</defs>
</svg>
