<svg width="16" height="17" viewBox="0 0 16 17" fill="none" xmlns="http://www.w3.org/2000/svg">
<path d="M9.15327 2.35612L10.3266 4.70279C10.4866 5.02946 10.9133 5.34279 11.2733 5.40279L13.3999 5.75612C14.7599 5.98279 15.0799 6.96946 14.0999 7.94279L12.4466 9.59612C12.1666 9.87612 12.0133 10.4161 12.0999 10.8028L12.5733 12.8495C12.9466 14.4695 12.0866 15.0961 10.6533 14.2495L8.65994 13.0695C8.29994 12.8561 7.70661 12.8561 7.33994 13.0695L5.34661 14.2495C3.91994 15.0961 3.05327 14.4628 3.42661 12.8495L3.89994 10.8028C3.98661 10.4161 3.83327 9.87612 3.55327 9.59612L1.89994 7.94279C0.926606 6.96946 1.23994 5.98279 2.59994 5.75612L4.72661 5.40279C5.07994 5.34279 5.50661 5.02946 5.66661 4.70279L6.83994 2.35612C7.47994 1.08279 8.51994 1.08279 9.15327 2.35612Z" fill="#01615F"/>
</svg>
