<svg width="37" height="36" viewBox="0 0 37 36" fill="none" xmlns="http://www.w3.org/2000/svg">
<path d="M0.602539 18C0.602539 8.05888 8.66141 0 18.6025 0C28.5437 0 36.6025 8.05888 36.6025 18C36.6025 27.9411 28.5437 36 18.6025 36C8.66141 36 0.602539 27.9411 0.602539 18Z" fill="#104D4D"/>
<path d="M8.14114 20.003C8.88796 20.1815 11.852 21.0732 12.4086 20.8104C13.121 20.4742 14.205 17.5335 15.1576 17.0092L16.5682 21.3434C17.7121 21.4248 18.8606 20.8658 19.9555 21.5083C20.0677 21.8939 20.0101 21.7856 19.7899 21.9383C19.2863 22.2878 16.5896 23.4252 16.4939 23.6313C16.3965 24.1695 17.5539 26.899 17.4977 27.069C17.4702 27.1516 17.2926 27.4529 17.1707 27.3522L13.8937 24.8097C13.1512 24.7832 10.8928 26.3228 10.3578 25.9441C10.5061 25.0377 10.8623 24.1383 11.4527 23.4254C10.4816 22.555 9.38379 21.7595 8.44949 20.8518C8.21868 20.6276 8.10889 20.45 8.04353 20.1382L8.14147 20.0026L8.14114 20.003Z" fill="#BDFFE1"/>
<path d="M28.9493 12.4894C28.2025 12.6679 25.2385 13.5595 24.6819 13.2968C23.9694 12.9606 22.8854 10.0198 21.9328 9.49551L20.5223 13.8298C19.3784 13.9111 18.2299 13.3521 17.1349 13.9946C17.0228 14.3803 17.0804 14.272 17.3005 14.4246C17.8042 14.7741 20.5009 15.9116 20.5965 16.1177C20.6939 16.6559 19.5365 19.3853 19.5927 19.5553C19.6202 19.6379 19.7979 19.9392 19.9198 19.8385L23.1968 17.296C23.9392 17.2695 26.1976 18.8091 26.7327 18.4304C26.5843 17.5241 26.2281 16.6246 25.6377 15.9117C26.6088 15.0414 27.7067 14.2458 28.641 13.3381C28.8718 13.1139 28.9816 12.9363 29.0469 12.6245L28.949 12.4889L28.9493 12.4894Z" fill="#BDFFE1"/>
</svg>
