<svg width="34" height="34" viewBox="0 0 34 34" fill="none" xmlns="http://www.w3.org/2000/svg">
<rect width="34" height="34" rx="6" fill="#01615F" fill-opacity="0.1"/>
<path d="M23.47 21.83L23.86 24.99C23.96 25.82 23.07 26.4 22.36 25.97L18.17 23.48C17.71 23.48 17.26 23.45 16.82 23.39C17.56 22.52 18 21.42 18 20.23C18 17.39 15.54 15.09 12.5 15.09C11.34 15.09 10.27 15.42 9.37997 16C9.34997 15.75 9.33997 15.5 9.33997 15.24C9.33997 10.69 13.29 7 18.17 7C23.05 7 27 10.69 27 15.24C27 17.94 25.61 20.33 23.47 21.83Z" stroke="#01615F" stroke-width="1.5" stroke-linecap="round" stroke-linejoin="round"/>
<path d="M18 20.2298C18 21.4198 17.56 22.5198 16.82 23.3898C15.83 24.5898 14.26 25.3598 12.5 25.3598L9.89 26.9098C9.45 27.1798 8.89 26.8098 8.95 26.2998L9.2 24.3298C7.86 23.3998 7 21.9098 7 20.2298C7 18.4698 7.94 16.9198 9.38 15.9998C10.27 15.4198 11.34 15.0898 12.5 15.0898C15.54 15.0898 18 17.3898 18 20.2298Z" stroke="#01615F" stroke-width="1.5" stroke-linecap="round" stroke-linejoin="round"/>
</svg>
