<svg width="210" height="297" viewBox="0 0 210 297" fill="none" xmlns="http://www.w3.org/2000/svg">
<path fill-rule="evenodd" clip-rule="evenodd" d="M124.177 143.612C126.009 142.526 128.265 142.526 130.096 143.612L130.108 143.619L130.108 143.619C133.672 145.746 146.526 154.561 146.526 171.711C146.526 181.025 142.709 187.931 138.68 192.575C137.204 194.275 134.629 194.457 132.929 192.982C131.228 191.506 131.046 188.931 132.522 187.231C135.585 183.701 138.373 178.622 138.373 171.711C138.373 160.487 130.88 153.949 127.137 151.393C123.393 153.949 115.901 160.487 115.901 171.711C115.901 173.963 114.075 175.788 111.824 175.788C109.572 175.788 107.747 173.963 107.747 171.711C107.747 154.561 120.601 145.746 124.166 143.619L124.177 143.612L124.177 143.612Z" fill="#BDFFE1"/>
<path fill-rule="evenodd" clip-rule="evenodd" d="M134.888 183.483C136.835 182.352 139.33 183.014 140.461 184.961C146.254 194.938 147.311 204.514 144.823 212.763C142.357 220.938 136.548 227.343 129.449 231.335C115.354 239.26 95.0308 238.148 83.4181 221.325C82.1391 219.472 82.6043 216.933 84.4572 215.654C86.31 214.375 88.8489 214.84 90.1279 216.693C98.8676 229.354 114.245 230.53 125.453 224.228C131.005 221.106 135.249 216.269 137.017 210.408C138.763 204.62 138.237 197.367 133.41 189.055C132.28 187.108 132.941 184.613 134.888 183.483Z" fill="#BDFFE1"/>
<path fill-rule="evenodd" clip-rule="evenodd" d="M96.8142 171.415C100.879 169.195 105.887 167.614 111.865 167.614C121.882 167.614 129.102 172.043 133.725 176.367C136.029 178.522 137.716 180.672 138.833 182.292C139.394 183.105 139.817 183.792 140.107 184.292C140.253 184.542 140.365 184.746 140.446 184.895C140.486 184.97 140.518 185.031 140.543 185.078L140.573 185.138L140.584 185.16L140.59 185.172C140.591 185.174 140.592 185.175 136.946 186.998C140.592 188.822 140.591 188.823 140.59 188.825L140.588 188.829L140.584 188.837L140.573 188.859L140.543 188.918C140.518 188.965 140.486 189.027 140.446 189.102C140.365 189.251 140.253 189.455 140.107 189.705C139.817 190.205 139.394 190.892 138.833 191.705C137.716 193.325 136.029 195.475 133.725 197.63C129.102 201.954 121.882 206.383 111.865 206.383C105.902 206.383 100.873 204.804 96.813 202.581C85.2771 196.287 84.5763 180.271 94.6919 172.78V172.575L96.8142 171.415ZM136.946 186.998L140.592 188.822L141.504 186.998L140.592 185.175L136.946 186.998ZM133.304 185.166C133.306 185.162 133.307 185.16 133.307 185.16L133.305 185.165L133.304 185.166ZM132.175 186.998C132.157 187.024 132.14 187.05 132.122 187.076C131.26 188.326 129.944 190.003 128.156 191.675C124.596 195.005 119.274 198.229 111.865 198.229C107.393 198.229 103.699 197.057 100.727 195.429L100.72 195.425C94.0985 191.814 94.092 182.203 100.723 178.581L101.295 178.268C104.177 176.796 107.668 175.767 111.865 175.767C119.274 175.767 124.596 178.992 128.156 182.322C129.944 183.994 131.26 185.671 132.122 186.921C132.14 186.947 132.157 186.973 132.175 186.998ZM133.304 188.831C133.306 188.835 133.307 188.837 133.307 188.837L133.305 188.832L133.304 188.831Z" fill="#BDFFE1"/>
<path d="M209.413 247.014C209.446 237.428 209.487 227.839 209.502 218.253C209.502 216.426 209.409 214.595 209.335 212.768C209.309 212.107 209.209 211.446 209.153 210.785C209.112 210.298 209.071 209.811 209.06 209.321C209.049 208.916 209.101 208.508 209.082 208.103C209.008 206.684 208.96 205.262 208.822 203.847C208.44 199.832 208.046 195.814 207.6 191.807C207.322 189.296 207.017 186.785 206.598 184.297C206.007 180.806 205.302 177.333 204.641 173.857C204.206 171.577 203.716 169.304 203.329 167.013C202.817 163.978 202.397 160.933 201.907 157.895C201.718 156.721 201.428 155.563 201.22 154.393C200.667 151.306 200.136 148.217 199.597 145.127C199.274 143.266 198.921 141.413 198.643 139.548C198.223 136.733 197.87 133.911 197.465 131.092C197.075 128.362 196.611 125.64 196.266 122.906C195.917 120.139 195.653 117.365 195.393 114.591C194.866 108.953 194.223 103.319 194.097 97.6555C194.022 94.4912 193.974 91.3196 194.112 88.1591C194.32 83.4016 194.825 78.6663 195.441 73.9423C195.586 72.8318 195.675 71.7139 195.805 70.4623C195.07 70.6295 194.45 70.7446 193.844 70.9117C188.515 72.3527 183.167 73.7083 177.711 74.5885C174.097 75.1716 170.487 75.7658 166.863 76.2672C163.643 76.7128 160.404 77.0657 157.169 77.4073C152.089 77.9458 147.008 78.5104 141.916 78.9189C139.172 79.138 136.401 79.06 133.642 79.0972C131.752 79.1232 131.703 79.0266 131.674 77.1511C131.584 71.7511 131.648 66.3511 130.949 60.9696C130.247 55.551 129.471 50.1547 128.108 44.8587C126.508 38.6417 124.275 32.6809 121.015 27.1212C118.274 22.4454 115.262 17.9738 111.455 14.0891C107.997 10.5572 104.313 7.26667 100.417 4.2287C99.2289 3.30022 98.0071 2.40145 96.7221 1.6141C94.5234 0.262241 92.1577 0.00226867 89.6916 0.849037C87.2739 1.67724 85.2758 3.14051 83.5154 4.95661C83.0512 5.4357 82.6018 5.92966 82.1376 6.40875C81.8664 6.6873 81.5656 6.71329 81.1868 6.56473C80.7077 6.37904 80.1989 6.25647 79.6901 6.16362C78.7468 5.9965 77.8035 5.84424 76.8527 5.73654C75.7348 5.61398 74.6132 5.54342 73.4953 5.458C73.3542 5.44686 73.2094 5.50628 73.0682 5.53228C72.5557 5.62884 72.0469 5.74396 71.5307 5.81823C67.2708 6.42731 63.6275 8.22113 60.6378 11.3482C59.4457 12.5961 58.4763 14 57.5293 15.4298C55.8357 17.9887 54.5173 20.7295 53.5257 23.6264C51.873 28.447 51.1674 33.4348 50.9891 38.508C50.9594 39.3139 50.8183 40.1161 50.7477 40.922C50.7143 41.3268 50.614 41.7688 50.7366 42.129C51.0745 43.1503 51.0077 44.1865 51.0597 45.2301C51.2862 49.8799 52.1033 54.4592 52.9129 59.031C53.5405 62.5777 54.3836 66.0762 55.2341 69.5747C56.2851 73.8903 57.2544 78.2281 58.2535 82.5548C58.3018 82.7702 58.3055 82.9967 58.3352 83.2976C57.9935 83.3421 57.7113 83.409 57.4327 83.4164C55.6983 83.461 53.9639 83.4981 52.2296 83.5241C51.3011 83.539 50.3689 83.5167 49.4404 83.5241C46.1313 83.5613 42.8185 83.6207 39.5095 83.6393C37.7676 83.6504 36.0258 83.591 34.2877 83.5575C33.6712 83.5464 33.0695 83.5613 32.6239 84.1258C32.323 83.7433 32.0371 83.5167 31.5654 83.5353C30.1727 83.591 28.78 83.6021 27.3836 83.6133C25.3781 83.6281 23.3763 83.6504 21.3708 83.6207C20.628 83.6096 19.8778 83.3384 19.1759 83.8212C19.0942 83.877 18.9456 83.8695 18.8342 83.8547C17.0812 83.6355 15.2948 84.0626 13.5493 83.6058C13.3859 83.565 13.2039 83.5947 13.0294 83.5984C11.8409 83.6355 10.6525 83.6764 9.46029 83.7135C7.71848 83.7693 5.97295 83.7767 4.23485 83.8881C3.10582 83.9624 1.98422 84.1964 1.01489 84.85C0.175554 85.4182 -0.0435608 86.187 0.324115 87.1229C0.762355 88.2334 1.58684 88.8313 2.76785 88.9353C3.54777 89.0059 4.33512 89.0356 5.11132 89.121C5.52357 89.1656 5.92839 89.2918 6.42976 89.3995C5.94324 90.1943 5.60899 90.9185 5.10762 91.5016C4.70652 91.9695 4.11601 92.2889 3.58863 92.6417C1.86167 93.7967 1.19316 95.6314 1.8171 97.4884C2.10678 98.3463 2.61188 98.9702 3.50693 99.2079C4.4614 99.4642 5.41587 99.6981 6.37406 99.9395C7.20226 100.148 7.25796 100.196 7.2951 101.05C7.36566 102.758 7.41766 104.467 7.48079 106.175C7.48451 106.316 7.52536 106.457 7.55136 106.599C7.63306 107.052 7.77048 107.505 7.78905 107.962C7.87076 109.696 7.87447 111.434 7.98217 113.168C8.1233 115.419 8.14931 117.673 8.45756 119.917C8.54669 120.57 8.45383 121.25 8.49097 121.915C8.58011 123.564 8.75838 125.209 8.79552 126.858C8.87351 130.286 8.88093 133.714 8.92921 137.138C8.93292 137.454 8.99606 137.766 9.04062 138.078C9.09633 138.475 9.20404 138.872 9.21147 139.273C9.25604 141.45 9.26347 143.63 9.31175 145.806C9.41203 150.452 9.52345 155.098 9.63858 159.744C9.66829 160.985 9.47145 162.244 9.89484 163.462C9.93198 163.566 9.9171 163.692 9.92081 163.807C9.98766 166.857 10.0471 169.902 10.1251 172.951C10.2662 178.47 10.4185 183.985 10.5745 189.504C10.7193 194.555 10.8753 199.609 11.0239 204.66C11.0536 205.726 10.8642 206.807 11.2504 207.851C11.3172 208.033 11.2913 208.252 11.2987 208.456C11.3432 209.789 11.4027 211.126 11.4212 212.459C11.5401 219.75 11.6441 227.04 11.7666 234.331C11.7778 234.903 11.9226 235.475 11.9412 236.046C11.9597 236.644 11.9115 237.25 11.8743 237.848C11.8558 238.163 11.7666 238.475 11.7629 238.791C11.6924 245.873 11.6626 252.956 11.0907 260.031C10.853 262.983 10.749 265.943 10.3628 268.885C9.73883 273.605 9.14091 278.329 8.52069 283.053C8.29414 284.78 7.92646 286.496 8.08244 288.249C8.23843 290.006 9.15206 291.209 10.801 291.855C12.3683 292.468 13.9541 292.561 15.5845 292.145C16.7841 291.837 17.9948 291.569 19.3133 291.257C19.3541 291.391 19.4098 291.551 19.4507 291.714C19.7887 293.036 20.1303 294.358 20.7691 295.58C21.0922 296.204 21.2445 296.241 21.9353 296.108C22.5518 295.989 23.1906 295.978 23.822 295.959C24.1673 295.948 24.5164 296.056 24.8618 296.041C27.9072 295.922 30.9526 295.837 33.9906 295.647C37.088 295.454 40.1817 295.172 43.279 294.912C49.0096 294.429 54.7253 293.842 60.389 292.784C63.1261 292.275 65.9078 292.011 68.6636 291.595C72.1955 291.064 75.72 290.481 79.2482 289.931C83.3817 289.289 87.519 288.68 91.6489 288.026C94.6311 287.555 97.5985 286.971 100.588 286.552C103.173 286.191 105.784 285.969 108.384 285.735C113.501 285.278 118.615 284.791 123.741 284.45C127.332 284.212 130.938 284.153 134.537 284.101C139.562 284.03 144.587 284.008 149.615 284.023C153.508 284.034 157.4 284.101 161.288 284.216C164.679 284.316 168.066 284.505 171.457 284.665C174.647 284.817 177.841 284.925 181.028 285.163C184.385 285.412 187.739 285.731 191.077 286.125C193.755 286.44 196.418 286.893 199.081 287.335C200.485 287.569 201.866 287.922 203.263 288.186C203.612 288.253 204.031 288.275 204.351 288.149C206.408 287.309 207.597 285.753 207.886 283.558C208.039 282.411 208.124 281.248 208.15 280.09C208.239 276.171 208.291 272.25 208.358 268.328C208.358 268.183 208.343 268.019 208.406 267.897C208.793 267.135 208.722 266.315 208.755 265.505C208.871 262.809 209.001 260.113 209.082 257.413C209.131 255.786 209.101 254.159 209.108 252.532C209.108 252.358 209.082 252.165 209.153 252.016C209.495 251.299 209.405 250.538 209.413 249.788C209.42 248.859 209.417 247.927 209.42 246.999L209.413 247.014ZM20.472 90.3503C19.9075 90.5991 19.5101 90.666 19.1201 90.3503H20.472ZM19.1127 90.3503C19.0681 90.8814 18.6262 90.8628 18.2771 90.9111C17.7609 90.9779 17.2372 90.9817 16.7173 91.0114C15.3023 91.0894 13.8836 91.1711 12.4686 91.2416C12.2569 91.2528 12.0452 91.223 11.8298 91.2119C11.8298 91.1488 11.8224 91.0819 11.8224 91.0188C14.2512 90.7959 16.6838 90.5731 19.1127 90.3503ZM24.5053 162.872C24.5053 163.328 24.3865 163.781 24.327 164.238C24.301 164.439 24.2713 164.639 24.2676 164.844C24.1525 169.256 24.0373 173.668 23.9259 178.084C23.9036 178.953 23.9185 179.826 23.8702 180.695C23.8368 181.296 23.7254 181.89 23.6511 182.492C23.6251 182.693 23.6028 182.897 23.5954 183.097C23.4097 189.426 23.1609 195.758 23.0569 202.087C22.9158 210.859 22.9083 219.631 22.8043 228.403C22.7338 234.446 22.5964 240.485 22.4849 246.527C22.4812 246.757 22.485 247.021 22.3847 247.21C22.0356 247.838 22.173 248.507 22.1433 249.164C21.9576 253.283 21.7756 257.401 21.5527 261.52C21.4488 263.462 21.3188 265.405 21.0885 267.336C20.628 271.172 20.5277 275.031 20.2826 278.883C20.1786 280.502 20.0598 282.125 20.0003 283.744C19.9706 284.531 19.629 284.966 18.8899 285.189C17.694 285.549 16.5241 285.98 15.3246 286.325C14.3218 286.615 14.0507 286.388 14.1175 285.322C14.1881 284.193 14.2958 283.061 14.4444 281.939C14.8566 278.86 15.384 275.793 15.7145 272.706C16.1008 269.13 16.3681 265.542 16.6095 261.951C16.8361 258.594 16.9772 255.225 17.1221 251.864C17.2075 249.862 17.2186 247.86 17.2669 245.859C17.2706 245.658 17.2669 245.446 17.3226 245.257C17.7943 243.63 17.6346 242 17.3746 240.366C17.3375 240.135 17.3078 239.905 17.304 239.675C17.2001 233.577 17.1444 227.479 16.9884 221.38C16.8992 217.926 16.6281 214.48 16.4759 211.026C16.3384 207.836 16.2493 204.642 16.1416 201.448C16.1379 201.303 16.1787 201.143 16.1305 201.017C15.6997 199.892 15.9076 198.718 15.8668 197.563C15.7145 193.47 15.566 189.378 15.436 185.285C15.2057 178.087 14.9903 170.886 14.7712 163.689C14.734 162.5 14.7637 161.315 14.5223 160.134C14.3849 159.466 14.5372 158.745 14.5075 158.051C14.4184 155.964 14.2884 153.876 14.2029 151.789C14.1398 150.222 14.125 148.655 14.0915 147.088C14.0915 146.943 14.1249 146.794 14.0989 146.657C13.5196 143.474 13.6459 140.25 13.5233 137.038C13.4453 135.036 13.5159 133.023 13.3153 131.032C13.0999 128.893 13.1148 126.754 12.9997 124.618C12.8882 122.531 12.9031 120.433 12.6505 118.364C12.2977 115.452 12.2569 112.526 12.0563 109.607C11.8372 106.424 11.6404 103.238 11.4361 100.051C11.4249 99.8839 11.4584 99.7167 11.4732 99.5051C15.2243 99.104 18.8788 98.7102 22.6335 98.3054C22.6595 98.6322 22.6966 98.9071 22.7003 99.1856C22.7263 100.433 22.7115 101.685 22.7709 102.933C22.8118 103.798 22.9492 104.66 23.042 105.522C23.068 105.752 23.094 105.982 23.0977 106.216C23.1794 110.454 23.25 114.691 23.3391 118.929C23.406 122.089 23.5025 125.25 23.5768 128.407C23.5954 129.212 23.5026 130.007 23.7737 130.817C23.9408 131.315 23.8219 131.909 23.8331 132.462C23.8814 134.932 23.8925 137.398 23.9854 139.864C24.0782 142.326 24.2713 144.785 24.3864 147.247C24.4199 147.964 24.3307 148.684 24.2973 149.405C24.2899 149.576 24.2676 149.747 24.2825 149.914C24.3493 150.66 24.483 151.407 24.4904 152.157C24.5164 155.73 24.5164 159.303 24.509 162.875L24.5053 162.872ZM87.5524 6.00023C88.5218 5.25374 89.5579 4.61123 90.713 4.18042C92.1799 3.63447 93.6432 3.63819 94.9839 4.48496C96.2318 5.27602 97.4574 6.11908 98.5901 7.06612C100.592 8.74109 102.523 10.5052 104.469 12.247C107.659 15.0955 110.671 18.1261 113.23 21.5615C114.705 23.5372 116.09 25.5799 117.308 27.7377C118.898 30.5491 120.42 33.3865 121.616 36.3836C124.112 42.6415 125.898 49.0889 126.611 55.811C126.868 58.2362 127.139 60.6577 127.403 63.0828C127.926 67.9406 127.781 72.8207 127.8 77.6933C127.8 77.8939 127.759 78.0981 127.748 78.2987C127.722 78.7481 127.466 78.9746 127.042 79.0452C126.842 79.0786 126.645 79.1343 126.444 79.1529C123.091 79.4648 119.737 79.7694 116.383 80.0813C115.314 80.1816 114.248 80.3153 113.178 80.423C112.421 80.4973 112.324 80.4305 112.265 79.6505C112.146 78.0276 112.086 76.4009 111.949 74.7816C111.722 72.1559 111.444 69.5302 111.203 66.9044C111.113 65.95 111.084 64.9918 110.991 64.0373C110.842 62.5109 110.653 60.9882 110.504 59.4581C110.411 58.5036 110.393 57.5454 110.296 56.5909C109.687 50.5224 109.698 44.4168 109.112 38.3483C108.647 33.5425 107.37 29.0004 104.974 24.7963C102.779 20.945 99.9234 17.6359 96.5624 14.7687C93.9255 12.5181 91.1103 10.5312 87.8941 9.16074C87.0733 8.81164 86.2971 8.35484 85.3055 7.85347C86.1337 7.17011 86.8282 6.56473 87.5599 6.00393L87.5524 6.00023ZM80.262 14.2302C80.5294 13.7511 80.8823 13.3203 81.198 12.8672C81.4616 12.4921 81.7773 12.3956 82.249 12.5144C85.3575 13.298 88.2061 14.6128 90.7984 16.5031C95.1956 19.7119 98.8687 23.5818 101.543 28.3393C103.114 31.1322 103.916 34.185 104.369 37.3455C104.766 40.1347 104.956 42.9424 105.208 45.7464C105.543 49.4788 105.606 53.2187 105.855 56.9512C106.089 60.4497 106.248 63.9519 106.441 67.4541C106.582 70.0612 106.735 72.6684 106.865 75.2756C106.95 76.9877 107.028 78.6998 107.08 80.4119C107.106 81.2624 106.991 81.4109 106.118 81.5483C104.855 81.7452 103.589 81.9123 102.319 82.0386C99.4852 82.3171 96.6515 82.5696 93.8178 82.8111C88.5849 83.2604 83.3409 83.4239 78.0894 83.3979C77.9149 83.3979 77.7403 83.3979 77.5658 83.4053C77.1869 83.4201 76.9752 83.2307 76.8898 82.8668C76.745 82.2428 76.5816 81.6263 76.4442 81.0024C76.1099 79.4723 75.7497 77.9458 75.4637 76.4046C75.174 74.8373 74.9474 73.2552 74.7283 71.6731C74.4944 69.9758 74.331 68.2711 74.0933 66.5739C73.3913 61.5267 73.2576 56.4535 73.3468 51.3655C73.5102 47.2765 73.6327 43.1838 73.8593 39.0948C73.9521 37.3901 74.2381 35.6928 74.4907 33.9993C74.8212 31.7598 75.1257 29.5129 75.5863 27.2994C76.537 22.7313 77.978 18.3229 80.262 14.2265V14.2302ZM57.9601 65.274C57.1765 61.9352 56.6045 58.5593 56.118 55.1685C55.858 53.3598 55.5386 51.5586 55.3121 49.7425C55.0558 47.6702 54.7773 45.5941 54.6919 43.5143C54.6139 41.5496 54.7736 39.5739 54.833 37.6018C54.8404 37.4012 54.8441 37.1821 54.9221 37.0038C55.4012 35.8822 55.3381 34.6715 55.5238 33.5016C56.0846 29.9994 56.8942 26.5678 58.2684 23.2699C59.1374 21.1864 60.2627 19.27 61.5291 17.4316C63.1558 15.077 65.4287 13.4837 67.9876 12.2693C70.9067 10.884 73.9633 10.702 77.0978 11.2331C77.2686 11.2628 77.4358 11.3185 77.5955 11.3854C77.6697 11.4151 77.7217 11.4968 77.848 11.6156C77.6697 11.987 77.4989 12.3733 77.3021 12.7521C76.1619 14.9173 75.3448 17.2162 74.5426 19.5225C73.9781 21.1381 73.3839 22.7536 72.9605 24.41C72.3923 26.6272 71.9318 28.8778 71.5121 31.1322C71.1593 33.0151 70.9773 34.9241 70.643 36.8107C69.982 40.5432 70.086 44.3277 69.7926 48.0824C69.5734 50.8938 69.67 53.7015 69.6069 56.5092C69.592 57.1072 69.7257 57.7088 69.7703 58.3105C69.8371 59.1795 69.878 60.0486 69.9485 60.9176C70.2865 65.1701 70.5799 69.4299 70.9885 73.6786C71.267 76.5643 71.553 79.4611 72.2103 82.2985C72.2735 82.5734 72.2772 82.8631 72.3254 83.2864C71.9058 83.3459 71.5975 83.4201 71.2893 83.4239C68.645 83.4573 66.0007 83.4833 63.3601 83.5019C62.5616 83.5056 62.5022 83.4944 62.2422 82.6959C61.8894 81.6226 61.5886 80.527 61.3063 79.4351C60.5933 76.6794 59.8727 73.9274 59.2117 71.1606C58.7474 69.2108 58.4206 67.2313 57.9638 65.2815L57.9601 65.274ZM203.701 246.416C203.445 249.056 203.575 251.689 203.478 254.323C203.381 256.933 203.359 259.552 203.281 262.163C203.207 264.603 203.188 267.046 202.98 269.475C202.717 272.602 202.78 275.737 202.531 278.86C202.449 279.904 202.394 280.948 202.319 281.987C202.308 282.125 202.256 282.259 202.23 282.37C202.134 282.414 202.082 282.463 202.03 282.459C199.11 282.218 196.214 281.831 193.347 281.215C192.411 281.014 191.467 280.818 190.517 280.728C186.669 280.379 182.821 280.012 178.97 279.77C173.232 279.41 167.487 279.072 161.741 278.86C151.521 278.481 141.3 278.259 131.072 278.545C127.001 278.656 122.953 278.998 118.905 279.395C112.402 280.034 105.899 280.71 99.4072 281.441C96.7555 281.739 94.126 282.247 91.478 282.611C88.3435 283.042 85.2015 283.443 82.0559 283.811C76.3142 284.479 70.5688 285.096 64.8271 285.768C61.5106 286.154 58.2015 286.633 54.885 287.02C50.2092 287.566 45.5371 288.104 40.8539 288.561C37.6191 288.877 34.3694 289.047 31.1235 289.296C30.1393 289.371 29.1588 289.493 28.1746 289.571C27.8032 289.601 27.4281 289.575 26.8896 289.575C27.0976 289.345 27.1904 289.152 27.3353 289.1C27.9072 288.895 28.4829 288.676 29.0771 288.565C32.2153 287.978 35.361 287.425 38.503 286.86C43.5353 285.958 48.5788 285.118 53.5925 284.127C57.3807 283.376 61.1058 282.329 64.7714 281.1C66.2829 280.591 67.7834 280.034 69.2652 279.443C70.5205 278.942 71.7015 278.311 72.266 276.959C72.2995 276.881 72.3292 276.799 72.3514 276.714C72.3589 276.691 72.3329 276.662 72.2957 276.565C72.11 276.554 71.8909 276.528 71.6718 276.524C68.177 276.469 64.7157 276.922 61.2469 277.245C55.1709 277.809 49.1173 278.589 43.1156 279.67C37.8568 280.617 32.6276 281.716 27.3836 282.749C26.9899 282.827 26.5962 282.894 26.0837 282.99C25.9871 282.14 25.8646 281.375 25.8163 280.602C25.742 279.414 25.6677 278.222 25.6826 277.033C25.7123 275.065 25.7606 273.093 25.9017 271.132C26.2545 266.211 26.6334 261.29 27.053 256.373C27.3501 252.9 27.3279 249.42 27.4504 245.944C27.8701 234.067 27.4876 222.182 27.6733 210.302C27.729 206.733 27.9258 203.164 28.0484 199.595C28.1746 195.996 28.2935 192.393 28.4086 188.795C28.4346 187.992 28.2749 187.183 28.6314 186.399C28.754 186.132 28.6797 185.768 28.6797 185.448C28.702 176.702 28.7243 167.96 28.7354 159.213C28.7354 158.872 28.6203 158.53 28.6055 158.188C28.5757 157.527 28.5014 156.855 28.5832 156.205C28.7428 154.939 28.9323 153.691 28.5646 152.421C28.468 152.083 28.5423 151.674 28.624 151.314C28.7392 150.794 28.8431 150.304 28.6091 149.784C28.5052 149.554 28.4866 149.275 28.4792 149.019C28.3789 145.739 28.2786 142.46 28.1932 139.181C28.1301 136.715 28.0929 134.249 28.0409 131.779C28.0409 131.608 28.0521 131.393 27.9592 131.274C27.521 130.713 27.6324 130.074 27.6138 129.439C27.5581 127.497 27.4616 125.554 27.3799 123.612C27.287 121.473 27.0939 119.341 27.0196 117.202C26.8785 113.168 26.5739 109.143 26.3437 105.113C26.21 102.792 26.1023 100.474 25.9649 98.1532C25.9389 97.7112 26.1431 97.6035 26.5219 97.5738C27.7661 97.4698 29.0103 97.351 30.2507 97.2321C34.414 96.8348 38.5736 96.4151 42.7368 96.04C44.4712 95.884 46.2316 95.9397 47.9474 95.6946C49.5073 95.4717 51.0634 95.4457 52.6269 95.3937C56.0214 95.2786 59.4197 95.1784 62.8142 95.0409C63.8838 95.0001 64.9497 94.8626 66.0155 94.7772C66.3349 94.7512 66.6543 94.7512 66.9737 94.7438C69.3543 94.6844 71.7349 94.6361 74.1118 94.5655C74.9326 94.5433 74.992 94.5433 75.1777 95.3529C76.0579 99.1745 76.9047 103 77.8035 106.818C78.3902 109.306 79.0365 111.779 79.6864 114.249C80.3735 116.86 81.0568 119.475 81.8145 122.067C82.2861 123.683 82.8803 125.261 83.4374 126.85C83.5711 127.233 83.7383 127.608 83.9277 127.965C84.6742 129.361 86.6425 129.747 87.8904 128.763C88.2655 128.466 88.2915 128.095 88.1875 127.668C87.6787 125.58 87.2145 123.482 86.6611 121.406C84.9267 114.866 83.1403 108.34 81.4097 101.796C80.8154 99.5496 80.3289 97.2767 79.7941 95.0186C79.7421 94.7958 79.7013 94.573 79.6233 94.2127C80.2843 94.157 80.8266 94.1013 81.3688 94.0716C85.7512 93.8116 90.1002 93.2694 94.4454 92.6826C97.4685 92.2741 100.495 91.925 103.522 91.5685C108.339 90.9965 113.156 90.4505 117.973 89.8749C120.77 89.5406 123.562 89.1656 126.359 88.8202C126.608 88.7904 126.864 88.8164 127.195 88.8164C127.221 89.4441 127.254 90.016 127.265 90.588C127.343 94.6547 127.358 98.7214 127.514 102.784C127.625 105.681 127.9 108.574 128.153 111.464C128.613 116.756 129.208 122.037 130.285 127.244C130.519 128.373 130.931 129.472 131.328 130.561C131.774 131.783 132.702 132.373 134.002 132.429C135.016 132.473 135.484 132.016 135.328 131.017C135.042 129.209 134.719 127.408 134.437 125.603C134.117 123.567 133.813 121.528 133.519 119.486C133.103 116.556 132.673 113.625 132.309 110.688C132.115 109.131 132.086 107.557 131.919 106.001C131.399 101.143 131.25 96.2702 131.191 91.3901C131.183 90.6399 131.009 89.8935 130.953 89.1433C130.894 88.3336 130.934 88.2891 131.692 88.1628C134.674 87.6726 137.653 87.1786 140.639 86.7255C142.96 86.3727 145.289 86.0199 147.625 85.7822C149.701 85.5705 151.792 85.4405 153.879 85.4145C155.944 85.3885 157.979 85.1397 160.025 84.9577C160.776 84.8908 161.533 84.8537 162.283 84.772C169.533 83.9772 176.742 82.915 183.85 81.2624C185.12 80.969 186.346 80.501 187.594 80.1148C187.861 80.0331 188.132 79.9551 188.552 79.8325C188.552 80.3822 188.552 80.8056 188.552 81.229C188.537 86.6884 188.455 92.1515 188.533 97.6109C188.574 100.452 188.856 103.293 189.09 106.127C189.447 110.439 189.785 114.754 190.26 119.055C190.643 122.516 191.211 125.959 191.712 129.409C192.37 133.922 193.02 138.434 193.718 142.939C194.164 145.81 194.695 148.666 195.185 151.526C196.455 158.968 197.703 166.415 199.003 173.854C199.66 177.631 200.436 181.385 201.097 185.159C201.64 188.245 202.174 191.339 202.561 194.447C202.876 196.98 202.98 199.539 203.159 202.087C203.277 203.795 203.363 205.503 203.471 207.212C203.541 208.315 203.27 209.41 203.716 210.532C203.987 211.219 203.842 212.081 203.849 212.864C203.913 221.232 203.998 229.599 204.009 237.963C204.013 240.778 203.961 243.604 203.69 246.401L203.701 246.416Z" fill="#BDFFE1"/>
</svg>
