<svg width="25" height="25" viewBox="0 0 25 25" fill="none" xmlns="http://www.w3.org/2000/svg">
<path d="M19.8008 13.0293C19.8008 11.6493 20.9208 10.5293 22.3008 10.5293V9.5293C22.3008 5.5293 21.3008 4.5293 17.3008 4.5293H7.30078C3.30078 4.5293 2.30078 5.5293 2.30078 9.5293V10.0293C3.68078 10.0293 4.80078 11.1493 4.80078 12.5293C4.80078 13.9093 3.68078 15.0293 2.30078 15.0293V15.5293C2.30078 19.5293 3.30078 20.5293 7.30078 20.5293H17.3008C21.3008 20.5293 22.3008 19.5293 22.3008 15.5293C20.9208 15.5293 19.8008 14.4093 19.8008 13.0293Z" stroke="#252525" stroke-width="1.5" stroke-linecap="round" stroke-linejoin="round"/>
<path opacity="0.4" d="M10.3008 4.5293L10.3008 20.5293" stroke="#252525" stroke-width="1.5" stroke-linecap="round" stroke-linejoin="round" stroke-dasharray="5 5"/>
</svg>
