<svg width="52" height="52" viewBox="0 0 52 52" fill="none" xmlns="http://www.w3.org/2000/svg">
<path d="M25.828 51.2078C39.9665 51.2078 51.428 39.7463 51.428 25.6078C51.428 11.4693 39.9665 0.0078125 25.828 0.0078125C11.6895 0.0078125 0.228027 11.4693 0.228027 25.6078C0.228027 39.7463 11.6895 51.2078 25.828 51.2078Z" fill="#104D4D"/>
<path d="M31.1563 20.8887C35.4763 21.2607 37.2403 23.4807 37.2403 28.3407V28.4967C37.2403 33.8607 35.0923 36.0087 29.7283 36.0087H21.9163C16.5523 36.0087 14.4043 33.8607 14.4043 28.4967V28.3407C14.4043 23.5167 16.1443 21.2967 20.3923 20.9007" stroke="#BDFFE1" stroke-width="2.4" stroke-linecap="round" stroke-linejoin="round"/>
<path d="M25.8282 28.2078V14.5518" stroke="#BDFFE1" stroke-width="2.4" stroke-linecap="round" stroke-linejoin="round"/>
<path d="M29.8481 17.228L25.8281 13.208L21.8081 17.228" stroke="#BDFFE1" stroke-width="2.4" stroke-linecap="round" stroke-linejoin="round"/>
</svg>
