<svg width="47" height="33" viewBox="0 0 47 33" fill="none" xmlns="http://www.w3.org/2000/svg">
<rect x="0.847656" y="1" width="45" height="31" rx="5.5" fill="#F6F6F6"/>
<rect x="0.847656" y="1" width="45" height="31" rx="5.5" stroke="#E2E5E8"/>
<path fill-rule="evenodd" clip-rule="evenodd" d="M14.6812 21.6441H11.9349L9.8755 13.5563C9.77775 13.1843 9.5702 12.8554 9.26491 12.7003C8.50301 12.3108 7.66345 12.0007 6.74756 11.8444V11.533H11.1717C11.7823 11.533 12.2402 12.0007 12.3165 12.544L13.3851 18.378L16.13 11.533H18.8L14.6812 21.6441ZM20.3265 21.6441H17.7329L19.8686 11.533H22.4623L20.3265 21.6441ZM25.8178 14.3341C25.8941 13.7895 26.3521 13.4781 26.8864 13.4781C27.7259 13.3999 28.6405 13.5563 29.4037 13.9445L29.8617 11.7676C29.0984 11.4562 28.2589 11.2998 27.497 11.2998C24.9796 11.2998 23.1478 12.7003 23.1478 14.6441C23.1478 16.1228 24.4453 16.8993 25.3612 17.367C26.3521 17.8334 26.7337 18.1448 26.6574 18.6112C26.6574 19.3108 25.8941 19.6222 25.1322 19.6222C24.2164 19.6222 23.3005 19.389 22.4623 18.9994L22.0043 21.1777C22.9202 21.566 23.9111 21.7223 24.827 21.7223C27.6496 21.7992 29.4037 20.4 29.4037 18.2998C29.4037 15.6551 25.8178 15.5001 25.8178 14.3341ZM38.4809 21.6441L36.4215 11.533H34.2094C33.7515 11.533 33.2935 11.8444 33.1409 12.3108L29.3274 21.6441H31.9974L32.5303 20.1668H35.8109L36.1162 21.6441H38.4809ZM34.5911 14.2559L35.353 18.0666H33.2172L34.5911 14.2559Z" fill="#172B85"/>
</svg>
