<svg width="35" height="34" viewBox="0 0 35 34" fill="none" xmlns="http://www.w3.org/2000/svg">
<rect x="0.681641" width="34" height="34" rx="6" fill="#01615F" fill-opacity="0.1"/>
<path d="M22.6816 25.75H12.6816C8.27164 25.75 6.93164 24.41 6.93164 20V19.5C6.93164 19.09 7.27164 18.75 7.68164 18.75C8.64164 18.75 9.43164 17.96 9.43164 17C9.43164 16.04 8.64164 15.25 7.68164 15.25C7.27164 15.25 6.93164 14.91 6.93164 14.5V14C6.93164 9.59 8.27164 8.25 12.6816 8.25H22.6816C27.0916 8.25 28.4316 9.59 28.4316 14V15C28.4316 15.41 28.0916 15.75 27.6816 15.75C26.7216 15.75 25.9316 16.54 25.9316 17.5C25.9316 18.46 26.7216 19.25 27.6816 19.25C28.0916 19.25 28.4316 19.59 28.4316 20C28.4316 24.41 27.0916 25.75 22.6816 25.75ZM8.43164 20.16C8.45164 23.6 9.16164 24.25 12.6816 24.25H22.6816C26.0216 24.25 26.8316 23.66 26.9216 20.66C25.4916 20.32 24.4316 19.03 24.4316 17.5C24.4316 15.97 25.5016 14.68 26.9316 14.34V14C26.9316 10.43 26.2616 9.75 22.6816 9.75H12.6816C9.16164 9.75 8.45164 10.4 8.43164 13.84C9.86164 14.18 10.9316 15.47 10.9316 17C10.9316 18.53 9.86164 19.82 8.43164 20.16Z" fill="#01615F"/>
<path d="M15.6816 12.25C15.2716 12.25 14.9316 11.91 14.9316 11.5V9C14.9316 8.59 15.2716 8.25 15.6816 8.25C16.0916 8.25 16.4316 8.59 16.4316 9V11.5C16.4316 11.91 16.0916 12.25 15.6816 12.25Z" fill="#01615F"/>
<path d="M15.6816 19.5802C15.2716 19.5802 14.9316 19.2402 14.9316 18.8302V15.1602C14.9316 14.7502 15.2716 14.4102 15.6816 14.4102C16.0916 14.4102 16.4316 14.7502 16.4316 15.1602V18.8302C16.4316 19.2502 16.0916 19.5802 15.6816 19.5802Z" fill="#01615F"/>
<path d="M15.6816 25.75C15.2716 25.75 14.9316 25.41 14.9316 25V22.5C14.9316 22.09 15.2716 21.75 15.6816 21.75C16.0916 21.75 16.4316 22.09 16.4316 22.5V25C16.4316 25.41 16.0916 25.75 15.6816 25.75Z" fill="#01615F"/>
</svg>
