<svg width="34" height="34" viewBox="0 0 34 34" fill="none" xmlns="http://www.w3.org/2000/svg">
<rect width="34" height="34" rx="6" fill="#01615F" fill-opacity="0.1"/>
<path d="M22.0005 25.75H12.0005C7.59049 25.75 6.25049 24.41 6.25049 20V19.5C6.25049 19.09 6.59049 18.75 7.00049 18.75C7.96049 18.75 8.75049 17.96 8.75049 17C8.75049 16.04 7.96049 15.25 7.00049 15.25C6.59049 15.25 6.25049 14.91 6.25049 14.5V14C6.25049 9.59 7.59049 8.25 12.0005 8.25H22.0005C26.4105 8.25 27.7505 9.59 27.7505 14V15C27.7505 15.41 27.4105 15.75 27.0005 15.75C26.0405 15.75 25.2505 16.54 25.2505 17.5C25.2505 18.46 26.0405 19.25 27.0005 19.25C27.4105 19.25 27.7505 19.59 27.7505 20C27.7505 24.41 26.4105 25.75 22.0005 25.75ZM7.75049 20.16C7.77049 23.6 8.48049 24.25 12.0005 24.25H22.0005C25.3405 24.25 26.1505 23.66 26.2405 20.66C24.8105 20.32 23.7505 19.03 23.7505 17.5C23.7505 15.97 24.8205 14.68 26.2505 14.34V14C26.2505 10.43 25.5805 9.75 22.0005 9.75H12.0005C8.48049 9.75 7.77049 10.4 7.75049 13.84C9.18049 14.18 10.2505 15.47 10.2505 17C10.2505 18.53 9.18049 19.82 7.75049 20.16Z" fill="#01615F"/>
<path d="M15.0005 12.25C14.5905 12.25 14.2505 11.91 14.2505 11.5V9C14.2505 8.59 14.5905 8.25 15.0005 8.25C15.4105 8.25 15.7505 8.59 15.7505 9V11.5C15.7505 11.91 15.4105 12.25 15.0005 12.25Z" fill="#01615F"/>
<path d="M15.0005 19.5802C14.5905 19.5802 14.2505 19.2402 14.2505 18.8302V15.1602C14.2505 14.7502 14.5905 14.4102 15.0005 14.4102C15.4105 14.4102 15.7505 14.7502 15.7505 15.1602V18.8302C15.7505 19.2502 15.4105 19.5802 15.0005 19.5802Z" fill="#01615F"/>
<path d="M15.0005 25.75C14.5905 25.75 14.2505 25.41 14.2505 25V22.5C14.2505 22.09 14.5905 21.75 15.0005 21.75C15.4105 21.75 15.7505 22.09 15.7505 22.5V25C15.7505 25.41 15.4105 25.75 15.0005 25.75Z" fill="#01615F"/>
</svg>
