<svg width="184" height="59" viewBox="0 0 184 59" fill="none" xmlns="http://www.w3.org/2000/svg">
<path d="M8.027 19.7851C5.2057 21.877 3.56262 25.1231 3.57063 28.7459C3.57063 32.8977 5.74271 36.5605 9.36551 38.5322C12.267 40.1192 15.4489 40.9287 18.8313 40.9287C26.4135 40.9287 31.3908 36.9693 34.1721 33.7873C37.2338 42.131 33.3625 47.6534 28.1848 50.9315C21.4121 55.2276 11.0406 55.1955 5.15761 46.6755C4.33206 45.4813 2.67295 45.2008 1.49474 46.0904C0.316525 46.9801 0.22836 48.5831 1.03788 49.7373C4.50839 54.6906 9.62199 57.8565 15.4489 58.674C16.4428 58.8103 17.4527 58.8824 18.4706 58.8824C22.8147 58.8824 27.231 57.6241 30.934 55.2677C35.3663 52.4544 38.4922 48.3106 39.7425 43.5978C41.0009 38.8529 40.3276 34.4366 37.8269 29.331C39.6784 26.2452 40.6482 22.7747 40.6482 19.1198C40.6482 8.44379 32.7454 2.88936 30.3168 1.44666C29.1627 0.757364 27.728 0.757364 26.5818 1.44666C24.3536 2.77715 17.4767 7.59419 16.4027 16.6832C14.2547 16.9397 12.2028 17.5328 10.2712 18.4706C9.66206 18.7591 9.09299 19.1118 8.52393 19.4805L8.03501 19.7931L8.027 19.7851ZM28.4413 6.32782C30.7897 7.92281 35.5106 12.0265 35.5106 19.1118C35.5106 20.8992 35.206 22.6064 34.6209 24.2014C32.2645 21.332 28.0245 17.5729 21.5644 16.7153C22.4621 11.0968 26.3734 7.73847 28.4413 6.32782ZM18.8233 35.7991C16.3065 35.7991 13.9501 35.206 11.8181 34.0358C9.86244 32.9698 8.69224 30.9901 8.69224 28.7459C8.69224 26.4937 9.86244 24.5059 11.8181 23.4399L12.1868 23.2315C14.1745 22.2136 16.3546 21.6927 18.663 21.6686C18.711 21.6686 18.7511 21.6846 18.7992 21.6846C18.8473 21.6846 18.8874 21.6766 18.9355 21.6686C26.0288 21.7247 30.0844 26.4776 31.6153 28.7299C30.0764 31.0061 25.9887 35.7991 18.8233 35.7991Z" fill="#F6F6F6"/>
<path d="M69.0221 29.7312L64.1169 42.924C63.5558 44.3587 62.7784 45.3525 61.1032 45.3525C59.4281 45.3525 58.6506 44.3587 58.0334 42.924L51.2287 25.6996C50.9482 25.0344 50.8359 24.4814 50.8359 23.9844C50.8359 22.4375 51.95 21.5559 53.1202 21.5559C54.1782 21.5559 55.2362 22.2772 55.7972 23.8722L61.1513 38.8283L66.4492 23.9203C67.0103 22.3173 67.5072 21.5479 69.0702 21.5479C70.4648 21.5479 71.0739 22.4295 71.635 23.9203L76.9329 38.8283L82.287 23.8722C82.848 22.2692 83.906 21.5559 84.964 21.5559C86.1903 21.5559 87.2483 22.4936 87.2483 23.9844C87.2483 24.5375 87.1361 25.0344 86.8555 25.6435L80.1069 42.924C79.5458 44.2464 78.6561 45.3525 76.981 45.3525C75.3059 45.3525 74.3601 44.3025 73.9112 42.924L69.1744 29.7312H69.006H69.0221Z" fill="#F6F6F6"/>
<path d="M108.168 41.329C106.549 43.982 103.703 45.3606 100.137 45.3606C93.1073 45.3606 89.0918 40.1187 89.0918 33.4342C89.0918 26.7496 93.0512 21.5078 100.297 21.5078C103.864 21.5078 106.428 22.9425 107.991 25.0986V24.1608C107.991 22.7261 109.049 21.5078 110.724 21.5078C112.119 21.5078 113.289 22.3895 113.289 24.1608V42.7076C113.289 44.4709 112.231 45.3606 110.724 45.3606C109.218 45.3606 108.103 44.5911 108.103 42.7076V41.329H108.16H108.168ZM107.943 33.4342C107.943 29.5148 105.603 26.2046 101.307 26.2046C97.0107 26.2046 94.6142 29.4587 94.6142 33.4903C94.6142 37.5219 97.0668 40.6638 101.251 40.6638C105.434 40.6638 107.943 37.3535 107.943 33.4342Z" fill="#F6F6F6"/>
<path d="M119.653 24.3218C119.653 22.6066 120.598 21.5647 122.33 21.5647C124.061 21.5647 125.007 22.6146 125.007 24.3218V48.5032C125.007 53.745 121.937 55.9011 118.034 55.9011C115.918 55.9011 114.964 55.2919 114.964 53.6408C114.964 52.0939 115.854 51.3806 117.248 51.3245C118.194 51.2684 119.645 50.9959 119.645 47.6777V24.3298L119.653 24.3218ZM122.33 18.7514C120.374 18.7514 119.036 17.4289 119.036 15.4973C119.036 13.5656 120.374 12.2432 122.33 12.2432C124.285 12.2432 125.616 13.5656 125.616 15.4973C125.616 17.4289 124.277 18.7514 122.33 18.7514Z" fill="#F6F6F6"/>
<path d="M131.476 13.3405C131.476 11.6253 132.477 10.6875 134.153 10.6875C135.828 10.6875 136.83 11.6253 136.83 13.3405V25.9241C138.449 23.1669 141.126 21.5639 144.748 21.5639C151.89 21.5639 155.737 26.9741 155.737 33.322C155.737 39.6699 151.946 45.3526 144.692 45.3526C140.733 45.3526 138.224 43.5892 136.605 40.6076L136.717 42.7076C136.717 44.5831 135.716 45.3606 134.153 45.3606C132.261 45.3606 131.476 44.1423 131.476 42.7076V13.3405ZM150.207 33.4823C150.207 29.4507 147.754 26.2527 143.514 26.2527C139.274 26.2527 136.822 29.5068 136.822 33.4262C136.822 37.3455 139.218 40.7118 143.514 40.7118C147.81 40.7118 150.207 37.5138 150.207 33.4823Z" fill="#F6F6F6"/>
<path d="M178.372 41.329C176.753 43.982 173.907 45.3606 170.341 45.3606C163.311 45.3606 159.296 40.1187 159.296 33.4342C159.296 26.7496 163.255 21.5078 170.501 21.5078C174.068 21.5078 176.632 22.9425 178.195 25.0986V24.1608C178.195 22.7261 179.253 21.5078 180.928 21.5078C182.323 21.5078 183.493 22.3895 183.493 24.1608V42.7076C183.493 44.4709 182.435 45.3606 180.928 45.3606C179.422 45.3606 178.308 44.5911 178.308 42.7076V41.329H178.364H178.372ZM178.147 33.4342C178.147 29.5148 175.807 26.2046 171.511 26.2046C167.215 26.2046 164.818 29.4587 164.818 33.4903C164.818 37.5219 167.271 40.6638 171.455 40.6638C175.639 40.6638 178.147 37.3535 178.147 33.4342Z" fill="#F6F6F6"/>
</svg>
