<svg width="348" height="207" viewBox="0 0 348 207" fill="none" xmlns="http://www.w3.org/2000/svg">
<g clip-path="url(#clip0_2699_13144)">
<rect width="348" height="207" rx="12" fill="url(#paint0_linear_2699_13144)"/>
<g clip-path="url(#clip1_2699_13144)">
<path fill-rule="evenodd" clip-rule="evenodd" d="M302.431 31.0482C303.163 30.6141 304.065 30.6141 304.798 31.0482L304.802 31.0508L304.802 31.0508C306.227 31.9015 311.367 35.4263 311.367 42.2836C311.367 46.0077 309.841 48.7692 308.23 50.626C307.64 51.3059 306.61 51.3787 305.93 50.7887C305.25 50.1986 305.177 49.1691 305.767 48.4892C306.992 47.0777 308.107 45.047 308.107 42.2836C308.107 37.7955 305.111 35.1813 303.614 34.1596C302.117 35.1813 299.121 37.7955 299.121 42.2836C299.121 43.1838 298.392 43.9136 297.491 43.9136C296.591 43.9136 295.861 43.1838 295.861 42.2836C295.861 35.4263 301.001 31.9015 302.426 31.0508L302.431 31.0482L302.431 31.0482Z" fill="#BDFFE1"/>
<path fill-rule="evenodd" clip-rule="evenodd" d="M306.713 46.9912C307.492 46.5391 308.489 46.8038 308.941 47.5823C311.258 51.5715 311.681 55.4007 310.686 58.6988C309.7 61.9675 307.377 64.5288 304.538 66.1249C298.903 69.2938 290.776 68.8492 286.133 62.1225C285.622 61.3816 285.808 60.3664 286.548 59.855C287.289 59.3436 288.304 59.5296 288.816 60.2705C292.31 65.333 298.459 65.8032 302.941 63.2833C305.161 62.035 306.857 60.101 307.564 57.7573C308.263 55.443 308.052 52.5428 306.122 49.2193C305.67 48.4408 305.935 47.4432 306.713 46.9912Z" fill="#BDFFE1"/>
<path fill-rule="evenodd" clip-rule="evenodd" d="M291.49 42.1653C293.115 41.2776 295.117 40.6455 297.507 40.6455C301.513 40.6455 304.4 42.4164 306.248 44.1454C307.17 45.007 307.844 45.8666 308.291 46.5144C308.515 46.8394 308.684 47.1143 308.8 47.3141C308.858 47.414 308.903 47.4955 308.936 47.5553C308.952 47.5852 308.965 47.6098 308.974 47.6286L308.987 47.6524L308.991 47.661L308.993 47.6659C308.994 47.6666 308.994 47.6673 307.536 48.3963C308.994 49.1252 308.994 49.1259 308.993 49.1266L308.993 49.1281L308.991 49.1316L308.987 49.1402L308.974 49.164C308.965 49.1828 308.952 49.2073 308.936 49.2372C308.903 49.2971 308.858 49.3785 308.8 49.4785C308.684 49.6782 308.515 49.9531 308.291 50.2781C307.844 50.9259 307.17 51.7856 306.248 52.6472C304.4 54.3761 301.513 56.147 297.507 56.147C295.123 56.147 293.112 55.5159 291.489 54.627C286.876 52.1104 286.596 45.7065 290.641 42.7111V42.6289L291.49 42.1653ZM307.536 48.3963L308.994 49.1252L309.359 48.3963L308.994 47.6673L307.536 48.3963ZM306.08 47.6637C306.081 47.662 306.081 47.6611 306.081 47.6611L306.08 47.6632L306.08 47.6637ZM305.628 48.3963C305.621 48.4065 305.614 48.4168 305.607 48.4271C305.262 48.927 304.736 49.5975 304.021 50.2661C302.598 51.5975 300.47 52.887 297.507 52.887C295.719 52.887 294.242 52.4182 293.054 51.7671L293.051 51.7656C290.404 50.322 290.401 46.479 293.052 45.0304L293.281 44.9054C294.433 44.3167 295.829 43.9056 297.507 43.9056C300.47 43.9056 302.598 45.195 304.021 46.5264C304.736 47.195 305.262 47.8655 305.607 48.3654C305.614 48.3758 305.621 48.3861 305.628 48.3963ZM306.08 49.1289C306.081 49.1306 306.081 49.1315 306.081 49.1315L306.08 49.1293L306.08 49.1289Z" fill="#BDFFE1"/>
<path d="M291.628 20.9953L291.405 22.9564C291.36 23.3386 291.218 23.6298 290.818 23.7253C290.395 23.8254 290.163 23.6207 289.926 23.3022L288.179 20.8133C288.074 20.6768 288.015 20.5403 287.988 20.4129C287.906 20.0626 288.111 19.7759 288.384 19.7122C288.643 19.6531 288.943 19.7668 289.157 20.1126L290.463 22.1965L290.7 19.7759C290.741 19.371 290.814 19.1435 291.178 19.057C291.519 18.9751 291.705 19.1435 291.924 19.4893L293.225 21.5595L293.453 19.1025C293.493 18.6976 293.712 18.461 293.98 18.3973C294.249 18.3336 294.563 18.4974 294.645 18.8477C294.676 18.9751 294.672 19.1162 294.631 19.2709L294.203 22.3057C294.135 22.6561 293.967 22.9791 293.575 23.0701C293.152 23.1702 292.87 22.9609 292.674 22.6606L291.628 20.9862V20.9953Z" fill="#BDFFE1"/>
<path d="M298.894 22.0332C298.589 22.4518 298.089 22.6656 297.525 22.6793C296.187 22.7111 295.441 21.7374 295.413 20.4953C295.386 19.2531 296.073 18.2476 297.484 18.2157C298.098 18.2021 298.539 18.4068 298.808 18.7026C298.862 18.4114 299.099 18.1793 299.445 18.1702C299.781 18.1611 300.091 18.3704 300.1 18.8163L300.173 21.9376C300.182 22.4063 299.909 22.6201 299.549 22.6292C299.222 22.6383 298.931 22.4745 298.894 22.0286V22.0332ZM298.812 20.4088C298.799 19.8401 298.439 19.3669 297.775 19.3851C297.124 19.3987 296.751 19.8674 296.765 20.468C296.778 21.0686 297.174 21.519 297.816 21.5054C298.489 21.4917 298.83 20.9867 298.817 20.4088H298.812Z" fill="#BDFFE1"/>
<path d="M302.079 18.384C302.498 18.4295 302.712 18.7161 302.666 19.1484L302.234 23.2115C302.111 24.3854 301.456 24.8404 300.578 24.7449C300.063 24.6903 299.85 24.5083 299.895 24.1033C299.936 23.7211 300.159 23.571 300.482 23.5846C300.637 23.6028 300.86 23.5528 300.928 22.9294L301.347 19.0073C301.392 18.5751 301.647 18.3339 302.079 18.384ZM302.129 17.9199C301.674 17.8698 301.383 17.524 301.433 17.069C301.483 16.6004 301.843 16.3137 302.298 16.3592C302.753 16.4093 303.053 16.7687 303.003 17.2328C302.953 17.6878 302.584 17.9654 302.129 17.9153V17.9199Z" fill="#BDFFE1"/>
<path d="M304.377 16.8601C304.477 16.446 304.768 16.2868 305.178 16.3823C305.587 16.4779 305.769 16.7509 305.669 17.1649L305.21 19.5264C305.624 19.1624 306.129 19.0759 306.679 19.2079C307.99 19.5173 308.431 20.6502 308.153 21.7695C307.876 22.8934 306.943 23.7488 305.619 23.4394C304.973 23.2892 304.636 22.9434 304.422 22.4065V22.4793C304.318 22.9389 304.049 23.0663 303.672 22.9798C303.203 22.8706 303.098 22.543 303.185 22.1881L304.377 16.8601ZM306.82 21.542C306.961 20.9551 306.707 20.4136 306.074 20.2589C305.428 20.1042 304.978 20.491 304.846 21.0415C304.709 21.6057 304.932 22.179 305.587 22.3383C306.197 22.4839 306.679 22.129 306.82 21.542Z" fill="#BDFFE1"/>
<path d="M311.188 24.9358C310.733 25.1815 310.187 25.1587 309.673 24.9267C308.454 24.3807 308.199 23.1795 308.704 22.0465C309.214 20.9136 310.265 20.3039 311.552 20.8817C312.112 21.132 312.422 21.5096 312.54 21.8918C312.713 21.6507 313.027 21.5415 313.345 21.6871C313.655 21.8236 313.841 22.1466 313.655 22.5516L312.376 25.3999C312.185 25.8276 311.848 25.9004 311.516 25.7548C311.22 25.6228 311.025 25.3498 311.184 24.9312L311.188 24.9358ZM311.812 23.4343C312.044 22.9156 311.921 22.3332 311.316 22.0647C310.72 21.7963 310.183 22.0602 309.937 22.6062C309.692 23.1567 309.855 23.73 310.438 23.9939C311.052 24.2715 311.575 23.9621 311.812 23.4343Z" fill="#BDFFE1"/>
<path d="M320.134 32.7483C319.078 31.5243 319.342 30.2458 320.256 29.4586C321.162 28.6806 322.454 28.6123 323.464 29.7817C323.842 30.2185 324.042 30.6553 324.074 30.9874C324.083 31.1831 324.006 31.3514 323.878 31.4606C323.587 31.7109 323.096 31.6426 322.946 31.2286C322.918 31.1558 322.868 30.8828 322.618 30.587C322.186 30.0865 321.599 30.1275 321.162 30.5051C320.698 30.9055 320.602 31.497 320.989 31.9475C321.226 32.2205 321.308 32.2796 321.562 32.407C321.999 32.6345 321.999 33.0986 321.726 33.3352C321.599 33.4444 321.403 33.5172 321.171 33.4672C320.784 33.3853 320.42 33.0804 320.138 32.7483H320.134Z" fill="#BDFFE1"/>
<path d="M324.493 32.1435C324.793 31.9433 325.207 32.0207 325.412 32.3346C325.589 32.6076 325.544 32.9534 325.325 33.1718C325.744 33.2128 326.135 33.4357 326.372 33.7952C326.577 34.1091 326.581 34.464 326.24 34.6915C325.976 34.8644 325.667 34.8508 325.489 34.5778C325.389 34.4276 325.426 34.3457 325.298 34.1546C324.961 33.6405 324.529 33.7087 323.683 34.2638L322.605 34.9736C322.241 35.2148 321.877 35.051 321.695 34.778C321.508 34.4959 321.513 34.1046 321.872 33.868L324.493 32.1435Z" fill="#BDFFE1"/>
<path d="M325.025 39.601C324.52 39.4873 324.124 39.1142 323.887 38.5955C323.328 37.3806 323.924 36.3114 325.052 35.7927C326.181 35.274 327.377 35.506 327.964 36.7891C328.219 37.3488 328.205 37.8311 328.042 38.1996C328.328 38.1314 328.638 38.2588 328.783 38.5727C328.924 38.8776 328.851 39.2461 328.447 39.4281L325.607 40.734C325.18 40.9296 324.879 40.7658 324.729 40.4337C324.593 40.1379 324.625 39.8058 325.02 39.5965L325.025 39.601ZM326.485 38.8776C327 38.641 327.291 38.1223 327.018 37.5171C326.745 36.9256 326.167 36.7664 325.621 37.0166C325.075 37.2669 324.816 37.8083 325.084 38.3907C325.366 39.005 325.962 39.1142 326.485 38.873V38.8776Z" fill="#BDFFE1"/>
<path d="M328.355 40.5011C328.456 40.4101 328.592 40.2736 328.779 40.2236C329.106 40.1371 329.443 40.3191 329.529 40.6422C329.62 40.9789 329.379 41.2337 329.097 41.4475L327.218 42.8944L329.57 43.1947C329.921 43.2357 330.262 43.3449 330.348 43.6725C330.435 44.0001 330.239 44.3277 329.912 44.4141C329.725 44.4642 329.538 44.4141 329.407 44.3914L326.558 43.9273C326.099 43.8408 325.73 43.677 325.635 43.3267C325.539 42.9672 325.776 42.6533 326.131 42.3439L328.355 40.5057V40.5011Z" fill="#BDFFE1"/>
<path d="M328.237 46.5576C327.705 46.6623 327.418 47.1673 327.491 47.8498C327.537 48.2684 327.664 48.5369 327.851 48.8053C328.101 49.2012 327.828 49.6107 327.491 49.6471C327.336 49.6653 327.168 49.597 327.032 49.4287C326.722 49.0374 326.526 48.3549 326.467 47.8043C326.276 46.0435 327.282 45.2518 328.397 45.1335C329.548 45.0061 330.717 45.6203 330.885 47.1673C331.036 48.5596 330.235 49.4469 329.143 49.5652C328.829 49.6016 328.547 49.4241 328.497 48.9691L328.233 46.5576H328.237ZM329.27 48.273C329.602 48.2138 329.98 47.8908 329.916 47.2947C329.853 46.6941 329.411 46.453 329.074 46.4666L329.27 48.2775V48.273Z" fill="#BDFFE1"/>
<path d="M326.868 55.7711C326.558 55.2206 326.381 54.6427 326.467 54.0239C326.668 52.6544 327.305 52.1493 328.26 52.2904C328.829 52.3723 329.248 52.7909 329.648 53.7191C330.048 53.4643 330.444 53.2959 330.845 53.3551C331.695 53.4779 332.105 54.2423 331.978 55.125C331.859 55.9531 331.268 56.6356 330.435 56.5128C329.875 56.4309 329.543 55.8849 329.266 55.348L328.365 56.0123L328.479 56.1533C328.624 56.3308 328.729 56.4855 328.697 56.6902C328.651 56.9996 328.374 57.2135 328.065 57.168C327.878 57.1407 327.741 57.0133 327.628 56.8631L327.473 56.6675L327.268 56.8176C326.982 57.0315 326.759 57.2499 326.49 57.2089C326.19 57.1634 325.99 56.8859 326.035 56.5947C326.076 56.3262 326.317 56.1897 326.577 55.9895L326.868 55.7666V55.7711ZM328.779 54.3424C328.524 53.76 328.351 53.5371 328.092 53.4961C327.855 53.4597 327.532 53.6053 327.45 54.1377C327.405 54.438 327.532 54.7792 327.719 55.1296L328.779 54.3424ZM330.617 55.307C330.854 55.3434 331.013 55.1978 331.045 54.9794C331.072 54.7747 330.954 54.5927 330.74 54.5608C330.572 54.5381 330.34 54.6427 330.112 54.7747C330.321 55.1705 330.435 55.2752 330.613 55.3025L330.617 55.307Z" fill="#BDFFE1"/>
<path d="M324.606 61.0858C324.87 60.4261 325.152 60.0439 325.375 59.8482C325.53 59.7163 325.703 59.7072 325.848 59.7663C326.149 59.8892 326.34 60.2896 326.08 60.5489C325.866 60.7628 325.707 60.9948 325.584 61.2997C325.43 61.6819 325.398 61.9276 325.621 62.0186C325.88 62.1232 326.162 61.7683 326.522 61.4316C327.008 60.963 327.541 60.5398 328.146 60.7855C328.983 61.1222 329.101 61.8684 328.715 62.833C328.46 63.47 328.219 63.7385 327.973 63.9387C327.818 64.0615 327.664 64.0615 327.518 64.0024C327.218 63.8795 327.054 63.4791 327.281 63.2061C327.386 63.0787 327.65 62.8057 327.773 62.4963C327.887 62.2142 327.882 62.0322 327.714 61.964C327.477 61.8684 327.222 62.3507 326.726 62.7739C326.326 63.1197 325.83 63.4154 325.207 63.1652C324.278 62.7921 324.297 61.8775 324.611 61.0949L324.606 61.0858Z" fill="#BDFFE1"/>
<path d="M322.709 66.1359C322.518 65.6582 322.6 65.1167 322.891 64.6299C323.578 63.4787 324.797 63.365 325.862 64.002C326.927 64.639 327.414 65.7537 326.69 66.9686C326.376 67.4964 325.967 67.7557 325.571 67.8331C325.789 68.0333 325.862 68.3563 325.685 68.6566C325.512 68.9478 325.171 69.0934 324.788 68.8659L322.108 67.2643C321.703 67.0232 321.672 66.6819 321.858 66.368C322.026 66.0904 322.318 65.9266 322.714 66.1359H322.709ZM324.129 66.9276C324.615 67.2188 325.207 67.1642 325.548 66.5955C325.88 66.0358 325.685 65.4716 325.171 65.1622C324.652 64.8528 324.06 64.9484 323.733 65.4989C323.387 66.0768 323.633 66.6319 324.129 66.9276Z" fill="#BDFFE1"/>
<path d="M323.855 69.3892C323.987 69.4211 324.178 69.4575 324.324 69.5803C324.583 69.7987 324.62 70.1809 324.406 70.4357C324.178 70.7042 323.833 70.645 323.5 70.5358L321.244 69.8078L322.336 71.9145C322.499 72.2239 322.604 72.5697 322.386 72.8245C322.167 73.0838 321.785 73.1066 321.526 72.8882C321.38 72.7653 321.312 72.5833 321.257 72.4559L320.024 69.8488C319.833 69.4211 319.76 69.0252 319.992 68.7477C320.233 68.461 320.629 68.4792 321.084 68.5975L323.86 69.3847L323.855 69.3892Z" fill="#BDFFE1"/>
<path d="M318.801 72.7297C318.409 72.352 317.832 72.4021 317.313 72.8525C316.994 73.1301 316.849 73.3849 316.731 73.6897C316.544 74.122 316.057 74.1265 315.839 73.8717C315.734 73.7534 315.698 73.5805 315.757 73.3712C315.902 72.8935 316.353 72.3475 316.771 71.9835C318.114 70.8232 319.333 71.2054 320.066 72.0517C320.821 72.9253 320.985 74.2403 319.806 75.2549C318.746 76.1695 317.563 76.0148 316.844 75.1867C316.64 74.9501 316.621 74.6134 316.967 74.3131L318.801 72.7297ZM317.973 74.5588C318.214 74.7999 318.692 74.9273 319.147 74.5315C319.602 74.1356 319.552 73.6397 319.351 73.3667L317.973 74.5588Z" fill="#BDFFE1"/>
<path d="M305.801 80.2869L306.011 78.3258C306.056 77.9436 306.193 77.6479 306.593 77.5523C307.016 77.4522 307.248 77.6524 307.489 77.9709L309.255 80.4461C309.364 80.5826 309.419 80.7146 309.45 80.8465C309.537 81.1969 309.332 81.4835 309.064 81.5472C308.804 81.6109 308.504 81.4972 308.286 81.1514L306.966 79.0766L306.743 81.4972C306.707 81.9021 306.634 82.1296 306.275 82.2161C305.933 82.298 305.747 82.1342 305.528 81.7884L304.209 79.7272L303.995 82.1842C303.959 82.5892 303.74 82.8303 303.472 82.894C303.203 82.9577 302.889 82.7985 302.807 82.4481C302.776 82.3207 302.78 82.1797 302.817 82.025L303.221 78.9856C303.285 78.6352 303.454 78.3076 303.84 78.2166C304.263 78.1165 304.546 78.3167 304.746 78.617L305.806 80.2823L305.801 80.2869Z" fill="#BDFFE1"/>
<path d="M298.526 79.299C298.826 78.8804 299.326 78.6575 299.895 78.6438C301.233 78.6029 301.984 79.572 302.025 80.8096C302.061 82.0518 301.378 83.0619 299.968 83.1028C299.354 83.121 298.912 82.9163 298.639 82.6251C298.589 82.9163 298.353 83.1529 298.002 83.162C297.666 83.1711 297.356 82.9663 297.343 82.5159L297.247 79.3946C297.233 78.9259 297.502 78.7121 297.866 78.6984C298.193 78.6893 298.485 78.8486 298.521 79.2945L298.526 79.299ZM298.621 80.9234C298.639 81.4921 299.003 81.9608 299.663 81.9426C300.314 81.9244 300.687 81.4512 300.669 80.8506C300.65 80.25 300.25 79.7995 299.613 79.8223C298.94 79.8405 298.603 80.3455 298.621 80.9234Z" fill="#BDFFE1"/>
<path d="M295.318 83.4397C295.773 83.4852 296.069 83.831 296.023 84.286C295.978 84.7546 295.623 85.0458 295.163 85.0003C294.704 84.9548 294.403 84.5999 294.449 84.1313C294.494 83.6763 294.863 83.3987 295.318 83.4442V83.4397ZM295.363 82.971C294.945 82.9301 294.731 82.6434 294.772 82.2112L295.177 78.1435C295.295 76.9696 295.946 76.51 296.819 76.601C297.334 76.6511 297.547 76.8285 297.506 77.238C297.47 77.6202 297.247 77.7704 296.92 77.7613C296.765 77.7476 296.542 77.7977 296.478 78.421L296.087 82.3431C296.046 82.7754 295.791 83.0165 295.359 82.971H295.363Z" fill="#BDFFE1"/>
<path d="M286.209 76.4833C286.659 76.2331 287.205 76.2513 287.724 76.4833C288.948 77.0248 289.212 78.2214 288.711 79.3544C288.211 80.4873 287.16 81.1107 285.867 80.5419C285.303 80.2962 284.994 79.9186 284.871 79.5364C284.698 79.7775 284.384 79.8913 284.066 79.7502C283.756 79.6137 283.57 79.2952 283.747 78.8857L285.007 76.0283C285.199 75.5961 285.535 75.5233 285.863 75.6689C286.163 75.8008 286.359 76.0693 286.2 76.4879L286.209 76.4833ZM285.599 77.9939C285.371 78.5126 285.494 79.095 286.104 79.3635C286.7 79.6274 287.237 79.3635 287.483 78.8084C287.724 78.2578 287.555 77.68 286.973 77.4252C286.354 77.1522 285.836 77.4661 285.604 77.9939H285.599Z" fill="#BDFFE1"/>
<path d="M277.218 68.7438C278.283 69.9587 278.028 71.2418 277.118 72.038C276.222 72.8252 274.925 72.9025 273.906 71.7377C273.524 71.3009 273.324 70.8687 273.287 70.532C273.273 70.3363 273.355 70.168 273.483 70.0588C273.774 69.804 274.265 69.8722 274.416 70.2817C274.443 70.35 274.493 70.6275 274.748 70.9187C275.184 71.4192 275.767 71.3692 276.204 70.9915C276.668 70.5866 276.759 69.9951 276.367 69.5492C276.131 69.2762 276.049 69.2216 275.79 69.0942C275.353 68.8667 275.348 68.4071 275.621 68.1705C275.749 68.0613 275.94 67.9885 276.176 68.0386C276.563 68.1159 276.927 68.4208 277.214 68.7484L277.218 68.7438Z" fill="#BDFFE1"/>
<path d="M272.864 69.3808C272.564 69.581 272.154 69.5082 271.945 69.1988C271.763 68.9303 271.808 68.58 272.022 68.3616C271.603 68.3206 271.212 68.1068 270.971 67.7473C270.762 67.4379 270.757 67.0785 271.098 66.851C271.358 66.6781 271.672 66.6872 271.849 66.9556C271.949 67.1058 271.917 67.1877 272.045 67.3742C272.386 67.8838 272.818 67.8156 273.66 67.2514L274.734 66.5325C275.093 66.2913 275.462 66.4506 275.644 66.7236C275.83 67.0057 275.83 67.397 275.471 67.6381L272.868 69.3808H272.864Z" fill="#BDFFE1"/>
<path d="M272.268 61.9227C272.773 62.0319 273.173 62.405 273.414 62.9192C273.983 64.1295 273.396 65.2078 272.268 65.7311C271.139 66.2543 269.947 66.0314 269.347 64.7574C269.087 64.2023 269.096 63.7154 269.26 63.3469C268.974 63.4151 268.664 63.2923 268.514 62.9783C268.373 62.6735 268.441 62.3095 268.842 62.1184L271.672 60.7943C272.099 60.5941 272.4 60.7579 272.554 61.0855C272.691 61.3813 272.664 61.7134 272.268 61.9273V61.9227ZM270.816 62.6553C270.302 62.8964 270.015 63.4151 270.298 64.0157C270.575 64.6072 271.153 64.7619 271.699 64.5026C272.245 64.2478 272.495 63.7018 272.227 63.1239C271.94 62.5142 271.344 62.405 270.821 62.6507L270.816 62.6553Z" fill="#BDFFE1"/>
<path d="M268.933 61.054C268.833 61.145 268.696 61.2815 268.51 61.3361C268.186 61.4271 267.845 61.2451 267.754 60.922C267.659 60.5853 267.9 60.3305 268.182 60.1167L270.052 58.6561L267.695 58.374C267.345 58.3331 267.003 58.2284 266.912 57.9054C266.821 57.5823 267.017 57.2502 267.345 57.1592C267.531 57.1091 267.718 57.1592 267.85 57.1819L270.703 57.6233C271.162 57.7052 271.535 57.869 271.631 58.2148C271.731 58.5742 271.494 58.8927 271.144 59.2021L268.933 61.0585V61.054Z" fill="#BDFFE1"/>
<path d="M269.01 54.9885C269.542 54.8793 269.824 54.3742 269.747 53.6872C269.697 53.2686 269.57 53.0047 269.383 52.7362C269.133 52.3404 269.401 51.9354 269.733 51.8945C269.888 51.8763 270.056 51.9445 270.193 52.1083C270.507 52.4951 270.707 53.1776 270.771 53.7281C270.976 55.489 269.975 56.2852 268.86 56.4126C267.709 56.5446 266.535 55.9394 266.357 54.397C266.198 53.0092 266.99 52.1129 268.082 51.99C268.391 51.9536 268.682 52.1265 268.732 52.5815L269.01 54.9885ZM267.963 53.2777C267.631 53.3414 267.254 53.6644 267.326 54.2605C267.395 54.8611 267.836 55.0977 268.173 55.084L267.963 53.2777Z" fill="#BDFFE1"/>
<path d="M270.311 45.7706C270.625 46.3166 270.807 46.899 270.725 47.5132C270.534 48.8828 269.902 49.3924 268.946 49.2604C268.377 49.1831 267.954 48.769 267.545 47.8454C267.144 48.1047 266.749 48.2731 266.353 48.2185C265.502 48.1002 265.083 47.3403 265.206 46.4576C265.32 45.6295 265.902 44.9425 266.739 45.0562C267.299 45.1336 267.64 45.675 267.918 46.2119L268.814 45.5431L268.701 45.402C268.55 45.2246 268.45 45.0699 268.478 44.8651C268.519 44.5557 268.796 44.3373 269.105 44.3828C269.292 44.4101 269.433 44.533 269.542 44.6831L269.697 44.8788L269.902 44.7241C270.188 44.5057 270.407 44.2873 270.675 44.3282C270.976 44.3692 271.176 44.6467 271.139 44.9379C271.103 45.2064 270.862 45.3474 270.602 45.5522L270.316 45.7751L270.311 45.7706ZM266.562 46.262C266.325 46.2301 266.166 46.3712 266.134 46.5941C266.107 46.7989 266.23 46.9809 266.439 47.0082C266.608 47.0309 266.84 46.9217 267.067 46.7898C266.858 46.3985 266.739 46.2893 266.562 46.2665V46.262ZM268.409 47.2129C268.669 47.7953 268.846 48.0183 269.105 48.0547C269.342 48.0865 269.665 47.9409 269.742 47.4086C269.783 47.1083 269.656 46.767 269.465 46.4212L268.414 47.2175L268.409 47.2129Z" fill="#BDFFE1"/>
<path d="M272.532 40.4421C272.272 41.1064 271.99 41.4886 271.772 41.6843C271.617 41.8162 271.444 41.8299 271.299 41.7707C270.994 41.6524 270.803 41.252 271.062 40.9927C271.276 40.7788 271.435 40.5422 271.554 40.2374C271.704 39.8552 271.736 39.6095 271.513 39.523C271.253 39.4229 270.971 39.7778 270.616 40.1191C270.134 40.5923 269.602 41.0154 268.996 40.7788C268.155 40.4467 268.032 39.7005 268.414 38.7359C268.664 38.0943 268.901 37.8259 269.147 37.6257C269.297 37.5028 269.456 37.4983 269.602 37.5574C269.906 37.6757 270.07 38.0807 269.847 38.3537C269.747 38.4811 269.483 38.7541 269.36 39.068C269.251 39.3501 269.256 39.5321 269.424 39.6004C269.661 39.6914 269.916 39.2091 270.407 38.7814C270.803 38.431 271.299 38.1353 271.927 38.381C272.859 38.745 272.85 39.6641 272.541 40.4467L272.532 40.4421Z" fill="#BDFFE1"/>
<path d="M274.397 35.3694C274.593 35.8471 274.511 36.3886 274.224 36.8754C273.546 38.0311 272.327 38.154 271.257 37.5261C270.188 36.8982 269.692 35.7834 270.407 34.5686C270.716 34.0362 271.126 33.7723 271.517 33.6995C271.298 33.4993 271.221 33.1763 271.399 32.876C271.571 32.5848 271.908 32.4346 272.295 32.6621L274.988 34.241C275.393 34.4776 275.43 34.8234 275.248 35.1328C275.084 35.4149 274.793 35.5787 274.392 35.3739L274.397 35.3694ZM272.968 34.5868C272.481 34.3001 271.885 34.3593 271.549 34.928C271.221 35.4877 271.417 36.0519 271.94 36.3613C272.463 36.6707 273.05 36.566 273.373 36.0155C273.714 35.4331 273.464 34.8825 272.968 34.5868Z" fill="#BDFFE1"/>
<path d="M273.219 32.1343C273.087 32.1025 272.896 32.0706 272.745 31.9478C272.486 31.7339 272.445 31.3517 272.659 31.0924C272.882 30.8239 273.232 30.8785 273.564 30.9832L275.83 31.693L274.725 29.5909C274.561 29.2815 274.452 28.9402 274.67 28.6809C274.888 28.4215 275.271 28.3942 275.53 28.6126C275.68 28.7355 275.748 28.9175 275.798 29.0403L277.054 31.6384C277.245 32.0661 277.327 32.4619 277.095 32.7395C276.854 33.0261 276.463 33.0125 276.003 32.8987L273.219 32.1343Z" fill="#BDFFE1"/>
<path d="M278.251 28.7537C278.647 29.1314 279.22 29.0722 279.739 28.6172C280.057 28.3397 280.203 28.0849 280.317 27.7755C280.499 27.3432 280.985 27.3341 281.208 27.5844C281.313 27.7027 281.349 27.8756 281.295 28.0849C281.154 28.5626 280.708 29.1132 280.289 29.4817C278.956 30.6511 277.732 30.2825 276.995 29.4408C276.231 28.5717 276.058 27.2613 277.227 26.233C278.278 25.3094 279.466 25.455 280.189 26.2785C280.394 26.5151 280.417 26.8473 280.071 27.1521L278.251 28.7537ZM279.061 26.9201C278.82 26.6835 278.342 26.5561 277.887 26.9565C277.432 27.3569 277.486 27.8528 277.691 28.1213L279.061 26.9201Z" fill="#BDFFE1"/>
<path d="M293.052 84.4186C292.952 84.8327 292.661 84.9919 292.251 84.8964C291.842 84.8008 291.66 84.5278 291.76 84.1138L292.219 81.7523C291.805 82.1163 291.3 82.2028 290.75 82.0708C289.439 81.7614 288.998 80.6285 289.276 79.5092C289.553 78.3853 290.486 77.5299 291.81 77.8393C292.456 77.9895 292.793 78.3353 293.007 78.8722V78.7994C293.111 78.3398 293.38 78.2124 293.757 78.2989C294.226 78.4081 294.331 78.7357 294.244 79.0906L293.052 84.4186ZM290.609 79.7367C290.468 80.3236 290.723 80.8651 291.355 81.0198C292.001 81.1745 292.452 80.7877 292.583 80.2372C292.72 79.673 292.497 79.0997 291.842 78.9404C291.232 78.7948 290.75 79.1497 290.609 79.7367Z" fill="#BDFFE1"/>
<path d="M283.884 25.3637C283.088 25.2727 282.583 24.6584 282.674 23.8622C282.769 23.0432 283.402 22.5427 284.198 22.6337C284.994 22.7247 285.517 23.3617 285.426 24.1807C285.335 24.9769 284.685 25.4592 283.884 25.3637Z" fill="#BDFFE1"/>
<path d="M316.821 27.8432C316.025 27.7522 315.52 27.1379 315.611 26.3417C315.706 25.5227 316.339 25.0222 317.135 25.1132C317.931 25.2042 318.454 25.8412 318.363 26.6602C318.272 27.4564 317.622 27.9387 316.821 27.8432Z" fill="#BDFFE1"/>
<path d="M312.704 78.8031C311.908 78.7121 311.402 78.0979 311.493 77.3016C311.589 76.4826 312.221 75.9821 313.018 76.0731C313.814 76.1641 314.337 76.8011 314.246 77.6201C314.155 78.4164 313.505 78.8987 312.704 78.8031Z" fill="#BDFFE1"/>
<path d="M280.244 76.3598C279.448 76.2688 278.943 75.6545 279.034 74.8583C279.129 74.0393 279.762 73.5388 280.558 73.6298C281.354 73.7208 281.877 74.3578 281.786 75.1768C281.695 75.973 281.045 76.4553 280.244 76.3598Z" fill="#BDFFE1"/>
</g>
<path opacity="0.3" d="M-32.4292 -70.7198C-70.1157 -41.3546 -20.6276 59.0434 56.751 52.0571C116.193 46.6913 323.471 -13.6194 232.263 362.078" stroke="#BDFFE1" stroke-width="4" stroke-linecap="round"/>
<path opacity="0.3" d="M521.553 1.50592C553.27 26.2198 511.62 110.715 446.498 104.836C396.471 100.32 222.025 49.562 298.786 365.752" stroke="#BDFFE1" stroke-width="4" stroke-linecap="round"/>
</g>
<defs>
<linearGradient id="paint0_linear_2699_13144" x1="174" y1="0" x2="174" y2="198.134" gradientUnits="userSpaceOnUse">
<stop stop-color="#104D4D"/>
<stop offset="1" stop-color="#01615F"/>
</linearGradient>
<clipPath id="clip0_2699_13144">
<rect width="348" height="207" rx="12" fill="white"/>
</clipPath>
<clipPath id="clip1_2699_13144">
<rect width="66.8168" height="68.6459" fill="white" transform="translate(265.183 16.3545)"/>
</clipPath>
</defs>
</svg>
