<svg width="41" height="40" viewBox="0 0 41 40" fill="none" xmlns="http://www.w3.org/2000/svg">
<rect x="0.347656" width="40" height="40" rx="20" fill="#01615F"/>
<g clip-path="url(#clip0_2699_13755)">
<path d="M22.8824 23.517C22.8824 23.6791 22.8829 23.8413 22.8768 24.0029C22.9142 23.8605 22.9435 23.716 22.9712 23.571C22.9738 23.5586 22.9733 23.5456 22.9748 23.5227C22.9425 23.5206 22.9122 23.5191 22.8824 23.517ZM22.8824 23.517C22.8824 23.6791 22.8829 23.8413 22.8768 24.0029C22.9142 23.8605 22.9435 23.716 22.9712 23.571C22.9738 23.5586 22.9733 23.5456 22.9748 23.5227C22.9425 23.5206 22.9122 23.5191 22.8824 23.517ZM22.8824 23.517C22.8824 23.6791 22.8829 23.8413 22.8768 24.0029C22.9142 23.8605 22.9435 23.716 22.9712 23.571C22.9738 23.5586 22.9733 23.5456 22.9748 23.5227C22.9425 23.5206 22.9122 23.5191 22.8824 23.517ZM25.5593 17.5302C25.489 17.5302 25.4208 17.5271 25.353 17.5312C25.2354 17.538 25.1184 17.5541 25.0014 17.5655C24.9906 17.5666 24.9803 17.5676 24.9695 17.5686C24.9695 17.6747 24.9695 17.7807 24.9629 17.8867C24.9593 17.9517 24.9516 18.0166 24.9495 18.0816C24.9444 18.2625 24.9213 18.4413 24.8987 18.6206C24.8792 18.7723 24.8453 18.9215 24.8058 19.0691C24.8489 18.9937 24.8915 18.9184 24.9346 18.843C24.9618 18.7962 24.9911 18.751 25.0163 18.7032C25.1071 18.5296 25.1959 18.3545 25.2873 18.1814C25.353 18.0567 25.4156 17.9309 25.4562 17.7952C25.4823 17.709 25.5085 17.6227 25.5588 17.5463C25.5614 17.5421 25.5593 17.5349 25.5593 17.5302ZM23.368 21.6537C23.2802 21.7608 23.1863 21.8632 23.0934 21.9656C23.0179 22.0493 22.9419 22.1324 22.8624 22.2119C22.7192 22.3549 22.578 22.4993 22.4317 22.6386C22.4286 22.6698 22.4266 22.702 22.4256 22.7337C22.424 22.7779 22.425 22.8221 22.4297 22.8663C22.4353 22.9229 22.4512 22.9359 22.5072 22.9401C22.5282 22.9416 22.5487 22.9432 22.5693 22.9468C22.5944 22.9505 22.6196 22.9572 22.6447 22.9609C22.6689 22.964 22.6935 22.9624 22.7171 22.9666C22.731 22.9692 22.7448 22.9713 22.7592 22.9723C22.7797 22.9525 22.7992 22.9318 22.8198 22.912C22.8321 22.9001 22.846 22.8897 22.8675 22.8704C22.8721 22.9011 22.8773 22.9208 22.8773 22.9406C22.8773 22.9541 22.8773 22.9676 22.8773 22.9811C22.9158 22.9817 22.9543 22.9817 22.9928 22.9806C23.0374 22.9796 23.0841 22.9796 23.1273 22.9895C23.1791 23.0019 23.1853 23.005 23.2114 22.9572C23.2258 22.9318 23.2376 22.9047 23.2494 22.8777C23.2715 22.8268 23.2936 22.7753 23.3141 22.7239C23.3331 22.675 23.3526 22.6262 23.3716 22.5773C23.3716 22.542 23.3716 22.5071 23.3706 22.4718C23.3701 22.451 23.3665 22.4297 23.3593 22.4099C23.3495 22.3824 23.3511 22.3611 23.3721 22.3387C23.4204 22.2873 23.4686 22.2358 23.5163 22.1844C23.54 22.1153 23.5625 22.0461 23.5862 21.977C23.6611 21.7582 23.736 21.5404 23.8105 21.3216C23.8562 21.187 23.9018 21.0519 23.946 20.9168C23.9522 20.898 23.9583 20.8788 23.9645 20.8601C23.8726 20.9989 23.7761 21.134 23.6719 21.2639C23.5687 21.3928 23.4722 21.5264 23.3675 21.6537H23.368ZM16.7185 25.1874C16.6754 25.1271 16.6338 25.0658 16.5907 25.006C16.5686 25.0071 16.5465 25.0081 16.524 25.0091C16.5471 25.1022 16.5707 25.1952 16.5968 25.2872C16.6179 25.3615 16.6389 25.4358 16.6605 25.5102C16.7046 25.5091 16.7488 25.5102 16.7929 25.507C16.794 25.4436 16.7945 25.3802 16.796 25.3168C16.7965 25.2877 16.7893 25.2664 16.7693 25.2461C16.7514 25.2279 16.7339 25.2082 16.7185 25.1874ZM25.7785 19.9033C25.7636 19.8487 25.7601 19.7936 25.7775 19.7385C25.7806 19.7281 25.7832 19.7136 25.7785 19.7053C25.7565 19.6647 25.7657 19.6221 25.7647 19.58C25.7575 19.3716 25.7503 19.1632 25.7421 18.9553C25.7395 18.9028 25.7323 18.8508 25.7282 18.7988C25.7231 18.7287 25.7216 18.658 25.7133 18.5878C25.6928 18.4018 25.6687 18.2162 25.6466 18.0296C25.6461 18.027 25.6461 18.0244 25.6456 18.0218C25.6302 17.8904 25.6168 17.7583 25.6014 17.6263C25.5855 17.4943 25.5717 17.3623 25.5511 17.2313C25.5388 17.1513 25.5239 17.0718 25.508 16.9923C25.4998 16.9528 25.4921 16.9133 25.4839 16.8738C25.4639 16.7776 25.4418 16.682 25.4177 16.5863C25.3684 16.3899 25.2852 16.2059 25.2077 16.0204C25.0471 15.6363 24.8556 15.2678 24.6395 14.9123C24.4906 14.668 24.3279 14.4326 24.157 14.2034C24.1549 14.2008 24.1534 14.1987 24.1513 14.1961C24.0676 14.0838 23.9799 13.9736 23.8885 13.8666C23.8603 13.8338 23.832 13.8011 23.8033 13.7689C23.7468 13.7049 23.6883 13.6431 23.6241 13.5859C23.5317 13.5033 23.4455 13.4144 23.3516 13.3339C23.1201 13.1358 22.8737 12.9576 22.6155 12.7965C22.4543 12.6951 22.2921 12.5958 22.1289 12.4986C21.9805 12.4108 21.8311 12.3251 21.6802 12.2424C21.5452 12.1681 21.4076 12.0979 21.2706 12.0278C21.1895 11.9862 21.1084 11.9446 21.0242 11.9108C20.8543 11.8422 20.6818 11.7793 20.5109 11.7144C20.2763 11.626 20.0335 11.5673 19.7917 11.5065C19.513 11.4363 19.2286 11.3958 18.9453 11.3542C18.6681 11.3137 18.3893 11.2825 18.1091 11.2705C17.9022 11.2617 17.6948 11.2544 17.488 11.2461C17.488 11.2492 17.488 11.2529 17.488 11.256C17.3114 11.256 17.1348 11.2513 16.9582 11.257C16.777 11.2632 16.5963 11.2768 16.4156 11.2934C16.2093 11.3121 16.0029 11.3344 15.7976 11.362C15.5435 11.3958 15.2915 11.4389 15.0405 11.4919C14.7125 11.5616 14.3845 11.6317 14.0621 11.7268C13.9923 11.7471 13.925 11.7767 13.8557 11.7986C13.749 11.8329 13.6417 11.8641 13.5349 11.8973C13.4605 11.9207 13.3855 11.942 13.3127 11.969C13.1787 12.0189 13.0468 12.0725 12.9133 12.1234C12.8086 12.1629 12.7023 12.1982 12.5991 12.2414C12.4534 12.3012 12.3091 12.364 12.1659 12.4295C12.036 12.4888 11.9087 12.5532 11.7809 12.6171C11.7229 12.6457 11.669 12.6858 11.6095 12.7091C11.5237 12.7424 11.4473 12.7913 11.3682 12.8354C11.2378 12.9082 11.1121 12.9893 10.9827 13.0641C10.6978 13.2289 10.435 13.4269 10.1778 13.6317C10.0064 13.7684 9.84315 13.916 9.68043 14.0641C9.5639 14.1701 9.45354 14.2834 9.3442 14.3967C9.20715 14.5386 9.07215 14.682 8.94844 14.8364C8.8545 14.9533 8.76262 15.0718 8.67125 15.1914C8.62659 15.2496 8.58398 15.3094 8.5424 15.3702C8.45771 15.4939 8.36788 15.615 8.29242 15.7444C8.16512 15.9616 8.04243 16.1815 7.93156 16.4081C7.83454 16.6071 7.75703 16.814 7.68157 17.0219C7.62614 17.1757 7.58199 17.3342 7.53939 17.4922C7.50345 17.6232 7.47265 17.7557 7.44699 17.8893C7.42492 18.0047 7.41311 18.1227 7.39668 18.2396C7.39258 18.2687 7.38744 18.2978 7.38334 18.3269C7.37564 18.3836 7.36486 18.4402 7.36178 18.4974C7.35202 18.6902 7.32841 18.882 7.32739 19.0759C7.32687 19.1445 7.32123 19.2141 7.32636 19.2822C7.34227 19.4849 7.32687 19.6881 7.34381 19.8913C7.3628 20.1158 7.35202 20.343 7.3859 20.567C7.38796 20.58 7.38642 20.5935 7.38642 20.6065C7.38693 20.6345 7.38642 20.6621 7.38847 20.6902C7.39976 20.8502 7.41106 21.0108 7.42389 21.1709C7.43313 21.2852 7.44391 21.3996 7.45623 21.5139C7.48343 21.767 7.53939 22.0144 7.6015 22.2613C7.65847 22.4874 7.72623 22.7093 7.80939 22.9271C7.87561 23.1012 7.93464 23.2784 7.99367 23.4557C8.04449 23.6095 8.08863 23.7659 8.13945 23.9198C8.20926 24.1313 8.29088 24.3382 8.38379 24.5409C8.46233 24.7113 8.55883 24.8693 8.6733 25.0164C8.7272 25.0861 8.78264 25.1547 8.83859 25.2222C8.90994 25.308 8.99515 25.3792 9.07728 25.4535C9.19586 25.5606 9.31495 25.6661 9.45046 25.7513C9.53567 25.8054 9.61472 25.8682 9.69993 25.9218C9.82826 26.0018 9.95659 26.0819 10.0926 26.1479C10.1552 26.178 10.2163 26.2118 10.2779 26.2445C10.4237 26.3235 10.5772 26.3854 10.7312 26.4462C10.8143 26.4789 10.8965 26.5143 10.9812 26.5423C11.0838 26.5766 11.1896 26.6021 11.2933 26.6349C11.6834 26.757 12.0817 26.8474 12.4806 26.9353C12.7921 27.0033 13.1084 27.046 13.424 27.0901C13.5585 27.1094 13.6946 27.1213 13.8296 27.1343C13.904 27.1416 13.9794 27.1395 14.0523 27.1515C14.1565 27.1686 14.2613 27.1707 14.366 27.1769C14.3916 27.179 14.4173 27.1743 14.4435 27.1749C14.5292 27.1769 14.6144 27.1795 14.7001 27.1827C14.7145 27.1832 14.7284 27.1878 14.7422 27.1904C14.7664 27.1946 14.79 27.2024 14.8136 27.2008C14.8547 27.1988 14.8957 27.1863 14.9368 27.1853C15.0774 27.1811 15.2181 27.1811 15.3587 27.1775C15.503 27.1738 15.6467 27.1681 15.7909 27.1619C15.8392 27.1598 15.8874 27.1509 15.9357 27.1473C16.0486 27.138 16.1621 27.1317 16.275 27.1213C16.3238 27.1166 16.3725 27.112 16.4213 27.1063C16.4849 27.099 16.5486 27.0917 16.6122 27.0839C16.6574 27.0787 16.7021 27.0714 16.7467 27.0647C16.8155 27.0548 16.8838 27.0434 16.9526 27.0345C17.025 27.0257 17.0978 27.02 17.1702 27.0101C17.1861 27.0085 17.2026 27.0065 17.2185 27.0039C17.2364 27.0013 17.2549 26.9981 17.2729 26.995C17.45 26.967 17.626 26.9368 17.8031 26.9072C17.8437 26.9004 17.8837 26.8937 17.9243 26.8869C17.9864 26.8765 18.0485 26.8661 18.1101 26.8557C18.145 26.849 18.1799 26.8427 18.2148 26.836C18.3088 26.8173 18.4027 26.7981 18.4966 26.7783C18.5439 26.7684 18.5911 26.7586 18.6383 26.7487C18.7035 26.7352 18.7687 26.7217 18.8339 26.7087C18.9879 26.678 19.1429 26.6525 19.2974 26.6229C19.3344 26.6156 19.3718 26.6078 19.4088 26.5995C19.4411 26.5917 19.4735 26.5834 19.5053 26.574C19.667 26.5262 19.8277 26.4758 19.9883 26.4244C20.1038 26.3875 20.2198 26.35 20.3343 26.3085C20.4134 26.2799 20.4898 26.2435 20.5679 26.2118C20.6084 26.1957 20.651 26.1842 20.6916 26.1676C20.8363 26.1063 20.9811 26.0444 21.1253 25.9816C21.2306 25.9353 21.3363 25.889 21.4395 25.8381C21.6479 25.7357 21.8542 25.6292 22.0616 25.5252C22.1648 25.4738 22.269 25.4249 22.3722 25.3729C22.4733 25.322 22.5744 25.27 22.6745 25.2165C22.7633 25.1692 22.8516 25.1209 22.9384 25.0699C23.0236 25.02 23.1108 24.9712 23.1909 24.913C23.3685 24.7841 23.5312 24.637 23.6904 24.4842C23.8444 24.3361 23.9819 24.1724 24.1318 24.0206C24.2884 23.8616 24.4408 23.6984 24.5948 23.5372C24.6061 23.5253 24.6169 23.5128 24.6266 23.4998C24.6698 23.4453 24.7134 23.3912 24.755 23.3356C24.7617 23.3273 24.7678 23.319 24.774 23.3106C24.8407 23.2202 24.9054 23.1282 24.9706 23.0362C24.9998 22.9946 25.0281 22.9531 25.0548 22.9099C25.0917 22.8502 25.1256 22.7883 25.1579 22.7259C25.2052 22.634 25.2483 22.5404 25.2909 22.4468C25.411 22.1828 25.4957 21.9053 25.566 21.6236C25.6163 21.4199 25.6697 21.2172 25.6954 21.0082C25.7118 20.8721 25.7272 20.7359 25.7416 20.5992C25.7421 20.594 25.7426 20.5883 25.7431 20.5831C25.7477 20.5379 25.7493 20.4916 25.7513 20.4459C25.7575 20.3232 25.7626 20.2006 25.7693 20.0779C25.7698 20.0628 25.7719 20.0472 25.7744 20.0322C25.7755 20.0249 25.777 20.0171 25.7785 20.0098C25.7867 19.9745 25.7893 19.9391 25.779 19.9033H25.7785ZM24.8017 22.3289C24.7591 22.4505 24.6924 22.5591 24.6277 22.6688C24.584 22.7426 24.5394 22.8159 24.4911 22.8865C24.4619 22.9292 24.4316 22.9707 24.3998 23.0108C24.3844 23.03 24.372 23.0508 24.3546 23.0768C24.351 23.0627 24.3479 23.0544 24.3474 23.0461C24.3438 23.0019 24.3412 22.9577 24.3382 22.9136C24.3377 22.9042 24.3366 22.8943 24.3361 22.885C24.331 22.8247 24.3238 22.7649 24.3207 22.7046C24.3156 22.6163 24.3146 22.5279 24.3094 22.4401C24.3063 22.3881 24.2981 22.3361 24.2925 22.2842C24.2884 22.2421 24.2838 22.2 24.2807 22.1574C24.275 22.0726 24.2709 21.9874 24.2642 21.9027C24.253 21.7514 24.2406 21.6002 24.2288 21.4495C24.2288 21.4427 24.2293 21.4355 24.2268 21.4297C24.2057 21.385 24.2242 21.3487 24.2494 21.3128C24.3176 21.2151 24.3854 21.1169 24.4526 21.0191C24.4691 20.9947 24.4845 20.9698 24.4999 20.9448C24.5322 20.8923 24.5645 20.8398 24.5974 20.7879C24.602 20.7889 24.6066 20.7899 24.6112 20.791C24.6169 20.8341 24.622 20.8773 24.6277 20.9209C24.6513 21.1143 24.6759 21.3076 24.6985 21.5015C24.7139 21.6329 24.7226 21.766 24.7416 21.897C24.7581 22.0118 24.7842 22.1251 24.8078 22.239C24.8145 22.2707 24.8125 22.2977 24.8017 22.3289ZM8.82935 23.4255V23.4759C8.80522 23.4697 8.8042 23.4546 8.8006 23.4411C8.74568 23.2524 8.69024 23.0638 8.63634 22.8751C8.60811 22.7743 8.58296 22.6724 8.55678 22.5705C8.55267 22.5544 8.5537 22.5373 8.55267 22.5207C8.55626 22.5186 8.56037 22.517 8.56396 22.5155C8.5809 22.5342 8.5999 22.5508 8.61427 22.5711C8.66303 22.6386 8.70975 22.7072 8.75851 22.7748C8.7734 22.7956 8.79136 22.8153 8.80933 22.8341C8.82884 22.8538 8.83602 22.8751 8.83551 22.9042C8.83243 23.0778 8.8314 23.2519 8.82935 23.4255ZM9.57828 23.7119C9.57417 23.7197 9.56544 23.7275 9.55774 23.7295C9.53721 23.7347 9.51668 23.7384 9.49563 23.7399C9.42633 23.7462 9.37346 23.7878 9.35704 23.8569C9.34728 23.8985 9.34164 23.9411 9.33958 23.9837C9.32778 24.2145 9.31803 24.4452 9.30776 24.676C9.30725 24.6942 9.30981 24.7124 9.30827 24.73C9.30673 24.7472 9.30109 24.7638 9.29749 24.7804C9.29339 24.7804 9.28928 24.781 9.28569 24.781C9.27953 24.7737 9.27131 24.7675 9.26823 24.7591C9.22306 24.6266 9.16352 24.4977 9.1435 24.3569C9.12707 24.2399 9.11527 24.123 9.11732 24.005C9.11835 23.913 9.11219 23.821 9.11835 23.7295C9.12296 23.6568 9.12194 23.5835 9.13374 23.5097C9.14709 23.4281 9.14042 23.3434 9.14196 23.2597C9.14247 23.2436 9.14196 23.228 9.14196 23.2041C9.15838 23.2135 9.16814 23.2171 9.17584 23.2239C9.1974 23.2436 9.21998 23.2628 9.23795 23.2857C9.2862 23.3465 9.3442 23.3954 9.40478 23.4421C9.46535 23.4889 9.52335 23.5388 9.58136 23.5887C9.59573 23.6007 9.60754 23.6168 9.61883 23.6292C9.60394 23.6599 9.59214 23.6864 9.57828 23.7119ZM10.1496 24.6193C10.1491 24.8927 10.1491 25.1666 10.1491 25.4405V25.5013C9.99406 25.4182 9.86779 25.3184 9.75537 25.1978C9.76204 25.2014 9.76872 25.2051 9.77539 25.2092C9.7836 25.2144 9.7913 25.2207 9.799 25.2264C9.82467 25.2461 9.85033 25.2664 9.87703 25.2851C9.88986 25.2939 9.90526 25.3012 9.92015 25.3059C9.95608 25.3158 9.96788 25.3069 9.96788 25.268C9.9684 25.178 9.96788 25.0876 9.96788 24.9977C9.96634 24.8127 9.96583 24.6271 9.96378 24.4421C9.96275 24.3439 9.95967 24.2456 9.9571 24.1469C9.9571 24.136 9.9571 24.1235 9.95248 24.1131C9.9376 24.0798 9.93862 24.0481 9.95146 24.0138C9.96121 23.9868 9.96686 23.9567 9.94119 23.9312C9.93349 23.9244 9.93452 23.9089 9.9299 23.8907C9.9648 23.8964 9.98893 23.9063 10.0115 23.9219C10.0413 23.9421 10.0695 23.9645 10.1008 23.9811C10.1404 24.0029 10.1517 24.0341 10.1511 24.0783C10.1491 24.2586 10.1501 24.439 10.1501 24.6193H10.1496ZM11.0962 24.558C11.0864 24.5767 11.0741 24.5949 11.0695 24.6152C11.0376 24.7539 11.0048 24.8927 10.9765 25.032C10.9345 25.2409 10.9144 25.453 10.8913 25.665C10.8842 25.7305 10.8641 25.7913 10.8313 25.8599C10.7645 25.8267 10.7019 25.796 10.6398 25.7653C10.6326 25.7617 10.627 25.7549 10.6193 25.7523C10.5664 25.7357 10.5582 25.6957 10.5572 25.6448C10.5515 25.2207 10.5438 24.796 10.5361 24.3714C10.5351 24.3392 10.5315 24.307 10.5295 24.2753C10.5361 24.2737 10.5402 24.2711 10.5423 24.2722C10.6147 24.3252 10.7024 24.3402 10.783 24.3735C10.8862 24.4166 10.9889 24.4603 11.0915 24.5045C11.0997 24.5081 11.1064 24.5159 11.1162 24.5242C11.109 24.5362 11.1018 24.5466 11.0962 24.558ZM11.8174 25.0528C11.7855 25.1178 11.7665 25.1864 11.7532 25.2581C11.6972 25.5694 11.7024 25.8838 11.7055 26.1983C11.706 26.2045 11.7044 26.2113 11.7034 26.216C11.6849 26.2295 11.6716 26.217 11.6572 26.2113C11.5694 26.177 11.4822 26.1427 11.3949 26.1084C11.3816 26.1026 11.3667 26.0995 11.3543 26.0928C11.3282 26.0777 11.3082 26.0569 11.3056 26.0242C11.301 25.9602 11.2933 25.8968 11.2917 25.8329C11.2892 25.7347 11.2917 25.6364 11.2902 25.5382C11.2886 25.4114 11.3082 25.2867 11.3261 25.1619C11.3446 25.0304 11.3718 24.901 11.4118 24.7742C11.417 24.7586 11.4226 24.7435 11.4288 24.7285C11.4303 24.7238 11.4344 24.7207 11.4406 24.7124C11.457 24.7165 11.476 24.7191 11.4935 24.7259C11.5966 24.7643 11.6998 24.8038 11.803 24.8428C11.821 24.8496 11.8394 24.8553 11.8574 24.8626C11.8718 24.8683 11.8861 24.875 11.9015 24.8818C11.8718 24.9421 11.8441 24.9972 11.8174 25.0528ZM12.7536 25.3236C12.7208 25.3854 12.6874 25.4478 12.6756 25.5185C12.669 25.5585 12.6659 25.599 12.6648 25.6396C12.6602 25.7705 12.6592 25.9015 12.6258 26.0299C12.6171 26.0626 12.6166 26.098 12.6099 26.1318C12.5935 26.2102 12.5745 26.2877 12.5365 26.3594C12.5221 26.3869 12.5026 26.4025 12.4703 26.3963C12.3928 26.3817 12.3117 26.3911 12.2373 26.3563C12.2018 26.3396 12.1859 26.3183 12.1854 26.2778C12.1828 26.0107 12.1772 25.7435 12.1762 25.4764C12.1757 25.3917 12.1859 25.3064 12.19 25.2217C12.1916 25.1921 12.1921 25.1625 12.1911 25.1333C12.19 25.1063 12.2018 25.0918 12.227 25.0824C12.2511 25.0741 12.2727 25.0585 12.2963 25.0497C12.3137 25.0429 12.3338 25.0372 12.3517 25.0393C12.479 25.0549 12.6038 25.0803 12.7249 25.1235C12.748 25.1318 12.7721 25.1365 12.7952 25.1437C12.8101 25.1479 12.8245 25.1541 12.844 25.1614C12.8106 25.2212 12.7814 25.2716 12.7536 25.3236ZM13.8332 25.4026C13.7741 25.4904 13.7146 25.5782 13.6555 25.6661C13.6294 25.7045 13.6124 25.7466 13.6119 25.7939C13.6114 25.835 13.6104 25.876 13.6099 25.9171C13.6093 25.9613 13.6068 26.0044 13.5981 26.0486C13.5878 26.1011 13.5919 26.1562 13.5857 26.2097C13.5708 26.3303 13.5549 26.4503 13.537 26.5699C13.5293 26.6224 13.5236 26.6245 13.4738 26.6167C13.3989 26.6047 13.3229 26.5959 13.2485 26.5808C13.1966 26.5699 13.1463 26.5507 13.0955 26.5345C13.0611 26.5242 13.0493 26.4987 13.0468 26.4639C13.0396 26.3677 13.0355 26.2705 13.019 26.1754C12.9975 26.047 12.9923 25.9181 12.9877 25.7887C12.9841 25.6744 13.0103 25.5642 13.0303 25.4535C13.0406 25.3974 13.0586 25.3464 13.0919 25.3002C13.1078 25.2784 13.1171 25.2513 13.1299 25.2259C13.1417 25.2259 13.153 25.2243 13.1638 25.2259C13.3563 25.2612 13.5488 25.296 13.7413 25.3319C13.7654 25.336 13.789 25.3412 13.8121 25.3485C13.8249 25.3522 13.8367 25.3605 13.8516 25.3677C13.8439 25.3828 13.8393 25.3932 13.8332 25.4026ZM14.8341 25.6037C14.7884 25.6401 14.7422 25.6765 14.695 25.7108C14.6581 25.7373 14.6627 25.7352 14.6658 25.7815C14.6719 25.8724 14.6735 25.9644 14.674 26.0564C14.6745 26.1182 14.6688 26.1806 14.6678 26.243C14.6647 26.3755 14.6627 26.508 14.6606 26.6411C14.6596 26.704 14.6565 26.7076 14.5934 26.7003C14.5667 26.7071 14.541 26.7144 14.5143 26.7206C14.4974 26.7242 14.4799 26.7294 14.4625 26.73C14.3768 26.731 14.291 26.7315 14.2048 26.731C14.1889 26.731 14.173 26.7274 14.1571 26.7248C14.135 26.7206 14.1134 26.7144 14.0914 26.7128C14.0575 26.7097 14.0308 26.6967 14.0205 26.6629C14 26.5928 13.9728 26.5247 13.9738 26.4483C13.9779 26.2404 13.9779 26.032 13.9784 25.8236C13.9784 25.7763 13.9738 25.7284 13.9702 25.6811C13.9661 25.6198 13.9851 25.5647 14.0149 25.5133C14.0328 25.4821 14.0539 25.4525 14.0729 25.4218C14.0847 25.4031 14.1006 25.3958 14.1222 25.3984C14.2074 25.4088 14.2926 25.4187 14.3778 25.4286C14.3922 25.4301 14.4065 25.4312 14.4209 25.4322C14.5277 25.439 14.6339 25.4436 14.7402 25.453C14.7771 25.4561 14.8131 25.4691 14.8495 25.4769C14.8731 25.4816 14.8798 25.4966 14.8788 25.5195C14.8767 25.5554 14.8603 25.5824 14.8341 25.6037ZM16.4798 25.5195C16.5311 25.5169 16.5825 25.5128 16.6343 25.5107C16.643 25.5102 16.6518 25.5102 16.6605 25.5102C16.7046 25.5091 16.7488 25.5102 16.7929 25.507C16.795 25.507 16.797 25.5065 16.7991 25.5065C16.8504 25.5029 16.9012 25.493 16.9526 25.4878L17.4833 25.426C17.4926 25.4202 17.4967 25.4161 17.5008 25.415C17.529 25.4109 17.5578 25.4062 17.586 25.4015C18.0013 25.3355 18.4083 25.2378 18.8087 25.1074C18.8128 25.1063 18.818 25.1089 18.8246 25.1105C18.8246 25.1557 18.8293 25.202 18.8236 25.2461C18.8046 25.4041 18.8046 25.5632 18.7979 25.7212C18.7944 25.7981 18.7979 25.8771 18.7815 25.9509C18.7656 26.0236 18.763 26.0969 18.7543 26.1697C18.7528 26.1827 18.7523 26.1957 18.7528 26.2087C18.7538 26.2388 18.7533 26.2513 18.7399 26.2591C18.7333 26.2632 18.7235 26.2658 18.7086 26.2695C18.6003 26.2955 18.4915 26.323 18.3822 26.3443C18.28 26.3646 18.1779 26.3838 18.0752 26.4031C18.0198 26.414 17.9643 26.4244 17.9084 26.4342C17.8452 26.4462 17.7816 26.4581 17.7184 26.4701L17.0799 26.5268C17.0558 26.5382 17.027 26.5408 16.9998 26.5449C16.8412 26.5694 16.6831 26.5948 16.524 26.6156C16.4393 26.6265 16.353 26.6297 16.2673 26.6328L15.7324 26.7029C15.6821 26.7076 15.6323 26.7087 15.582 26.7123C15.5579 26.7144 15.5343 26.7191 15.5107 26.7232C15.4963 26.7258 15.4824 26.731 15.4681 26.7315C15.3695 26.7357 15.2704 26.7398 15.1719 26.7424C15.1293 26.7435 15.1226 26.7388 15.1087 26.6967C15.1016 26.6754 15.0969 26.6525 15.0918 26.6302C15.0821 26.5855 15.0723 26.5408 15.0636 26.4961C15.059 26.4722 15.0543 26.4472 15.0538 26.4228C15.0513 26.2248 15.0415 26.0262 15.0625 25.8282C15.0708 25.7549 15.0851 25.6827 15.0969 25.6099C15.1021 25.5782 15.1077 25.5465 15.1129 25.5169C15.1816 25.5169 15.2458 25.5164 15.3105 25.5169C15.3331 25.5169 15.3556 25.519 15.3782 25.5205C15.483 25.5273 15.5877 25.5351 15.6929 25.5403C15.7422 25.5429 15.792 25.5419 15.8418 25.5408C15.8469 25.5403 15.8525 25.5403 15.8577 25.5403L16.4798 25.5195ZM20.1937 25.8262C20.0438 25.9031 19.8857 25.955 19.7235 25.9956C19.6891 26.0039 19.6552 26.0169 19.6218 26.0294C19.5186 26.0689 19.4144 26.1032 19.3051 26.1214C19.262 26.1281 19.2615 26.1292 19.2512 26.0886C19.187 25.8449 19.1234 25.6006 19.0597 25.3568C19.0346 25.2602 19.0089 25.164 18.9817 25.0595C19.2599 24.9639 19.5351 24.8672 19.8117 24.7753C19.937 24.7337 20.0561 24.6729 20.1926 24.6495C20.1952 24.6848 20.1967 24.717 20.2003 24.7487C20.2265 24.979 20.2188 25.2103 20.2224 25.441C20.2245 25.5491 20.2265 25.6572 20.2306 25.7653C20.2316 25.7965 20.2203 25.8126 20.1937 25.8262ZM20.4221 24.7628C20.418 24.7493 20.4123 24.7384 20.4113 24.7269C20.4092 24.6905 20.4082 24.6547 20.4072 24.6188C20.4062 24.5855 20.4159 24.5585 20.4544 24.5435C20.4585 24.7295 20.4575 24.7342 20.4221 24.7628ZM19.7799 24.2742C19.4997 24.3823 19.2112 24.4629 18.9263 24.5564C18.6157 24.6588 18.298 24.73 17.9813 24.8044C17.7097 24.8683 17.4351 24.9161 17.1589 24.9535C17.1102 24.9603 17.0619 24.9665 17.0137 24.9722C16.873 24.9894 16.7318 24.9993 16.5907 25.006C16.5686 25.0071 16.5465 25.0081 16.524 25.0091C16.469 25.0112 16.4141 25.0133 16.3592 25.0154C16.1795 25.0221 15.9999 25.0304 15.8202 25.0299C15.7673 25.0299 15.7145 25.0289 15.6611 25.0273C15.5312 25.0242 15.4013 25.018 15.2715 25.0138C15.1565 25.0102 15.0415 25.0076 14.9265 25.0034C14.8916 25.0019 14.8557 25.0045 14.8228 24.9857C14.812 24.9795 14.7977 24.979 14.7848 24.9779C14.7089 24.9743 14.6329 24.9753 14.5574 24.9676C14.4188 24.954 14.2803 24.94 14.1427 24.9192C13.9199 24.8849 13.6976 24.8491 13.4764 24.807C13.3162 24.7763 13.1576 24.7352 12.998 24.6978C12.8876 24.6723 12.7773 24.6464 12.6679 24.6167C12.5021 24.572 12.3363 24.5268 12.1757 24.465C11.9939 24.3948 11.8081 24.335 11.6279 24.2623C11.4627 24.1957 11.2989 24.123 11.1393 24.044C10.9981 23.9749 10.8636 23.8922 10.7255 23.8163C10.4591 23.6708 10.2204 23.4842 9.98226 23.2977C9.89294 23.2275 9.81081 23.1474 9.72354 23.0742C9.5639 22.9396 9.41607 22.7925 9.2785 22.635C9.13426 22.4708 9.00593 22.293 8.87709 22.1163C8.72104 21.9022 8.57526 21.6813 8.44282 21.4516C8.3843 21.3502 8.33656 21.2416 8.28985 21.1335C8.20772 20.9427 8.12816 20.7499 8.07323 20.5488C8.01318 20.331 7.96441 20.1101 7.93464 19.8851C7.91975 19.7697 7.89768 19.6554 7.88433 19.54C7.87253 19.4345 7.86996 19.3279 7.86123 19.2219C7.85302 19.1221 7.84275 19.0223 7.83352 18.9231C7.83249 18.9132 7.83044 18.9033 7.83044 18.894C7.83146 18.7266 7.833 18.5593 7.83454 18.3924C7.83454 18.3644 7.83352 18.3363 7.83557 18.3087C7.83762 18.2828 7.84224 18.2573 7.84635 18.2318C7.8484 18.2173 7.85405 18.2027 7.85353 18.1887C7.84737 18.0925 7.86534 17.9985 7.88587 17.9059C7.92643 17.724 7.97108 17.5427 8.01882 17.3623C8.04141 17.2766 8.07477 17.1944 8.10301 17.1108C8.10763 17.0983 8.11327 17.0868 8.11738 17.0744C8.17949 16.8925 8.26675 16.722 8.34683 16.5484C8.42383 16.3821 8.51161 16.2215 8.60965 16.0666C8.69743 15.9273 8.78982 15.7906 8.88427 15.6555C8.97924 15.5188 9.07369 15.3811 9.1784 15.2517C9.29801 15.1035 9.41504 14.9523 9.54902 14.8161C9.65527 14.7086 9.75537 14.5942 9.86419 14.4887C9.97045 14.3858 10.0834 14.2891 10.1948 14.1914C10.2605 14.1337 10.3282 14.0771 10.3965 14.022C10.6152 13.8468 10.8395 13.6795 11.0766 13.5303C11.2527 13.4201 11.4324 13.3157 11.6125 13.2117C11.7578 13.128 11.9123 13.0631 12.0679 13.0028C12.0776 12.9986 12.0889 12.9986 12.0997 12.9966C12.1023 13.0007 12.1048 13.0049 12.1074 13.0095C12.0894 13.0246 12.073 13.0418 12.0535 13.0542C11.9703 13.1083 11.8861 13.1608 11.802 13.2128C11.7717 13.232 11.7429 13.2512 11.7224 13.2829C11.7116 13.3001 11.6916 13.312 11.6736 13.3224C11.5643 13.3874 11.4616 13.4617 11.3682 13.5485C11.361 13.5553 11.3533 13.5615 11.3451 13.5667C11.1998 13.6634 11.0761 13.7871 10.9452 13.9014C10.8138 14.0173 10.6942 14.1472 10.5669 14.2689C10.4068 14.4227 10.2625 14.5916 10.1214 14.7626C10.0033 14.9061 9.89705 15.0594 9.7836 15.207C9.66657 15.3603 9.56339 15.523 9.46329 15.6877C9.31803 15.9273 9.19483 16.1784 9.08139 16.4341C9.0239 16.564 8.97667 16.6986 8.92842 16.8327C8.87709 16.9741 8.82781 17.117 8.78161 17.2604C8.75081 17.355 8.72617 17.4522 8.70051 17.5489C8.66303 17.6882 8.62505 17.8275 8.5922 17.9678C8.5655 18.0821 8.54446 18.1986 8.52341 18.3145C8.50134 18.4356 8.47567 18.5561 8.46335 18.6777C8.45206 18.7864 8.43923 18.8966 8.45668 19.0062C8.46233 19.0416 8.47311 19.0764 8.48389 19.1107C8.50699 19.1809 8.56294 19.2094 8.62967 19.2141C8.69691 19.2188 8.75338 19.1923 8.78982 19.1315C8.816 19.0868 8.82576 19.0369 8.83294 18.9865C8.85963 18.8066 8.88735 18.6268 8.91199 18.4465C8.94125 18.2282 8.99258 18.0146 9.05315 17.8036C9.15684 17.4408 9.27953 17.0853 9.44122 16.7443C9.50949 16.5993 9.5793 16.4543 9.65887 16.3156C9.76256 16.1363 9.85598 15.9502 9.97815 15.7813C10.0546 15.6758 10.1209 15.5625 10.1973 15.457C10.2728 15.352 10.3539 15.2517 10.4345 15.1514C10.5202 15.0443 10.6064 14.9383 10.6947 14.8333C10.7471 14.7709 10.8036 14.7122 10.8585 14.6519C10.9206 14.5849 10.9812 14.5163 11.0453 14.4513C11.2188 14.2751 11.3995 14.1051 11.592 13.9497C11.7198 13.8463 11.8476 13.7424 11.9888 13.6582C12.1659 13.5521 12.3379 13.4368 12.5319 13.3635C12.6197 13.3302 12.7049 13.2897 12.7916 13.2533C12.8111 13.245 12.8312 13.2377 12.8512 13.232C12.9395 13.2086 13.0149 13.1613 13.0811 13.0995C13.1386 13.0454 13.1746 12.9778 13.1869 12.8994C13.191 12.877 13.1838 12.851 13.1761 12.8282C13.1571 12.771 13.133 12.7149 13.1145 12.6577C13.1007 12.6161 13.1058 12.6036 13.1448 12.5818C13.2043 12.5491 13.2644 12.5158 13.3265 12.4888C13.4805 12.4233 13.6366 12.364 13.7982 12.3204C13.8059 12.3183 13.8142 12.3157 13.8213 12.3126C13.9291 12.2601 14.0457 12.2383 14.1601 12.2076C14.3008 12.1702 14.4414 12.1307 14.5831 12.0959C14.8552 12.0293 15.1277 11.9618 15.4013 11.9004C15.6082 11.8542 15.8176 11.8209 16.0296 11.8022C16.1636 11.7908 16.296 11.7663 16.43 11.7539C16.5702 11.7409 16.7113 11.7367 16.852 11.7263C17.1492 11.7045 17.4474 11.705 17.7451 11.7097C17.8375 11.7113 17.9294 11.7118 18.0213 11.7253C18.1122 11.7388 18.2051 11.7393 18.297 11.7466C18.549 11.7669 18.8005 11.7934 19.0495 11.8381C19.2281 11.8698 19.4067 11.901 19.5828 11.9436C19.86 12.0111 20.1321 12.0974 20.4015 12.1925C20.7008 12.298 20.9883 12.4306 21.2696 12.5756C21.4395 12.6634 21.6048 12.7616 21.7685 12.8604C21.9189 12.9513 22.0678 13.0444 22.2115 13.1457C22.4163 13.2892 22.616 13.4409 22.8172 13.5901C22.8588 13.6208 22.8978 13.6561 22.9373 13.6904C23.0066 13.7512 23.0754 13.8125 23.1432 13.8754C23.2674 13.9903 23.388 14.1093 23.502 14.2366C23.5138 14.2501 23.5261 14.2637 23.5379 14.2772C23.6873 14.4466 23.8284 14.6212 23.9604 14.8042C24.0984 14.9965 24.2278 15.195 24.332 15.4092C24.3428 15.431 24.3592 15.4502 24.3705 15.472C24.4141 15.5542 24.4593 15.6358 24.4999 15.7194C24.581 15.8857 24.6662 16.05 24.7278 16.2251C24.7416 16.2646 24.755 16.3041 24.7678 16.3442C24.796 16.4283 24.8227 16.5136 24.8525 16.5978C24.8807 16.6789 24.8977 16.761 24.9059 16.8467C24.909 16.8779 24.9121 16.9091 24.9162 16.9408C24.9192 16.9715 24.9228 17.0021 24.9269 17.0328C24.9331 17.0811 24.9393 17.13 24.9449 17.1788C24.948 17.2095 24.9495 17.2412 24.9475 17.2724C24.9444 17.3103 24.9423 17.3467 24.9649 17.381C24.9706 17.3899 24.9701 17.4034 24.9701 17.4148C24.9695 17.4663 24.9695 17.5172 24.9695 17.5686C24.9695 17.6747 24.9695 17.7807 24.9629 17.8867C24.9593 17.9517 24.9516 18.0166 24.9495 18.0816C24.9444 18.2625 24.9213 18.4413 24.8987 18.6206C24.8792 18.7723 24.8453 18.9215 24.8058 19.0691C24.7945 19.1096 24.7832 19.1502 24.7719 19.1907C24.6929 19.4693 24.5784 19.7333 24.4562 19.9942C24.3335 20.2557 24.1924 20.5062 24.0374 20.7489C24.0132 20.7863 23.9891 20.8232 23.965 20.8601C23.8731 20.9989 23.7766 21.134 23.6724 21.2639C23.5692 21.3928 23.4727 21.5264 23.368 21.6537C23.2802 21.7608 23.1863 21.8632 23.0934 21.9656C23.0179 22.0493 22.9419 22.1324 22.8624 22.2119C22.7192 22.3549 22.578 22.4993 22.4317 22.6386C22.3624 22.7052 22.2921 22.7706 22.2202 22.8341C22.0611 22.9744 21.8994 23.1105 21.7285 23.2358C21.7054 23.253 21.6818 23.2701 21.6581 23.2862C21.4631 23.4276 21.2629 23.5612 21.0565 23.6869C20.8646 23.8039 20.6633 23.9011 20.4601 23.9951C20.2373 24.0986 20.0089 24.1859 19.7799 24.2742ZM21.4985 25.2654C21.4056 25.3106 21.3132 25.3579 21.2198 25.4036C21.1115 25.4561 21.0037 25.5086 20.8943 25.558C20.8297 25.5871 20.7624 25.6094 20.6957 25.6349C20.6736 25.6042 20.668 25.5741 20.6633 25.5434C20.6438 25.4156 20.6248 25.2882 20.6135 25.1593C20.5961 24.967 20.5658 24.7758 20.5391 24.5845C20.5237 24.4759 20.5232 24.4722 20.6228 24.4307C20.7367 24.3829 20.8435 24.321 20.9503 24.2597C21.0796 24.1848 21.2121 24.1162 21.3435 24.0455C21.3548 24.0393 21.3676 24.0372 21.3835 24.0315C21.3999 24.0897 21.4153 24.1412 21.4282 24.1932C21.4436 24.2545 21.4569 24.3158 21.4677 24.3777C21.5077 24.5887 21.5262 24.8023 21.5283 25.018C21.5288 25.0289 21.5288 25.0393 21.5288 25.0502C21.5288 25.1027 21.5288 25.1552 21.5324 25.2077C21.5339 25.2368 21.5242 25.2529 21.4985 25.2654ZM22.8526 24.3901C22.8367 24.4811 22.7921 24.5554 22.7397 24.6261C22.7258 24.6453 22.7038 24.6599 22.6827 24.6713C22.4841 24.7779 22.2823 24.8792 22.0739 24.9655C22.0667 24.9686 22.0585 24.9696 22.0478 24.9722C22.0221 24.9317 21.999 24.8901 21.9882 24.8444C21.9435 24.6505 21.9133 24.4551 21.8989 24.2571C21.8984 24.2524 21.8984 24.2472 21.8979 24.2425C21.8948 24.1973 21.8835 24.1521 21.8773 24.1069C21.8609 23.9884 21.846 23.8699 21.8296 23.7519C21.826 23.7244 21.8435 23.7129 21.8604 23.701C21.9174 23.6609 21.9764 23.623 22.0329 23.5814C22.0868 23.5419 22.1407 23.5024 22.194 23.4629C22.2089 23.4515 22.2233 23.4406 22.2382 23.4291C22.3347 23.3564 22.4291 23.28 22.5169 23.1958C22.5816 23.1339 22.6499 23.0757 22.7156 23.0149C22.7305 23.0009 22.7448 22.9869 22.7592 22.9723C22.7797 22.9525 22.7992 22.9318 22.8198 22.912C22.8321 22.9001 22.846 22.8897 22.8675 22.8704C22.8721 22.9011 22.8773 22.9208 22.8773 22.9406C22.8773 22.9541 22.8773 22.9676 22.8773 22.9811C22.8798 23.11 22.8819 23.2394 22.8814 23.3683C22.8814 23.4177 22.8814 23.4676 22.8819 23.517C22.8819 23.6791 22.8824 23.8413 22.8762 24.0029C22.8757 24.0112 22.8757 24.0196 22.8752 24.0279C22.8706 24.1344 22.8732 24.242 22.8588 24.3486C22.8567 24.3626 22.8547 24.3761 22.8521 24.3901H22.8526ZM23.8182 23.5861C23.8156 23.6365 23.7951 23.6755 23.7586 23.7103C23.6262 23.8361 23.4861 23.9525 23.3372 24.0575C23.331 24.0617 23.3233 24.0637 23.3115 24.0695C23.31 24.0549 23.3085 24.044 23.3085 24.0336V23.9608C23.3085 23.8184 23.3079 23.675 23.3095 23.5321C23.31 23.4853 23.3182 23.438 23.3223 23.3912C23.3259 23.3455 23.329 23.2997 23.3316 23.254C23.3393 23.1183 23.347 22.9827 23.3541 22.847C23.3557 22.8211 23.3577 22.7951 23.3567 22.7686C23.3557 22.7405 23.3531 22.7135 23.367 22.687C23.3716 22.6776 23.3716 22.6651 23.3716 22.6537C23.3716 22.6282 23.3721 22.6028 23.3721 22.5773C23.3721 22.542 23.3721 22.5071 23.3711 22.4718C23.3706 22.451 23.367 22.4297 23.3598 22.4099C23.35 22.3824 23.3516 22.3611 23.3726 22.3387C23.4209 22.2873 23.4691 22.2358 23.5169 22.1844C23.5846 22.1121 23.6519 22.0394 23.7196 21.9677C23.7443 21.9417 23.772 21.9193 23.8028 21.8907C23.8249 22.003 23.8551 22.1059 23.8572 22.2145C23.8577 22.2379 23.8633 22.2608 23.8685 22.2842C23.8716 22.2992 23.8746 22.3143 23.8767 22.3299C23.8793 22.3575 23.8746 22.3855 23.8757 22.4131C23.8762 22.4427 23.8803 22.4718 23.8813 22.5009C23.8834 22.5581 23.8864 22.6152 23.8859 22.6724C23.8854 22.7743 23.8839 22.8761 23.8823 22.978C23.8813 23.0284 23.8808 23.0788 23.8798 23.1293C23.8798 23.1376 23.8813 23.148 23.8777 23.1537C23.8515 23.1906 23.8623 23.2322 23.8613 23.2722C23.8608 23.3003 23.8582 23.3278 23.8546 23.3553C23.85 23.3907 23.8367 23.425 23.8515 23.4614C23.8556 23.4712 23.851 23.4889 23.8438 23.4983C23.8438 23.4983 23.8438 23.4986 23.8438 23.4993C23.8249 23.5258 23.8197 23.5554 23.8187 23.5861H23.8182ZM25.2149 20.6325C25.2129 20.8061 25.1908 20.9786 25.1641 21.1501C25.1446 21.2775 25.1164 21.4043 25.0902 21.5306C25.083 21.5664 25.0691 21.6012 25.0583 21.6361C25.0558 21.6355 25.0537 21.635 25.0512 21.6345C25.0501 21.6257 25.0486 21.6168 25.0486 21.6075C25.0512 21.4531 25.0209 21.3014 25.0014 21.1496C24.9844 21.016 24.9742 20.8825 24.9731 20.7484C24.9731 20.6813 24.9793 20.6143 24.9829 20.5472C24.9844 20.5145 24.9824 20.4812 24.987 20.449C24.9926 20.41 24.9978 20.3705 25.0034 20.331C25.0101 20.2863 25.0178 20.2416 25.0291 20.198C25.0609 20.0779 25.0963 19.9584 25.1318 19.8388C25.1461 19.7889 25.161 19.7385 25.1759 19.6886C25.181 19.671 25.1898 19.6538 25.1969 19.6361C25.2011 19.6367 25.2046 19.6372 25.2088 19.6377C25.2123 19.671 25.2185 19.7042 25.2185 19.7375V19.8612C25.2185 20.0405 25.218 20.2198 25.2165 20.3991C25.2165 20.4771 25.2159 20.5545 25.2149 20.6325ZM16.7693 25.2461C16.7514 25.2279 16.7339 25.2082 16.7185 25.1874C16.6754 25.1271 16.6338 25.0658 16.5907 25.006C16.5686 25.0071 16.5465 25.0081 16.524 25.0091C16.5471 25.1022 16.5707 25.1952 16.5968 25.2872C16.6179 25.3615 16.6389 25.4358 16.6605 25.5102C16.7046 25.5091 16.7488 25.5102 16.7929 25.507C16.794 25.4436 16.7945 25.3802 16.796 25.3168C16.7965 25.2877 16.7893 25.2664 16.7693 25.2461ZM22.8824 23.517C22.8824 23.6791 22.8829 23.8413 22.8768 24.0029C22.9142 23.8605 22.9435 23.716 22.9712 23.571C22.9738 23.5586 22.9733 23.5456 22.9748 23.5227C22.9425 23.5206 22.9122 23.5191 22.8824 23.517ZM22.8824 23.517C22.8824 23.6791 22.8829 23.8413 22.8768 24.0029C22.9142 23.8605 22.9435 23.716 22.9712 23.571C22.9738 23.5586 22.9733 23.5456 22.9748 23.5227C22.9425 23.5206 22.9122 23.5191 22.8824 23.517Z" fill="#F6F6F6"/>
<path d="M20.6766 15.2488C20.6315 15.1475 20.5586 15.0861 20.4451 15.0835C20.4287 15.0835 20.4123 15.0809 20.3964 15.0835C20.2911 15.0944 20.1951 15.0607 20.1002 15.0206C20.0391 14.9947 19.978 14.9687 19.9169 14.9422C19.8558 14.9162 19.7953 14.8897 19.7337 14.8647C19.5735 14.7987 19.4057 14.7639 19.2357 14.7374C19.1783 14.7286 19.1197 14.7254 19.0622 14.7156C18.957 14.6984 18.8523 14.6766 18.7466 14.6599C18.6393 14.6433 18.532 14.6298 18.4242 14.6158C18.3975 14.6121 18.3703 14.6127 18.3364 14.6106C18.3569 14.5654 18.3744 14.5253 18.3939 14.4864C18.5161 14.2379 18.6495 13.9962 18.8015 13.7655C18.8446 13.7 18.8862 13.633 18.9247 13.5649C18.9544 13.5124 18.9473 13.4786 18.9011 13.4391C18.8728 13.4152 18.8415 13.3939 18.8087 13.3762C18.7609 13.3502 18.7378 13.3565 18.6947 13.3928C18.6418 13.4381 18.6064 13.4968 18.5659 13.5519C18.4606 13.6938 18.3626 13.8398 18.2728 13.9921C18.1711 14.1636 18.0654 14.333 17.9679 14.5066C17.9376 14.5602 17.9063 14.5768 17.8467 14.5747C17.7389 14.5706 17.6301 14.5783 17.5218 14.5815C17.4812 14.5825 17.4407 14.5815 17.4006 14.5851C17.3591 14.5882 17.318 14.5991 17.2764 14.6002C17.1568 14.6028 17.0372 14.6085 16.9192 14.6277C16.9171 14.6277 16.915 14.623 16.9115 14.6199C16.9269 14.5882 16.9448 14.5576 16.9576 14.5243C16.9802 14.4666 17.0013 14.4079 17.0203 14.3486C17.0434 14.2748 17.0583 14.1995 17.0562 14.1215C17.0542 14.0295 16.9967 13.9583 16.9079 13.9391C16.8534 13.9271 16.7985 13.9287 16.7441 13.9386C16.6887 13.949 16.6486 13.9801 16.624 14.0295C16.6029 14.0701 16.5845 14.1121 16.567 14.1542C16.5034 14.3107 16.4402 14.4666 16.3781 14.6236C16.3617 14.6651 16.335 14.6917 16.2914 14.7005C16.2816 14.7026 16.2729 14.7062 16.2631 14.7088C16.0819 14.754 15.9079 14.819 15.7354 14.8923C15.5917 14.9536 15.4521 15.0212 15.3197 15.1043C15.2273 15.162 15.1318 15.215 15.045 15.2805C14.9501 15.3517 14.8638 15.4338 14.7735 15.5118C14.6606 15.609 14.5656 15.7233 14.4824 15.847C14.4013 15.9676 14.3326 16.0944 14.2853 16.2347C14.2463 16.3512 14.2294 16.4712 14.2171 16.5908C14.2068 16.6895 14.2099 16.7898 14.2355 16.8891C14.2638 16.9993 14.2961 17.1068 14.3675 17.1978C14.4095 17.2519 14.4552 17.3028 14.5004 17.3542C14.5076 17.3631 14.5168 17.3704 14.5266 17.3761C14.5702 17.4047 14.6123 17.4353 14.6585 17.4592C14.7129 17.4878 14.7704 17.5096 14.8269 17.5346C14.8726 17.5554 14.9182 17.5762 14.9634 17.598C14.9865 17.6094 14.9901 17.6271 14.9793 17.651C14.9639 17.6869 14.9511 17.7243 14.9362 17.7607C14.7725 18.1515 14.6072 18.5418 14.4676 18.9431C14.371 19.2196 14.2725 19.4961 14.175 19.772C14.1046 19.9711 14.0343 20.1707 13.964 20.3697C13.9583 20.3843 13.9512 20.3983 13.9424 20.4165C13.7366 20.3489 13.5349 20.2835 13.3336 20.2159C13.2464 20.1863 13.1601 20.1514 13.0739 20.1197C12.9399 20.0704 12.8049 20.0231 12.672 19.9716C12.5462 19.9228 12.423 19.8687 12.2983 19.8183C12.2228 19.7881 12.1463 19.7616 12.0714 19.731C11.9631 19.6873 11.8553 19.6416 11.7475 19.5969C11.6772 19.5678 11.6038 19.5574 11.5283 19.5641C11.4549 19.5704 11.401 19.6078 11.3651 19.6728C11.2983 19.7949 11.3312 19.9347 11.4513 20.0127C11.515 20.0537 11.5843 20.0865 11.6536 20.1182C11.9041 20.231 12.1664 20.312 12.422 20.4103C12.6504 20.4981 12.8814 20.5792 13.1119 20.6634C13.194 20.693 13.2751 20.7278 13.3593 20.7512C13.5133 20.7933 13.6586 20.8562 13.8043 20.9201C13.8079 20.9222 13.811 20.9274 13.8162 20.9331C13.8131 20.9456 13.81 20.9601 13.8059 20.9742C13.7612 21.1296 13.7176 21.286 13.6704 21.4409C13.5852 21.72 13.4969 21.9981 13.4111 22.2766C13.3886 22.3504 13.3691 22.4248 13.3531 22.5001C13.3357 22.5807 13.3793 22.6358 13.4599 22.6404C13.5 22.6425 13.5385 22.6311 13.5687 22.6051C13.6 22.5776 13.6308 22.5469 13.655 22.5131C13.7366 22.3972 13.7854 22.2636 13.8357 22.1327C13.905 21.9508 13.9645 21.7647 14.0312 21.5817C14.0975 21.4019 14.1673 21.2236 14.236 21.0449C14.2479 21.0142 14.2545 21.0116 14.2884 21.0194C14.3028 21.0225 14.3166 21.0272 14.331 21.0293C14.427 21.0433 14.523 21.0563 14.6195 21.0703C14.6831 21.0792 14.7473 21.0896 14.811 21.0989C14.8238 21.101 14.8366 21.1 14.8495 21.1005C14.9028 21.1036 14.9557 21.1072 15.0147 21.1109C15.0132 21.1332 15.0137 21.1462 15.0112 21.1587C14.9768 21.3375 14.9408 21.5157 14.888 21.6904C14.8762 21.7294 14.8685 21.7699 14.8638 21.8104C14.8536 21.9014 14.8987 21.9627 14.9855 21.984C15.0091 21.9897 15.0322 21.9975 15.0543 22.0074C15.0769 22.0178 15.0959 22.0162 15.1102 21.9965C15.1344 21.9637 15.1605 21.932 15.1785 21.8962C15.2149 21.8239 15.2498 21.7512 15.2848 21.6784C15.3012 21.6452 15.3171 21.6119 15.3335 21.5786C15.4054 21.4321 15.4793 21.286 15.5517 21.14C15.5681 21.1072 15.5763 21.101 15.6122 21.1026C15.6282 21.1036 15.6446 21.1062 15.6605 21.1052C15.7041 21.1015 15.7483 21.0984 15.7919 21.0948C15.8545 21.0901 15.9172 21.0844 15.9793 21.0755C16.1312 21.0537 16.2837 21.0303 16.4346 21.0028C16.4633 20.9976 16.4916 20.9924 16.5203 20.9867C16.6363 20.9643 16.7518 20.9357 16.8658 20.904C16.8796 20.9004 16.8935 20.8962 16.9073 20.8926C17.0511 20.852 17.1933 20.8068 17.3349 20.76C17.5978 20.6727 17.8637 20.5927 18.1085 20.4576C18.1152 20.4539 18.1229 20.4508 18.1306 20.4477C18.2553 20.3931 18.38 20.3385 18.5048 20.2835C18.7045 20.1956 18.8887 20.0792 19.0761 19.9685C19.091 19.9597 19.1054 19.9477 19.1177 19.9352C19.1741 19.8786 19.2311 19.8225 19.2855 19.7642C19.3569 19.6873 19.4 19.5938 19.4313 19.495C19.4842 19.3308 19.4693 19.1645 19.437 18.9987C19.4185 18.9041 19.379 18.8183 19.3317 18.7352C19.3004 18.6801 19.2701 18.6224 19.2296 18.5741C19.1649 18.4971 19.0951 18.4233 19.0212 18.3547C18.9216 18.2617 18.8323 18.1551 18.7091 18.0902C18.6968 18.0834 18.687 18.0715 18.6752 18.0626C18.6449 18.0408 18.6157 18.0174 18.5838 17.9982C18.5002 17.9483 18.4165 17.8984 18.3308 17.8516C18.2923 17.8314 18.2543 17.8106 18.2153 17.7913C18.1716 17.769 18.1275 17.7472 18.0823 17.7274C17.9761 17.6806 17.8683 17.6385 17.7589 17.6006C17.6342 17.5564 17.5074 17.5174 17.3801 17.4821C17.3544 17.4748 17.3283 17.4675 17.3026 17.4613C17.1609 17.4228 17.0182 17.3885 16.8765 17.3522C16.8637 17.349 16.8509 17.3449 16.8365 17.3402C16.8339 17.3392 16.8319 17.3386 16.8293 17.3376C16.836 17.322 16.8401 17.3116 16.8452 17.3017C16.8832 17.2274 16.9243 17.1547 16.9592 17.0788C17.0747 16.8278 17.22 16.5918 17.3283 16.3371C17.3339 16.3236 17.3426 16.3111 17.3493 16.2981C17.4361 16.1204 17.5259 15.9437 17.609 15.7644C17.6671 15.6396 17.7348 15.5237 17.8344 15.4292C17.9345 15.3335 18.0361 15.24 18.1383 15.1459C18.147 15.1381 18.1614 15.1319 18.1727 15.1319C18.2245 15.1339 18.2758 15.1376 18.3272 15.1417C18.3482 15.1433 18.3688 15.1506 18.3893 15.1516C18.4817 15.1563 18.5736 15.1584 18.666 15.1636C18.7255 15.1672 18.7856 15.1719 18.8446 15.1802C18.9724 15.1989 19.1002 15.2197 19.228 15.242C19.2563 15.2467 19.2845 15.2514 19.3122 15.2571C19.3605 15.266 19.4087 15.2758 19.456 15.2893C19.61 15.3335 19.7593 15.3897 19.9 15.4666C19.92 15.4775 19.94 15.4889 19.96 15.5009C19.9677 15.505 19.9749 15.5097 19.9826 15.5144C20.0658 15.5658 20.1551 15.6048 20.2485 15.6344C20.306 15.6521 20.3656 15.6537 20.4205 15.6303C20.5026 15.5955 20.5791 15.5482 20.635 15.4744C20.6489 15.4562 20.6612 15.4364 20.671 15.4162C20.6956 15.3616 20.7018 15.306 20.6766 15.2493V15.2488ZM14.8289 16.8106C14.7617 16.7363 14.7401 16.649 14.7591 16.5518C14.7879 16.4037 14.851 16.2711 14.9336 16.1448C14.9891 16.0606 15.0579 15.9889 15.1267 15.9187C15.2016 15.8429 15.2812 15.7696 15.373 15.7129C15.4408 15.6713 15.5024 15.6194 15.5758 15.5877C15.7123 15.5284 15.8494 15.4692 15.9865 15.4104C16.0131 15.399 16.0404 15.3902 16.0763 15.3767C16.0722 15.3912 16.0717 15.3974 16.0686 15.4032C15.9972 15.544 15.9243 15.6849 15.854 15.8267C15.7791 15.9795 15.7062 16.1329 15.6333 16.2867C15.5614 16.4385 15.4916 16.5923 15.4182 16.7436C15.3761 16.8304 15.3289 16.914 15.2837 16.9993C15.2745 17.0175 15.2611 17.0247 15.2401 17.0216C15.0799 16.9972 14.9398 16.9338 14.8289 16.8106ZM15.6266 19.5641C15.5856 19.6832 15.5476 19.8037 15.5039 19.9217C15.4932 19.9519 15.4819 19.9815 15.4706 20.0111C15.4326 20.1114 15.3931 20.2112 15.3541 20.311C15.334 20.363 15.3114 20.4139 15.2894 20.4648C15.2781 20.4919 15.2663 20.5189 15.2519 20.5449C15.2257 20.5922 15.2196 20.5891 15.1677 20.5771C15.1241 20.5667 15.0779 20.5667 15.0332 20.5677C14.9408 20.5698 14.8484 20.5693 14.7571 20.5537C14.7335 20.5496 14.7088 20.5511 14.6847 20.548C14.6595 20.5449 14.6344 20.5381 14.6092 20.534C14.5887 20.5308 14.5676 20.5288 14.5471 20.5272C14.4912 20.5231 14.4753 20.5101 14.4696 20.4534C14.465 20.4097 14.4634 20.3651 14.4655 20.3209C14.4722 20.1426 14.5045 19.9695 14.5641 19.8017C14.6334 19.6057 14.6985 19.4082 14.7694 19.2128C14.8279 19.0512 14.8885 18.8906 14.9547 18.7321C15.0476 18.5086 15.1456 18.2872 15.2447 18.0668C15.296 17.9519 15.3535 17.8402 15.4105 17.7279C15.4316 17.6869 15.4382 17.6884 15.4803 17.6952C15.5681 17.7092 15.6559 17.7222 15.7442 17.7326C15.8699 17.7477 15.9952 17.7591 16.1209 17.7726C16.1266 17.7726 16.1322 17.7773 16.1425 17.7815C16.1348 17.8106 16.1261 17.8381 16.1215 17.8662C16.1076 17.9504 16.0922 18.0346 16.0835 18.1188C16.0701 18.2529 16.0275 18.3781 15.9865 18.5039C15.9428 18.6369 15.8987 18.7684 15.8535 18.9004C15.8525 18.903 15.8515 18.9062 15.8504 18.9088C15.776 19.1276 15.7011 19.3459 15.6266 19.5641ZM16.9612 17.9005C16.99 17.9057 17.0182 17.9124 17.0465 17.9192C17.1455 17.9436 17.2405 17.9821 17.3375 18.0143C17.376 18.0273 17.414 18.0398 17.4525 18.0522C17.4571 18.0538 17.4622 18.0554 17.4669 18.0569C17.6173 18.1073 17.7615 18.1713 17.8991 18.2492C17.9355 18.2695 17.9709 18.2913 18.0064 18.3137C18.2148 18.4457 18.4185 18.587 18.5951 18.7627C18.7075 18.8755 18.801 19.0028 18.8626 19.152C18.8687 19.1671 18.8739 19.1827 18.879 19.1983C18.8903 19.231 18.8841 19.2559 18.8646 19.2882C18.7732 19.4378 18.6424 19.547 18.5109 19.6567C18.4119 19.7393 18.3 19.8027 18.1917 19.8713C18.0346 19.9711 17.8672 20.0496 17.6984 20.1244C17.6224 20.1577 17.5428 20.1821 17.4674 20.2159C17.3067 20.2876 17.1373 20.3307 16.9689 20.377C16.9361 20.3858 16.9032 20.3952 16.8704 20.4046C16.76 20.4368 16.645 20.4544 16.5316 20.4742C16.5193 20.4763 16.5064 20.4789 16.4941 20.481C16.3509 20.5064 16.2067 20.5298 16.0624 20.5516C16.0034 20.5605 15.9433 20.5631 15.8761 20.5688C15.8592 20.5714 15.8402 20.5615 15.8242 20.5428C15.8201 20.5381 15.8165 20.534 15.813 20.5293C15.777 20.482 15.7632 20.4316 15.7775 20.3666C15.8396 20.0948 15.9197 19.8282 16.0008 19.5621C16.0465 19.4119 16.0881 19.2601 16.1379 19.1109C16.1923 18.9477 16.2529 18.7871 16.3124 18.626C16.3771 18.4509 16.4443 18.2768 16.5095 18.1021C16.5378 18.0268 16.5639 17.9514 16.5927 17.8766C16.6065 17.8397 16.6148 17.835 16.6512 17.8418C16.7549 17.861 16.8586 17.8781 16.9612 17.9005ZM17.5988 15.1339C17.5485 15.2098 17.5223 15.2961 17.4961 15.3824C17.4551 15.518 17.3929 15.6438 17.3272 15.7685C17.2359 15.9421 17.1471 16.1168 17.0562 16.2909C17.0311 16.3382 17.0013 16.3839 16.9746 16.4307C16.9109 16.5409 16.8493 16.6526 16.7841 16.7623C16.7585 16.8054 16.7272 16.8454 16.6974 16.886C16.6764 16.9151 16.6512 16.9416 16.6317 16.9717C16.5598 17.0829 16.4582 17.1604 16.3478 17.2274C16.3355 17.2347 16.3165 17.2347 16.3021 17.2316C16.2693 17.2233 16.237 17.2155 16.202 17.2217C16.1882 17.2238 16.1728 17.2207 16.1589 17.2181C16.0419 17.1999 15.9254 17.1822 15.8094 17.1625C15.7601 17.1536 15.7118 17.1401 15.6564 17.1271C15.6615 17.11 15.6646 17.097 15.6692 17.0855C15.7457 16.8995 15.8227 16.7134 15.8987 16.5273C15.9628 16.3714 16.0203 16.2129 16.0901 16.0596C16.1651 15.8943 16.2313 15.7249 16.3232 15.5679C16.3781 15.4733 16.4284 15.3761 16.4792 15.2789C16.49 15.2587 16.5034 15.2446 16.5249 15.2384C16.567 15.227 16.6091 15.2129 16.6517 15.2046C16.7806 15.1797 16.9104 15.1656 17.0413 15.1527C17.1584 15.1412 17.2754 15.1256 17.3929 15.1184C17.4607 15.1142 17.5285 15.1173 17.5988 15.1173C17.5988 15.122 17.6013 15.1298 17.5988 15.1339Z" fill="#F6F6F6"/>
<path d="M16.3438 26.9534C16.3679 27.0059 16.3935 27.0568 16.4207 27.1067C16.4829 27.22 16.5532 27.3271 16.6327 27.4295C16.6866 27.4991 16.7421 27.5677 16.7985 27.6353C16.8699 27.7205 16.9546 27.7917 17.0367 27.8661C17.1553 27.9731 17.2749 28.0786 17.4104 28.1644C17.4951 28.2179 17.5747 28.2813 17.6599 28.3349C17.7877 28.4149 17.916 28.4949 18.0521 28.561C18.1147 28.5911 18.1763 28.6244 18.2374 28.6576C18.3837 28.7366 18.5371 28.7985 18.6911 28.8593C18.7738 28.8915 18.8559 28.9274 18.9406 28.9554C19.0438 28.9897 19.1495 29.0152 19.2527 29.0479C19.6433 29.1701 20.0417 29.2605 20.44 29.3478C20.7521 29.4164 21.0683 29.459 21.384 29.5032C21.5185 29.5225 21.654 29.5344 21.7895 29.5474C21.8634 29.5547 21.9389 29.5526 22.0118 29.5646C22.116 29.5817 22.2207 29.5833 22.3254 29.59C22.3511 29.5916 22.3773 29.5874 22.4029 29.5879C22.4887 29.59 22.5744 29.5926 22.6596 29.5957C22.674 29.5963 22.6878 29.6009 22.7022 29.6035C22.7258 29.6072 22.7499 29.6155 22.773 29.6139C22.8146 29.6113 22.8552 29.5994 22.8967 29.5978C23.0374 29.5942 23.178 29.5942 23.3187 29.5905C23.4624 29.5869 23.6067 29.5812 23.7504 29.5749C23.7986 29.5723 23.8469 29.564 23.8951 29.5599C24.0081 29.551 24.1215 29.5448 24.2344 29.5344C24.3474 29.524 24.4598 29.51 24.5722 29.497C24.6169 29.4918 24.6615 29.484 24.7067 29.4778C24.775 29.4674 24.8438 29.4559 24.9125 29.4476C25.0008 29.4362 25.0901 29.4305 25.1779 29.417C25.373 29.3863 25.568 29.3525 25.7626 29.3198C25.9002 29.2969 26.0377 29.2756 26.1748 29.2486C26.3811 29.2085 26.587 29.1623 26.7933 29.1217C26.9478 29.0911 27.1029 29.0656 27.2568 29.0355C27.3267 29.022 27.397 29.0074 27.4653 28.9871C27.6264 28.9393 27.7876 28.8884 27.9478 28.8374C28.0638 28.8005 28.1793 28.7626 28.2937 28.7215C28.3728 28.6924 28.4493 28.6566 28.5278 28.6249C28.5684 28.6088 28.611 28.5973 28.651 28.5802C28.7958 28.5194 28.9405 28.4575 29.0848 28.3941C29.1905 28.3479 29.2957 28.3021 29.3994 28.2512C29.6073 28.1483 29.8137 28.0423 30.0211 27.9383C30.1242 27.8863 30.2284 27.8375 30.3316 27.786C30.4332 27.7351 30.5339 27.6826 30.634 27.6291C30.7228 27.5818 30.811 27.5334 30.8978 27.483C30.9835 27.4326 31.0703 27.3843 31.1504 27.3261C31.3285 27.1972 31.4912 27.0501 31.6498 26.8973C31.8043 26.7492 31.9419 26.5854 32.0918 26.4337C32.2483 26.2746 32.4003 26.1115 32.5543 25.9498C32.5656 25.9384 32.5763 25.9259 32.5861 25.9129C32.6359 25.85 32.6862 25.7877 32.7334 25.7237C32.8001 25.6328 32.8653 25.5408 32.93 25.4488C32.9593 25.4077 32.988 25.3656 33.0142 25.3225C33.1056 25.1749 33.179 25.0174 33.2503 24.8599C33.3704 24.5959 33.4557 24.3184 33.5255 24.0362C33.5758 23.8329 33.6292 23.6297 33.6548 23.4208C33.6718 23.2794 33.6877 23.1381 33.7026 22.9962C33.7077 22.9504 33.7087 22.9047 33.7108 22.8584C33.7169 22.7358 33.7226 22.6131 33.7287 22.4905C33.7303 22.4681 33.7334 22.4453 33.7385 22.4229C33.7462 22.387 33.7488 22.3522 33.739 22.3164C33.7236 22.2618 33.72 22.2067 33.7375 22.1511C33.7411 22.1412 33.7431 22.1267 33.7385 22.1178C33.7169 22.0778 33.7262 22.0347 33.7246 21.9926C33.718 21.7847 33.7103 21.5763 33.702 21.3684C33.7 21.3159 33.6923 21.2639 33.6887 21.2119C33.6831 21.1418 33.6815 21.0711 33.6738 21.0009C33.6523 20.8123 33.6281 20.6236 33.6061 20.4349C33.5907 20.3029 33.5773 20.1709 33.5614 20.0389C33.546 19.9074 33.5316 19.7754 33.5111 19.6439C33.4926 19.5244 33.4685 19.4053 33.4438 19.2868C33.4238 19.1907 33.4018 19.0945 33.3776 18.9994C33.3289 18.803 33.2457 18.619 33.1677 18.4334C33.0075 18.0488 32.8155 17.6804 32.5994 17.3254C32.4506 17.0806 32.2879 16.8457 32.1169 16.6165C32.0312 16.5016 31.9419 16.3883 31.8485 16.2797C31.7648 16.1825 31.6806 16.0848 31.5841 15.9985C31.4922 15.9164 31.406 15.827 31.312 15.7469C31.08 15.5484 30.8336 15.3707 30.5754 15.209C30.4143 15.1082 30.2526 15.0089 30.0888 14.9117C29.941 14.8239 29.7916 14.7381 29.6407 14.655C29.5052 14.5812 29.3681 14.5105 29.2305 14.4409C29.1494 14.3993 29.0683 14.3572 28.9842 14.3234C28.8142 14.2553 28.6423 14.1924 28.4708 14.1275C28.2368 14.0386 27.9935 13.9804 27.7517 13.9196C27.4735 13.8489 27.1891 13.8083 26.9052 13.7668C26.628 13.7262 26.3493 13.6956 26.0695 13.6836C25.8622 13.6748 25.6553 13.667 25.4479 13.6592V13.6685C25.2713 13.6685 25.0942 13.6639 24.9182 13.6701C24.737 13.6763 24.5558 13.6898 24.3751 13.7065C24.1841 13.7236 23.9932 13.7444 23.8033 13.7694C23.7879 13.7709 23.7725 13.773 23.7571 13.7751C23.5517 13.8026 23.3464 13.8359 23.1431 13.8759C23.2674 13.9908 23.388 14.1098 23.5019 14.2371C23.5137 14.2506 23.5261 14.2641 23.5379 14.2777C23.6872 14.2496 23.8382 14.2288 23.9896 14.2153C24.0435 14.2106 24.0974 14.2039 24.1513 14.1966C24.2309 14.1857 24.3104 14.1742 24.39 14.167C24.5301 14.154 24.6713 14.1498 24.8119 14.1394C25.1096 14.1171 25.4074 14.1181 25.7056 14.1228C25.7975 14.1243 25.8894 14.1243 25.9813 14.1384C26.0726 14.1519 26.1655 14.1524 26.2574 14.1597C26.5095 14.18 26.7605 14.2065 27.0094 14.2506C27.1881 14.2829 27.3672 14.314 27.5433 14.3567C27.8205 14.4242 28.0925 14.51 28.362 14.6056C28.6608 14.7111 28.9482 14.8431 29.2295 14.9887C29.3994 15.0765 29.5647 15.1747 29.7285 15.2735C29.8789 15.3644 30.0277 15.4575 30.1715 15.5583C30.3763 15.7022 30.5759 15.8535 30.7772 16.0032C30.8193 16.0338 30.8583 16.0687 30.8973 16.103C31.0944 16.276 31.2869 16.4533 31.4624 16.6497C31.6247 16.8316 31.7781 17.0198 31.9203 17.2173C32.0584 17.4096 32.1878 17.6081 32.292 17.8222C32.3027 17.8441 32.3192 17.8633 32.3305 17.8846C32.3746 17.9667 32.4193 18.0488 32.4603 18.1325C32.5409 18.2983 32.6261 18.4631 32.6877 18.6377C32.7314 18.7614 32.7688 18.8872 32.8125 19.0109C32.8412 19.0919 32.8576 19.1741 32.8659 19.2598C32.8761 19.3705 32.8925 19.4812 32.9049 19.5919C32.9085 19.6226 32.9095 19.6543 32.9074 19.685C32.9049 19.7234 32.9028 19.7598 32.9249 19.7941C32.9305 19.8024 32.93 19.8165 32.93 19.8274C32.929 19.9848 32.9321 20.1428 32.9228 20.2998C32.9192 20.3642 32.9121 20.4297 32.91 20.4947C32.9044 20.6756 32.8818 20.8544 32.8587 21.0331C32.834 21.2275 32.7853 21.4157 32.7319 21.6038C32.6533 21.8824 32.5384 22.1459 32.4162 22.4073C32.2935 22.6687 32.1529 22.9193 31.9973 23.1614C31.8839 23.3392 31.7643 23.5123 31.6324 23.677C31.5297 23.8054 31.4327 23.9395 31.3285 24.0668C31.2407 24.1739 31.1462 24.2758 31.0533 24.3787C30.9779 24.4623 30.9024 24.5455 30.8229 24.625C30.6114 24.8355 30.404 25.0496 30.1802 25.2471C30.0211 25.3875 29.8594 25.5236 29.6889 25.6484C29.4713 25.8079 29.2475 25.9592 29.017 26.0995C28.8245 26.2164 28.6233 26.3136 28.42 26.4082C28.1978 26.5111 27.9688 26.5984 27.7404 26.6868C27.4601 26.7954 27.1711 26.876 26.8862 26.9695C26.5757 27.0714 26.2584 27.1431 25.9412 27.2174C25.6219 27.2923 25.2991 27.3453 24.9741 27.3848C24.7565 27.4118 24.5378 27.4201 24.3197 27.4285C24.14 27.4352 23.9598 27.443 23.7802 27.443C23.5974 27.4425 23.4142 27.4326 23.2314 27.4269C23.1164 27.4233 23.0015 27.4207 22.887 27.4165C22.8516 27.4149 22.8156 27.4175 22.7828 27.3983C22.7725 27.3926 22.7581 27.3916 22.7453 27.391C22.6693 27.3874 22.5929 27.3879 22.5174 27.3806C22.3788 27.3671 22.2402 27.3531 22.1026 27.3318C21.8804 27.298 21.6581 27.2621 21.4369 27.22C21.2762 27.1894 21.1176 27.1483 20.9585 27.1109C20.8481 27.0849 20.7372 27.0594 20.6279 27.0298C20.4621 26.9846 20.2963 26.9394 20.1356 26.8775C19.9539 26.8079 19.7686 26.7481 19.5879 26.6754C19.5278 26.6509 19.4678 26.626 19.4082 26.6C19.304 26.5548 19.2009 26.5075 19.0992 26.4571C18.9765 26.3968 19.1008 26.4799 18.9817 26.4134C18.9632 26.403 18.9452 26.3931 18.9273 26.3833M19.0561 26.9706C19.0469 26.9893 19.0346 27.008 19.0294 27.0283C18.9976 27.167 18.9653 27.3053 18.937 27.4451C18.8944 27.654 18.8749 27.8661 18.8513 28.0776C18.8441 28.1436 18.8241 28.2044 18.7918 28.2725C18.7245 28.2398 18.6624 28.2091 18.5998 28.1784C18.5926 28.1748 18.5869 28.168 18.5792 28.1654C18.5264 28.1483 18.5182 28.1088 18.5176 28.0578C18.5115 27.6332 18.5038 27.2091 18.4961 26.7845V26.7788C18.4951 26.7486 18.4915 26.718 18.4894 26.6884C18.4961 26.6868 18.5007 26.6842 18.5022 26.6852C18.5438 26.7154 18.5905 26.7336 18.6378 26.7492C18.6732 26.7611 18.7086 26.772 18.743 26.7866C18.8462 26.8297 18.9488 26.8734 19.0515 26.9176C19.0602 26.9212 19.0664 26.929 19.0766 26.9373C19.0689 26.9493 19.0618 26.9597 19.0561 26.9706ZM19.7773 27.4654C19.746 27.5308 19.7265 27.5989 19.7137 27.6707C19.6572 27.9825 19.6623 28.2969 19.6659 28.6114C19.6659 28.6176 19.6644 28.6238 19.6639 28.629C19.6449 28.6426 19.6315 28.6301 19.6172 28.6244C19.5299 28.5901 19.4426 28.5558 19.3549 28.5209C19.3415 28.5157 19.3266 28.5126 19.3143 28.5053C19.2881 28.4903 19.2681 28.47 19.2655 28.4373C19.2609 28.3733 19.2532 28.3099 19.2517 28.246C19.2491 28.1478 19.2517 28.0495 19.2501 27.9508C19.2486 27.824 19.2686 27.6998 19.2861 27.575C19.3046 27.4435 19.3318 27.3141 19.3723 27.1873C19.3769 27.1717 19.3831 27.1566 19.3887 27.141C19.3908 27.1369 19.3944 27.1332 19.4005 27.1254C19.4175 27.1296 19.4365 27.1322 19.4539 27.1384C19.5571 27.1774 19.6598 27.2164 19.7629 27.2554C19.7809 27.2627 19.7994 27.2684 19.8174 27.2751C19.8322 27.2808 19.8461 27.2881 19.8615 27.2949C19.8322 27.3547 19.8045 27.4097 19.7773 27.4654ZM20.7136 27.7361C20.6808 27.7985 20.6479 27.8609 20.6356 27.9316C20.6289 27.9711 20.6263 28.0121 20.6248 28.0527C20.6202 28.1836 20.6197 28.3146 20.5858 28.443C20.5776 28.4757 20.5771 28.5111 20.5699 28.5443C20.5535 28.6228 20.535 28.7008 20.497 28.7725C20.4821 28.7995 20.4626 28.8156 20.4303 28.8094C20.3527 28.7948 20.2722 28.8037 20.1977 28.7694C20.1618 28.7527 20.1459 28.7309 20.1454 28.6909C20.1433 28.4237 20.1377 28.1566 20.1361 27.8895C20.1356 27.8047 20.1459 27.7195 20.1505 27.6348C20.152 27.6052 20.152 27.5755 20.151 27.5459C20.1505 27.5189 20.1623 27.5043 20.1869 27.4955C20.2111 27.4867 20.2326 27.4716 20.2568 27.4622C20.2742 27.456 20.2942 27.4503 20.3117 27.4524C20.439 27.4674 20.5642 27.4929 20.6854 27.5366C20.708 27.5449 20.7321 27.5496 20.7552 27.5563C20.7701 27.561 20.7844 27.5672 20.804 27.5745C20.7706 27.6337 20.7413 27.6847 20.7136 27.7361ZM21.7936 27.8151C21.7346 27.903 21.6751 27.9908 21.6155 28.0786C21.5893 28.1176 21.5729 28.1592 21.5724 28.207C21.5724 28.2481 21.5703 28.2891 21.5698 28.3297C21.5693 28.3738 21.5673 28.4175 21.558 28.4612C21.5477 28.5137 21.5524 28.5693 21.5457 28.6228C21.5313 28.7429 21.5149 28.8629 21.4974 28.983C21.4897 29.0355 21.4836 29.0375 21.4338 29.0292C21.3588 29.0178 21.2829 29.009 21.2084 28.9934C21.1566 28.983 21.1063 28.9637 21.0555 28.9476C21.0216 28.9367 21.0093 28.9118 21.0067 28.8769C20.9995 28.7803 20.9954 28.6831 20.9795 28.588C20.9579 28.4596 20.9523 28.3312 20.9477 28.2018C20.9441 28.087 20.9703 27.9773 20.9903 27.8661C21.0006 27.8105 21.0185 27.7595 21.0524 27.7133C21.0683 27.6914 21.0776 27.6644 21.0904 27.6389C21.1017 27.6389 21.113 27.6369 21.1237 27.6389C21.3162 27.6738 21.5092 27.7091 21.7017 27.7445C21.7254 27.7491 21.749 27.7543 21.7726 27.7611C21.7854 27.7652 21.7967 27.7736 21.8116 27.7808C21.8039 27.7959 21.7998 27.8063 21.7936 27.8151ZM22.7941 28.0168C22.7484 28.0532 22.7022 28.0896 22.655 28.1239C22.6185 28.1498 22.6226 28.1483 22.6257 28.194C22.6324 28.2855 22.6334 28.3775 22.6339 28.469C22.6344 28.5313 22.6288 28.5937 22.6278 28.6555C22.6247 28.7886 22.6226 28.9211 22.6206 29.0542C22.6201 29.1171 22.617 29.1207 22.5533 29.1134C22.5272 29.1202 22.501 29.1275 22.4743 29.1332C22.4573 29.1373 22.4399 29.1425 22.4224 29.1425C22.3367 29.1441 22.251 29.1441 22.1653 29.1441C22.1494 29.1436 22.1334 29.1399 22.1175 29.1373C22.0955 29.1337 22.0739 29.1275 22.0513 29.1254C22.0179 29.1228 21.9907 29.1093 21.9805 29.0755C21.9599 29.0053 21.9327 28.9378 21.9343 28.8614C21.9379 28.6529 21.9384 28.445 21.9384 28.2366C21.9389 28.1888 21.9338 28.1415 21.9307 28.0942C21.9261 28.0329 21.9451 27.9778 21.9753 27.9258C21.9933 27.8947 22.0138 27.8655 22.0328 27.8349C22.0446 27.8162 22.0606 27.8089 22.0821 27.8115C22.1673 27.8214 22.2525 27.8312 22.3377 27.8411C22.3521 27.8427 22.3665 27.8442 22.3809 27.8448C22.4876 27.8515 22.5944 27.8567 22.7007 27.8656C22.7371 27.8687 22.773 27.8817 22.8095 27.8895C22.8336 27.8947 22.8398 27.9097 22.8387 27.9326C22.8372 27.9685 22.8203 27.9955 22.7941 28.0168ZM25.2985 27.9716C25.2708 28.0573 25.2426 28.1415 25.1923 28.2184C25.1481 28.286 25.1369 28.3681 25.1235 28.4471C25.1122 28.5152 25.0999 28.5828 25.0886 28.6503C25.086 28.6649 25.0824 28.68 25.084 28.6945C25.0912 28.7527 25.0804 28.8089 25.064 28.864C25.0568 28.8894 25.0701 28.9253 25.0398 28.9398C25.0157 28.9513 24.987 28.9539 24.9603 28.958C24.8017 28.9819 24.643 29.0079 24.4844 29.0282C24.3992 29.0391 24.3135 29.0427 24.2278 29.0459C24.1739 29.0479 24.1662 29.0391 24.1646 28.9835C24.1631 28.943 24.1667 28.9019 24.1667 28.8608C24.1662 28.8234 24.1636 28.786 24.1626 28.7481C24.161 28.668 24.1616 28.5875 24.1585 28.5074C24.1574 28.4716 24.1513 28.4357 24.1441 28.4004C24.1379 28.3702 24.1189 28.3536 24.0856 28.3541C24.0142 28.3551 23.9429 28.3525 23.8715 28.3541C23.812 28.3557 23.7909 28.3759 23.7832 28.4357C23.7802 28.4601 23.7822 28.4851 23.7827 28.5095C23.7838 28.5469 23.7843 28.5849 23.7873 28.6223C23.7971 28.7397 23.7627 28.853 23.7596 28.9689C23.7586 28.9986 23.755 29.0277 23.7519 29.0573C23.7463 29.1072 23.7432 29.1113 23.6924 29.116C23.6426 29.1202 23.5923 29.1212 23.542 29.1254C23.5184 29.1275 23.4948 29.1321 23.4706 29.1363C23.4568 29.1384 23.4424 29.1441 23.428 29.1446C23.3295 29.1488 23.2309 29.1524 23.1318 29.1555C23.0892 29.1566 23.0831 29.1514 23.0687 29.1098C23.0615 29.088 23.0569 29.0656 23.0523 29.0433C23.042 28.9986 23.0323 28.9539 23.0235 28.9092C23.0189 28.8847 23.0143 28.8603 23.0138 28.8359C23.0112 28.6374 23.0015 28.4388 23.023 28.2413C23.0307 28.168 23.0456 28.0958 23.0574 28.023C23.0625 27.9913 23.0682 27.9596 23.0728 27.9295C23.1416 27.9295 23.2063 27.9295 23.2704 27.93C23.293 27.93 23.3156 27.9321 23.3387 27.9331C23.4434 27.9399 23.5481 27.9482 23.6529 27.9534C23.7078 27.956 23.7627 27.9544 23.8176 27.9529C23.9116 27.9508 24.005 27.9482 24.0989 27.9445C24.1318 27.943 24.1631 27.943 24.1893 27.9737C24.218 27.9342 24.2555 27.9373 24.295 27.9383C24.3433 27.9399 24.3915 27.9352 24.4398 27.9326C24.4916 27.93 24.5429 27.9258 24.5943 27.9238C24.6492 27.9217 24.7046 27.9232 24.7591 27.9196C24.8104 27.916 24.8617 27.9061 24.9125 27.9004C25.0429 27.8863 25.1733 27.8723 25.3037 27.8588C25.3098 27.8583 25.316 27.8598 25.3278 27.8609C25.3175 27.8999 25.3098 27.9362 25.2985 27.9716ZM26.7836 27.6592C26.7646 27.8172 26.7651 27.9757 26.7579 28.1343C26.7543 28.2112 26.7579 28.2896 26.742 28.364C26.7261 28.4367 26.723 28.5095 26.7148 28.5828C26.7132 28.5953 26.7122 28.6088 26.7127 28.6218C26.7143 28.667 26.7122 28.6722 26.6691 28.6826C26.5603 28.7086 26.452 28.7356 26.3421 28.7574C26.1214 28.8011 25.9002 28.8416 25.6789 28.8827C25.5983 28.8977 25.5952 28.8977 25.5814 28.8172C25.5629 28.7143 25.547 28.6108 25.5352 28.5069C25.5126 28.3099 25.4844 28.1135 25.451 27.918C25.4464 27.891 25.4459 27.8635 25.4438 27.839C25.4531 27.8328 25.4566 27.8286 25.4613 27.8281C25.9053 27.7616 26.3416 27.6597 26.7687 27.5204C26.7728 27.5189 26.7779 27.522 26.7846 27.5236C26.7846 27.5688 26.7892 27.6145 26.7836 27.6592ZM28.1536 28.2392C28.0037 28.3156 27.8461 28.3681 27.6834 28.4087C27.649 28.417 27.6157 28.43 27.5823 28.4425C27.4786 28.4814 27.3744 28.5163 27.2651 28.5344C27.2225 28.5412 27.2219 28.5417 27.2112 28.5017C27.1475 28.2574 27.0839 28.0137 27.0197 27.7694C26.9945 27.6732 26.9694 27.5766 26.9417 27.4721C27.2204 27.3765 27.4955 27.2803 27.7717 27.1883C27.897 27.1462 28.016 27.086 28.1526 27.0626C28.1552 27.0974 28.1567 27.1301 28.1603 27.1618C28.1865 27.3921 28.1788 27.6234 28.1824 27.8541C28.1844 27.9622 28.1865 28.0703 28.1906 28.1784C28.1921 28.2096 28.1803 28.2257 28.1536 28.2392ZM28.3826 27.1753C28.3779 27.1624 28.3723 27.1509 28.3718 27.1395C28.3692 27.1036 28.3682 27.0678 28.3672 27.0314C28.3666 26.9986 28.3759 26.9716 28.4149 26.956C28.4185 27.1421 28.418 27.1473 28.3826 27.1753ZM29.459 27.6784C29.3656 27.7237 29.2732 27.771 29.1797 27.8162C29.0719 27.8687 28.9641 27.9217 28.8548 27.9711C28.7901 28.0002 28.7224 28.0225 28.6556 28.048C28.6336 28.0173 28.6279 27.9866 28.6233 27.9565C28.6038 27.8286 28.5853 27.7013 28.5735 27.5719C28.5561 27.3796 28.5263 27.1889 28.4991 26.9976C28.4842 26.889 28.4832 26.8853 28.5827 26.8438C28.6972 26.7959 28.8035 26.7341 28.9108 26.6728C29.0401 26.5979 29.1725 26.5293 29.304 26.4581C29.3147 26.4524 29.3276 26.4498 29.3435 26.4446C29.3599 26.5028 29.3753 26.5537 29.3886 26.6062C29.4579 26.8874 29.4882 27.1738 29.4887 27.4633C29.4893 27.5158 29.4887 27.5683 29.4923 27.6208C29.4944 27.6499 29.4841 27.666 29.459 27.6784ZM30.8357 26.4404C30.8306 26.5615 30.8341 26.6832 30.8131 26.8032C30.7967 26.8942 30.752 26.968 30.6997 27.0392C30.6858 27.0579 30.6642 27.073 30.6432 27.0839C30.444 27.1904 30.2428 27.2923 30.0339 27.3786C30.0267 27.3817 30.0185 27.3822 30.0082 27.3848C29.982 27.3443 29.9589 27.3032 29.9482 27.2569C29.9025 27.0589 29.8717 26.8583 29.8583 26.6556C29.8553 26.6099 29.8434 26.5652 29.8373 26.52C29.8214 26.4015 29.8065 26.283 29.7901 26.1645C29.786 26.1374 29.8034 26.126 29.8203 26.114C29.8778 26.074 29.9364 26.0361 29.9928 25.9945C30.1591 25.8724 30.3275 25.7523 30.4774 25.6089C30.5421 25.547 30.6103 25.4888 30.6755 25.428C30.7115 25.3947 30.7448 25.3594 30.7802 25.3251C30.7926 25.3131 30.8059 25.3022 30.828 25.2835C30.8321 25.3137 30.8372 25.3334 30.8377 25.3537C30.8398 25.4961 30.8424 25.639 30.8424 25.7814C30.8418 26.0013 30.8454 26.2211 30.8357 26.4404ZM31.8377 25.5663C31.8115 25.6037 31.8223 25.6447 31.8213 25.6853C31.8207 25.7128 31.8182 25.7409 31.8146 25.7684C31.81 25.8038 31.7966 25.8376 31.812 25.8745C31.8156 25.8843 31.811 25.902 31.8043 25.9108C31.7843 25.9373 31.7797 25.9675 31.7781 25.9992C31.7761 26.0491 31.755 26.0886 31.7186 26.1234C31.5862 26.2492 31.446 26.3651 31.2972 26.4701C31.291 26.4747 31.2833 26.4768 31.2715 26.4825C31.2705 26.4675 31.2684 26.4571 31.2684 26.4467C31.2684 26.2793 31.2679 26.1125 31.2694 25.9451C31.27 25.8978 31.2782 25.8511 31.2823 25.8043C31.2859 25.7586 31.2889 25.7128 31.2915 25.6671C31.2992 25.5314 31.3069 25.3958 31.3141 25.2601C31.3156 25.2341 31.3177 25.2076 31.3167 25.1817C31.3156 25.1536 31.3131 25.1266 31.3269 25.1001C31.3321 25.0907 31.3316 25.0777 31.3316 25.0668C31.3321 25.006 31.3326 24.9452 31.331 24.8849C31.3305 24.8641 31.3269 24.8423 31.3203 24.823C31.31 24.7955 31.3115 24.7742 31.3326 24.7518C31.4491 24.6287 31.5636 24.5039 31.6796 24.3807C31.7042 24.3548 31.7325 24.3319 31.7632 24.3038C31.7848 24.4161 31.8151 24.519 31.8177 24.6276C31.8182 24.6661 31.8325 24.704 31.8367 24.7425C31.8397 24.77 31.8351 24.7981 31.8356 24.8262C31.8367 24.8553 31.8402 24.8844 31.8413 24.914C31.8438 24.9712 31.8464 25.0283 31.8459 25.0855C31.8449 25.2378 31.8423 25.3901 31.8402 25.5423C31.8397 25.5507 31.8418 25.5605 31.8377 25.5663ZM32.7617 24.742C32.719 24.8636 32.6523 24.9722 32.5876 25.0819C32.5183 25.2004 32.4454 25.3163 32.3597 25.4238C32.3443 25.4426 32.332 25.4639 32.3146 25.4899C32.311 25.4758 32.3079 25.4675 32.3074 25.4592C32.3033 25.4051 32.3002 25.3516 32.2961 25.2981C32.2915 25.2378 32.2838 25.1775 32.2807 25.1177C32.2755 25.0294 32.2745 24.941 32.2694 24.8527C32.2663 24.8007 32.2581 24.7492 32.253 24.6973C32.2483 24.6552 32.2437 24.6125 32.2406 24.5704C32.235 24.4852 32.2309 24.4005 32.2247 24.3153C32.2134 24.1645 32.2011 24.0133 32.1888 23.862C32.1883 23.8558 32.1893 23.8485 32.1867 23.8428C32.1662 23.7976 32.1842 23.7617 32.2098 23.7254C32.2781 23.6282 32.3454 23.5299 32.4126 23.4317C32.429 23.4078 32.4444 23.3823 32.4598 23.3579C32.4927 23.3054 32.525 23.2529 32.5573 23.2004C32.562 23.2015 32.5666 23.203 32.5717 23.2041C32.5769 23.2472 32.5825 23.2903 32.5876 23.3335C32.6112 23.5273 32.6359 23.7207 32.659 23.914C32.6744 24.046 32.6831 24.1786 32.7021 24.3101C32.7185 24.4249 32.7442 24.5382 32.7678 24.652C32.7745 24.6837 32.7724 24.7108 32.7617 24.742ZM33.1749 23.045C33.1733 23.2191 33.1507 23.3917 33.1241 23.5627C33.1045 23.6905 33.0768 23.8168 33.0506 23.9436C33.0429 23.9795 33.0291 24.0138 33.0183 24.0492C33.0163 24.0486 33.0137 24.0481 33.0111 24.0476C33.0101 24.0388 33.0086 24.0294 33.0086 24.0206C33.0116 23.8657 32.9808 23.7144 32.9613 23.5622C32.9444 23.4286 32.9341 23.2955 32.9331 23.1609C32.9326 23.0944 32.9398 23.0274 32.9429 22.9603C32.9444 22.9276 32.9429 22.8943 32.9475 22.8621C32.9593 22.7779 32.968 22.6927 32.9896 22.6111C33.0342 22.4401 33.0866 22.2711 33.1359 22.1017C33.1415 22.0835 33.1502 22.0669 33.1569 22.0492C33.161 22.0497 33.1651 22.0503 33.1687 22.0508C33.1723 22.084 33.179 22.1173 33.179 22.1506C33.1785 22.4489 33.1785 22.7472 33.1749 23.045Z" fill="#F6F6F6"/>
</g>
<defs>
<clipPath id="clip0_2699_13755">
<rect width="26.4219" height="18.3673" fill="white" transform="translate(7.32422 11.2461)"/>
</clipPath>
</defs>
</svg>
