<svg width="17" height="17" viewBox="0 0 17 17" fill="none" xmlns="http://www.w3.org/2000/svg">
<path d="M12.6379 0.5H4.40959C2.27299 0.5 0.527832 2.24516 0.527832 4.38991V12.6101C0.527832 14.7548 2.27299 16.5 4.40959 16.5H12.6379C14.7827 16.5 16.5278 14.7548 16.5278 12.6101V4.38991C16.5278 2.24516 14.7827 0.5 12.6379 0.5ZM2.15882 4.38991C2.15882 3.1422 3.17003 2.13099 4.40959 2.13099H12.6379C13.8775 2.13099 14.8968 3.1422 14.8968 4.38991V5.08308H2.15882V4.38991ZM14.8968 12.6101C14.8968 13.8578 13.8775 14.869 12.6379 14.869H4.40959C3.17003 14.869 2.15882 13.8578 2.15882 12.6101V6.71407H14.8968V12.6101Z" fill="black"/>
<path d="M5.57582 8.52446H3.97745C3.72974 8.52446 3.52893 8.72527 3.52893 8.97298V9.64984C3.52893 9.89755 3.72974 10.0984 3.97745 10.0984H5.57582C5.82353 10.0984 6.02434 9.89755 6.02434 9.64984V8.97298C6.02434 8.72527 5.82353 8.52446 5.57582 8.52446Z" fill="black"/>
<path d="M5.58398 11.4929H3.9693C3.72609 11.4929 3.52893 11.6901 3.52893 11.9333V12.6265C3.52893 12.8697 3.72609 13.0668 3.9693 13.0668H5.58398C5.82718 13.0668 6.02434 12.8697 6.02434 12.6265V11.9333C6.02434 11.6901 5.82718 11.4929 5.58398 11.4929Z" fill="black"/>
<path d="M9.31889 11.4929H7.73683C7.48461 11.4929 7.28015 11.6974 7.28015 11.9496V12.6101C7.28015 12.8624 7.48461 13.0668 7.73683 13.0668H9.31889C9.5711 13.0668 9.77556 12.8624 9.77556 12.6101V11.9496C9.77556 11.6974 9.5711 11.4929 9.31889 11.4929Z" fill="black"/>
<path d="M13.2739 8.52446H11.7897C11.5104 8.52446 11.2841 8.75083 11.2841 9.03007V9.59276C11.2841 9.872 11.5104 10.0984 11.7897 10.0984H13.2739C13.5531 10.0984 13.7795 9.872 13.7795 9.59276V9.03007C13.7795 8.75083 13.5531 8.52446 13.2739 8.52446Z" fill="black"/>
</svg>
