<svg width="25" height="25" viewBox="0 0 25 25" fill="none" xmlns="http://www.w3.org/2000/svg">
<path d="M20.2492 13.9506C21.8749 14.2701 23.124 15.0902 23.9725 16.492C25.8986 19.6723 23.9201 23.892 20.2397 24.4212C19.5484 24.5214 18.8333 24.4975 18.1278 24.4975C13.0362 24.5023 7.94947 24.4975 2.85794 24.4975C1.77099 24.4975 1.01774 23.9492 0.784144 22.9908C0.73647 22.7906 0.726935 22.576 0.726935 22.371C0.722168 15.7863 0.722168 9.20643 0.722168 2.62654C0.722168 1.54897 1.27995 0.786082 2.23819 0.557216C2.41458 0.514304 2.6005 0.5 2.78166 0.5C7.9161 0.5 13.0505 0.5 18.185 0.5C19.2576 0.5 20.0299 1.11984 20.2254 2.11636C20.254 2.26894 20.254 2.42629 20.254 2.58363C20.254 6.25979 20.254 9.94071 20.254 13.6169C20.254 13.7218 20.254 13.8267 20.254 13.9411L20.2492 13.9506ZM18.5759 13.9506V13.8028C18.5759 10.0647 18.5759 6.32654 18.5759 2.58363C18.5759 2.26417 18.4901 2.18788 18.1421 2.18788C13.0458 2.18788 7.94471 2.18788 2.84841 2.18788C2.45748 2.18788 2.40981 2.23556 2.40981 2.62178C2.40981 9.2112 2.40981 15.8006 2.40981 22.39C2.40981 22.7572 2.46702 22.8096 2.83411 22.8096C6.97217 22.8096 11.115 22.8096 15.2531 22.8096C15.3246 22.8096 15.4008 22.8001 15.4914 22.7953C12.6882 19.6675 14.3568 14.7135 18.5807 13.9506H18.5759ZM23.0286 19.1907C23.0286 17.2549 21.4268 15.629 19.5627 15.5765C17.4937 15.5193 15.7918 17.1738 15.7965 19.1812C15.7965 21.2076 17.3984 22.8144 19.4197 22.8144C21.422 22.8144 23.0286 21.2076 23.0286 19.1955V19.1907Z" fill="#04BFB6"/>
<path d="M10.4949 9.42101C12.1445 9.42101 13.7892 9.42101 15.4387 9.42101C16.0108 9.42101 16.3969 9.83583 16.335 10.3651C16.292 10.7465 16.006 11.0374 15.6246 11.0898C15.5388 11.0994 15.453 11.1041 15.3624 11.1041C12.1111 11.1041 8.85975 11.1041 5.60841 11.1041C5.11737 11.1041 4.79796 10.9134 4.66924 10.5463C4.46901 9.9741 4.87901 9.42101 5.5226 9.41624C7.09106 9.41147 8.65952 9.41624 10.228 9.41624C10.3138 9.41624 10.4044 9.41624 10.4902 9.41624L10.4949 9.42101Z" fill="#04BFB6"/>
<path d="M10.4808 6.64122C8.80746 6.64122 7.13412 6.64122 5.46078 6.64122C5.03649 6.64122 4.698 6.33607 4.63126 5.91648C4.56929 5.53504 4.82672 5.12976 5.22241 5.01056C5.31776 4.98195 5.42741 4.97241 5.53229 4.97241C8.83607 4.97241 12.1398 4.97241 15.4436 4.97241C15.9776 4.97241 16.3494 5.31094 16.3542 5.80205C16.3542 6.29316 15.9871 6.64122 15.4579 6.64122C13.8036 6.64122 12.1446 6.64122 10.4903 6.64122H10.4808Z" fill="#04BFB6"/>
<path d="M9.1126 13.8887C10.2615 13.8887 11.4105 13.8839 12.5642 13.8934C12.7596 13.8934 12.9694 13.9268 13.141 14.0126C13.47 14.1748 13.6273 14.5753 13.5415 14.9233C13.4557 15.2762 13.1505 15.5336 12.7739 15.5718C12.731 15.5718 12.6881 15.5718 12.6452 15.5718C10.2854 15.5718 7.92553 15.5718 5.56092 15.5718C5.4179 15.5718 5.26535 15.5432 5.13186 15.4907C4.78861 15.3477 4.57885 14.971 4.63129 14.6277C4.69327 14.232 4.98408 13.9459 5.375 13.903C5.47988 13.8934 5.58476 13.8887 5.68964 13.8887C6.82904 13.8887 7.97321 13.8887 9.1126 13.8887Z" fill="#04BFB6"/>
<path d="M8.53558 18.3563C9.53672 18.3563 10.5379 18.3563 11.539 18.3563C12.0634 18.3563 12.4496 18.7139 12.4496 19.1907C12.4496 19.6723 12.0682 20.0251 11.539 20.0251C9.53672 20.0251 7.53443 20.0251 5.53215 20.0251C5.00774 20.0251 4.62158 19.6675 4.62158 19.1907C4.62158 18.7091 5.00297 18.3563 5.53215 18.3563C6.53329 18.3563 7.53443 18.3563 8.53558 18.3563Z" fill="#04BFB6"/>
<path d="M18.8285 19.1478C19.3863 18.5899 19.8916 18.0607 20.4208 17.5648C20.5733 17.4218 20.7974 17.3026 21.0024 17.2644C21.3599 17.1929 21.646 17.3693 21.8224 17.6888C21.994 17.9987 21.9606 18.3754 21.708 18.6329C20.9547 19.4053 20.1919 20.1729 19.4149 20.9263C19.0954 21.2362 18.6044 21.2267 18.2802 20.9167C17.8845 20.5353 17.4936 20.1491 17.117 19.7533C16.8023 19.4196 16.8214 18.9189 17.1408 18.5995C17.4602 18.28 17.956 18.2609 18.2945 18.5756C18.4805 18.7473 18.6378 18.9428 18.8237 19.1526L18.8285 19.1478Z" fill="#04BFB6"/>
</svg>
