<svg width="25" height="25" viewBox="0 0 25 25" fill="none" xmlns="http://www.w3.org/2000/svg">
<path d="M0.513428 12.6965C0.513428 6.06906 5.88601 0.696472 12.5134 0.696472C19.1408 0.696472 24.5134 6.06906 24.5134 12.6965C24.5134 19.3239 19.1408 24.6965 12.5134 24.6965C5.88601 24.6965 0.513428 19.3239 0.513428 12.6965Z" fill="#04BFB6"/>
<path fill-rule="evenodd" clip-rule="evenodd" d="M16.1425 6.94538L6.20207 16.8858C5.61629 17.4716 5.01343 20.1965 5.01343 20.1965C5.01343 20.1965 7.73761 19.5929 8.32339 19.0071L18.2638 9.0667L16.1425 6.94538ZM19.1083 8.22227L19.5734 7.75713C20.1592 7.17135 20.1592 6.2216 19.5734 5.63581C18.9876 5.05003 18.0379 5.05003 17.4521 5.63581L16.9869 6.10095L19.1083 8.22227Z" fill="white"/>
</svg>
