<svg width="19" height="15" viewBox="0 0 19 15" fill="none" xmlns="http://www.w3.org/2000/svg">
<path d="M6 7.25195C6 5.06445 7.78125 3.25195 10 3.25195C12.1875 3.25195 14 5.06445 14 7.25195C14 9.4707 12.1875 11.252 10 11.252C7.78125 11.252 6 9.4707 6 7.25195ZM10 9.75195C11.375 9.75195 12.5 8.6582 12.5 7.25195C12.5 5.87695 11.375 4.75195 10 4.75195C9.96875 4.75195 9.9375 4.75195 9.90625 4.75195C9.96875 4.93945 10 5.0957 10 5.25195C10 6.37695 9.09375 7.25195 8 7.25195C7.8125 7.25195 7.65625 7.25195 7.5 7.18945C7.5 7.2207 7.5 7.25195 7.5 7.25195C7.5 8.6582 8.59375 9.75195 10 9.75195ZM3.96875 2.7832C5.4375 1.4082 7.46875 0.251953 10 0.251953C12.5 0.251953 14.5312 1.4082 16 2.7832C17.4688 4.12695 18.4375 5.75195 18.9062 6.87695C19 7.12695 19 7.4082 18.9062 7.6582C18.4375 8.75195 17.4688 10.377 16 11.752C14.5312 13.127 12.5 14.252 10 14.252C7.46875 14.252 5.4375 13.127 3.96875 11.752C2.5 10.377 1.53125 8.75195 1.0625 7.6582C0.96875 7.4082 0.96875 7.12695 1.0625 6.87695C1.53125 5.75195 2.5 4.12695 3.96875 2.7832ZM10 1.75195C7.9375 1.75195 6.28125 2.68945 5 3.87695C3.78125 5.00195 2.96875 6.31445 2.53125 7.25195C2.96875 8.18945 3.78125 9.5332 5 10.6582C6.28125 11.8457 7.9375 12.752 10 12.752C12.0312 12.752 13.6875 11.8457 14.9688 10.6582C16.1875 9.5332 17 8.18945 17.4375 7.25195C17 6.31445 16.1875 5.00195 14.9688 3.87695C13.6875 2.68945 12.0312 1.75195 10 1.75195Z" fill="#9A9999"/>
</svg>
