<svg width="25" height="25" viewBox="0 0 25 25" fill="none" xmlns="http://www.w3.org/2000/svg">
<g id="Lock">
<path id="Icon" fill-rule="evenodd" clip-rule="evenodd" d="M12.7222 1.5C9.40846 1.5 6.72217 4.18629 6.72217 7.5V9.0359C6.05378 9.42178 5.50988 9.99372 5.15814 10.684C4.72217 11.5397 4.72217 12.6598 4.72217 14.9V17.1C4.72217 19.3402 4.72217 20.4603 5.15814 21.316C5.54164 22.0686 6.15356 22.6805 6.90621 23.064C7.76185 23.5 8.88196 23.5 11.1222 23.5H14.3222C16.5624 23.5 17.6825 23.5 18.5381 23.064C19.2908 22.6805 19.9027 22.0686 20.2862 21.316C20.7222 20.4603 20.7222 19.3402 20.7222 17.1V14.9C20.7222 12.6598 20.7222 11.5397 20.2862 10.684C19.9345 9.99372 19.3906 9.42178 18.7222 9.0359V7.5C18.7222 4.18629 16.0359 1.5 12.7222 1.5ZM14.3222 10.5H11.1222C9.96906 10.5 9.22451 10.5016 8.65784 10.5479C8.11451 10.5922 7.91307 10.6676 7.81419 10.718C7.43786 10.9097 7.1319 11.2157 6.94016 11.592C6.88977 11.6909 6.81441 11.8923 6.77002 12.4357C6.72372 13.0023 6.72217 13.7469 6.72217 14.9V17.1C6.72217 18.2531 6.72372 18.9977 6.77002 19.5643C6.81441 20.1077 6.88977 20.3091 6.94016 20.408C7.1319 20.7843 7.43786 21.0903 7.81419 21.282C7.91307 21.3324 8.11451 21.4078 8.65784 21.4521C9.22451 21.4984 9.96906 21.5 11.1222 21.5H14.3222C15.4753 21.5 16.2198 21.4984 16.7865 21.4521C17.3298 21.4078 17.5313 21.3324 17.6301 21.282C18.0065 21.0903 18.3124 20.7843 18.5042 20.408C18.5546 20.3091 18.6299 20.1077 18.6743 19.5643C18.7206 18.9977 18.7222 18.2531 18.7222 17.1V14.9C18.7222 13.7469 18.7206 13.0023 18.6743 12.4357C18.6299 11.8923 18.5546 11.6909 18.5042 11.592C18.3124 11.2157 18.0065 10.9097 17.6301 10.718C17.5313 10.6676 17.3298 10.5922 16.7865 10.5479C16.2198 10.5016 15.4753 10.5 14.3222 10.5ZM16.7222 8.5V7.5C16.7222 5.29086 14.9313 3.5 12.7222 3.5C10.513 3.5 8.72217 5.29086 8.72217 7.5V8.5H16.7222Z" fill="#04BFB6"/>
</g>
</svg>
