<svg width="25" height="25" viewBox="0 0 25 25" fill="none" xmlns="http://www.w3.org/2000/svg">
<g id="Group 1321314834">
<path id="Vector" d="M18.4362 4.45893L24.1925 11.0375C24.53 11.4232 24.7222 11.9536 24.7222 12.5C24.7222 13.0464 24.53 13.5768 24.1925 13.9625L18.4362 20.5411C18.1362 20.8839 17.7331 21.0714 17.3112 21.0714C16.4347 21.0714 15.7222 20.2571 15.7222 19.2554V15.9286H9.72217C8.89248 15.9286 8.22217 15.1625 8.22217 14.2143V10.7857C8.22217 9.8375 8.89248 9.07143 9.72217 9.07143H15.7222V5.74464C15.7222 4.74286 16.4347 3.92857 17.3112 3.92857C17.7331 3.92857 18.1362 4.12143 18.4362 4.45893ZM8.22217 3.92857H5.22217C4.39248 3.92857 3.72217 4.69464 3.72217 5.64286V19.3571C3.72217 20.3054 4.39248 21.0714 5.22217 21.0714H8.22217C9.05186 21.0714 9.72217 21.8375 9.72217 22.7857C9.72217 23.7339 9.05186 24.5 8.22217 24.5H5.22217C2.73779 24.5 0.722168 22.1964 0.722168 19.3571V5.64286C0.722168 2.80357 2.73779 0.5 5.22217 0.5H8.22217C9.05186 0.5 9.72217 1.26607 9.72217 2.21429C9.72217 3.1625 9.05186 3.92857 8.22217 3.92857Z" fill="#04BFB6"/>
</g>
</svg>
