<svg width="20" height="17" viewBox="0 0 20 17" fill="none" xmlns="http://www.w3.org/2000/svg">
<path d="M8.84352 11.9844C9.20715 12.3479 9.67546 12.5205 10.2485 12.5022C10.8213 12.4838 11.2416 12.2771 11.5095 11.882L17.0655 3.83331L8.9971 9.3696C8.59559 9.6375 8.37871 10.0493 8.34646 10.6051C8.31438 11.161 8.48007 11.6208 8.84352 11.9844ZM10.273 0.879852C11.247 0.879852 12.1596 1.00749 13.0107 1.26276C13.862 1.51803 14.6841 1.90427 15.4768 2.42146L14.0335 3.35467C13.4508 3.04497 12.8467 2.81103 12.2214 2.65285C11.5958 2.49467 10.9464 2.41558 10.273 2.41558C8.00357 2.41558 6.07111 3.2133 4.47567 4.80875C2.88022 6.4042 2.08249 8.33665 2.08249 10.6061C2.08249 11.3228 2.18061 12.0309 2.37684 12.7305C2.57307 13.4301 2.85036 14.0871 3.20869 14.7014H17.3374C17.7298 14.053 18.0156 13.379 18.1948 12.6793C18.374 11.9797 18.4636 11.2545 18.4636 10.5037C18.4636 9.88944 18.3878 9.26764 18.2363 8.63834C18.0846 8.00886 17.8506 7.41129 17.5342 6.84563L18.4674 5.40231C18.9728 6.23058 19.3519 7.05918 19.6046 7.88813C19.8571 8.71708 19.9887 9.57846 19.9993 10.4722C20.0097 11.399 19.9054 12.2748 19.6863 13.0996C19.467 13.9246 19.1369 14.7316 18.696 15.5204C18.5607 15.7423 18.3703 15.9172 18.1249 16.0451C17.8794 16.1731 17.6169 16.2371 17.3374 16.2371H3.20869C2.93567 16.2371 2.6781 16.1715 2.43597 16.0403C2.19383 15.9089 1.99854 15.7225 1.85009 15.481C1.45899 14.7985 1.14399 14.0542 0.905104 13.2483C0.666213 12.4424 0.546768 11.5617 0.546768 10.6061C0.546768 9.26867 0.800504 8.01133 1.30798 6.83412C1.81545 5.6569 2.50815 4.62583 3.38607 3.74091C4.26416 2.85599 5.29643 2.15792 6.48286 1.64669C7.66946 1.13547 8.93285 0.879852 10.273 0.879852Z" fill="#018ABE"/>
</svg>
