<svg width="17" height="17" viewBox="0 0 17 17" fill="none" xmlns="http://www.w3.org/2000/svg">
<g id="user 1" clip-path="url(#clip0_760_4252)">
<path id="Vector" d="M8.86118 8.5C9.6523 8.5 10.4257 8.26541 11.0835 7.82588C11.7413 7.38635 12.2539 6.76164 12.5567 6.03074C12.8594 5.29983 12.9387 4.49556 12.7843 3.71964C12.63 2.94372 12.249 2.23098 11.6896 1.67157C11.1302 1.11216 10.4175 0.731202 9.64154 0.576861C8.86561 0.42252 8.06135 0.501733 7.33044 0.804484C6.59954 1.10723 5.97482 1.61992 5.5353 2.27772C5.09577 2.93552 4.86118 3.70888 4.86118 4.5C4.86223 5.56054 5.284 6.57734 6.03392 7.32726C6.78383 8.07718 7.80063 8.49894 8.86118 8.5ZM8.86118 1.83334C9.38859 1.83334 9.90416 1.98973 10.3427 2.28275C10.7812 2.57577 11.123 2.99224 11.3249 3.47951C11.5267 3.96678 11.5795 4.50296 11.4766 5.02024C11.3737 5.53753 11.1197 6.01268 10.7468 6.38562C10.3739 6.75856 9.8987 7.01254 9.38142 7.11543C8.86413 7.21832 8.32796 7.16551 7.84069 6.96368C7.35342 6.76185 6.93694 6.42005 6.64392 5.98152C6.35091 5.54299 6.19451 5.02742 6.19451 4.5C6.19451 3.79276 6.47546 3.11448 6.97556 2.61438C7.47565 2.11429 8.15393 1.83334 8.86118 1.83334Z" fill="black"/>
<path id="Vector_2" d="M8.86118 9.83333C7.27042 9.83509 5.74532 10.4678 4.62048 11.5926C3.49565 12.7175 2.86294 14.2426 2.86118 15.8333C2.86118 16.0101 2.93141 16.1797 3.05644 16.3047C3.18146 16.4298 3.35103 16.5 3.52784 16.5C3.70465 16.5 3.87422 16.4298 3.99925 16.3047C4.12427 16.1797 4.19451 16.0101 4.19451 15.8333C4.19451 14.5957 4.68617 13.4087 5.56134 12.5335C6.43651 11.6583 7.6235 11.1667 8.86118 11.1667C10.0989 11.1667 11.2858 11.6583 12.161 12.5335C13.0362 13.4087 13.5278 14.5957 13.5278 15.8333C13.5278 16.0101 13.5981 16.1797 13.7231 16.3047C13.8481 16.4298 14.0177 16.5 14.1945 16.5C14.3713 16.5 14.5409 16.4298 14.6659 16.3047C14.7909 16.1797 14.8612 16.0101 14.8612 15.8333C14.8594 14.2426 14.2267 12.7175 13.1019 11.5926C11.977 10.4678 10.4519 9.83509 8.86118 9.83333Z" fill="black"/>
</g>
<defs>
<clipPath id="clip0_760_4252">
<rect width="16" height="16" fill="white" transform="translate(0.861176 0.5)"/>
</clipPath>
</defs>
</svg>
